  0
SECTION
  2
BLOCKS
  0
ENDSEC
  0
SECTION
  2
ENTITIES
  0
LINE
  8
0
 10
-105
 11
-105
 20
-93
 21
93
  0
LINE
  8
0
 10
-105
 11
-75
 20
93
 21
93
  0
LINE
  8
0
 10
-75
 11
-75
 20
93
 21
105
  0
LINE
  8
0
 10
-75
 11
75
 20
105
 21
105
  0
LINE
  8
0
 10
75
 11
75
 20
105
 21
93
  0
LINE
  8
0
 10
75
 11
105
 20
93
 21
93
  0
LINE
  8
0
 10
105
 11
105
 20
93
 21
-93
  0
LINE
  8
0
 10
105
 11
75
 20
-93
 21
-93
  0
LINE
  8
0
 10
75
 11
75
 20
-93
 21
-105
  0
LINE
  8
0
 10
75
 11
-75
 20
-105
 21
-105
  0
LINE
  8
0
 10
-75
 11
-75
 20
-105
 21
-93
  0
LINE
  8
0
 10
-75
 11
-105
 20
-93
 21
-93
  0
LINE
  8
0
 10
-52.921
 11
-52.887
 20
27.257
 21
27.751
  0
LINE
  8
0
 10
-52.887
 11
-52.812
 20
27.751
 21
28.242
  0
LINE
  8
0
 10
-52.812
 11
-52.697
 20
28.242
 21
28.724
  0
LINE
  8
0
 10
-52.697
 11
-52.543
 20
28.724
 21
29.195
  0
LINE
  8
0
 10
-52.543
 11
-52.35
 20
29.195
 21
29.652
  0
LINE
  8
0
 10
-52.35
 11
-52.12
 20
29.652
 21
30.091
  0
LINE
  8
0
 10
-52.12
 11
-51.854
 20
30.091
 21
30.51
  0
LINE
  8
0
 10
-51.854
 11
-51.555
 20
30.51
 21
30.906
  0
LINE
  8
0
 10
-51.555
 11
-51.224
 20
30.906
 21
31.275
  0
LINE
  8
0
 10
-51.224
 11
-50.864
 20
31.275
 21
31.616
  0
LINE
  8
0
 10
-50.864
 11
-50.477
 20
31.616
 21
31.926
  0
LINE
  8
0
 10
-50.477
 11
-50.066
 20
31.926
 21
32.203
  0
LINE
  8
0
 10
-50.066
 11
-49.633
 20
32.203
 21
32.445
  0
LINE
  8
0
 10
-49.633
 11
-49.181
 20
32.445
 21
32.65
  0
LINE
  8
0
 10
-49.181
 11
-48.715
 20
32.65
 21
32.818
  0
LINE
  8
0
 10
-48.715
 11
-48.236
 20
32.818
 21
32.946
  0
LINE
  8
0
 10
-48.236
 11
-47.748
 20
32.946
 21
33.034
  0
LINE
  8
0
 10
-47.748
 11
-47.254
 20
33.034
 21
33.082
  0
LINE
  8
0
 10
-47.254
 11
-46.758
 20
33.082
 21
33.089
  0
LINE
  8
0
 10
-46.758
 11
-46.264
 20
33.089
 21
33.055
  0
LINE
  8
0
 10
-46.264
 11
-45.773
 20
33.055
 21
32.98
  0
LINE
  8
0
 10
-45.773
 11
-45.291
 20
32.98
 21
32.865
  0
LINE
  8
0
 10
-45.291
 11
-44.82
 20
32.865
 21
32.71
  0
LINE
  8
0
 10
-44.82
 11
-44.363
 20
32.71
 21
32.518
  0
LINE
  8
0
 10
-44.363
 11
-43.924
 20
32.518
 21
32.288
  0
LINE
  8
0
 10
-43.924
 11
-43.505
 20
32.288
 21
32.022
  0
LINE
  8
0
 10
-43.505
 11
-43.109
 20
32.022
 21
31.723
  0
LINE
  8
0
 10
-43.109
 11
-42.74
 20
31.723
 21
31.392
  0
LINE
  8
0
 10
-42.74
 11
-42.399
 20
31.392
 21
31.032
  0
LINE
  8
0
 10
-42.399
 11
-42.089
 20
31.032
 21
30.645
  0
LINE
  8
0
 10
-42.089
 11
-41.812
 20
30.645
 21
30.233
  0
LINE
  8
0
 10
-41.812
 11
-41.57
 20
30.233
 21
29.801
  0
LINE
  8
0
 10
-41.57
 11
-41.365
 20
29.801
 21
29.349
  0
LINE
  8
0
 10
-41.365
 11
-41.197
 20
29.349
 21
28.882
  0
LINE
  8
0
 10
-41.197
 11
-41.069
 20
28.882
 21
28.403
  0
LINE
  8
0
 10
-41.069
 11
-40.98
 20
28.403
 21
27.915
  0
LINE
  8
0
 10
-40.98
 11
-40.933
 20
27.915
 21
27.422
  0
LINE
  8
0
 10
-40.933
 11
-40.926
 20
27.422
 21
26.926
  0
LINE
  8
0
 10
-40.926
 11
-40.96
 20
26.926
 21
26.431
  0
LINE
  8
0
 10
-40.96
 11
-41.035
 20
26.431
 21
25.941
  0
LINE
  8
0
 10
-41.035
 11
-41.15
 20
25.941
 21
25.459
  0
LINE
  8
0
 10
-41.15
 11
-41.305
 20
25.459
 21
24.988
  0
LINE
  8
0
 10
-41.305
 11
-41.497
 20
24.988
 21
24.531
  0
LINE
  8
0
 10
-41.497
 11
-41.727
 20
24.531
 21
24.091
  0
LINE
  8
0
 10
-41.727
 11
-41.993
 20
24.091
 21
23.673
  0
LINE
  8
0
 10
-41.993
 11
-42.292
 20
23.673
 21
23.277
  0
LINE
  8
0
 10
-42.292
 11
-42.623
 20
23.277
 21
22.908
  0
LINE
  8
0
 10
-42.623
 11
-42.983
 20
22.908
 21
22.567
  0
LINE
  8
0
 10
-42.983
 11
-43.37
 20
22.567
 21
22.257
  0
LINE
  8
0
 10
-43.37
 11
-43.782
 20
22.257
 21
21.98
  0
LINE
  8
0
 10
-43.782
 11
-44.214
 20
21.98
 21
21.738
  0
LINE
  8
0
 10
-44.214
 11
-44.666
 20
21.738
 21
21.532
  0
LINE
  8
0
 10
-44.666
 11
-45.133
 20
21.532
 21
21.365
  0
LINE
  8
0
 10
-45.133
 11
-45.612
 20
21.365
 21
21.237
  0
LINE
  8
0
 10
-45.612
 11
-46.099
 20
21.237
 21
21.148
  0
LINE
  8
0
 10
-46.099
 11
-46.593
 20
21.148
 21
21.1
  0
LINE
  8
0
 10
-46.593
 11
-47.089
 20
21.1
 21
21.094
  0
LINE
  8
0
 10
-47.089
 11
-47.584
 20
21.094
 21
21.128
  0
LINE
  8
0
 10
-47.584
 11
-48.074
 20
21.128
 21
21.203
  0
LINE
  8
0
 10
-48.074
 11
-48.556
 20
21.203
 21
21.318
  0
LINE
  8
0
 10
-48.556
 11
-49.027
 20
21.318
 21
21.472
  0
LINE
  8
0
 10
-49.027
 11
-49.484
 20
21.472
 21
21.665
  0
LINE
  8
0
 10
-49.484
 11
-49.924
 20
21.665
 21
21.895
  0
LINE
  8
0
 10
-49.924
 11
-50.342
 20
21.895
 21
22.161
  0
LINE
  8
0
 10
-50.342
 11
-50.738
 20
22.161
 21
22.46
  0
LINE
  8
0
 10
-50.738
 11
-51.107
 20
22.46
 21
22.791
  0
LINE
  8
0
 10
-51.107
 11
-51.448
 20
22.791
 21
23.151
  0
LINE
  8
0
 10
-51.448
 11
-51.758
 20
23.151
 21
23.538
  0
LINE
  8
0
 10
-51.758
 11
-52.035
 20
23.538
 21
23.949
  0
LINE
  8
0
 10
-52.035
 11
-52.277
 20
23.949
 21
24.382
  0
LINE
  8
0
 10
-52.277
 11
-52.483
 20
24.382
 21
24.834
  0
LINE
  8
0
 10
-52.483
 11
-52.65
 20
24.834
 21
25.3
  0
LINE
  8
0
 10
-52.65
 11
-52.778
 20
25.3
 21
25.779
  0
LINE
  8
0
 10
-52.778
 11
-52.867
 20
25.779
 21
26.267
  0
LINE
  8
0
 10
-52.867
 11
-52.915
 20
26.267
 21
26.761
  0
LINE
  8
0
 10
-52.915
 11
-52.921
 20
26.761
 21
27.257
  0
LINE
  8
0
 10
-6
 11
-5.98
 20
-54.183
 21
-53.687
  0
LINE
  8
0
 10
-5.98
 11
-5.918
 20
-53.687
 21
-53.195
  0
LINE
  8
0
 10
-5.918
 11
-5.816
 20
-53.195
 21
-52.71
  0
LINE
  8
0
 10
-5.816
 11
-5.675
 20
-52.71
 21
-52.235
  0
LINE
  8
0
 10
-5.675
 11
-5.495
 20
-52.235
 21
-51.773
  0
LINE
  8
0
 10
-5.495
 11
-5.277
 20
-51.773
 21
-51.327
  0
LINE
  8
0
 10
-5.277
 11
-5.023
 20
-51.327
 21
-50.901
  0
LINE
  8
0
 10
-5.023
 11
-4.735
 20
-50.901
 21
-50.497
  0
LINE
  8
0
 10
-4.735
 11
-4.414
 20
-50.497
 21
-50.119
  0
LINE
  8
0
 10
-4.414
 11
-4.064
 20
-50.119
 21
-49.768
  0
LINE
  8
0
 10
-4.064
 11
-3.685
 20
-49.768
 21
-49.448
  0
LINE
  8
0
 10
-3.685
 11
-3.282
 20
-49.448
 21
-49.16
  0
LINE
  8
0
 10
-3.282
 11
-2.856
 20
-49.16
 21
-48.906
  0
LINE
  8
0
 10
-2.856
 11
-2.41
 20
-48.906
 21
-48.688
  0
LINE
  8
0
 10
-2.41
 11
-1.948
 20
-48.688
 21
-48.508
  0
LINE
  8
0
 10
-1.948
 11
-1.473
 20
-48.508
 21
-48.366
  0
LINE
  8
0
 10
-1.473
 11
-0.988
 20
-48.366
 21
-48.265
  0
LINE
  8
0
 10
-0.988
 11
-0.495
 20
-48.265
 21
-48.203
  0
LINE
  8
0
 10
-0.495
 11
0
 20
-48.203
 21
-48.183
  0
LINE
  8
0
 10
0
 11
0.495
 20
-48.183
 21
-48.203
  0
LINE
  8
0
 10
0.495
 11
0.988
 20
-48.203
 21
-48.265
  0
LINE
  8
0
 10
0.988
 11
1.473
 20
-48.265
 21
-48.366
  0
LINE
  8
0
 10
1.473
 11
1.948
 20
-48.366
 21
-48.508
  0
LINE
  8
0
 10
1.948
 11
2.41
 20
-48.508
 21
-48.688
  0
LINE
  8
0
 10
2.41
 11
2.856
 20
-48.688
 21
-48.906
  0
LINE
  8
0
 10
2.856
 11
3.282
 20
-48.906
 21
-49.16
  0
LINE
  8
0
 10
3.282
 11
3.685
 20
-49.16
 21
-49.448
  0
LINE
  8
0
 10
3.685
 11
4.064
 20
-49.448
 21
-49.768
  0
LINE
  8
0
 10
4.064
 11
4.414
 20
-49.768
 21
-50.119
  0
LINE
  8
0
 10
4.414
 11
4.735
 20
-50.119
 21
-50.497
  0
LINE
  8
0
 10
4.735
 11
5.023
 20
-50.497
 21
-50.901
  0
LINE
  8
0
 10
5.023
 11
5.277
 20
-50.901
 21
-51.327
  0
LINE
  8
0
 10
5.277
 11
5.495
 20
-51.327
 21
-51.773
  0
LINE
  8
0
 10
5.495
 11
5.675
 20
-51.773
 21
-52.235
  0
LINE
  8
0
 10
5.675
 11
5.816
 20
-52.235
 21
-52.71
  0
LINE
  8
0
 10
5.816
 11
5.918
 20
-52.71
 21
-53.195
  0
LINE
  8
0
 10
5.918
 11
5.98
 20
-53.195
 21
-53.687
  0
LINE
  8
0
 10
5.98
 11
6
 20
-53.687
 21
-54.183
  0
LINE
  8
0
 10
6
 11
5.98
 20
-54.183
 21
-54.678
  0
LINE
  8
0
 10
5.98
 11
5.918
 20
-54.678
 21
-55.17
  0
LINE
  8
0
 10
5.918
 11
5.816
 20
-55.17
 21
-55.656
  0
LINE
  8
0
 10
5.816
 11
5.675
 20
-55.656
 21
-56.131
  0
LINE
  8
0
 10
5.675
 11
5.495
 20
-56.131
 21
-56.593
  0
LINE
  8
0
 10
5.495
 11
5.277
 20
-56.593
 21
-57.038
  0
LINE
  8
0
 10
5.277
 11
5.023
 20
-57.038
 21
-57.464
  0
LINE
  8
0
 10
5.023
 11
4.735
 20
-57.464
 21
-57.868
  0
LINE
  8
0
 10
4.735
 11
4.414
 20
-57.868
 21
-58.246
  0
LINE
  8
0
 10
4.414
 11
4.064
 20
-58.246
 21
-58.597
  0
LINE
  8
0
 10
4.064
 11
3.685
 20
-58.597
 21
-58.918
  0
LINE
  8
0
 10
3.685
 11
3.282
 20
-58.918
 21
-59.206
  0
LINE
  8
0
 10
3.282
 11
2.856
 20
-59.206
 21
-59.46
  0
LINE
  8
0
 10
2.856
 11
2.41
 20
-59.46
 21
-59.677
  0
LINE
  8
0
 10
2.41
 11
1.948
 20
-59.677
 21
-59.858
  0
LINE
  8
0
 10
1.948
 11
1.473
 20
-59.858
 21
-59.999
  0
LINE
  8
0
 10
1.473
 11
0.988
 20
-59.999
 21
-60.101
  0
LINE
  8
0
 10
0.988
 11
0.495
 20
-60.101
 21
-60.162
  0
LINE
  8
0
 10
0.495
 11
0
 20
-60.162
 21
-60.183
  0
LINE
  8
0
 10
0
 11
-0.495
 20
-60.183
 21
-60.162
  0
LINE
  8
0
 10
-0.495
 11
-0.988
 20
-60.162
 21
-60.101
  0
LINE
  8
0
 10
-0.988
 11
-1.473
 20
-60.101
 21
-59.999
  0
LINE
  8
0
 10
-1.473
 11
-1.948
 20
-59.999
 21
-59.858
  0
LINE
  8
0
 10
-1.948
 11
-2.41
 20
-59.858
 21
-59.677
  0
LINE
  8
0
 10
-2.41
 11
-2.856
 20
-59.677
 21
-59.46
  0
LINE
  8
0
 10
-2.856
 11
-3.282
 20
-59.46
 21
-59.206
  0
LINE
  8
0
 10
-3.282
 11
-3.685
 20
-59.206
 21
-58.918
  0
LINE
  8
0
 10
-3.685
 11
-4.064
 20
-58.918
 21
-58.597
  0
LINE
  8
0
 10
-4.064
 11
-4.414
 20
-58.597
 21
-58.246
  0
LINE
  8
0
 10
-4.414
 11
-4.735
 20
-58.246
 21
-57.868
  0
LINE
  8
0
 10
-4.735
 11
-5.023
 20
-57.868
 21
-57.464
  0
LINE
  8
0
 10
-5.023
 11
-5.277
 20
-57.464
 21
-57.038
  0
LINE
  8
0
 10
-5.277
 11
-5.495
 20
-57.038
 21
-56.593
  0
LINE
  8
0
 10
-5.495
 11
-5.675
 20
-56.593
 21
-56.131
  0
LINE
  8
0
 10
-5.675
 11
-5.816
 20
-56.131
 21
-55.656
  0
LINE
  8
0
 10
-5.816
 11
-5.918
 20
-55.656
 21
-55.17
  0
LINE
  8
0
 10
-5.918
 11
-5.98
 20
-55.17
 21
-54.678
  0
LINE
  8
0
 10
-5.98
 11
-6
 20
-54.678
 21
-54.183
  0
LINE
  8
0
 10
40.926
 11
40.933
 20
26.926
 21
27.422
  0
LINE
  8
0
 10
40.933
 11
40.98
 20
27.422
 21
27.915
  0
LINE
  8
0
 10
40.98
 11
41.069
 20
27.915
 21
28.403
  0
LINE
  8
0
 10
41.069
 11
41.197
 20
28.403
 21
28.882
  0
LINE
  8
0
 10
41.197
 11
41.365
 20
28.882
 21
29.349
  0
LINE
  8
0
 10
41.365
 11
41.57
 20
29.349
 21
29.801
  0
LINE
  8
0
 10
41.57
 11
41.812
 20
29.801
 21
30.233
  0
LINE
  8
0
 10
41.812
 11
42.089
 20
30.233
 21
30.645
  0
LINE
  8
0
 10
42.089
 11
42.399
 20
30.645
 21
31.032
  0
LINE
  8
0
 10
42.399
 11
42.74
 20
31.032
 21
31.392
  0
LINE
  8
0
 10
42.74
 11
43.109
 20
31.392
 21
31.723
  0
LINE
  8
0
 10
43.109
 11
43.505
 20
31.723
 21
32.022
  0
LINE
  8
0
 10
43.505
 11
43.924
 20
32.022
 21
32.288
  0
LINE
  8
0
 10
43.924
 11
44.363
 20
32.288
 21
32.518
  0
LINE
  8
0
 10
44.363
 11
44.82
 20
32.518
 21
32.71
  0
LINE
  8
0
 10
44.82
 11
45.291
 20
32.71
 21
32.865
  0
LINE
  8
0
 10
45.291
 11
45.773
 20
32.865
 21
32.98
  0
LINE
  8
0
 10
45.773
 11
46.264
 20
32.98
 21
33.055
  0
LINE
  8
0
 10
46.264
 11
46.758
 20
33.055
 21
33.089
  0
LINE
  8
0
 10
46.758
 11
47.254
 20
33.089
 21
33.082
  0
LINE
  8
0
 10
47.254
 11
47.748
 20
33.082
 21
33.034
  0
LINE
  8
0
 10
47.748
 11
48.236
 20
33.034
 21
32.946
  0
LINE
  8
0
 10
48.236
 11
48.715
 20
32.946
 21
32.818
  0
LINE
  8
0
 10
48.715
 11
49.181
 20
32.818
 21
32.65
  0
LINE
  8
0
 10
49.181
 11
49.633
 20
32.65
 21
32.445
  0
LINE
  8
0
 10
49.633
 11
50.066
 20
32.445
 21
32.203
  0
LINE
  8
0
 10
50.066
 11
50.477
 20
32.203
 21
31.926
  0
LINE
  8
0
 10
50.477
 11
50.864
 20
31.926
 21
31.616
  0
LINE
  8
0
 10
50.864
 11
51.224
 20
31.616
 21
31.275
  0
LINE
  8
0
 10
51.224
 11
51.555
 20
31.275
 21
30.906
  0
LINE
  8
0
 10
51.555
 11
51.854
 20
30.906
 21
30.51
  0
LINE
  8
0
 10
51.854
 11
52.12
 20
30.51
 21
30.091
  0
LINE
  8
0
 10
52.12
 11
52.35
 20
30.091
 21
29.652
  0
LINE
  8
0
 10
52.35
 11
52.543
 20
29.652
 21
29.195
  0
LINE
  8
0
 10
52.543
 11
52.697
 20
29.195
 21
28.724
  0
LINE
  8
0
 10
52.697
 11
52.812
 20
28.724
 21
28.242
  0
LINE
  8
0
 10
52.812
 11
52.887
 20
28.242
 21
27.751
  0
LINE
  8
0
 10
52.887
 11
52.921
 20
27.751
 21
27.257
  0
LINE
  8
0
 10
52.921
 11
52.915
 20
27.257
 21
26.761
  0
LINE
  8
0
 10
52.915
 11
52.867
 20
26.761
 21
26.267
  0
LINE
  8
0
 10
52.867
 11
52.778
 20
26.267
 21
25.779
  0
LINE
  8
0
 10
52.778
 11
52.65
 20
25.779
 21
25.3
  0
LINE
  8
0
 10
52.65
 11
52.483
 20
25.3
 21
24.834
  0
LINE
  8
0
 10
52.483
 11
52.277
 20
24.834
 21
24.382
  0
LINE
  8
0
 10
52.277
 11
52.035
 20
24.382
 21
23.949
  0
LINE
  8
0
 10
52.035
 11
51.758
 20
23.949
 21
23.538
  0
LINE
  8
0
 10
51.758
 11
51.448
 20
23.538
 21
23.151
  0
LINE
  8
0
 10
51.448
 11
51.107
 20
23.151
 21
22.791
  0
LINE
  8
0
 10
51.107
 11
50.738
 20
22.791
 21
22.46
  0
LINE
  8
0
 10
50.738
 11
50.342
 20
22.46
 21
22.161
  0
LINE
  8
0
 10
50.342
 11
49.924
 20
22.161
 21
21.895
  0
LINE
  8
0
 10
49.924
 11
49.484
 20
21.895
 21
21.665
  0
LINE
  8
0
 10
49.484
 11
49.027
 20
21.665
 21
21.472
  0
LINE
  8
0
 10
49.027
 11
48.556
 20
21.472
 21
21.318
  0
LINE
  8
0
 10
48.556
 11
48.074
 20
21.318
 21
21.203
  0
LINE
  8
0
 10
48.074
 11
47.584
 20
21.203
 21
21.128
  0
LINE
  8
0
 10
47.584
 11
47.089
 20
21.128
 21
21.094
  0
LINE
  8
0
 10
47.089
 11
46.593
 20
21.094
 21
21.1
  0
LINE
  8
0
 10
46.593
 11
46.099
 20
21.1
 21
21.148
  0
LINE
  8
0
 10
46.099
 11
45.612
 20
21.148
 21
21.237
  0
LINE
  8
0
 10
45.612
 11
45.133
 20
21.237
 21
21.365
  0
LINE
  8
0
 10
45.133
 11
44.666
 20
21.365
 21
21.532
  0
LINE
  8
0
 10
44.666
 11
44.214
 20
21.532
 21
21.738
  0
LINE
  8
0
 10
44.214
 11
43.782
 20
21.738
 21
21.98
  0
LINE
  8
0
 10
43.782
 11
43.37
 20
21.98
 21
22.257
  0
LINE
  8
0
 10
43.37
 11
42.983
 20
22.257
 21
22.567
  0
LINE
  8
0
 10
42.983
 11
42.623
 20
22.567
 21
22.908
  0
LINE
  8
0
 10
42.623
 11
42.292
 20
22.908
 21
23.277
  0
LINE
  8
0
 10
42.292
 11
41.993
 20
23.277
 21
23.673
  0
LINE
  8
0
 10
41.993
 11
41.727
 20
23.673
 21
24.091
  0
LINE
  8
0
 10
41.727
 11
41.497
 20
24.091
 21
24.531
  0
LINE
  8
0
 10
41.497
 11
41.305
 20
24.531
 21
24.988
  0
LINE
  8
0
 10
41.305
 11
41.15
 20
24.988
 21
25.459
  0
LINE
  8
0
 10
41.15
 11
41.035
 20
25.459
 21
25.941
  0
LINE
  8
0
 10
41.035
 11
40.96
 20
25.941
 21
26.431
  0
LINE
  8
0
 10
40.96
 11
40.926
 20
26.431
 21
26.926
  0
ENDSEC
  0
SECTION
  2
OBJECTS
  0
DICTIONARY
  0
ENDSEC
  0
EOF
