  0
SECTION
  2
BLOCKS
  0
ENDSEC
  0
SECTION
  2
ENTITIES
  0
LINE
  8
0
 10
-129
 11
-128.942
 20
-44.75
 21
-44.271
  0
LINE
  8
0
 10
-128.942
 11
-128.771
 20
-44.271
 21
-43.821
  0
LINE
  8
0
 10
-128.771
 11
-128.497
 20
-43.821
 21
-43.424
  0
LINE
  8
0
 10
-128.497
 11
-128.136
 20
-43.424
 21
-43.104
  0
LINE
  8
0
 10
-128.136
 11
-127.709
 20
-43.104
 21
-42.88
  0
LINE
  8
0
 10
-127.709
 11
-127.241
 20
-42.88
 21
-42.765
  0
LINE
  8
0
 10
-127.241
 11
-126.759
 20
-42.765
 21
-42.765
  0
LINE
  8
0
 10
-126.759
 11
-126.291
 20
-42.765
 21
-42.88
  0
LINE
  8
0
 10
-126.291
 11
-125.864
 20
-42.88
 21
-43.104
  0
LINE
  8
0
 10
-125.864
 11
-125.503
 20
-43.104
 21
-43.424
  0
LINE
  8
0
 10
-125.503
 11
-125.229
 20
-43.424
 21
-43.821
  0
LINE
  8
0
 10
-125.229
 11
-125.058
 20
-43.821
 21
-44.271
  0
LINE
  8
0
 10
-125.058
 11
-125
 20
-44.271
 21
-44.75
  0
LINE
  8
0
 10
-125
 11
-125.058
 20
-44.75
 21
-45.229
  0
LINE
  8
0
 10
-125.058
 11
-125.229
 20
-45.229
 21
-45.679
  0
LINE
  8
0
 10
-125.229
 11
-125.503
 20
-45.679
 21
-46.076
  0
LINE
  8
0
 10
-125.503
 11
-125.864
 20
-46.076
 21
-46.396
  0
LINE
  8
0
 10
-125.864
 11
-126.291
 20
-46.396
 21
-46.62
  0
LINE
  8
0
 10
-126.291
 11
-126.759
 20
-46.62
 21
-46.735
  0
LINE
  8
0
 10
-126.759
 11
-127.241
 20
-46.735
 21
-46.735
  0
LINE
  8
0
 10
-127.241
 11
-127.709
 20
-46.735
 21
-46.62
  0
LINE
  8
0
 10
-127.709
 11
-128.136
 20
-46.62
 21
-46.396
  0
LINE
  8
0
 10
-128.136
 11
-128.497
 20
-46.396
 21
-46.076
  0
LINE
  8
0
 10
-128.497
 11
-128.771
 20
-46.076
 21
-45.679
  0
LINE
  8
0
 10
-128.771
 11
-128.942
 20
-45.679
 21
-45.229
  0
LINE
  8
0
 10
-128.942
 11
-129
 20
-45.229
 21
-44.75
  0
LINE
  8
0
 10
-129
 11
-128.942
 20
44.75
 21
45.229
  0
LINE
  8
0
 10
-128.942
 11
-128.771
 20
45.229
 21
45.679
  0
LINE
  8
0
 10
-128.771
 11
-128.497
 20
45.679
 21
46.076
  0
LINE
  8
0
 10
-128.497
 11
-128.136
 20
46.076
 21
46.396
  0
LINE
  8
0
 10
-128.136
 11
-127.709
 20
46.396
 21
46.62
  0
LINE
  8
0
 10
-127.709
 11
-127.241
 20
46.62
 21
46.735
  0
LINE
  8
0
 10
-127.241
 11
-126.759
 20
46.735
 21
46.735
  0
LINE
  8
0
 10
-126.759
 11
-126.291
 20
46.735
 21
46.62
  0
LINE
  8
0
 10
-126.291
 11
-125.864
 20
46.62
 21
46.396
  0
LINE
  8
0
 10
-125.864
 11
-125.503
 20
46.396
 21
46.076
  0
LINE
  8
0
 10
-125.503
 11
-125.229
 20
46.076
 21
45.679
  0
LINE
  8
0
 10
-125.229
 11
-125.058
 20
45.679
 21
45.229
  0
LINE
  8
0
 10
-125.058
 11
-125
 20
45.229
 21
44.75
  0
LINE
  8
0
 10
-125
 11
-125.058
 20
44.75
 21
44.271
  0
LINE
  8
0
 10
-125.058
 11
-125.229
 20
44.271
 21
43.821
  0
LINE
  8
0
 10
-125.229
 11
-125.503
 20
43.821
 21
43.424
  0
LINE
  8
0
 10
-125.503
 11
-125.864
 20
43.424
 21
43.104
  0
LINE
  8
0
 10
-125.864
 11
-126.291
 20
43.104
 21
42.88
  0
LINE
  8
0
 10
-126.291
 11
-126.759
 20
42.88
 21
42.765
  0
LINE
  8
0
 10
-126.759
 11
-127.241
 20
42.765
 21
42.765
  0
LINE
  8
0
 10
-127.241
 11
-127.709
 20
42.765
 21
42.88
  0
LINE
  8
0
 10
-127.709
 11
-128.136
 20
42.88
 21
43.104
  0
LINE
  8
0
 10
-128.136
 11
-128.497
 20
43.104
 21
43.424
  0
LINE
  8
0
 10
-128.497
 11
-128.771
 20
43.424
 21
43.821
  0
LINE
  8
0
 10
-128.771
 11
-128.942
 20
43.821
 21
44.271
  0
LINE
  8
0
 10
-128.942
 11
-129
 20
44.271
 21
44.75
  0
LINE
  8
0
 10
-130.296
 11
-130.296
 20
-79.749
 21
79.749
  0
LINE
  8
0
 10
-130.296
 11
-130.268
 20
79.749
 21
80.246
  0
LINE
  8
0
 10
-130.268
 11
-130.212
 20
80.246
 21
80.741
  0
LINE
  8
0
 10
-130.212
 11
-130.128
 20
80.741
 21
81.232
  0
LINE
  8
0
 10
-130.128
 11
-130.016
 20
81.232
 21
81.717
  0
LINE
  8
0
 10
-130.016
 11
-129.877
 20
81.717
 21
82.196
  0
LINE
  8
0
 10
-129.877
 11
-129.711
 20
82.196
 21
82.665
  0
LINE
  8
0
 10
-129.711
 11
-129.519
 20
82.665
 21
83.125
  0
LINE
  8
0
 10
-129.519
 11
-129.301
 20
83.125
 21
83.573
  0
LINE
  8
0
 10
-129.301
 11
-129.058
 20
83.573
 21
84.007
  0
LINE
  8
0
 10
-129.058
 11
-128.791
 20
84.007
 21
84.428
  0
LINE
  8
0
 10
-128.791
 11
-128.5
 20
84.428
 21
84.832
  0
LINE
  8
0
 10
-128.5
 11
-128.188
 20
84.832
 21
85.22
  0
LINE
  8
0
 10
-128.188
 11
-127.853
 20
85.22
 21
85.589
  0
LINE
  8
0
 10
-127.853
 11
-127.499
 20
85.589
 21
85.939
  0
LINE
  8
0
 10
-127.499
 11
-127.125
 20
85.939
 21
86.268
  0
LINE
  8
0
 10
-127.125
 11
-126.733
 20
86.268
 21
86.575
  0
LINE
  8
0
 10
-126.733
 11
-126.324
 20
86.575
 21
86.86
  0
LINE
  8
0
 10
-126.324
 11
-125.9
 20
86.86
 21
87.121
  0
LINE
  8
0
 10
-125.9
 11
-125.462
 20
87.121
 21
87.358
  0
LINE
  8
0
 10
-125.462
 11
-125.011
 20
87.358
 21
87.569
  0
LINE
  8
0
 10
-125.011
 11
-124.549
 20
87.569
 21
87.755
  0
LINE
  8
0
 10
-124.549
 11
-124.077
 20
87.755
 21
87.914
  0
LINE
  8
0
 10
-124.077
 11
-123.597
 20
87.914
 21
88.047
  0
LINE
  8
0
 10
-123.597
 11
-123.11
 20
88.047
 21
88.152
  0
LINE
  8
0
 10
-123.11
 11
-122.618
 20
88.152
 21
88.229
  0
LINE
  8
0
 10
-122.618
 11
-122.122
 20
88.229
 21
88.278
  0
LINE
  8
0
 10
-122.122
 11
-121.625
 20
88.278
 21
88.299
  0
LINE
  8
0
 10
-121.625
 11
121.375
 20
88.299
 21
88.299
  0
LINE
  8
0
 10
121.375
 11
121.873
 20
88.299
 21
88.292
  0
LINE
  8
0
 10
121.873
 11
122.37
 20
88.292
 21
88.257
  0
LINE
  8
0
 10
122.37
 11
122.864
 20
88.257
 21
88.194
  0
LINE
  8
0
 10
122.864
 11
123.354
 20
88.194
 21
88.102
  0
LINE
  8
0
 10
123.354
 11
123.838
 20
88.102
 21
87.984
  0
LINE
  8
0
 10
123.838
 11
124.314
 20
87.984
 21
87.838
  0
LINE
  8
0
 10
124.314
 11
124.781
 20
87.838
 21
87.665
  0
LINE
  8
0
 10
124.781
 11
125.238
 20
87.665
 21
87.467
  0
LINE
  8
0
 10
125.238
 11
125.683
 20
87.467
 21
87.242
  0
LINE
  8
0
 10
125.683
 11
126.114
 20
87.242
 21
86.993
  0
LINE
  8
0
 10
126.114
 11
126.53
 20
86.993
 21
86.72
  0
LINE
  8
0
 10
126.53
 11
126.931
 20
86.72
 21
86.424
  0
LINE
  8
0
 10
126.931
 11
127.314
 20
86.424
 21
86.106
  0
LINE
  8
0
 10
127.314
 11
127.678
 20
86.106
 21
85.766
  0
LINE
  8
0
 10
127.678
 11
128.023
 20
85.766
 21
85.407
  0
LINE
  8
0
 10
128.023
 11
128.347
 20
85.407
 21
85.028
  0
LINE
  8
0
 10
128.347
 11
128.649
 20
85.028
 21
84.632
  0
LINE
  8
0
 10
128.649
 11
128.927
 20
84.632
 21
84.219
  0
LINE
  8
0
 10
128.927
 11
129.183
 20
84.219
 21
83.792
  0
LINE
  8
0
 10
129.183
 11
129.413
 20
83.792
 21
83.35
  0
LINE
  8
0
 10
129.413
 11
129.618
 20
83.35
 21
82.896
  0
LINE
  8
0
 10
129.618
 11
129.797
 20
82.896
 21
82.432
  0
LINE
  8
0
 10
129.797
 11
129.95
 20
82.432
 21
81.958
  0
LINE
  8
0
 10
129.95
 11
130.075
 20
81.958
 21
81.476
  0
LINE
  8
0
 10
130.075
 11
130.173
 20
81.476
 21
80.987
  0
LINE
  8
0
 10
130.173
 11
130.244
 20
80.987
 21
80.494
  0
LINE
  8
0
 10
130.244
 11
130.286
 20
80.494
 21
79.998
  0
LINE
  8
0
 10
130.286
 11
130.3
 20
79.998
 21
79.5
  0
LINE
  8
0
 10
130.3
 11
130.3
 20
79.5
 21
-79.5
  0
LINE
  8
0
 10
130.3
 11
130.286
 20
-79.5
 21
-79.998
  0
LINE
  8
0
 10
130.286
 11
130.244
 20
-79.998
 21
-80.494
  0
LINE
  8
0
 10
130.244
 11
130.173
 20
-80.494
 21
-80.987
  0
LINE
  8
0
 10
130.173
 11
130.075
 20
-80.987
 21
-81.476
  0
LINE
  8
0
 10
130.075
 11
129.95
 20
-81.476
 21
-81.958
  0
LINE
  8
0
 10
129.95
 11
129.797
 20
-81.958
 21
-82.432
  0
LINE
  8
0
 10
129.797
 11
129.618
 20
-82.432
 21
-82.896
  0
LINE
  8
0
 10
129.618
 11
129.413
 20
-82.896
 21
-83.35
  0
LINE
  8
0
 10
129.413
 11
129.183
 20
-83.35
 21
-83.792
  0
LINE
  8
0
 10
129.183
 11
128.927
 20
-83.792
 21
-84.219
  0
LINE
  8
0
 10
128.927
 11
128.649
 20
-84.219
 21
-84.632
  0
LINE
  8
0
 10
128.649
 11
128.347
 20
-84.632
 21
-85.028
  0
LINE
  8
0
 10
128.347
 11
128.023
 20
-85.028
 21
-85.407
  0
LINE
  8
0
 10
128.023
 11
127.678
 20
-85.407
 21
-85.766
  0
LINE
  8
0
 10
127.678
 11
127.314
 20
-85.766
 21
-86.106
  0
LINE
  8
0
 10
127.314
 11
126.931
 20
-86.106
 21
-86.424
  0
LINE
  8
0
 10
126.931
 11
126.53
 20
-86.424
 21
-86.72
  0
LINE
  8
0
 10
126.53
 11
126.114
 20
-86.72
 21
-86.993
  0
LINE
  8
0
 10
126.114
 11
125.683
 20
-86.993
 21
-87.242
  0
LINE
  8
0
 10
125.683
 11
125.238
 20
-87.242
 21
-87.467
  0
LINE
  8
0
 10
125.238
 11
124.781
 20
-87.467
 21
-87.665
  0
LINE
  8
0
 10
124.781
 11
124.314
 20
-87.665
 21
-87.838
  0
LINE
  8
0
 10
124.314
 11
123.838
 20
-87.838
 21
-87.984
  0
LINE
  8
0
 10
123.838
 11
123.354
 20
-87.984
 21
-88.102
  0
LINE
  8
0
 10
123.354
 11
122.864
 20
-88.102
 21
-88.194
  0
LINE
  8
0
 10
122.864
 11
122.37
 20
-88.194
 21
-88.257
  0
LINE
  8
0
 10
122.37
 11
121.873
 20
-88.257
 21
-88.292
  0
LINE
  8
0
 10
121.873
 11
121.375
 20
-88.292
 21
-88.299
  0
LINE
  8
0
 10
121.375
 11
-121.625
 20
-88.299
 21
-88.299
  0
LINE
  8
0
 10
-121.625
 11
-122.122
 20
-88.299
 21
-88.278
  0
LINE
  8
0
 10
-122.122
 11
-122.618
 20
-88.278
 21
-88.229
  0
LINE
  8
0
 10
-122.618
 11
-123.11
 20
-88.229
 21
-88.152
  0
LINE
  8
0
 10
-123.11
 11
-123.597
 20
-88.152
 21
-88.047
  0
LINE
  8
0
 10
-123.597
 11
-124.077
 20
-88.047
 21
-87.914
  0
LINE
  8
0
 10
-124.077
 11
-124.549
 20
-87.914
 21
-87.755
  0
LINE
  8
0
 10
-124.549
 11
-125.011
 20
-87.755
 21
-87.569
  0
LINE
  8
0
 10
-125.011
 11
-125.462
 20
-87.569
 21
-87.358
  0
LINE
  8
0
 10
-125.462
 11
-125.9
 20
-87.358
 21
-87.121
  0
LINE
  8
0
 10
-125.9
 11
-126.324
 20
-87.121
 21
-86.86
  0
LINE
  8
0
 10
-126.324
 11
-126.733
 20
-86.86
 21
-86.575
  0
LINE
  8
0
 10
-126.733
 11
-127.125
 20
-86.575
 21
-86.268
  0
LINE
  8
0
 10
-127.125
 11
-127.499
 20
-86.268
 21
-85.939
  0
LINE
  8
0
 10
-127.499
 11
-127.853
 20
-85.939
 21
-85.589
  0
LINE
  8
0
 10
-127.853
 11
-128.188
 20
-85.589
 21
-85.22
  0
LINE
  8
0
 10
-128.188
 11
-128.5
 20
-85.22
 21
-84.832
  0
LINE
  8
0
 10
-128.5
 11
-128.791
 20
-84.832
 21
-84.428
  0
LINE
  8
0
 10
-128.791
 11
-129.058
 20
-84.428
 21
-84.007
  0
LINE
  8
0
 10
-129.058
 11
-129.301
 20
-84.007
 21
-83.573
  0
LINE
  8
0
 10
-129.301
 11
-129.519
 20
-83.573
 21
-83.125
  0
LINE
  8
0
 10
-129.519
 11
-129.711
 20
-83.125
 21
-82.665
  0
LINE
  8
0
 10
-129.711
 11
-129.877
 20
-82.665
 21
-82.196
  0
LINE
  8
0
 10
-129.877
 11
-130.016
 20
-82.196
 21
-81.717
  0
LINE
  8
0
 10
-130.016
 11
-130.128
 20
-81.717
 21
-81.232
  0
LINE
  8
0
 10
-130.128
 11
-130.212
 20
-81.232
 21
-80.741
  0
LINE
  8
0
 10
-130.212
 11
-130.268
 20
-80.741
 21
-80.246
  0
LINE
  8
0
 10
-130.268
 11
-130.296
 20
-80.246
 21
-79.749
  0
LINE
  8
0
 10
-67.75
 11
-67.692
 20
-85
 21
-84.521
  0
LINE
  8
0
 10
-67.692
 11
-67.521
 20
-84.521
 21
-84.071
  0
LINE
  8
0
 10
-67.521
 11
-67.247
 20
-84.071
 21
-83.674
  0
LINE
  8
0
 10
-67.247
 11
-66.886
 20
-83.674
 21
-83.354
  0
LINE
  8
0
 10
-66.886
 11
-66.459
 20
-83.354
 21
-83.13
  0
LINE
  8
0
 10
-66.459
 11
-65.991
 20
-83.13
 21
-83.015
  0
LINE
  8
0
 10
-65.991
 11
-65.509
 20
-83.015
 21
-83.015
  0
LINE
  8
0
 10
-65.509
 11
-65.041
 20
-83.015
 21
-83.13
  0
LINE
  8
0
 10
-65.041
 11
-64.614
 20
-83.13
 21
-83.354
  0
LINE
  8
0
 10
-64.614
 11
-64.253
 20
-83.354
 21
-83.674
  0
LINE
  8
0
 10
-64.253
 11
-63.979
 20
-83.674
 21
-84.071
  0
LINE
  8
0
 10
-63.979
 11
-63.808
 20
-84.071
 21
-84.521
  0
LINE
  8
0
 10
-63.808
 11
-63.75
 20
-84.521
 21
-85
  0
LINE
  8
0
 10
-63.75
 11
-63.808
 20
-85
 21
-85.479
  0
LINE
  8
0
 10
-63.808
 11
-63.979
 20
-85.479
 21
-85.929
  0
LINE
  8
0
 10
-63.979
 11
-64.253
 20
-85.929
 21
-86.326
  0
LINE
  8
0
 10
-64.253
 11
-64.614
 20
-86.326
 21
-86.646
  0
LINE
  8
0
 10
-64.614
 11
-65.041
 20
-86.646
 21
-86.87
  0
LINE
  8
0
 10
-65.041
 11
-65.509
 20
-86.87
 21
-86.985
  0
LINE
  8
0
 10
-65.509
 11
-65.991
 20
-86.985
 21
-86.985
  0
LINE
  8
0
 10
-65.991
 11
-66.459
 20
-86.985
 21
-86.87
  0
LINE
  8
0
 10
-66.459
 11
-66.886
 20
-86.87
 21
-86.646
  0
LINE
  8
0
 10
-66.886
 11
-67.247
 20
-86.646
 21
-86.326
  0
LINE
  8
0
 10
-67.247
 11
-67.521
 20
-86.326
 21
-85.929
  0
LINE
  8
0
 10
-67.521
 11
-67.692
 20
-85.929
 21
-85.479
  0
LINE
  8
0
 10
-67.692
 11
-67.75
 20
-85.479
 21
-85
  0
LINE
  8
0
 10
-67.75
 11
-67.692
 20
85
 21
85.479
  0
LINE
  8
0
 10
-67.692
 11
-67.521
 20
85.479
 21
85.929
  0
LINE
  8
0
 10
-67.521
 11
-67.247
 20
85.929
 21
86.326
  0
LINE
  8
0
 10
-67.247
 11
-66.886
 20
86.326
 21
86.646
  0
LINE
  8
0
 10
-66.886
 11
-66.459
 20
86.646
 21
86.87
  0
LINE
  8
0
 10
-66.459
 11
-65.991
 20
86.87
 21
86.985
  0
LINE
  8
0
 10
-65.991
 11
-65.509
 20
86.985
 21
86.985
  0
LINE
  8
0
 10
-65.509
 11
-65.041
 20
86.985
 21
86.87
  0
LINE
  8
0
 10
-65.041
 11
-64.614
 20
86.87
 21
86.646
  0
LINE
  8
0
 10
-64.614
 11
-64.253
 20
86.646
 21
86.326
  0
LINE
  8
0
 10
-64.253
 11
-63.979
 20
86.326
 21
85.929
  0
LINE
  8
0
 10
-63.979
 11
-63.808
 20
85.929
 21
85.479
  0
LINE
  8
0
 10
-63.808
 11
-63.75
 20
85.479
 21
85
  0
LINE
  8
0
 10
-63.75
 11
-63.808
 20
85
 21
84.521
  0
LINE
  8
0
 10
-63.808
 11
-63.979
 20
84.521
 21
84.071
  0
LINE
  8
0
 10
-63.979
 11
-64.253
 20
84.071
 21
83.674
  0
LINE
  8
0
 10
-64.253
 11
-64.614
 20
83.674
 21
83.354
  0
LINE
  8
0
 10
-64.614
 11
-65.041
 20
83.354
 21
83.13
  0
LINE
  8
0
 10
-65.041
 11
-65.509
 20
83.13
 21
83.015
  0
LINE
  8
0
 10
-65.509
 11
-65.991
 20
83.015
 21
83.015
  0
LINE
  8
0
 10
-65.991
 11
-66.459
 20
83.015
 21
83.13
  0
LINE
  8
0
 10
-66.459
 11
-66.886
 20
83.13
 21
83.354
  0
LINE
  8
0
 10
-66.886
 11
-67.247
 20
83.354
 21
83.674
  0
LINE
  8
0
 10
-67.247
 11
-67.521
 20
83.674
 21
84.071
  0
LINE
  8
0
 10
-67.521
 11
-67.692
 20
84.071
 21
84.521
  0
LINE
  8
0
 10
-67.692
 11
-67.75
 20
84.521
 21
85
  0
LINE
  8
0
 10
-17.3
 11
-17.242
 20
-15.3
 21
-14.821
  0
LINE
  8
0
 10
-17.242
 11
-17.071
 20
-14.821
 21
-14.371
  0
LINE
  8
0
 10
-17.071
 11
-16.797
 20
-14.371
 21
-13.974
  0
LINE
  8
0
 10
-16.797
 11
-16.436
 20
-13.974
 21
-13.654
  0
LINE
  8
0
 10
-16.436
 11
-16.009
 20
-13.654
 21
-13.43
  0
LINE
  8
0
 10
-16.009
 11
-15.541
 20
-13.43
 21
-13.315
  0
LINE
  8
0
 10
-15.541
 11
-15.059
 20
-13.315
 21
-13.315
  0
LINE
  8
0
 10
-15.059
 11
-14.591
 20
-13.315
 21
-13.43
  0
LINE
  8
0
 10
-14.591
 11
-14.164
 20
-13.43
 21
-13.654
  0
LINE
  8
0
 10
-14.164
 11
-13.803
 20
-13.654
 21
-13.974
  0
LINE
  8
0
 10
-13.803
 11
-13.529
 20
-13.974
 21
-14.371
  0
LINE
  8
0
 10
-13.529
 11
-13.358
 20
-14.371
 21
-14.821
  0
LINE
  8
0
 10
-13.358
 11
-13.3
 20
-14.821
 21
-15.3
  0
LINE
  8
0
 10
-13.3
 11
-13.358
 20
-15.3
 21
-15.779
  0
LINE
  8
0
 10
-13.358
 11
-13.529
 20
-15.779
 21
-16.229
  0
LINE
  8
0
 10
-13.529
 11
-13.803
 20
-16.229
 21
-16.626
  0
LINE
  8
0
 10
-13.803
 11
-14.164
 20
-16.626
 21
-16.946
  0
LINE
  8
0
 10
-14.164
 11
-14.591
 20
-16.946
 21
-17.17
  0
LINE
  8
0
 10
-14.591
 11
-15.059
 20
-17.17
 21
-17.285
  0
LINE
  8
0
 10
-15.059
 11
-15.541
 20
-17.285
 21
-17.285
  0
LINE
  8
0
 10
-15.541
 11
-16.009
 20
-17.285
 21
-17.17
  0
LINE
  8
0
 10
-16.009
 11
-16.436
 20
-17.17
 21
-16.946
  0
LINE
  8
0
 10
-16.436
 11
-16.797
 20
-16.946
 21
-16.626
  0
LINE
  8
0
 10
-16.797
 11
-17.071
 20
-16.626
 21
-16.229
  0
LINE
  8
0
 10
-17.071
 11
-17.242
 20
-16.229
 21
-15.779
  0
LINE
  8
0
 10
-17.242
 11
-17.3
 20
-15.779
 21
-15.3
  0
LINE
  8
0
 10
-17.3
 11
-17.242
 20
15.3
 21
15.779
  0
LINE
  8
0
 10
-17.242
 11
-17.071
 20
15.779
 21
16.229
  0
LINE
  8
0
 10
-17.071
 11
-16.797
 20
16.229
 21
16.626
  0
LINE
  8
0
 10
-16.797
 11
-16.436
 20
16.626
 21
16.946
  0
LINE
  8
0
 10
-16.436
 11
-16.009
 20
16.946
 21
17.17
  0
LINE
  8
0
 10
-16.009
 11
-15.541
 20
17.17
 21
17.285
  0
LINE
  8
0
 10
-15.541
 11
-15.059
 20
17.285
 21
17.285
  0
LINE
  8
0
 10
-15.059
 11
-14.591
 20
17.285
 21
17.17
  0
LINE
  8
0
 10
-14.591
 11
-14.164
 20
17.17
 21
16.946
  0
LINE
  8
0
 10
-14.164
 11
-13.803
 20
16.946
 21
16.626
  0
LINE
  8
0
 10
-13.803
 11
-13.529
 20
16.626
 21
16.229
  0
LINE
  8
0
 10
-13.529
 11
-13.358
 20
16.229
 21
15.779
  0
LINE
  8
0
 10
-13.358
 11
-13.3
 20
15.779
 21
15.3
  0
LINE
  8
0
 10
-13.3
 11
-13.358
 20
15.3
 21
14.821
  0
LINE
  8
0
 10
-13.358
 11
-13.529
 20
14.821
 21
14.371
  0
LINE
  8
0
 10
-13.529
 11
-13.803
 20
14.371
 21
13.974
  0
LINE
  8
0
 10
-13.803
 11
-14.164
 20
13.974
 21
13.654
  0
LINE
  8
0
 10
-14.164
 11
-14.591
 20
13.654
 21
13.43
  0
LINE
  8
0
 10
-14.591
 11
-15.059
 20
13.43
 21
13.315
  0
LINE
  8
0
 10
-15.059
 11
-15.541
 20
13.315
 21
13.315
  0
LINE
  8
0
 10
-15.541
 11
-16.009
 20
13.315
 21
13.43
  0
LINE
  8
0
 10
-16.009
 11
-16.436
 20
13.43
 21
13.654
  0
LINE
  8
0
 10
-16.436
 11
-16.797
 20
13.654
 21
13.974
  0
LINE
  8
0
 10
-16.797
 11
-17.071
 20
13.974
 21
14.371
  0
LINE
  8
0
 10
-17.071
 11
-17.242
 20
14.371
 21
14.821
  0
LINE
  8
0
 10
-17.242
 11
-17.3
 20
14.821
 21
15.3
  0
LINE
  8
0
 10
-10
 11
-9.988
 20
0
 21
0.498
  0
LINE
  8
0
 10
-9.988
 11
-9.95
 20
0.498
 21
0.996
  0
LINE
  8
0
 10
-9.95
 11
-9.888
 20
0.996
 21
1.49
  0
LINE
  8
0
 10
-9.888
 11
-9.802
 20
1.49
 21
1.981
  0
LINE
  8
0
 10
-9.802
 11
-9.691
 20
1.981
 21
2.468
  0
LINE
  8
0
 10
-9.691
 11
-9.556
 20
2.468
 21
2.948
  0
LINE
  8
0
 10
-9.556
 11
-9.397
 20
2.948
 21
3.42
  0
LINE
  8
0
 10
-9.397
 11
-9.215
 20
3.42
 21
3.884
  0
LINE
  8
0
 10
-9.215
 11
-9.01
 20
3.884
 21
4.339
  0
LINE
  8
0
 10
-9.01
 11
-8.782
 20
4.339
 21
4.783
  0
LINE
  8
0
 10
-8.782
 11
-8.533
 20
4.783
 21
5.214
  0
LINE
  8
0
 10
-8.533
 11
-8.262
 20
5.214
 21
5.633
  0
LINE
  8
0
 10
-8.262
 11
-7.971
 20
5.633
 21
6.038
  0
LINE
  8
0
 10
-7.971
 11
-7.66
 20
6.038
 21
6.428
  0
LINE
  8
0
 10
-7.66
 11
-7.331
 20
6.428
 21
6.802
  0
LINE
  8
0
 10
-7.331
 11
-6.982
 20
6.802
 21
7.159
  0
LINE
  8
0
 10
-6.982
 11
-6.617
 20
7.159
 21
7.498
  0
LINE
  8
0
 10
-6.617
 11
-6.235
 20
7.498
 21
7.818
  0
LINE
  8
0
 10
-6.235
 11
-5.837
 20
7.818
 21
8.119
  0
LINE
  8
0
 10
-5.837
 11
-5.425
 20
8.119
 21
8.4
  0
LINE
  8
0
 10
-5.425
 11
-5
 20
8.4
 21
8.66
  0
LINE
  8
0
 10
-5
 11
-4.562
 20
8.66
 21
8.899
  0
LINE
  8
0
 10
-4.562
 11
-4.113
 20
8.899
 21
9.115
  0
LINE
  8
0
 10
-4.113
 11
-3.653
 20
9.115
 21
9.309
  0
LINE
  8
0
 10
-3.653
 11
-3.185
 20
9.309
 21
9.479
  0
LINE
  8
0
 10
-3.185
 11
-2.708
 20
9.479
 21
9.626
  0
LINE
  8
0
 10
-2.708
 11
-2.225
 20
9.626
 21
9.749
  0
LINE
  8
0
 10
-2.225
 11
-1.736
 20
9.749
 21
9.848
  0
LINE
  8
0
 10
-1.736
 11
-1.243
 20
9.848
 21
9.922
  0
LINE
  8
0
 10
-1.243
 11
-0.747
 20
9.922
 21
9.972
  0
LINE
  8
0
 10
-0.747
 11
-0.249
 20
9.972
 21
9.997
  0
LINE
  8
0
 10
-0.249
 11
0.249
 20
9.997
 21
9.997
  0
LINE
  8
0
 10
0.249
 11
0.747
 20
9.997
 21
9.972
  0
LINE
  8
0
 10
0.747
 11
1.243
 20
9.972
 21
9.922
  0
LINE
  8
0
 10
1.243
 11
1.736
 20
9.922
 21
9.848
  0
LINE
  8
0
 10
1.736
 11
2.225
 20
9.848
 21
9.749
  0
LINE
  8
0
 10
2.225
 11
2.708
 20
9.749
 21
9.626
  0
LINE
  8
0
 10
2.708
 11
3.185
 20
9.626
 21
9.479
  0
LINE
  8
0
 10
3.185
 11
3.653
 20
9.479
 21
9.309
  0
LINE
  8
0
 10
3.653
 11
4.113
 20
9.309
 21
9.115
  0
LINE
  8
0
 10
4.113
 11
4.562
 20
9.115
 21
8.899
  0
LINE
  8
0
 10
4.562
 11
5
 20
8.899
 21
8.66
  0
LINE
  8
0
 10
5
 11
5.425
 20
8.66
 21
8.4
  0
LINE
  8
0
 10
5.425
 11
5.837
 20
8.4
 21
8.119
  0
LINE
  8
0
 10
5.837
 11
6.235
 20
8.119
 21
7.818
  0
LINE
  8
0
 10
6.235
 11
6.617
 20
7.818
 21
7.498
  0
LINE
  8
0
 10
6.617
 11
6.982
 20
7.498
 21
7.159
  0
LINE
  8
0
 10
6.982
 11
7.331
 20
7.159
 21
6.802
  0
LINE
  8
0
 10
7.331
 11
7.66
 20
6.802
 21
6.428
  0
LINE
  8
0
 10
7.66
 11
7.971
 20
6.428
 21
6.038
  0
LINE
  8
0
 10
7.971
 11
8.262
 20
6.038
 21
5.633
  0
LINE
  8
0
 10
8.262
 11
8.533
 20
5.633
 21
5.214
  0
LINE
  8
0
 10
8.533
 11
8.782
 20
5.214
 21
4.783
  0
LINE
  8
0
 10
8.782
 11
9.01
 20
4.783
 21
4.339
  0
LINE
  8
0
 10
9.01
 11
9.215
 20
4.339
 21
3.884
  0
LINE
  8
0
 10
9.215
 11
9.397
 20
3.884
 21
3.42
  0
LINE
  8
0
 10
9.397
 11
9.556
 20
3.42
 21
2.948
  0
LINE
  8
0
 10
9.556
 11
9.691
 20
2.948
 21
2.468
  0
LINE
  8
0
 10
9.691
 11
9.802
 20
2.468
 21
1.981
  0
LINE
  8
0
 10
9.802
 11
9.888
 20
1.981
 21
1.49
  0
LINE
  8
0
 10
9.888
 11
9.95
 20
1.49
 21
0.996
  0
LINE
  8
0
 10
9.95
 11
9.988
 20
0.996
 21
0.498
  0
LINE
  8
0
 10
9.988
 11
10
 20
0.498
 21
0
  0
LINE
  8
0
 10
10
 11
9.988
 20
0
 21
-0.498
  0
LINE
  8
0
 10
9.988
 11
9.95
 20
-0.498
 21
-0.996
  0
LINE
  8
0
 10
9.95
 11
9.888
 20
-0.996
 21
-1.49
  0
LINE
  8
0
 10
9.888
 11
9.802
 20
-1.49
 21
-1.981
  0
LINE
  8
0
 10
9.802
 11
9.691
 20
-1.981
 21
-2.468
  0
LINE
  8
0
 10
9.691
 11
9.556
 20
-2.468
 21
-2.948
  0
LINE
  8
0
 10
9.556
 11
9.397
 20
-2.948
 21
-3.42
  0
LINE
  8
0
 10
9.397
 11
9.215
 20
-3.42
 21
-3.884
  0
LINE
  8
0
 10
9.215
 11
9.01
 20
-3.884
 21
-4.339
  0
LINE
  8
0
 10
9.01
 11
8.782
 20
-4.339
 21
-4.783
  0
LINE
  8
0
 10
8.782
 11
8.533
 20
-4.783
 21
-5.214
  0
LINE
  8
0
 10
8.533
 11
8.262
 20
-5.214
 21
-5.633
  0
LINE
  8
0
 10
8.262
 11
7.971
 20
-5.633
 21
-6.038
  0
LINE
  8
0
 10
7.971
 11
7.66
 20
-6.038
 21
-6.428
  0
LINE
  8
0
 10
7.66
 11
7.331
 20
-6.428
 21
-6.802
  0
LINE
  8
0
 10
7.331
 11
6.982
 20
-6.802
 21
-7.159
  0
LINE
  8
0
 10
6.982
 11
6.617
 20
-7.159
 21
-7.498
  0
LINE
  8
0
 10
6.617
 11
6.235
 20
-7.498
 21
-7.818
  0
LINE
  8
0
 10
6.235
 11
5.837
 20
-7.818
 21
-8.119
  0
LINE
  8
0
 10
5.837
 11
5.425
 20
-8.119
 21
-8.4
  0
LINE
  8
0
 10
5.425
 11
5
 20
-8.4
 21
-8.66
  0
LINE
  8
0
 10
5
 11
4.562
 20
-8.66
 21
-8.899
  0
LINE
  8
0
 10
4.562
 11
4.113
 20
-8.899
 21
-9.115
  0
LINE
  8
0
 10
4.113
 11
3.653
 20
-9.115
 21
-9.309
  0
LINE
  8
0
 10
3.653
 11
3.185
 20
-9.309
 21
-9.479
  0
LINE
  8
0
 10
3.185
 11
2.708
 20
-9.479
 21
-9.626
  0
LINE
  8
0
 10
2.708
 11
2.225
 20
-9.626
 21
-9.749
  0
LINE
  8
0
 10
2.225
 11
1.736
 20
-9.749
 21
-9.848
  0
LINE
  8
0
 10
1.736
 11
1.243
 20
-9.848
 21
-9.922
  0
LINE
  8
0
 10
1.243
 11
0.747
 20
-9.922
 21
-9.972
  0
LINE
  8
0
 10
0.747
 11
0.249
 20
-9.972
 21
-9.997
  0
LINE
  8
0
 10
0.249
 11
-0.249
 20
-9.997
 21
-9.997
  0
LINE
  8
0
 10
-0.249
 11
-0.747
 20
-9.997
 21
-9.972
  0
LINE
  8
0
 10
-0.747
 11
-1.243
 20
-9.972
 21
-9.922
  0
LINE
  8
0
 10
-1.243
 11
-1.736
 20
-9.922
 21
-9.848
  0
LINE
  8
0
 10
-1.736
 11
-2.225
 20
-9.848
 21
-9.749
  0
LINE
  8
0
 10
-2.225
 11
-2.708
 20
-9.749
 21
-9.626
  0
LINE
  8
0
 10
-2.708
 11
-3.185
 20
-9.626
 21
-9.479
  0
LINE
  8
0
 10
-3.185
 11
-3.653
 20
-9.479
 21
-9.309
  0
LINE
  8
0
 10
-3.653
 11
-4.113
 20
-9.309
 21
-9.115
  0
LINE
  8
0
 10
-4.113
 11
-4.562
 20
-9.115
 21
-8.899
  0
LINE
  8
0
 10
-4.562
 11
-5
 20
-8.899
 21
-8.66
  0
LINE
  8
0
 10
-5
 11
-5.425
 20
-8.66
 21
-8.4
  0
LINE
  8
0
 10
-5.425
 11
-5.837
 20
-8.4
 21
-8.119
  0
LINE
  8
0
 10
-5.837
 11
-6.235
 20
-8.119
 21
-7.818
  0
LINE
  8
0
 10
-6.235
 11
-6.617
 20
-7.818
 21
-7.498
  0
LINE
  8
0
 10
-6.617
 11
-6.982
 20
-7.498
 21
-7.159
  0
LINE
  8
0
 10
-6.982
 11
-7.331
 20
-7.159
 21
-6.802
  0
LINE
  8
0
 10
-7.331
 11
-7.66
 20
-6.802
 21
-6.428
  0
LINE
  8
0
 10
-7.66
 11
-7.971
 20
-6.428
 21
-6.038
  0
LINE
  8
0
 10
-7.971
 11
-8.262
 20
-6.038
 21
-5.633
  0
LINE
  8
0
 10
-8.262
 11
-8.533
 20
-5.633
 21
-5.214
  0
LINE
  8
0
 10
-8.533
 11
-8.782
 20
-5.214
 21
-4.783
  0
LINE
  8
0
 10
-8.782
 11
-9.01
 20
-4.783
 21
-4.339
  0
LINE
  8
0
 10
-9.01
 11
-9.215
 20
-4.339
 21
-3.884
  0
LINE
  8
0
 10
-9.215
 11
-9.397
 20
-3.884
 21
-3.42
  0
LINE
  8
0
 10
-9.397
 11
-9.556
 20
-3.42
 21
-2.948
  0
LINE
  8
0
 10
-9.556
 11
-9.691
 20
-2.948
 21
-2.468
  0
LINE
  8
0
 10
-9.691
 11
-9.802
 20
-2.468
 21
-1.981
  0
LINE
  8
0
 10
-9.802
 11
-9.888
 20
-1.981
 21
-1.49
  0
LINE
  8
0
 10
-9.888
 11
-9.95
 20
-1.49
 21
-0.996
  0
LINE
  8
0
 10
-9.95
 11
-9.988
 20
-0.996
 21
-0.498
  0
LINE
  8
0
 10
-9.988
 11
-10
 20
-0.498
 21
0
  0
LINE
  8
0
 10
13.3
 11
13.358
 20
-15.3
 21
-14.821
  0
LINE
  8
0
 10
13.358
 11
13.529
 20
-14.821
 21
-14.371
  0
LINE
  8
0
 10
13.529
 11
13.803
 20
-14.371
 21
-13.974
  0
LINE
  8
0
 10
13.803
 11
14.164
 20
-13.974
 21
-13.654
  0
LINE
  8
0
 10
14.164
 11
14.591
 20
-13.654
 21
-13.43
  0
LINE
  8
0
 10
14.591
 11
15.059
 20
-13.43
 21
-13.315
  0
LINE
  8
0
 10
15.059
 11
15.541
 20
-13.315
 21
-13.315
  0
LINE
  8
0
 10
15.541
 11
16.009
 20
-13.315
 21
-13.43
  0
LINE
  8
0
 10
16.009
 11
16.436
 20
-13.43
 21
-13.654
  0
LINE
  8
0
 10
16.436
 11
16.797
 20
-13.654
 21
-13.974
  0
LINE
  8
0
 10
16.797
 11
17.071
 20
-13.974
 21
-14.371
  0
LINE
  8
0
 10
17.071
 11
17.242
 20
-14.371
 21
-14.821
  0
LINE
  8
0
 10
17.242
 11
17.3
 20
-14.821
 21
-15.3
  0
LINE
  8
0
 10
17.3
 11
17.242
 20
-15.3
 21
-15.779
  0
LINE
  8
0
 10
17.242
 11
17.071
 20
-15.779
 21
-16.229
  0
LINE
  8
0
 10
17.071
 11
16.797
 20
-16.229
 21
-16.626
  0
LINE
  8
0
 10
16.797
 11
16.436
 20
-16.626
 21
-16.946
  0
LINE
  8
0
 10
16.436
 11
16.009
 20
-16.946
 21
-17.17
  0
LINE
  8
0
 10
16.009
 11
15.541
 20
-17.17
 21
-17.285
  0
LINE
  8
0
 10
15.541
 11
15.059
 20
-17.285
 21
-17.285
  0
LINE
  8
0
 10
15.059
 11
14.591
 20
-17.285
 21
-17.17
  0
LINE
  8
0
 10
14.591
 11
14.164
 20
-17.17
 21
-16.946
  0
LINE
  8
0
 10
14.164
 11
13.803
 20
-16.946
 21
-16.626
  0
LINE
  8
0
 10
13.803
 11
13.529
 20
-16.626
 21
-16.229
  0
LINE
  8
0
 10
13.529
 11
13.358
 20
-16.229
 21
-15.779
  0
LINE
  8
0
 10
13.358
 11
13.3
 20
-15.779
 21
-15.3
  0
LINE
  8
0
 10
13.3
 11
13.358
 20
15.3
 21
15.779
  0
LINE
  8
0
 10
13.358
 11
13.529
 20
15.779
 21
16.229
  0
LINE
  8
0
 10
13.529
 11
13.803
 20
16.229
 21
16.626
  0
LINE
  8
0
 10
13.803
 11
14.164
 20
16.626
 21
16.946
  0
LINE
  8
0
 10
14.164
 11
14.591
 20
16.946
 21
17.17
  0
LINE
  8
0
 10
14.591
 11
15.059
 20
17.17
 21
17.285
  0
LINE
  8
0
 10
15.059
 11
15.541
 20
17.285
 21
17.285
  0
LINE
  8
0
 10
15.541
 11
16.009
 20
17.285
 21
17.17
  0
LINE
  8
0
 10
16.009
 11
16.436
 20
17.17
 21
16.946
  0
LINE
  8
0
 10
16.436
 11
16.797
 20
16.946
 21
16.626
  0
LINE
  8
0
 10
16.797
 11
17.071
 20
16.626
 21
16.229
  0
LINE
  8
0
 10
17.071
 11
17.242
 20
16.229
 21
15.779
  0
LINE
  8
0
 10
17.242
 11
17.3
 20
15.779
 21
15.3
  0
LINE
  8
0
 10
17.3
 11
17.242
 20
15.3
 21
14.821
  0
LINE
  8
0
 10
17.242
 11
17.071
 20
14.821
 21
14.371
  0
LINE
  8
0
 10
17.071
 11
16.797
 20
14.371
 21
13.974
  0
LINE
  8
0
 10
16.797
 11
16.436
 20
13.974
 21
13.654
  0
LINE
  8
0
 10
16.436
 11
16.009
 20
13.654
 21
13.43
  0
LINE
  8
0
 10
16.009
 11
15.541
 20
13.43
 21
13.315
  0
LINE
  8
0
 10
15.541
 11
15.059
 20
13.315
 21
13.315
  0
LINE
  8
0
 10
15.059
 11
14.591
 20
13.315
 21
13.43
  0
LINE
  8
0
 10
14.591
 11
14.164
 20
13.43
 21
13.654
  0
LINE
  8
0
 10
14.164
 11
13.803
 20
13.654
 21
13.974
  0
LINE
  8
0
 10
13.803
 11
13.529
 20
13.974
 21
14.371
  0
LINE
  8
0
 10
13.529
 11
13.358
 20
14.371
 21
14.821
  0
LINE
  8
0
 10
13.358
 11
13.3
 20
14.821
 21
15.3
  0
LINE
  8
0
 10
63.75
 11
63.808
 20
-85
 21
-84.521
  0
LINE
  8
0
 10
63.808
 11
63.979
 20
-84.521
 21
-84.071
  0
LINE
  8
0
 10
63.979
 11
64.253
 20
-84.071
 21
-83.674
  0
LINE
  8
0
 10
64.253
 11
64.614
 20
-83.674
 21
-83.354
  0
LINE
  8
0
 10
64.614
 11
65.041
 20
-83.354
 21
-83.13
  0
LINE
  8
0
 10
65.041
 11
65.509
 20
-83.13
 21
-83.015
  0
LINE
  8
0
 10
65.509
 11
65.991
 20
-83.015
 21
-83.015
  0
LINE
  8
0
 10
65.991
 11
66.459
 20
-83.015
 21
-83.13
  0
LINE
  8
0
 10
66.459
 11
66.886
 20
-83.13
 21
-83.354
  0
LINE
  8
0
 10
66.886
 11
67.247
 20
-83.354
 21
-83.674
  0
LINE
  8
0
 10
67.247
 11
67.521
 20
-83.674
 21
-84.071
  0
LINE
  8
0
 10
67.521
 11
67.692
 20
-84.071
 21
-84.521
  0
LINE
  8
0
 10
67.692
 11
67.75
 20
-84.521
 21
-85
  0
LINE
  8
0
 10
67.75
 11
67.692
 20
-85
 21
-85.479
  0
LINE
  8
0
 10
67.692
 11
67.521
 20
-85.479
 21
-85.929
  0
LINE
  8
0
 10
67.521
 11
67.247
 20
-85.929
 21
-86.326
  0
LINE
  8
0
 10
67.247
 11
66.886
 20
-86.326
 21
-86.646
  0
LINE
  8
0
 10
66.886
 11
66.459
 20
-86.646
 21
-86.87
  0
LINE
  8
0
 10
66.459
 11
65.991
 20
-86.87
 21
-86.985
  0
LINE
  8
0
 10
65.991
 11
65.509
 20
-86.985
 21
-86.985
  0
LINE
  8
0
 10
65.509
 11
65.041
 20
-86.985
 21
-86.87
  0
LINE
  8
0
 10
65.041
 11
64.614
 20
-86.87
 21
-86.646
  0
LINE
  8
0
 10
64.614
 11
64.253
 20
-86.646
 21
-86.326
  0
LINE
  8
0
 10
64.253
 11
63.979
 20
-86.326
 21
-85.929
  0
LINE
  8
0
 10
63.979
 11
63.808
 20
-85.929
 21
-85.479
  0
LINE
  8
0
 10
63.808
 11
63.75
 20
-85.479
 21
-85
  0
LINE
  8
0
 10
63.75
 11
63.808
 20
85
 21
85.479
  0
LINE
  8
0
 10
63.808
 11
63.979
 20
85.479
 21
85.929
  0
LINE
  8
0
 10
63.979
 11
64.253
 20
85.929
 21
86.326
  0
LINE
  8
0
 10
64.253
 11
64.614
 20
86.326
 21
86.646
  0
LINE
  8
0
 10
64.614
 11
65.041
 20
86.646
 21
86.87
  0
LINE
  8
0
 10
65.041
 11
65.509
 20
86.87
 21
86.985
  0
LINE
  8
0
 10
65.509
 11
65.991
 20
86.985
 21
86.985
  0
LINE
  8
0
 10
65.991
 11
66.459
 20
86.985
 21
86.87
  0
LINE
  8
0
 10
66.459
 11
66.886
 20
86.87
 21
86.646
  0
LINE
  8
0
 10
66.886
 11
67.247
 20
86.646
 21
86.326
  0
LINE
  8
0
 10
67.247
 11
67.521
 20
86.326
 21
85.929
  0
LINE
  8
0
 10
67.521
 11
67.692
 20
85.929
 21
85.479
  0
LINE
  8
0
 10
67.692
 11
67.75
 20
85.479
 21
85
  0
LINE
  8
0
 10
67.75
 11
67.692
 20
85
 21
84.521
  0
LINE
  8
0
 10
67.692
 11
67.521
 20
84.521
 21
84.071
  0
LINE
  8
0
 10
67.521
 11
67.247
 20
84.071
 21
83.674
  0
LINE
  8
0
 10
67.247
 11
66.886
 20
83.674
 21
83.354
  0
LINE
  8
0
 10
66.886
 11
66.459
 20
83.354
 21
83.13
  0
LINE
  8
0
 10
66.459
 11
65.991
 20
83.13
 21
83.015
  0
LINE
  8
0
 10
65.991
 11
65.509
 20
83.015
 21
83.015
  0
LINE
  8
0
 10
65.509
 11
65.041
 20
83.015
 21
83.13
  0
LINE
  8
0
 10
65.041
 11
64.614
 20
83.13
 21
83.354
  0
LINE
  8
0
 10
64.614
 11
64.253
 20
83.354
 21
83.674
  0
LINE
  8
0
 10
64.253
 11
63.979
 20
83.674
 21
84.071
  0
LINE
  8
0
 10
63.979
 11
63.808
 20
84.071
 21
84.521
  0
LINE
  8
0
 10
63.808
 11
63.75
 20
84.521
 21
85
  0
LINE
  8
0
 10
125
 11
125.058
 20
-44.75
 21
-44.271
  0
LINE
  8
0
 10
125.058
 11
125.229
 20
-44.271
 21
-43.821
  0
LINE
  8
0
 10
125.229
 11
125.503
 20
-43.821
 21
-43.424
  0
LINE
  8
0
 10
125.503
 11
125.864
 20
-43.424
 21
-43.104
  0
LINE
  8
0
 10
125.864
 11
126.291
 20
-43.104
 21
-42.88
  0
LINE
  8
0
 10
126.291
 11
126.759
 20
-42.88
 21
-42.765
  0
LINE
  8
0
 10
126.759
 11
127.241
 20
-42.765
 21
-42.765
  0
LINE
  8
0
 10
127.241
 11
127.709
 20
-42.765
 21
-42.88
  0
LINE
  8
0
 10
127.709
 11
128.136
 20
-42.88
 21
-43.104
  0
LINE
  8
0
 10
128.136
 11
128.497
 20
-43.104
 21
-43.424
  0
LINE
  8
0
 10
128.497
 11
128.771
 20
-43.424
 21
-43.821
  0
LINE
  8
0
 10
128.771
 11
128.942
 20
-43.821
 21
-44.271
  0
LINE
  8
0
 10
128.942
 11
129
 20
-44.271
 21
-44.75
  0
LINE
  8
0
 10
129
 11
128.942
 20
-44.75
 21
-45.229
  0
LINE
  8
0
 10
128.942
 11
128.771
 20
-45.229
 21
-45.679
  0
LINE
  8
0
 10
128.771
 11
128.497
 20
-45.679
 21
-46.076
  0
LINE
  8
0
 10
128.497
 11
128.136
 20
-46.076
 21
-46.396
  0
LINE
  8
0
 10
128.136
 11
127.709
 20
-46.396
 21
-46.62
  0
LINE
  8
0
 10
127.709
 11
127.241
 20
-46.62
 21
-46.735
  0
LINE
  8
0
 10
127.241
 11
126.759
 20
-46.735
 21
-46.735
  0
LINE
  8
0
 10
126.759
 11
126.291
 20
-46.735
 21
-46.62
  0
LINE
  8
0
 10
126.291
 11
125.864
 20
-46.62
 21
-46.396
  0
LINE
  8
0
 10
125.864
 11
125.503
 20
-46.396
 21
-46.076
  0
LINE
  8
0
 10
125.503
 11
125.229
 20
-46.076
 21
-45.679
  0
LINE
  8
0
 10
125.229
 11
125.058
 20
-45.679
 21
-45.229
  0
LINE
  8
0
 10
125.058
 11
125
 20
-45.229
 21
-44.75
  0
LINE
  8
0
 10
125
 11
125.058
 20
44.75
 21
45.229
  0
LINE
  8
0
 10
125.058
 11
125.229
 20
45.229
 21
45.679
  0
LINE
  8
0
 10
125.229
 11
125.503
 20
45.679
 21
46.076
  0
LINE
  8
0
 10
125.503
 11
125.864
 20
46.076
 21
46.396
  0
LINE
  8
0
 10
125.864
 11
126.291
 20
46.396
 21
46.62
  0
LINE
  8
0
 10
126.291
 11
126.759
 20
46.62
 21
46.735
  0
LINE
  8
0
 10
126.759
 11
127.241
 20
46.735
 21
46.735
  0
LINE
  8
0
 10
127.241
 11
127.709
 20
46.735
 21
46.62
  0
LINE
  8
0
 10
127.709
 11
128.136
 20
46.62
 21
46.396
  0
LINE
  8
0
 10
128.136
 11
128.497
 20
46.396
 21
46.076
  0
LINE
  8
0
 10
128.497
 11
128.771
 20
46.076
 21
45.679
  0
LINE
  8
0
 10
128.771
 11
128.942
 20
45.679
 21
45.229
  0
LINE
  8
0
 10
128.942
 11
129
 20
45.229
 21
44.75
  0
LINE
  8
0
 10
129
 11
128.942
 20
44.75
 21
44.271
  0
LINE
  8
0
 10
128.942
 11
128.771
 20
44.271
 21
43.821
  0
LINE
  8
0
 10
128.771
 11
128.497
 20
43.821
 21
43.424
  0
LINE
  8
0
 10
128.497
 11
128.136
 20
43.424
 21
43.104
  0
LINE
  8
0
 10
128.136
 11
127.709
 20
43.104
 21
42.88
  0
LINE
  8
0
 10
127.709
 11
127.241
 20
42.88
 21
42.765
  0
LINE
  8
0
 10
127.241
 11
126.759
 20
42.765
 21
42.765
  0
LINE
  8
0
 10
126.759
 11
126.291
 20
42.765
 21
42.88
  0
LINE
  8
0
 10
126.291
 11
125.864
 20
42.88
 21
43.104
  0
LINE
  8
0
 10
125.864
 11
125.503
 20
43.104
 21
43.424
  0
LINE
  8
0
 10
125.503
 11
125.229
 20
43.424
 21
43.821
  0
LINE
  8
0
 10
125.229
 11
125.058
 20
43.821
 21
44.271
  0
LINE
  8
0
 10
125.058
 11
125
 20
44.271
 21
44.75
  0
ENDSEC
  0
SECTION
  2
OBJECTS
  0
DICTIONARY
  0
ENDSEC
  0
EOF
