  0
SECTION
  2
BLOCKS
  0
ENDSEC
  0
SECTION
  2
ENTITIES
  0
LINE
  8
0
 10
-131.385
 11
-131.316
 20
-42.993
 21
-42.514
  0
LINE
  8
0
 10
-131.316
 11
-131.115
 20
-42.514
 21
-42.073
  0
LINE
  8
0
 10
-131.115
 11
-130.798
 20
-42.073
 21
-41.708
  0
LINE
  8
0
 10
-130.798
 11
-130.391
 20
-41.708
 21
-41.446
  0
LINE
  8
0
 10
-130.391
 11
-129.927
 20
-41.446
 21
-41.31
  0
LINE
  8
0
 10
-129.927
 11
-129.443
 20
-41.31
 21
-41.31
  0
LINE
  8
0
 10
-129.443
 11
-128.979
 20
-41.31
 21
-41.446
  0
LINE
  8
0
 10
-128.979
 11
-128.572
 20
-41.446
 21
-41.708
  0
LINE
  8
0
 10
-128.572
 11
-128.255
 20
-41.708
 21
-42.073
  0
LINE
  8
0
 10
-128.255
 11
-128.054
 20
-42.073
 21
-42.514
  0
LINE
  8
0
 10
-128.054
 11
-127.985
 20
-42.514
 21
-42.993
  0
LINE
  8
0
 10
-127.985
 11
-128.054
 20
-42.993
 21
-43.471
  0
LINE
  8
0
 10
-128.054
 11
-128.255
 20
-43.471
 21
-43.912
  0
LINE
  8
0
 10
-128.255
 11
-128.572
 20
-43.912
 21
-44.277
  0
LINE
  8
0
 10
-128.572
 11
-128.979
 20
-44.277
 21
-44.539
  0
LINE
  8
0
 10
-128.979
 11
-129.443
 20
-44.539
 21
-44.675
  0
LINE
  8
0
 10
-129.443
 11
-129.927
 20
-44.675
 21
-44.675
  0
LINE
  8
0
 10
-129.927
 11
-130.391
 20
-44.675
 21
-44.539
  0
LINE
  8
0
 10
-130.391
 11
-130.798
 20
-44.539
 21
-44.277
  0
LINE
  8
0
 10
-130.798
 11
-131.115
 20
-44.277
 21
-43.912
  0
LINE
  8
0
 10
-131.115
 11
-131.316
 20
-43.912
 21
-43.471
  0
LINE
  8
0
 10
-131.316
 11
-131.385
 20
-43.471
 21
-42.993
  0
LINE
  8
0
 10
-131.385
 11
-131.316
 20
42.993
 21
43.471
  0
LINE
  8
0
 10
-131.316
 11
-131.115
 20
43.471
 21
43.912
  0
LINE
  8
0
 10
-131.115
 11
-130.798
 20
43.912
 21
44.277
  0
LINE
  8
0
 10
-130.798
 11
-130.391
 20
44.277
 21
44.539
  0
LINE
  8
0
 10
-130.391
 11
-129.927
 20
44.539
 21
44.675
  0
LINE
  8
0
 10
-129.927
 11
-129.443
 20
44.675
 21
44.675
  0
LINE
  8
0
 10
-129.443
 11
-128.979
 20
44.675
 21
44.539
  0
LINE
  8
0
 10
-128.979
 11
-128.572
 20
44.539
 21
44.277
  0
LINE
  8
0
 10
-128.572
 11
-128.255
 20
44.277
 21
43.912
  0
LINE
  8
0
 10
-128.255
 11
-128.054
 20
43.912
 21
43.471
  0
LINE
  8
0
 10
-128.054
 11
-127.985
 20
43.471
 21
42.993
  0
LINE
  8
0
 10
-127.985
 11
-128.054
 20
42.993
 21
42.514
  0
LINE
  8
0
 10
-128.054
 11
-128.255
 20
42.514
 21
42.073
  0
LINE
  8
0
 10
-128.255
 11
-128.572
 20
42.073
 21
41.708
  0
LINE
  8
0
 10
-128.572
 11
-128.979
 20
41.708
 21
41.446
  0
LINE
  8
0
 10
-128.979
 11
-129.443
 20
41.446
 21
41.31
  0
LINE
  8
0
 10
-129.443
 11
-129.927
 20
41.31
 21
41.31
  0
LINE
  8
0
 10
-129.927
 11
-130.391
 20
41.31
 21
41.446
  0
LINE
  8
0
 10
-130.391
 11
-130.798
 20
41.446
 21
41.708
  0
LINE
  8
0
 10
-130.798
 11
-131.115
 20
41.708
 21
42.073
  0
LINE
  8
0
 10
-131.115
 11
-131.316
 20
42.073
 21
42.514
  0
LINE
  8
0
 10
-131.316
 11
-131.385
 20
42.514
 21
42.993
  0
LINE
  8
0
 10
-133.482
 11
-133.482
 20
-74.935
 21
74.935
  0
LINE
  8
0
 10
-133.482
 11
-133.457
 20
74.935
 21
75.434
  0
LINE
  8
0
 10
-133.457
 11
-133.408
 20
75.434
 21
75.931
  0
LINE
  8
0
 10
-133.408
 11
-133.334
 20
75.931
 21
76.425
  0
LINE
  8
0
 10
-133.334
 11
-133.236
 20
76.425
 21
76.915
  0
LINE
  8
0
 10
-133.236
 11
-133.113
 20
76.915
 21
77.399
  0
LINE
  8
0
 10
-133.113
 11
-132.967
 20
77.399
 21
77.877
  0
LINE
  8
0
 10
-132.967
 11
-132.798
 20
77.877
 21
78.347
  0
LINE
  8
0
 10
-132.798
 11
-132.605
 20
78.347
 21
78.808
  0
LINE
  8
0
 10
-132.605
 11
-132.39
 20
78.808
 21
79.259
  0
LINE
  8
0
 10
-132.39
 11
-132.153
 20
79.259
 21
79.699
  0
LINE
  8
0
 10
-132.153
 11
-131.894
 20
79.699
 21
80.126
  0
LINE
  8
0
 10
-131.894
 11
-131.614
 20
80.126
 21
80.54
  0
LINE
  8
0
 10
-131.614
 11
-131.315
 20
80.54
 21
80.94
  0
LINE
  8
0
 10
-131.315
 11
-130.996
 20
80.94
 21
81.325
  0
LINE
  8
0
 10
-130.996
 11
-130.658
 20
81.325
 21
81.693
  0
LINE
  8
0
 10
-130.658
 11
-130.303
 20
81.693
 21
82.044
  0
LINE
  8
0
 10
-130.303
 11
-129.93
 20
82.044
 21
82.377
  0
LINE
  8
0
 10
-129.93
 11
-129.542
 20
82.377
 21
82.692
  0
LINE
  8
0
 10
-129.542
 11
-129.138
 20
82.692
 21
82.986
  0
LINE
  8
0
 10
-129.138
 11
-128.721
 20
82.986
 21
83.261
  0
LINE
  8
0
 10
-128.721
 11
-128.29
 20
83.261
 21
83.514
  0
LINE
  8
0
 10
-128.29
 11
-127.847
 20
83.514
 21
83.746
  0
LINE
  8
0
 10
-127.847
 11
-127.394
 20
83.746
 21
83.955
  0
LINE
  8
0
 10
-127.394
 11
-126.931
 20
83.955
 21
84.142
  0
LINE
  8
0
 10
-126.931
 11
-126.459
 20
84.142
 21
84.306
  0
LINE
  8
0
 10
-126.459
 11
-125.979
 20
84.306
 21
84.446
  0
LINE
  8
0
 10
-125.979
 11
-125.493
 20
84.446
 21
84.563
  0
LINE
  8
0
 10
-125.493
 11
-125.002
 20
84.563
 21
84.655
  0
LINE
  8
0
 10
-125.002
 11
-124.507
 20
84.655
 21
84.722
  0
LINE
  8
0
 10
-124.507
 11
-124.009
 20
84.722
 21
84.766
  0
LINE
  8
0
 10
-124.009
 11
-123.51
 20
84.766
 21
84.784
  0
LINE
  8
0
 10
-123.51
 11
123.51
 20
84.784
 21
84.784
  0
LINE
  8
0
 10
123.51
 11
124.009
 20
84.784
 21
84.766
  0
LINE
  8
0
 10
124.009
 11
124.507
 20
84.766
 21
84.722
  0
LINE
  8
0
 10
124.507
 11
125.002
 20
84.722
 21
84.655
  0
LINE
  8
0
 10
125.002
 11
125.493
 20
84.655
 21
84.563
  0
LINE
  8
0
 10
125.493
 11
125.979
 20
84.563
 21
84.446
  0
LINE
  8
0
 10
125.979
 11
126.459
 20
84.446
 21
84.306
  0
LINE
  8
0
 10
126.459
 11
126.931
 20
84.306
 21
84.142
  0
LINE
  8
0
 10
126.931
 11
127.394
 20
84.142
 21
83.955
  0
LINE
  8
0
 10
127.394
 11
127.847
 20
83.955
 21
83.746
  0
LINE
  8
0
 10
127.847
 11
128.29
 20
83.746
 21
83.514
  0
LINE
  8
0
 10
128.29
 11
128.721
 20
83.514
 21
83.261
  0
LINE
  8
0
 10
128.721
 11
129.138
 20
83.261
 21
82.986
  0
LINE
  8
0
 10
129.138
 11
129.542
 20
82.986
 21
82.692
  0
LINE
  8
0
 10
129.542
 11
129.93
 20
82.692
 21
82.377
  0
LINE
  8
0
 10
129.93
 11
130.303
 20
82.377
 21
82.044
  0
LINE
  8
0
 10
130.303
 11
130.658
 20
82.044
 21
81.693
  0
LINE
  8
0
 10
130.658
 11
130.996
 20
81.693
 21
81.325
  0
LINE
  8
0
 10
130.996
 11
131.315
 20
81.325
 21
80.94
  0
LINE
  8
0
 10
131.315
 11
131.614
 20
80.94
 21
80.54
  0
LINE
  8
0
 10
131.614
 11
131.894
 20
80.54
 21
80.126
  0
LINE
  8
0
 10
131.894
 11
132.153
 20
80.126
 21
79.699
  0
LINE
  8
0
 10
132.153
 11
132.39
 20
79.699
 21
79.259
  0
LINE
  8
0
 10
132.39
 11
132.605
 20
79.259
 21
78.808
  0
LINE
  8
0
 10
132.605
 11
132.798
 20
78.808
 21
78.347
  0
LINE
  8
0
 10
132.798
 11
132.967
 20
78.347
 21
77.877
  0
LINE
  8
0
 10
132.967
 11
133.113
 20
77.877
 21
77.399
  0
LINE
  8
0
 10
133.113
 11
133.236
 20
77.399
 21
76.915
  0
LINE
  8
0
 10
133.236
 11
133.334
 20
76.915
 21
76.425
  0
LINE
  8
0
 10
133.334
 11
133.408
 20
76.425
 21
75.931
  0
LINE
  8
0
 10
133.408
 11
133.457
 20
75.931
 21
75.434
  0
LINE
  8
0
 10
133.457
 11
133.482
 20
75.434
 21
74.935
  0
LINE
  8
0
 10
133.482
 11
133.482
 20
74.935
 21
-74.935
  0
LINE
  8
0
 10
133.482
 11
133.457
 20
-74.935
 21
-75.434
  0
LINE
  8
0
 10
133.457
 11
133.408
 20
-75.434
 21
-75.931
  0
LINE
  8
0
 10
133.408
 11
133.334
 20
-75.931
 21
-76.425
  0
LINE
  8
0
 10
133.334
 11
133.236
 20
-76.425
 21
-76.915
  0
LINE
  8
0
 10
133.236
 11
133.113
 20
-76.915
 21
-77.399
  0
LINE
  8
0
 10
133.113
 11
132.967
 20
-77.399
 21
-77.877
  0
LINE
  8
0
 10
132.967
 11
132.798
 20
-77.877
 21
-78.347
  0
LINE
  8
0
 10
132.798
 11
132.605
 20
-78.347
 21
-78.808
  0
LINE
  8
0
 10
132.605
 11
132.39
 20
-78.808
 21
-79.259
  0
LINE
  8
0
 10
132.39
 11
132.153
 20
-79.259
 21
-79.699
  0
LINE
  8
0
 10
132.153
 11
131.894
 20
-79.699
 21
-80.126
  0
LINE
  8
0
 10
131.894
 11
131.614
 20
-80.126
 21
-80.54
  0
LINE
  8
0
 10
131.614
 11
131.315
 20
-80.54
 21
-80.94
  0
LINE
  8
0
 10
131.315
 11
130.996
 20
-80.94
 21
-81.325
  0
LINE
  8
0
 10
130.996
 11
130.658
 20
-81.325
 21
-81.693
  0
LINE
  8
0
 10
130.658
 11
130.303
 20
-81.693
 21
-82.044
  0
LINE
  8
0
 10
130.303
 11
129.93
 20
-82.044
 21
-82.377
  0
LINE
  8
0
 10
129.93
 11
129.542
 20
-82.377
 21
-82.692
  0
LINE
  8
0
 10
129.542
 11
129.138
 20
-82.692
 21
-82.986
  0
LINE
  8
0
 10
129.138
 11
128.721
 20
-82.986
 21
-83.261
  0
LINE
  8
0
 10
128.721
 11
128.29
 20
-83.261
 21
-83.514
  0
LINE
  8
0
 10
128.29
 11
127.847
 20
-83.514
 21
-83.746
  0
LINE
  8
0
 10
127.847
 11
127.394
 20
-83.746
 21
-83.955
  0
LINE
  8
0
 10
127.394
 11
126.931
 20
-83.955
 21
-84.142
  0
LINE
  8
0
 10
126.931
 11
126.459
 20
-84.142
 21
-84.306
  0
LINE
  8
0
 10
126.459
 11
125.979
 20
-84.306
 21
-84.446
  0
LINE
  8
0
 10
125.979
 11
125.493
 20
-84.446
 21
-84.563
  0
LINE
  8
0
 10
125.493
 11
125.002
 20
-84.563
 21
-84.655
  0
LINE
  8
0
 10
125.002
 11
124.507
 20
-84.655
 21
-84.722
  0
LINE
  8
0
 10
124.507
 11
124.009
 20
-84.722
 21
-84.766
  0
LINE
  8
0
 10
124.009
 11
123.51
 20
-84.766
 21
-84.784
  0
LINE
  8
0
 10
123.51
 11
-123.51
 20
-84.784
 21
-84.784
  0
LINE
  8
0
 10
-123.51
 11
-124.009
 20
-84.784
 21
-84.766
  0
LINE
  8
0
 10
-124.009
 11
-124.507
 20
-84.766
 21
-84.722
  0
LINE
  8
0
 10
-124.507
 11
-125.002
 20
-84.722
 21
-84.655
  0
LINE
  8
0
 10
-125.002
 11
-125.493
 20
-84.655
 21
-84.563
  0
LINE
  8
0
 10
-125.493
 11
-125.979
 20
-84.563
 21
-84.446
  0
LINE
  8
0
 10
-125.979
 11
-126.459
 20
-84.446
 21
-84.306
  0
LINE
  8
0
 10
-126.459
 11
-126.931
 20
-84.306
 21
-84.142
  0
LINE
  8
0
 10
-126.931
 11
-127.394
 20
-84.142
 21
-83.955
  0
LINE
  8
0
 10
-127.394
 11
-127.847
 20
-83.955
 21
-83.746
  0
LINE
  8
0
 10
-127.847
 11
-128.29
 20
-83.746
 21
-83.514
  0
LINE
  8
0
 10
-128.29
 11
-128.721
 20
-83.514
 21
-83.261
  0
LINE
  8
0
 10
-128.721
 11
-129.138
 20
-83.261
 21
-82.986
  0
LINE
  8
0
 10
-129.138
 11
-129.542
 20
-82.986
 21
-82.692
  0
LINE
  8
0
 10
-129.542
 11
-129.93
 20
-82.692
 21
-82.377
  0
LINE
  8
0
 10
-129.93
 11
-130.303
 20
-82.377
 21
-82.044
  0
LINE
  8
0
 10
-130.303
 11
-130.658
 20
-82.044
 21
-81.693
  0
LINE
  8
0
 10
-130.658
 11
-130.996
 20
-81.693
 21
-81.325
  0
LINE
  8
0
 10
-130.996
 11
-131.315
 20
-81.325
 21
-80.94
  0
LINE
  8
0
 10
-131.315
 11
-131.614
 20
-80.94
 21
-80.54
  0
LINE
  8
0
 10
-131.614
 11
-131.894
 20
-80.54
 21
-80.126
  0
LINE
  8
0
 10
-131.894
 11
-132.153
 20
-80.126
 21
-79.699
  0
LINE
  8
0
 10
-132.153
 11
-132.39
 20
-79.699
 21
-79.259
  0
LINE
  8
0
 10
-132.39
 11
-132.605
 20
-79.259
 21
-78.808
  0
LINE
  8
0
 10
-132.605
 11
-132.798
 20
-78.808
 21
-78.347
  0
LINE
  8
0
 10
-132.798
 11
-132.967
 20
-78.347
 21
-77.877
  0
LINE
  8
0
 10
-132.967
 11
-133.113
 20
-77.877
 21
-77.399
  0
LINE
  8
0
 10
-133.113
 11
-133.236
 20
-77.399
 21
-76.915
  0
LINE
  8
0
 10
-133.236
 11
-133.334
 20
-76.915
 21
-76.425
  0
LINE
  8
0
 10
-133.334
 11
-133.408
 20
-76.425
 21
-75.931
  0
LINE
  8
0
 10
-133.408
 11
-133.457
 20
-75.931
 21
-75.434
  0
LINE
  8
0
 10
-133.457
 11
-133.482
 20
-75.434
 21
-74.935
  0
LINE
  8
0
 10
-69.043
 11
-68.974
 20
80.985
 21
81.464
  0
LINE
  8
0
 10
-68.974
 11
-68.773
 20
81.464
 21
81.904
  0
LINE
  8
0
 10
-68.773
 11
-68.456
 20
81.904
 21
82.27
  0
LINE
  8
0
 10
-68.456
 11
-68.049
 20
82.27
 21
82.531
  0
LINE
  8
0
 10
-68.049
 11
-67.584
 20
82.531
 21
82.668
  0
LINE
  8
0
 10
-67.584
 11
-67.101
 20
82.668
 21
82.668
  0
LINE
  8
0
 10
-67.101
 11
-66.636
 20
82.668
 21
82.531
  0
LINE
  8
0
 10
-66.636
 11
-66.229
 20
82.531
 21
82.27
  0
LINE
  8
0
 10
-66.229
 11
-65.912
 20
82.27
 21
81.904
  0
LINE
  8
0
 10
-65.912
 11
-65.711
 20
81.904
 21
81.464
  0
LINE
  8
0
 10
-65.711
 11
-65.643
 20
81.464
 21
80.985
  0
LINE
  8
0
 10
-65.643
 11
-65.711
 20
80.985
 21
80.506
  0
LINE
  8
0
 10
-65.711
 11
-65.912
 20
80.506
 21
80.066
  0
LINE
  8
0
 10
-65.912
 11
-66.229
 20
80.066
 21
79.7
  0
LINE
  8
0
 10
-66.229
 11
-66.636
 20
79.7
 21
79.439
  0
LINE
  8
0
 10
-66.636
 11
-67.101
 20
79.439
 21
79.302
  0
LINE
  8
0
 10
-67.101
 11
-67.584
 20
79.302
 21
79.302
  0
LINE
  8
0
 10
-67.584
 11
-68.049
 20
79.302
 21
79.439
  0
LINE
  8
0
 10
-68.049
 11
-68.456
 20
79.439
 21
79.7
  0
LINE
  8
0
 10
-68.456
 11
-68.773
 20
79.7
 21
80.066
  0
LINE
  8
0
 10
-68.773
 11
-68.974
 20
80.066
 21
80.506
  0
LINE
  8
0
 10
-68.974
 11
-69.043
 20
80.506
 21
80.985
  0
LINE
  8
0
 10
-17.2
 11
-17.135
 20
-15.3
 21
-14.808
  0
LINE
  8
0
 10
-17.135
 11
-16.945
 20
-14.808
 21
-14.35
  0
LINE
  8
0
 10
-16.945
 11
-16.644
 20
-14.35
 21
-13.956
  0
LINE
  8
0
 10
-16.644
 11
-16.25
 20
-13.956
 21
-13.655
  0
LINE
  8
0
 10
-16.25
 11
-15.792
 20
-13.655
 21
-13.465
  0
LINE
  8
0
 10
-15.792
 11
-15.3
 20
-13.465
 21
-13.4
  0
LINE
  8
0
 10
-15.3
 11
-14.808
 20
-13.4
 21
-13.465
  0
LINE
  8
0
 10
-14.808
 11
-14.35
 20
-13.465
 21
-13.655
  0
LINE
  8
0
 10
-14.35
 11
-13.956
 20
-13.655
 21
-13.956
  0
LINE
  8
0
 10
-13.956
 11
-13.655
 20
-13.956
 21
-14.35
  0
LINE
  8
0
 10
-13.655
 11
-13.465
 20
-14.35
 21
-14.808
  0
LINE
  8
0
 10
-13.465
 11
-13.4
 20
-14.808
 21
-15.3
  0
LINE
  8
0
 10
-13.4
 11
-13.465
 20
-15.3
 21
-15.792
  0
LINE
  8
0
 10
-13.465
 11
-13.655
 20
-15.792
 21
-16.25
  0
LINE
  8
0
 10
-13.655
 11
-13.956
 20
-16.25
 21
-16.644
  0
LINE
  8
0
 10
-13.956
 11
-14.35
 20
-16.644
 21
-16.945
  0
LINE
  8
0
 10
-14.35
 11
-14.808
 20
-16.945
 21
-17.135
  0
LINE
  8
0
 10
-14.808
 11
-15.3
 20
-17.135
 21
-17.2
  0
LINE
  8
0
 10
-15.3
 11
-15.792
 20
-17.2
 21
-17.135
  0
LINE
  8
0
 10
-15.792
 11
-16.25
 20
-17.135
 21
-16.945
  0
LINE
  8
0
 10
-16.25
 11
-16.644
 20
-16.945
 21
-16.644
  0
LINE
  8
0
 10
-16.644
 11
-16.945
 20
-16.644
 21
-16.25
  0
LINE
  8
0
 10
-16.945
 11
-17.135
 20
-16.25
 21
-15.792
  0
LINE
  8
0
 10
-17.135
 11
-17.2
 20
-15.792
 21
-15.3
  0
LINE
  8
0
 10
-17.2
 11
-17.135
 20
15.3
 21
15.792
  0
LINE
  8
0
 10
-17.135
 11
-16.945
 20
15.792
 21
16.25
  0
LINE
  8
0
 10
-16.945
 11
-16.644
 20
16.25
 21
16.644
  0
LINE
  8
0
 10
-16.644
 11
-16.25
 20
16.644
 21
16.945
  0
LINE
  8
0
 10
-16.25
 11
-15.792
 20
16.945
 21
17.135
  0
LINE
  8
0
 10
-15.792
 11
-15.3
 20
17.135
 21
17.2
  0
LINE
  8
0
 10
-15.3
 11
-14.808
 20
17.2
 21
17.135
  0
LINE
  8
0
 10
-14.808
 11
-14.35
 20
17.135
 21
16.945
  0
LINE
  8
0
 10
-14.35
 11
-13.956
 20
16.945
 21
16.644
  0
LINE
  8
0
 10
-13.956
 11
-13.655
 20
16.644
 21
16.25
  0
LINE
  8
0
 10
-13.655
 11
-13.465
 20
16.25
 21
15.792
  0
LINE
  8
0
 10
-13.465
 11
-13.4
 20
15.792
 21
15.3
  0
LINE
  8
0
 10
-13.4
 11
-13.465
 20
15.3
 21
14.808
  0
LINE
  8
0
 10
-13.465
 11
-13.655
 20
14.808
 21
14.35
  0
LINE
  8
0
 10
-13.655
 11
-13.956
 20
14.35
 21
13.956
  0
LINE
  8
0
 10
-13.956
 11
-14.35
 20
13.956
 21
13.655
  0
LINE
  8
0
 10
-14.35
 11
-14.808
 20
13.655
 21
13.465
  0
LINE
  8
0
 10
-14.808
 11
-15.3
 20
13.465
 21
13.4
  0
LINE
  8
0
 10
-15.3
 11
-15.792
 20
13.4
 21
13.465
  0
LINE
  8
0
 10
-15.792
 11
-16.25
 20
13.465
 21
13.655
  0
LINE
  8
0
 10
-16.25
 11
-16.644
 20
13.655
 21
13.956
  0
LINE
  8
0
 10
-16.644
 11
-16.945
 20
13.956
 21
14.35
  0
LINE
  8
0
 10
-16.945
 11
-17.135
 20
14.35
 21
14.808
  0
LINE
  8
0
 10
-17.135
 11
-17.2
 20
14.808
 21
15.3
  0
LINE
  8
0
 10
-10
 11
-9.988
 20
0
 21
0.498
  0
LINE
  8
0
 10
-9.988
 11
-9.95
 20
0.498
 21
0.996
  0
LINE
  8
0
 10
-9.95
 11
-9.888
 20
0.996
 21
1.49
  0
LINE
  8
0
 10
-9.888
 11
-9.802
 20
1.49
 21
1.981
  0
LINE
  8
0
 10
-9.802
 11
-9.691
 20
1.981
 21
2.468
  0
LINE
  8
0
 10
-9.691
 11
-9.556
 20
2.468
 21
2.948
  0
LINE
  8
0
 10
-9.556
 11
-9.397
 20
2.948
 21
3.42
  0
LINE
  8
0
 10
-9.397
 11
-9.215
 20
3.42
 21
3.884
  0
LINE
  8
0
 10
-9.215
 11
-9.01
 20
3.884
 21
4.339
  0
LINE
  8
0
 10
-9.01
 11
-8.782
 20
4.339
 21
4.783
  0
LINE
  8
0
 10
-8.782
 11
-8.533
 20
4.783
 21
5.214
  0
LINE
  8
0
 10
-8.533
 11
-8.262
 20
5.214
 21
5.633
  0
LINE
  8
0
 10
-8.262
 11
-7.971
 20
5.633
 21
6.038
  0
LINE
  8
0
 10
-7.971
 11
-7.66
 20
6.038
 21
6.428
  0
LINE
  8
0
 10
-7.66
 11
-7.331
 20
6.428
 21
6.802
  0
LINE
  8
0
 10
-7.331
 11
-6.982
 20
6.802
 21
7.159
  0
LINE
  8
0
 10
-6.982
 11
-6.617
 20
7.159
 21
7.498
  0
LINE
  8
0
 10
-6.617
 11
-6.235
 20
7.498
 21
7.818
  0
LINE
  8
0
 10
-6.235
 11
-5.837
 20
7.818
 21
8.119
  0
LINE
  8
0
 10
-5.837
 11
-5.425
 20
8.119
 21
8.4
  0
LINE
  8
0
 10
-5.425
 11
-5
 20
8.4
 21
8.66
  0
LINE
  8
0
 10
-5
 11
-4.562
 20
8.66
 21
8.899
  0
LINE
  8
0
 10
-4.562
 11
-4.113
 20
8.899
 21
9.115
  0
LINE
  8
0
 10
-4.113
 11
-3.653
 20
9.115
 21
9.309
  0
LINE
  8
0
 10
-3.653
 11
-3.185
 20
9.309
 21
9.479
  0
LINE
  8
0
 10
-3.185
 11
-2.708
 20
9.479
 21
9.626
  0
LINE
  8
0
 10
-2.708
 11
-2.225
 20
9.626
 21
9.749
  0
LINE
  8
0
 10
-2.225
 11
-1.736
 20
9.749
 21
9.848
  0
LINE
  8
0
 10
-1.736
 11
-1.243
 20
9.848
 21
9.922
  0
LINE
  8
0
 10
-1.243
 11
-0.747
 20
9.922
 21
9.972
  0
LINE
  8
0
 10
-0.747
 11
-0.249
 20
9.972
 21
9.997
  0
LINE
  8
0
 10
-0.249
 11
0.249
 20
9.997
 21
9.997
  0
LINE
  8
0
 10
0.249
 11
0.747
 20
9.997
 21
9.972
  0
LINE
  8
0
 10
0.747
 11
1.243
 20
9.972
 21
9.922
  0
LINE
  8
0
 10
1.243
 11
1.736
 20
9.922
 21
9.848
  0
LINE
  8
0
 10
1.736
 11
2.225
 20
9.848
 21
9.749
  0
LINE
  8
0
 10
2.225
 11
2.708
 20
9.749
 21
9.626
  0
LINE
  8
0
 10
2.708
 11
3.185
 20
9.626
 21
9.479
  0
LINE
  8
0
 10
3.185
 11
3.653
 20
9.479
 21
9.309
  0
LINE
  8
0
 10
3.653
 11
4.113
 20
9.309
 21
9.115
  0
LINE
  8
0
 10
4.113
 11
4.562
 20
9.115
 21
8.899
  0
LINE
  8
0
 10
4.562
 11
5
 20
8.899
 21
8.66
  0
LINE
  8
0
 10
5
 11
5.425
 20
8.66
 21
8.4
  0
LINE
  8
0
 10
5.425
 11
5.837
 20
8.4
 21
8.119
  0
LINE
  8
0
 10
5.837
 11
6.235
 20
8.119
 21
7.818
  0
LINE
  8
0
 10
6.235
 11
6.617
 20
7.818
 21
7.498
  0
LINE
  8
0
 10
6.617
 11
6.982
 20
7.498
 21
7.159
  0
LINE
  8
0
 10
6.982
 11
7.331
 20
7.159
 21
6.802
  0
LINE
  8
0
 10
7.331
 11
7.66
 20
6.802
 21
6.428
  0
LINE
  8
0
 10
7.66
 11
7.971
 20
6.428
 21
6.038
  0
LINE
  8
0
 10
7.971
 11
8.262
 20
6.038
 21
5.633
  0
LINE
  8
0
 10
8.262
 11
8.533
 20
5.633
 21
5.214
  0
LINE
  8
0
 10
8.533
 11
8.782
 20
5.214
 21
4.783
  0
LINE
  8
0
 10
8.782
 11
9.01
 20
4.783
 21
4.339
  0
LINE
  8
0
 10
9.01
 11
9.215
 20
4.339
 21
3.884
  0
LINE
  8
0
 10
9.215
 11
9.397
 20
3.884
 21
3.42
  0
LINE
  8
0
 10
9.397
 11
9.556
 20
3.42
 21
2.948
  0
LINE
  8
0
 10
9.556
 11
9.691
 20
2.948
 21
2.468
  0
LINE
  8
0
 10
9.691
 11
9.802
 20
2.468
 21
1.981
  0
LINE
  8
0
 10
9.802
 11
9.888
 20
1.981
 21
1.49
  0
LINE
  8
0
 10
9.888
 11
9.95
 20
1.49
 21
0.996
  0
LINE
  8
0
 10
9.95
 11
9.988
 20
0.996
 21
0.498
  0
LINE
  8
0
 10
9.988
 11
10
 20
0.498
 21
0
  0
LINE
  8
0
 10
10
 11
9.988
 20
0
 21
-0.498
  0
LINE
  8
0
 10
9.988
 11
9.95
 20
-0.498
 21
-0.996
  0
LINE
  8
0
 10
9.95
 11
9.888
 20
-0.996
 21
-1.49
  0
LINE
  8
0
 10
9.888
 11
9.802
 20
-1.49
 21
-1.981
  0
LINE
  8
0
 10
9.802
 11
9.691
 20
-1.981
 21
-2.468
  0
LINE
  8
0
 10
9.691
 11
9.556
 20
-2.468
 21
-2.948
  0
LINE
  8
0
 10
9.556
 11
9.397
 20
-2.948
 21
-3.42
  0
LINE
  8
0
 10
9.397
 11
9.215
 20
-3.42
 21
-3.884
  0
LINE
  8
0
 10
9.215
 11
9.01
 20
-3.884
 21
-4.339
  0
LINE
  8
0
 10
9.01
 11
8.782
 20
-4.339
 21
-4.783
  0
LINE
  8
0
 10
8.782
 11
8.533
 20
-4.783
 21
-5.214
  0
LINE
  8
0
 10
8.533
 11
8.262
 20
-5.214
 21
-5.633
  0
LINE
  8
0
 10
8.262
 11
7.971
 20
-5.633
 21
-6.038
  0
LINE
  8
0
 10
7.971
 11
7.66
 20
-6.038
 21
-6.428
  0
LINE
  8
0
 10
7.66
 11
7.331
 20
-6.428
 21
-6.802
  0
LINE
  8
0
 10
7.331
 11
6.982
 20
-6.802
 21
-7.159
  0
LINE
  8
0
 10
6.982
 11
6.617
 20
-7.159
 21
-7.498
  0
LINE
  8
0
 10
6.617
 11
6.235
 20
-7.498
 21
-7.818
  0
LINE
  8
0
 10
6.235
 11
5.837
 20
-7.818
 21
-8.119
  0
LINE
  8
0
 10
5.837
 11
5.425
 20
-8.119
 21
-8.4
  0
LINE
  8
0
 10
5.425
 11
5
 20
-8.4
 21
-8.66
  0
LINE
  8
0
 10
5
 11
4.562
 20
-8.66
 21
-8.899
  0
LINE
  8
0
 10
4.562
 11
4.113
 20
-8.899
 21
-9.115
  0
LINE
  8
0
 10
4.113
 11
3.653
 20
-9.115
 21
-9.309
  0
LINE
  8
0
 10
3.653
 11
3.185
 20
-9.309
 21
-9.479
  0
LINE
  8
0
 10
3.185
 11
2.708
 20
-9.479
 21
-9.626
  0
LINE
  8
0
 10
2.708
 11
2.225
 20
-9.626
 21
-9.749
  0
LINE
  8
0
 10
2.225
 11
1.736
 20
-9.749
 21
-9.848
  0
LINE
  8
0
 10
1.736
 11
1.243
 20
-9.848
 21
-9.922
  0
LINE
  8
0
 10
1.243
 11
0.747
 20
-9.922
 21
-9.972
  0
LINE
  8
0
 10
0.747
 11
0.249
 20
-9.972
 21
-9.997
  0
LINE
  8
0
 10
0.249
 11
-0.249
 20
-9.997
 21
-9.997
  0
LINE
  8
0
 10
-0.249
 11
-0.747
 20
-9.997
 21
-9.972
  0
LINE
  8
0
 10
-0.747
 11
-1.243
 20
-9.972
 21
-9.922
  0
LINE
  8
0
 10
-1.243
 11
-1.736
 20
-9.922
 21
-9.848
  0
LINE
  8
0
 10
-1.736
 11
-2.225
 20
-9.848
 21
-9.749
  0
LINE
  8
0
 10
-2.225
 11
-2.708
 20
-9.749
 21
-9.626
  0
LINE
  8
0
 10
-2.708
 11
-3.185
 20
-9.626
 21
-9.479
  0
LINE
  8
0
 10
-3.185
 11
-3.653
 20
-9.479
 21
-9.309
  0
LINE
  8
0
 10
-3.653
 11
-4.113
 20
-9.309
 21
-9.115
  0
LINE
  8
0
 10
-4.113
 11
-4.562
 20
-9.115
 21
-8.899
  0
LINE
  8
0
 10
-4.562
 11
-5
 20
-8.899
 21
-8.66
  0
LINE
  8
0
 10
-5
 11
-5.425
 20
-8.66
 21
-8.4
  0
LINE
  8
0
 10
-5.425
 11
-5.837
 20
-8.4
 21
-8.119
  0
LINE
  8
0
 10
-5.837
 11
-6.235
 20
-8.119
 21
-7.818
  0
LINE
  8
0
 10
-6.235
 11
-6.617
 20
-7.818
 21
-7.498
  0
LINE
  8
0
 10
-6.617
 11
-6.982
 20
-7.498
 21
-7.159
  0
LINE
  8
0
 10
-6.982
 11
-7.331
 20
-7.159
 21
-6.802
  0
LINE
  8
0
 10
-7.331
 11
-7.66
 20
-6.802
 21
-6.428
  0
LINE
  8
0
 10
-7.66
 11
-7.971
 20
-6.428
 21
-6.038
  0
LINE
  8
0
 10
-7.971
 11
-8.262
 20
-6.038
 21
-5.633
  0
LINE
  8
0
 10
-8.262
 11
-8.533
 20
-5.633
 21
-5.214
  0
LINE
  8
0
 10
-8.533
 11
-8.782
 20
-5.214
 21
-4.783
  0
LINE
  8
0
 10
-8.782
 11
-9.01
 20
-4.783
 21
-4.339
  0
LINE
  8
0
 10
-9.01
 11
-9.215
 20
-4.339
 21
-3.884
  0
LINE
  8
0
 10
-9.215
 11
-9.397
 20
-3.884
 21
-3.42
  0
LINE
  8
0
 10
-9.397
 11
-9.556
 20
-3.42
 21
-2.948
  0
LINE
  8
0
 10
-9.556
 11
-9.691
 20
-2.948
 21
-2.468
  0
LINE
  8
0
 10
-9.691
 11
-9.802
 20
-2.468
 21
-1.981
  0
LINE
  8
0
 10
-9.802
 11
-9.888
 20
-1.981
 21
-1.49
  0
LINE
  8
0
 10
-9.888
 11
-9.95
 20
-1.49
 21
-0.996
  0
LINE
  8
0
 10
-9.95
 11
-9.988
 20
-0.996
 21
-0.498
  0
LINE
  8
0
 10
-9.988
 11
-10
 20
-0.498
 21
0
  0
LINE
  8
0
 10
13.4
 11
13.465
 20
-15.3
 21
-14.808
  0
LINE
  8
0
 10
13.465
 11
13.655
 20
-14.808
 21
-14.35
  0
LINE
  8
0
 10
13.655
 11
13.956
 20
-14.35
 21
-13.956
  0
LINE
  8
0
 10
13.956
 11
14.35
 20
-13.956
 21
-13.655
  0
LINE
  8
0
 10
14.35
 11
14.808
 20
-13.655
 21
-13.465
  0
LINE
  8
0
 10
14.808
 11
15.3
 20
-13.465
 21
-13.4
  0
LINE
  8
0
 10
15.3
 11
15.792
 20
-13.4
 21
-13.465
  0
LINE
  8
0
 10
15.792
 11
16.25
 20
-13.465
 21
-13.655
  0
LINE
  8
0
 10
16.25
 11
16.644
 20
-13.655
 21
-13.956
  0
LINE
  8
0
 10
16.644
 11
16.945
 20
-13.956
 21
-14.35
  0
LINE
  8
0
 10
16.945
 11
17.135
 20
-14.35
 21
-14.808
  0
LINE
  8
0
 10
17.135
 11
17.2
 20
-14.808
 21
-15.3
  0
LINE
  8
0
 10
17.2
 11
17.135
 20
-15.3
 21
-15.792
  0
LINE
  8
0
 10
17.135
 11
16.945
 20
-15.792
 21
-16.25
  0
LINE
  8
0
 10
16.945
 11
16.644
 20
-16.25
 21
-16.644
  0
LINE
  8
0
 10
16.644
 11
16.25
 20
-16.644
 21
-16.945
  0
LINE
  8
0
 10
16.25
 11
15.792
 20
-16.945
 21
-17.135
  0
LINE
  8
0
 10
15.792
 11
15.3
 20
-17.135
 21
-17.2
  0
LINE
  8
0
 10
15.3
 11
14.808
 20
-17.2
 21
-17.135
  0
LINE
  8
0
 10
14.808
 11
14.35
 20
-17.135
 21
-16.945
  0
LINE
  8
0
 10
14.35
 11
13.956
 20
-16.945
 21
-16.644
  0
LINE
  8
0
 10
13.956
 11
13.655
 20
-16.644
 21
-16.25
  0
LINE
  8
0
 10
13.655
 11
13.465
 20
-16.25
 21
-15.792
  0
LINE
  8
0
 10
13.465
 11
13.4
 20
-15.792
 21
-15.3
  0
LINE
  8
0
 10
13.4
 11
13.465
 20
15.3
 21
15.792
  0
LINE
  8
0
 10
13.465
 11
13.655
 20
15.792
 21
16.25
  0
LINE
  8
0
 10
13.655
 11
13.956
 20
16.25
 21
16.644
  0
LINE
  8
0
 10
13.956
 11
14.35
 20
16.644
 21
16.945
  0
LINE
  8
0
 10
14.35
 11
14.808
 20
16.945
 21
17.135
  0
LINE
  8
0
 10
14.808
 11
15.3
 20
17.135
 21
17.2
  0
LINE
  8
0
 10
15.3
 11
15.792
 20
17.2
 21
17.135
  0
LINE
  8
0
 10
15.792
 11
16.25
 20
17.135
 21
16.945
  0
LINE
  8
0
 10
16.25
 11
16.644
 20
16.945
 21
16.644
  0
LINE
  8
0
 10
16.644
 11
16.945
 20
16.644
 21
16.25
  0
LINE
  8
0
 10
16.945
 11
17.135
 20
16.25
 21
15.792
  0
LINE
  8
0
 10
17.135
 11
17.2
 20
15.792
 21
15.3
  0
LINE
  8
0
 10
17.2
 11
17.135
 20
15.3
 21
14.808
  0
LINE
  8
0
 10
17.135
 11
16.945
 20
14.808
 21
14.35
  0
LINE
  8
0
 10
16.945
 11
16.644
 20
14.35
 21
13.956
  0
LINE
  8
0
 10
16.644
 11
16.25
 20
13.956
 21
13.655
  0
LINE
  8
0
 10
16.25
 11
15.792
 20
13.655
 21
13.465
  0
LINE
  8
0
 10
15.792
 11
15.3
 20
13.465
 21
13.4
  0
LINE
  8
0
 10
15.3
 11
14.808
 20
13.4
 21
13.465
  0
LINE
  8
0
 10
14.808
 11
14.35
 20
13.465
 21
13.655
  0
LINE
  8
0
 10
14.35
 11
13.956
 20
13.655
 21
13.956
  0
LINE
  8
0
 10
13.956
 11
13.655
 20
13.956
 21
14.35
  0
LINE
  8
0
 10
13.655
 11
13.465
 20
14.35
 21
14.808
  0
LINE
  8
0
 10
13.465
 11
13.4
 20
14.808
 21
15.3
  0
LINE
  8
0
 10
65.643
 11
65.711
 20
80.985
 21
81.464
  0
LINE
  8
0
 10
65.711
 11
65.912
 20
81.464
 21
81.904
  0
LINE
  8
0
 10
65.912
 11
66.229
 20
81.904
 21
82.27
  0
LINE
  8
0
 10
66.229
 11
66.636
 20
82.27
 21
82.531
  0
LINE
  8
0
 10
66.636
 11
67.101
 20
82.531
 21
82.668
  0
LINE
  8
0
 10
67.101
 11
67.584
 20
82.668
 21
82.668
  0
LINE
  8
0
 10
67.584
 11
68.049
 20
82.668
 21
82.531
  0
LINE
  8
0
 10
68.049
 11
68.456
 20
82.531
 21
82.27
  0
LINE
  8
0
 10
68.456
 11
68.773
 20
82.27
 21
81.904
  0
LINE
  8
0
 10
68.773
 11
68.974
 20
81.904
 21
81.464
  0
LINE
  8
0
 10
68.974
 11
69.043
 20
81.464
 21
80.985
  0
LINE
  8
0
 10
69.043
 11
68.974
 20
80.985
 21
80.506
  0
LINE
  8
0
 10
68.974
 11
68.773
 20
80.506
 21
80.066
  0
LINE
  8
0
 10
68.773
 11
68.456
 20
80.066
 21
79.7
  0
LINE
  8
0
 10
68.456
 11
68.049
 20
79.7
 21
79.439
  0
LINE
  8
0
 10
68.049
 11
67.584
 20
79.439
 21
79.302
  0
LINE
  8
0
 10
67.584
 11
67.101
 20
79.302
 21
79.302
  0
LINE
  8
0
 10
67.101
 11
66.636
 20
79.302
 21
79.439
  0
LINE
  8
0
 10
66.636
 11
66.229
 20
79.439
 21
79.7
  0
LINE
  8
0
 10
66.229
 11
65.912
 20
79.7
 21
80.066
  0
LINE
  8
0
 10
65.912
 11
65.711
 20
80.066
 21
80.506
  0
LINE
  8
0
 10
65.711
 11
65.643
 20
80.506
 21
80.985
  0
LINE
  8
0
 10
127.985
 11
128.054
 20
-42.993
 21
-42.514
  0
LINE
  8
0
 10
128.054
 11
128.255
 20
-42.514
 21
-42.073
  0
LINE
  8
0
 10
128.255
 11
128.572
 20
-42.073
 21
-41.708
  0
LINE
  8
0
 10
128.572
 11
128.979
 20
-41.708
 21
-41.446
  0
LINE
  8
0
 10
128.979
 11
129.443
 20
-41.446
 21
-41.31
  0
LINE
  8
0
 10
129.443
 11
129.927
 20
-41.31
 21
-41.31
  0
LINE
  8
0
 10
129.927
 11
130.391
 20
-41.31
 21
-41.446
  0
LINE
  8
0
 10
130.391
 11
130.798
 20
-41.446
 21
-41.708
  0
LINE
  8
0
 10
130.798
 11
131.115
 20
-41.708
 21
-42.073
  0
LINE
  8
0
 10
131.115
 11
131.316
 20
-42.073
 21
-42.514
  0
LINE
  8
0
 10
131.316
 11
131.385
 20
-42.514
 21
-42.993
  0
LINE
  8
0
 10
131.385
 11
131.316
 20
-42.993
 21
-43.471
  0
LINE
  8
0
 10
131.316
 11
131.115
 20
-43.471
 21
-43.912
  0
LINE
  8
0
 10
131.115
 11
130.798
 20
-43.912
 21
-44.277
  0
LINE
  8
0
 10
130.798
 11
130.391
 20
-44.277
 21
-44.539
  0
LINE
  8
0
 10
130.391
 11
129.927
 20
-44.539
 21
-44.675
  0
LINE
  8
0
 10
129.927
 11
129.443
 20
-44.675
 21
-44.675
  0
LINE
  8
0
 10
129.443
 11
128.979
 20
-44.675
 21
-44.539
  0
LINE
  8
0
 10
128.979
 11
128.572
 20
-44.539
 21
-44.277
  0
LINE
  8
0
 10
128.572
 11
128.255
 20
-44.277
 21
-43.912
  0
LINE
  8
0
 10
128.255
 11
128.054
 20
-43.912
 21
-43.471
  0
LINE
  8
0
 10
128.054
 11
127.985
 20
-43.471
 21
-42.993
  0
LINE
  8
0
 10
127.985
 11
128.054
 20
42.993
 21
43.471
  0
LINE
  8
0
 10
128.054
 11
128.255
 20
43.471
 21
43.912
  0
LINE
  8
0
 10
128.255
 11
128.572
 20
43.912
 21
44.277
  0
LINE
  8
0
 10
128.572
 11
128.979
 20
44.277
 21
44.539
  0
LINE
  8
0
 10
128.979
 11
129.443
 20
44.539
 21
44.675
  0
LINE
  8
0
 10
129.443
 11
129.927
 20
44.675
 21
44.675
  0
LINE
  8
0
 10
129.927
 11
130.391
 20
44.675
 21
44.539
  0
LINE
  8
0
 10
130.391
 11
130.798
 20
44.539
 21
44.277
  0
LINE
  8
0
 10
130.798
 11
131.115
 20
44.277
 21
43.912
  0
LINE
  8
0
 10
131.115
 11
131.316
 20
43.912
 21
43.471
  0
LINE
  8
0
 10
131.316
 11
131.385
 20
43.471
 21
42.993
  0
LINE
  8
0
 10
131.385
 11
131.316
 20
42.993
 21
42.514
  0
LINE
  8
0
 10
131.316
 11
131.115
 20
42.514
 21
42.073
  0
LINE
  8
0
 10
131.115
 11
130.798
 20
42.073
 21
41.708
  0
LINE
  8
0
 10
130.798
 11
130.391
 20
41.708
 21
41.446
  0
LINE
  8
0
 10
130.391
 11
129.927
 20
41.446
 21
41.31
  0
LINE
  8
0
 10
129.927
 11
129.443
 20
41.31
 21
41.31
  0
LINE
  8
0
 10
129.443
 11
128.979
 20
41.31
 21
41.446
  0
LINE
  8
0
 10
128.979
 11
128.572
 20
41.446
 21
41.708
  0
LINE
  8
0
 10
128.572
 11
128.255
 20
41.708
 21
42.073
  0
LINE
  8
0
 10
128.255
 11
128.054
 20
42.073
 21
42.514
  0
LINE
  8
0
 10
128.054
 11
127.985
 20
42.514
 21
42.993
  0
ENDSEC
  0
SECTION
  2
OBJECTS
  0
DICTIONARY
  0
ENDSEC
  0
EOF
