  0
SECTION
  2
BLOCKS
  0
ENDSEC
  0
SECTION
  2
ENTITIES
  0
LINE
  8
0
 10
-127.3
 11
-127.3
 20
-73
 21
73
  0
LINE
  8
0
 10
-127.3
 11
-127.288
 20
73
 21
73.499
  0
LINE
  8
0
 10
-127.288
 11
-127.254
 20
73.499
 21
73.996
  0
LINE
  8
0
 10
-127.254
 11
-127.196
 20
73.996
 21
74.492
  0
LINE
  8
0
 10
-127.196
 11
-127.116
 20
74.492
 21
74.984
  0
LINE
  8
0
 10
-127.116
 11
-127.013
 20
74.984
 21
75.473
  0
LINE
  8
0
 10
-127.013
 11
-126.888
 20
75.473
 21
75.956
  0
LINE
  8
0
 10
-126.888
 11
-126.74
 20
75.956
 21
76.432
  0
LINE
  8
0
 10
-126.74
 11
-126.571
 20
76.432
 21
76.901
  0
LINE
  8
0
 10
-126.571
 11
-126.38
 20
76.901
 21
77.362
  0
LINE
  8
0
 10
-126.38
 11
-126.168
 20
77.362
 21
77.814
  0
LINE
  8
0
 10
-126.168
 11
-125.935
 20
77.814
 21
78.255
  0
LINE
  8
0
 10
-125.935
 11
-125.682
 20
78.255
 21
78.685
  0
LINE
  8
0
 10
-125.682
 11
-125.41
 20
78.685
 21
79.103
  0
LINE
  8
0
 10
-125.41
 11
-125.119
 20
79.103
 21
79.508
  0
LINE
  8
0
 10
-125.119
 11
-124.809
 20
79.508
 21
79.9
  0
LINE
  8
0
 10
-124.809
 11
-124.481
 20
79.9
 21
80.276
  0
LINE
  8
0
 10
-124.481
 11
-124.137
 20
80.276
 21
80.637
  0
LINE
  8
0
 10
-124.137
 11
-123.776
 20
80.637
 21
80.981
  0
LINE
  8
0
 10
-123.776
 11
-123.4
 20
80.981
 21
81.309
  0
LINE
  8
0
 10
-123.4
 11
-123.008
 20
81.309
 21
81.619
  0
LINE
  8
0
 10
-123.008
 11
-122.603
 20
81.619
 21
81.91
  0
LINE
  8
0
 10
-122.603
 11
-122.185
 20
81.91
 21
82.182
  0
LINE
  8
0
 10
-122.185
 11
-121.755
 20
82.182
 21
82.435
  0
LINE
  8
0
 10
-121.755
 11
-121.314
 20
82.435
 21
82.668
  0
LINE
  8
0
 10
-121.314
 11
-120.862
 20
82.668
 21
82.88
  0
LINE
  8
0
 10
-120.862
 11
-120.401
 20
82.88
 21
83.071
  0
LINE
  8
0
 10
-120.401
 11
-119.932
 20
83.071
 21
83.24
  0
LINE
  8
0
 10
-119.932
 11
-119.456
 20
83.24
 21
83.388
  0
LINE
  8
0
 10
-119.456
 11
-118.973
 20
83.388
 21
83.513
  0
LINE
  8
0
 10
-118.973
 11
-118.484
 20
83.513
 21
83.616
  0
LINE
  8
0
 10
-118.484
 11
-117.992
 20
83.616
 21
83.696
  0
LINE
  8
0
 10
-117.992
 11
-117.496
 20
83.696
 21
83.754
  0
LINE
  8
0
 10
-117.496
 11
-116.999
 20
83.754
 21
83.788
  0
LINE
  8
0
 10
-116.999
 11
-116.5
 20
83.788
 21
83.8
  0
LINE
  8
0
 10
-116.5
 11
116.5
 20
83.8
 21
83.8
  0
LINE
  8
0
 10
116.5
 11
116.999
 20
83.8
 21
83.788
  0
LINE
  8
0
 10
116.999
 11
117.496
 20
83.788
 21
83.754
  0
LINE
  8
0
 10
117.496
 11
117.992
 20
83.754
 21
83.696
  0
LINE
  8
0
 10
117.992
 11
118.484
 20
83.696
 21
83.616
  0
LINE
  8
0
 10
118.484
 11
118.973
 20
83.616
 21
83.513
  0
LINE
  8
0
 10
118.973
 11
119.456
 20
83.513
 21
83.388
  0
LINE
  8
0
 10
119.456
 11
119.932
 20
83.388
 21
83.24
  0
LINE
  8
0
 10
119.932
 11
120.401
 20
83.24
 21
83.071
  0
LINE
  8
0
 10
120.401
 11
120.862
 20
83.071
 21
82.88
  0
LINE
  8
0
 10
120.862
 11
121.314
 20
82.88
 21
82.668
  0
LINE
  8
0
 10
121.314
 11
121.755
 20
82.668
 21
82.435
  0
LINE
  8
0
 10
121.755
 11
122.185
 20
82.435
 21
82.182
  0
LINE
  8
0
 10
122.185
 11
122.603
 20
82.182
 21
81.91
  0
LINE
  8
0
 10
122.603
 11
123.008
 20
81.91
 21
81.619
  0
LINE
  8
0
 10
123.008
 11
123.4
 20
81.619
 21
81.309
  0
LINE
  8
0
 10
123.4
 11
123.776
 20
81.309
 21
80.981
  0
LINE
  8
0
 10
123.776
 11
124.137
 20
80.981
 21
80.637
  0
LINE
  8
0
 10
124.137
 11
124.481
 20
80.637
 21
80.276
  0
LINE
  8
0
 10
124.481
 11
124.809
 20
80.276
 21
79.9
  0
LINE
  8
0
 10
124.809
 11
125.119
 20
79.9
 21
79.508
  0
LINE
  8
0
 10
125.119
 11
125.41
 20
79.508
 21
79.103
  0
LINE
  8
0
 10
125.41
 11
125.682
 20
79.103
 21
78.685
  0
LINE
  8
0
 10
125.682
 11
125.935
 20
78.685
 21
78.255
  0
LINE
  8
0
 10
125.935
 11
126.168
 20
78.255
 21
77.814
  0
LINE
  8
0
 10
126.168
 11
126.38
 20
77.814
 21
77.362
  0
LINE
  8
0
 10
126.38
 11
126.571
 20
77.362
 21
76.901
  0
LINE
  8
0
 10
126.571
 11
126.74
 20
76.901
 21
76.432
  0
LINE
  8
0
 10
126.74
 11
126.888
 20
76.432
 21
75.956
  0
LINE
  8
0
 10
126.888
 11
127.013
 20
75.956
 21
75.473
  0
LINE
  8
0
 10
127.013
 11
127.116
 20
75.473
 21
74.984
  0
LINE
  8
0
 10
127.116
 11
127.196
 20
74.984
 21
74.492
  0
LINE
  8
0
 10
127.196
 11
127.254
 20
74.492
 21
73.996
  0
LINE
  8
0
 10
127.254
 11
127.288
 20
73.996
 21
73.499
  0
LINE
  8
0
 10
127.288
 11
127.3
 20
73.499
 21
73
  0
LINE
  8
0
 10
127.3
 11
127.3
 20
73
 21
-73
  0
LINE
  8
0
 10
127.3
 11
127.288
 20
-73
 21
-73.499
  0
LINE
  8
0
 10
127.288
 11
127.254
 20
-73.499
 21
-73.996
  0
LINE
  8
0
 10
127.254
 11
127.196
 20
-73.996
 21
-74.492
  0
LINE
  8
0
 10
127.196
 11
127.116
 20
-74.492
 21
-74.984
  0
LINE
  8
0
 10
127.116
 11
127.013
 20
-74.984
 21
-75.473
  0
LINE
  8
0
 10
127.013
 11
126.888
 20
-75.473
 21
-75.956
  0
LINE
  8
0
 10
126.888
 11
126.74
 20
-75.956
 21
-76.432
  0
LINE
  8
0
 10
126.74
 11
126.571
 20
-76.432
 21
-76.901
  0
LINE
  8
0
 10
126.571
 11
126.38
 20
-76.901
 21
-77.362
  0
LINE
  8
0
 10
126.38
 11
126.168
 20
-77.362
 21
-77.814
  0
LINE
  8
0
 10
126.168
 11
125.935
 20
-77.814
 21
-78.255
  0
LINE
  8
0
 10
125.935
 11
125.682
 20
-78.255
 21
-78.685
  0
LINE
  8
0
 10
125.682
 11
125.41
 20
-78.685
 21
-79.103
  0
LINE
  8
0
 10
125.41
 11
125.119
 20
-79.103
 21
-79.508
  0
LINE
  8
0
 10
125.119
 11
124.809
 20
-79.508
 21
-79.9
  0
LINE
  8
0
 10
124.809
 11
124.481
 20
-79.9
 21
-80.276
  0
LINE
  8
0
 10
124.481
 11
124.137
 20
-80.276
 21
-80.637
  0
LINE
  8
0
 10
124.137
 11
123.776
 20
-80.637
 21
-80.981
  0
LINE
  8
0
 10
123.776
 11
123.4
 20
-80.981
 21
-81.309
  0
LINE
  8
0
 10
123.4
 11
123.008
 20
-81.309
 21
-81.619
  0
LINE
  8
0
 10
123.008
 11
122.603
 20
-81.619
 21
-81.91
  0
LINE
  8
0
 10
122.603
 11
122.185
 20
-81.91
 21
-82.182
  0
LINE
  8
0
 10
122.185
 11
121.755
 20
-82.182
 21
-82.435
  0
LINE
  8
0
 10
121.755
 11
121.314
 20
-82.435
 21
-82.668
  0
LINE
  8
0
 10
121.314
 11
120.862
 20
-82.668
 21
-82.88
  0
LINE
  8
0
 10
120.862
 11
120.401
 20
-82.88
 21
-83.071
  0
LINE
  8
0
 10
120.401
 11
119.932
 20
-83.071
 21
-83.24
  0
LINE
  8
0
 10
119.932
 11
119.456
 20
-83.24
 21
-83.388
  0
LINE
  8
0
 10
119.456
 11
118.973
 20
-83.388
 21
-83.513
  0
LINE
  8
0
 10
118.973
 11
118.484
 20
-83.513
 21
-83.616
  0
LINE
  8
0
 10
118.484
 11
117.992
 20
-83.616
 21
-83.696
  0
LINE
  8
0
 10
117.992
 11
117.496
 20
-83.696
 21
-83.754
  0
LINE
  8
0
 10
117.496
 11
116.999
 20
-83.754
 21
-83.788
  0
LINE
  8
0
 10
116.999
 11
116.5
 20
-83.788
 21
-83.8
  0
LINE
  8
0
 10
116.5
 11
-116.5
 20
-83.8
 21
-83.8
  0
LINE
  8
0
 10
-116.5
 11
-116.999
 20
-83.8
 21
-83.788
  0
LINE
  8
0
 10
-116.999
 11
-117.496
 20
-83.788
 21
-83.754
  0
LINE
  8
0
 10
-117.496
 11
-117.992
 20
-83.754
 21
-83.696
  0
LINE
  8
0
 10
-117.992
 11
-118.484
 20
-83.696
 21
-83.616
  0
LINE
  8
0
 10
-118.484
 11
-118.973
 20
-83.616
 21
-83.513
  0
LINE
  8
0
 10
-118.973
 11
-119.456
 20
-83.513
 21
-83.388
  0
LINE
  8
0
 10
-119.456
 11
-119.932
 20
-83.388
 21
-83.24
  0
LINE
  8
0
 10
-119.932
 11
-120.401
 20
-83.24
 21
-83.071
  0
LINE
  8
0
 10
-120.401
 11
-120.862
 20
-83.071
 21
-82.88
  0
LINE
  8
0
 10
-120.862
 11
-121.314
 20
-82.88
 21
-82.668
  0
LINE
  8
0
 10
-121.314
 11
-121.755
 20
-82.668
 21
-82.435
  0
LINE
  8
0
 10
-121.755
 11
-122.185
 20
-82.435
 21
-82.182
  0
LINE
  8
0
 10
-122.185
 11
-122.603
 20
-82.182
 21
-81.91
  0
LINE
  8
0
 10
-122.603
 11
-123.008
 20
-81.91
 21
-81.619
  0
LINE
  8
0
 10
-123.008
 11
-123.4
 20
-81.619
 21
-81.309
  0
LINE
  8
0
 10
-123.4
 11
-123.776
 20
-81.309
 21
-80.981
  0
LINE
  8
0
 10
-123.776
 11
-124.137
 20
-80.981
 21
-80.637
  0
LINE
  8
0
 10
-124.137
 11
-124.481
 20
-80.637
 21
-80.276
  0
LINE
  8
0
 10
-124.481
 11
-124.809
 20
-80.276
 21
-79.9
  0
LINE
  8
0
 10
-124.809
 11
-125.119
 20
-79.9
 21
-79.508
  0
LINE
  8
0
 10
-125.119
 11
-125.41
 20
-79.508
 21
-79.103
  0
LINE
  8
0
 10
-125.41
 11
-125.682
 20
-79.103
 21
-78.685
  0
LINE
  8
0
 10
-125.682
 11
-125.935
 20
-78.685
 21
-78.255
  0
LINE
  8
0
 10
-125.935
 11
-126.168
 20
-78.255
 21
-77.814
  0
LINE
  8
0
 10
-126.168
 11
-126.38
 20
-77.814
 21
-77.362
  0
LINE
  8
0
 10
-126.38
 11
-126.571
 20
-77.362
 21
-76.901
  0
LINE
  8
0
 10
-126.571
 11
-126.74
 20
-76.901
 21
-76.432
  0
LINE
  8
0
 10
-126.74
 11
-126.888
 20
-76.432
 21
-75.956
  0
LINE
  8
0
 10
-126.888
 11
-127.013
 20
-75.956
 21
-75.473
  0
LINE
  8
0
 10
-127.013
 11
-127.116
 20
-75.473
 21
-74.984
  0
LINE
  8
0
 10
-127.116
 11
-127.196
 20
-74.984
 21
-74.492
  0
LINE
  8
0
 10
-127.196
 11
-127.254
 20
-74.492
 21
-73.996
  0
LINE
  8
0
 10
-127.254
 11
-127.288
 20
-73.996
 21
-73.499
  0
LINE
  8
0
 10
-127.288
 11
-127.3
 20
-73.499
 21
-73
  0
LINE
  8
0
 10
-125.2
 11
-125.131
 20
-42.5
 21
-42.021
  0
LINE
  8
0
 10
-125.131
 11
-124.93
 20
-42.021
 21
-41.581
  0
LINE
  8
0
 10
-124.93
 11
-124.613
 20
-41.581
 21
-41.215
  0
LINE
  8
0
 10
-124.613
 11
-124.206
 20
-41.215
 21
-40.954
  0
LINE
  8
0
 10
-124.206
 11
-123.742
 20
-40.954
 21
-40.817
  0
LINE
  8
0
 10
-123.742
 11
-123.258
 20
-40.817
 21
-40.817
  0
LINE
  8
0
 10
-123.258
 11
-122.794
 20
-40.817
 21
-40.954
  0
LINE
  8
0
 10
-122.794
 11
-122.387
 20
-40.954
 21
-41.215
  0
LINE
  8
0
 10
-122.387
 11
-122.07
 20
-41.215
 21
-41.581
  0
LINE
  8
0
 10
-122.07
 11
-121.869
 20
-41.581
 21
-42.021
  0
LINE
  8
0
 10
-121.869
 11
-121.8
 20
-42.021
 21
-42.5
  0
LINE
  8
0
 10
-121.8
 11
-121.869
 20
-42.5
 21
-42.979
  0
LINE
  8
0
 10
-121.869
 11
-122.07
 20
-42.979
 21
-43.419
  0
LINE
  8
0
 10
-122.07
 11
-122.387
 20
-43.419
 21
-43.785
  0
LINE
  8
0
 10
-122.387
 11
-122.794
 20
-43.785
 21
-44.046
  0
LINE
  8
0
 10
-122.794
 11
-123.258
 20
-44.046
 21
-44.183
  0
LINE
  8
0
 10
-123.258
 11
-123.742
 20
-44.183
 21
-44.183
  0
LINE
  8
0
 10
-123.742
 11
-124.206
 20
-44.183
 21
-44.046
  0
LINE
  8
0
 10
-124.206
 11
-124.613
 20
-44.046
 21
-43.785
  0
LINE
  8
0
 10
-124.613
 11
-124.93
 20
-43.785
 21
-43.419
  0
LINE
  8
0
 10
-124.93
 11
-125.131
 20
-43.419
 21
-42.979
  0
LINE
  8
0
 10
-125.131
 11
-125.2
 20
-42.979
 21
-42.5
  0
LINE
  8
0
 10
-125.2
 11
-125.131
 20
42.5
 21
42.979
  0
LINE
  8
0
 10
-125.131
 11
-124.93
 20
42.979
 21
43.419
  0
LINE
  8
0
 10
-124.93
 11
-124.613
 20
43.419
 21
43.785
  0
LINE
  8
0
 10
-124.613
 11
-124.206
 20
43.785
 21
44.046
  0
LINE
  8
0
 10
-124.206
 11
-123.742
 20
44.046
 21
44.183
  0
LINE
  8
0
 10
-123.742
 11
-123.258
 20
44.183
 21
44.183
  0
LINE
  8
0
 10
-123.258
 11
-122.794
 20
44.183
 21
44.046
  0
LINE
  8
0
 10
-122.794
 11
-122.387
 20
44.046
 21
43.785
  0
LINE
  8
0
 10
-122.387
 11
-122.07
 20
43.785
 21
43.419
  0
LINE
  8
0
 10
-122.07
 11
-121.869
 20
43.419
 21
42.979
  0
LINE
  8
0
 10
-121.869
 11
-121.8
 20
42.979
 21
42.5
  0
LINE
  8
0
 10
-121.8
 11
-121.869
 20
42.5
 21
42.021
  0
LINE
  8
0
 10
-121.869
 11
-122.07
 20
42.021
 21
41.581
  0
LINE
  8
0
 10
-122.07
 11
-122.387
 20
41.581
 21
41.215
  0
LINE
  8
0
 10
-122.387
 11
-122.794
 20
41.215
 21
40.954
  0
LINE
  8
0
 10
-122.794
 11
-123.258
 20
40.954
 21
40.817
  0
LINE
  8
0
 10
-123.258
 11
-123.742
 20
40.817
 21
40.817
  0
LINE
  8
0
 10
-123.742
 11
-124.206
 20
40.817
 21
40.954
  0
LINE
  8
0
 10
-124.206
 11
-124.613
 20
40.954
 21
41.215
  0
LINE
  8
0
 10
-124.613
 11
-124.93
 20
41.215
 21
41.581
  0
LINE
  8
0
 10
-124.93
 11
-125.131
 20
41.581
 21
42.021
  0
LINE
  8
0
 10
-125.131
 11
-125.2
 20
42.021
 21
42.5
  0
LINE
  8
0
 10
-65.95
 11
-65.881
 20
80
 21
80.479
  0
LINE
  8
0
 10
-65.881
 11
-65.68
 20
80.479
 21
80.919
  0
LINE
  8
0
 10
-65.68
 11
-65.363
 20
80.919
 21
81.285
  0
LINE
  8
0
 10
-65.363
 11
-64.956
 20
81.285
 21
81.546
  0
LINE
  8
0
 10
-64.956
 11
-64.492
 20
81.546
 21
81.683
  0
LINE
  8
0
 10
-64.492
 11
-64.008
 20
81.683
 21
81.683
  0
LINE
  8
0
 10
-64.008
 11
-63.544
 20
81.683
 21
81.546
  0
LINE
  8
0
 10
-63.544
 11
-63.137
 20
81.546
 21
81.285
  0
LINE
  8
0
 10
-63.137
 11
-62.82
 20
81.285
 21
80.919
  0
LINE
  8
0
 10
-62.82
 11
-62.619
 20
80.919
 21
80.479
  0
LINE
  8
0
 10
-62.619
 11
-62.55
 20
80.479
 21
80
  0
LINE
  8
0
 10
-62.55
 11
-62.619
 20
80
 21
79.521
  0
LINE
  8
0
 10
-62.619
 11
-62.82
 20
79.521
 21
79.081
  0
LINE
  8
0
 10
-62.82
 11
-63.137
 20
79.081
 21
78.715
  0
LINE
  8
0
 10
-63.137
 11
-63.544
 20
78.715
 21
78.454
  0
LINE
  8
0
 10
-63.544
 11
-64.008
 20
78.454
 21
78.317
  0
LINE
  8
0
 10
-64.008
 11
-64.492
 20
78.317
 21
78.317
  0
LINE
  8
0
 10
-64.492
 11
-64.956
 20
78.317
 21
78.454
  0
LINE
  8
0
 10
-64.956
 11
-65.363
 20
78.454
 21
78.715
  0
LINE
  8
0
 10
-65.363
 11
-65.68
 20
78.715
 21
79.081
  0
LINE
  8
0
 10
-65.68
 11
-65.881
 20
79.081
 21
79.521
  0
LINE
  8
0
 10
-65.881
 11
-65.95
 20
79.521
 21
80
  0
LINE
  8
0
 10
-17.2
 11
-17.135
 20
-15.3
 21
-14.808
  0
LINE
  8
0
 10
-17.135
 11
-16.945
 20
-14.808
 21
-14.35
  0
LINE
  8
0
 10
-16.945
 11
-16.644
 20
-14.35
 21
-13.956
  0
LINE
  8
0
 10
-16.644
 11
-16.25
 20
-13.956
 21
-13.655
  0
LINE
  8
0
 10
-16.25
 11
-15.792
 20
-13.655
 21
-13.465
  0
LINE
  8
0
 10
-15.792
 11
-15.3
 20
-13.465
 21
-13.4
  0
LINE
  8
0
 10
-15.3
 11
-14.808
 20
-13.4
 21
-13.465
  0
LINE
  8
0
 10
-14.808
 11
-14.35
 20
-13.465
 21
-13.655
  0
LINE
  8
0
 10
-14.35
 11
-13.956
 20
-13.655
 21
-13.956
  0
LINE
  8
0
 10
-13.956
 11
-13.655
 20
-13.956
 21
-14.35
  0
LINE
  8
0
 10
-13.655
 11
-13.465
 20
-14.35
 21
-14.808
  0
LINE
  8
0
 10
-13.465
 11
-13.4
 20
-14.808
 21
-15.3
  0
LINE
  8
0
 10
-13.4
 11
-13.465
 20
-15.3
 21
-15.792
  0
LINE
  8
0
 10
-13.465
 11
-13.655
 20
-15.792
 21
-16.25
  0
LINE
  8
0
 10
-13.655
 11
-13.956
 20
-16.25
 21
-16.644
  0
LINE
  8
0
 10
-13.956
 11
-14.35
 20
-16.644
 21
-16.945
  0
LINE
  8
0
 10
-14.35
 11
-14.808
 20
-16.945
 21
-17.135
  0
LINE
  8
0
 10
-14.808
 11
-15.3
 20
-17.135
 21
-17.2
  0
LINE
  8
0
 10
-15.3
 11
-15.792
 20
-17.2
 21
-17.135
  0
LINE
  8
0
 10
-15.792
 11
-16.25
 20
-17.135
 21
-16.945
  0
LINE
  8
0
 10
-16.25
 11
-16.644
 20
-16.945
 21
-16.644
  0
LINE
  8
0
 10
-16.644
 11
-16.945
 20
-16.644
 21
-16.25
  0
LINE
  8
0
 10
-16.945
 11
-17.135
 20
-16.25
 21
-15.792
  0
LINE
  8
0
 10
-17.135
 11
-17.2
 20
-15.792
 21
-15.3
  0
LINE
  8
0
 10
-17.2
 11
-17.135
 20
15.3
 21
15.792
  0
LINE
  8
0
 10
-17.135
 11
-16.945
 20
15.792
 21
16.25
  0
LINE
  8
0
 10
-16.945
 11
-16.644
 20
16.25
 21
16.644
  0
LINE
  8
0
 10
-16.644
 11
-16.25
 20
16.644
 21
16.945
  0
LINE
  8
0
 10
-16.25
 11
-15.792
 20
16.945
 21
17.135
  0
LINE
  8
0
 10
-15.792
 11
-15.3
 20
17.135
 21
17.2
  0
LINE
  8
0
 10
-15.3
 11
-14.808
 20
17.2
 21
17.135
  0
LINE
  8
0
 10
-14.808
 11
-14.35
 20
17.135
 21
16.945
  0
LINE
  8
0
 10
-14.35
 11
-13.956
 20
16.945
 21
16.644
  0
LINE
  8
0
 10
-13.956
 11
-13.655
 20
16.644
 21
16.25
  0
LINE
  8
0
 10
-13.655
 11
-13.465
 20
16.25
 21
15.792
  0
LINE
  8
0
 10
-13.465
 11
-13.4
 20
15.792
 21
15.3
  0
LINE
  8
0
 10
-13.4
 11
-13.465
 20
15.3
 21
14.808
  0
LINE
  8
0
 10
-13.465
 11
-13.655
 20
14.808
 21
14.35
  0
LINE
  8
0
 10
-13.655
 11
-13.956
 20
14.35
 21
13.956
  0
LINE
  8
0
 10
-13.956
 11
-14.35
 20
13.956
 21
13.655
  0
LINE
  8
0
 10
-14.35
 11
-14.808
 20
13.655
 21
13.465
  0
LINE
  8
0
 10
-14.808
 11
-15.3
 20
13.465
 21
13.4
  0
LINE
  8
0
 10
-15.3
 11
-15.792
 20
13.4
 21
13.465
  0
LINE
  8
0
 10
-15.792
 11
-16.25
 20
13.465
 21
13.655
  0
LINE
  8
0
 10
-16.25
 11
-16.644
 20
13.655
 21
13.956
  0
LINE
  8
0
 10
-16.644
 11
-16.945
 20
13.956
 21
14.35
  0
LINE
  8
0
 10
-16.945
 11
-17.135
 20
14.35
 21
14.808
  0
LINE
  8
0
 10
-17.135
 11
-17.2
 20
14.808
 21
15.3
  0
LINE
  8
0
 10
-10
 11
-9.988
 20
0
 21
0.498
  0
LINE
  8
0
 10
-9.988
 11
-9.95
 20
0.498
 21
0.996
  0
LINE
  8
0
 10
-9.95
 11
-9.888
 20
0.996
 21
1.49
  0
LINE
  8
0
 10
-9.888
 11
-9.802
 20
1.49
 21
1.981
  0
LINE
  8
0
 10
-9.802
 11
-9.691
 20
1.981
 21
2.468
  0
LINE
  8
0
 10
-9.691
 11
-9.556
 20
2.468
 21
2.948
  0
LINE
  8
0
 10
-9.556
 11
-9.397
 20
2.948
 21
3.42
  0
LINE
  8
0
 10
-9.397
 11
-9.215
 20
3.42
 21
3.884
  0
LINE
  8
0
 10
-9.215
 11
-9.01
 20
3.884
 21
4.339
  0
LINE
  8
0
 10
-9.01
 11
-8.782
 20
4.339
 21
4.783
  0
LINE
  8
0
 10
-8.782
 11
-8.533
 20
4.783
 21
5.214
  0
LINE
  8
0
 10
-8.533
 11
-8.262
 20
5.214
 21
5.633
  0
LINE
  8
0
 10
-8.262
 11
-7.971
 20
5.633
 21
6.038
  0
LINE
  8
0
 10
-7.971
 11
-7.66
 20
6.038
 21
6.428
  0
LINE
  8
0
 10
-7.66
 11
-7.331
 20
6.428
 21
6.802
  0
LINE
  8
0
 10
-7.331
 11
-6.982
 20
6.802
 21
7.159
  0
LINE
  8
0
 10
-6.982
 11
-6.617
 20
7.159
 21
7.498
  0
LINE
  8
0
 10
-6.617
 11
-6.235
 20
7.498
 21
7.818
  0
LINE
  8
0
 10
-6.235
 11
-5.837
 20
7.818
 21
8.119
  0
LINE
  8
0
 10
-5.837
 11
-5.425
 20
8.119
 21
8.4
  0
LINE
  8
0
 10
-5.425
 11
-5
 20
8.4
 21
8.66
  0
LINE
  8
0
 10
-5
 11
-4.562
 20
8.66
 21
8.899
  0
LINE
  8
0
 10
-4.562
 11
-4.113
 20
8.899
 21
9.115
  0
LINE
  8
0
 10
-4.113
 11
-3.653
 20
9.115
 21
9.309
  0
LINE
  8
0
 10
-3.653
 11
-3.185
 20
9.309
 21
9.479
  0
LINE
  8
0
 10
-3.185
 11
-2.708
 20
9.479
 21
9.626
  0
LINE
  8
0
 10
-2.708
 11
-2.225
 20
9.626
 21
9.749
  0
LINE
  8
0
 10
-2.225
 11
-1.736
 20
9.749
 21
9.848
  0
LINE
  8
0
 10
-1.736
 11
-1.243
 20
9.848
 21
9.922
  0
LINE
  8
0
 10
-1.243
 11
-0.747
 20
9.922
 21
9.972
  0
LINE
  8
0
 10
-0.747
 11
-0.249
 20
9.972
 21
9.997
  0
LINE
  8
0
 10
-0.249
 11
0.249
 20
9.997
 21
9.997
  0
LINE
  8
0
 10
0.249
 11
0.747
 20
9.997
 21
9.972
  0
LINE
  8
0
 10
0.747
 11
1.243
 20
9.972
 21
9.922
  0
LINE
  8
0
 10
1.243
 11
1.736
 20
9.922
 21
9.848
  0
LINE
  8
0
 10
1.736
 11
2.225
 20
9.848
 21
9.749
  0
LINE
  8
0
 10
2.225
 11
2.708
 20
9.749
 21
9.626
  0
LINE
  8
0
 10
2.708
 11
3.185
 20
9.626
 21
9.479
  0
LINE
  8
0
 10
3.185
 11
3.653
 20
9.479
 21
9.309
  0
LINE
  8
0
 10
3.653
 11
4.113
 20
9.309
 21
9.115
  0
LINE
  8
0
 10
4.113
 11
4.562
 20
9.115
 21
8.899
  0
LINE
  8
0
 10
4.562
 11
5
 20
8.899
 21
8.66
  0
LINE
  8
0
 10
5
 11
5.425
 20
8.66
 21
8.4
  0
LINE
  8
0
 10
5.425
 11
5.837
 20
8.4
 21
8.119
  0
LINE
  8
0
 10
5.837
 11
6.235
 20
8.119
 21
7.818
  0
LINE
  8
0
 10
6.235
 11
6.617
 20
7.818
 21
7.498
  0
LINE
  8
0
 10
6.617
 11
6.982
 20
7.498
 21
7.159
  0
LINE
  8
0
 10
6.982
 11
7.331
 20
7.159
 21
6.802
  0
LINE
  8
0
 10
7.331
 11
7.66
 20
6.802
 21
6.428
  0
LINE
  8
0
 10
7.66
 11
7.971
 20
6.428
 21
6.038
  0
LINE
  8
0
 10
7.971
 11
8.262
 20
6.038
 21
5.633
  0
LINE
  8
0
 10
8.262
 11
8.533
 20
5.633
 21
5.214
  0
LINE
  8
0
 10
8.533
 11
8.782
 20
5.214
 21
4.783
  0
LINE
  8
0
 10
8.782
 11
9.01
 20
4.783
 21
4.339
  0
LINE
  8
0
 10
9.01
 11
9.215
 20
4.339
 21
3.884
  0
LINE
  8
0
 10
9.215
 11
9.397
 20
3.884
 21
3.42
  0
LINE
  8
0
 10
9.397
 11
9.556
 20
3.42
 21
2.948
  0
LINE
  8
0
 10
9.556
 11
9.691
 20
2.948
 21
2.468
  0
LINE
  8
0
 10
9.691
 11
9.802
 20
2.468
 21
1.981
  0
LINE
  8
0
 10
9.802
 11
9.888
 20
1.981
 21
1.49
  0
LINE
  8
0
 10
9.888
 11
9.95
 20
1.49
 21
0.996
  0
LINE
  8
0
 10
9.95
 11
9.988
 20
0.996
 21
0.498
  0
LINE
  8
0
 10
9.988
 11
10
 20
0.498
 21
0
  0
LINE
  8
0
 10
10
 11
9.988
 20
0
 21
-0.498
  0
LINE
  8
0
 10
9.988
 11
9.95
 20
-0.498
 21
-0.996
  0
LINE
  8
0
 10
9.95
 11
9.888
 20
-0.996
 21
-1.49
  0
LINE
  8
0
 10
9.888
 11
9.802
 20
-1.49
 21
-1.981
  0
LINE
  8
0
 10
9.802
 11
9.691
 20
-1.981
 21
-2.468
  0
LINE
  8
0
 10
9.691
 11
9.556
 20
-2.468
 21
-2.948
  0
LINE
  8
0
 10
9.556
 11
9.397
 20
-2.948
 21
-3.42
  0
LINE
  8
0
 10
9.397
 11
9.215
 20
-3.42
 21
-3.884
  0
LINE
  8
0
 10
9.215
 11
9.01
 20
-3.884
 21
-4.339
  0
LINE
  8
0
 10
9.01
 11
8.782
 20
-4.339
 21
-4.783
  0
LINE
  8
0
 10
8.782
 11
8.533
 20
-4.783
 21
-5.214
  0
LINE
  8
0
 10
8.533
 11
8.262
 20
-5.214
 21
-5.633
  0
LINE
  8
0
 10
8.262
 11
7.971
 20
-5.633
 21
-6.038
  0
LINE
  8
0
 10
7.971
 11
7.66
 20
-6.038
 21
-6.428
  0
LINE
  8
0
 10
7.66
 11
7.331
 20
-6.428
 21
-6.802
  0
LINE
  8
0
 10
7.331
 11
6.982
 20
-6.802
 21
-7.159
  0
LINE
  8
0
 10
6.982
 11
6.617
 20
-7.159
 21
-7.498
  0
LINE
  8
0
 10
6.617
 11
6.235
 20
-7.498
 21
-7.818
  0
LINE
  8
0
 10
6.235
 11
5.837
 20
-7.818
 21
-8.119
  0
LINE
  8
0
 10
5.837
 11
5.425
 20
-8.119
 21
-8.4
  0
LINE
  8
0
 10
5.425
 11
5
 20
-8.4
 21
-8.66
  0
LINE
  8
0
 10
5
 11
4.562
 20
-8.66
 21
-8.899
  0
LINE
  8
0
 10
4.562
 11
4.113
 20
-8.899
 21
-9.115
  0
LINE
  8
0
 10
4.113
 11
3.653
 20
-9.115
 21
-9.309
  0
LINE
  8
0
 10
3.653
 11
3.185
 20
-9.309
 21
-9.479
  0
LINE
  8
0
 10
3.185
 11
2.708
 20
-9.479
 21
-9.626
  0
LINE
  8
0
 10
2.708
 11
2.225
 20
-9.626
 21
-9.749
  0
LINE
  8
0
 10
2.225
 11
1.736
 20
-9.749
 21
-9.848
  0
LINE
  8
0
 10
1.736
 11
1.243
 20
-9.848
 21
-9.922
  0
LINE
  8
0
 10
1.243
 11
0.747
 20
-9.922
 21
-9.972
  0
LINE
  8
0
 10
0.747
 11
0.249
 20
-9.972
 21
-9.997
  0
LINE
  8
0
 10
0.249
 11
-0.249
 20
-9.997
 21
-9.997
  0
LINE
  8
0
 10
-0.249
 11
-0.747
 20
-9.997
 21
-9.972
  0
LINE
  8
0
 10
-0.747
 11
-1.243
 20
-9.972
 21
-9.922
  0
LINE
  8
0
 10
-1.243
 11
-1.736
 20
-9.922
 21
-9.848
  0
LINE
  8
0
 10
-1.736
 11
-2.225
 20
-9.848
 21
-9.749
  0
LINE
  8
0
 10
-2.225
 11
-2.708
 20
-9.749
 21
-9.626
  0
LINE
  8
0
 10
-2.708
 11
-3.185
 20
-9.626
 21
-9.479
  0
LINE
  8
0
 10
-3.185
 11
-3.653
 20
-9.479
 21
-9.309
  0
LINE
  8
0
 10
-3.653
 11
-4.113
 20
-9.309
 21
-9.115
  0
LINE
  8
0
 10
-4.113
 11
-4.562
 20
-9.115
 21
-8.899
  0
LINE
  8
0
 10
-4.562
 11
-5
 20
-8.899
 21
-8.66
  0
LINE
  8
0
 10
-5
 11
-5.425
 20
-8.66
 21
-8.4
  0
LINE
  8
0
 10
-5.425
 11
-5.837
 20
-8.4
 21
-8.119
  0
LINE
  8
0
 10
-5.837
 11
-6.235
 20
-8.119
 21
-7.818
  0
LINE
  8
0
 10
-6.235
 11
-6.617
 20
-7.818
 21
-7.498
  0
LINE
  8
0
 10
-6.617
 11
-6.982
 20
-7.498
 21
-7.159
  0
LINE
  8
0
 10
-6.982
 11
-7.331
 20
-7.159
 21
-6.802
  0
LINE
  8
0
 10
-7.331
 11
-7.66
 20
-6.802
 21
-6.428
  0
LINE
  8
0
 10
-7.66
 11
-7.971
 20
-6.428
 21
-6.038
  0
LINE
  8
0
 10
-7.971
 11
-8.262
 20
-6.038
 21
-5.633
  0
LINE
  8
0
 10
-8.262
 11
-8.533
 20
-5.633
 21
-5.214
  0
LINE
  8
0
 10
-8.533
 11
-8.782
 20
-5.214
 21
-4.783
  0
LINE
  8
0
 10
-8.782
 11
-9.01
 20
-4.783
 21
-4.339
  0
LINE
  8
0
 10
-9.01
 11
-9.215
 20
-4.339
 21
-3.884
  0
LINE
  8
0
 10
-9.215
 11
-9.397
 20
-3.884
 21
-3.42
  0
LINE
  8
0
 10
-9.397
 11
-9.556
 20
-3.42
 21
-2.948
  0
LINE
  8
0
 10
-9.556
 11
-9.691
 20
-2.948
 21
-2.468
  0
LINE
  8
0
 10
-9.691
 11
-9.802
 20
-2.468
 21
-1.981
  0
LINE
  8
0
 10
-9.802
 11
-9.888
 20
-1.981
 21
-1.49
  0
LINE
  8
0
 10
-9.888
 11
-9.95
 20
-1.49
 21
-0.996
  0
LINE
  8
0
 10
-9.95
 11
-9.988
 20
-0.996
 21
-0.498
  0
LINE
  8
0
 10
-9.988
 11
-10
 20
-0.498
 21
0
  0
LINE
  8
0
 10
13.4
 11
13.465
 20
-15.3
 21
-14.808
  0
LINE
  8
0
 10
13.465
 11
13.655
 20
-14.808
 21
-14.35
  0
LINE
  8
0
 10
13.655
 11
13.956
 20
-14.35
 21
-13.956
  0
LINE
  8
0
 10
13.956
 11
14.35
 20
-13.956
 21
-13.655
  0
LINE
  8
0
 10
14.35
 11
14.808
 20
-13.655
 21
-13.465
  0
LINE
  8
0
 10
14.808
 11
15.3
 20
-13.465
 21
-13.4
  0
LINE
  8
0
 10
15.3
 11
15.792
 20
-13.4
 21
-13.465
  0
LINE
  8
0
 10
15.792
 11
16.25
 20
-13.465
 21
-13.655
  0
LINE
  8
0
 10
16.25
 11
16.644
 20
-13.655
 21
-13.956
  0
LINE
  8
0
 10
16.644
 11
16.945
 20
-13.956
 21
-14.35
  0
LINE
  8
0
 10
16.945
 11
17.135
 20
-14.35
 21
-14.808
  0
LINE
  8
0
 10
17.135
 11
17.2
 20
-14.808
 21
-15.3
  0
LINE
  8
0
 10
17.2
 11
17.135
 20
-15.3
 21
-15.792
  0
LINE
  8
0
 10
17.135
 11
16.945
 20
-15.792
 21
-16.25
  0
LINE
  8
0
 10
16.945
 11
16.644
 20
-16.25
 21
-16.644
  0
LINE
  8
0
 10
16.644
 11
16.25
 20
-16.644
 21
-16.945
  0
LINE
  8
0
 10
16.25
 11
15.792
 20
-16.945
 21
-17.135
  0
LINE
  8
0
 10
15.792
 11
15.3
 20
-17.135
 21
-17.2
  0
LINE
  8
0
 10
15.3
 11
14.808
 20
-17.2
 21
-17.135
  0
LINE
  8
0
 10
14.808
 11
14.35
 20
-17.135
 21
-16.945
  0
LINE
  8
0
 10
14.35
 11
13.956
 20
-16.945
 21
-16.644
  0
LINE
  8
0
 10
13.956
 11
13.655
 20
-16.644
 21
-16.25
  0
LINE
  8
0
 10
13.655
 11
13.465
 20
-16.25
 21
-15.792
  0
LINE
  8
0
 10
13.465
 11
13.4
 20
-15.792
 21
-15.3
  0
LINE
  8
0
 10
13.4
 11
13.465
 20
15.3
 21
15.792
  0
LINE
  8
0
 10
13.465
 11
13.655
 20
15.792
 21
16.25
  0
LINE
  8
0
 10
13.655
 11
13.956
 20
16.25
 21
16.644
  0
LINE
  8
0
 10
13.956
 11
14.35
 20
16.644
 21
16.945
  0
LINE
  8
0
 10
14.35
 11
14.808
 20
16.945
 21
17.135
  0
LINE
  8
0
 10
14.808
 11
15.3
 20
17.135
 21
17.2
  0
LINE
  8
0
 10
15.3
 11
15.792
 20
17.2
 21
17.135
  0
LINE
  8
0
 10
15.792
 11
16.25
 20
17.135
 21
16.945
  0
LINE
  8
0
 10
16.25
 11
16.644
 20
16.945
 21
16.644
  0
LINE
  8
0
 10
16.644
 11
16.945
 20
16.644
 21
16.25
  0
LINE
  8
0
 10
16.945
 11
17.135
 20
16.25
 21
15.792
  0
LINE
  8
0
 10
17.135
 11
17.2
 20
15.792
 21
15.3
  0
LINE
  8
0
 10
17.2
 11
17.135
 20
15.3
 21
14.808
  0
LINE
  8
0
 10
17.135
 11
16.945
 20
14.808
 21
14.35
  0
LINE
  8
0
 10
16.945
 11
16.644
 20
14.35
 21
13.956
  0
LINE
  8
0
 10
16.644
 11
16.25
 20
13.956
 21
13.655
  0
LINE
  8
0
 10
16.25
 11
15.792
 20
13.655
 21
13.465
  0
LINE
  8
0
 10
15.792
 11
15.3
 20
13.465
 21
13.4
  0
LINE
  8
0
 10
15.3
 11
14.808
 20
13.4
 21
13.465
  0
LINE
  8
0
 10
14.808
 11
14.35
 20
13.465
 21
13.655
  0
LINE
  8
0
 10
14.35
 11
13.956
 20
13.655
 21
13.956
  0
LINE
  8
0
 10
13.956
 11
13.655
 20
13.956
 21
14.35
  0
LINE
  8
0
 10
13.655
 11
13.465
 20
14.35
 21
14.808
  0
LINE
  8
0
 10
13.465
 11
13.4
 20
14.808
 21
15.3
  0
LINE
  8
0
 10
62.55
 11
62.619
 20
80
 21
80.479
  0
LINE
  8
0
 10
62.619
 11
62.82
 20
80.479
 21
80.919
  0
LINE
  8
0
 10
62.82
 11
63.137
 20
80.919
 21
81.285
  0
LINE
  8
0
 10
63.137
 11
63.544
 20
81.285
 21
81.546
  0
LINE
  8
0
 10
63.544
 11
64.008
 20
81.546
 21
81.683
  0
LINE
  8
0
 10
64.008
 11
64.492
 20
81.683
 21
81.683
  0
LINE
  8
0
 10
64.492
 11
64.956
 20
81.683
 21
81.546
  0
LINE
  8
0
 10
64.956
 11
65.363
 20
81.546
 21
81.285
  0
LINE
  8
0
 10
65.363
 11
65.68
 20
81.285
 21
80.919
  0
LINE
  8
0
 10
65.68
 11
65.881
 20
80.919
 21
80.479
  0
LINE
  8
0
 10
65.881
 11
65.95
 20
80.479
 21
80
  0
LINE
  8
0
 10
65.95
 11
65.881
 20
80
 21
79.521
  0
LINE
  8
0
 10
65.881
 11
65.68
 20
79.521
 21
79.081
  0
LINE
  8
0
 10
65.68
 11
65.363
 20
79.081
 21
78.715
  0
LINE
  8
0
 10
65.363
 11
64.956
 20
78.715
 21
78.454
  0
LINE
  8
0
 10
64.956
 11
64.492
 20
78.454
 21
78.317
  0
LINE
  8
0
 10
64.492
 11
64.008
 20
78.317
 21
78.317
  0
LINE
  8
0
 10
64.008
 11
63.544
 20
78.317
 21
78.454
  0
LINE
  8
0
 10
63.544
 11
63.137
 20
78.454
 21
78.715
  0
LINE
  8
0
 10
63.137
 11
62.82
 20
78.715
 21
79.081
  0
LINE
  8
0
 10
62.82
 11
62.619
 20
79.081
 21
79.521
  0
LINE
  8
0
 10
62.619
 11
62.55
 20
79.521
 21
80
  0
LINE
  8
0
 10
121.8
 11
121.869
 20
-42.5
 21
-42.021
  0
LINE
  8
0
 10
121.869
 11
122.07
 20
-42.021
 21
-41.581
  0
LINE
  8
0
 10
122.07
 11
122.387
 20
-41.581
 21
-41.215
  0
LINE
  8
0
 10
122.387
 11
122.794
 20
-41.215
 21
-40.954
  0
LINE
  8
0
 10
122.794
 11
123.258
 20
-40.954
 21
-40.817
  0
LINE
  8
0
 10
123.258
 11
123.742
 20
-40.817
 21
-40.817
  0
LINE
  8
0
 10
123.742
 11
124.206
 20
-40.817
 21
-40.954
  0
LINE
  8
0
 10
124.206
 11
124.613
 20
-40.954
 21
-41.215
  0
LINE
  8
0
 10
124.613
 11
124.93
 20
-41.215
 21
-41.581
  0
LINE
  8
0
 10
124.93
 11
125.131
 20
-41.581
 21
-42.021
  0
LINE
  8
0
 10
125.131
 11
125.2
 20
-42.021
 21
-42.5
  0
LINE
  8
0
 10
125.2
 11
125.131
 20
-42.5
 21
-42.979
  0
LINE
  8
0
 10
125.131
 11
124.93
 20
-42.979
 21
-43.419
  0
LINE
  8
0
 10
124.93
 11
124.613
 20
-43.419
 21
-43.785
  0
LINE
  8
0
 10
124.613
 11
124.206
 20
-43.785
 21
-44.046
  0
LINE
  8
0
 10
124.206
 11
123.742
 20
-44.046
 21
-44.183
  0
LINE
  8
0
 10
123.742
 11
123.258
 20
-44.183
 21
-44.183
  0
LINE
  8
0
 10
123.258
 11
122.794
 20
-44.183
 21
-44.046
  0
LINE
  8
0
 10
122.794
 11
122.387
 20
-44.046
 21
-43.785
  0
LINE
  8
0
 10
122.387
 11
122.07
 20
-43.785
 21
-43.419
  0
LINE
  8
0
 10
122.07
 11
121.869
 20
-43.419
 21
-42.979
  0
LINE
  8
0
 10
121.869
 11
121.8
 20
-42.979
 21
-42.5
  0
LINE
  8
0
 10
121.8
 11
121.869
 20
42.5
 21
42.979
  0
LINE
  8
0
 10
121.869
 11
122.07
 20
42.979
 21
43.419
  0
LINE
  8
0
 10
122.07
 11
122.387
 20
43.419
 21
43.785
  0
LINE
  8
0
 10
122.387
 11
122.794
 20
43.785
 21
44.046
  0
LINE
  8
0
 10
122.794
 11
123.258
 20
44.046
 21
44.183
  0
LINE
  8
0
 10
123.258
 11
123.742
 20
44.183
 21
44.183
  0
LINE
  8
0
 10
123.742
 11
124.206
 20
44.183
 21
44.046
  0
LINE
  8
0
 10
124.206
 11
124.613
 20
44.046
 21
43.785
  0
LINE
  8
0
 10
124.613
 11
124.93
 20
43.785
 21
43.419
  0
LINE
  8
0
 10
124.93
 11
125.131
 20
43.419
 21
42.979
  0
LINE
  8
0
 10
125.131
 11
125.2
 20
42.979
 21
42.5
  0
LINE
  8
0
 10
125.2
 11
125.131
 20
42.5
 21
42.021
  0
LINE
  8
0
 10
125.131
 11
124.93
 20
42.021
 21
41.581
  0
LINE
  8
0
 10
124.93
 11
124.613
 20
41.581
 21
41.215
  0
LINE
  8
0
 10
124.613
 11
124.206
 20
41.215
 21
40.954
  0
LINE
  8
0
 10
124.206
 11
123.742
 20
40.954
 21
40.817
  0
LINE
  8
0
 10
123.742
 11
123.258
 20
40.817
 21
40.817
  0
LINE
  8
0
 10
123.258
 11
122.794
 20
40.817
 21
40.954
  0
LINE
  8
0
 10
122.794
 11
122.387
 20
40.954
 21
41.215
  0
LINE
  8
0
 10
122.387
 11
122.07
 20
41.215
 21
41.581
  0
LINE
  8
0
 10
122.07
 11
121.869
 20
41.581
 21
42.021
  0
LINE
  8
0
 10
121.869
 11
121.8
 20
42.021
 21
42.5
  0
ENDSEC
  0
SECTION
  2
OBJECTS
  0
DICTIONARY
  0
ENDSEC
  0
EOF
