  0
SECTION
  2
BLOCKS
  0
ENDSEC
  0
SECTION
  2
ENTITIES
  0
LINE
  8
0
 10
12.612
 11
12.612
 20
-225.243
 21
-224.757
  0
LINE
  8
0
 10
12.612
 11
12.71
 20
-224.757
 21
-224.282
  0
LINE
  8
0
 10
12.71
 11
12.902
 20
-224.282
 21
-223.835
  0
LINE
  8
0
 10
12.902
 11
13.179
 20
-223.835
 21
-223.437
  0
LINE
  8
0
 10
13.179
 11
13.531
 20
-223.437
 21
-223.102
  0
LINE
  8
0
 10
13.531
 11
13.943
 20
-223.102
 21
-222.845
  0
LINE
  8
0
 10
13.943
 11
14.398
 20
-222.845
 21
-222.677
  0
LINE
  8
0
 10
14.398
 11
14.878
 20
-222.677
 21
-222.603
  0
LINE
  8
0
 10
14.878
 11
15.363
 20
-222.603
 21
-222.628
  0
LINE
  8
0
 10
15.363
 11
15.834
 20
-222.628
 21
-222.749
  0
LINE
  8
0
 10
15.834
 11
16.27
 20
-222.749
 21
-222.963
  0
LINE
  8
0
 10
16.27
 11
16.654
 20
-222.963
 21
-223.26
  0
LINE
  8
0
 10
16.654
 11
16.97
 20
-223.26
 21
-223.629
  0
LINE
  8
0
 10
16.97
 11
17.205
 20
-223.629
 21
-224.054
  0
LINE
  8
0
 10
17.205
 11
17.351
 20
-224.054
 21
-224.517
  0
LINE
  8
0
 10
17.351
 11
17.4
 20
-224.517
 21
-225
  0
LINE
  8
0
 10
17.4
 11
17.351
 20
-225
 21
-225.483
  0
LINE
  8
0
 10
17.351
 11
17.205
 20
-225.483
 21
-225.946
  0
LINE
  8
0
 10
17.205
 11
16.97
 20
-225.946
 21
-226.371
  0
LINE
  8
0
 10
16.97
 11
16.654
 20
-226.371
 21
-226.74
  0
LINE
  8
0
 10
16.654
 11
16.27
 20
-226.74
 21
-227.037
  0
LINE
  8
0
 10
16.27
 11
15.834
 20
-227.037
 21
-227.251
  0
LINE
  8
0
 10
15.834
 11
15.363
 20
-227.251
 21
-227.372
  0
LINE
  8
0
 10
15.363
 11
14.878
 20
-227.372
 21
-227.397
  0
LINE
  8
0
 10
14.878
 11
14.398
 20
-227.397
 21
-227.323
  0
LINE
  8
0
 10
14.398
 11
13.943
 20
-227.323
 21
-227.155
  0
LINE
  8
0
 10
13.943
 11
13.531
 20
-227.155
 21
-226.898
  0
LINE
  8
0
 10
13.531
 11
13.179
 20
-226.898
 21
-226.563
  0
LINE
  8
0
 10
13.179
 11
12.902
 20
-226.563
 21
-226.165
  0
LINE
  8
0
 10
12.902
 11
12.71
 20
-226.165
 21
-225.718
  0
LINE
  8
0
 10
12.71
 11
12.612
 20
-225.718
 21
-225.243
  0
LINE
  8
0
 10
12.612
 11
12.612
 20
-0.243
 21
0.243
  0
LINE
  8
0
 10
12.612
 11
12.71
 20
0.243
 21
0.718
  0
LINE
  8
0
 10
12.71
 11
12.902
 20
0.718
 21
1.165
  0
LINE
  8
0
 10
12.902
 11
13.179
 20
1.165
 21
1.563
  0
LINE
  8
0
 10
13.179
 11
13.531
 20
1.563
 21
1.898
  0
LINE
  8
0
 10
13.531
 11
13.943
 20
1.898
 21
2.155
  0
LINE
  8
0
 10
13.943
 11
14.398
 20
2.155
 21
2.323
  0
LINE
  8
0
 10
14.398
 11
14.878
 20
2.323
 21
2.397
  0
LINE
  8
0
 10
14.878
 11
15.363
 20
2.397
 21
2.372
  0
LINE
  8
0
 10
15.363
 11
15.834
 20
2.372
 21
2.251
  0
LINE
  8
0
 10
15.834
 11
16.27
 20
2.251
 21
2.037
  0
LINE
  8
0
 10
16.27
 11
16.654
 20
2.037
 21
1.74
  0
LINE
  8
0
 10
16.654
 11
16.97
 20
1.74
 21
1.371
  0
LINE
  8
0
 10
16.97
 11
17.205
 20
1.371
 21
0.946
  0
LINE
  8
0
 10
17.205
 11
17.351
 20
0.946
 21
0.483
  0
LINE
  8
0
 10
17.351
 11
17.4
 20
0.483
 21
0
  0
LINE
  8
0
 10
17.4
 11
17.351
 20
0
 21
-0.483
  0
LINE
  8
0
 10
17.351
 11
17.205
 20
-0.483
 21
-0.946
  0
LINE
  8
0
 10
17.205
 11
16.97
 20
-0.946
 21
-1.371
  0
LINE
  8
0
 10
16.97
 11
16.654
 20
-1.371
 21
-1.74
  0
LINE
  8
0
 10
16.654
 11
16.27
 20
-1.74
 21
-2.037
  0
LINE
  8
0
 10
16.27
 11
15.834
 20
-2.037
 21
-2.251
  0
LINE
  8
0
 10
15.834
 11
15.363
 20
-2.251
 21
-2.372
  0
LINE
  8
0
 10
15.363
 11
14.878
 20
-2.372
 21
-2.397
  0
LINE
  8
0
 10
14.878
 11
14.398
 20
-2.397
 21
-2.323
  0
LINE
  8
0
 10
14.398
 11
13.943
 20
-2.323
 21
-2.155
  0
LINE
  8
0
 10
13.943
 11
13.531
 20
-2.155
 21
-1.898
  0
LINE
  8
0
 10
13.531
 11
13.179
 20
-1.898
 21
-1.563
  0
LINE
  8
0
 10
13.179
 11
12.902
 20
-1.563
 21
-1.165
  0
LINE
  8
0
 10
12.902
 11
12.71
 20
-1.165
 21
-0.718
  0
LINE
  8
0
 10
12.71
 11
12.612
 20
-0.718
 21
-0.243
  0
LINE
  8
0
 10
12.612
 11
12.612
 20
224.757
 21
225.243
  0
LINE
  8
0
 10
12.612
 11
12.71
 20
225.243
 21
225.718
  0
LINE
  8
0
 10
12.71
 11
12.902
 20
225.718
 21
226.165
  0
LINE
  8
0
 10
12.902
 11
13.179
 20
226.165
 21
226.563
  0
LINE
  8
0
 10
13.179
 11
13.531
 20
226.563
 21
226.898
  0
LINE
  8
0
 10
13.531
 11
13.943
 20
226.898
 21
227.155
  0
LINE
  8
0
 10
13.943
 11
14.398
 20
227.155
 21
227.323
  0
LINE
  8
0
 10
14.398
 11
14.878
 20
227.323
 21
227.397
  0
LINE
  8
0
 10
14.878
 11
15.363
 20
227.397
 21
227.372
  0
LINE
  8
0
 10
15.363
 11
15.834
 20
227.372
 21
227.251
  0
LINE
  8
0
 10
15.834
 11
16.27
 20
227.251
 21
227.037
  0
LINE
  8
0
 10
16.27
 11
16.654
 20
227.037
 21
226.74
  0
LINE
  8
0
 10
16.654
 11
16.97
 20
226.74
 21
226.371
  0
LINE
  8
0
 10
16.97
 11
17.205
 20
226.371
 21
225.946
  0
LINE
  8
0
 10
17.205
 11
17.351
 20
225.946
 21
225.483
  0
LINE
  8
0
 10
17.351
 11
17.4
 20
225.483
 21
225
  0
LINE
  8
0
 10
17.4
 11
17.351
 20
225
 21
224.517
  0
LINE
  8
0
 10
17.351
 11
17.205
 20
224.517
 21
224.054
  0
LINE
  8
0
 10
17.205
 11
16.97
 20
224.054
 21
223.629
  0
LINE
  8
0
 10
16.97
 11
16.654
 20
223.629
 21
223.26
  0
LINE
  8
0
 10
16.654
 11
16.27
 20
223.26
 21
222.963
  0
LINE
  8
0
 10
16.27
 11
15.834
 20
222.963
 21
222.749
  0
LINE
  8
0
 10
15.834
 11
15.363
 20
222.749
 21
222.628
  0
LINE
  8
0
 10
15.363
 11
14.878
 20
222.628
 21
222.603
  0
LINE
  8
0
 10
14.878
 11
14.398
 20
222.603
 21
222.677
  0
LINE
  8
0
 10
14.398
 11
13.943
 20
222.677
 21
222.845
  0
LINE
  8
0
 10
13.943
 11
13.531
 20
222.845
 21
223.102
  0
LINE
  8
0
 10
13.531
 11
13.179
 20
223.102
 21
223.437
  0
LINE
  8
0
 10
13.179
 11
12.902
 20
223.437
 21
223.835
  0
LINE
  8
0
 10
12.902
 11
12.71
 20
223.835
 21
224.282
  0
LINE
  8
0
 10
12.71
 11
12.612
 20
224.282
 21
224.757
  0
LINE
  8
0
 10
-6
 11
-6
 20
-243
 21
243
  0
LINE
  8
0
 10
-6
 11
27
 20
243
 21
243
  0
LINE
  8
0
 10
27
 11
27
 20
243
 21
306
  0
LINE
  8
0
 10
27
 11
170
 20
306
 21
306
  0
LINE
  8
0
 10
170
 11
170
 20
306
 21
243
  0
LINE
  8
0
 10
170
 11
200
 20
243
 21
243
  0
LINE
  8
0
 10
200
 11
200
 20
243
 21
-243
  0
LINE
  8
0
 10
200
 11
170
 20
-243
 21
-243
  0
LINE
  8
0
 10
170
 11
170
 20
-243
 21
-300
  0
LINE
  8
0
 10
170
 11
27
 20
-300
 21
-300
  0
LINE
  8
0
 10
27
 11
27
 20
-300
 21
-243
  0
LINE
  8
0
 10
27
 11
-6
 20
-243
 21
-243
  0
LINE
  8
0
 10
42.612
 11
42.612
 20
-285.243
 21
-284.757
  0
LINE
  8
0
 10
42.612
 11
42.71
 20
-284.757
 21
-284.282
  0
LINE
  8
0
 10
42.71
 11
42.902
 20
-284.282
 21
-283.835
  0
LINE
  8
0
 10
42.902
 11
43.179
 20
-283.835
 21
-283.437
  0
LINE
  8
0
 10
43.179
 11
43.531
 20
-283.437
 21
-283.102
  0
LINE
  8
0
 10
43.531
 11
43.943
 20
-283.102
 21
-282.845
  0
LINE
  8
0
 10
43.943
 11
44.398
 20
-282.845
 21
-282.677
  0
LINE
  8
0
 10
44.398
 11
44.878
 20
-282.677
 21
-282.603
  0
LINE
  8
0
 10
44.878
 11
45.363
 20
-282.603
 21
-282.628
  0
LINE
  8
0
 10
45.363
 11
45.834
 20
-282.628
 21
-282.749
  0
LINE
  8
0
 10
45.834
 11
46.27
 20
-282.749
 21
-282.963
  0
LINE
  8
0
 10
46.27
 11
46.654
 20
-282.963
 21
-283.26
  0
LINE
  8
0
 10
46.654
 11
46.97
 20
-283.26
 21
-283.629
  0
LINE
  8
0
 10
46.97
 11
47.205
 20
-283.629
 21
-284.054
  0
LINE
  8
0
 10
47.205
 11
47.351
 20
-284.054
 21
-284.517
  0
LINE
  8
0
 10
47.351
 11
47.4
 20
-284.517
 21
-285
  0
LINE
  8
0
 10
47.4
 11
47.351
 20
-285
 21
-285.483
  0
LINE
  8
0
 10
47.351
 11
47.205
 20
-285.483
 21
-285.946
  0
LINE
  8
0
 10
47.205
 11
46.97
 20
-285.946
 21
-286.371
  0
LINE
  8
0
 10
46.97
 11
46.654
 20
-286.371
 21
-286.74
  0
LINE
  8
0
 10
46.654
 11
46.27
 20
-286.74
 21
-287.037
  0
LINE
  8
0
 10
46.27
 11
45.834
 20
-287.037
 21
-287.251
  0
LINE
  8
0
 10
45.834
 11
45.363
 20
-287.251
 21
-287.372
  0
LINE
  8
0
 10
45.363
 11
44.878
 20
-287.372
 21
-287.397
  0
LINE
  8
0
 10
44.878
 11
44.398
 20
-287.397
 21
-287.323
  0
LINE
  8
0
 10
44.398
 11
43.943
 20
-287.323
 21
-287.155
  0
LINE
  8
0
 10
43.943
 11
43.531
 20
-287.155
 21
-286.898
  0
LINE
  8
0
 10
43.531
 11
43.179
 20
-286.898
 21
-286.563
  0
LINE
  8
0
 10
43.179
 11
42.902
 20
-286.563
 21
-286.165
  0
LINE
  8
0
 10
42.902
 11
42.71
 20
-286.165
 21
-285.718
  0
LINE
  8
0
 10
42.71
 11
42.612
 20
-285.718
 21
-285.243
  0
LINE
  8
0
 10
42.612
 11
42.612
 20
284.757
 21
285.243
  0
LINE
  8
0
 10
42.612
 11
42.71
 20
285.243
 21
285.718
  0
LINE
  8
0
 10
42.71
 11
42.902
 20
285.718
 21
286.165
  0
LINE
  8
0
 10
42.902
 11
43.179
 20
286.165
 21
286.563
  0
LINE
  8
0
 10
43.179
 11
43.531
 20
286.563
 21
286.898
  0
LINE
  8
0
 10
43.531
 11
43.943
 20
286.898
 21
287.155
  0
LINE
  8
0
 10
43.943
 11
44.398
 20
287.155
 21
287.323
  0
LINE
  8
0
 10
44.398
 11
44.878
 20
287.323
 21
287.397
  0
LINE
  8
0
 10
44.878
 11
45.363
 20
287.397
 21
287.372
  0
LINE
  8
0
 10
45.363
 11
45.834
 20
287.372
 21
287.251
  0
LINE
  8
0
 10
45.834
 11
46.27
 20
287.251
 21
287.037
  0
LINE
  8
0
 10
46.27
 11
46.654
 20
287.037
 21
286.74
  0
LINE
  8
0
 10
46.654
 11
46.97
 20
286.74
 21
286.371
  0
LINE
  8
0
 10
46.97
 11
47.205
 20
286.371
 21
285.946
  0
LINE
  8
0
 10
47.205
 11
47.351
 20
285.946
 21
285.483
  0
LINE
  8
0
 10
47.351
 11
47.4
 20
285.483
 21
285
  0
LINE
  8
0
 10
47.4
 11
47.351
 20
285
 21
284.517
  0
LINE
  8
0
 10
47.351
 11
47.205
 20
284.517
 21
284.054
  0
LINE
  8
0
 10
47.205
 11
46.97
 20
284.054
 21
283.629
  0
LINE
  8
0
 10
46.97
 11
46.654
 20
283.629
 21
283.26
  0
LINE
  8
0
 10
46.654
 11
46.27
 20
283.26
 21
282.963
  0
LINE
  8
0
 10
46.27
 11
45.834
 20
282.963
 21
282.749
  0
LINE
  8
0
 10
45.834
 11
45.363
 20
282.749
 21
282.628
  0
LINE
  8
0
 10
45.363
 11
44.878
 20
282.628
 21
282.603
  0
LINE
  8
0
 10
44.878
 11
44.398
 20
282.603
 21
282.677
  0
LINE
  8
0
 10
44.398
 11
43.943
 20
282.677
 21
282.845
  0
LINE
  8
0
 10
43.943
 11
43.531
 20
282.845
 21
283.102
  0
LINE
  8
0
 10
43.531
 11
43.179
 20
283.102
 21
283.437
  0
LINE
  8
0
 10
43.179
 11
42.902
 20
283.437
 21
283.835
  0
LINE
  8
0
 10
42.902
 11
42.71
 20
283.835
 21
284.282
  0
LINE
  8
0
 10
42.71
 11
42.612
 20
284.282
 21
284.757
  0
LINE
  8
0
 10
152.612
 11
152.612
 20
-285.243
 21
-284.757
  0
LINE
  8
0
 10
152.612
 11
152.71
 20
-284.757
 21
-284.282
  0
LINE
  8
0
 10
152.71
 11
152.902
 20
-284.282
 21
-283.835
  0
LINE
  8
0
 10
152.902
 11
153.179
 20
-283.835
 21
-283.437
  0
LINE
  8
0
 10
153.179
 11
153.531
 20
-283.437
 21
-283.102
  0
LINE
  8
0
 10
153.531
 11
153.943
 20
-283.102
 21
-282.845
  0
LINE
  8
0
 10
153.943
 11
154.398
 20
-282.845
 21
-282.677
  0
LINE
  8
0
 10
154.398
 11
154.878
 20
-282.677
 21
-282.603
  0
LINE
  8
0
 10
154.878
 11
155.363
 20
-282.603
 21
-282.628
  0
LINE
  8
0
 10
155.363
 11
155.834
 20
-282.628
 21
-282.749
  0
LINE
  8
0
 10
155.834
 11
156.27
 20
-282.749
 21
-282.963
  0
LINE
  8
0
 10
156.27
 11
156.654
 20
-282.963
 21
-283.26
  0
LINE
  8
0
 10
156.654
 11
156.97
 20
-283.26
 21
-283.629
  0
LINE
  8
0
 10
156.97
 11
157.205
 20
-283.629
 21
-284.054
  0
LINE
  8
0
 10
157.205
 11
157.351
 20
-284.054
 21
-284.517
  0
LINE
  8
0
 10
157.351
 11
157.4
 20
-284.517
 21
-285
  0
LINE
  8
0
 10
157.4
 11
157.351
 20
-285
 21
-285.483
  0
LINE
  8
0
 10
157.351
 11
157.205
 20
-285.483
 21
-285.946
  0
LINE
  8
0
 10
157.205
 11
156.97
 20
-285.946
 21
-286.371
  0
LINE
  8
0
 10
156.97
 11
156.654
 20
-286.371
 21
-286.74
  0
LINE
  8
0
 10
156.654
 11
156.27
 20
-286.74
 21
-287.037
  0
LINE
  8
0
 10
156.27
 11
155.834
 20
-287.037
 21
-287.251
  0
LINE
  8
0
 10
155.834
 11
155.363
 20
-287.251
 21
-287.372
  0
LINE
  8
0
 10
155.363
 11
154.878
 20
-287.372
 21
-287.397
  0
LINE
  8
0
 10
154.878
 11
154.398
 20
-287.397
 21
-287.323
  0
LINE
  8
0
 10
154.398
 11
153.943
 20
-287.323
 21
-287.155
  0
LINE
  8
0
 10
153.943
 11
153.531
 20
-287.155
 21
-286.898
  0
LINE
  8
0
 10
153.531
 11
153.179
 20
-286.898
 21
-286.563
  0
LINE
  8
0
 10
153.179
 11
152.902
 20
-286.563
 21
-286.165
  0
LINE
  8
0
 10
152.902
 11
152.71
 20
-286.165
 21
-285.718
  0
LINE
  8
0
 10
152.71
 11
152.612
 20
-285.718
 21
-285.243
  0
LINE
  8
0
 10
152.612
 11
152.612
 20
284.757
 21
285.243
  0
LINE
  8
0
 10
152.612
 11
152.71
 20
285.243
 21
285.718
  0
LINE
  8
0
 10
152.71
 11
152.902
 20
285.718
 21
286.165
  0
LINE
  8
0
 10
152.902
 11
153.179
 20
286.165
 21
286.563
  0
LINE
  8
0
 10
153.179
 11
153.531
 20
286.563
 21
286.898
  0
LINE
  8
0
 10
153.531
 11
153.943
 20
286.898
 21
287.155
  0
LINE
  8
0
 10
153.943
 11
154.398
 20
287.155
 21
287.323
  0
LINE
  8
0
 10
154.398
 11
154.878
 20
287.323
 21
287.397
  0
LINE
  8
0
 10
154.878
 11
155.363
 20
287.397
 21
287.372
  0
LINE
  8
0
 10
155.363
 11
155.834
 20
287.372
 21
287.251
  0
LINE
  8
0
 10
155.834
 11
156.27
 20
287.251
 21
287.037
  0
LINE
  8
0
 10
156.27
 11
156.654
 20
287.037
 21
286.74
  0
LINE
  8
0
 10
156.654
 11
156.97
 20
286.74
 21
286.371
  0
LINE
  8
0
 10
156.97
 11
157.205
 20
286.371
 21
285.946
  0
LINE
  8
0
 10
157.205
 11
157.351
 20
285.946
 21
285.483
  0
LINE
  8
0
 10
157.351
 11
157.4
 20
285.483
 21
285
  0
LINE
  8
0
 10
157.4
 11
157.351
 20
285
 21
284.517
  0
LINE
  8
0
 10
157.351
 11
157.205
 20
284.517
 21
284.054
  0
LINE
  8
0
 10
157.205
 11
156.97
 20
284.054
 21
283.629
  0
LINE
  8
0
 10
156.97
 11
156.654
 20
283.629
 21
283.26
  0
LINE
  8
0
 10
156.654
 11
156.27
 20
283.26
 21
282.963
  0
LINE
  8
0
 10
156.27
 11
155.834
 20
282.963
 21
282.749
  0
LINE
  8
0
 10
155.834
 11
155.363
 20
282.749
 21
282.628
  0
LINE
  8
0
 10
155.363
 11
154.878
 20
282.628
 21
282.603
  0
LINE
  8
0
 10
154.878
 11
154.398
 20
282.603
 21
282.677
  0
LINE
  8
0
 10
154.398
 11
153.943
 20
282.677
 21
282.845
  0
LINE
  8
0
 10
153.943
 11
153.531
 20
282.845
 21
283.102
  0
LINE
  8
0
 10
153.531
 11
153.179
 20
283.102
 21
283.437
  0
LINE
  8
0
 10
153.179
 11
152.902
 20
283.437
 21
283.835
  0
LINE
  8
0
 10
152.902
 11
152.71
 20
283.835
 21
284.282
  0
LINE
  8
0
 10
152.71
 11
152.612
 20
284.282
 21
284.757
  0
ENDSEC
  0
SECTION
  2
OBJECTS
  0
DICTIONARY
  0
ENDSEC
  0
EOF
