  0
SECTION
  2
BLOCKS
  0
ENDSEC
  0
SECTION
  2
ENTITIES
  0
LINE
  8
0
 10
0.5
 11
0.5
 20
201
 21
804
  0
LINE
  8
0
 10
0.5
 11
243
 20
804
 21
804
  0
LINE
  8
0
 10
243
 11
243
 20
804
 21
802
  0
LINE
  8
0
 10
243
 11
300
 20
802
 21
802
  0
LINE
  8
0
 10
300
 11
300
 20
802
 21
769
  0
LINE
  8
0
 10
300
 11
306
 20
769
 21
769
  0
LINE
  8
0
 10
306
 11
306
 20
769
 21
230
  0
LINE
  8
0
 10
306
 11
300
 20
230
 21
230
  0
LINE
  8
0
 10
300
 11
300
 20
230
 21
203
  0
LINE
  8
0
 10
300
 11
243
 20
203
 21
203
  0
LINE
  8
0
 10
243
 11
243
 20
203
 21
201
  0
LINE
  8
0
 10
243
 11
0.5
 20
201
 21
201
  0
LINE
  8
0
 10
6.312
 11
6.312
 20
477.457
 21
477.943
  0
LINE
  8
0
 10
6.312
 11
6.41
 20
477.943
 21
478.418
  0
LINE
  8
0
 10
6.41
 11
6.602
 20
478.418
 21
478.865
  0
LINE
  8
0
 10
6.602
 11
6.879
 20
478.865
 21
479.263
  0
LINE
  8
0
 10
6.879
 11
7.231
 20
479.263
 21
479.598
  0
LINE
  8
0
 10
7.231
 11
7.643
 20
479.598
 21
479.855
  0
LINE
  8
0
 10
7.643
 11
8.098
 20
479.855
 21
480.023
  0
LINE
  8
0
 10
8.098
 11
8.578
 20
480.023
 21
480.097
  0
LINE
  8
0
 10
8.578
 11
9.063
 20
480.097
 21
480.072
  0
LINE
  8
0
 10
9.063
 11
9.534
 20
480.072
 21
479.951
  0
LINE
  8
0
 10
9.534
 11
9.97
 20
479.951
 21
479.737
  0
LINE
  8
0
 10
9.97
 11
10.354
 20
479.737
 21
479.44
  0
LINE
  8
0
 10
10.354
 11
10.67
 20
479.44
 21
479.071
  0
LINE
  8
0
 10
10.67
 11
10.905
 20
479.071
 21
478.646
  0
LINE
  8
0
 10
10.905
 11
11.051
 20
478.646
 21
478.183
  0
LINE
  8
0
 10
11.051
 11
11.1
 20
478.183
 21
477.7
  0
LINE
  8
0
 10
11.1
 11
11.051
 20
477.7
 21
477.217
  0
LINE
  8
0
 10
11.051
 11
10.905
 20
477.217
 21
476.754
  0
LINE
  8
0
 10
10.905
 11
10.67
 20
476.754
 21
476.329
  0
LINE
  8
0
 10
10.67
 11
10.354
 20
476.329
 21
475.96
  0
LINE
  8
0
 10
10.354
 11
9.97
 20
475.96
 21
475.663
  0
LINE
  8
0
 10
9.97
 11
9.534
 20
475.663
 21
475.449
  0
LINE
  8
0
 10
9.534
 11
9.063
 20
475.449
 21
475.328
  0
LINE
  8
0
 10
9.063
 11
8.578
 20
475.328
 21
475.303
  0
LINE
  8
0
 10
8.578
 11
8.098
 20
475.303
 21
475.377
  0
LINE
  8
0
 10
8.098
 11
7.643
 20
475.377
 21
475.545
  0
LINE
  8
0
 10
7.643
 11
7.231
 20
475.545
 21
475.802
  0
LINE
  8
0
 10
7.231
 11
6.879
 20
475.802
 21
476.137
  0
LINE
  8
0
 10
6.879
 11
6.602
 20
476.137
 21
476.535
  0
LINE
  8
0
 10
6.602
 11
6.41
 20
476.535
 21
476.982
  0
LINE
  8
0
 10
6.41
 11
6.312
 20
476.982
 21
477.457
  0
LINE
  8
0
 10
6.312
 11
6.312
 20
521.057
 21
521.543
  0
LINE
  8
0
 10
6.312
 11
6.41
 20
521.543
 21
522.018
  0
LINE
  8
0
 10
6.41
 11
6.602
 20
522.018
 21
522.465
  0
LINE
  8
0
 10
6.602
 11
6.879
 20
522.465
 21
522.863
  0
LINE
  8
0
 10
6.879
 11
7.231
 20
522.863
 21
523.198
  0
LINE
  8
0
 10
7.231
 11
7.643
 20
523.198
 21
523.455
  0
LINE
  8
0
 10
7.643
 11
8.098
 20
523.455
 21
523.623
  0
LINE
  8
0
 10
8.098
 11
8.578
 20
523.623
 21
523.697
  0
LINE
  8
0
 10
8.578
 11
9.063
 20
523.697
 21
523.672
  0
LINE
  8
0
 10
9.063
 11
9.534
 20
523.672
 21
523.551
  0
LINE
  8
0
 10
9.534
 11
9.97
 20
523.551
 21
523.337
  0
LINE
  8
0
 10
9.97
 11
10.354
 20
523.337
 21
523.04
  0
LINE
  8
0
 10
10.354
 11
10.67
 20
523.04
 21
522.671
  0
LINE
  8
0
 10
10.67
 11
10.905
 20
522.671
 21
522.246
  0
LINE
  8
0
 10
10.905
 11
11.051
 20
522.246
 21
521.783
  0
LINE
  8
0
 10
11.051
 11
11.1
 20
521.783
 21
521.3
  0
LINE
  8
0
 10
11.1
 11
11.051
 20
521.3
 21
520.817
  0
LINE
  8
0
 10
11.051
 11
10.905
 20
520.817
 21
520.354
  0
LINE
  8
0
 10
10.905
 11
10.67
 20
520.354
 21
519.929
  0
LINE
  8
0
 10
10.67
 11
10.354
 20
519.929
 21
519.56
  0
LINE
  8
0
 10
10.354
 11
9.97
 20
519.56
 21
519.263
  0
LINE
  8
0
 10
9.97
 11
9.534
 20
519.263
 21
519.049
  0
LINE
  8
0
 10
9.534
 11
9.063
 20
519.049
 21
518.928
  0
LINE
  8
0
 10
9.063
 11
8.578
 20
518.928
 21
518.903
  0
LINE
  8
0
 10
8.578
 11
8.098
 20
518.903
 21
518.977
  0
LINE
  8
0
 10
8.098
 11
7.643
 20
518.977
 21
519.145
  0
LINE
  8
0
 10
7.643
 11
7.231
 20
519.145
 21
519.402
  0
LINE
  8
0
 10
7.231
 11
6.879
 20
519.402
 21
519.737
  0
LINE
  8
0
 10
6.879
 11
6.602
 20
519.737
 21
520.135
  0
LINE
  8
0
 10
6.602
 11
6.41
 20
520.135
 21
520.582
  0
LINE
  8
0
 10
6.41
 11
6.312
 20
520.582
 21
521.057
  0
LINE
  8
0
 10
11.508
 11
11.508
 20
214.754
 21
215.246
  0
LINE
  8
0
 10
11.508
 11
11.568
 20
215.246
 21
215.735
  0
LINE
  8
0
 10
11.568
 11
11.688
 20
215.735
 21
216.213
  0
LINE
  8
0
 10
11.688
 11
11.866
 20
216.213
 21
216.672
  0
LINE
  8
0
 10
11.866
 11
12.099
 20
216.672
 21
217.106
  0
LINE
  8
0
 10
12.099
 11
12.384
 20
217.106
 21
217.508
  0
LINE
  8
0
 10
12.384
 11
12.715
 20
217.508
 21
217.872
  0
LINE
  8
0
 10
12.715
 11
13.089
 20
217.872
 21
218.192
  0
LINE
  8
0
 10
13.089
 11
13.5
 20
218.192
 21
218.464
  0
LINE
  8
0
 10
13.5
 11
13.941
 20
218.464
 21
218.684
  0
LINE
  8
0
 10
13.941
 11
14.405
 20
218.684
 21
218.847
  0
LINE
  8
0
 10
14.405
 11
14.886
 20
218.847
 21
218.953
  0
LINE
  8
0
 10
14.886
 11
15.377
 20
218.953
 21
218.998
  0
LINE
  8
0
 10
15.377
 11
15.869
 20
218.998
 21
218.983
  0
LINE
  8
0
 10
15.869
 11
16.356
 20
218.983
 21
218.907
  0
LINE
  8
0
 10
16.356
 11
16.829
 20
218.907
 21
218.773
  0
LINE
  8
0
 10
16.829
 11
17.283
 20
218.773
 21
218.581
  0
LINE
  8
0
 10
17.283
 11
17.709
 20
218.581
 21
218.334
  0
LINE
  8
0
 10
17.709
 11
18.102
 20
218.334
 21
218.038
  0
LINE
  8
0
 10
18.102
 11
18.456
 20
218.038
 21
217.695
  0
LINE
  8
0
 10
18.456
 11
18.765
 20
217.695
 21
217.311
  0
LINE
  8
0
 10
18.765
 11
19.024
 20
217.311
 21
216.892
  0
LINE
  8
0
 10
19.024
 11
19.23
 20
216.892
 21
216.445
  0
LINE
  8
0
 10
19.23
 11
19.379
 20
216.445
 21
215.976
  0
LINE
  8
0
 10
19.379
 11
19.47
 20
215.976
 21
215.492
  0
LINE
  8
0
 10
19.47
 11
19.5
 20
215.492
 21
215
  0
LINE
  8
0
 10
19.5
 11
19.47
 20
215
 21
214.508
  0
LINE
  8
0
 10
19.47
 11
19.379
 20
214.508
 21
214.024
  0
LINE
  8
0
 10
19.379
 11
19.23
 20
214.024
 21
213.555
  0
LINE
  8
0
 10
19.23
 11
19.024
 20
213.555
 21
213.108
  0
LINE
  8
0
 10
19.024
 11
18.765
 20
213.108
 21
212.689
  0
LINE
  8
0
 10
18.765
 11
18.456
 20
212.689
 21
212.305
  0
LINE
  8
0
 10
18.456
 11
18.102
 20
212.305
 21
211.962
  0
LINE
  8
0
 10
18.102
 11
17.709
 20
211.962
 21
211.666
  0
LINE
  8
0
 10
17.709
 11
17.283
 20
211.666
 21
211.419
  0
LINE
  8
0
 10
17.283
 11
16.829
 20
211.419
 21
211.227
  0
LINE
  8
0
 10
16.829
 11
16.356
 20
211.227
 21
211.093
  0
LINE
  8
0
 10
16.356
 11
15.869
 20
211.093
 21
211.017
  0
LINE
  8
0
 10
15.869
 11
15.377
 20
211.017
 21
211.002
  0
LINE
  8
0
 10
15.377
 11
14.886
 20
211.002
 21
211.047
  0
LINE
  8
0
 10
14.886
 11
14.405
 20
211.047
 21
211.153
  0
LINE
  8
0
 10
14.405
 11
13.941
 20
211.153
 21
211.316
  0
LINE
  8
0
 10
13.941
 11
13.5
 20
211.316
 21
211.536
  0
LINE
  8
0
 10
13.5
 11
13.089
 20
211.536
 21
211.808
  0
LINE
  8
0
 10
13.089
 11
12.715
 20
211.808
 21
212.128
  0
LINE
  8
0
 10
12.715
 11
12.384
 20
212.128
 21
212.492
  0
LINE
  8
0
 10
12.384
 11
12.099
 20
212.492
 21
212.894
  0
LINE
  8
0
 10
12.099
 11
11.866
 20
212.894
 21
213.328
  0
LINE
  8
0
 10
11.866
 11
11.688
 20
213.328
 21
213.787
  0
LINE
  8
0
 10
11.688
 11
11.568
 20
213.787
 21
214.265
  0
LINE
  8
0
 10
11.568
 11
11.508
 20
214.265
 21
214.754
  0
LINE
  8
0
 10
11.508
 11
11.508
 20
783.754
 21
784.246
  0
LINE
  8
0
 10
11.508
 11
11.568
 20
784.246
 21
784.735
  0
LINE
  8
0
 10
11.568
 11
11.688
 20
784.735
 21
785.213
  0
LINE
  8
0
 10
11.688
 11
11.866
 20
785.213
 21
785.672
  0
LINE
  8
0
 10
11.866
 11
12.099
 20
785.672
 21
786.106
  0
LINE
  8
0
 10
12.099
 11
12.384
 20
786.106
 21
786.508
  0
LINE
  8
0
 10
12.384
 11
12.715
 20
786.508
 21
786.872
  0
LINE
  8
0
 10
12.715
 11
13.089
 20
786.872
 21
787.192
  0
LINE
  8
0
 10
13.089
 11
13.5
 20
787.192
 21
787.464
  0
LINE
  8
0
 10
13.5
 11
13.941
 20
787.464
 21
787.684
  0
LINE
  8
0
 10
13.941
 11
14.405
 20
787.684
 21
787.847
  0
LINE
  8
0
 10
14.405
 11
14.886
 20
787.847
 21
787.953
  0
LINE
  8
0
 10
14.886
 11
15.377
 20
787.953
 21
787.998
  0
LINE
  8
0
 10
15.377
 11
15.869
 20
787.998
 21
787.983
  0
LINE
  8
0
 10
15.869
 11
16.356
 20
787.983
 21
787.907
  0
LINE
  8
0
 10
16.356
 11
16.829
 20
787.907
 21
787.773
  0
LINE
  8
0
 10
16.829
 11
17.283
 20
787.773
 21
787.581
  0
LINE
  8
0
 10
17.283
 11
17.709
 20
787.581
 21
787.334
  0
LINE
  8
0
 10
17.709
 11
18.102
 20
787.334
 21
787.038
  0
LINE
  8
0
 10
18.102
 11
18.456
 20
787.038
 21
786.695
  0
LINE
  8
0
 10
18.456
 11
18.765
 20
786.695
 21
786.311
  0
LINE
  8
0
 10
18.765
 11
19.024
 20
786.311
 21
785.892
  0
LINE
  8
0
 10
19.024
 11
19.23
 20
785.892
 21
785.445
  0
LINE
  8
0
 10
19.23
 11
19.379
 20
785.445
 21
784.976
  0
LINE
  8
0
 10
19.379
 11
19.47
 20
784.976
 21
784.492
  0
LINE
  8
0
 10
19.47
 11
19.5
 20
784.492
 21
784
  0
LINE
  8
0
 10
19.5
 11
19.47
 20
784
 21
783.508
  0
LINE
  8
0
 10
19.47
 11
19.379
 20
783.508
 21
783.024
  0
LINE
  8
0
 10
19.379
 11
19.23
 20
783.024
 21
782.555
  0
LINE
  8
0
 10
19.23
 11
19.024
 20
782.555
 21
782.108
  0
LINE
  8
0
 10
19.024
 11
18.765
 20
782.108
 21
781.689
  0
LINE
  8
0
 10
18.765
 11
18.456
 20
781.689
 21
781.305
  0
LINE
  8
0
 10
18.456
 11
18.102
 20
781.305
 21
780.962
  0
LINE
  8
0
 10
18.102
 11
17.709
 20
780.962
 21
780.666
  0
LINE
  8
0
 10
17.709
 11
17.283
 20
780.666
 21
780.419
  0
LINE
  8
0
 10
17.283
 11
16.829
 20
780.419
 21
780.227
  0
LINE
  8
0
 10
16.829
 11
16.356
 20
780.227
 21
780.093
  0
LINE
  8
0
 10
16.356
 11
15.869
 20
780.093
 21
780.017
  0
LINE
  8
0
 10
15.869
 11
15.377
 20
780.017
 21
780.002
  0
LINE
  8
0
 10
15.377
 11
14.886
 20
780.002
 21
780.047
  0
LINE
  8
0
 10
14.886
 11
14.405
 20
780.047
 21
780.153
  0
LINE
  8
0
 10
14.405
 11
13.941
 20
780.153
 21
780.316
  0
LINE
  8
0
 10
13.941
 11
13.5
 20
780.316
 21
780.536
  0
LINE
  8
0
 10
13.5
 11
13.089
 20
780.536
 21
780.808
  0
LINE
  8
0
 10
13.089
 11
12.715
 20
780.808
 21
781.128
  0
LINE
  8
0
 10
12.715
 11
12.384
 20
781.128
 21
781.492
  0
LINE
  8
0
 10
12.384
 11
12.099
 20
781.492
 21
781.894
  0
LINE
  8
0
 10
12.099
 11
11.866
 20
781.894
 21
782.328
  0
LINE
  8
0
 10
11.866
 11
11.688
 20
782.328
 21
782.787
  0
LINE
  8
0
 10
11.688
 11
11.568
 20
782.787
 21
783.265
  0
LINE
  8
0
 10
11.568
 11
11.508
 20
783.265
 21
783.754
  0
ENDSEC
  0
SECTION
  2
OBJECTS
  0
DICTIONARY
  0
ENDSEC
  0
EOF
