  0
SECTION
  2
BLOCKS
  0
ENDSEC
  0
SECTION
  2
ENTITIES
  0
LINE
  8
0
 10
-300
 11
-300
 20
-240
 21
240
  0
LINE
  8
0
 10
-300
 11
-240
 20
240
 21
240
  0
LINE
  8
0
 10
-240
 11
-240
 20
240
 21
300
  0
LINE
  8
0
 10
-240
 11
240
 20
300
 21
300
  0
LINE
  8
0
 10
240
 11
240
 20
300
 21
240
  0
LINE
  8
0
 10
240
 11
300
 20
240
 21
240
  0
LINE
  8
0
 10
300
 11
300
 20
240
 21
-240
  0
LINE
  8
0
 10
300
 11
240
 20
-240
 21
-240
  0
LINE
  8
0
 10
240
 11
240
 20
-240
 21
-300
  0
LINE
  8
0
 10
240
 11
-240
 20
-300
 21
-300
  0
LINE
  8
0
 10
-240
 11
-240
 20
-300
 21
-240
  0
LINE
  8
0
 10
-240
 11
-300
 20
-240
 21
-240
  0
LINE
  8
0
 10
-287.4
 11
-287.351
 20
-225
 21
-224.517
  0
LINE
  8
0
 10
-287.351
 11
-287.205
 20
-224.517
 21
-224.054
  0
LINE
  8
0
 10
-287.205
 11
-286.97
 20
-224.054
 21
-223.629
  0
LINE
  8
0
 10
-286.97
 11
-286.654
 20
-223.629
 21
-223.26
  0
LINE
  8
0
 10
-286.654
 11
-286.27
 20
-223.26
 21
-222.963
  0
LINE
  8
0
 10
-286.27
 11
-285.834
 20
-222.963
 21
-222.749
  0
LINE
  8
0
 10
-285.834
 11
-285.363
 20
-222.749
 21
-222.628
  0
LINE
  8
0
 10
-285.363
 11
-284.878
 20
-222.628
 21
-222.603
  0
LINE
  8
0
 10
-284.878
 11
-284.398
 20
-222.603
 21
-222.677
  0
LINE
  8
0
 10
-284.398
 11
-283.943
 20
-222.677
 21
-222.845
  0
LINE
  8
0
 10
-283.943
 11
-283.531
 20
-222.845
 21
-223.102
  0
LINE
  8
0
 10
-283.531
 11
-283.179
 20
-223.102
 21
-223.437
  0
LINE
  8
0
 10
-283.179
 11
-282.902
 20
-223.437
 21
-223.835
  0
LINE
  8
0
 10
-282.902
 11
-282.71
 20
-223.835
 21
-224.282
  0
LINE
  8
0
 10
-282.71
 11
-282.612
 20
-224.282
 21
-224.757
  0
LINE
  8
0
 10
-282.612
 11
-282.612
 20
-224.757
 21
-225.243
  0
LINE
  8
0
 10
-282.612
 11
-282.71
 20
-225.243
 21
-225.718
  0
LINE
  8
0
 10
-282.71
 11
-282.902
 20
-225.718
 21
-226.165
  0
LINE
  8
0
 10
-282.902
 11
-283.179
 20
-226.165
 21
-226.563
  0
LINE
  8
0
 10
-283.179
 11
-283.531
 20
-226.563
 21
-226.898
  0
LINE
  8
0
 10
-283.531
 11
-283.943
 20
-226.898
 21
-227.155
  0
LINE
  8
0
 10
-283.943
 11
-284.398
 20
-227.155
 21
-227.323
  0
LINE
  8
0
 10
-284.398
 11
-284.878
 20
-227.323
 21
-227.397
  0
LINE
  8
0
 10
-284.878
 11
-285.363
 20
-227.397
 21
-227.372
  0
LINE
  8
0
 10
-285.363
 11
-285.834
 20
-227.372
 21
-227.251
  0
LINE
  8
0
 10
-285.834
 11
-286.27
 20
-227.251
 21
-227.037
  0
LINE
  8
0
 10
-286.27
 11
-286.654
 20
-227.037
 21
-226.74
  0
LINE
  8
0
 10
-286.654
 11
-286.97
 20
-226.74
 21
-226.371
  0
LINE
  8
0
 10
-286.97
 11
-287.205
 20
-226.371
 21
-225.946
  0
LINE
  8
0
 10
-287.205
 11
-287.351
 20
-225.946
 21
-225.483
  0
LINE
  8
0
 10
-287.351
 11
-287.4
 20
-225.483
 21
-225
  0
LINE
  8
0
 10
-287.4
 11
-287.351
 20
0
 21
0.483
  0
LINE
  8
0
 10
-287.351
 11
-287.205
 20
0.483
 21
0.946
  0
LINE
  8
0
 10
-287.205
 11
-286.97
 20
0.946
 21
1.371
  0
LINE
  8
0
 10
-286.97
 11
-286.654
 20
1.371
 21
1.74
  0
LINE
  8
0
 10
-286.654
 11
-286.27
 20
1.74
 21
2.037
  0
LINE
  8
0
 10
-286.27
 11
-285.834
 20
2.037
 21
2.251
  0
LINE
  8
0
 10
-285.834
 11
-285.363
 20
2.251
 21
2.372
  0
LINE
  8
0
 10
-285.363
 11
-284.878
 20
2.372
 21
2.397
  0
LINE
  8
0
 10
-284.878
 11
-284.398
 20
2.397
 21
2.323
  0
LINE
  8
0
 10
-284.398
 11
-283.943
 20
2.323
 21
2.155
  0
LINE
  8
0
 10
-283.943
 11
-283.531
 20
2.155
 21
1.898
  0
LINE
  8
0
 10
-283.531
 11
-283.179
 20
1.898
 21
1.563
  0
LINE
  8
0
 10
-283.179
 11
-282.902
 20
1.563
 21
1.165
  0
LINE
  8
0
 10
-282.902
 11
-282.71
 20
1.165
 21
0.718
  0
LINE
  8
0
 10
-282.71
 11
-282.612
 20
0.718
 21
0.243
  0
LINE
  8
0
 10
-282.612
 11
-282.612
 20
0.243
 21
-0.243
  0
LINE
  8
0
 10
-282.612
 11
-282.71
 20
-0.243
 21
-0.718
  0
LINE
  8
0
 10
-282.71
 11
-282.902
 20
-0.718
 21
-1.165
  0
LINE
  8
0
 10
-282.902
 11
-283.179
 20
-1.165
 21
-1.563
  0
LINE
  8
0
 10
-283.179
 11
-283.531
 20
-1.563
 21
-1.898
  0
LINE
  8
0
 10
-283.531
 11
-283.943
 20
-1.898
 21
-2.155
  0
LINE
  8
0
 10
-283.943
 11
-284.398
 20
-2.155
 21
-2.323
  0
LINE
  8
0
 10
-284.398
 11
-284.878
 20
-2.323
 21
-2.397
  0
LINE
  8
0
 10
-284.878
 11
-285.363
 20
-2.397
 21
-2.372
  0
LINE
  8
0
 10
-285.363
 11
-285.834
 20
-2.372
 21
-2.251
  0
LINE
  8
0
 10
-285.834
 11
-286.27
 20
-2.251
 21
-2.037
  0
LINE
  8
0
 10
-286.27
 11
-286.654
 20
-2.037
 21
-1.74
  0
LINE
  8
0
 10
-286.654
 11
-286.97
 20
-1.74
 21
-1.371
  0
LINE
  8
0
 10
-286.97
 11
-287.205
 20
-1.371
 21
-0.946
  0
LINE
  8
0
 10
-287.205
 11
-287.351
 20
-0.946
 21
-0.483
  0
LINE
  8
0
 10
-287.351
 11
-287.4
 20
-0.483
 21
0
  0
LINE
  8
0
 10
-287.4
 11
-287.351
 20
225
 21
225.483
  0
LINE
  8
0
 10
-287.351
 11
-287.205
 20
225.483
 21
225.946
  0
LINE
  8
0
 10
-287.205
 11
-286.97
 20
225.946
 21
226.371
  0
LINE
  8
0
 10
-286.97
 11
-286.654
 20
226.371
 21
226.74
  0
LINE
  8
0
 10
-286.654
 11
-286.27
 20
226.74
 21
227.037
  0
LINE
  8
0
 10
-286.27
 11
-285.834
 20
227.037
 21
227.251
  0
LINE
  8
0
 10
-285.834
 11
-285.363
 20
227.251
 21
227.372
  0
LINE
  8
0
 10
-285.363
 11
-284.878
 20
227.372
 21
227.397
  0
LINE
  8
0
 10
-284.878
 11
-284.398
 20
227.397
 21
227.323
  0
LINE
  8
0
 10
-284.398
 11
-283.943
 20
227.323
 21
227.155
  0
LINE
  8
0
 10
-283.943
 11
-283.531
 20
227.155
 21
226.898
  0
LINE
  8
0
 10
-283.531
 11
-283.179
 20
226.898
 21
226.563
  0
LINE
  8
0
 10
-283.179
 11
-282.902
 20
226.563
 21
226.165
  0
LINE
  8
0
 10
-282.902
 11
-282.71
 20
226.165
 21
225.718
  0
LINE
  8
0
 10
-282.71
 11
-282.612
 20
225.718
 21
225.243
  0
LINE
  8
0
 10
-282.612
 11
-282.612
 20
225.243
 21
224.757
  0
LINE
  8
0
 10
-282.612
 11
-282.71
 20
224.757
 21
224.282
  0
LINE
  8
0
 10
-282.71
 11
-282.902
 20
224.282
 21
223.835
  0
LINE
  8
0
 10
-282.902
 11
-283.179
 20
223.835
 21
223.437
  0
LINE
  8
0
 10
-283.179
 11
-283.531
 20
223.437
 21
223.102
  0
LINE
  8
0
 10
-283.531
 11
-283.943
 20
223.102
 21
222.845
  0
LINE
  8
0
 10
-283.943
 11
-284.398
 20
222.845
 21
222.677
  0
LINE
  8
0
 10
-284.398
 11
-284.878
 20
222.677
 21
222.603
  0
LINE
  8
0
 10
-284.878
 11
-285.363
 20
222.603
 21
222.628
  0
LINE
  8
0
 10
-285.363
 11
-285.834
 20
222.628
 21
222.749
  0
LINE
  8
0
 10
-285.834
 11
-286.27
 20
222.749
 21
222.963
  0
LINE
  8
0
 10
-286.27
 11
-286.654
 20
222.963
 21
223.26
  0
LINE
  8
0
 10
-286.654
 11
-286.97
 20
223.26
 21
223.629
  0
LINE
  8
0
 10
-286.97
 11
-287.205
 20
223.629
 21
224.054
  0
LINE
  8
0
 10
-287.205
 11
-287.351
 20
224.054
 21
224.517
  0
LINE
  8
0
 10
-287.351
 11
-287.4
 20
224.517
 21
225
  0
LINE
  8
0
 10
-227.4
 11
-227.351
 20
-285
 21
-284.517
  0
LINE
  8
0
 10
-227.351
 11
-227.205
 20
-284.517
 21
-284.054
  0
LINE
  8
0
 10
-227.205
 11
-226.97
 20
-284.054
 21
-283.629
  0
LINE
  8
0
 10
-226.97
 11
-226.654
 20
-283.629
 21
-283.26
  0
LINE
  8
0
 10
-226.654
 11
-226.27
 20
-283.26
 21
-282.963
  0
LINE
  8
0
 10
-226.27
 11
-225.834
 20
-282.963
 21
-282.749
  0
LINE
  8
0
 10
-225.834
 11
-225.363
 20
-282.749
 21
-282.628
  0
LINE
  8
0
 10
-225.363
 11
-224.878
 20
-282.628
 21
-282.603
  0
LINE
  8
0
 10
-224.878
 11
-224.398
 20
-282.603
 21
-282.677
  0
LINE
  8
0
 10
-224.398
 11
-223.943
 20
-282.677
 21
-282.845
  0
LINE
  8
0
 10
-223.943
 11
-223.531
 20
-282.845
 21
-283.102
  0
LINE
  8
0
 10
-223.531
 11
-223.179
 20
-283.102
 21
-283.437
  0
LINE
  8
0
 10
-223.179
 11
-222.902
 20
-283.437
 21
-283.835
  0
LINE
  8
0
 10
-222.902
 11
-222.71
 20
-283.835
 21
-284.282
  0
LINE
  8
0
 10
-222.71
 11
-222.612
 20
-284.282
 21
-284.757
  0
LINE
  8
0
 10
-222.612
 11
-222.612
 20
-284.757
 21
-285.243
  0
LINE
  8
0
 10
-222.612
 11
-222.71
 20
-285.243
 21
-285.718
  0
LINE
  8
0
 10
-222.71
 11
-222.902
 20
-285.718
 21
-286.165
  0
LINE
  8
0
 10
-222.902
 11
-223.179
 20
-286.165
 21
-286.563
  0
LINE
  8
0
 10
-223.179
 11
-223.531
 20
-286.563
 21
-286.898
  0
LINE
  8
0
 10
-223.531
 11
-223.943
 20
-286.898
 21
-287.155
  0
LINE
  8
0
 10
-223.943
 11
-224.398
 20
-287.155
 21
-287.323
  0
LINE
  8
0
 10
-224.398
 11
-224.878
 20
-287.323
 21
-287.397
  0
LINE
  8
0
 10
-224.878
 11
-225.363
 20
-287.397
 21
-287.372
  0
LINE
  8
0
 10
-225.363
 11
-225.834
 20
-287.372
 21
-287.251
  0
LINE
  8
0
 10
-225.834
 11
-226.27
 20
-287.251
 21
-287.037
  0
LINE
  8
0
 10
-226.27
 11
-226.654
 20
-287.037
 21
-286.74
  0
LINE
  8
0
 10
-226.654
 11
-226.97
 20
-286.74
 21
-286.371
  0
LINE
  8
0
 10
-226.97
 11
-227.205
 20
-286.371
 21
-285.946
  0
LINE
  8
0
 10
-227.205
 11
-227.351
 20
-285.946
 21
-285.483
  0
LINE
  8
0
 10
-227.351
 11
-227.4
 20
-285.483
 21
-285
  0
LINE
  8
0
 10
-227.4
 11
-227.351
 20
285
 21
285.483
  0
LINE
  8
0
 10
-227.351
 11
-227.205
 20
285.483
 21
285.946
  0
LINE
  8
0
 10
-227.205
 11
-226.97
 20
285.946
 21
286.371
  0
LINE
  8
0
 10
-226.97
 11
-226.654
 20
286.371
 21
286.74
  0
LINE
  8
0
 10
-226.654
 11
-226.27
 20
286.74
 21
287.037
  0
LINE
  8
0
 10
-226.27
 11
-225.834
 20
287.037
 21
287.251
  0
LINE
  8
0
 10
-225.834
 11
-225.363
 20
287.251
 21
287.372
  0
LINE
  8
0
 10
-225.363
 11
-224.878
 20
287.372
 21
287.397
  0
LINE
  8
0
 10
-224.878
 11
-224.398
 20
287.397
 21
287.323
  0
LINE
  8
0
 10
-224.398
 11
-223.943
 20
287.323
 21
287.155
  0
LINE
  8
0
 10
-223.943
 11
-223.531
 20
287.155
 21
286.898
  0
LINE
  8
0
 10
-223.531
 11
-223.179
 20
286.898
 21
286.563
  0
LINE
  8
0
 10
-223.179
 11
-222.902
 20
286.563
 21
286.165
  0
LINE
  8
0
 10
-222.902
 11
-222.71
 20
286.165
 21
285.718
  0
LINE
  8
0
 10
-222.71
 11
-222.612
 20
285.718
 21
285.243
  0
LINE
  8
0
 10
-222.612
 11
-222.612
 20
285.243
 21
284.757
  0
LINE
  8
0
 10
-222.612
 11
-222.71
 20
284.757
 21
284.282
  0
LINE
  8
0
 10
-222.71
 11
-222.902
 20
284.282
 21
283.835
  0
LINE
  8
0
 10
-222.902
 11
-223.179
 20
283.835
 21
283.437
  0
LINE
  8
0
 10
-223.179
 11
-223.531
 20
283.437
 21
283.102
  0
LINE
  8
0
 10
-223.531
 11
-223.943
 20
283.102
 21
282.845
  0
LINE
  8
0
 10
-223.943
 11
-224.398
 20
282.845
 21
282.677
  0
LINE
  8
0
 10
-224.398
 11
-224.878
 20
282.677
 21
282.603
  0
LINE
  8
0
 10
-224.878
 11
-225.363
 20
282.603
 21
282.628
  0
LINE
  8
0
 10
-225.363
 11
-225.834
 20
282.628
 21
282.749
  0
LINE
  8
0
 10
-225.834
 11
-226.27
 20
282.749
 21
282.963
  0
LINE
  8
0
 10
-226.27
 11
-226.654
 20
282.963
 21
283.26
  0
LINE
  8
0
 10
-226.654
 11
-226.97
 20
283.26
 21
283.629
  0
LINE
  8
0
 10
-226.97
 11
-227.205
 20
283.629
 21
284.054
  0
LINE
  8
0
 10
-227.205
 11
-227.351
 20
284.054
 21
284.517
  0
LINE
  8
0
 10
-227.351
 11
-227.4
 20
284.517
 21
285
  0
LINE
  8
0
 10
-2.4
 11
-2.388
 20
-285
 21
-284.879
  0
LINE
  8
0
 10
-2.388
 11
-2.388
 20
-284.879
 21
-284.757
  0
LINE
  8
0
 10
-2.388
 11
-2.363
 20
-284.757
 21
-284.638
  0
LINE
  8
0
 10
-2.363
 11
-2.351
 20
-284.638
 21
-284.517
  0
LINE
  8
0
 10
-2.351
 11
-2.314
 20
-284.517
 21
-284.401
  0
LINE
  8
0
 10
-2.314
 11
-2.29
 20
-284.401
 21
-284.282
  0
LINE
  8
0
 10
-2.29
 11
-2.242
 20
-284.282
 21
-284.17
  0
LINE
  8
0
 10
-2.242
 11
-2.205
 20
-284.17
 21
-284.054
  0
LINE
  8
0
 10
-2.205
 11
-2.146
 20
-284.054
 21
-283.947
  0
LINE
  8
0
 10
-2.146
 11
-2.098
 20
-283.947
 21
-283.835
  0
LINE
  8
0
 10
-2.098
 11
-2.029
 20
-283.835
 21
-283.735
  0
LINE
  8
0
 10
-2.029
 11
-1.97
 20
-283.735
 21
-283.629
  0
LINE
  8
0
 10
-1.97
 11
-1.891
 20
-283.629
 21
-283.537
  0
LINE
  8
0
 10
-1.891
 11
-1.821
 20
-283.537
 21
-283.437
  0
LINE
  8
0
 10
-1.821
 11
-1.733
 20
-283.437
 21
-283.353
  0
LINE
  8
0
 10
-1.733
 11
-1.654
 20
-283.353
 21
-283.26
  0
LINE
  8
0
 10
-1.654
 11
-1.557
 20
-283.26
 21
-283.186
  0
LINE
  8
0
 10
-1.557
 11
-1.469
 20
-283.186
 21
-283.102
  0
LINE
  8
0
 10
-1.469
 11
-1.366
 20
-283.102
 21
-283.038
  0
LINE
  8
0
 10
-1.366
 11
-1.27
 20
-283.038
 21
-282.963
  0
LINE
  8
0
 10
-1.27
 11
-1.16
 20
-282.963
 21
-282.91
  0
LINE
  8
0
 10
-1.16
 11
-1.057
 20
-282.91
 21
-282.845
  0
LINE
  8
0
 10
-1.057
 11
-0.943
 20
-282.845
 21
-282.803
  0
LINE
  8
0
 10
-0.943
 11
-0.834
 20
-282.803
 21
-282.749
  0
LINE
  8
0
 10
-0.834
 11
-0.716
 20
-282.749
 21
-282.719
  0
LINE
  8
0
 10
-0.716
 11
-0.602
 20
-282.719
 21
-282.677
  0
LINE
  8
0
 10
-0.602
 11
-0.481
 20
-282.677
 21
-282.658
  0
LINE
  8
0
 10
-0.481
 11
-0.363
 20
-282.658
 21
-282.628
  0
LINE
  8
0
 10
-0.363
 11
-0.242
 20
-282.628
 21
-282.622
  0
LINE
  8
0
 10
-0.242
 11
-0.122
 20
-282.622
 21
-282.603
  0
LINE
  8
0
 10
-0.122
 11
0
 20
-282.603
 21
-282.609
  0
LINE
  8
0
 10
0
 11
0.122
 20
-282.609
 21
-282.603
  0
LINE
  8
0
 10
0.122
 11
0.242
 20
-282.603
 21
-282.622
  0
LINE
  8
0
 10
0.242
 11
0.363
 20
-282.622
 21
-282.628
  0
LINE
  8
0
 10
0.363
 11
0.481
 20
-282.628
 21
-282.658
  0
LINE
  8
0
 10
0.481
 11
0.602
 20
-282.658
 21
-282.677
  0
LINE
  8
0
 10
0.602
 11
0.716
 20
-282.677
 21
-282.719
  0
LINE
  8
0
 10
0.716
 11
0.834
 20
-282.719
 21
-282.749
  0
LINE
  8
0
 10
0.834
 11
0.943
 20
-282.749
 21
-282.803
  0
LINE
  8
0
 10
0.943
 11
1.057
 20
-282.803
 21
-282.845
  0
LINE
  8
0
 10
1.057
 11
1.16
 20
-282.845
 21
-282.91
  0
LINE
  8
0
 10
1.16
 11
1.27
 20
-282.91
 21
-282.963
  0
LINE
  8
0
 10
1.27
 11
1.366
 20
-282.963
 21
-283.038
  0
LINE
  8
0
 10
1.366
 11
1.469
 20
-283.038
 21
-283.102
  0
LINE
  8
0
 10
1.469
 11
1.557
 20
-283.102
 21
-283.186
  0
LINE
  8
0
 10
1.557
 11
1.654
 20
-283.186
 21
-283.26
  0
LINE
  8
0
 10
1.654
 11
1.733
 20
-283.26
 21
-283.353
  0
LINE
  8
0
 10
1.733
 11
1.821
 20
-283.353
 21
-283.437
  0
LINE
  8
0
 10
1.821
 11
1.891
 20
-283.437
 21
-283.537
  0
LINE
  8
0
 10
1.891
 11
1.97
 20
-283.537
 21
-283.629
  0
LINE
  8
0
 10
1.97
 11
2.029
 20
-283.629
 21
-283.735
  0
LINE
  8
0
 10
2.029
 11
2.098
 20
-283.735
 21
-283.835
  0
LINE
  8
0
 10
2.098
 11
2.146
 20
-283.835
 21
-283.947
  0
LINE
  8
0
 10
2.146
 11
2.205
 20
-283.947
 21
-284.054
  0
LINE
  8
0
 10
2.205
 11
2.242
 20
-284.054
 21
-284.17
  0
LINE
  8
0
 10
2.242
 11
2.29
 20
-284.17
 21
-284.282
  0
LINE
  8
0
 10
2.29
 11
2.314
 20
-284.282
 21
-284.401
  0
LINE
  8
0
 10
2.314
 11
2.351
 20
-284.401
 21
-284.517
  0
LINE
  8
0
 10
2.351
 11
2.363
 20
-284.517
 21
-284.638
  0
LINE
  8
0
 10
2.363
 11
2.388
 20
-284.638
 21
-284.757
  0
LINE
  8
0
 10
2.388
 11
2.388
 20
-284.757
 21
-284.879
  0
LINE
  8
0
 10
2.388
 11
2.4
 20
-284.879
 21
-285
  0
LINE
  8
0
 10
2.4
 11
2.388
 20
-285
 21
-285.121
  0
LINE
  8
0
 10
2.388
 11
2.388
 20
-285.121
 21
-285.243
  0
LINE
  8
0
 10
2.388
 11
2.363
 20
-285.243
 21
-285.362
  0
LINE
  8
0
 10
2.363
 11
2.351
 20
-285.362
 21
-285.483
  0
LINE
  8
0
 10
2.351
 11
2.314
 20
-285.483
 21
-285.599
  0
LINE
  8
0
 10
2.314
 11
2.29
 20
-285.599
 21
-285.718
  0
LINE
  8
0
 10
2.29
 11
2.242
 20
-285.718
 21
-285.83
  0
LINE
  8
0
 10
2.242
 11
2.205
 20
-285.83
 21
-285.946
  0
LINE
  8
0
 10
2.205
 11
2.146
 20
-285.946
 21
-286.053
  0
LINE
  8
0
 10
2.146
 11
2.098
 20
-286.053
 21
-286.165
  0
LINE
  8
0
 10
2.098
 11
2.029
 20
-286.165
 21
-286.265
  0
LINE
  8
0
 10
2.029
 11
1.97
 20
-286.265
 21
-286.371
  0
LINE
  8
0
 10
1.97
 11
1.891
 20
-286.371
 21
-286.463
  0
LINE
  8
0
 10
1.891
 11
1.821
 20
-286.463
 21
-286.563
  0
LINE
  8
0
 10
1.821
 11
1.733
 20
-286.563
 21
-286.647
  0
LINE
  8
0
 10
1.733
 11
1.654
 20
-286.647
 21
-286.74
  0
LINE
  8
0
 10
1.654
 11
1.557
 20
-286.74
 21
-286.814
  0
LINE
  8
0
 10
1.557
 11
1.469
 20
-286.814
 21
-286.898
  0
LINE
  8
0
 10
1.469
 11
1.366
 20
-286.898
 21
-286.962
  0
LINE
  8
0
 10
1.366
 11
1.27
 20
-286.962
 21
-287.037
  0
LINE
  8
0
 10
1.27
 11
1.16
 20
-287.037
 21
-287.09
  0
LINE
  8
0
 10
1.16
 11
1.057
 20
-287.09
 21
-287.155
  0
LINE
  8
0
 10
1.057
 11
0.943
 20
-287.155
 21
-287.197
  0
LINE
  8
0
 10
0.943
 11
0.834
 20
-287.197
 21
-287.251
  0
LINE
  8
0
 10
0.834
 11
0.716
 20
-287.251
 21
-287.281
  0
LINE
  8
0
 10
0.716
 11
0.602
 20
-287.281
 21
-287.323
  0
LINE
  8
0
 10
0.602
 11
0.481
 20
-287.323
 21
-287.342
  0
LINE
  8
0
 10
0.481
 11
0.363
 20
-287.342
 21
-287.372
  0
LINE
  8
0
 10
0.363
 11
0.242
 20
-287.372
 21
-287.378
  0
LINE
  8
0
 10
0.242
 11
0.122
 20
-287.378
 21
-287.397
  0
LINE
  8
0
 10
0.122
 11
0
 20
-287.397
 21
-287.391
  0
LINE
  8
0
 10
0
 11
-0.122
 20
-287.391
 21
-287.397
  0
LINE
  8
0
 10
-0.122
 11
-0.242
 20
-287.397
 21
-287.378
  0
LINE
  8
0
 10
-0.242
 11
-0.363
 20
-287.378
 21
-287.372
  0
LINE
  8
0
 10
-0.363
 11
-0.481
 20
-287.372
 21
-287.342
  0
LINE
  8
0
 10
-0.481
 11
-0.602
 20
-287.342
 21
-287.323
  0
LINE
  8
0
 10
-0.602
 11
-0.716
 20
-287.323
 21
-287.281
  0
LINE
  8
0
 10
-0.716
 11
-0.834
 20
-287.281
 21
-287.251
  0
LINE
  8
0
 10
-0.834
 11
-0.943
 20
-287.251
 21
-287.197
  0
LINE
  8
0
 10
-0.943
 11
-1.057
 20
-287.197
 21
-287.155
  0
LINE
  8
0
 10
-1.057
 11
-1.16
 20
-287.155
 21
-287.09
  0
LINE
  8
0
 10
-1.16
 11
-1.27
 20
-287.09
 21
-287.037
  0
LINE
  8
0
 10
-1.27
 11
-1.366
 20
-287.037
 21
-286.962
  0
LINE
  8
0
 10
-1.366
 11
-1.469
 20
-286.962
 21
-286.898
  0
LINE
  8
0
 10
-1.469
 11
-1.557
 20
-286.898
 21
-286.814
  0
LINE
  8
0
 10
-1.557
 11
-1.654
 20
-286.814
 21
-286.74
  0
LINE
  8
0
 10
-1.654
 11
-1.733
 20
-286.74
 21
-286.647
  0
LINE
  8
0
 10
-1.733
 11
-1.821
 20
-286.647
 21
-286.563
  0
LINE
  8
0
 10
-1.821
 11
-1.891
 20
-286.563
 21
-286.463
  0
LINE
  8
0
 10
-1.891
 11
-1.97
 20
-286.463
 21
-286.371
  0
LINE
  8
0
 10
-1.97
 11
-2.029
 20
-286.371
 21
-286.265
  0
LINE
  8
0
 10
-2.029
 11
-2.098
 20
-286.265
 21
-286.165
  0
LINE
  8
0
 10
-2.098
 11
-2.146
 20
-286.165
 21
-286.053
  0
LINE
  8
0
 10
-2.146
 11
-2.205
 20
-286.053
 21
-285.946
  0
LINE
  8
0
 10
-2.205
 11
-2.242
 20
-285.946
 21
-285.83
  0
LINE
  8
0
 10
-2.242
 11
-2.29
 20
-285.83
 21
-285.718
  0
LINE
  8
0
 10
-2.29
 11
-2.314
 20
-285.718
 21
-285.599
  0
LINE
  8
0
 10
-2.314
 11
-2.351
 20
-285.599
 21
-285.483
  0
LINE
  8
0
 10
-2.351
 11
-2.363
 20
-285.483
 21
-285.362
  0
LINE
  8
0
 10
-2.363
 11
-2.388
 20
-285.362
 21
-285.243
  0
LINE
  8
0
 10
-2.388
 11
-2.388
 20
-285.243
 21
-285.121
  0
LINE
  8
0
 10
-2.388
 11
-2.4
 20
-285.121
 21
-285
  0
LINE
  8
0
 10
-2.4
 11
-2.388
 20
285
 21
285.121
  0
LINE
  8
0
 10
-2.388
 11
-2.388
 20
285.121
 21
285.243
  0
LINE
  8
0
 10
-2.388
 11
-2.363
 20
285.243
 21
285.362
  0
LINE
  8
0
 10
-2.363
 11
-2.351
 20
285.362
 21
285.483
  0
LINE
  8
0
 10
-2.351
 11
-2.314
 20
285.483
 21
285.599
  0
LINE
  8
0
 10
-2.314
 11
-2.29
 20
285.599
 21
285.718
  0
LINE
  8
0
 10
-2.29
 11
-2.242
 20
285.718
 21
285.83
  0
LINE
  8
0
 10
-2.242
 11
-2.205
 20
285.83
 21
285.946
  0
LINE
  8
0
 10
-2.205
 11
-2.146
 20
285.946
 21
286.053
  0
LINE
  8
0
 10
-2.146
 11
-2.098
 20
286.053
 21
286.165
  0
LINE
  8
0
 10
-2.098
 11
-2.029
 20
286.165
 21
286.265
  0
LINE
  8
0
 10
-2.029
 11
-1.97
 20
286.265
 21
286.371
  0
LINE
  8
0
 10
-1.97
 11
-1.891
 20
286.371
 21
286.463
  0
LINE
  8
0
 10
-1.891
 11
-1.821
 20
286.463
 21
286.563
  0
LINE
  8
0
 10
-1.821
 11
-1.733
 20
286.563
 21
286.647
  0
LINE
  8
0
 10
-1.733
 11
-1.654
 20
286.647
 21
286.74
  0
LINE
  8
0
 10
-1.654
 11
-1.557
 20
286.74
 21
286.814
  0
LINE
  8
0
 10
-1.557
 11
-1.469
 20
286.814
 21
286.898
  0
LINE
  8
0
 10
-1.469
 11
-1.366
 20
286.898
 21
286.962
  0
LINE
  8
0
 10
-1.366
 11
-1.27
 20
286.962
 21
287.037
  0
LINE
  8
0
 10
-1.27
 11
-1.16
 20
287.037
 21
287.09
  0
LINE
  8
0
 10
-1.16
 11
-1.057
 20
287.09
 21
287.155
  0
LINE
  8
0
 10
-1.057
 11
-0.943
 20
287.155
 21
287.197
  0
LINE
  8
0
 10
-0.943
 11
-0.834
 20
287.197
 21
287.251
  0
LINE
  8
0
 10
-0.834
 11
-0.716
 20
287.251
 21
287.281
  0
LINE
  8
0
 10
-0.716
 11
-0.602
 20
287.281
 21
287.323
  0
LINE
  8
0
 10
-0.602
 11
-0.481
 20
287.323
 21
287.342
  0
LINE
  8
0
 10
-0.481
 11
-0.363
 20
287.342
 21
287.372
  0
LINE
  8
0
 10
-0.363
 11
-0.242
 20
287.372
 21
287.378
  0
LINE
  8
0
 10
-0.242
 11
-0.122
 20
287.378
 21
287.397
  0
LINE
  8
0
 10
-0.122
 11
0
 20
287.397
 21
287.391
  0
LINE
  8
0
 10
0
 11
0.122
 20
287.391
 21
287.397
  0
LINE
  8
0
 10
0.122
 11
0.242
 20
287.397
 21
287.378
  0
LINE
  8
0
 10
0.242
 11
0.363
 20
287.378
 21
287.372
  0
LINE
  8
0
 10
0.363
 11
0.481
 20
287.372
 21
287.342
  0
LINE
  8
0
 10
0.481
 11
0.602
 20
287.342
 21
287.323
  0
LINE
  8
0
 10
0.602
 11
0.716
 20
287.323
 21
287.281
  0
LINE
  8
0
 10
0.716
 11
0.834
 20
287.281
 21
287.251
  0
LINE
  8
0
 10
0.834
 11
0.943
 20
287.251
 21
287.197
  0
LINE
  8
0
 10
0.943
 11
1.057
 20
287.197
 21
287.155
  0
LINE
  8
0
 10
1.057
 11
1.16
 20
287.155
 21
287.09
  0
LINE
  8
0
 10
1.16
 11
1.27
 20
287.09
 21
287.037
  0
LINE
  8
0
 10
1.27
 11
1.366
 20
287.037
 21
286.962
  0
LINE
  8
0
 10
1.366
 11
1.469
 20
286.962
 21
286.898
  0
LINE
  8
0
 10
1.469
 11
1.557
 20
286.898
 21
286.814
  0
LINE
  8
0
 10
1.557
 11
1.654
 20
286.814
 21
286.74
  0
LINE
  8
0
 10
1.654
 11
1.733
 20
286.74
 21
286.647
  0
LINE
  8
0
 10
1.733
 11
1.821
 20
286.647
 21
286.563
  0
LINE
  8
0
 10
1.821
 11
1.891
 20
286.563
 21
286.463
  0
LINE
  8
0
 10
1.891
 11
1.97
 20
286.463
 21
286.371
  0
LINE
  8
0
 10
1.97
 11
2.029
 20
286.371
 21
286.265
  0
LINE
  8
0
 10
2.029
 11
2.098
 20
286.265
 21
286.165
  0
LINE
  8
0
 10
2.098
 11
2.146
 20
286.165
 21
286.053
  0
LINE
  8
0
 10
2.146
 11
2.205
 20
286.053
 21
285.946
  0
LINE
  8
0
 10
2.205
 11
2.242
 20
285.946
 21
285.83
  0
LINE
  8
0
 10
2.242
 11
2.29
 20
285.83
 21
285.718
  0
LINE
  8
0
 10
2.29
 11
2.314
 20
285.718
 21
285.599
  0
LINE
  8
0
 10
2.314
 11
2.351
 20
285.599
 21
285.483
  0
LINE
  8
0
 10
2.351
 11
2.363
 20
285.483
 21
285.362
  0
LINE
  8
0
 10
2.363
 11
2.388
 20
285.362
 21
285.243
  0
LINE
  8
0
 10
2.388
 11
2.388
 20
285.243
 21
285.121
  0
LINE
  8
0
 10
2.388
 11
2.4
 20
285.121
 21
285
  0
LINE
  8
0
 10
2.4
 11
2.388
 20
285
 21
284.879
  0
LINE
  8
0
 10
2.388
 11
2.388
 20
284.879
 21
284.757
  0
LINE
  8
0
 10
2.388
 11
2.363
 20
284.757
 21
284.638
  0
LINE
  8
0
 10
2.363
 11
2.351
 20
284.638
 21
284.517
  0
LINE
  8
0
 10
2.351
 11
2.314
 20
284.517
 21
284.401
  0
LINE
  8
0
 10
2.314
 11
2.29
 20
284.401
 21
284.282
  0
LINE
  8
0
 10
2.29
 11
2.242
 20
284.282
 21
284.17
  0
LINE
  8
0
 10
2.242
 11
2.205
 20
284.17
 21
284.054
  0
LINE
  8
0
 10
2.205
 11
2.146
 20
284.054
 21
283.947
  0
LINE
  8
0
 10
2.146
 11
2.098
 20
283.947
 21
283.835
  0
LINE
  8
0
 10
2.098
 11
2.029
 20
283.835
 21
283.735
  0
LINE
  8
0
 10
2.029
 11
1.97
 20
283.735
 21
283.629
  0
LINE
  8
0
 10
1.97
 11
1.891
 20
283.629
 21
283.537
  0
LINE
  8
0
 10
1.891
 11
1.821
 20
283.537
 21
283.437
  0
LINE
  8
0
 10
1.821
 11
1.733
 20
283.437
 21
283.353
  0
LINE
  8
0
 10
1.733
 11
1.654
 20
283.353
 21
283.26
  0
LINE
  8
0
 10
1.654
 11
1.557
 20
283.26
 21
283.186
  0
LINE
  8
0
 10
1.557
 11
1.469
 20
283.186
 21
283.102
  0
LINE
  8
0
 10
1.469
 11
1.366
 20
283.102
 21
283.038
  0
LINE
  8
0
 10
1.366
 11
1.27
 20
283.038
 21
282.963
  0
LINE
  8
0
 10
1.27
 11
1.16
 20
282.963
 21
282.91
  0
LINE
  8
0
 10
1.16
 11
1.057
 20
282.91
 21
282.845
  0
LINE
  8
0
 10
1.057
 11
0.943
 20
282.845
 21
282.803
  0
LINE
  8
0
 10
0.943
 11
0.834
 20
282.803
 21
282.749
  0
LINE
  8
0
 10
0.834
 11
0.716
 20
282.749
 21
282.719
  0
LINE
  8
0
 10
0.716
 11
0.602
 20
282.719
 21
282.677
  0
LINE
  8
0
 10
0.602
 11
0.481
 20
282.677
 21
282.658
  0
LINE
  8
0
 10
0.481
 11
0.363
 20
282.658
 21
282.628
  0
LINE
  8
0
 10
0.363
 11
0.242
 20
282.628
 21
282.622
  0
LINE
  8
0
 10
0.242
 11
0.122
 20
282.622
 21
282.603
  0
LINE
  8
0
 10
0.122
 11
0
 20
282.603
 21
282.609
  0
LINE
  8
0
 10
0
 11
-0.122
 20
282.609
 21
282.603
  0
LINE
  8
0
 10
-0.122
 11
-0.242
 20
282.603
 21
282.622
  0
LINE
  8
0
 10
-0.242
 11
-0.363
 20
282.622
 21
282.628
  0
LINE
  8
0
 10
-0.363
 11
-0.481
 20
282.628
 21
282.658
  0
LINE
  8
0
 10
-0.481
 11
-0.602
 20
282.658
 21
282.677
  0
LINE
  8
0
 10
-0.602
 11
-0.716
 20
282.677
 21
282.719
  0
LINE
  8
0
 10
-0.716
 11
-0.834
 20
282.719
 21
282.749
  0
LINE
  8
0
 10
-0.834
 11
-0.943
 20
282.749
 21
282.803
  0
LINE
  8
0
 10
-0.943
 11
-1.057
 20
282.803
 21
282.845
  0
LINE
  8
0
 10
-1.057
 11
-1.16
 20
282.845
 21
282.91
  0
LINE
  8
0
 10
-1.16
 11
-1.27
 20
282.91
 21
282.963
  0
LINE
  8
0
 10
-1.27
 11
-1.366
 20
282.963
 21
283.038
  0
LINE
  8
0
 10
-1.366
 11
-1.469
 20
283.038
 21
283.102
  0
LINE
  8
0
 10
-1.469
 11
-1.557
 20
283.102
 21
283.186
  0
LINE
  8
0
 10
-1.557
 11
-1.654
 20
283.186
 21
283.26
  0
LINE
  8
0
 10
-1.654
 11
-1.733
 20
283.26
 21
283.353
  0
LINE
  8
0
 10
-1.733
 11
-1.821
 20
283.353
 21
283.437
  0
LINE
  8
0
 10
-1.821
 11
-1.891
 20
283.437
 21
283.537
  0
LINE
  8
0
 10
-1.891
 11
-1.97
 20
283.537
 21
283.629
  0
LINE
  8
0
 10
-1.97
 11
-2.029
 20
283.629
 21
283.735
  0
LINE
  8
0
 10
-2.029
 11
-2.098
 20
283.735
 21
283.835
  0
LINE
  8
0
 10
-2.098
 11
-2.146
 20
283.835
 21
283.947
  0
LINE
  8
0
 10
-2.146
 11
-2.205
 20
283.947
 21
284.054
  0
LINE
  8
0
 10
-2.205
 11
-2.242
 20
284.054
 21
284.17
  0
LINE
  8
0
 10
-2.242
 11
-2.29
 20
284.17
 21
284.282
  0
LINE
  8
0
 10
-2.29
 11
-2.314
 20
284.282
 21
284.401
  0
LINE
  8
0
 10
-2.314
 11
-2.351
 20
284.401
 21
284.517
  0
LINE
  8
0
 10
-2.351
 11
-2.363
 20
284.517
 21
284.638
  0
LINE
  8
0
 10
-2.363
 11
-2.388
 20
284.638
 21
284.757
  0
LINE
  8
0
 10
-2.388
 11
-2.388
 20
284.757
 21
284.879
  0
LINE
  8
0
 10
-2.388
 11
-2.4
 20
284.879
 21
285
  0
LINE
  8
0
 10
222.612
 11
222.612
 20
-285.243
 21
-284.757
  0
LINE
  8
0
 10
222.612
 11
222.71
 20
-284.757
 21
-284.282
  0
LINE
  8
0
 10
222.71
 11
222.902
 20
-284.282
 21
-283.835
  0
LINE
  8
0
 10
222.902
 11
223.179
 20
-283.835
 21
-283.437
  0
LINE
  8
0
 10
223.179
 11
223.531
 20
-283.437
 21
-283.102
  0
LINE
  8
0
 10
223.531
 11
223.943
 20
-283.102
 21
-282.845
  0
LINE
  8
0
 10
223.943
 11
224.398
 20
-282.845
 21
-282.677
  0
LINE
  8
0
 10
224.398
 11
224.878
 20
-282.677
 21
-282.603
  0
LINE
  8
0
 10
224.878
 11
225.363
 20
-282.603
 21
-282.628
  0
LINE
  8
0
 10
225.363
 11
225.834
 20
-282.628
 21
-282.749
  0
LINE
  8
0
 10
225.834
 11
226.27
 20
-282.749
 21
-282.963
  0
LINE
  8
0
 10
226.27
 11
226.654
 20
-282.963
 21
-283.26
  0
LINE
  8
0
 10
226.654
 11
226.97
 20
-283.26
 21
-283.629
  0
LINE
  8
0
 10
226.97
 11
227.205
 20
-283.629
 21
-284.054
  0
LINE
  8
0
 10
227.205
 11
227.351
 20
-284.054
 21
-284.517
  0
LINE
  8
0
 10
227.351
 11
227.4
 20
-284.517
 21
-285
  0
LINE
  8
0
 10
227.4
 11
227.351
 20
-285
 21
-285.483
  0
LINE
  8
0
 10
227.351
 11
227.205
 20
-285.483
 21
-285.946
  0
LINE
  8
0
 10
227.205
 11
226.97
 20
-285.946
 21
-286.371
  0
LINE
  8
0
 10
226.97
 11
226.654
 20
-286.371
 21
-286.74
  0
LINE
  8
0
 10
226.654
 11
226.27
 20
-286.74
 21
-287.037
  0
LINE
  8
0
 10
226.27
 11
225.834
 20
-287.037
 21
-287.251
  0
LINE
  8
0
 10
225.834
 11
225.363
 20
-287.251
 21
-287.372
  0
LINE
  8
0
 10
225.363
 11
224.878
 20
-287.372
 21
-287.397
  0
LINE
  8
0
 10
224.878
 11
224.398
 20
-287.397
 21
-287.323
  0
LINE
  8
0
 10
224.398
 11
223.943
 20
-287.323
 21
-287.155
  0
LINE
  8
0
 10
223.943
 11
223.531
 20
-287.155
 21
-286.898
  0
LINE
  8
0
 10
223.531
 11
223.179
 20
-286.898
 21
-286.563
  0
LINE
  8
0
 10
223.179
 11
222.902
 20
-286.563
 21
-286.165
  0
LINE
  8
0
 10
222.902
 11
222.71
 20
-286.165
 21
-285.718
  0
LINE
  8
0
 10
222.71
 11
222.612
 20
-285.718
 21
-285.243
  0
LINE
  8
0
 10
222.612
 11
222.612
 20
284.757
 21
285.243
  0
LINE
  8
0
 10
222.612
 11
222.71
 20
285.243
 21
285.718
  0
LINE
  8
0
 10
222.71
 11
222.902
 20
285.718
 21
286.165
  0
LINE
  8
0
 10
222.902
 11
223.179
 20
286.165
 21
286.563
  0
LINE
  8
0
 10
223.179
 11
223.531
 20
286.563
 21
286.898
  0
LINE
  8
0
 10
223.531
 11
223.943
 20
286.898
 21
287.155
  0
LINE
  8
0
 10
223.943
 11
224.398
 20
287.155
 21
287.323
  0
LINE
  8
0
 10
224.398
 11
224.878
 20
287.323
 21
287.397
  0
LINE
  8
0
 10
224.878
 11
225.363
 20
287.397
 21
287.372
  0
LINE
  8
0
 10
225.363
 11
225.834
 20
287.372
 21
287.251
  0
LINE
  8
0
 10
225.834
 11
226.27
 20
287.251
 21
287.037
  0
LINE
  8
0
 10
226.27
 11
226.654
 20
287.037
 21
286.74
  0
LINE
  8
0
 10
226.654
 11
226.97
 20
286.74
 21
286.371
  0
LINE
  8
0
 10
226.97
 11
227.205
 20
286.371
 21
285.946
  0
LINE
  8
0
 10
227.205
 11
227.351
 20
285.946
 21
285.483
  0
LINE
  8
0
 10
227.351
 11
227.4
 20
285.483
 21
285
  0
LINE
  8
0
 10
227.4
 11
227.351
 20
285
 21
284.517
  0
LINE
  8
0
 10
227.351
 11
227.205
 20
284.517
 21
284.054
  0
LINE
  8
0
 10
227.205
 11
226.97
 20
284.054
 21
283.629
  0
LINE
  8
0
 10
226.97
 11
226.654
 20
283.629
 21
283.26
  0
LINE
  8
0
 10
226.654
 11
226.27
 20
283.26
 21
282.963
  0
LINE
  8
0
 10
226.27
 11
225.834
 20
282.963
 21
282.749
  0
LINE
  8
0
 10
225.834
 11
225.363
 20
282.749
 21
282.628
  0
LINE
  8
0
 10
225.363
 11
224.878
 20
282.628
 21
282.603
  0
LINE
  8
0
 10
224.878
 11
224.398
 20
282.603
 21
282.677
  0
LINE
  8
0
 10
224.398
 11
223.943
 20
282.677
 21
282.845
  0
LINE
  8
0
 10
223.943
 11
223.531
 20
282.845
 21
283.102
  0
LINE
  8
0
 10
223.531
 11
223.179
 20
283.102
 21
283.437
  0
LINE
  8
0
 10
223.179
 11
222.902
 20
283.437
 21
283.835
  0
LINE
  8
0
 10
222.902
 11
222.71
 20
283.835
 21
284.282
  0
LINE
  8
0
 10
222.71
 11
222.612
 20
284.282
 21
284.757
  0
LINE
  8
0
 10
282.612
 11
282.612
 20
-225.243
 21
-224.757
  0
LINE
  8
0
 10
282.612
 11
282.71
 20
-224.757
 21
-224.282
  0
LINE
  8
0
 10
282.71
 11
282.902
 20
-224.282
 21
-223.835
  0
LINE
  8
0
 10
282.902
 11
283.179
 20
-223.835
 21
-223.437
  0
LINE
  8
0
 10
283.179
 11
283.531
 20
-223.437
 21
-223.102
  0
LINE
  8
0
 10
283.531
 11
283.943
 20
-223.102
 21
-222.845
  0
LINE
  8
0
 10
283.943
 11
284.398
 20
-222.845
 21
-222.677
  0
LINE
  8
0
 10
284.398
 11
284.878
 20
-222.677
 21
-222.603
  0
LINE
  8
0
 10
284.878
 11
285.363
 20
-222.603
 21
-222.628
  0
LINE
  8
0
 10
285.363
 11
285.834
 20
-222.628
 21
-222.749
  0
LINE
  8
0
 10
285.834
 11
286.27
 20
-222.749
 21
-222.963
  0
LINE
  8
0
 10
286.27
 11
286.654
 20
-222.963
 21
-223.26
  0
LINE
  8
0
 10
286.654
 11
286.97
 20
-223.26
 21
-223.629
  0
LINE
  8
0
 10
286.97
 11
287.205
 20
-223.629
 21
-224.054
  0
LINE
  8
0
 10
287.205
 11
287.351
 20
-224.054
 21
-224.517
  0
LINE
  8
0
 10
287.351
 11
287.4
 20
-224.517
 21
-225
  0
LINE
  8
0
 10
287.4
 11
287.351
 20
-225
 21
-225.483
  0
LINE
  8
0
 10
287.351
 11
287.205
 20
-225.483
 21
-225.946
  0
LINE
  8
0
 10
287.205
 11
286.97
 20
-225.946
 21
-226.371
  0
LINE
  8
0
 10
286.97
 11
286.654
 20
-226.371
 21
-226.74
  0
LINE
  8
0
 10
286.654
 11
286.27
 20
-226.74
 21
-227.037
  0
LINE
  8
0
 10
286.27
 11
285.834
 20
-227.037
 21
-227.251
  0
LINE
  8
0
 10
285.834
 11
285.363
 20
-227.251
 21
-227.372
  0
LINE
  8
0
 10
285.363
 11
284.878
 20
-227.372
 21
-227.397
  0
LINE
  8
0
 10
284.878
 11
284.398
 20
-227.397
 21
-227.323
  0
LINE
  8
0
 10
284.398
 11
283.943
 20
-227.323
 21
-227.155
  0
LINE
  8
0
 10
283.943
 11
283.531
 20
-227.155
 21
-226.898
  0
LINE
  8
0
 10
283.531
 11
283.179
 20
-226.898
 21
-226.563
  0
LINE
  8
0
 10
283.179
 11
282.902
 20
-226.563
 21
-226.165
  0
LINE
  8
0
 10
282.902
 11
282.71
 20
-226.165
 21
-225.718
  0
LINE
  8
0
 10
282.71
 11
282.612
 20
-225.718
 21
-225.243
  0
LINE
  8
0
 10
282.612
 11
282.612
 20
-0.243
 21
0.243
  0
LINE
  8
0
 10
282.612
 11
282.71
 20
0.243
 21
0.718
  0
LINE
  8
0
 10
282.71
 11
282.902
 20
0.718
 21
1.165
  0
LINE
  8
0
 10
282.902
 11
283.179
 20
1.165
 21
1.563
  0
LINE
  8
0
 10
283.179
 11
283.531
 20
1.563
 21
1.898
  0
LINE
  8
0
 10
283.531
 11
283.943
 20
1.898
 21
2.155
  0
LINE
  8
0
 10
283.943
 11
284.398
 20
2.155
 21
2.323
  0
LINE
  8
0
 10
284.398
 11
284.878
 20
2.323
 21
2.397
  0
LINE
  8
0
 10
284.878
 11
285.363
 20
2.397
 21
2.372
  0
LINE
  8
0
 10
285.363
 11
285.834
 20
2.372
 21
2.251
  0
LINE
  8
0
 10
285.834
 11
286.27
 20
2.251
 21
2.037
  0
LINE
  8
0
 10
286.27
 11
286.654
 20
2.037
 21
1.74
  0
LINE
  8
0
 10
286.654
 11
286.97
 20
1.74
 21
1.371
  0
LINE
  8
0
 10
286.97
 11
287.205
 20
1.371
 21
0.946
  0
LINE
  8
0
 10
287.205
 11
287.351
 20
0.946
 21
0.483
  0
LINE
  8
0
 10
287.351
 11
287.4
 20
0.483
 21
0
  0
LINE
  8
0
 10
287.4
 11
287.351
 20
0
 21
-0.483
  0
LINE
  8
0
 10
287.351
 11
287.205
 20
-0.483
 21
-0.946
  0
LINE
  8
0
 10
287.205
 11
286.97
 20
-0.946
 21
-1.371
  0
LINE
  8
0
 10
286.97
 11
286.654
 20
-1.371
 21
-1.74
  0
LINE
  8
0
 10
286.654
 11
286.27
 20
-1.74
 21
-2.037
  0
LINE
  8
0
 10
286.27
 11
285.834
 20
-2.037
 21
-2.251
  0
LINE
  8
0
 10
285.834
 11
285.363
 20
-2.251
 21
-2.372
  0
LINE
  8
0
 10
285.363
 11
284.878
 20
-2.372
 21
-2.397
  0
LINE
  8
0
 10
284.878
 11
284.398
 20
-2.397
 21
-2.323
  0
LINE
  8
0
 10
284.398
 11
283.943
 20
-2.323
 21
-2.155
  0
LINE
  8
0
 10
283.943
 11
283.531
 20
-2.155
 21
-1.898
  0
LINE
  8
0
 10
283.531
 11
283.179
 20
-1.898
 21
-1.563
  0
LINE
  8
0
 10
283.179
 11
282.902
 20
-1.563
 21
-1.165
  0
LINE
  8
0
 10
282.902
 11
282.71
 20
-1.165
 21
-0.718
  0
LINE
  8
0
 10
282.71
 11
282.612
 20
-0.718
 21
-0.243
  0
LINE
  8
0
 10
282.612
 11
282.612
 20
224.757
 21
225.243
  0
LINE
  8
0
 10
282.612
 11
282.71
 20
225.243
 21
225.718
  0
LINE
  8
0
 10
282.71
 11
282.902
 20
225.718
 21
226.165
  0
LINE
  8
0
 10
282.902
 11
283.179
 20
226.165
 21
226.563
  0
LINE
  8
0
 10
283.179
 11
283.531
 20
226.563
 21
226.898
  0
LINE
  8
0
 10
283.531
 11
283.943
 20
226.898
 21
227.155
  0
LINE
  8
0
 10
283.943
 11
284.398
 20
227.155
 21
227.323
  0
LINE
  8
0
 10
284.398
 11
284.878
 20
227.323
 21
227.397
  0
LINE
  8
0
 10
284.878
 11
285.363
 20
227.397
 21
227.372
  0
LINE
  8
0
 10
285.363
 11
285.834
 20
227.372
 21
227.251
  0
LINE
  8
0
 10
285.834
 11
286.27
 20
227.251
 21
227.037
  0
LINE
  8
0
 10
286.27
 11
286.654
 20
227.037
 21
226.74
  0
LINE
  8
0
 10
286.654
 11
286.97
 20
226.74
 21
226.371
  0
LINE
  8
0
 10
286.97
 11
287.205
 20
226.371
 21
225.946
  0
LINE
  8
0
 10
287.205
 11
287.351
 20
225.946
 21
225.483
  0
LINE
  8
0
 10
287.351
 11
287.4
 20
225.483
 21
225
  0
LINE
  8
0
 10
287.4
 11
287.351
 20
225
 21
224.517
  0
LINE
  8
0
 10
287.351
 11
287.205
 20
224.517
 21
224.054
  0
LINE
  8
0
 10
287.205
 11
286.97
 20
224.054
 21
223.629
  0
LINE
  8
0
 10
286.97
 11
286.654
 20
223.629
 21
223.26
  0
LINE
  8
0
 10
286.654
 11
286.27
 20
223.26
 21
222.963
  0
LINE
  8
0
 10
286.27
 11
285.834
 20
222.963
 21
222.749
  0
LINE
  8
0
 10
285.834
 11
285.363
 20
222.749
 21
222.628
  0
LINE
  8
0
 10
285.363
 11
284.878
 20
222.628
 21
222.603
  0
LINE
  8
0
 10
284.878
 11
284.398
 20
222.603
 21
222.677
  0
LINE
  8
0
 10
284.398
 11
283.943
 20
222.677
 21
222.845
  0
LINE
  8
0
 10
283.943
 11
283.531
 20
222.845
 21
223.102
  0
LINE
  8
0
 10
283.531
 11
283.179
 20
223.102
 21
223.437
  0
LINE
  8
0
 10
283.179
 11
282.902
 20
223.437
 21
223.835
  0
LINE
  8
0
 10
282.902
 11
282.71
 20
223.835
 21
224.282
  0
LINE
  8
0
 10
282.71
 11
282.612
 20
224.282
 21
224.757
  0
ENDSEC
  0
SECTION
  2
OBJECTS
  0
DICTIONARY
  0
ENDSEC
  0
EOF
