  0
SECTION
  2
BLOCKS
  0
ENDSEC
  0
SECTION
  2
ENTITIES
  0
LINE
  8
0
 10
-306
 11
-306
 20
27
 21
170
  0
LINE
  8
0
 10
-306
 11
-243
 20
170
 21
170
  0
LINE
  8
0
 10
-243
 11
-243
 20
170
 21
200
  0
LINE
  8
0
 10
-243
 11
243
 20
200
 21
200
  0
LINE
  8
0
 10
243
 11
243
 20
200
 21
170
  0
LINE
  8
0
 10
243
 11
306
 20
170
 21
170
  0
LINE
  8
0
 10
306
 11
306
 20
170
 21
27
  0
LINE
  8
0
 10
306
 11
243
 20
27
 21
27
  0
LINE
  8
0
 10
243
 11
243
 20
27
 21
-6
  0
LINE
  8
0
 10
243
 11
-243
 20
-6
 21
-6
  0
LINE
  8
0
 10
-243
 11
-243
 20
-6
 21
27
  0
LINE
  8
0
 10
-243
 11
-306
 20
27
 21
27
  0
LINE
  8
0
 10
-287.4
 11
-287.351
 20
45
 21
45.483
  0
LINE
  8
0
 10
-287.351
 11
-287.205
 20
45.483
 21
45.946
  0
LINE
  8
0
 10
-287.205
 11
-286.97
 20
45.946
 21
46.371
  0
LINE
  8
0
 10
-286.97
 11
-286.654
 20
46.371
 21
46.74
  0
LINE
  8
0
 10
-286.654
 11
-286.27
 20
46.74
 21
47.037
  0
LINE
  8
0
 10
-286.27
 11
-285.834
 20
47.037
 21
47.251
  0
LINE
  8
0
 10
-285.834
 11
-285.363
 20
47.251
 21
47.372
  0
LINE
  8
0
 10
-285.363
 11
-284.878
 20
47.372
 21
47.397
  0
LINE
  8
0
 10
-284.878
 11
-284.398
 20
47.397
 21
47.323
  0
LINE
  8
0
 10
-284.398
 11
-283.943
 20
47.323
 21
47.155
  0
LINE
  8
0
 10
-283.943
 11
-283.531
 20
47.155
 21
46.898
  0
LINE
  8
0
 10
-283.531
 11
-283.179
 20
46.898
 21
46.563
  0
LINE
  8
0
 10
-283.179
 11
-282.902
 20
46.563
 21
46.165
  0
LINE
  8
0
 10
-282.902
 11
-282.71
 20
46.165
 21
45.718
  0
LINE
  8
0
 10
-282.71
 11
-282.612
 20
45.718
 21
45.243
  0
LINE
  8
0
 10
-282.612
 11
-282.612
 20
45.243
 21
44.757
  0
LINE
  8
0
 10
-282.612
 11
-282.71
 20
44.757
 21
44.282
  0
LINE
  8
0
 10
-282.71
 11
-282.902
 20
44.282
 21
43.835
  0
LINE
  8
0
 10
-282.902
 11
-283.179
 20
43.835
 21
43.437
  0
LINE
  8
0
 10
-283.179
 11
-283.531
 20
43.437
 21
43.102
  0
LINE
  8
0
 10
-283.531
 11
-283.943
 20
43.102
 21
42.845
  0
LINE
  8
0
 10
-283.943
 11
-284.398
 20
42.845
 21
42.677
  0
LINE
  8
0
 10
-284.398
 11
-284.878
 20
42.677
 21
42.603
  0
LINE
  8
0
 10
-284.878
 11
-285.363
 20
42.603
 21
42.628
  0
LINE
  8
0
 10
-285.363
 11
-285.834
 20
42.628
 21
42.749
  0
LINE
  8
0
 10
-285.834
 11
-286.27
 20
42.749
 21
42.963
  0
LINE
  8
0
 10
-286.27
 11
-286.654
 20
42.963
 21
43.26
  0
LINE
  8
0
 10
-286.654
 11
-286.97
 20
43.26
 21
43.629
  0
LINE
  8
0
 10
-286.97
 11
-287.205
 20
43.629
 21
44.054
  0
LINE
  8
0
 10
-287.205
 11
-287.351
 20
44.054
 21
44.517
  0
LINE
  8
0
 10
-287.351
 11
-287.4
 20
44.517
 21
45
  0
LINE
  8
0
 10
-287.4
 11
-287.351
 20
155
 21
155.483
  0
LINE
  8
0
 10
-287.351
 11
-287.205
 20
155.483
 21
155.946
  0
LINE
  8
0
 10
-287.205
 11
-286.97
 20
155.946
 21
156.371
  0
LINE
  8
0
 10
-286.97
 11
-286.654
 20
156.371
 21
156.74
  0
LINE
  8
0
 10
-286.654
 11
-286.27
 20
156.74
 21
157.037
  0
LINE
  8
0
 10
-286.27
 11
-285.834
 20
157.037
 21
157.251
  0
LINE
  8
0
 10
-285.834
 11
-285.363
 20
157.251
 21
157.372
  0
LINE
  8
0
 10
-285.363
 11
-284.878
 20
157.372
 21
157.397
  0
LINE
  8
0
 10
-284.878
 11
-284.398
 20
157.397
 21
157.323
  0
LINE
  8
0
 10
-284.398
 11
-283.943
 20
157.323
 21
157.155
  0
LINE
  8
0
 10
-283.943
 11
-283.531
 20
157.155
 21
156.898
  0
LINE
  8
0
 10
-283.531
 11
-283.179
 20
156.898
 21
156.563
  0
LINE
  8
0
 10
-283.179
 11
-282.902
 20
156.563
 21
156.165
  0
LINE
  8
0
 10
-282.902
 11
-282.71
 20
156.165
 21
155.718
  0
LINE
  8
0
 10
-282.71
 11
-282.612
 20
155.718
 21
155.243
  0
LINE
  8
0
 10
-282.612
 11
-282.612
 20
155.243
 21
154.757
  0
LINE
  8
0
 10
-282.612
 11
-282.71
 20
154.757
 21
154.282
  0
LINE
  8
0
 10
-282.71
 11
-282.902
 20
154.282
 21
153.835
  0
LINE
  8
0
 10
-282.902
 11
-283.179
 20
153.835
 21
153.437
  0
LINE
  8
0
 10
-283.179
 11
-283.531
 20
153.437
 21
153.102
  0
LINE
  8
0
 10
-283.531
 11
-283.943
 20
153.102
 21
152.845
  0
LINE
  8
0
 10
-283.943
 11
-284.398
 20
152.845
 21
152.677
  0
LINE
  8
0
 10
-284.398
 11
-284.878
 20
152.677
 21
152.603
  0
LINE
  8
0
 10
-284.878
 11
-285.363
 20
152.603
 21
152.628
  0
LINE
  8
0
 10
-285.363
 11
-285.834
 20
152.628
 21
152.749
  0
LINE
  8
0
 10
-285.834
 11
-286.27
 20
152.749
 21
152.963
  0
LINE
  8
0
 10
-286.27
 11
-286.654
 20
152.963
 21
153.26
  0
LINE
  8
0
 10
-286.654
 11
-286.97
 20
153.26
 21
153.629
  0
LINE
  8
0
 10
-286.97
 11
-287.205
 20
153.629
 21
154.054
  0
LINE
  8
0
 10
-287.205
 11
-287.351
 20
154.054
 21
154.517
  0
LINE
  8
0
 10
-287.351
 11
-287.4
 20
154.517
 21
155
  0
LINE
  8
0
 10
-227.4
 11
-227.351
 20
15
 21
15.483
  0
LINE
  8
0
 10
-227.351
 11
-227.205
 20
15.483
 21
15.946
  0
LINE
  8
0
 10
-227.205
 11
-226.97
 20
15.946
 21
16.371
  0
LINE
  8
0
 10
-226.97
 11
-226.654
 20
16.371
 21
16.74
  0
LINE
  8
0
 10
-226.654
 11
-226.27
 20
16.74
 21
17.037
  0
LINE
  8
0
 10
-226.27
 11
-225.834
 20
17.037
 21
17.251
  0
LINE
  8
0
 10
-225.834
 11
-225.363
 20
17.251
 21
17.372
  0
LINE
  8
0
 10
-225.363
 11
-224.878
 20
17.372
 21
17.397
  0
LINE
  8
0
 10
-224.878
 11
-224.398
 20
17.397
 21
17.323
  0
LINE
  8
0
 10
-224.398
 11
-223.943
 20
17.323
 21
17.155
  0
LINE
  8
0
 10
-223.943
 11
-223.531
 20
17.155
 21
16.898
  0
LINE
  8
0
 10
-223.531
 11
-223.179
 20
16.898
 21
16.563
  0
LINE
  8
0
 10
-223.179
 11
-222.902
 20
16.563
 21
16.165
  0
LINE
  8
0
 10
-222.902
 11
-222.71
 20
16.165
 21
15.718
  0
LINE
  8
0
 10
-222.71
 11
-222.612
 20
15.718
 21
15.243
  0
LINE
  8
0
 10
-222.612
 11
-222.612
 20
15.243
 21
14.757
  0
LINE
  8
0
 10
-222.612
 11
-222.71
 20
14.757
 21
14.282
  0
LINE
  8
0
 10
-222.71
 11
-222.902
 20
14.282
 21
13.835
  0
LINE
  8
0
 10
-222.902
 11
-223.179
 20
13.835
 21
13.437
  0
LINE
  8
0
 10
-223.179
 11
-223.531
 20
13.437
 21
13.102
  0
LINE
  8
0
 10
-223.531
 11
-223.943
 20
13.102
 21
12.845
  0
LINE
  8
0
 10
-223.943
 11
-224.398
 20
12.845
 21
12.677
  0
LINE
  8
0
 10
-224.398
 11
-224.878
 20
12.677
 21
12.603
  0
LINE
  8
0
 10
-224.878
 11
-225.363
 20
12.603
 21
12.628
  0
LINE
  8
0
 10
-225.363
 11
-225.834
 20
12.628
 21
12.749
  0
LINE
  8
0
 10
-225.834
 11
-226.27
 20
12.749
 21
12.963
  0
LINE
  8
0
 10
-226.27
 11
-226.654
 20
12.963
 21
13.26
  0
LINE
  8
0
 10
-226.654
 11
-226.97
 20
13.26
 21
13.629
  0
LINE
  8
0
 10
-226.97
 11
-227.205
 20
13.629
 21
14.054
  0
LINE
  8
0
 10
-227.205
 11
-227.351
 20
14.054
 21
14.517
  0
LINE
  8
0
 10
-227.351
 11
-227.4
 20
14.517
 21
15
  0
LINE
  8
0
 10
-17.2
 11
-17.151
 20
82.2
 21
82.683
  0
LINE
  8
0
 10
-17.151
 11
-17.005
 20
82.683
 21
83.146
  0
LINE
  8
0
 10
-17.005
 11
-16.77
 20
83.146
 21
83.571
  0
LINE
  8
0
 10
-16.77
 11
-16.454
 20
83.571
 21
83.94
  0
LINE
  8
0
 10
-16.454
 11
-16.07
 20
83.94
 21
84.237
  0
LINE
  8
0
 10
-16.07
 11
-15.634
 20
84.237
 21
84.451
  0
LINE
  8
0
 10
-15.634
 11
-15.163
 20
84.451
 21
84.572
  0
LINE
  8
0
 10
-15.163
 11
-14.678
 20
84.572
 21
84.597
  0
LINE
  8
0
 10
-14.678
 11
-14.198
 20
84.597
 21
84.523
  0
LINE
  8
0
 10
-14.198
 11
-13.743
 20
84.523
 21
84.355
  0
LINE
  8
0
 10
-13.743
 11
-13.331
 20
84.355
 21
84.098
  0
LINE
  8
0
 10
-13.331
 11
-12.979
 20
84.098
 21
83.763
  0
LINE
  8
0
 10
-12.979
 11
-12.702
 20
83.763
 21
83.365
  0
LINE
  8
0
 10
-12.702
 11
-12.51
 20
83.365
 21
82.918
  0
LINE
  8
0
 10
-12.51
 11
-12.412
 20
82.918
 21
82.443
  0
LINE
  8
0
 10
-12.412
 11
-12.412
 20
82.443
 21
81.957
  0
LINE
  8
0
 10
-12.412
 11
-12.51
 20
81.957
 21
81.482
  0
LINE
  8
0
 10
-12.51
 11
-12.702
 20
81.482
 21
81.035
  0
LINE
  8
0
 10
-12.702
 11
-12.979
 20
81.035
 21
80.637
  0
LINE
  8
0
 10
-12.979
 11
-13.331
 20
80.637
 21
80.302
  0
LINE
  8
0
 10
-13.331
 11
-13.743
 20
80.302
 21
80.045
  0
LINE
  8
0
 10
-13.743
 11
-14.198
 20
80.045
 21
79.877
  0
LINE
  8
0
 10
-14.198
 11
-14.678
 20
79.877
 21
79.803
  0
LINE
  8
0
 10
-14.678
 11
-15.163
 20
79.803
 21
79.828
  0
LINE
  8
0
 10
-15.163
 11
-15.634
 20
79.828
 21
79.949
  0
LINE
  8
0
 10
-15.634
 11
-16.07
 20
79.949
 21
80.163
  0
LINE
  8
0
 10
-16.07
 11
-16.454
 20
80.163
 21
80.46
  0
LINE
  8
0
 10
-16.454
 11
-16.77
 20
80.46
 21
80.829
  0
LINE
  8
0
 10
-16.77
 11
-17.005
 20
80.829
 21
81.254
  0
LINE
  8
0
 10
-17.005
 11
-17.151
 20
81.254
 21
81.717
  0
LINE
  8
0
 10
-17.151
 11
-17.2
 20
81.717
 21
82.2
  0
LINE
  8
0
 10
-17.2
 11
-17.151
 20
111.8
 21
112.283
  0
LINE
  8
0
 10
-17.151
 11
-17.005
 20
112.283
 21
112.746
  0
LINE
  8
0
 10
-17.005
 11
-16.77
 20
112.746
 21
113.171
  0
LINE
  8
0
 10
-16.77
 11
-16.454
 20
113.171
 21
113.54
  0
LINE
  8
0
 10
-16.454
 11
-16.07
 20
113.54
 21
113.837
  0
LINE
  8
0
 10
-16.07
 11
-15.634
 20
113.837
 21
114.051
  0
LINE
  8
0
 10
-15.634
 11
-15.163
 20
114.051
 21
114.172
  0
LINE
  8
0
 10
-15.163
 11
-14.678
 20
114.172
 21
114.197
  0
LINE
  8
0
 10
-14.678
 11
-14.198
 20
114.197
 21
114.123
  0
LINE
  8
0
 10
-14.198
 11
-13.743
 20
114.123
 21
113.955
  0
LINE
  8
0
 10
-13.743
 11
-13.331
 20
113.955
 21
113.698
  0
LINE
  8
0
 10
-13.331
 11
-12.979
 20
113.698
 21
113.363
  0
LINE
  8
0
 10
-12.979
 11
-12.702
 20
113.363
 21
112.965
  0
LINE
  8
0
 10
-12.702
 11
-12.51
 20
112.965
 21
112.518
  0
LINE
  8
0
 10
-12.51
 11
-12.412
 20
112.518
 21
112.043
  0
LINE
  8
0
 10
-12.412
 11
-12.412
 20
112.043
 21
111.557
  0
LINE
  8
0
 10
-12.412
 11
-12.51
 20
111.557
 21
111.082
  0
LINE
  8
0
 10
-12.51
 11
-12.702
 20
111.082
 21
110.635
  0
LINE
  8
0
 10
-12.702
 11
-12.979
 20
110.635
 21
110.237
  0
LINE
  8
0
 10
-12.979
 11
-13.331
 20
110.237
 21
109.902
  0
LINE
  8
0
 10
-13.331
 11
-13.743
 20
109.902
 21
109.645
  0
LINE
  8
0
 10
-13.743
 11
-14.198
 20
109.645
 21
109.477
  0
LINE
  8
0
 10
-14.198
 11
-14.678
 20
109.477
 21
109.403
  0
LINE
  8
0
 10
-14.678
 11
-15.163
 20
109.403
 21
109.428
  0
LINE
  8
0
 10
-15.163
 11
-15.634
 20
109.428
 21
109.549
  0
LINE
  8
0
 10
-15.634
 11
-16.07
 20
109.549
 21
109.763
  0
LINE
  8
0
 10
-16.07
 11
-16.454
 20
109.763
 21
110.06
  0
LINE
  8
0
 10
-16.454
 11
-16.77
 20
110.06
 21
110.429
  0
LINE
  8
0
 10
-16.77
 11
-17.005
 20
110.429
 21
110.854
  0
LINE
  8
0
 10
-17.005
 11
-17.151
 20
110.854
 21
111.317
  0
LINE
  8
0
 10
-17.151
 11
-17.2
 20
111.317
 21
111.8
  0
LINE
  8
0
 10
-10
 11
-9.988
 20
97
 21
97.498
  0
LINE
  8
0
 10
-9.988
 11
-9.95
 20
97.498
 21
97.996
  0
LINE
  8
0
 10
-9.95
 11
-9.888
 20
97.996
 21
98.49
  0
LINE
  8
0
 10
-9.888
 11
-9.802
 20
98.49
 21
98.981
  0
LINE
  8
0
 10
-9.802
 11
-9.691
 20
98.981
 21
99.468
  0
LINE
  8
0
 10
-9.691
 11
-9.556
 20
99.468
 21
99.948
  0
LINE
  8
0
 10
-9.556
 11
-9.397
 20
99.948
 21
100.42
  0
LINE
  8
0
 10
-9.397
 11
-9.215
 20
100.42
 21
100.884
  0
LINE
  8
0
 10
-9.215
 11
-9.01
 20
100.884
 21
101.339
  0
LINE
  8
0
 10
-9.01
 11
-8.782
 20
101.339
 21
101.783
  0
LINE
  8
0
 10
-8.782
 11
-8.533
 20
101.783
 21
102.214
  0
LINE
  8
0
 10
-8.533
 11
-8.262
 20
102.214
 21
102.633
  0
LINE
  8
0
 10
-8.262
 11
-7.971
 20
102.633
 21
103.038
  0
LINE
  8
0
 10
-7.971
 11
-7.66
 20
103.038
 21
103.428
  0
LINE
  8
0
 10
-7.66
 11
-7.331
 20
103.428
 21
103.802
  0
LINE
  8
0
 10
-7.331
 11
-6.982
 20
103.802
 21
104.159
  0
LINE
  8
0
 10
-6.982
 11
-6.617
 20
104.159
 21
104.498
  0
LINE
  8
0
 10
-6.617
 11
-6.235
 20
104.498
 21
104.818
  0
LINE
  8
0
 10
-6.235
 11
-5.837
 20
104.818
 21
105.119
  0
LINE
  8
0
 10
-5.837
 11
-5.425
 20
105.119
 21
105.4
  0
LINE
  8
0
 10
-5.425
 11
-5
 20
105.4
 21
105.66
  0
LINE
  8
0
 10
-5
 11
-4.562
 20
105.66
 21
105.899
  0
LINE
  8
0
 10
-4.562
 11
-4.113
 20
105.899
 21
106.115
  0
LINE
  8
0
 10
-4.113
 11
-3.653
 20
106.115
 21
106.309
  0
LINE
  8
0
 10
-3.653
 11
-3.185
 20
106.309
 21
106.479
  0
LINE
  8
0
 10
-3.185
 11
-2.708
 20
106.479
 21
106.626
  0
LINE
  8
0
 10
-2.708
 11
-2.225
 20
106.626
 21
106.749
  0
LINE
  8
0
 10
-2.225
 11
-1.736
 20
106.749
 21
106.848
  0
LINE
  8
0
 10
-1.736
 11
-1.243
 20
106.848
 21
106.922
  0
LINE
  8
0
 10
-1.243
 11
-0.747
 20
106.922
 21
106.972
  0
LINE
  8
0
 10
-0.747
 11
-0.249
 20
106.972
 21
106.997
  0
LINE
  8
0
 10
-0.249
 11
0.249
 20
106.997
 21
106.997
  0
LINE
  8
0
 10
0.249
 11
0.747
 20
106.997
 21
106.972
  0
LINE
  8
0
 10
0.747
 11
1.243
 20
106.972
 21
106.922
  0
LINE
  8
0
 10
1.243
 11
1.736
 20
106.922
 21
106.848
  0
LINE
  8
0
 10
1.736
 11
2.225
 20
106.848
 21
106.749
  0
LINE
  8
0
 10
2.225
 11
2.708
 20
106.749
 21
106.626
  0
LINE
  8
0
 10
2.708
 11
3.185
 20
106.626
 21
106.479
  0
LINE
  8
0
 10
3.185
 11
3.653
 20
106.479
 21
106.309
  0
LINE
  8
0
 10
3.653
 11
4.113
 20
106.309
 21
106.115
  0
LINE
  8
0
 10
4.113
 11
4.562
 20
106.115
 21
105.899
  0
LINE
  8
0
 10
4.562
 11
5
 20
105.899
 21
105.66
  0
LINE
  8
0
 10
5
 11
5.425
 20
105.66
 21
105.4
  0
LINE
  8
0
 10
5.425
 11
5.837
 20
105.4
 21
105.119
  0
LINE
  8
0
 10
5.837
 11
6.235
 20
105.119
 21
104.818
  0
LINE
  8
0
 10
6.235
 11
6.617
 20
104.818
 21
104.498
  0
LINE
  8
0
 10
6.617
 11
6.982
 20
104.498
 21
104.159
  0
LINE
  8
0
 10
6.982
 11
7.331
 20
104.159
 21
103.802
  0
LINE
  8
0
 10
7.331
 11
7.66
 20
103.802
 21
103.428
  0
LINE
  8
0
 10
7.66
 11
7.971
 20
103.428
 21
103.038
  0
LINE
  8
0
 10
7.971
 11
8.262
 20
103.038
 21
102.633
  0
LINE
  8
0
 10
8.262
 11
8.533
 20
102.633
 21
102.214
  0
LINE
  8
0
 10
8.533
 11
8.782
 20
102.214
 21
101.783
  0
LINE
  8
0
 10
8.782
 11
9.01
 20
101.783
 21
101.339
  0
LINE
  8
0
 10
9.01
 11
9.215
 20
101.339
 21
100.884
  0
LINE
  8
0
 10
9.215
 11
9.397
 20
100.884
 21
100.42
  0
LINE
  8
0
 10
9.397
 11
9.556
 20
100.42
 21
99.948
  0
LINE
  8
0
 10
9.556
 11
9.691
 20
99.948
 21
99.468
  0
LINE
  8
0
 10
9.691
 11
9.802
 20
99.468
 21
98.981
  0
LINE
  8
0
 10
9.802
 11
9.888
 20
98.981
 21
98.49
  0
LINE
  8
0
 10
9.888
 11
9.95
 20
98.49
 21
97.996
  0
LINE
  8
0
 10
9.95
 11
9.988
 20
97.996
 21
97.498
  0
LINE
  8
0
 10
9.988
 11
10
 20
97.498
 21
97
  0
LINE
  8
0
 10
10
 11
9.988
 20
97
 21
96.502
  0
LINE
  8
0
 10
9.988
 11
9.95
 20
96.502
 21
96.004
  0
LINE
  8
0
 10
9.95
 11
9.888
 20
96.004
 21
95.51
  0
LINE
  8
0
 10
9.888
 11
9.802
 20
95.51
 21
95.019
  0
LINE
  8
0
 10
9.802
 11
9.691
 20
95.019
 21
94.532
  0
LINE
  8
0
 10
9.691
 11
9.556
 20
94.532
 21
94.052
  0
LINE
  8
0
 10
9.556
 11
9.397
 20
94.052
 21
93.58
  0
LINE
  8
0
 10
9.397
 11
9.215
 20
93.58
 21
93.116
  0
LINE
  8
0
 10
9.215
 11
9.01
 20
93.116
 21
92.661
  0
LINE
  8
0
 10
9.01
 11
8.782
 20
92.661
 21
92.217
  0
LINE
  8
0
 10
8.782
 11
8.533
 20
92.217
 21
91.786
  0
LINE
  8
0
 10
8.533
 11
8.262
 20
91.786
 21
91.367
  0
LINE
  8
0
 10
8.262
 11
7.971
 20
91.367
 21
90.962
  0
LINE
  8
0
 10
7.971
 11
7.66
 20
90.962
 21
90.572
  0
LINE
  8
0
 10
7.66
 11
7.331
 20
90.572
 21
90.198
  0
LINE
  8
0
 10
7.331
 11
6.982
 20
90.198
 21
89.841
  0
LINE
  8
0
 10
6.982
 11
6.617
 20
89.841
 21
89.502
  0
LINE
  8
0
 10
6.617
 11
6.235
 20
89.502
 21
89.182
  0
LINE
  8
0
 10
6.235
 11
5.837
 20
89.182
 21
88.881
  0
LINE
  8
0
 10
5.837
 11
5.425
 20
88.881
 21
88.6
  0
LINE
  8
0
 10
5.425
 11
5
 20
88.6
 21
88.34
  0
LINE
  8
0
 10
5
 11
4.562
 20
88.34
 21
88.101
  0
LINE
  8
0
 10
4.562
 11
4.113
 20
88.101
 21
87.885
  0
LINE
  8
0
 10
4.113
 11
3.653
 20
87.885
 21
87.691
  0
LINE
  8
0
 10
3.653
 11
3.185
 20
87.691
 21
87.521
  0
LINE
  8
0
 10
3.185
 11
2.708
 20
87.521
 21
87.374
  0
LINE
  8
0
 10
2.708
 11
2.225
 20
87.374
 21
87.251
  0
LINE
  8
0
 10
2.225
 11
1.736
 20
87.251
 21
87.152
  0
LINE
  8
0
 10
1.736
 11
1.243
 20
87.152
 21
87.078
  0
LINE
  8
0
 10
1.243
 11
0.747
 20
87.078
 21
87.028
  0
LINE
  8
0
 10
0.747
 11
0.249
 20
87.028
 21
87.003
  0
LINE
  8
0
 10
0.249
 11
-0.249
 20
87.003
 21
87.003
  0
LINE
  8
0
 10
-0.249
 11
-0.747
 20
87.003
 21
87.028
  0
LINE
  8
0
 10
-0.747
 11
-1.243
 20
87.028
 21
87.078
  0
LINE
  8
0
 10
-1.243
 11
-1.736
 20
87.078
 21
87.152
  0
LINE
  8
0
 10
-1.736
 11
-2.225
 20
87.152
 21
87.251
  0
LINE
  8
0
 10
-2.225
 11
-2.708
 20
87.251
 21
87.374
  0
LINE
  8
0
 10
-2.708
 11
-3.185
 20
87.374
 21
87.521
  0
LINE
  8
0
 10
-3.185
 11
-3.653
 20
87.521
 21
87.691
  0
LINE
  8
0
 10
-3.653
 11
-4.113
 20
87.691
 21
87.885
  0
LINE
  8
0
 10
-4.113
 11
-4.562
 20
87.885
 21
88.101
  0
LINE
  8
0
 10
-4.562
 11
-5
 20
88.101
 21
88.34
  0
LINE
  8
0
 10
-5
 11
-5.425
 20
88.34
 21
88.6
  0
LINE
  8
0
 10
-5.425
 11
-5.837
 20
88.6
 21
88.881
  0
LINE
  8
0
 10
-5.837
 11
-6.235
 20
88.881
 21
89.182
  0
LINE
  8
0
 10
-6.235
 11
-6.617
 20
89.182
 21
89.502
  0
LINE
  8
0
 10
-6.617
 11
-6.982
 20
89.502
 21
89.841
  0
LINE
  8
0
 10
-6.982
 11
-7.331
 20
89.841
 21
90.198
  0
LINE
  8
0
 10
-7.331
 11
-7.66
 20
90.198
 21
90.572
  0
LINE
  8
0
 10
-7.66
 11
-7.971
 20
90.572
 21
90.962
  0
LINE
  8
0
 10
-7.971
 11
-8.262
 20
90.962
 21
91.367
  0
LINE
  8
0
 10
-8.262
 11
-8.533
 20
91.367
 21
91.786
  0
LINE
  8
0
 10
-8.533
 11
-8.782
 20
91.786
 21
92.217
  0
LINE
  8
0
 10
-8.782
 11
-9.01
 20
92.217
 21
92.661
  0
LINE
  8
0
 10
-9.01
 11
-9.215
 20
92.661
 21
93.116
  0
LINE
  8
0
 10
-9.215
 11
-9.397
 20
93.116
 21
93.58
  0
LINE
  8
0
 10
-9.397
 11
-9.556
 20
93.58
 21
94.052
  0
LINE
  8
0
 10
-9.556
 11
-9.691
 20
94.052
 21
94.532
  0
LINE
  8
0
 10
-9.691
 11
-9.802
 20
94.532
 21
95.019
  0
LINE
  8
0
 10
-9.802
 11
-9.888
 20
95.019
 21
95.51
  0
LINE
  8
0
 10
-9.888
 11
-9.95
 20
95.51
 21
96.004
  0
LINE
  8
0
 10
-9.95
 11
-9.988
 20
96.004
 21
96.502
  0
LINE
  8
0
 10
-9.988
 11
-10
 20
96.502
 21
97
  0
LINE
  8
0
 10
-2.4
 11
-2.388
 20
15
 21
15.121
  0
LINE
  8
0
 10
-2.388
 11
-2.388
 20
15.121
 21
15.243
  0
LINE
  8
0
 10
-2.388
 11
-2.363
 20
15.243
 21
15.362
  0
LINE
  8
0
 10
-2.363
 11
-2.351
 20
15.362
 21
15.483
  0
LINE
  8
0
 10
-2.351
 11
-2.314
 20
15.483
 21
15.599
  0
LINE
  8
0
 10
-2.314
 11
-2.29
 20
15.599
 21
15.718
  0
LINE
  8
0
 10
-2.29
 11
-2.242
 20
15.718
 21
15.83
  0
LINE
  8
0
 10
-2.242
 11
-2.205
 20
15.83
 21
15.946
  0
LINE
  8
0
 10
-2.205
 11
-2.146
 20
15.946
 21
16.053
  0
LINE
  8
0
 10
-2.146
 11
-2.098
 20
16.053
 21
16.165
  0
LINE
  8
0
 10
-2.098
 11
-2.029
 20
16.165
 21
16.265
  0
LINE
  8
0
 10
-2.029
 11
-1.97
 20
16.265
 21
16.371
  0
LINE
  8
0
 10
-1.97
 11
-1.891
 20
16.371
 21
16.463
  0
LINE
  8
0
 10
-1.891
 11
-1.821
 20
16.463
 21
16.563
  0
LINE
  8
0
 10
-1.821
 11
-1.733
 20
16.563
 21
16.647
  0
LINE
  8
0
 10
-1.733
 11
-1.654
 20
16.647
 21
16.74
  0
LINE
  8
0
 10
-1.654
 11
-1.557
 20
16.74
 21
16.814
  0
LINE
  8
0
 10
-1.557
 11
-1.469
 20
16.814
 21
16.898
  0
LINE
  8
0
 10
-1.469
 11
-1.366
 20
16.898
 21
16.962
  0
LINE
  8
0
 10
-1.366
 11
-1.27
 20
16.962
 21
17.037
  0
LINE
  8
0
 10
-1.27
 11
-1.16
 20
17.037
 21
17.09
  0
LINE
  8
0
 10
-1.16
 11
-1.057
 20
17.09
 21
17.155
  0
LINE
  8
0
 10
-1.057
 11
-0.943
 20
17.155
 21
17.197
  0
LINE
  8
0
 10
-0.943
 11
-0.834
 20
17.197
 21
17.251
  0
LINE
  8
0
 10
-0.834
 11
-0.716
 20
17.251
 21
17.281
  0
LINE
  8
0
 10
-0.716
 11
-0.602
 20
17.281
 21
17.323
  0
LINE
  8
0
 10
-0.602
 11
-0.481
 20
17.323
 21
17.342
  0
LINE
  8
0
 10
-0.481
 11
-0.363
 20
17.342
 21
17.372
  0
LINE
  8
0
 10
-0.363
 11
-0.242
 20
17.372
 21
17.378
  0
LINE
  8
0
 10
-0.242
 11
-0.122
 20
17.378
 21
17.397
  0
LINE
  8
0
 10
-0.122
 11
0
 20
17.397
 21
17.391
  0
LINE
  8
0
 10
0
 11
0.122
 20
17.391
 21
17.397
  0
LINE
  8
0
 10
0.122
 11
0.242
 20
17.397
 21
17.378
  0
LINE
  8
0
 10
0.242
 11
0.363
 20
17.378
 21
17.372
  0
LINE
  8
0
 10
0.363
 11
0.481
 20
17.372
 21
17.342
  0
LINE
  8
0
 10
0.481
 11
0.602
 20
17.342
 21
17.323
  0
LINE
  8
0
 10
0.602
 11
0.716
 20
17.323
 21
17.281
  0
LINE
  8
0
 10
0.716
 11
0.834
 20
17.281
 21
17.251
  0
LINE
  8
0
 10
0.834
 11
0.943
 20
17.251
 21
17.197
  0
LINE
  8
0
 10
0.943
 11
1.057
 20
17.197
 21
17.155
  0
LINE
  8
0
 10
1.057
 11
1.16
 20
17.155
 21
17.09
  0
LINE
  8
0
 10
1.16
 11
1.27
 20
17.09
 21
17.037
  0
LINE
  8
0
 10
1.27
 11
1.366
 20
17.037
 21
16.962
  0
LINE
  8
0
 10
1.366
 11
1.469
 20
16.962
 21
16.898
  0
LINE
  8
0
 10
1.469
 11
1.557
 20
16.898
 21
16.814
  0
LINE
  8
0
 10
1.557
 11
1.654
 20
16.814
 21
16.74
  0
LINE
  8
0
 10
1.654
 11
1.733
 20
16.74
 21
16.647
  0
LINE
  8
0
 10
1.733
 11
1.821
 20
16.647
 21
16.563
  0
LINE
  8
0
 10
1.821
 11
1.891
 20
16.563
 21
16.463
  0
LINE
  8
0
 10
1.891
 11
1.97
 20
16.463
 21
16.371
  0
LINE
  8
0
 10
1.97
 11
2.029
 20
16.371
 21
16.265
  0
LINE
  8
0
 10
2.029
 11
2.098
 20
16.265
 21
16.165
  0
LINE
  8
0
 10
2.098
 11
2.146
 20
16.165
 21
16.053
  0
LINE
  8
0
 10
2.146
 11
2.205
 20
16.053
 21
15.946
  0
LINE
  8
0
 10
2.205
 11
2.242
 20
15.946
 21
15.83
  0
LINE
  8
0
 10
2.242
 11
2.29
 20
15.83
 21
15.718
  0
LINE
  8
0
 10
2.29
 11
2.314
 20
15.718
 21
15.599
  0
LINE
  8
0
 10
2.314
 11
2.351
 20
15.599
 21
15.483
  0
LINE
  8
0
 10
2.351
 11
2.363
 20
15.483
 21
15.362
  0
LINE
  8
0
 10
2.363
 11
2.388
 20
15.362
 21
15.243
  0
LINE
  8
0
 10
2.388
 11
2.388
 20
15.243
 21
15.121
  0
LINE
  8
0
 10
2.388
 11
2.4
 20
15.121
 21
15
  0
LINE
  8
0
 10
2.4
 11
2.388
 20
15
 21
14.879
  0
LINE
  8
0
 10
2.388
 11
2.388
 20
14.879
 21
14.757
  0
LINE
  8
0
 10
2.388
 11
2.363
 20
14.757
 21
14.638
  0
LINE
  8
0
 10
2.363
 11
2.351
 20
14.638
 21
14.517
  0
LINE
  8
0
 10
2.351
 11
2.314
 20
14.517
 21
14.401
  0
LINE
  8
0
 10
2.314
 11
2.29
 20
14.401
 21
14.282
  0
LINE
  8
0
 10
2.29
 11
2.242
 20
14.282
 21
14.17
  0
LINE
  8
0
 10
2.242
 11
2.205
 20
14.17
 21
14.054
  0
LINE
  8
0
 10
2.205
 11
2.146
 20
14.054
 21
13.947
  0
LINE
  8
0
 10
2.146
 11
2.098
 20
13.947
 21
13.835
  0
LINE
  8
0
 10
2.098
 11
2.029
 20
13.835
 21
13.735
  0
LINE
  8
0
 10
2.029
 11
1.97
 20
13.735
 21
13.629
  0
LINE
  8
0
 10
1.97
 11
1.891
 20
13.629
 21
13.537
  0
LINE
  8
0
 10
1.891
 11
1.821
 20
13.537
 21
13.437
  0
LINE
  8
0
 10
1.821
 11
1.733
 20
13.437
 21
13.353
  0
LINE
  8
0
 10
1.733
 11
1.654
 20
13.353
 21
13.26
  0
LINE
  8
0
 10
1.654
 11
1.557
 20
13.26
 21
13.186
  0
LINE
  8
0
 10
1.557
 11
1.469
 20
13.186
 21
13.102
  0
LINE
  8
0
 10
1.469
 11
1.366
 20
13.102
 21
13.038
  0
LINE
  8
0
 10
1.366
 11
1.27
 20
13.038
 21
12.963
  0
LINE
  8
0
 10
1.27
 11
1.16
 20
12.963
 21
12.91
  0
LINE
  8
0
 10
1.16
 11
1.057
 20
12.91
 21
12.845
  0
LINE
  8
0
 10
1.057
 11
0.943
 20
12.845
 21
12.803
  0
LINE
  8
0
 10
0.943
 11
0.834
 20
12.803
 21
12.749
  0
LINE
  8
0
 10
0.834
 11
0.716
 20
12.749
 21
12.719
  0
LINE
  8
0
 10
0.716
 11
0.602
 20
12.719
 21
12.677
  0
LINE
  8
0
 10
0.602
 11
0.481
 20
12.677
 21
12.658
  0
LINE
  8
0
 10
0.481
 11
0.363
 20
12.658
 21
12.628
  0
LINE
  8
0
 10
0.363
 11
0.242
 20
12.628
 21
12.622
  0
LINE
  8
0
 10
0.242
 11
0.122
 20
12.622
 21
12.603
  0
LINE
  8
0
 10
0.122
 11
0
 20
12.603
 21
12.609
  0
LINE
  8
0
 10
0
 11
-0.122
 20
12.609
 21
12.603
  0
LINE
  8
0
 10
-0.122
 11
-0.242
 20
12.603
 21
12.622
  0
LINE
  8
0
 10
-0.242
 11
-0.363
 20
12.622
 21
12.628
  0
LINE
  8
0
 10
-0.363
 11
-0.481
 20
12.628
 21
12.658
  0
LINE
  8
0
 10
-0.481
 11
-0.602
 20
12.658
 21
12.677
  0
LINE
  8
0
 10
-0.602
 11
-0.716
 20
12.677
 21
12.719
  0
LINE
  8
0
 10
-0.716
 11
-0.834
 20
12.719
 21
12.749
  0
LINE
  8
0
 10
-0.834
 11
-0.943
 20
12.749
 21
12.803
  0
LINE
  8
0
 10
-0.943
 11
-1.057
 20
12.803
 21
12.845
  0
LINE
  8
0
 10
-1.057
 11
-1.16
 20
12.845
 21
12.91
  0
LINE
  8
0
 10
-1.16
 11
-1.27
 20
12.91
 21
12.963
  0
LINE
  8
0
 10
-1.27
 11
-1.366
 20
12.963
 21
13.038
  0
LINE
  8
0
 10
-1.366
 11
-1.469
 20
13.038
 21
13.102
  0
LINE
  8
0
 10
-1.469
 11
-1.557
 20
13.102
 21
13.186
  0
LINE
  8
0
 10
-1.557
 11
-1.654
 20
13.186
 21
13.26
  0
LINE
  8
0
 10
-1.654
 11
-1.733
 20
13.26
 21
13.353
  0
LINE
  8
0
 10
-1.733
 11
-1.821
 20
13.353
 21
13.437
  0
LINE
  8
0
 10
-1.821
 11
-1.891
 20
13.437
 21
13.537
  0
LINE
  8
0
 10
-1.891
 11
-1.97
 20
13.537
 21
13.629
  0
LINE
  8
0
 10
-1.97
 11
-2.029
 20
13.629
 21
13.735
  0
LINE
  8
0
 10
-2.029
 11
-2.098
 20
13.735
 21
13.835
  0
LINE
  8
0
 10
-2.098
 11
-2.146
 20
13.835
 21
13.947
  0
LINE
  8
0
 10
-2.146
 11
-2.205
 20
13.947
 21
14.054
  0
LINE
  8
0
 10
-2.205
 11
-2.242
 20
14.054
 21
14.17
  0
LINE
  8
0
 10
-2.242
 11
-2.29
 20
14.17
 21
14.282
  0
LINE
  8
0
 10
-2.29
 11
-2.314
 20
14.282
 21
14.401
  0
LINE
  8
0
 10
-2.314
 11
-2.351
 20
14.401
 21
14.517
  0
LINE
  8
0
 10
-2.351
 11
-2.363
 20
14.517
 21
14.638
  0
LINE
  8
0
 10
-2.363
 11
-2.388
 20
14.638
 21
14.757
  0
LINE
  8
0
 10
-2.388
 11
-2.388
 20
14.757
 21
14.879
  0
LINE
  8
0
 10
-2.388
 11
-2.4
 20
14.879
 21
15
  0
LINE
  8
0
 10
-2.4
 11
-2.388
 20
185
 21
185.121
  0
LINE
  8
0
 10
-2.388
 11
-2.388
 20
185.121
 21
185.243
  0
LINE
  8
0
 10
-2.388
 11
-2.363
 20
185.243
 21
185.362
  0
LINE
  8
0
 10
-2.363
 11
-2.351
 20
185.362
 21
185.483
  0
LINE
  8
0
 10
-2.351
 11
-2.314
 20
185.483
 21
185.599
  0
LINE
  8
0
 10
-2.314
 11
-2.29
 20
185.599
 21
185.718
  0
LINE
  8
0
 10
-2.29
 11
-2.242
 20
185.718
 21
185.83
  0
LINE
  8
0
 10
-2.242
 11
-2.205
 20
185.83
 21
185.946
  0
LINE
  8
0
 10
-2.205
 11
-2.146
 20
185.946
 21
186.053
  0
LINE
  8
0
 10
-2.146
 11
-2.098
 20
186.053
 21
186.165
  0
LINE
  8
0
 10
-2.098
 11
-2.029
 20
186.165
 21
186.265
  0
LINE
  8
0
 10
-2.029
 11
-1.97
 20
186.265
 21
186.371
  0
LINE
  8
0
 10
-1.97
 11
-1.891
 20
186.371
 21
186.463
  0
LINE
  8
0
 10
-1.891
 11
-1.821
 20
186.463
 21
186.563
  0
LINE
  8
0
 10
-1.821
 11
-1.733
 20
186.563
 21
186.647
  0
LINE
  8
0
 10
-1.733
 11
-1.654
 20
186.647
 21
186.74
  0
LINE
  8
0
 10
-1.654
 11
-1.557
 20
186.74
 21
186.814
  0
LINE
  8
0
 10
-1.557
 11
-1.469
 20
186.814
 21
186.898
  0
LINE
  8
0
 10
-1.469
 11
-1.366
 20
186.898
 21
186.962
  0
LINE
  8
0
 10
-1.366
 11
-1.27
 20
186.962
 21
187.037
  0
LINE
  8
0
 10
-1.27
 11
-1.16
 20
187.037
 21
187.09
  0
LINE
  8
0
 10
-1.16
 11
-1.057
 20
187.09
 21
187.155
  0
LINE
  8
0
 10
-1.057
 11
-0.943
 20
187.155
 21
187.197
  0
LINE
  8
0
 10
-0.943
 11
-0.834
 20
187.197
 21
187.251
  0
LINE
  8
0
 10
-0.834
 11
-0.716
 20
187.251
 21
187.281
  0
LINE
  8
0
 10
-0.716
 11
-0.602
 20
187.281
 21
187.323
  0
LINE
  8
0
 10
-0.602
 11
-0.481
 20
187.323
 21
187.342
  0
LINE
  8
0
 10
-0.481
 11
-0.363
 20
187.342
 21
187.372
  0
LINE
  8
0
 10
-0.363
 11
-0.242
 20
187.372
 21
187.378
  0
LINE
  8
0
 10
-0.242
 11
-0.122
 20
187.378
 21
187.397
  0
LINE
  8
0
 10
-0.122
 11
0
 20
187.397
 21
187.391
  0
LINE
  8
0
 10
0
 11
0.122
 20
187.391
 21
187.397
  0
LINE
  8
0
 10
0.122
 11
0.242
 20
187.397
 21
187.378
  0
LINE
  8
0
 10
0.242
 11
0.363
 20
187.378
 21
187.372
  0
LINE
  8
0
 10
0.363
 11
0.481
 20
187.372
 21
187.342
  0
LINE
  8
0
 10
0.481
 11
0.602
 20
187.342
 21
187.323
  0
LINE
  8
0
 10
0.602
 11
0.716
 20
187.323
 21
187.281
  0
LINE
  8
0
 10
0.716
 11
0.834
 20
187.281
 21
187.251
  0
LINE
  8
0
 10
0.834
 11
0.943
 20
187.251
 21
187.197
  0
LINE
  8
0
 10
0.943
 11
1.057
 20
187.197
 21
187.155
  0
LINE
  8
0
 10
1.057
 11
1.16
 20
187.155
 21
187.09
  0
LINE
  8
0
 10
1.16
 11
1.27
 20
187.09
 21
187.037
  0
LINE
  8
0
 10
1.27
 11
1.366
 20
187.037
 21
186.962
  0
LINE
  8
0
 10
1.366
 11
1.469
 20
186.962
 21
186.898
  0
LINE
  8
0
 10
1.469
 11
1.557
 20
186.898
 21
186.814
  0
LINE
  8
0
 10
1.557
 11
1.654
 20
186.814
 21
186.74
  0
LINE
  8
0
 10
1.654
 11
1.733
 20
186.74
 21
186.647
  0
LINE
  8
0
 10
1.733
 11
1.821
 20
186.647
 21
186.563
  0
LINE
  8
0
 10
1.821
 11
1.891
 20
186.563
 21
186.463
  0
LINE
  8
0
 10
1.891
 11
1.97
 20
186.463
 21
186.371
  0
LINE
  8
0
 10
1.97
 11
2.029
 20
186.371
 21
186.265
  0
LINE
  8
0
 10
2.029
 11
2.098
 20
186.265
 21
186.165
  0
LINE
  8
0
 10
2.098
 11
2.146
 20
186.165
 21
186.053
  0
LINE
  8
0
 10
2.146
 11
2.205
 20
186.053
 21
185.946
  0
LINE
  8
0
 10
2.205
 11
2.242
 20
185.946
 21
185.83
  0
LINE
  8
0
 10
2.242
 11
2.29
 20
185.83
 21
185.718
  0
LINE
  8
0
 10
2.29
 11
2.314
 20
185.718
 21
185.599
  0
LINE
  8
0
 10
2.314
 11
2.351
 20
185.599
 21
185.483
  0
LINE
  8
0
 10
2.351
 11
2.363
 20
185.483
 21
185.362
  0
LINE
  8
0
 10
2.363
 11
2.388
 20
185.362
 21
185.243
  0
LINE
  8
0
 10
2.388
 11
2.388
 20
185.243
 21
185.121
  0
LINE
  8
0
 10
2.388
 11
2.4
 20
185.121
 21
185
  0
LINE
  8
0
 10
2.4
 11
2.388
 20
185
 21
184.879
  0
LINE
  8
0
 10
2.388
 11
2.388
 20
184.879
 21
184.757
  0
LINE
  8
0
 10
2.388
 11
2.363
 20
184.757
 21
184.638
  0
LINE
  8
0
 10
2.363
 11
2.351
 20
184.638
 21
184.517
  0
LINE
  8
0
 10
2.351
 11
2.314
 20
184.517
 21
184.401
  0
LINE
  8
0
 10
2.314
 11
2.29
 20
184.401
 21
184.282
  0
LINE
  8
0
 10
2.29
 11
2.242
 20
184.282
 21
184.17
  0
LINE
  8
0
 10
2.242
 11
2.205
 20
184.17
 21
184.054
  0
LINE
  8
0
 10
2.205
 11
2.146
 20
184.054
 21
183.947
  0
LINE
  8
0
 10
2.146
 11
2.098
 20
183.947
 21
183.835
  0
LINE
  8
0
 10
2.098
 11
2.029
 20
183.835
 21
183.735
  0
LINE
  8
0
 10
2.029
 11
1.97
 20
183.735
 21
183.629
  0
LINE
  8
0
 10
1.97
 11
1.891
 20
183.629
 21
183.537
  0
LINE
  8
0
 10
1.891
 11
1.821
 20
183.537
 21
183.437
  0
LINE
  8
0
 10
1.821
 11
1.733
 20
183.437
 21
183.353
  0
LINE
  8
0
 10
1.733
 11
1.654
 20
183.353
 21
183.26
  0
LINE
  8
0
 10
1.654
 11
1.557
 20
183.26
 21
183.186
  0
LINE
  8
0
 10
1.557
 11
1.469
 20
183.186
 21
183.102
  0
LINE
  8
0
 10
1.469
 11
1.366
 20
183.102
 21
183.038
  0
LINE
  8
0
 10
1.366
 11
1.27
 20
183.038
 21
182.963
  0
LINE
  8
0
 10
1.27
 11
1.16
 20
182.963
 21
182.91
  0
LINE
  8
0
 10
1.16
 11
1.057
 20
182.91
 21
182.845
  0
LINE
  8
0
 10
1.057
 11
0.943
 20
182.845
 21
182.803
  0
LINE
  8
0
 10
0.943
 11
0.834
 20
182.803
 21
182.749
  0
LINE
  8
0
 10
0.834
 11
0.716
 20
182.749
 21
182.719
  0
LINE
  8
0
 10
0.716
 11
0.602
 20
182.719
 21
182.677
  0
LINE
  8
0
 10
0.602
 11
0.481
 20
182.677
 21
182.658
  0
LINE
  8
0
 10
0.481
 11
0.363
 20
182.658
 21
182.628
  0
LINE
  8
0
 10
0.363
 11
0.242
 20
182.628
 21
182.622
  0
LINE
  8
0
 10
0.242
 11
0.122
 20
182.622
 21
182.603
  0
LINE
  8
0
 10
0.122
 11
0
 20
182.603
 21
182.609
  0
LINE
  8
0
 10
0
 11
-0.122
 20
182.609
 21
182.603
  0
LINE
  8
0
 10
-0.122
 11
-0.242
 20
182.603
 21
182.622
  0
LINE
  8
0
 10
-0.242
 11
-0.363
 20
182.622
 21
182.628
  0
LINE
  8
0
 10
-0.363
 11
-0.481
 20
182.628
 21
182.658
  0
LINE
  8
0
 10
-0.481
 11
-0.602
 20
182.658
 21
182.677
  0
LINE
  8
0
 10
-0.602
 11
-0.716
 20
182.677
 21
182.719
  0
LINE
  8
0
 10
-0.716
 11
-0.834
 20
182.719
 21
182.749
  0
LINE
  8
0
 10
-0.834
 11
-0.943
 20
182.749
 21
182.803
  0
LINE
  8
0
 10
-0.943
 11
-1.057
 20
182.803
 21
182.845
  0
LINE
  8
0
 10
-1.057
 11
-1.16
 20
182.845
 21
182.91
  0
LINE
  8
0
 10
-1.16
 11
-1.27
 20
182.91
 21
182.963
  0
LINE
  8
0
 10
-1.27
 11
-1.366
 20
182.963
 21
183.038
  0
LINE
  8
0
 10
-1.366
 11
-1.469
 20
183.038
 21
183.102
  0
LINE
  8
0
 10
-1.469
 11
-1.557
 20
183.102
 21
183.186
  0
LINE
  8
0
 10
-1.557
 11
-1.654
 20
183.186
 21
183.26
  0
LINE
  8
0
 10
-1.654
 11
-1.733
 20
183.26
 21
183.353
  0
LINE
  8
0
 10
-1.733
 11
-1.821
 20
183.353
 21
183.437
  0
LINE
  8
0
 10
-1.821
 11
-1.891
 20
183.437
 21
183.537
  0
LINE
  8
0
 10
-1.891
 11
-1.97
 20
183.537
 21
183.629
  0
LINE
  8
0
 10
-1.97
 11
-2.029
 20
183.629
 21
183.735
  0
LINE
  8
0
 10
-2.029
 11
-2.098
 20
183.735
 21
183.835
  0
LINE
  8
0
 10
-2.098
 11
-2.146
 20
183.835
 21
183.947
  0
LINE
  8
0
 10
-2.146
 11
-2.205
 20
183.947
 21
184.054
  0
LINE
  8
0
 10
-2.205
 11
-2.242
 20
184.054
 21
184.17
  0
LINE
  8
0
 10
-2.242
 11
-2.29
 20
184.17
 21
184.282
  0
LINE
  8
0
 10
-2.29
 11
-2.314
 20
184.282
 21
184.401
  0
LINE
  8
0
 10
-2.314
 11
-2.351
 20
184.401
 21
184.517
  0
LINE
  8
0
 10
-2.351
 11
-2.363
 20
184.517
 21
184.638
  0
LINE
  8
0
 10
-2.363
 11
-2.388
 20
184.638
 21
184.757
  0
LINE
  8
0
 10
-2.388
 11
-2.388
 20
184.757
 21
184.879
  0
LINE
  8
0
 10
-2.388
 11
-2.4
 20
184.879
 21
185
  0
LINE
  8
0
 10
12.412
 11
12.412
 20
81.957
 21
82.443
  0
LINE
  8
0
 10
12.412
 11
12.51
 20
82.443
 21
82.918
  0
LINE
  8
0
 10
12.51
 11
12.702
 20
82.918
 21
83.365
  0
LINE
  8
0
 10
12.702
 11
12.979
 20
83.365
 21
83.763
  0
LINE
  8
0
 10
12.979
 11
13.331
 20
83.763
 21
84.098
  0
LINE
  8
0
 10
13.331
 11
13.743
 20
84.098
 21
84.355
  0
LINE
  8
0
 10
13.743
 11
14.198
 20
84.355
 21
84.523
  0
LINE
  8
0
 10
14.198
 11
14.678
 20
84.523
 21
84.597
  0
LINE
  8
0
 10
14.678
 11
15.163
 20
84.597
 21
84.572
  0
LINE
  8
0
 10
15.163
 11
15.634
 20
84.572
 21
84.451
  0
LINE
  8
0
 10
15.634
 11
16.07
 20
84.451
 21
84.237
  0
LINE
  8
0
 10
16.07
 11
16.454
 20
84.237
 21
83.94
  0
LINE
  8
0
 10
16.454
 11
16.77
 20
83.94
 21
83.571
  0
LINE
  8
0
 10
16.77
 11
17.005
 20
83.571
 21
83.146
  0
LINE
  8
0
 10
17.005
 11
17.151
 20
83.146
 21
82.683
  0
LINE
  8
0
 10
17.151
 11
17.2
 20
82.683
 21
82.2
  0
LINE
  8
0
 10
17.2
 11
17.151
 20
82.2
 21
81.717
  0
LINE
  8
0
 10
17.151
 11
17.005
 20
81.717
 21
81.254
  0
LINE
  8
0
 10
17.005
 11
16.77
 20
81.254
 21
80.829
  0
LINE
  8
0
 10
16.77
 11
16.454
 20
80.829
 21
80.46
  0
LINE
  8
0
 10
16.454
 11
16.07
 20
80.46
 21
80.163
  0
LINE
  8
0
 10
16.07
 11
15.634
 20
80.163
 21
79.949
  0
LINE
  8
0
 10
15.634
 11
15.163
 20
79.949
 21
79.828
  0
LINE
  8
0
 10
15.163
 11
14.678
 20
79.828
 21
79.803
  0
LINE
  8
0
 10
14.678
 11
14.198
 20
79.803
 21
79.877
  0
LINE
  8
0
 10
14.198
 11
13.743
 20
79.877
 21
80.045
  0
LINE
  8
0
 10
13.743
 11
13.331
 20
80.045
 21
80.302
  0
LINE
  8
0
 10
13.331
 11
12.979
 20
80.302
 21
80.637
  0
LINE
  8
0
 10
12.979
 11
12.702
 20
80.637
 21
81.035
  0
LINE
  8
0
 10
12.702
 11
12.51
 20
81.035
 21
81.482
  0
LINE
  8
0
 10
12.51
 11
12.412
 20
81.482
 21
81.957
  0
LINE
  8
0
 10
12.412
 11
12.412
 20
111.557
 21
112.043
  0
LINE
  8
0
 10
12.412
 11
12.51
 20
112.043
 21
112.518
  0
LINE
  8
0
 10
12.51
 11
12.702
 20
112.518
 21
112.965
  0
LINE
  8
0
 10
12.702
 11
12.979
 20
112.965
 21
113.363
  0
LINE
  8
0
 10
12.979
 11
13.331
 20
113.363
 21
113.698
  0
LINE
  8
0
 10
13.331
 11
13.743
 20
113.698
 21
113.955
  0
LINE
  8
0
 10
13.743
 11
14.198
 20
113.955
 21
114.123
  0
LINE
  8
0
 10
14.198
 11
14.678
 20
114.123
 21
114.197
  0
LINE
  8
0
 10
14.678
 11
15.163
 20
114.197
 21
114.172
  0
LINE
  8
0
 10
15.163
 11
15.634
 20
114.172
 21
114.051
  0
LINE
  8
0
 10
15.634
 11
16.07
 20
114.051
 21
113.837
  0
LINE
  8
0
 10
16.07
 11
16.454
 20
113.837
 21
113.54
  0
LINE
  8
0
 10
16.454
 11
16.77
 20
113.54
 21
113.171
  0
LINE
  8
0
 10
16.77
 11
17.005
 20
113.171
 21
112.746
  0
LINE
  8
0
 10
17.005
 11
17.151
 20
112.746
 21
112.283
  0
LINE
  8
0
 10
17.151
 11
17.2
 20
112.283
 21
111.8
  0
LINE
  8
0
 10
17.2
 11
17.151
 20
111.8
 21
111.317
  0
LINE
  8
0
 10
17.151
 11
17.005
 20
111.317
 21
110.854
  0
LINE
  8
0
 10
17.005
 11
16.77
 20
110.854
 21
110.429
  0
LINE
  8
0
 10
16.77
 11
16.454
 20
110.429
 21
110.06
  0
LINE
  8
0
 10
16.454
 11
16.07
 20
110.06
 21
109.763
  0
LINE
  8
0
 10
16.07
 11
15.634
 20
109.763
 21
109.549
  0
LINE
  8
0
 10
15.634
 11
15.163
 20
109.549
 21
109.428
  0
LINE
  8
0
 10
15.163
 11
14.678
 20
109.428
 21
109.403
  0
LINE
  8
0
 10
14.678
 11
14.198
 20
109.403
 21
109.477
  0
LINE
  8
0
 10
14.198
 11
13.743
 20
109.477
 21
109.645
  0
LINE
  8
0
 10
13.743
 11
13.331
 20
109.645
 21
109.902
  0
LINE
  8
0
 10
13.331
 11
12.979
 20
109.902
 21
110.237
  0
LINE
  8
0
 10
12.979
 11
12.702
 20
110.237
 21
110.635
  0
LINE
  8
0
 10
12.702
 11
12.51
 20
110.635
 21
111.082
  0
LINE
  8
0
 10
12.51
 11
12.412
 20
111.082
 21
111.557
  0
LINE
  8
0
 10
222.612
 11
222.612
 20
14.757
 21
15.243
  0
LINE
  8
0
 10
222.612
 11
222.71
 20
15.243
 21
15.718
  0
LINE
  8
0
 10
222.71
 11
222.902
 20
15.718
 21
16.165
  0
LINE
  8
0
 10
222.902
 11
223.179
 20
16.165
 21
16.563
  0
LINE
  8
0
 10
223.179
 11
223.531
 20
16.563
 21
16.898
  0
LINE
  8
0
 10
223.531
 11
223.943
 20
16.898
 21
17.155
  0
LINE
  8
0
 10
223.943
 11
224.398
 20
17.155
 21
17.323
  0
LINE
  8
0
 10
224.398
 11
224.878
 20
17.323
 21
17.397
  0
LINE
  8
0
 10
224.878
 11
225.363
 20
17.397
 21
17.372
  0
LINE
  8
0
 10
225.363
 11
225.834
 20
17.372
 21
17.251
  0
LINE
  8
0
 10
225.834
 11
226.27
 20
17.251
 21
17.037
  0
LINE
  8
0
 10
226.27
 11
226.654
 20
17.037
 21
16.74
  0
LINE
  8
0
 10
226.654
 11
226.97
 20
16.74
 21
16.371
  0
LINE
  8
0
 10
226.97
 11
227.205
 20
16.371
 21
15.946
  0
LINE
  8
0
 10
227.205
 11
227.351
 20
15.946
 21
15.483
  0
LINE
  8
0
 10
227.351
 11
227.4
 20
15.483
 21
15
  0
LINE
  8
0
 10
227.4
 11
227.351
 20
15
 21
14.517
  0
LINE
  8
0
 10
227.351
 11
227.205
 20
14.517
 21
14.054
  0
LINE
  8
0
 10
227.205
 11
226.97
 20
14.054
 21
13.629
  0
LINE
  8
0
 10
226.97
 11
226.654
 20
13.629
 21
13.26
  0
LINE
  8
0
 10
226.654
 11
226.27
 20
13.26
 21
12.963
  0
LINE
  8
0
 10
226.27
 11
225.834
 20
12.963
 21
12.749
  0
LINE
  8
0
 10
225.834
 11
225.363
 20
12.749
 21
12.628
  0
LINE
  8
0
 10
225.363
 11
224.878
 20
12.628
 21
12.603
  0
LINE
  8
0
 10
224.878
 11
224.398
 20
12.603
 21
12.677
  0
LINE
  8
0
 10
224.398
 11
223.943
 20
12.677
 21
12.845
  0
LINE
  8
0
 10
223.943
 11
223.531
 20
12.845
 21
13.102
  0
LINE
  8
0
 10
223.531
 11
223.179
 20
13.102
 21
13.437
  0
LINE
  8
0
 10
223.179
 11
222.902
 20
13.437
 21
13.835
  0
LINE
  8
0
 10
222.902
 11
222.71
 20
13.835
 21
14.282
  0
LINE
  8
0
 10
222.71
 11
222.612
 20
14.282
 21
14.757
  0
LINE
  8
0
 10
246.925
 11
246.94
 20
97
 21
97.497
  0
LINE
  8
0
 10
246.94
 11
246.986
 20
97.497
 21
97.992
  0
LINE
  8
0
 10
246.986
 11
247.062
 20
97.992
 21
98.484
  0
LINE
  8
0
 10
247.062
 11
247.169
 20
98.484
 21
98.97
  0
LINE
  8
0
 10
247.169
 11
247.305
 20
98.97
 21
99.448
  0
LINE
  8
0
 10
247.305
 11
247.47
 20
99.448
 21
99.917
  0
LINE
  8
0
 10
247.47
 11
247.664
 20
99.917
 21
100.375
  0
LINE
  8
0
 10
247.664
 11
247.886
 20
100.375
 21
100.82
  0
LINE
  8
0
 10
247.886
 11
248.134
 20
100.82
 21
101.251
  0
LINE
  8
0
 10
248.134
 11
248.409
 20
101.251
 21
101.666
  0
LINE
  8
0
 10
248.409
 11
248.709
 20
101.666
 21
102.062
  0
LINE
  8
0
 10
248.709
 11
249.033
 20
102.062
 21
102.44
  0
LINE
  8
0
 10
249.033
 11
249.379
 20
102.44
 21
102.797
  0
LINE
  8
0
 10
249.379
 11
249.746
 20
102.797
 21
103.132
  0
LINE
  8
0
 10
249.746
 11
250.134
 20
103.132
 21
103.444
  0
LINE
  8
0
 10
250.134
 11
250.54
 20
103.444
 21
103.731
  0
LINE
  8
0
 10
250.54
 11
250.962
 20
103.731
 21
103.993
  0
LINE
  8
0
 10
250.962
 11
251.401
 20
103.993
 21
104.228
  0
LINE
  8
0
 10
251.401
 11
251.852
 20
104.228
 21
104.436
  0
LINE
  8
0
 10
251.852
 11
252.316
 20
104.436
 21
104.616
  0
LINE
  8
0
 10
252.316
 11
252.79
 20
104.616
 21
104.767
  0
LINE
  8
0
 10
252.79
 11
253.272
 20
104.767
 21
104.888
  0
LINE
  8
0
 10
253.272
 11
253.761
 20
104.888
 21
104.979
  0
LINE
  8
0
 10
253.761
 11
254.255
 20
104.979
 21
105.041
  0
LINE
  8
0
 10
254.255
 11
254.751
 20
105.041
 21
105.071
  0
LINE
  8
0
 10
254.751
 11
255.249
 20
105.071
 21
105.071
  0
LINE
  8
0
 10
255.249
 11
255.745
 20
105.071
 21
105.041
  0
LINE
  8
0
 10
255.745
 11
256.239
 20
105.041
 21
104.979
  0
LINE
  8
0
 10
256.239
 11
256.728
 20
104.979
 21
104.888
  0
LINE
  8
0
 10
256.728
 11
257.21
 20
104.888
 21
104.767
  0
LINE
  8
0
 10
257.21
 11
257.684
 20
104.767
 21
104.616
  0
LINE
  8
0
 10
257.684
 11
258.148
 20
104.616
 21
104.436
  0
LINE
  8
0
 10
258.148
 11
258.599
 20
104.436
 21
104.228
  0
LINE
  8
0
 10
258.599
 11
259.037
 20
104.228
 21
103.993
  0
LINE
  8
0
 10
259.037
 11
259.46
 20
103.993
 21
103.731
  0
LINE
  8
0
 10
259.46
 11
259.866
 20
103.731
 21
103.444
  0
LINE
  8
0
 10
259.866
 11
260.254
 20
103.444
 21
103.132
  0
LINE
  8
0
 10
260.254
 11
260.621
 20
103.132
 21
102.797
  0
LINE
  8
0
 10
260.621
 11
260.967
 20
102.797
 21
102.44
  0
LINE
  8
0
 10
260.967
 11
261.291
 20
102.44
 21
102.062
  0
LINE
  8
0
 10
261.291
 11
261.591
 20
102.062
 21
101.666
  0
LINE
  8
0
 10
261.591
 11
261.866
 20
101.666
 21
101.251
  0
LINE
  8
0
 10
261.866
 11
262.114
 20
101.251
 21
100.82
  0
LINE
  8
0
 10
262.114
 11
262.336
 20
100.82
 21
100.375
  0
LINE
  8
0
 10
262.336
 11
262.53
 20
100.375
 21
99.917
  0
LINE
  8
0
 10
262.53
 11
262.695
 20
99.917
 21
99.448
  0
LINE
  8
0
 10
262.695
 11
262.831
 20
99.448
 21
98.97
  0
LINE
  8
0
 10
262.831
 11
262.938
 20
98.97
 21
98.484
  0
LINE
  8
0
 10
262.938
 11
263.014
 20
98.484
 21
97.992
  0
LINE
  8
0
 10
263.014
 11
263.06
 20
97.992
 21
97.497
  0
LINE
  8
0
 10
263.06
 11
263.075
 20
97.497
 21
97
  0
LINE
  8
0
 10
263.075
 11
263.06
 20
97
 21
96.503
  0
LINE
  8
0
 10
263.06
 11
263.014
 20
96.503
 21
96.008
  0
LINE
  8
0
 10
263.014
 11
262.938
 20
96.008
 21
95.516
  0
LINE
  8
0
 10
262.938
 11
262.831
 20
95.516
 21
95.03
  0
LINE
  8
0
 10
262.831
 11
262.695
 20
95.03
 21
94.552
  0
LINE
  8
0
 10
262.695
 11
262.53
 20
94.552
 21
94.083
  0
LINE
  8
0
 10
262.53
 11
262.336
 20
94.083
 21
93.625
  0
LINE
  8
0
 10
262.336
 11
262.114
 20
93.625
 21
93.18
  0
LINE
  8
0
 10
262.114
 11
261.866
 20
93.18
 21
92.749
  0
LINE
  8
0
 10
261.866
 11
261.591
 20
92.749
 21
92.334
  0
LINE
  8
0
 10
261.591
 11
261.291
 20
92.334
 21
91.938
  0
LINE
  8
0
 10
261.291
 11
260.967
 20
91.938
 21
91.56
  0
LINE
  8
0
 10
260.967
 11
260.621
 20
91.56
 21
91.203
  0
LINE
  8
0
 10
260.621
 11
260.254
 20
91.203
 21
90.868
  0
LINE
  8
0
 10
260.254
 11
259.866
 20
90.868
 21
90.556
  0
LINE
  8
0
 10
259.866
 11
259.46
 20
90.556
 21
90.269
  0
LINE
  8
0
 10
259.46
 11
259.037
 20
90.269
 21
90.007
  0
LINE
  8
0
 10
259.037
 11
258.599
 20
90.007
 21
89.772
  0
LINE
  8
0
 10
258.599
 11
258.148
 20
89.772
 21
89.564
  0
LINE
  8
0
 10
258.148
 11
257.684
 20
89.564
 21
89.384
  0
LINE
  8
0
 10
257.684
 11
257.21
 20
89.384
 21
89.233
  0
LINE
  8
0
 10
257.21
 11
256.728
 20
89.233
 21
89.112
  0
LINE
  8
0
 10
256.728
 11
256.239
 20
89.112
 21
89.021
  0
LINE
  8
0
 10
256.239
 11
255.745
 20
89.021
 21
88.959
  0
LINE
  8
0
 10
255.745
 11
255.249
 20
88.959
 21
88.929
  0
LINE
  8
0
 10
255.249
 11
254.751
 20
88.929
 21
88.929
  0
LINE
  8
0
 10
254.751
 11
254.255
 20
88.929
 21
88.959
  0
LINE
  8
0
 10
254.255
 11
253.761
 20
88.959
 21
89.021
  0
LINE
  8
0
 10
253.761
 11
253.272
 20
89.021
 21
89.112
  0
LINE
  8
0
 10
253.272
 11
252.79
 20
89.112
 21
89.233
  0
LINE
  8
0
 10
252.79
 11
252.316
 20
89.233
 21
89.384
  0
LINE
  8
0
 10
252.316
 11
251.852
 20
89.384
 21
89.564
  0
LINE
  8
0
 10
251.852
 11
251.401
 20
89.564
 21
89.772
  0
LINE
  8
0
 10
251.401
 11
250.962
 20
89.772
 21
90.007
  0
LINE
  8
0
 10
250.962
 11
250.54
 20
90.007
 21
90.269
  0
LINE
  8
0
 10
250.54
 11
250.134
 20
90.269
 21
90.556
  0
LINE
  8
0
 10
250.134
 11
249.746
 20
90.556
 21
90.868
  0
LINE
  8
0
 10
249.746
 11
249.379
 20
90.868
 21
91.203
  0
LINE
  8
0
 10
249.379
 11
249.033
 20
91.203
 21
91.56
  0
LINE
  8
0
 10
249.033
 11
248.709
 20
91.56
 21
91.938
  0
LINE
  8
0
 10
248.709
 11
248.409
 20
91.938
 21
92.334
  0
LINE
  8
0
 10
248.409
 11
248.134
 20
92.334
 21
92.749
  0
LINE
  8
0
 10
248.134
 11
247.886
 20
92.749
 21
93.18
  0
LINE
  8
0
 10
247.886
 11
247.664
 20
93.18
 21
93.625
  0
LINE
  8
0
 10
247.664
 11
247.47
 20
93.625
 21
94.083
  0
LINE
  8
0
 10
247.47
 11
247.305
 20
94.083
 21
94.552
  0
LINE
  8
0
 10
247.305
 11
247.169
 20
94.552
 21
95.03
  0
LINE
  8
0
 10
247.169
 11
247.062
 20
95.03
 21
95.516
  0
LINE
  8
0
 10
247.062
 11
246.986
 20
95.516
 21
96.008
  0
LINE
  8
0
 10
246.986
 11
246.94
 20
96.008
 21
96.503
  0
LINE
  8
0
 10
246.94
 11
246.925
 20
96.503
 21
97
  0
LINE
  8
0
 10
282.612
 11
282.612
 20
44.757
 21
45.243
  0
LINE
  8
0
 10
282.612
 11
282.71
 20
45.243
 21
45.718
  0
LINE
  8
0
 10
282.71
 11
282.902
 20
45.718
 21
46.165
  0
LINE
  8
0
 10
282.902
 11
283.179
 20
46.165
 21
46.563
  0
LINE
  8
0
 10
283.179
 11
283.531
 20
46.563
 21
46.898
  0
LINE
  8
0
 10
283.531
 11
283.943
 20
46.898
 21
47.155
  0
LINE
  8
0
 10
283.943
 11
284.398
 20
47.155
 21
47.323
  0
LINE
  8
0
 10
284.398
 11
284.878
 20
47.323
 21
47.397
  0
LINE
  8
0
 10
284.878
 11
285.363
 20
47.397
 21
47.372
  0
LINE
  8
0
 10
285.363
 11
285.834
 20
47.372
 21
47.251
  0
LINE
  8
0
 10
285.834
 11
286.27
 20
47.251
 21
47.037
  0
LINE
  8
0
 10
286.27
 11
286.654
 20
47.037
 21
46.74
  0
LINE
  8
0
 10
286.654
 11
286.97
 20
46.74
 21
46.371
  0
LINE
  8
0
 10
286.97
 11
287.205
 20
46.371
 21
45.946
  0
LINE
  8
0
 10
287.205
 11
287.351
 20
45.946
 21
45.483
  0
LINE
  8
0
 10
287.351
 11
287.4
 20
45.483
 21
45
  0
LINE
  8
0
 10
287.4
 11
287.351
 20
45
 21
44.517
  0
LINE
  8
0
 10
287.351
 11
287.205
 20
44.517
 21
44.054
  0
LINE
  8
0
 10
287.205
 11
286.97
 20
44.054
 21
43.629
  0
LINE
  8
0
 10
286.97
 11
286.654
 20
43.629
 21
43.26
  0
LINE
  8
0
 10
286.654
 11
286.27
 20
43.26
 21
42.963
  0
LINE
  8
0
 10
286.27
 11
285.834
 20
42.963
 21
42.749
  0
LINE
  8
0
 10
285.834
 11
285.363
 20
42.749
 21
42.628
  0
LINE
  8
0
 10
285.363
 11
284.878
 20
42.628
 21
42.603
  0
LINE
  8
0
 10
284.878
 11
284.398
 20
42.603
 21
42.677
  0
LINE
  8
0
 10
284.398
 11
283.943
 20
42.677
 21
42.845
  0
LINE
  8
0
 10
283.943
 11
283.531
 20
42.845
 21
43.102
  0
LINE
  8
0
 10
283.531
 11
283.179
 20
43.102
 21
43.437
  0
LINE
  8
0
 10
283.179
 11
282.902
 20
43.437
 21
43.835
  0
LINE
  8
0
 10
282.902
 11
282.71
 20
43.835
 21
44.282
  0
LINE
  8
0
 10
282.71
 11
282.612
 20
44.282
 21
44.757
  0
LINE
  8
0
 10
282.612
 11
282.612
 20
154.757
 21
155.243
  0
LINE
  8
0
 10
282.612
 11
282.71
 20
155.243
 21
155.718
  0
LINE
  8
0
 10
282.71
 11
282.902
 20
155.718
 21
156.165
  0
LINE
  8
0
 10
282.902
 11
283.179
 20
156.165
 21
156.563
  0
LINE
  8
0
 10
283.179
 11
283.531
 20
156.563
 21
156.898
  0
LINE
  8
0
 10
283.531
 11
283.943
 20
156.898
 21
157.155
  0
LINE
  8
0
 10
283.943
 11
284.398
 20
157.155
 21
157.323
  0
LINE
  8
0
 10
284.398
 11
284.878
 20
157.323
 21
157.397
  0
LINE
  8
0
 10
284.878
 11
285.363
 20
157.397
 21
157.372
  0
LINE
  8
0
 10
285.363
 11
285.834
 20
157.372
 21
157.251
  0
LINE
  8
0
 10
285.834
 11
286.27
 20
157.251
 21
157.037
  0
LINE
  8
0
 10
286.27
 11
286.654
 20
157.037
 21
156.74
  0
LINE
  8
0
 10
286.654
 11
286.97
 20
156.74
 21
156.371
  0
LINE
  8
0
 10
286.97
 11
287.205
 20
156.371
 21
155.946
  0
LINE
  8
0
 10
287.205
 11
287.351
 20
155.946
 21
155.483
  0
LINE
  8
0
 10
287.351
 11
287.4
 20
155.483
 21
155
  0
LINE
  8
0
 10
287.4
 11
287.351
 20
155
 21
154.517
  0
LINE
  8
0
 10
287.351
 11
287.205
 20
154.517
 21
154.054
  0
LINE
  8
0
 10
287.205
 11
286.97
 20
154.054
 21
153.629
  0
LINE
  8
0
 10
286.97
 11
286.654
 20
153.629
 21
153.26
  0
LINE
  8
0
 10
286.654
 11
286.27
 20
153.26
 21
152.963
  0
LINE
  8
0
 10
286.27
 11
285.834
 20
152.963
 21
152.749
  0
LINE
  8
0
 10
285.834
 11
285.363
 20
152.749
 21
152.628
  0
LINE
  8
0
 10
285.363
 11
284.878
 20
152.628
 21
152.603
  0
LINE
  8
0
 10
284.878
 11
284.398
 20
152.603
 21
152.677
  0
LINE
  8
0
 10
284.398
 11
283.943
 20
152.677
 21
152.845
  0
LINE
  8
0
 10
283.943
 11
283.531
 20
152.845
 21
153.102
  0
LINE
  8
0
 10
283.531
 11
283.179
 20
153.102
 21
153.437
  0
LINE
  8
0
 10
283.179
 11
282.902
 20
153.437
 21
153.835
  0
LINE
  8
0
 10
282.902
 11
282.71
 20
153.835
 21
154.282
  0
LINE
  8
0
 10
282.71
 11
282.612
 20
154.282
 21
154.757
  0
ENDSEC
  0
SECTION
  2
OBJECTS
  0
DICTIONARY
  0
ENDSEC
  0
EOF
