  0
SECTION
  2
BLOCKS
  0
ENDSEC
  0
SECTION
  2
ENTITIES
  0
LINE
  8
0
 10
-306
 11
-306
 20
230
 21
769
  0
LINE
  8
0
 10
-306
 11
-300
 20
769
 21
769
  0
LINE
  8
0
 10
-300
 11
-300
 20
769
 21
802
  0
LINE
  8
0
 10
-300
 11
-243
 20
802
 21
802
  0
LINE
  8
0
 10
-243
 11
-243
 20
802
 21
804
  0
LINE
  8
0
 10
-243
 11
-0.5
 20
804
 21
804
  0
LINE
  8
0
 10
-0.5
 11
-0.5
 20
804
 21
201
  0
LINE
  8
0
 10
-0.5
 11
-243
 20
201
 21
201
  0
LINE
  8
0
 10
-243
 11
-243
 20
201
 21
203
  0
LINE
  8
0
 10
-243
 11
-300
 20
203
 21
203
  0
LINE
  8
0
 10
-300
 11
-300
 20
203
 21
230
  0
LINE
  8
0
 10
-300
 11
-306
 20
230
 21
230
  0
LINE
  8
0
 10
-287.4
 11
-287.351
 20
215
 21
215.483
  0
LINE
  8
0
 10
-287.351
 11
-287.205
 20
215.483
 21
215.946
  0
LINE
  8
0
 10
-287.205
 11
-286.97
 20
215.946
 21
216.371
  0
LINE
  8
0
 10
-286.97
 11
-286.654
 20
216.371
 21
216.74
  0
LINE
  8
0
 10
-286.654
 11
-286.27
 20
216.74
 21
217.037
  0
LINE
  8
0
 10
-286.27
 11
-285.834
 20
217.037
 21
217.251
  0
LINE
  8
0
 10
-285.834
 11
-285.363
 20
217.251
 21
217.372
  0
LINE
  8
0
 10
-285.363
 11
-284.878
 20
217.372
 21
217.397
  0
LINE
  8
0
 10
-284.878
 11
-284.398
 20
217.397
 21
217.323
  0
LINE
  8
0
 10
-284.398
 11
-283.943
 20
217.323
 21
217.155
  0
LINE
  8
0
 10
-283.943
 11
-283.531
 20
217.155
 21
216.898
  0
LINE
  8
0
 10
-283.531
 11
-283.179
 20
216.898
 21
216.563
  0
LINE
  8
0
 10
-283.179
 11
-282.902
 20
216.563
 21
216.165
  0
LINE
  8
0
 10
-282.902
 11
-282.71
 20
216.165
 21
215.718
  0
LINE
  8
0
 10
-282.71
 11
-282.612
 20
215.718
 21
215.243
  0
LINE
  8
0
 10
-282.612
 11
-282.612
 20
215.243
 21
214.757
  0
LINE
  8
0
 10
-282.612
 11
-282.71
 20
214.757
 21
214.282
  0
LINE
  8
0
 10
-282.71
 11
-282.902
 20
214.282
 21
213.835
  0
LINE
  8
0
 10
-282.902
 11
-283.179
 20
213.835
 21
213.437
  0
LINE
  8
0
 10
-283.179
 11
-283.531
 20
213.437
 21
213.102
  0
LINE
  8
0
 10
-283.531
 11
-283.943
 20
213.102
 21
212.845
  0
LINE
  8
0
 10
-283.943
 11
-284.398
 20
212.845
 21
212.677
  0
LINE
  8
0
 10
-284.398
 11
-284.878
 20
212.677
 21
212.603
  0
LINE
  8
0
 10
-284.878
 11
-285.363
 20
212.603
 21
212.628
  0
LINE
  8
0
 10
-285.363
 11
-285.834
 20
212.628
 21
212.749
  0
LINE
  8
0
 10
-285.834
 11
-286.27
 20
212.749
 21
212.963
  0
LINE
  8
0
 10
-286.27
 11
-286.654
 20
212.963
 21
213.26
  0
LINE
  8
0
 10
-286.654
 11
-286.97
 20
213.26
 21
213.629
  0
LINE
  8
0
 10
-286.97
 11
-287.205
 20
213.629
 21
214.054
  0
LINE
  8
0
 10
-287.205
 11
-287.351
 20
214.054
 21
214.517
  0
LINE
  8
0
 10
-287.351
 11
-287.4
 20
214.517
 21
215
  0
LINE
  8
0
 10
-287.4
 11
-287.351
 20
784
 21
784.483
  0
LINE
  8
0
 10
-287.351
 11
-287.205
 20
784.483
 21
784.946
  0
LINE
  8
0
 10
-287.205
 11
-286.97
 20
784.946
 21
785.371
  0
LINE
  8
0
 10
-286.97
 11
-286.654
 20
785.371
 21
785.74
  0
LINE
  8
0
 10
-286.654
 11
-286.27
 20
785.74
 21
786.037
  0
LINE
  8
0
 10
-286.27
 11
-285.834
 20
786.037
 21
786.251
  0
LINE
  8
0
 10
-285.834
 11
-285.363
 20
786.251
 21
786.372
  0
LINE
  8
0
 10
-285.363
 11
-284.878
 20
786.372
 21
786.397
  0
LINE
  8
0
 10
-284.878
 11
-284.398
 20
786.397
 21
786.323
  0
LINE
  8
0
 10
-284.398
 11
-283.943
 20
786.323
 21
786.155
  0
LINE
  8
0
 10
-283.943
 11
-283.531
 20
786.155
 21
785.898
  0
LINE
  8
0
 10
-283.531
 11
-283.179
 20
785.898
 21
785.563
  0
LINE
  8
0
 10
-283.179
 11
-282.902
 20
785.563
 21
785.165
  0
LINE
  8
0
 10
-282.902
 11
-282.71
 20
785.165
 21
784.718
  0
LINE
  8
0
 10
-282.71
 11
-282.612
 20
784.718
 21
784.243
  0
LINE
  8
0
 10
-282.612
 11
-282.612
 20
784.243
 21
783.757
  0
LINE
  8
0
 10
-282.612
 11
-282.71
 20
783.757
 21
783.282
  0
LINE
  8
0
 10
-282.71
 11
-282.902
 20
783.282
 21
782.835
  0
LINE
  8
0
 10
-282.902
 11
-283.179
 20
782.835
 21
782.437
  0
LINE
  8
0
 10
-283.179
 11
-283.531
 20
782.437
 21
782.102
  0
LINE
  8
0
 10
-283.531
 11
-283.943
 20
782.102
 21
781.845
  0
LINE
  8
0
 10
-283.943
 11
-284.398
 20
781.845
 21
781.677
  0
LINE
  8
0
 10
-284.398
 11
-284.878
 20
781.677
 21
781.603
  0
LINE
  8
0
 10
-284.878
 11
-285.363
 20
781.603
 21
781.628
  0
LINE
  8
0
 10
-285.363
 11
-285.834
 20
781.628
 21
781.749
  0
LINE
  8
0
 10
-285.834
 11
-286.27
 20
781.749
 21
781.963
  0
LINE
  8
0
 10
-286.27
 11
-286.654
 20
781.963
 21
782.26
  0
LINE
  8
0
 10
-286.654
 11
-286.97
 20
782.26
 21
782.629
  0
LINE
  8
0
 10
-286.97
 11
-287.205
 20
782.629
 21
783.054
  0
LINE
  8
0
 10
-287.205
 11
-287.351
 20
783.054
 21
783.517
  0
LINE
  8
0
 10
-287.351
 11
-287.4
 20
783.517
 21
784
  0
LINE
  8
0
 10
-257.4
 11
-257.351
 20
215
 21
215.483
  0
LINE
  8
0
 10
-257.351
 11
-257.205
 20
215.483
 21
215.946
  0
LINE
  8
0
 10
-257.205
 11
-256.97
 20
215.946
 21
216.371
  0
LINE
  8
0
 10
-256.97
 11
-256.654
 20
216.371
 21
216.74
  0
LINE
  8
0
 10
-256.654
 11
-256.27
 20
216.74
 21
217.037
  0
LINE
  8
0
 10
-256.27
 11
-255.834
 20
217.037
 21
217.251
  0
LINE
  8
0
 10
-255.834
 11
-255.363
 20
217.251
 21
217.372
  0
LINE
  8
0
 10
-255.363
 11
-254.878
 20
217.372
 21
217.397
  0
LINE
  8
0
 10
-254.878
 11
-254.398
 20
217.397
 21
217.323
  0
LINE
  8
0
 10
-254.398
 11
-253.943
 20
217.323
 21
217.155
  0
LINE
  8
0
 10
-253.943
 11
-253.531
 20
217.155
 21
216.898
  0
LINE
  8
0
 10
-253.531
 11
-253.179
 20
216.898
 21
216.563
  0
LINE
  8
0
 10
-253.179
 11
-252.902
 20
216.563
 21
216.165
  0
LINE
  8
0
 10
-252.902
 11
-252.71
 20
216.165
 21
215.718
  0
LINE
  8
0
 10
-252.71
 11
-252.612
 20
215.718
 21
215.243
  0
LINE
  8
0
 10
-252.612
 11
-252.612
 20
215.243
 21
214.757
  0
LINE
  8
0
 10
-252.612
 11
-252.71
 20
214.757
 21
214.282
  0
LINE
  8
0
 10
-252.71
 11
-252.902
 20
214.282
 21
213.835
  0
LINE
  8
0
 10
-252.902
 11
-253.179
 20
213.835
 21
213.437
  0
LINE
  8
0
 10
-253.179
 11
-253.531
 20
213.437
 21
213.102
  0
LINE
  8
0
 10
-253.531
 11
-253.943
 20
213.102
 21
212.845
  0
LINE
  8
0
 10
-253.943
 11
-254.398
 20
212.845
 21
212.677
  0
LINE
  8
0
 10
-254.398
 11
-254.878
 20
212.677
 21
212.603
  0
LINE
  8
0
 10
-254.878
 11
-255.363
 20
212.603
 21
212.628
  0
LINE
  8
0
 10
-255.363
 11
-255.834
 20
212.628
 21
212.749
  0
LINE
  8
0
 10
-255.834
 11
-256.27
 20
212.749
 21
212.963
  0
LINE
  8
0
 10
-256.27
 11
-256.654
 20
212.963
 21
213.26
  0
LINE
  8
0
 10
-256.654
 11
-256.97
 20
213.26
 21
213.629
  0
LINE
  8
0
 10
-256.97
 11
-257.205
 20
213.629
 21
214.054
  0
LINE
  8
0
 10
-257.205
 11
-257.351
 20
214.054
 21
214.517
  0
LINE
  8
0
 10
-257.351
 11
-257.4
 20
214.517
 21
215
  0
LINE
  8
0
 10
-257.4
 11
-257.351
 20
784
 21
784.483
  0
LINE
  8
0
 10
-257.351
 11
-257.205
 20
784.483
 21
784.946
  0
LINE
  8
0
 10
-257.205
 11
-256.97
 20
784.946
 21
785.371
  0
LINE
  8
0
 10
-256.97
 11
-256.654
 20
785.371
 21
785.74
  0
LINE
  8
0
 10
-256.654
 11
-256.27
 20
785.74
 21
786.037
  0
LINE
  8
0
 10
-256.27
 11
-255.834
 20
786.037
 21
786.251
  0
LINE
  8
0
 10
-255.834
 11
-255.363
 20
786.251
 21
786.372
  0
LINE
  8
0
 10
-255.363
 11
-254.878
 20
786.372
 21
786.397
  0
LINE
  8
0
 10
-254.878
 11
-254.398
 20
786.397
 21
786.323
  0
LINE
  8
0
 10
-254.398
 11
-253.943
 20
786.323
 21
786.155
  0
LINE
  8
0
 10
-253.943
 11
-253.531
 20
786.155
 21
785.898
  0
LINE
  8
0
 10
-253.531
 11
-253.179
 20
785.898
 21
785.563
  0
LINE
  8
0
 10
-253.179
 11
-252.902
 20
785.563
 21
785.165
  0
LINE
  8
0
 10
-252.902
 11
-252.71
 20
785.165
 21
784.718
  0
LINE
  8
0
 10
-252.71
 11
-252.612
 20
784.718
 21
784.243
  0
LINE
  8
0
 10
-252.612
 11
-252.612
 20
784.243
 21
783.757
  0
LINE
  8
0
 10
-252.612
 11
-252.71
 20
783.757
 21
783.282
  0
LINE
  8
0
 10
-252.71
 11
-252.902
 20
783.282
 21
782.835
  0
LINE
  8
0
 10
-252.902
 11
-253.179
 20
782.835
 21
782.437
  0
LINE
  8
0
 10
-253.179
 11
-253.531
 20
782.437
 21
782.102
  0
LINE
  8
0
 10
-253.531
 11
-253.943
 20
782.102
 21
781.845
  0
LINE
  8
0
 10
-253.943
 11
-254.398
 20
781.845
 21
781.677
  0
LINE
  8
0
 10
-254.398
 11
-254.878
 20
781.677
 21
781.603
  0
LINE
  8
0
 10
-254.878
 11
-255.363
 20
781.603
 21
781.628
  0
LINE
  8
0
 10
-255.363
 11
-255.834
 20
781.628
 21
781.749
  0
LINE
  8
0
 10
-255.834
 11
-256.27
 20
781.749
 21
781.963
  0
LINE
  8
0
 10
-256.27
 11
-256.654
 20
781.963
 21
782.26
  0
LINE
  8
0
 10
-256.654
 11
-256.97
 20
782.26
 21
782.629
  0
LINE
  8
0
 10
-256.97
 11
-257.205
 20
782.629
 21
783.054
  0
LINE
  8
0
 10
-257.205
 11
-257.351
 20
783.054
 21
783.517
  0
LINE
  8
0
 10
-257.351
 11
-257.4
 20
783.517
 21
784
  0
LINE
  8
0
 10
-18.5
 11
-18.459
 20
215
 21
215.494
  0
LINE
  8
0
 10
-18.459
 11
-18.337
 20
215.494
 21
215.974
  0
LINE
  8
0
 10
-18.337
 11
-18.138
 20
215.974
 21
216.428
  0
LINE
  8
0
 10
-18.138
 11
-17.867
 20
216.428
 21
216.843
  0
LINE
  8
0
 10
-17.867
 11
-17.532
 20
216.843
 21
217.207
  0
LINE
  8
0
 10
-17.532
 11
-17.141
 20
217.207
 21
217.511
  0
LINE
  8
0
 10
-17.141
 11
-16.705
 20
217.511
 21
217.747
  0
LINE
  8
0
 10
-16.705
 11
-16.236
 20
217.747
 21
217.908
  0
LINE
  8
0
 10
-16.236
 11
-15.748
 20
217.908
 21
217.99
  0
LINE
  8
0
 10
-15.748
 11
-15.252
 20
217.99
 21
217.99
  0
LINE
  8
0
 10
-15.252
 11
-14.764
 20
217.99
 21
217.908
  0
LINE
  8
0
 10
-14.764
 11
-14.295
 20
217.908
 21
217.747
  0
LINE
  8
0
 10
-14.295
 11
-13.859
 20
217.747
 21
217.511
  0
LINE
  8
0
 10
-13.859
 11
-13.468
 20
217.511
 21
217.207
  0
LINE
  8
0
 10
-13.468
 11
-13.133
 20
217.207
 21
216.843
  0
LINE
  8
0
 10
-13.133
 11
-12.862
 20
216.843
 21
216.428
  0
LINE
  8
0
 10
-12.862
 11
-12.663
 20
216.428
 21
215.974
  0
LINE
  8
0
 10
-12.663
 11
-12.541
 20
215.974
 21
215.494
  0
LINE
  8
0
 10
-12.541
 11
-12.5
 20
215.494
 21
215
  0
LINE
  8
0
 10
-12.5
 11
-12.541
 20
215
 21
214.506
  0
LINE
  8
0
 10
-12.541
 11
-12.663
 20
214.506
 21
214.026
  0
LINE
  8
0
 10
-12.663
 11
-12.862
 20
214.026
 21
213.572
  0
LINE
  8
0
 10
-12.862
 11
-13.133
 20
213.572
 21
213.157
  0
LINE
  8
0
 10
-13.133
 11
-13.468
 20
213.157
 21
212.793
  0
LINE
  8
0
 10
-13.468
 11
-13.859
 20
212.793
 21
212.489
  0
LINE
  8
0
 10
-13.859
 11
-14.295
 20
212.489
 21
212.253
  0
LINE
  8
0
 10
-14.295
 11
-14.764
 20
212.253
 21
212.092
  0
LINE
  8
0
 10
-14.764
 11
-15.252
 20
212.092
 21
212.01
  0
LINE
  8
0
 10
-15.252
 11
-15.748
 20
212.01
 21
212.01
  0
LINE
  8
0
 10
-15.748
 11
-16.236
 20
212.01
 21
212.092
  0
LINE
  8
0
 10
-16.236
 11
-16.705
 20
212.092
 21
212.253
  0
LINE
  8
0
 10
-16.705
 11
-17.141
 20
212.253
 21
212.489
  0
LINE
  8
0
 10
-17.141
 11
-17.532
 20
212.489
 21
212.793
  0
LINE
  8
0
 10
-17.532
 11
-17.867
 20
212.793
 21
213.157
  0
LINE
  8
0
 10
-17.867
 11
-18.138
 20
213.157
 21
213.572
  0
LINE
  8
0
 10
-18.138
 11
-18.337
 20
213.572
 21
214.026
  0
LINE
  8
0
 10
-18.337
 11
-18.459
 20
214.026
 21
214.506
  0
LINE
  8
0
 10
-18.459
 11
-18.5
 20
214.506
 21
215
  0
LINE
  8
0
 10
-18.5
 11
-18.459
 20
784
 21
784.494
  0
LINE
  8
0
 10
-18.459
 11
-18.337
 20
784.494
 21
784.974
  0
LINE
  8
0
 10
-18.337
 11
-18.138
 20
784.974
 21
785.428
  0
LINE
  8
0
 10
-18.138
 11
-17.867
 20
785.428
 21
785.843
  0
LINE
  8
0
 10
-17.867
 11
-17.532
 20
785.843
 21
786.207
  0
LINE
  8
0
 10
-17.532
 11
-17.141
 20
786.207
 21
786.511
  0
LINE
  8
0
 10
-17.141
 11
-16.705
 20
786.511
 21
786.747
  0
LINE
  8
0
 10
-16.705
 11
-16.236
 20
786.747
 21
786.908
  0
LINE
  8
0
 10
-16.236
 11
-15.748
 20
786.908
 21
786.99
  0
LINE
  8
0
 10
-15.748
 11
-15.252
 20
786.99
 21
786.99
  0
LINE
  8
0
 10
-15.252
 11
-14.764
 20
786.99
 21
786.908
  0
LINE
  8
0
 10
-14.764
 11
-14.295
 20
786.908
 21
786.747
  0
LINE
  8
0
 10
-14.295
 11
-13.859
 20
786.747
 21
786.511
  0
LINE
  8
0
 10
-13.859
 11
-13.468
 20
786.511
 21
786.207
  0
LINE
  8
0
 10
-13.468
 11
-13.133
 20
786.207
 21
785.843
  0
LINE
  8
0
 10
-13.133
 11
-12.862
 20
785.843
 21
785.428
  0
LINE
  8
0
 10
-12.862
 11
-12.663
 20
785.428
 21
784.974
  0
LINE
  8
0
 10
-12.663
 11
-12.541
 20
784.974
 21
784.494
  0
LINE
  8
0
 10
-12.541
 11
-12.5
 20
784.494
 21
784
  0
LINE
  8
0
 10
-12.5
 11
-12.541
 20
784
 21
783.506
  0
LINE
  8
0
 10
-12.541
 11
-12.663
 20
783.506
 21
783.026
  0
LINE
  8
0
 10
-12.663
 11
-12.862
 20
783.026
 21
782.572
  0
LINE
  8
0
 10
-12.862
 11
-13.133
 20
782.572
 21
782.157
  0
LINE
  8
0
 10
-13.133
 11
-13.468
 20
782.157
 21
781.793
  0
LINE
  8
0
 10
-13.468
 11
-13.859
 20
781.793
 21
781.489
  0
LINE
  8
0
 10
-13.859
 11
-14.295
 20
781.489
 21
781.253
  0
LINE
  8
0
 10
-14.295
 11
-14.764
 20
781.253
 21
781.092
  0
LINE
  8
0
 10
-14.764
 11
-15.252
 20
781.092
 21
781.01
  0
LINE
  8
0
 10
-15.252
 11
-15.748
 20
781.01
 21
781.01
  0
LINE
  8
0
 10
-15.748
 11
-16.236
 20
781.01
 21
781.092
  0
LINE
  8
0
 10
-16.236
 11
-16.705
 20
781.092
 21
781.253
  0
LINE
  8
0
 10
-16.705
 11
-17.141
 20
781.253
 21
781.489
  0
LINE
  8
0
 10
-17.141
 11
-17.532
 20
781.489
 21
781.793
  0
LINE
  8
0
 10
-17.532
 11
-17.867
 20
781.793
 21
782.157
  0
LINE
  8
0
 10
-17.867
 11
-18.138
 20
782.157
 21
782.572
  0
LINE
  8
0
 10
-18.138
 11
-18.337
 20
782.572
 21
783.026
  0
LINE
  8
0
 10
-18.337
 11
-18.459
 20
783.026
 21
783.506
  0
LINE
  8
0
 10
-18.459
 11
-18.5
 20
783.506
 21
784
  0
LINE
  8
0
 10
-11.1
 11
-11.051
 20
477.7
 21
478.183
  0
LINE
  8
0
 10
-11.051
 11
-10.905
 20
478.183
 21
478.646
  0
LINE
  8
0
 10
-10.905
 11
-10.67
 20
478.646
 21
479.071
  0
LINE
  8
0
 10
-10.67
 11
-10.354
 20
479.071
 21
479.44
  0
LINE
  8
0
 10
-10.354
 11
-9.97
 20
479.44
 21
479.737
  0
LINE
  8
0
 10
-9.97
 11
-9.534
 20
479.737
 21
479.951
  0
LINE
  8
0
 10
-9.534
 11
-9.063
 20
479.951
 21
480.072
  0
LINE
  8
0
 10
-9.063
 11
-8.578
 20
480.072
 21
480.097
  0
LINE
  8
0
 10
-8.578
 11
-8.098
 20
480.097
 21
480.023
  0
LINE
  8
0
 10
-8.098
 11
-7.643
 20
480.023
 21
479.855
  0
LINE
  8
0
 10
-7.643
 11
-7.231
 20
479.855
 21
479.598
  0
LINE
  8
0
 10
-7.231
 11
-6.879
 20
479.598
 21
479.263
  0
LINE
  8
0
 10
-6.879
 11
-6.602
 20
479.263
 21
478.865
  0
LINE
  8
0
 10
-6.602
 11
-6.41
 20
478.865
 21
478.418
  0
LINE
  8
0
 10
-6.41
 11
-6.312
 20
478.418
 21
477.943
  0
LINE
  8
0
 10
-6.312
 11
-6.312
 20
477.943
 21
477.457
  0
LINE
  8
0
 10
-6.312
 11
-6.41
 20
477.457
 21
476.982
  0
LINE
  8
0
 10
-6.41
 11
-6.602
 20
476.982
 21
476.535
  0
LINE
  8
0
 10
-6.602
 11
-6.879
 20
476.535
 21
476.137
  0
LINE
  8
0
 10
-6.879
 11
-7.231
 20
476.137
 21
475.802
  0
LINE
  8
0
 10
-7.231
 11
-7.643
 20
475.802
 21
475.545
  0
LINE
  8
0
 10
-7.643
 11
-8.098
 20
475.545
 21
475.377
  0
LINE
  8
0
 10
-8.098
 11
-8.578
 20
475.377
 21
475.303
  0
LINE
  8
0
 10
-8.578
 11
-9.063
 20
475.303
 21
475.328
  0
LINE
  8
0
 10
-9.063
 11
-9.534
 20
475.328
 21
475.449
  0
LINE
  8
0
 10
-9.534
 11
-9.97
 20
475.449
 21
475.663
  0
LINE
  8
0
 10
-9.97
 11
-10.354
 20
475.663
 21
475.96
  0
LINE
  8
0
 10
-10.354
 11
-10.67
 20
475.96
 21
476.329
  0
LINE
  8
0
 10
-10.67
 11
-10.905
 20
476.329
 21
476.754
  0
LINE
  8
0
 10
-10.905
 11
-11.051
 20
476.754
 21
477.217
  0
LINE
  8
0
 10
-11.051
 11
-11.1
 20
477.217
 21
477.7
  0
LINE
  8
0
 10
-11.1
 11
-11.051
 20
521.3
 21
521.783
  0
LINE
  8
0
 10
-11.051
 11
-10.905
 20
521.783
 21
522.246
  0
LINE
  8
0
 10
-10.905
 11
-10.67
 20
522.246
 21
522.671
  0
LINE
  8
0
 10
-10.67
 11
-10.354
 20
522.671
 21
523.04
  0
LINE
  8
0
 10
-10.354
 11
-9.97
 20
523.04
 21
523.337
  0
LINE
  8
0
 10
-9.97
 11
-9.534
 20
523.337
 21
523.551
  0
LINE
  8
0
 10
-9.534
 11
-9.063
 20
523.551
 21
523.672
  0
LINE
  8
0
 10
-9.063
 11
-8.578
 20
523.672
 21
523.697
  0
LINE
  8
0
 10
-8.578
 11
-8.098
 20
523.697
 21
523.623
  0
LINE
  8
0
 10
-8.098
 11
-7.643
 20
523.623
 21
523.455
  0
LINE
  8
0
 10
-7.643
 11
-7.231
 20
523.455
 21
523.198
  0
LINE
  8
0
 10
-7.231
 11
-6.879
 20
523.198
 21
522.863
  0
LINE
  8
0
 10
-6.879
 11
-6.602
 20
522.863
 21
522.465
  0
LINE
  8
0
 10
-6.602
 11
-6.41
 20
522.465
 21
522.018
  0
LINE
  8
0
 10
-6.41
 11
-6.312
 20
522.018
 21
521.543
  0
LINE
  8
0
 10
-6.312
 11
-6.312
 20
521.543
 21
521.057
  0
LINE
  8
0
 10
-6.312
 11
-6.41
 20
521.057
 21
520.582
  0
LINE
  8
0
 10
-6.41
 11
-6.602
 20
520.582
 21
520.135
  0
LINE
  8
0
 10
-6.602
 11
-6.879
 20
520.135
 21
519.737
  0
LINE
  8
0
 10
-6.879
 11
-7.231
 20
519.737
 21
519.402
  0
LINE
  8
0
 10
-7.231
 11
-7.643
 20
519.402
 21
519.145
  0
LINE
  8
0
 10
-7.643
 11
-8.098
 20
519.145
 21
518.977
  0
LINE
  8
0
 10
-8.098
 11
-8.578
 20
518.977
 21
518.903
  0
LINE
  8
0
 10
-8.578
 11
-9.063
 20
518.903
 21
518.928
  0
LINE
  8
0
 10
-9.063
 11
-9.534
 20
518.928
 21
519.049
  0
LINE
  8
0
 10
-9.534
 11
-9.97
 20
519.049
 21
519.263
  0
LINE
  8
0
 10
-9.97
 11
-10.354
 20
519.263
 21
519.56
  0
LINE
  8
0
 10
-10.354
 11
-10.67
 20
519.56
 21
519.929
  0
LINE
  8
0
 10
-10.67
 11
-10.905
 20
519.929
 21
520.354
  0
LINE
  8
0
 10
-10.905
 11
-11.051
 20
520.354
 21
520.817
  0
LINE
  8
0
 10
-11.051
 11
-11.1
 20
520.817
 21
521.3
  0
ENDSEC
  0
SECTION
  2
OBJECTS
  0
DICTIONARY
  0
ENDSEC
  0
EOF
