  0
SECTION
  2
BLOCKS
  0
ENDSEC
  0
SECTION
  2
ENTITIES
  0
LINE
  8
0
 10
-300
 11
-300
 20
227
 21
773
  0
LINE
  8
0
 10
-300
 11
-243
 20
773
 21
773
  0
LINE
  8
0
 10
-243
 11
-243
 20
773
 21
806
  0
LINE
  8
0
 10
-243
 11
243
 20
806
 21
806
  0
LINE
  8
0
 10
243
 11
243
 20
806
 21
773
  0
LINE
  8
0
 10
243
 11
300
 20
773
 21
773
  0
LINE
  8
0
 10
300
 11
300
 20
773
 21
227
  0
LINE
  8
0
 10
300
 11
243
 20
227
 21
227
  0
LINE
  8
0
 10
243
 11
243
 20
227
 21
200
  0
LINE
  8
0
 10
243
 11
-243
 20
200
 21
200
  0
LINE
  8
0
 10
-243
 11
-243
 20
200
 21
227
  0
LINE
  8
0
 10
-243
 11
-300
 20
227
 21
227
  0
LINE
  8
0
 10
-287.4
 11
-287.351
 20
245
 21
245.483
  0
LINE
  8
0
 10
-287.351
 11
-287.205
 20
245.483
 21
245.946
  0
LINE
  8
0
 10
-287.205
 11
-286.97
 20
245.946
 21
246.371
  0
LINE
  8
0
 10
-286.97
 11
-286.654
 20
246.371
 21
246.74
  0
LINE
  8
0
 10
-286.654
 11
-286.27
 20
246.74
 21
247.037
  0
LINE
  8
0
 10
-286.27
 11
-285.834
 20
247.037
 21
247.251
  0
LINE
  8
0
 10
-285.834
 11
-285.363
 20
247.251
 21
247.372
  0
LINE
  8
0
 10
-285.363
 11
-284.878
 20
247.372
 21
247.397
  0
LINE
  8
0
 10
-284.878
 11
-284.398
 20
247.397
 21
247.323
  0
LINE
  8
0
 10
-284.398
 11
-283.943
 20
247.323
 21
247.155
  0
LINE
  8
0
 10
-283.943
 11
-283.531
 20
247.155
 21
246.898
  0
LINE
  8
0
 10
-283.531
 11
-283.179
 20
246.898
 21
246.563
  0
LINE
  8
0
 10
-283.179
 11
-282.902
 20
246.563
 21
246.165
  0
LINE
  8
0
 10
-282.902
 11
-282.71
 20
246.165
 21
245.718
  0
LINE
  8
0
 10
-282.71
 11
-282.612
 20
245.718
 21
245.243
  0
LINE
  8
0
 10
-282.612
 11
-282.612
 20
245.243
 21
244.757
  0
LINE
  8
0
 10
-282.612
 11
-282.71
 20
244.757
 21
244.282
  0
LINE
  8
0
 10
-282.71
 11
-282.902
 20
244.282
 21
243.835
  0
LINE
  8
0
 10
-282.902
 11
-283.179
 20
243.835
 21
243.437
  0
LINE
  8
0
 10
-283.179
 11
-283.531
 20
243.437
 21
243.102
  0
LINE
  8
0
 10
-283.531
 11
-283.943
 20
243.102
 21
242.845
  0
LINE
  8
0
 10
-283.943
 11
-284.398
 20
242.845
 21
242.677
  0
LINE
  8
0
 10
-284.398
 11
-284.878
 20
242.677
 21
242.603
  0
LINE
  8
0
 10
-284.878
 11
-285.363
 20
242.603
 21
242.628
  0
LINE
  8
0
 10
-285.363
 11
-285.834
 20
242.628
 21
242.749
  0
LINE
  8
0
 10
-285.834
 11
-286.27
 20
242.749
 21
242.963
  0
LINE
  8
0
 10
-286.27
 11
-286.654
 20
242.963
 21
243.26
  0
LINE
  8
0
 10
-286.654
 11
-286.97
 20
243.26
 21
243.629
  0
LINE
  8
0
 10
-286.97
 11
-287.205
 20
243.629
 21
244.054
  0
LINE
  8
0
 10
-287.205
 11
-287.351
 20
244.054
 21
244.517
  0
LINE
  8
0
 10
-287.351
 11
-287.4
 20
244.517
 21
245
  0
LINE
  8
0
 10
-287.4
 11
-287.351
 20
500
 21
500.483
  0
LINE
  8
0
 10
-287.351
 11
-287.205
 20
500.483
 21
500.946
  0
LINE
  8
0
 10
-287.205
 11
-286.97
 20
500.946
 21
501.371
  0
LINE
  8
0
 10
-286.97
 11
-286.654
 20
501.371
 21
501.74
  0
LINE
  8
0
 10
-286.654
 11
-286.27
 20
501.74
 21
502.037
  0
LINE
  8
0
 10
-286.27
 11
-285.834
 20
502.037
 21
502.251
  0
LINE
  8
0
 10
-285.834
 11
-285.363
 20
502.251
 21
502.372
  0
LINE
  8
0
 10
-285.363
 11
-284.878
 20
502.372
 21
502.397
  0
LINE
  8
0
 10
-284.878
 11
-284.398
 20
502.397
 21
502.323
  0
LINE
  8
0
 10
-284.398
 11
-283.943
 20
502.323
 21
502.155
  0
LINE
  8
0
 10
-283.943
 11
-283.531
 20
502.155
 21
501.898
  0
LINE
  8
0
 10
-283.531
 11
-283.179
 20
501.898
 21
501.563
  0
LINE
  8
0
 10
-283.179
 11
-282.902
 20
501.563
 21
501.165
  0
LINE
  8
0
 10
-282.902
 11
-282.71
 20
501.165
 21
500.718
  0
LINE
  8
0
 10
-282.71
 11
-282.612
 20
500.718
 21
500.243
  0
LINE
  8
0
 10
-282.612
 11
-282.612
 20
500.243
 21
499.757
  0
LINE
  8
0
 10
-282.612
 11
-282.71
 20
499.757
 21
499.282
  0
LINE
  8
0
 10
-282.71
 11
-282.902
 20
499.282
 21
498.835
  0
LINE
  8
0
 10
-282.902
 11
-283.179
 20
498.835
 21
498.437
  0
LINE
  8
0
 10
-283.179
 11
-283.531
 20
498.437
 21
498.102
  0
LINE
  8
0
 10
-283.531
 11
-283.943
 20
498.102
 21
497.845
  0
LINE
  8
0
 10
-283.943
 11
-284.398
 20
497.845
 21
497.677
  0
LINE
  8
0
 10
-284.398
 11
-284.878
 20
497.677
 21
497.603
  0
LINE
  8
0
 10
-284.878
 11
-285.363
 20
497.603
 21
497.628
  0
LINE
  8
0
 10
-285.363
 11
-285.834
 20
497.628
 21
497.749
  0
LINE
  8
0
 10
-285.834
 11
-286.27
 20
497.749
 21
497.963
  0
LINE
  8
0
 10
-286.27
 11
-286.654
 20
497.963
 21
498.26
  0
LINE
  8
0
 10
-286.654
 11
-286.97
 20
498.26
 21
498.629
  0
LINE
  8
0
 10
-286.97
 11
-287.205
 20
498.629
 21
499.054
  0
LINE
  8
0
 10
-287.205
 11
-287.351
 20
499.054
 21
499.517
  0
LINE
  8
0
 10
-287.351
 11
-287.4
 20
499.517
 21
500
  0
LINE
  8
0
 10
-287.4
 11
-287.351
 20
755
 21
755.483
  0
LINE
  8
0
 10
-287.351
 11
-287.205
 20
755.483
 21
755.946
  0
LINE
  8
0
 10
-287.205
 11
-286.97
 20
755.946
 21
756.371
  0
LINE
  8
0
 10
-286.97
 11
-286.654
 20
756.371
 21
756.74
  0
LINE
  8
0
 10
-286.654
 11
-286.27
 20
756.74
 21
757.037
  0
LINE
  8
0
 10
-286.27
 11
-285.834
 20
757.037
 21
757.251
  0
LINE
  8
0
 10
-285.834
 11
-285.363
 20
757.251
 21
757.372
  0
LINE
  8
0
 10
-285.363
 11
-284.878
 20
757.372
 21
757.397
  0
LINE
  8
0
 10
-284.878
 11
-284.398
 20
757.397
 21
757.323
  0
LINE
  8
0
 10
-284.398
 11
-283.943
 20
757.323
 21
757.155
  0
LINE
  8
0
 10
-283.943
 11
-283.531
 20
757.155
 21
756.898
  0
LINE
  8
0
 10
-283.531
 11
-283.179
 20
756.898
 21
756.563
  0
LINE
  8
0
 10
-283.179
 11
-282.902
 20
756.563
 21
756.165
  0
LINE
  8
0
 10
-282.902
 11
-282.71
 20
756.165
 21
755.718
  0
LINE
  8
0
 10
-282.71
 11
-282.612
 20
755.718
 21
755.243
  0
LINE
  8
0
 10
-282.612
 11
-282.612
 20
755.243
 21
754.757
  0
LINE
  8
0
 10
-282.612
 11
-282.71
 20
754.757
 21
754.282
  0
LINE
  8
0
 10
-282.71
 11
-282.902
 20
754.282
 21
753.835
  0
LINE
  8
0
 10
-282.902
 11
-283.179
 20
753.835
 21
753.437
  0
LINE
  8
0
 10
-283.179
 11
-283.531
 20
753.437
 21
753.102
  0
LINE
  8
0
 10
-283.531
 11
-283.943
 20
753.102
 21
752.845
  0
LINE
  8
0
 10
-283.943
 11
-284.398
 20
752.845
 21
752.677
  0
LINE
  8
0
 10
-284.398
 11
-284.878
 20
752.677
 21
752.603
  0
LINE
  8
0
 10
-284.878
 11
-285.363
 20
752.603
 21
752.628
  0
LINE
  8
0
 10
-285.363
 11
-285.834
 20
752.628
 21
752.749
  0
LINE
  8
0
 10
-285.834
 11
-286.27
 20
752.749
 21
752.963
  0
LINE
  8
0
 10
-286.27
 11
-286.654
 20
752.963
 21
753.26
  0
LINE
  8
0
 10
-286.654
 11
-286.97
 20
753.26
 21
753.629
  0
LINE
  8
0
 10
-286.97
 11
-287.205
 20
753.629
 21
754.054
  0
LINE
  8
0
 10
-287.205
 11
-287.351
 20
754.054
 21
754.517
  0
LINE
  8
0
 10
-287.351
 11
-287.4
 20
754.517
 21
755
  0
LINE
  8
0
 10
-258.891
 11
-258.891
 20
754.918
 21
755.415
  0
LINE
  8
0
 10
-258.891
 11
-258.819
 20
755.415
 21
755.906
  0
LINE
  8
0
 10
-258.819
 11
-258.676
 20
755.906
 21
756.381
  0
LINE
  8
0
 10
-258.676
 11
-258.465
 20
756.381
 21
756.831
  0
LINE
  8
0
 10
-258.465
 11
-258.191
 20
756.831
 21
757.245
  0
LINE
  8
0
 10
-258.191
 11
-257.86
 20
757.245
 21
757.614
  0
LINE
  8
0
 10
-257.86
 11
-257.478
 20
757.614
 21
757.932
  0
LINE
  8
0
 10
-257.478
 11
-257.055
 20
757.932
 21
758.19
  0
LINE
  8
0
 10
-257.055
 11
-256.598
 20
758.19
 21
758.385
  0
LINE
  8
0
 10
-256.598
 11
-256.118
 20
758.385
 21
758.51
  0
LINE
  8
0
 10
-256.118
 11
-255.624
 20
758.51
 21
758.564
  0
LINE
  8
0
 10
-255.624
 11
-249.624
 20
758.564
 21
758.564
  0
LINE
  8
0
 10
-249.624
 11
-249.128
 20
758.564
 21
758.546
  0
LINE
  8
0
 10
-249.128
 11
-248.64
 20
758.546
 21
758.456
  0
LINE
  8
0
 10
-248.64
 11
-248.17
 20
758.456
 21
758.296
  0
LINE
  8
0
 10
-248.17
 11
-247.729
 20
758.296
 21
758.069
  0
LINE
  8
0
 10
-247.729
 11
-247.325
 20
758.069
 21
757.78
  0
LINE
  8
0
 10
-247.325
 11
-246.968
 20
757.78
 21
757.436
  0
LINE
  8
0
 10
-246.968
 11
-246.664
 20
757.436
 21
757.043
  0
LINE
  8
0
 10
-246.664
 11
-246.421
 20
757.043
 21
756.61
  0
LINE
  8
0
 10
-246.421
 11
-246.244
 20
756.61
 21
756.146
  0
LINE
  8
0
 10
-246.244
 11
-246.136
 20
756.146
 21
755.662
  0
LINE
  8
0
 10
-246.136
 11
-246.1
 20
755.662
 21
755.167
  0
LINE
  8
0
 10
-246.1
 11
-246.136
 20
755.167
 21
754.672
  0
LINE
  8
0
 10
-246.136
 11
-246.244
 20
754.672
 21
754.187
  0
LINE
  8
0
 10
-246.244
 11
-246.421
 20
754.187
 21
753.724
  0
LINE
  8
0
 10
-246.421
 11
-246.664
 20
753.724
 21
753.291
  0
LINE
  8
0
 10
-246.664
 11
-246.968
 20
753.291
 21
752.898
  0
LINE
  8
0
 10
-246.968
 11
-247.325
 20
752.898
 21
752.553
  0
LINE
  8
0
 10
-247.325
 11
-247.729
 20
752.553
 21
752.264
  0
LINE
  8
0
 10
-247.729
 11
-248.17
 20
752.264
 21
752.037
  0
LINE
  8
0
 10
-248.17
 11
-248.64
 20
752.037
 21
751.877
  0
LINE
  8
0
 10
-248.64
 11
-249.128
 20
751.877
 21
751.787
  0
LINE
  8
0
 10
-249.128
 11
-249.624
 20
751.787
 21
751.769
  0
LINE
  8
0
 10
-249.624
 11
-255.624
 20
751.769
 21
751.769
  0
LINE
  8
0
 10
-255.624
 11
-256.118
 20
751.769
 21
751.823
  0
LINE
  8
0
 10
-256.118
 11
-256.598
 20
751.823
 21
751.949
  0
LINE
  8
0
 10
-256.598
 11
-257.055
 20
751.949
 21
752.143
  0
LINE
  8
0
 10
-257.055
 11
-257.478
 20
752.143
 21
752.401
  0
LINE
  8
0
 10
-257.478
 11
-257.86
 20
752.401
 21
752.719
  0
LINE
  8
0
 10
-257.86
 11
-258.191
 20
752.719
 21
753.089
  0
LINE
  8
0
 10
-258.191
 11
-258.465
 20
753.089
 21
753.503
  0
LINE
  8
0
 10
-258.465
 11
-258.676
 20
753.503
 21
753.952
  0
LINE
  8
0
 10
-258.676
 11
-258.819
 20
753.952
 21
754.427
  0
LINE
  8
0
 10
-258.819
 11
-258.891
 20
754.427
 21
754.918
  0
LINE
  8
0
 10
-257.4
 11
-257.351
 20
625
 21
625.483
  0
LINE
  8
0
 10
-257.351
 11
-257.205
 20
625.483
 21
625.946
  0
LINE
  8
0
 10
-257.205
 11
-256.97
 20
625.946
 21
626.371
  0
LINE
  8
0
 10
-256.97
 11
-256.654
 20
626.371
 21
626.74
  0
LINE
  8
0
 10
-256.654
 11
-256.27
 20
626.74
 21
627.037
  0
LINE
  8
0
 10
-256.27
 11
-255.834
 20
627.037
 21
627.251
  0
LINE
  8
0
 10
-255.834
 11
-255.363
 20
627.251
 21
627.372
  0
LINE
  8
0
 10
-255.363
 11
-254.878
 20
627.372
 21
627.397
  0
LINE
  8
0
 10
-254.878
 11
-92.278
 20
627.397
 21
627.397
  0
LINE
  8
0
 10
-92.278
 11
-91.798
 20
627.397
 21
627.323
  0
LINE
  8
0
 10
-91.798
 11
-91.343
 20
627.323
 21
627.155
  0
LINE
  8
0
 10
-91.343
 11
-90.931
 20
627.155
 21
626.898
  0
LINE
  8
0
 10
-90.931
 11
-90.579
 20
626.898
 21
626.563
  0
LINE
  8
0
 10
-90.579
 11
-90.302
 20
626.563
 21
626.165
  0
LINE
  8
0
 10
-90.302
 11
-90.11
 20
626.165
 21
625.718
  0
LINE
  8
0
 10
-90.11
 11
-90.012
 20
625.718
 21
625.243
  0
LINE
  8
0
 10
-90.012
 11
-90.012
 20
625.243
 21
624.757
  0
LINE
  8
0
 10
-90.012
 11
-90.11
 20
624.757
 21
624.282
  0
LINE
  8
0
 10
-90.11
 11
-90.302
 20
624.282
 21
623.835
  0
LINE
  8
0
 10
-90.302
 11
-90.579
 20
623.835
 21
623.437
  0
LINE
  8
0
 10
-90.579
 11
-90.931
 20
623.437
 21
623.102
  0
LINE
  8
0
 10
-90.931
 11
-91.343
 20
623.102
 21
622.845
  0
LINE
  8
0
 10
-91.343
 11
-91.798
 20
622.845
 21
622.677
  0
LINE
  8
0
 10
-91.798
 11
-92.278
 20
622.677
 21
622.603
  0
LINE
  8
0
 10
-92.278
 11
-254.878
 20
622.603
 21
622.603
  0
LINE
  8
0
 10
-254.878
 11
-255.363
 20
622.603
 21
622.628
  0
LINE
  8
0
 10
-255.363
 11
-255.834
 20
622.628
 21
622.749
  0
LINE
  8
0
 10
-255.834
 11
-256.27
 20
622.749
 21
622.963
  0
LINE
  8
0
 10
-256.27
 11
-256.654
 20
622.963
 21
623.26
  0
LINE
  8
0
 10
-256.654
 11
-256.97
 20
623.26
 21
623.629
  0
LINE
  8
0
 10
-256.97
 11
-257.205
 20
623.629
 21
624.054
  0
LINE
  8
0
 10
-257.205
 11
-257.351
 20
624.054
 21
624.517
  0
LINE
  8
0
 10
-257.351
 11
-257.4
 20
624.517
 21
625
  0
LINE
  8
0
 10
-227.4
 11
-227.351
 20
215
 21
215.483
  0
LINE
  8
0
 10
-227.351
 11
-227.205
 20
215.483
 21
215.946
  0
LINE
  8
0
 10
-227.205
 11
-226.97
 20
215.946
 21
216.371
  0
LINE
  8
0
 10
-226.97
 11
-226.654
 20
216.371
 21
216.74
  0
LINE
  8
0
 10
-226.654
 11
-226.27
 20
216.74
 21
217.037
  0
LINE
  8
0
 10
-226.27
 11
-225.834
 20
217.037
 21
217.251
  0
LINE
  8
0
 10
-225.834
 11
-225.363
 20
217.251
 21
217.372
  0
LINE
  8
0
 10
-225.363
 11
-224.878
 20
217.372
 21
217.397
  0
LINE
  8
0
 10
-224.878
 11
-224.398
 20
217.397
 21
217.323
  0
LINE
  8
0
 10
-224.398
 11
-223.943
 20
217.323
 21
217.155
  0
LINE
  8
0
 10
-223.943
 11
-223.531
 20
217.155
 21
216.898
  0
LINE
  8
0
 10
-223.531
 11
-223.179
 20
216.898
 21
216.563
  0
LINE
  8
0
 10
-223.179
 11
-222.902
 20
216.563
 21
216.165
  0
LINE
  8
0
 10
-222.902
 11
-222.71
 20
216.165
 21
215.718
  0
LINE
  8
0
 10
-222.71
 11
-222.612
 20
215.718
 21
215.243
  0
LINE
  8
0
 10
-222.612
 11
-222.612
 20
215.243
 21
214.757
  0
LINE
  8
0
 10
-222.612
 11
-222.71
 20
214.757
 21
214.282
  0
LINE
  8
0
 10
-222.71
 11
-222.902
 20
214.282
 21
213.835
  0
LINE
  8
0
 10
-222.902
 11
-223.179
 20
213.835
 21
213.437
  0
LINE
  8
0
 10
-223.179
 11
-223.531
 20
213.437
 21
213.102
  0
LINE
  8
0
 10
-223.531
 11
-223.943
 20
213.102
 21
212.845
  0
LINE
  8
0
 10
-223.943
 11
-224.398
 20
212.845
 21
212.677
  0
LINE
  8
0
 10
-224.398
 11
-224.878
 20
212.677
 21
212.603
  0
LINE
  8
0
 10
-224.878
 11
-225.363
 20
212.603
 21
212.628
  0
LINE
  8
0
 10
-225.363
 11
-225.834
 20
212.628
 21
212.749
  0
LINE
  8
0
 10
-225.834
 11
-226.27
 20
212.749
 21
212.963
  0
LINE
  8
0
 10
-226.27
 11
-226.654
 20
212.963
 21
213.26
  0
LINE
  8
0
 10
-226.654
 11
-226.97
 20
213.26
 21
213.629
  0
LINE
  8
0
 10
-226.97
 11
-227.205
 20
213.629
 21
214.054
  0
LINE
  8
0
 10
-227.205
 11
-227.351
 20
214.054
 21
214.517
  0
LINE
  8
0
 10
-227.351
 11
-227.4
 20
214.517
 21
215
  0
LINE
  8
0
 10
-227.4
 11
-227.351
 20
785
 21
785.483
  0
LINE
  8
0
 10
-227.351
 11
-227.205
 20
785.483
 21
785.946
  0
LINE
  8
0
 10
-227.205
 11
-226.97
 20
785.946
 21
786.371
  0
LINE
  8
0
 10
-226.97
 11
-226.654
 20
786.371
 21
786.74
  0
LINE
  8
0
 10
-226.654
 11
-226.27
 20
786.74
 21
787.037
  0
LINE
  8
0
 10
-226.27
 11
-225.834
 20
787.037
 21
787.251
  0
LINE
  8
0
 10
-225.834
 11
-225.363
 20
787.251
 21
787.372
  0
LINE
  8
0
 10
-225.363
 11
-224.878
 20
787.372
 21
787.397
  0
LINE
  8
0
 10
-224.878
 11
-224.398
 20
787.397
 21
787.323
  0
LINE
  8
0
 10
-224.398
 11
-223.943
 20
787.323
 21
787.155
  0
LINE
  8
0
 10
-223.943
 11
-223.531
 20
787.155
 21
786.898
  0
LINE
  8
0
 10
-223.531
 11
-223.179
 20
786.898
 21
786.563
  0
LINE
  8
0
 10
-223.179
 11
-222.902
 20
786.563
 21
786.165
  0
LINE
  8
0
 10
-222.902
 11
-222.71
 20
786.165
 21
785.718
  0
LINE
  8
0
 10
-222.71
 11
-222.612
 20
785.718
 21
785.243
  0
LINE
  8
0
 10
-222.612
 11
-222.612
 20
785.243
 21
784.757
  0
LINE
  8
0
 10
-222.612
 11
-222.71
 20
784.757
 21
784.282
  0
LINE
  8
0
 10
-222.71
 11
-222.902
 20
784.282
 21
783.835
  0
LINE
  8
0
 10
-222.902
 11
-223.179
 20
783.835
 21
783.437
  0
LINE
  8
0
 10
-223.179
 11
-223.531
 20
783.437
 21
783.102
  0
LINE
  8
0
 10
-223.531
 11
-223.943
 20
783.102
 21
782.845
  0
LINE
  8
0
 10
-223.943
 11
-224.398
 20
782.845
 21
782.677
  0
LINE
  8
0
 10
-224.398
 11
-224.878
 20
782.677
 21
782.603
  0
LINE
  8
0
 10
-224.878
 11
-225.363
 20
782.603
 21
782.628
  0
LINE
  8
0
 10
-225.363
 11
-225.834
 20
782.628
 21
782.749
  0
LINE
  8
0
 10
-225.834
 11
-226.27
 20
782.749
 21
782.963
  0
LINE
  8
0
 10
-226.27
 11
-226.654
 20
782.963
 21
783.26
  0
LINE
  8
0
 10
-226.654
 11
-226.97
 20
783.26
 21
783.629
  0
LINE
  8
0
 10
-226.97
 11
-227.205
 20
783.629
 21
784.054
  0
LINE
  8
0
 10
-227.205
 11
-227.351
 20
784.054
 21
784.517
  0
LINE
  8
0
 10
-227.351
 11
-227.4
 20
784.517
 21
785
  0
LINE
  8
0
 10
-30
 11
-29.951
 20
625
 21
625.483
  0
LINE
  8
0
 10
-29.951
 11
-29.805
 20
625.483
 21
625.946
  0
LINE
  8
0
 10
-29.805
 11
-29.57
 20
625.946
 21
626.371
  0
LINE
  8
0
 10
-29.57
 11
-29.254
 20
626.371
 21
626.74
  0
LINE
  8
0
 10
-29.254
 11
-28.87
 20
626.74
 21
627.037
  0
LINE
  8
0
 10
-28.87
 11
-28.434
 20
627.037
 21
627.251
  0
LINE
  8
0
 10
-28.434
 11
-27.963
 20
627.251
 21
627.372
  0
LINE
  8
0
 10
-27.963
 11
-27.478
 20
627.372
 21
627.397
  0
LINE
  8
0
 10
-27.478
 11
27.478
 20
627.397
 21
627.397
  0
LINE
  8
0
 10
27.478
 11
27.963
 20
627.397
 21
627.372
  0
LINE
  8
0
 10
27.963
 11
28.434
 20
627.372
 21
627.251
  0
LINE
  8
0
 10
28.434
 11
28.87
 20
627.251
 21
627.037
  0
LINE
  8
0
 10
28.87
 11
29.254
 20
627.037
 21
626.74
  0
LINE
  8
0
 10
29.254
 11
29.57
 20
626.74
 21
626.371
  0
LINE
  8
0
 10
29.57
 11
29.805
 20
626.371
 21
625.946
  0
LINE
  8
0
 10
29.805
 11
29.951
 20
625.946
 21
625.483
  0
LINE
  8
0
 10
29.951
 11
30
 20
625.483
 21
625
  0
LINE
  8
0
 10
30
 11
29.951
 20
625
 21
624.517
  0
LINE
  8
0
 10
29.951
 11
29.805
 20
624.517
 21
624.054
  0
LINE
  8
0
 10
29.805
 11
29.57
 20
624.054
 21
623.629
  0
LINE
  8
0
 10
29.57
 11
29.254
 20
623.629
 21
623.26
  0
LINE
  8
0
 10
29.254
 11
28.87
 20
623.26
 21
622.963
  0
LINE
  8
0
 10
28.87
 11
28.434
 20
622.963
 21
622.749
  0
LINE
  8
0
 10
28.434
 11
27.963
 20
622.749
 21
622.628
  0
LINE
  8
0
 10
27.963
 11
27.478
 20
622.628
 21
622.603
  0
LINE
  8
0
 10
27.478
 11
-27.478
 20
622.603
 21
622.603
  0
LINE
  8
0
 10
-27.478
 11
-27.963
 20
622.603
 21
622.628
  0
LINE
  8
0
 10
-27.963
 11
-28.434
 20
622.628
 21
622.749
  0
LINE
  8
0
 10
-28.434
 11
-28.87
 20
622.749
 21
622.963
  0
LINE
  8
0
 10
-28.87
 11
-29.254
 20
622.963
 21
623.26
  0
LINE
  8
0
 10
-29.254
 11
-29.57
 20
623.26
 21
623.629
  0
LINE
  8
0
 10
-29.57
 11
-29.805
 20
623.629
 21
624.054
  0
LINE
  8
0
 10
-29.805
 11
-29.951
 20
624.054
 21
624.517
  0
LINE
  8
0
 10
-29.951
 11
-30
 20
624.517
 21
625
  0
LINE
  8
0
 10
-5
 11
-4.935
 20
641.9
 21
642.392
  0
LINE
  8
0
 10
-4.935
 11
-4.745
 20
642.392
 21
642.85
  0
LINE
  8
0
 10
-4.745
 11
-4.444
 20
642.85
 21
643.244
  0
LINE
  8
0
 10
-4.444
 11
-4.05
 20
643.244
 21
643.545
  0
LINE
  8
0
 10
-4.05
 11
-3.592
 20
643.545
 21
643.735
  0
LINE
  8
0
 10
-3.592
 11
-3.1
 20
643.735
 21
643.8
  0
LINE
  8
0
 10
-3.1
 11
3.1
 20
643.8
 21
643.8
  0
LINE
  8
0
 10
3.1
 11
3.592
 20
643.8
 21
643.735
  0
LINE
  8
0
 10
3.592
 11
4.05
 20
643.735
 21
643.545
  0
LINE
  8
0
 10
4.05
 11
4.444
 20
643.545
 21
643.244
  0
LINE
  8
0
 10
4.444
 11
4.745
 20
643.244
 21
642.85
  0
LINE
  8
0
 10
4.745
 11
4.935
 20
642.85
 21
642.392
  0
LINE
  8
0
 10
4.935
 11
5
 20
642.392
 21
641.9
  0
LINE
  8
0
 10
5
 11
4.935
 20
641.9
 21
641.408
  0
LINE
  8
0
 10
4.935
 11
4.745
 20
641.408
 21
640.95
  0
LINE
  8
0
 10
4.745
 11
4.444
 20
640.95
 21
640.556
  0
LINE
  8
0
 10
4.444
 11
4.05
 20
640.556
 21
640.255
  0
LINE
  8
0
 10
4.05
 11
3.592
 20
640.255
 21
640.065
  0
LINE
  8
0
 10
3.592
 11
3.1
 20
640.065
 21
640
  0
LINE
  8
0
 10
3.1
 11
-3.1
 20
640
 21
640
  0
LINE
  8
0
 10
-3.1
 11
-3.592
 20
640
 21
640.065
  0
LINE
  8
0
 10
-3.592
 11
-4.05
 20
640.065
 21
640.255
  0
LINE
  8
0
 10
-4.05
 11
-4.444
 20
640.255
 21
640.556
  0
LINE
  8
0
 10
-4.444
 11
-4.745
 20
640.556
 21
640.95
  0
LINE
  8
0
 10
-4.745
 11
-4.935
 20
640.95
 21
641.408
  0
LINE
  8
0
 10
-4.935
 11
-5
 20
641.408
 21
641.9
  0
LINE
  8
0
 10
-2.4
 11
-2.388
 20
215
 21
215.121
  0
LINE
  8
0
 10
-2.388
 11
-2.388
 20
215.121
 21
215.243
  0
LINE
  8
0
 10
-2.388
 11
-2.363
 20
215.243
 21
215.362
  0
LINE
  8
0
 10
-2.363
 11
-2.351
 20
215.362
 21
215.483
  0
LINE
  8
0
 10
-2.351
 11
-2.314
 20
215.483
 21
215.599
  0
LINE
  8
0
 10
-2.314
 11
-2.29
 20
215.599
 21
215.718
  0
LINE
  8
0
 10
-2.29
 11
-2.242
 20
215.718
 21
215.83
  0
LINE
  8
0
 10
-2.242
 11
-2.205
 20
215.83
 21
215.946
  0
LINE
  8
0
 10
-2.205
 11
-2.146
 20
215.946
 21
216.053
  0
LINE
  8
0
 10
-2.146
 11
-2.098
 20
216.053
 21
216.165
  0
LINE
  8
0
 10
-2.098
 11
-2.029
 20
216.165
 21
216.265
  0
LINE
  8
0
 10
-2.029
 11
-1.97
 20
216.265
 21
216.371
  0
LINE
  8
0
 10
-1.97
 11
-1.891
 20
216.371
 21
216.463
  0
LINE
  8
0
 10
-1.891
 11
-1.821
 20
216.463
 21
216.563
  0
LINE
  8
0
 10
-1.821
 11
-1.733
 20
216.563
 21
216.647
  0
LINE
  8
0
 10
-1.733
 11
-1.654
 20
216.647
 21
216.74
  0
LINE
  8
0
 10
-1.654
 11
-1.557
 20
216.74
 21
216.814
  0
LINE
  8
0
 10
-1.557
 11
-1.469
 20
216.814
 21
216.898
  0
LINE
  8
0
 10
-1.469
 11
-1.366
 20
216.898
 21
216.962
  0
LINE
  8
0
 10
-1.366
 11
-1.27
 20
216.962
 21
217.037
  0
LINE
  8
0
 10
-1.27
 11
-1.16
 20
217.037
 21
217.09
  0
LINE
  8
0
 10
-1.16
 11
-1.057
 20
217.09
 21
217.155
  0
LINE
  8
0
 10
-1.057
 11
-0.943
 20
217.155
 21
217.197
  0
LINE
  8
0
 10
-0.943
 11
-0.834
 20
217.197
 21
217.251
  0
LINE
  8
0
 10
-0.834
 11
-0.716
 20
217.251
 21
217.281
  0
LINE
  8
0
 10
-0.716
 11
-0.602
 20
217.281
 21
217.323
  0
LINE
  8
0
 10
-0.602
 11
-0.481
 20
217.323
 21
217.342
  0
LINE
  8
0
 10
-0.481
 11
-0.363
 20
217.342
 21
217.372
  0
LINE
  8
0
 10
-0.363
 11
-0.242
 20
217.372
 21
217.378
  0
LINE
  8
0
 10
-0.242
 11
-0.122
 20
217.378
 21
217.397
  0
LINE
  8
0
 10
-0.122
 11
0
 20
217.397
 21
217.391
  0
LINE
  8
0
 10
0
 11
0.122
 20
217.391
 21
217.397
  0
LINE
  8
0
 10
0.122
 11
0.242
 20
217.397
 21
217.378
  0
LINE
  8
0
 10
0.242
 11
0.363
 20
217.378
 21
217.372
  0
LINE
  8
0
 10
0.363
 11
0.481
 20
217.372
 21
217.342
  0
LINE
  8
0
 10
0.481
 11
0.602
 20
217.342
 21
217.323
  0
LINE
  8
0
 10
0.602
 11
0.716
 20
217.323
 21
217.281
  0
LINE
  8
0
 10
0.716
 11
0.834
 20
217.281
 21
217.251
  0
LINE
  8
0
 10
0.834
 11
0.943
 20
217.251
 21
217.197
  0
LINE
  8
0
 10
0.943
 11
1.057
 20
217.197
 21
217.155
  0
LINE
  8
0
 10
1.057
 11
1.16
 20
217.155
 21
217.09
  0
LINE
  8
0
 10
1.16
 11
1.27
 20
217.09
 21
217.037
  0
LINE
  8
0
 10
1.27
 11
1.366
 20
217.037
 21
216.962
  0
LINE
  8
0
 10
1.366
 11
1.469
 20
216.962
 21
216.898
  0
LINE
  8
0
 10
1.469
 11
1.557
 20
216.898
 21
216.814
  0
LINE
  8
0
 10
1.557
 11
1.654
 20
216.814
 21
216.74
  0
LINE
  8
0
 10
1.654
 11
1.733
 20
216.74
 21
216.647
  0
LINE
  8
0
 10
1.733
 11
1.821
 20
216.647
 21
216.563
  0
LINE
  8
0
 10
1.821
 11
1.891
 20
216.563
 21
216.463
  0
LINE
  8
0
 10
1.891
 11
1.97
 20
216.463
 21
216.371
  0
LINE
  8
0
 10
1.97
 11
2.029
 20
216.371
 21
216.265
  0
LINE
  8
0
 10
2.029
 11
2.098
 20
216.265
 21
216.165
  0
LINE
  8
0
 10
2.098
 11
2.146
 20
216.165
 21
216.053
  0
LINE
  8
0
 10
2.146
 11
2.205
 20
216.053
 21
215.946
  0
LINE
  8
0
 10
2.205
 11
2.242
 20
215.946
 21
215.83
  0
LINE
  8
0
 10
2.242
 11
2.29
 20
215.83
 21
215.718
  0
LINE
  8
0
 10
2.29
 11
2.314
 20
215.718
 21
215.599
  0
LINE
  8
0
 10
2.314
 11
2.351
 20
215.599
 21
215.483
  0
LINE
  8
0
 10
2.351
 11
2.363
 20
215.483
 21
215.362
  0
LINE
  8
0
 10
2.363
 11
2.388
 20
215.362
 21
215.243
  0
LINE
  8
0
 10
2.388
 11
2.388
 20
215.243
 21
215.121
  0
LINE
  8
0
 10
2.388
 11
2.4
 20
215.121
 21
215
  0
LINE
  8
0
 10
2.4
 11
2.388
 20
215
 21
214.879
  0
LINE
  8
0
 10
2.388
 11
2.388
 20
214.879
 21
214.757
  0
LINE
  8
0
 10
2.388
 11
2.363
 20
214.757
 21
214.638
  0
LINE
  8
0
 10
2.363
 11
2.351
 20
214.638
 21
214.517
  0
LINE
  8
0
 10
2.351
 11
2.314
 20
214.517
 21
214.401
  0
LINE
  8
0
 10
2.314
 11
2.29
 20
214.401
 21
214.282
  0
LINE
  8
0
 10
2.29
 11
2.242
 20
214.282
 21
214.17
  0
LINE
  8
0
 10
2.242
 11
2.205
 20
214.17
 21
214.054
  0
LINE
  8
0
 10
2.205
 11
2.146
 20
214.054
 21
213.947
  0
LINE
  8
0
 10
2.146
 11
2.098
 20
213.947
 21
213.835
  0
LINE
  8
0
 10
2.098
 11
2.029
 20
213.835
 21
213.735
  0
LINE
  8
0
 10
2.029
 11
1.97
 20
213.735
 21
213.629
  0
LINE
  8
0
 10
1.97
 11
1.891
 20
213.629
 21
213.537
  0
LINE
  8
0
 10
1.891
 11
1.821
 20
213.537
 21
213.437
  0
LINE
  8
0
 10
1.821
 11
1.733
 20
213.437
 21
213.353
  0
LINE
  8
0
 10
1.733
 11
1.654
 20
213.353
 21
213.26
  0
LINE
  8
0
 10
1.654
 11
1.557
 20
213.26
 21
213.186
  0
LINE
  8
0
 10
1.557
 11
1.469
 20
213.186
 21
213.102
  0
LINE
  8
0
 10
1.469
 11
1.366
 20
213.102
 21
213.038
  0
LINE
  8
0
 10
1.366
 11
1.27
 20
213.038
 21
212.963
  0
LINE
  8
0
 10
1.27
 11
1.16
 20
212.963
 21
212.91
  0
LINE
  8
0
 10
1.16
 11
1.057
 20
212.91
 21
212.845
  0
LINE
  8
0
 10
1.057
 11
0.943
 20
212.845
 21
212.803
  0
LINE
  8
0
 10
0.943
 11
0.834
 20
212.803
 21
212.749
  0
LINE
  8
0
 10
0.834
 11
0.716
 20
212.749
 21
212.719
  0
LINE
  8
0
 10
0.716
 11
0.602
 20
212.719
 21
212.677
  0
LINE
  8
0
 10
0.602
 11
0.481
 20
212.677
 21
212.658
  0
LINE
  8
0
 10
0.481
 11
0.363
 20
212.658
 21
212.628
  0
LINE
  8
0
 10
0.363
 11
0.242
 20
212.628
 21
212.622
  0
LINE
  8
0
 10
0.242
 11
0.122
 20
212.622
 21
212.603
  0
LINE
  8
0
 10
0.122
 11
0
 20
212.603
 21
212.609
  0
LINE
  8
0
 10
0
 11
-0.122
 20
212.609
 21
212.603
  0
LINE
  8
0
 10
-0.122
 11
-0.242
 20
212.603
 21
212.622
  0
LINE
  8
0
 10
-0.242
 11
-0.363
 20
212.622
 21
212.628
  0
LINE
  8
0
 10
-0.363
 11
-0.481
 20
212.628
 21
212.658
  0
LINE
  8
0
 10
-0.481
 11
-0.602
 20
212.658
 21
212.677
  0
LINE
  8
0
 10
-0.602
 11
-0.716
 20
212.677
 21
212.719
  0
LINE
  8
0
 10
-0.716
 11
-0.834
 20
212.719
 21
212.749
  0
LINE
  8
0
 10
-0.834
 11
-0.943
 20
212.749
 21
212.803
  0
LINE
  8
0
 10
-0.943
 11
-1.057
 20
212.803
 21
212.845
  0
LINE
  8
0
 10
-1.057
 11
-1.16
 20
212.845
 21
212.91
  0
LINE
  8
0
 10
-1.16
 11
-1.27
 20
212.91
 21
212.963
  0
LINE
  8
0
 10
-1.27
 11
-1.366
 20
212.963
 21
213.038
  0
LINE
  8
0
 10
-1.366
 11
-1.469
 20
213.038
 21
213.102
  0
LINE
  8
0
 10
-1.469
 11
-1.557
 20
213.102
 21
213.186
  0
LINE
  8
0
 10
-1.557
 11
-1.654
 20
213.186
 21
213.26
  0
LINE
  8
0
 10
-1.654
 11
-1.733
 20
213.26
 21
213.353
  0
LINE
  8
0
 10
-1.733
 11
-1.821
 20
213.353
 21
213.437
  0
LINE
  8
0
 10
-1.821
 11
-1.891
 20
213.437
 21
213.537
  0
LINE
  8
0
 10
-1.891
 11
-1.97
 20
213.537
 21
213.629
  0
LINE
  8
0
 10
-1.97
 11
-2.029
 20
213.629
 21
213.735
  0
LINE
  8
0
 10
-2.029
 11
-2.098
 20
213.735
 21
213.835
  0
LINE
  8
0
 10
-2.098
 11
-2.146
 20
213.835
 21
213.947
  0
LINE
  8
0
 10
-2.146
 11
-2.205
 20
213.947
 21
214.054
  0
LINE
  8
0
 10
-2.205
 11
-2.242
 20
214.054
 21
214.17
  0
LINE
  8
0
 10
-2.242
 11
-2.29
 20
214.17
 21
214.282
  0
LINE
  8
0
 10
-2.29
 11
-2.314
 20
214.282
 21
214.401
  0
LINE
  8
0
 10
-2.314
 11
-2.351
 20
214.401
 21
214.517
  0
LINE
  8
0
 10
-2.351
 11
-2.363
 20
214.517
 21
214.638
  0
LINE
  8
0
 10
-2.363
 11
-2.388
 20
214.638
 21
214.757
  0
LINE
  8
0
 10
-2.388
 11
-2.388
 20
214.757
 21
214.879
  0
LINE
  8
0
 10
-2.388
 11
-2.4
 20
214.879
 21
215
  0
LINE
  8
0
 10
-2.4
 11
-2.388
 20
785
 21
785.121
  0
LINE
  8
0
 10
-2.388
 11
-2.388
 20
785.121
 21
785.243
  0
LINE
  8
0
 10
-2.388
 11
-2.363
 20
785.243
 21
785.362
  0
LINE
  8
0
 10
-2.363
 11
-2.351
 20
785.362
 21
785.483
  0
LINE
  8
0
 10
-2.351
 11
-2.314
 20
785.483
 21
785.599
  0
LINE
  8
0
 10
-2.314
 11
-2.29
 20
785.599
 21
785.718
  0
LINE
  8
0
 10
-2.29
 11
-2.242
 20
785.718
 21
785.83
  0
LINE
  8
0
 10
-2.242
 11
-2.205
 20
785.83
 21
785.946
  0
LINE
  8
0
 10
-2.205
 11
-2.146
 20
785.946
 21
786.053
  0
LINE
  8
0
 10
-2.146
 11
-2.098
 20
786.053
 21
786.165
  0
LINE
  8
0
 10
-2.098
 11
-2.029
 20
786.165
 21
786.265
  0
LINE
  8
0
 10
-2.029
 11
-1.97
 20
786.265
 21
786.371
  0
LINE
  8
0
 10
-1.97
 11
-1.891
 20
786.371
 21
786.463
  0
LINE
  8
0
 10
-1.891
 11
-1.821
 20
786.463
 21
786.563
  0
LINE
  8
0
 10
-1.821
 11
-1.733
 20
786.563
 21
786.647
  0
LINE
  8
0
 10
-1.733
 11
-1.654
 20
786.647
 21
786.74
  0
LINE
  8
0
 10
-1.654
 11
-1.557
 20
786.74
 21
786.814
  0
LINE
  8
0
 10
-1.557
 11
-1.469
 20
786.814
 21
786.898
  0
LINE
  8
0
 10
-1.469
 11
-1.366
 20
786.898
 21
786.962
  0
LINE
  8
0
 10
-1.366
 11
-1.27
 20
786.962
 21
787.037
  0
LINE
  8
0
 10
-1.27
 11
-1.16
 20
787.037
 21
787.09
  0
LINE
  8
0
 10
-1.16
 11
-1.057
 20
787.09
 21
787.155
  0
LINE
  8
0
 10
-1.057
 11
-0.943
 20
787.155
 21
787.197
  0
LINE
  8
0
 10
-0.943
 11
-0.834
 20
787.197
 21
787.251
  0
LINE
  8
0
 10
-0.834
 11
-0.716
 20
787.251
 21
787.281
  0
LINE
  8
0
 10
-0.716
 11
-0.602
 20
787.281
 21
787.323
  0
LINE
  8
0
 10
-0.602
 11
-0.481
 20
787.323
 21
787.342
  0
LINE
  8
0
 10
-0.481
 11
-0.363
 20
787.342
 21
787.372
  0
LINE
  8
0
 10
-0.363
 11
-0.242
 20
787.372
 21
787.378
  0
LINE
  8
0
 10
-0.242
 11
-0.122
 20
787.378
 21
787.397
  0
LINE
  8
0
 10
-0.122
 11
0
 20
787.397
 21
787.391
  0
LINE
  8
0
 10
0
 11
0.122
 20
787.391
 21
787.397
  0
LINE
  8
0
 10
0.122
 11
0.242
 20
787.397
 21
787.378
  0
LINE
  8
0
 10
0.242
 11
0.363
 20
787.378
 21
787.372
  0
LINE
  8
0
 10
0.363
 11
0.481
 20
787.372
 21
787.342
  0
LINE
  8
0
 10
0.481
 11
0.602
 20
787.342
 21
787.323
  0
LINE
  8
0
 10
0.602
 11
0.716
 20
787.323
 21
787.281
  0
LINE
  8
0
 10
0.716
 11
0.834
 20
787.281
 21
787.251
  0
LINE
  8
0
 10
0.834
 11
0.943
 20
787.251
 21
787.197
  0
LINE
  8
0
 10
0.943
 11
1.057
 20
787.197
 21
787.155
  0
LINE
  8
0
 10
1.057
 11
1.16
 20
787.155
 21
787.09
  0
LINE
  8
0
 10
1.16
 11
1.27
 20
787.09
 21
787.037
  0
LINE
  8
0
 10
1.27
 11
1.366
 20
787.037
 21
786.962
  0
LINE
  8
0
 10
1.366
 11
1.469
 20
786.962
 21
786.898
  0
LINE
  8
0
 10
1.469
 11
1.557
 20
786.898
 21
786.814
  0
LINE
  8
0
 10
1.557
 11
1.654
 20
786.814
 21
786.74
  0
LINE
  8
0
 10
1.654
 11
1.733
 20
786.74
 21
786.647
  0
LINE
  8
0
 10
1.733
 11
1.821
 20
786.647
 21
786.563
  0
LINE
  8
0
 10
1.821
 11
1.891
 20
786.563
 21
786.463
  0
LINE
  8
0
 10
1.891
 11
1.97
 20
786.463
 21
786.371
  0
LINE
  8
0
 10
1.97
 11
2.029
 20
786.371
 21
786.265
  0
LINE
  8
0
 10
2.029
 11
2.098
 20
786.265
 21
786.165
  0
LINE
  8
0
 10
2.098
 11
2.146
 20
786.165
 21
786.053
  0
LINE
  8
0
 10
2.146
 11
2.205
 20
786.053
 21
785.946
  0
LINE
  8
0
 10
2.205
 11
2.242
 20
785.946
 21
785.83
  0
LINE
  8
0
 10
2.242
 11
2.29
 20
785.83
 21
785.718
  0
LINE
  8
0
 10
2.29
 11
2.314
 20
785.718
 21
785.599
  0
LINE
  8
0
 10
2.314
 11
2.351
 20
785.599
 21
785.483
  0
LINE
  8
0
 10
2.351
 11
2.363
 20
785.483
 21
785.362
  0
LINE
  8
0
 10
2.363
 11
2.388
 20
785.362
 21
785.243
  0
LINE
  8
0
 10
2.388
 11
2.388
 20
785.243
 21
785.121
  0
LINE
  8
0
 10
2.388
 11
2.4
 20
785.121
 21
785
  0
LINE
  8
0
 10
2.4
 11
2.388
 20
785
 21
784.879
  0
LINE
  8
0
 10
2.388
 11
2.388
 20
784.879
 21
784.757
  0
LINE
  8
0
 10
2.388
 11
2.363
 20
784.757
 21
784.638
  0
LINE
  8
0
 10
2.363
 11
2.351
 20
784.638
 21
784.517
  0
LINE
  8
0
 10
2.351
 11
2.314
 20
784.517
 21
784.401
  0
LINE
  8
0
 10
2.314
 11
2.29
 20
784.401
 21
784.282
  0
LINE
  8
0
 10
2.29
 11
2.242
 20
784.282
 21
784.17
  0
LINE
  8
0
 10
2.242
 11
2.205
 20
784.17
 21
784.054
  0
LINE
  8
0
 10
2.205
 11
2.146
 20
784.054
 21
783.947
  0
LINE
  8
0
 10
2.146
 11
2.098
 20
783.947
 21
783.835
  0
LINE
  8
0
 10
2.098
 11
2.029
 20
783.835
 21
783.735
  0
LINE
  8
0
 10
2.029
 11
1.97
 20
783.735
 21
783.629
  0
LINE
  8
0
 10
1.97
 11
1.891
 20
783.629
 21
783.537
  0
LINE
  8
0
 10
1.891
 11
1.821
 20
783.537
 21
783.437
  0
LINE
  8
0
 10
1.821
 11
1.733
 20
783.437
 21
783.353
  0
LINE
  8
0
 10
1.733
 11
1.654
 20
783.353
 21
783.26
  0
LINE
  8
0
 10
1.654
 11
1.557
 20
783.26
 21
783.186
  0
LINE
  8
0
 10
1.557
 11
1.469
 20
783.186
 21
783.102
  0
LINE
  8
0
 10
1.469
 11
1.366
 20
783.102
 21
783.038
  0
LINE
  8
0
 10
1.366
 11
1.27
 20
783.038
 21
782.963
  0
LINE
  8
0
 10
1.27
 11
1.16
 20
782.963
 21
782.91
  0
LINE
  8
0
 10
1.16
 11
1.057
 20
782.91
 21
782.845
  0
LINE
  8
0
 10
1.057
 11
0.943
 20
782.845
 21
782.803
  0
LINE
  8
0
 10
0.943
 11
0.834
 20
782.803
 21
782.749
  0
LINE
  8
0
 10
0.834
 11
0.716
 20
782.749
 21
782.719
  0
LINE
  8
0
 10
0.716
 11
0.602
 20
782.719
 21
782.677
  0
LINE
  8
0
 10
0.602
 11
0.481
 20
782.677
 21
782.658
  0
LINE
  8
0
 10
0.481
 11
0.363
 20
782.658
 21
782.628
  0
LINE
  8
0
 10
0.363
 11
0.242
 20
782.628
 21
782.622
  0
LINE
  8
0
 10
0.242
 11
0.122
 20
782.622
 21
782.603
  0
LINE
  8
0
 10
0.122
 11
0
 20
782.603
 21
782.609
  0
LINE
  8
0
 10
0
 11
-0.122
 20
782.609
 21
782.603
  0
LINE
  8
0
 10
-0.122
 11
-0.242
 20
782.603
 21
782.622
  0
LINE
  8
0
 10
-0.242
 11
-0.363
 20
782.622
 21
782.628
  0
LINE
  8
0
 10
-0.363
 11
-0.481
 20
782.628
 21
782.658
  0
LINE
  8
0
 10
-0.481
 11
-0.602
 20
782.658
 21
782.677
  0
LINE
  8
0
 10
-0.602
 11
-0.716
 20
782.677
 21
782.719
  0
LINE
  8
0
 10
-0.716
 11
-0.834
 20
782.719
 21
782.749
  0
LINE
  8
0
 10
-0.834
 11
-0.943
 20
782.749
 21
782.803
  0
LINE
  8
0
 10
-0.943
 11
-1.057
 20
782.803
 21
782.845
  0
LINE
  8
0
 10
-1.057
 11
-1.16
 20
782.845
 21
782.91
  0
LINE
  8
0
 10
-1.16
 11
-1.27
 20
782.91
 21
782.963
  0
LINE
  8
0
 10
-1.27
 11
-1.366
 20
782.963
 21
783.038
  0
LINE
  8
0
 10
-1.366
 11
-1.469
 20
783.038
 21
783.102
  0
LINE
  8
0
 10
-1.469
 11
-1.557
 20
783.102
 21
783.186
  0
LINE
  8
0
 10
-1.557
 11
-1.654
 20
783.186
 21
783.26
  0
LINE
  8
0
 10
-1.654
 11
-1.733
 20
783.26
 21
783.353
  0
LINE
  8
0
 10
-1.733
 11
-1.821
 20
783.353
 21
783.437
  0
LINE
  8
0
 10
-1.821
 11
-1.891
 20
783.437
 21
783.537
  0
LINE
  8
0
 10
-1.891
 11
-1.97
 20
783.537
 21
783.629
  0
LINE
  8
0
 10
-1.97
 11
-2.029
 20
783.629
 21
783.735
  0
LINE
  8
0
 10
-2.029
 11
-2.098
 20
783.735
 21
783.835
  0
LINE
  8
0
 10
-2.098
 11
-2.146
 20
783.835
 21
783.947
  0
LINE
  8
0
 10
-2.146
 11
-2.205
 20
783.947
 21
784.054
  0
LINE
  8
0
 10
-2.205
 11
-2.242
 20
784.054
 21
784.17
  0
LINE
  8
0
 10
-2.242
 11
-2.29
 20
784.17
 21
784.282
  0
LINE
  8
0
 10
-2.29
 11
-2.314
 20
784.282
 21
784.401
  0
LINE
  8
0
 10
-2.314
 11
-2.351
 20
784.401
 21
784.517
  0
LINE
  8
0
 10
-2.351
 11
-2.363
 20
784.517
 21
784.638
  0
LINE
  8
0
 10
-2.363
 11
-2.388
 20
784.638
 21
784.757
  0
LINE
  8
0
 10
-2.388
 11
-2.388
 20
784.757
 21
784.879
  0
LINE
  8
0
 10
-2.388
 11
-2.4
 20
784.879
 21
785
  0
LINE
  8
0
 10
90.012
 11
90.012
 20
624.757
 21
625.243
  0
LINE
  8
0
 10
90.012
 11
90.11
 20
625.243
 21
625.718
  0
LINE
  8
0
 10
90.11
 11
90.302
 20
625.718
 21
626.165
  0
LINE
  8
0
 10
90.302
 11
90.579
 20
626.165
 21
626.563
  0
LINE
  8
0
 10
90.579
 11
90.931
 20
626.563
 21
626.898
  0
LINE
  8
0
 10
90.931
 11
91.343
 20
626.898
 21
627.155
  0
LINE
  8
0
 10
91.343
 11
91.798
 20
627.155
 21
627.323
  0
LINE
  8
0
 10
91.798
 11
92.278
 20
627.323
 21
627.397
  0
LINE
  8
0
 10
92.278
 11
254.878
 20
627.397
 21
627.397
  0
LINE
  8
0
 10
254.878
 11
255.363
 20
627.397
 21
627.372
  0
LINE
  8
0
 10
255.363
 11
255.834
 20
627.372
 21
627.251
  0
LINE
  8
0
 10
255.834
 11
256.27
 20
627.251
 21
627.037
  0
LINE
  8
0
 10
256.27
 11
256.654
 20
627.037
 21
626.74
  0
LINE
  8
0
 10
256.654
 11
256.97
 20
626.74
 21
626.371
  0
LINE
  8
0
 10
256.97
 11
257.205
 20
626.371
 21
625.946
  0
LINE
  8
0
 10
257.205
 11
257.351
 20
625.946
 21
625.483
  0
LINE
  8
0
 10
257.351
 11
257.4
 20
625.483
 21
625
  0
LINE
  8
0
 10
257.4
 11
257.351
 20
625
 21
624.517
  0
LINE
  8
0
 10
257.351
 11
257.205
 20
624.517
 21
624.054
  0
LINE
  8
0
 10
257.205
 11
256.97
 20
624.054
 21
623.629
  0
LINE
  8
0
 10
256.97
 11
256.654
 20
623.629
 21
623.26
  0
LINE
  8
0
 10
256.654
 11
256.27
 20
623.26
 21
622.963
  0
LINE
  8
0
 10
256.27
 11
255.834
 20
622.963
 21
622.749
  0
LINE
  8
0
 10
255.834
 11
255.363
 20
622.749
 21
622.628
  0
LINE
  8
0
 10
255.363
 11
254.878
 20
622.628
 21
622.603
  0
LINE
  8
0
 10
254.878
 11
92.278
 20
622.603
 21
622.603
  0
LINE
  8
0
 10
92.278
 11
91.798
 20
622.603
 21
622.677
  0
LINE
  8
0
 10
91.798
 11
91.343
 20
622.677
 21
622.845
  0
LINE
  8
0
 10
91.343
 11
90.931
 20
622.845
 21
623.102
  0
LINE
  8
0
 10
90.931
 11
90.579
 20
623.102
 21
623.437
  0
LINE
  8
0
 10
90.579
 11
90.302
 20
623.437
 21
623.835
  0
LINE
  8
0
 10
90.302
 11
90.11
 20
623.835
 21
624.282
  0
LINE
  8
0
 10
90.11
 11
90.012
 20
624.282
 21
624.757
  0
LINE
  8
0
 10
222.612
 11
222.612
 20
214.757
 21
215.243
  0
LINE
  8
0
 10
222.612
 11
222.71
 20
215.243
 21
215.718
  0
LINE
  8
0
 10
222.71
 11
222.902
 20
215.718
 21
216.165
  0
LINE
  8
0
 10
222.902
 11
223.179
 20
216.165
 21
216.563
  0
LINE
  8
0
 10
223.179
 11
223.531
 20
216.563
 21
216.898
  0
LINE
  8
0
 10
223.531
 11
223.943
 20
216.898
 21
217.155
  0
LINE
  8
0
 10
223.943
 11
224.398
 20
217.155
 21
217.323
  0
LINE
  8
0
 10
224.398
 11
224.878
 20
217.323
 21
217.397
  0
LINE
  8
0
 10
224.878
 11
225.363
 20
217.397
 21
217.372
  0
LINE
  8
0
 10
225.363
 11
225.834
 20
217.372
 21
217.251
  0
LINE
  8
0
 10
225.834
 11
226.27
 20
217.251
 21
217.037
  0
LINE
  8
0
 10
226.27
 11
226.654
 20
217.037
 21
216.74
  0
LINE
  8
0
 10
226.654
 11
226.97
 20
216.74
 21
216.371
  0
LINE
  8
0
 10
226.97
 11
227.205
 20
216.371
 21
215.946
  0
LINE
  8
0
 10
227.205
 11
227.351
 20
215.946
 21
215.483
  0
LINE
  8
0
 10
227.351
 11
227.4
 20
215.483
 21
215
  0
LINE
  8
0
 10
227.4
 11
227.351
 20
215
 21
214.517
  0
LINE
  8
0
 10
227.351
 11
227.205
 20
214.517
 21
214.054
  0
LINE
  8
0
 10
227.205
 11
226.97
 20
214.054
 21
213.629
  0
LINE
  8
0
 10
226.97
 11
226.654
 20
213.629
 21
213.26
  0
LINE
  8
0
 10
226.654
 11
226.27
 20
213.26
 21
212.963
  0
LINE
  8
0
 10
226.27
 11
225.834
 20
212.963
 21
212.749
  0
LINE
  8
0
 10
225.834
 11
225.363
 20
212.749
 21
212.628
  0
LINE
  8
0
 10
225.363
 11
224.878
 20
212.628
 21
212.603
  0
LINE
  8
0
 10
224.878
 11
224.398
 20
212.603
 21
212.677
  0
LINE
  8
0
 10
224.398
 11
223.943
 20
212.677
 21
212.845
  0
LINE
  8
0
 10
223.943
 11
223.531
 20
212.845
 21
213.102
  0
LINE
  8
0
 10
223.531
 11
223.179
 20
213.102
 21
213.437
  0
LINE
  8
0
 10
223.179
 11
222.902
 20
213.437
 21
213.835
  0
LINE
  8
0
 10
222.902
 11
222.71
 20
213.835
 21
214.282
  0
LINE
  8
0
 10
222.71
 11
222.612
 20
214.282
 21
214.757
  0
LINE
  8
0
 10
222.612
 11
222.612
 20
784.757
 21
785.243
  0
LINE
  8
0
 10
222.612
 11
222.71
 20
785.243
 21
785.718
  0
LINE
  8
0
 10
222.71
 11
222.902
 20
785.718
 21
786.165
  0
LINE
  8
0
 10
222.902
 11
223.179
 20
786.165
 21
786.563
  0
LINE
  8
0
 10
223.179
 11
223.531
 20
786.563
 21
786.898
  0
LINE
  8
0
 10
223.531
 11
223.943
 20
786.898
 21
787.155
  0
LINE
  8
0
 10
223.943
 11
224.398
 20
787.155
 21
787.323
  0
LINE
  8
0
 10
224.398
 11
224.878
 20
787.323
 21
787.397
  0
LINE
  8
0
 10
224.878
 11
225.363
 20
787.397
 21
787.372
  0
LINE
  8
0
 10
225.363
 11
225.834
 20
787.372
 21
787.251
  0
LINE
  8
0
 10
225.834
 11
226.27
 20
787.251
 21
787.037
  0
LINE
  8
0
 10
226.27
 11
226.654
 20
787.037
 21
786.74
  0
LINE
  8
0
 10
226.654
 11
226.97
 20
786.74
 21
786.371
  0
LINE
  8
0
 10
226.97
 11
227.205
 20
786.371
 21
785.946
  0
LINE
  8
0
 10
227.205
 11
227.351
 20
785.946
 21
785.483
  0
LINE
  8
0
 10
227.351
 11
227.4
 20
785.483
 21
785
  0
LINE
  8
0
 10
227.4
 11
227.351
 20
785
 21
784.517
  0
LINE
  8
0
 10
227.351
 11
227.205
 20
784.517
 21
784.054
  0
LINE
  8
0
 10
227.205
 11
226.97
 20
784.054
 21
783.629
  0
LINE
  8
0
 10
226.97
 11
226.654
 20
783.629
 21
783.26
  0
LINE
  8
0
 10
226.654
 11
226.27
 20
783.26
 21
782.963
  0
LINE
  8
0
 10
226.27
 11
225.834
 20
782.963
 21
782.749
  0
LINE
  8
0
 10
225.834
 11
225.363
 20
782.749
 21
782.628
  0
LINE
  8
0
 10
225.363
 11
224.878
 20
782.628
 21
782.603
  0
LINE
  8
0
 10
224.878
 11
224.398
 20
782.603
 21
782.677
  0
LINE
  8
0
 10
224.398
 11
223.943
 20
782.677
 21
782.845
  0
LINE
  8
0
 10
223.943
 11
223.531
 20
782.845
 21
783.102
  0
LINE
  8
0
 10
223.531
 11
223.179
 20
783.102
 21
783.437
  0
LINE
  8
0
 10
223.179
 11
222.902
 20
783.437
 21
783.835
  0
LINE
  8
0
 10
222.902
 11
222.71
 20
783.835
 21
784.282
  0
LINE
  8
0
 10
222.71
 11
222.612
 20
784.282
 21
784.757
  0
LINE
  8
0
 10
282.612
 11
282.612
 20
244.757
 21
245.243
  0
LINE
  8
0
 10
282.612
 11
282.71
 20
245.243
 21
245.718
  0
LINE
  8
0
 10
282.71
 11
282.902
 20
245.718
 21
246.165
  0
LINE
  8
0
 10
282.902
 11
283.179
 20
246.165
 21
246.563
  0
LINE
  8
0
 10
283.179
 11
283.531
 20
246.563
 21
246.898
  0
LINE
  8
0
 10
283.531
 11
283.943
 20
246.898
 21
247.155
  0
LINE
  8
0
 10
283.943
 11
284.398
 20
247.155
 21
247.323
  0
LINE
  8
0
 10
284.398
 11
284.878
 20
247.323
 21
247.397
  0
LINE
  8
0
 10
284.878
 11
285.363
 20
247.397
 21
247.372
  0
LINE
  8
0
 10
285.363
 11
285.834
 20
247.372
 21
247.251
  0
LINE
  8
0
 10
285.834
 11
286.27
 20
247.251
 21
247.037
  0
LINE
  8
0
 10
286.27
 11
286.654
 20
247.037
 21
246.74
  0
LINE
  8
0
 10
286.654
 11
286.97
 20
246.74
 21
246.371
  0
LINE
  8
0
 10
286.97
 11
287.205
 20
246.371
 21
245.946
  0
LINE
  8
0
 10
287.205
 11
287.351
 20
245.946
 21
245.483
  0
LINE
  8
0
 10
287.351
 11
287.4
 20
245.483
 21
245
  0
LINE
  8
0
 10
287.4
 11
287.351
 20
245
 21
244.517
  0
LINE
  8
0
 10
287.351
 11
287.205
 20
244.517
 21
244.054
  0
LINE
  8
0
 10
287.205
 11
286.97
 20
244.054
 21
243.629
  0
LINE
  8
0
 10
286.97
 11
286.654
 20
243.629
 21
243.26
  0
LINE
  8
0
 10
286.654
 11
286.27
 20
243.26
 21
242.963
  0
LINE
  8
0
 10
286.27
 11
285.834
 20
242.963
 21
242.749
  0
LINE
  8
0
 10
285.834
 11
285.363
 20
242.749
 21
242.628
  0
LINE
  8
0
 10
285.363
 11
284.878
 20
242.628
 21
242.603
  0
LINE
  8
0
 10
284.878
 11
284.398
 20
242.603
 21
242.677
  0
LINE
  8
0
 10
284.398
 11
283.943
 20
242.677
 21
242.845
  0
LINE
  8
0
 10
283.943
 11
283.531
 20
242.845
 21
243.102
  0
LINE
  8
0
 10
283.531
 11
283.179
 20
243.102
 21
243.437
  0
LINE
  8
0
 10
283.179
 11
282.902
 20
243.437
 21
243.835
  0
LINE
  8
0
 10
282.902
 11
282.71
 20
243.835
 21
244.282
  0
LINE
  8
0
 10
282.71
 11
282.612
 20
244.282
 21
244.757
  0
LINE
  8
0
 10
282.612
 11
282.612
 20
499.757
 21
500.243
  0
LINE
  8
0
 10
282.612
 11
282.71
 20
500.243
 21
500.718
  0
LINE
  8
0
 10
282.71
 11
282.902
 20
500.718
 21
501.165
  0
LINE
  8
0
 10
282.902
 11
283.179
 20
501.165
 21
501.563
  0
LINE
  8
0
 10
283.179
 11
283.531
 20
501.563
 21
501.898
  0
LINE
  8
0
 10
283.531
 11
283.943
 20
501.898
 21
502.155
  0
LINE
  8
0
 10
283.943
 11
284.398
 20
502.155
 21
502.323
  0
LINE
  8
0
 10
284.398
 11
284.878
 20
502.323
 21
502.397
  0
LINE
  8
0
 10
284.878
 11
285.363
 20
502.397
 21
502.372
  0
LINE
  8
0
 10
285.363
 11
285.834
 20
502.372
 21
502.251
  0
LINE
  8
0
 10
285.834
 11
286.27
 20
502.251
 21
502.037
  0
LINE
  8
0
 10
286.27
 11
286.654
 20
502.037
 21
501.74
  0
LINE
  8
0
 10
286.654
 11
286.97
 20
501.74
 21
501.371
  0
LINE
  8
0
 10
286.97
 11
287.205
 20
501.371
 21
500.946
  0
LINE
  8
0
 10
287.205
 11
287.351
 20
500.946
 21
500.483
  0
LINE
  8
0
 10
287.351
 11
287.4
 20
500.483
 21
500
  0
LINE
  8
0
 10
287.4
 11
287.351
 20
500
 21
499.517
  0
LINE
  8
0
 10
287.351
 11
287.205
 20
499.517
 21
499.054
  0
LINE
  8
0
 10
287.205
 11
286.97
 20
499.054
 21
498.629
  0
LINE
  8
0
 10
286.97
 11
286.654
 20
498.629
 21
498.26
  0
LINE
  8
0
 10
286.654
 11
286.27
 20
498.26
 21
497.963
  0
LINE
  8
0
 10
286.27
 11
285.834
 20
497.963
 21
497.749
  0
LINE
  8
0
 10
285.834
 11
285.363
 20
497.749
 21
497.628
  0
LINE
  8
0
 10
285.363
 11
284.878
 20
497.628
 21
497.603
  0
LINE
  8
0
 10
284.878
 11
284.398
 20
497.603
 21
497.677
  0
LINE
  8
0
 10
284.398
 11
283.943
 20
497.677
 21
497.845
  0
LINE
  8
0
 10
283.943
 11
283.531
 20
497.845
 21
498.102
  0
LINE
  8
0
 10
283.531
 11
283.179
 20
498.102
 21
498.437
  0
LINE
  8
0
 10
283.179
 11
282.902
 20
498.437
 21
498.835
  0
LINE
  8
0
 10
282.902
 11
282.71
 20
498.835
 21
499.282
  0
LINE
  8
0
 10
282.71
 11
282.612
 20
499.282
 21
499.757
  0
LINE
  8
0
 10
282.612
 11
282.612
 20
754.757
 21
755.243
  0
LINE
  8
0
 10
282.612
 11
282.71
 20
755.243
 21
755.718
  0
LINE
  8
0
 10
282.71
 11
282.902
 20
755.718
 21
756.165
  0
LINE
  8
0
 10
282.902
 11
283.179
 20
756.165
 21
756.563
  0
LINE
  8
0
 10
283.179
 11
283.531
 20
756.563
 21
756.898
  0
LINE
  8
0
 10
283.531
 11
283.943
 20
756.898
 21
757.155
  0
LINE
  8
0
 10
283.943
 11
284.398
 20
757.155
 21
757.323
  0
LINE
  8
0
 10
284.398
 11
284.878
 20
757.323
 21
757.397
  0
LINE
  8
0
 10
284.878
 11
285.363
 20
757.397
 21
757.372
  0
LINE
  8
0
 10
285.363
 11
285.834
 20
757.372
 21
757.251
  0
LINE
  8
0
 10
285.834
 11
286.27
 20
757.251
 21
757.037
  0
LINE
  8
0
 10
286.27
 11
286.654
 20
757.037
 21
756.74
  0
LINE
  8
0
 10
286.654
 11
286.97
 20
756.74
 21
756.371
  0
LINE
  8
0
 10
286.97
 11
287.205
 20
756.371
 21
755.946
  0
LINE
  8
0
 10
287.205
 11
287.351
 20
755.946
 21
755.483
  0
LINE
  8
0
 10
287.351
 11
287.4
 20
755.483
 21
755
  0
LINE
  8
0
 10
287.4
 11
287.351
 20
755
 21
754.517
  0
LINE
  8
0
 10
287.351
 11
287.205
 20
754.517
 21
754.054
  0
LINE
  8
0
 10
287.205
 11
286.97
 20
754.054
 21
753.629
  0
LINE
  8
0
 10
286.97
 11
286.654
 20
753.629
 21
753.26
  0
LINE
  8
0
 10
286.654
 11
286.27
 20
753.26
 21
752.963
  0
LINE
  8
0
 10
286.27
 11
285.834
 20
752.963
 21
752.749
  0
LINE
  8
0
 10
285.834
 11
285.363
 20
752.749
 21
752.628
  0
LINE
  8
0
 10
285.363
 11
284.878
 20
752.628
 21
752.603
  0
LINE
  8
0
 10
284.878
 11
284.398
 20
752.603
 21
752.677
  0
LINE
  8
0
 10
284.398
 11
283.943
 20
752.677
 21
752.845
  0
LINE
  8
0
 10
283.943
 11
283.531
 20
752.845
 21
753.102
  0
LINE
  8
0
 10
283.531
 11
283.179
 20
753.102
 21
753.437
  0
LINE
  8
0
 10
283.179
 11
282.902
 20
753.437
 21
753.835
  0
LINE
  8
0
 10
282.902
 11
282.71
 20
753.835
 21
754.282
  0
LINE
  8
0
 10
282.71
 11
282.612
 20
754.282
 21
754.757
  0
ENDSEC
  0
SECTION
  2
OBJECTS
  0
DICTIONARY
  0
ENDSEC
  0
EOF
