  0
SECTION
  2
BLOCKS
  0
ENDSEC
  0
SECTION
  2
ENTITIES
  0
LINE
  8
0
 10
200
 11
200
 20
-243
 21
243
  0
LINE
  8
0
 10
200
 11
227
 20
243
 21
243
  0
LINE
  8
0
 10
227
 11
227
 20
243
 21
306
  0
LINE
  8
0
 10
227
 11
773
 20
306
 21
306
  0
LINE
  8
0
 10
773
 11
773
 20
306
 21
243
  0
LINE
  8
0
 10
773
 11
806
 20
243
 21
243
  0
LINE
  8
0
 10
806
 11
806
 20
243
 21
-243
  0
LINE
  8
0
 10
806
 11
773
 20
-243
 21
-243
  0
LINE
  8
0
 10
773
 11
773
 20
-243
 21
-297
  0
LINE
  8
0
 10
773
 11
227
 20
-297
 21
-297
  0
LINE
  8
0
 10
227
 11
227
 20
-297
 21
-243
  0
LINE
  8
0
 10
227
 11
200
 20
-243
 21
-243
  0
LINE
  8
0
 10
212.6
 11
212.649
 20
-225
 21
-224.517
  0
LINE
  8
0
 10
212.649
 11
212.795
 20
-224.517
 21
-224.054
  0
LINE
  8
0
 10
212.795
 11
213.03
 20
-224.054
 21
-223.629
  0
LINE
  8
0
 10
213.03
 11
213.346
 20
-223.629
 21
-223.26
  0
LINE
  8
0
 10
213.346
 11
213.73
 20
-223.26
 21
-222.963
  0
LINE
  8
0
 10
213.73
 11
214.166
 20
-222.963
 21
-222.749
  0
LINE
  8
0
 10
214.166
 11
214.637
 20
-222.749
 21
-222.628
  0
LINE
  8
0
 10
214.637
 11
215.122
 20
-222.628
 21
-222.603
  0
LINE
  8
0
 10
215.122
 11
215.602
 20
-222.603
 21
-222.677
  0
LINE
  8
0
 10
215.602
 11
216.057
 20
-222.677
 21
-222.845
  0
LINE
  8
0
 10
216.057
 11
216.469
 20
-222.845
 21
-223.102
  0
LINE
  8
0
 10
216.469
 11
216.821
 20
-223.102
 21
-223.437
  0
LINE
  8
0
 10
216.821
 11
217.098
 20
-223.437
 21
-223.835
  0
LINE
  8
0
 10
217.098
 11
217.29
 20
-223.835
 21
-224.282
  0
LINE
  8
0
 10
217.29
 11
217.388
 20
-224.282
 21
-224.757
  0
LINE
  8
0
 10
217.388
 11
217.388
 20
-224.757
 21
-225.243
  0
LINE
  8
0
 10
217.388
 11
217.29
 20
-225.243
 21
-225.718
  0
LINE
  8
0
 10
217.29
 11
217.098
 20
-225.718
 21
-226.165
  0
LINE
  8
0
 10
217.098
 11
216.821
 20
-226.165
 21
-226.563
  0
LINE
  8
0
 10
216.821
 11
216.469
 20
-226.563
 21
-226.898
  0
LINE
  8
0
 10
216.469
 11
216.057
 20
-226.898
 21
-227.155
  0
LINE
  8
0
 10
216.057
 11
215.602
 20
-227.155
 21
-227.323
  0
LINE
  8
0
 10
215.602
 11
215.122
 20
-227.323
 21
-227.397
  0
LINE
  8
0
 10
215.122
 11
214.637
 20
-227.397
 21
-227.372
  0
LINE
  8
0
 10
214.637
 11
214.166
 20
-227.372
 21
-227.251
  0
LINE
  8
0
 10
214.166
 11
213.73
 20
-227.251
 21
-227.037
  0
LINE
  8
0
 10
213.73
 11
213.346
 20
-227.037
 21
-226.74
  0
LINE
  8
0
 10
213.346
 11
213.03
 20
-226.74
 21
-226.371
  0
LINE
  8
0
 10
213.03
 11
212.795
 20
-226.371
 21
-225.946
  0
LINE
  8
0
 10
212.795
 11
212.649
 20
-225.946
 21
-225.483
  0
LINE
  8
0
 10
212.649
 11
212.6
 20
-225.483
 21
-225
  0
LINE
  8
0
 10
212.6
 11
212.649
 20
0
 21
0.483
  0
LINE
  8
0
 10
212.649
 11
212.795
 20
0.483
 21
0.946
  0
LINE
  8
0
 10
212.795
 11
213.03
 20
0.946
 21
1.371
  0
LINE
  8
0
 10
213.03
 11
213.346
 20
1.371
 21
1.74
  0
LINE
  8
0
 10
213.346
 11
213.73
 20
1.74
 21
2.037
  0
LINE
  8
0
 10
213.73
 11
214.166
 20
2.037
 21
2.251
  0
LINE
  8
0
 10
214.166
 11
214.637
 20
2.251
 21
2.372
  0
LINE
  8
0
 10
214.637
 11
215.122
 20
2.372
 21
2.397
  0
LINE
  8
0
 10
215.122
 11
215.602
 20
2.397
 21
2.323
  0
LINE
  8
0
 10
215.602
 11
216.057
 20
2.323
 21
2.155
  0
LINE
  8
0
 10
216.057
 11
216.469
 20
2.155
 21
1.898
  0
LINE
  8
0
 10
216.469
 11
216.821
 20
1.898
 21
1.563
  0
LINE
  8
0
 10
216.821
 11
217.098
 20
1.563
 21
1.165
  0
LINE
  8
0
 10
217.098
 11
217.29
 20
1.165
 21
0.718
  0
LINE
  8
0
 10
217.29
 11
217.388
 20
0.718
 21
0.243
  0
LINE
  8
0
 10
217.388
 11
217.388
 20
0.243
 21
-0.243
  0
LINE
  8
0
 10
217.388
 11
217.29
 20
-0.243
 21
-0.718
  0
LINE
  8
0
 10
217.29
 11
217.098
 20
-0.718
 21
-1.165
  0
LINE
  8
0
 10
217.098
 11
216.821
 20
-1.165
 21
-1.563
  0
LINE
  8
0
 10
216.821
 11
216.469
 20
-1.563
 21
-1.898
  0
LINE
  8
0
 10
216.469
 11
216.057
 20
-1.898
 21
-2.155
  0
LINE
  8
0
 10
216.057
 11
215.602
 20
-2.155
 21
-2.323
  0
LINE
  8
0
 10
215.602
 11
215.122
 20
-2.323
 21
-2.397
  0
LINE
  8
0
 10
215.122
 11
214.637
 20
-2.397
 21
-2.372
  0
LINE
  8
0
 10
214.637
 11
214.166
 20
-2.372
 21
-2.251
  0
LINE
  8
0
 10
214.166
 11
213.73
 20
-2.251
 21
-2.037
  0
LINE
  8
0
 10
213.73
 11
213.346
 20
-2.037
 21
-1.74
  0
LINE
  8
0
 10
213.346
 11
213.03
 20
-1.74
 21
-1.371
  0
LINE
  8
0
 10
213.03
 11
212.795
 20
-1.371
 21
-0.946
  0
LINE
  8
0
 10
212.795
 11
212.649
 20
-0.946
 21
-0.483
  0
LINE
  8
0
 10
212.649
 11
212.6
 20
-0.483
 21
0
  0
LINE
  8
0
 10
212.6
 11
212.649
 20
225
 21
225.483
  0
LINE
  8
0
 10
212.649
 11
212.795
 20
225.483
 21
225.946
  0
LINE
  8
0
 10
212.795
 11
213.03
 20
225.946
 21
226.371
  0
LINE
  8
0
 10
213.03
 11
213.346
 20
226.371
 21
226.74
  0
LINE
  8
0
 10
213.346
 11
213.73
 20
226.74
 21
227.037
  0
LINE
  8
0
 10
213.73
 11
214.166
 20
227.037
 21
227.251
  0
LINE
  8
0
 10
214.166
 11
214.637
 20
227.251
 21
227.372
  0
LINE
  8
0
 10
214.637
 11
215.122
 20
227.372
 21
227.397
  0
LINE
  8
0
 10
215.122
 11
215.602
 20
227.397
 21
227.323
  0
LINE
  8
0
 10
215.602
 11
216.057
 20
227.323
 21
227.155
  0
LINE
  8
0
 10
216.057
 11
216.469
 20
227.155
 21
226.898
  0
LINE
  8
0
 10
216.469
 11
216.821
 20
226.898
 21
226.563
  0
LINE
  8
0
 10
216.821
 11
217.098
 20
226.563
 21
226.165
  0
LINE
  8
0
 10
217.098
 11
217.29
 20
226.165
 21
225.718
  0
LINE
  8
0
 10
217.29
 11
217.388
 20
225.718
 21
225.243
  0
LINE
  8
0
 10
217.388
 11
217.388
 20
225.243
 21
224.757
  0
LINE
  8
0
 10
217.388
 11
217.29
 20
224.757
 21
224.282
  0
LINE
  8
0
 10
217.29
 11
217.098
 20
224.282
 21
223.835
  0
LINE
  8
0
 10
217.098
 11
216.821
 20
223.835
 21
223.437
  0
LINE
  8
0
 10
216.821
 11
216.469
 20
223.437
 21
223.102
  0
LINE
  8
0
 10
216.469
 11
216.057
 20
223.102
 21
222.845
  0
LINE
  8
0
 10
216.057
 11
215.602
 20
222.845
 21
222.677
  0
LINE
  8
0
 10
215.602
 11
215.122
 20
222.677
 21
222.603
  0
LINE
  8
0
 10
215.122
 11
214.637
 20
222.603
 21
222.628
  0
LINE
  8
0
 10
214.637
 11
214.166
 20
222.628
 21
222.749
  0
LINE
  8
0
 10
214.166
 11
213.73
 20
222.749
 21
222.963
  0
LINE
  8
0
 10
213.73
 11
213.346
 20
222.963
 21
223.26
  0
LINE
  8
0
 10
213.346
 11
213.03
 20
223.26
 21
223.629
  0
LINE
  8
0
 10
213.03
 11
212.795
 20
223.629
 21
224.054
  0
LINE
  8
0
 10
212.795
 11
212.649
 20
224.054
 21
224.517
  0
LINE
  8
0
 10
212.649
 11
212.6
 20
224.517
 21
225
  0
LINE
  8
0
 10
242.6
 11
242.649
 20
-285
 21
-284.517
  0
LINE
  8
0
 10
242.649
 11
242.795
 20
-284.517
 21
-284.054
  0
LINE
  8
0
 10
242.795
 11
243.03
 20
-284.054
 21
-283.629
  0
LINE
  8
0
 10
243.03
 11
243.346
 20
-283.629
 21
-283.26
  0
LINE
  8
0
 10
243.346
 11
243.73
 20
-283.26
 21
-282.963
  0
LINE
  8
0
 10
243.73
 11
244.166
 20
-282.963
 21
-282.749
  0
LINE
  8
0
 10
244.166
 11
244.637
 20
-282.749
 21
-282.628
  0
LINE
  8
0
 10
244.637
 11
245.122
 20
-282.628
 21
-282.603
  0
LINE
  8
0
 10
245.122
 11
245.602
 20
-282.603
 21
-282.677
  0
LINE
  8
0
 10
245.602
 11
246.057
 20
-282.677
 21
-282.845
  0
LINE
  8
0
 10
246.057
 11
246.469
 20
-282.845
 21
-283.102
  0
LINE
  8
0
 10
246.469
 11
246.821
 20
-283.102
 21
-283.437
  0
LINE
  8
0
 10
246.821
 11
247.098
 20
-283.437
 21
-283.835
  0
LINE
  8
0
 10
247.098
 11
247.29
 20
-283.835
 21
-284.282
  0
LINE
  8
0
 10
247.29
 11
247.388
 20
-284.282
 21
-284.757
  0
LINE
  8
0
 10
247.388
 11
247.388
 20
-284.757
 21
-285.243
  0
LINE
  8
0
 10
247.388
 11
247.29
 20
-285.243
 21
-285.718
  0
LINE
  8
0
 10
247.29
 11
247.098
 20
-285.718
 21
-286.165
  0
LINE
  8
0
 10
247.098
 11
246.821
 20
-286.165
 21
-286.563
  0
LINE
  8
0
 10
246.821
 11
246.469
 20
-286.563
 21
-286.898
  0
LINE
  8
0
 10
246.469
 11
246.057
 20
-286.898
 21
-287.155
  0
LINE
  8
0
 10
246.057
 11
245.602
 20
-287.155
 21
-287.323
  0
LINE
  8
0
 10
245.602
 11
245.122
 20
-287.323
 21
-287.397
  0
LINE
  8
0
 10
245.122
 11
244.637
 20
-287.397
 21
-287.372
  0
LINE
  8
0
 10
244.637
 11
244.166
 20
-287.372
 21
-287.251
  0
LINE
  8
0
 10
244.166
 11
243.73
 20
-287.251
 21
-287.037
  0
LINE
  8
0
 10
243.73
 11
243.346
 20
-287.037
 21
-286.74
  0
LINE
  8
0
 10
243.346
 11
243.03
 20
-286.74
 21
-286.371
  0
LINE
  8
0
 10
243.03
 11
242.795
 20
-286.371
 21
-285.946
  0
LINE
  8
0
 10
242.795
 11
242.649
 20
-285.946
 21
-285.483
  0
LINE
  8
0
 10
242.649
 11
242.6
 20
-285.483
 21
-285
  0
LINE
  8
0
 10
242.6
 11
242.649
 20
285
 21
285.483
  0
LINE
  8
0
 10
242.649
 11
242.795
 20
285.483
 21
285.946
  0
LINE
  8
0
 10
242.795
 11
243.03
 20
285.946
 21
286.371
  0
LINE
  8
0
 10
243.03
 11
243.346
 20
286.371
 21
286.74
  0
LINE
  8
0
 10
243.346
 11
243.73
 20
286.74
 21
287.037
  0
LINE
  8
0
 10
243.73
 11
244.166
 20
287.037
 21
287.251
  0
LINE
  8
0
 10
244.166
 11
244.637
 20
287.251
 21
287.372
  0
LINE
  8
0
 10
244.637
 11
245.122
 20
287.372
 21
287.397
  0
LINE
  8
0
 10
245.122
 11
245.602
 20
287.397
 21
287.323
  0
LINE
  8
0
 10
245.602
 11
246.057
 20
287.323
 21
287.155
  0
LINE
  8
0
 10
246.057
 11
246.469
 20
287.155
 21
286.898
  0
LINE
  8
0
 10
246.469
 11
246.821
 20
286.898
 21
286.563
  0
LINE
  8
0
 10
246.821
 11
247.098
 20
286.563
 21
286.165
  0
LINE
  8
0
 10
247.098
 11
247.29
 20
286.165
 21
285.718
  0
LINE
  8
0
 10
247.29
 11
247.388
 20
285.718
 21
285.243
  0
LINE
  8
0
 10
247.388
 11
247.388
 20
285.243
 21
284.757
  0
LINE
  8
0
 10
247.388
 11
247.29
 20
284.757
 21
284.282
  0
LINE
  8
0
 10
247.29
 11
247.098
 20
284.282
 21
283.835
  0
LINE
  8
0
 10
247.098
 11
246.821
 20
283.835
 21
283.437
  0
LINE
  8
0
 10
246.821
 11
246.469
 20
283.437
 21
283.102
  0
LINE
  8
0
 10
246.469
 11
246.057
 20
283.102
 21
282.845
  0
LINE
  8
0
 10
246.057
 11
245.602
 20
282.845
 21
282.677
  0
LINE
  8
0
 10
245.602
 11
245.122
 20
282.677
 21
282.603
  0
LINE
  8
0
 10
245.122
 11
244.637
 20
282.603
 21
282.628
  0
LINE
  8
0
 10
244.637
 11
244.166
 20
282.628
 21
282.749
  0
LINE
  8
0
 10
244.166
 11
243.73
 20
282.749
 21
282.963
  0
LINE
  8
0
 10
243.73
 11
243.346
 20
282.963
 21
283.26
  0
LINE
  8
0
 10
243.346
 11
243.03
 20
283.26
 21
283.629
  0
LINE
  8
0
 10
243.03
 11
242.795
 20
283.629
 21
284.054
  0
LINE
  8
0
 10
242.795
 11
242.649
 20
284.054
 21
284.517
  0
LINE
  8
0
 10
242.649
 11
242.6
 20
284.517
 21
285
  0
LINE
  8
0
 10
497.6
 11
497.612
 20
-285
 21
-284.879
  0
LINE
  8
0
 10
497.612
 11
497.612
 20
-284.879
 21
-284.757
  0
LINE
  8
0
 10
497.612
 11
497.637
 20
-284.757
 21
-284.638
  0
LINE
  8
0
 10
497.637
 11
497.649
 20
-284.638
 21
-284.517
  0
LINE
  8
0
 10
497.649
 11
497.686
 20
-284.517
 21
-284.401
  0
LINE
  8
0
 10
497.686
 11
497.71
 20
-284.401
 21
-284.282
  0
LINE
  8
0
 10
497.71
 11
497.758
 20
-284.282
 21
-284.17
  0
LINE
  8
0
 10
497.758
 11
497.795
 20
-284.17
 21
-284.054
  0
LINE
  8
0
 10
497.795
 11
497.854
 20
-284.054
 21
-283.947
  0
LINE
  8
0
 10
497.854
 11
497.902
 20
-283.947
 21
-283.835
  0
LINE
  8
0
 10
497.902
 11
497.971
 20
-283.835
 21
-283.735
  0
LINE
  8
0
 10
497.971
 11
498.03
 20
-283.735
 21
-283.629
  0
LINE
  8
0
 10
498.03
 11
498.109
 20
-283.629
 21
-283.537
  0
LINE
  8
0
 10
498.109
 11
498.179
 20
-283.537
 21
-283.437
  0
LINE
  8
0
 10
498.179
 11
498.267
 20
-283.437
 21
-283.353
  0
LINE
  8
0
 10
498.267
 11
498.346
 20
-283.353
 21
-283.26
  0
LINE
  8
0
 10
498.346
 11
498.443
 20
-283.26
 21
-283.186
  0
LINE
  8
0
 10
498.443
 11
498.531
 20
-283.186
 21
-283.102
  0
LINE
  8
0
 10
498.531
 11
498.634
 20
-283.102
 21
-283.038
  0
LINE
  8
0
 10
498.634
 11
498.73
 20
-283.038
 21
-282.963
  0
LINE
  8
0
 10
498.73
 11
498.84
 20
-282.963
 21
-282.91
  0
LINE
  8
0
 10
498.84
 11
498.943
 20
-282.91
 21
-282.845
  0
LINE
  8
0
 10
498.943
 11
499.057
 20
-282.845
 21
-282.803
  0
LINE
  8
0
 10
499.057
 11
499.166
 20
-282.803
 21
-282.749
  0
LINE
  8
0
 10
499.166
 11
499.284
 20
-282.749
 21
-282.719
  0
LINE
  8
0
 10
499.284
 11
499.398
 20
-282.719
 21
-282.677
  0
LINE
  8
0
 10
499.398
 11
499.519
 20
-282.677
 21
-282.658
  0
LINE
  8
0
 10
499.519
 11
499.637
 20
-282.658
 21
-282.628
  0
LINE
  8
0
 10
499.637
 11
499.758
 20
-282.628
 21
-282.622
  0
LINE
  8
0
 10
499.758
 11
499.878
 20
-282.622
 21
-282.603
  0
LINE
  8
0
 10
499.878
 11
500
 20
-282.603
 21
-282.609
  0
LINE
  8
0
 10
500
 11
500.122
 20
-282.609
 21
-282.603
  0
LINE
  8
0
 10
500.122
 11
500.242
 20
-282.603
 21
-282.622
  0
LINE
  8
0
 10
500.242
 11
500.363
 20
-282.622
 21
-282.628
  0
LINE
  8
0
 10
500.363
 11
500.481
 20
-282.628
 21
-282.658
  0
LINE
  8
0
 10
500.481
 11
500.602
 20
-282.658
 21
-282.677
  0
LINE
  8
0
 10
500.602
 11
500.716
 20
-282.677
 21
-282.719
  0
LINE
  8
0
 10
500.716
 11
500.834
 20
-282.719
 21
-282.749
  0
LINE
  8
0
 10
500.834
 11
500.943
 20
-282.749
 21
-282.803
  0
LINE
  8
0
 10
500.943
 11
501.057
 20
-282.803
 21
-282.845
  0
LINE
  8
0
 10
501.057
 11
501.16
 20
-282.845
 21
-282.91
  0
LINE
  8
0
 10
501.16
 11
501.27
 20
-282.91
 21
-282.963
  0
LINE
  8
0
 10
501.27
 11
501.366
 20
-282.963
 21
-283.038
  0
LINE
  8
0
 10
501.366
 11
501.469
 20
-283.038
 21
-283.102
  0
LINE
  8
0
 10
501.469
 11
501.557
 20
-283.102
 21
-283.186
  0
LINE
  8
0
 10
501.557
 11
501.654
 20
-283.186
 21
-283.26
  0
LINE
  8
0
 10
501.654
 11
501.733
 20
-283.26
 21
-283.353
  0
LINE
  8
0
 10
501.733
 11
501.821
 20
-283.353
 21
-283.437
  0
LINE
  8
0
 10
501.821
 11
501.891
 20
-283.437
 21
-283.537
  0
LINE
  8
0
 10
501.891
 11
501.97
 20
-283.537
 21
-283.629
  0
LINE
  8
0
 10
501.97
 11
502.029
 20
-283.629
 21
-283.735
  0
LINE
  8
0
 10
502.029
 11
502.098
 20
-283.735
 21
-283.835
  0
LINE
  8
0
 10
502.098
 11
502.146
 20
-283.835
 21
-283.947
  0
LINE
  8
0
 10
502.146
 11
502.205
 20
-283.947
 21
-284.054
  0
LINE
  8
0
 10
502.205
 11
502.242
 20
-284.054
 21
-284.17
  0
LINE
  8
0
 10
502.242
 11
502.29
 20
-284.17
 21
-284.282
  0
LINE
  8
0
 10
502.29
 11
502.314
 20
-284.282
 21
-284.401
  0
LINE
  8
0
 10
502.314
 11
502.351
 20
-284.401
 21
-284.517
  0
LINE
  8
0
 10
502.351
 11
502.363
 20
-284.517
 21
-284.638
  0
LINE
  8
0
 10
502.363
 11
502.388
 20
-284.638
 21
-284.757
  0
LINE
  8
0
 10
502.388
 11
502.388
 20
-284.757
 21
-284.879
  0
LINE
  8
0
 10
502.388
 11
502.4
 20
-284.879
 21
-285
  0
LINE
  8
0
 10
502.4
 11
502.388
 20
-285
 21
-285.121
  0
LINE
  8
0
 10
502.388
 11
502.388
 20
-285.121
 21
-285.243
  0
LINE
  8
0
 10
502.388
 11
502.363
 20
-285.243
 21
-285.362
  0
LINE
  8
0
 10
502.363
 11
502.351
 20
-285.362
 21
-285.483
  0
LINE
  8
0
 10
502.351
 11
502.314
 20
-285.483
 21
-285.599
  0
LINE
  8
0
 10
502.314
 11
502.29
 20
-285.599
 21
-285.718
  0
LINE
  8
0
 10
502.29
 11
502.242
 20
-285.718
 21
-285.83
  0
LINE
  8
0
 10
502.242
 11
502.205
 20
-285.83
 21
-285.946
  0
LINE
  8
0
 10
502.205
 11
502.146
 20
-285.946
 21
-286.053
  0
LINE
  8
0
 10
502.146
 11
502.098
 20
-286.053
 21
-286.165
  0
LINE
  8
0
 10
502.098
 11
502.029
 20
-286.165
 21
-286.265
  0
LINE
  8
0
 10
502.029
 11
501.97
 20
-286.265
 21
-286.371
  0
LINE
  8
0
 10
501.97
 11
501.891
 20
-286.371
 21
-286.463
  0
LINE
  8
0
 10
501.891
 11
501.821
 20
-286.463
 21
-286.563
  0
LINE
  8
0
 10
501.821
 11
501.733
 20
-286.563
 21
-286.647
  0
LINE
  8
0
 10
501.733
 11
501.654
 20
-286.647
 21
-286.74
  0
LINE
  8
0
 10
501.654
 11
501.557
 20
-286.74
 21
-286.814
  0
LINE
  8
0
 10
501.557
 11
501.469
 20
-286.814
 21
-286.898
  0
LINE
  8
0
 10
501.469
 11
501.366
 20
-286.898
 21
-286.962
  0
LINE
  8
0
 10
501.366
 11
501.27
 20
-286.962
 21
-287.037
  0
LINE
  8
0
 10
501.27
 11
501.16
 20
-287.037
 21
-287.09
  0
LINE
  8
0
 10
501.16
 11
501.057
 20
-287.09
 21
-287.155
  0
LINE
  8
0
 10
501.057
 11
500.943
 20
-287.155
 21
-287.197
  0
LINE
  8
0
 10
500.943
 11
500.834
 20
-287.197
 21
-287.251
  0
LINE
  8
0
 10
500.834
 11
500.716
 20
-287.251
 21
-287.281
  0
LINE
  8
0
 10
500.716
 11
500.602
 20
-287.281
 21
-287.323
  0
LINE
  8
0
 10
500.602
 11
500.481
 20
-287.323
 21
-287.342
  0
LINE
  8
0
 10
500.481
 11
500.363
 20
-287.342
 21
-287.372
  0
LINE
  8
0
 10
500.363
 11
500.242
 20
-287.372
 21
-287.378
  0
LINE
  8
0
 10
500.242
 11
500.122
 20
-287.378
 21
-287.397
  0
LINE
  8
0
 10
500.122
 11
500
 20
-287.397
 21
-287.391
  0
LINE
  8
0
 10
500
 11
499.878
 20
-287.391
 21
-287.397
  0
LINE
  8
0
 10
499.878
 11
499.758
 20
-287.397
 21
-287.378
  0
LINE
  8
0
 10
499.758
 11
499.637
 20
-287.378
 21
-287.372
  0
LINE
  8
0
 10
499.637
 11
499.519
 20
-287.372
 21
-287.342
  0
LINE
  8
0
 10
499.519
 11
499.398
 20
-287.342
 21
-287.323
  0
LINE
  8
0
 10
499.398
 11
499.284
 20
-287.323
 21
-287.281
  0
LINE
  8
0
 10
499.284
 11
499.166
 20
-287.281
 21
-287.251
  0
LINE
  8
0
 10
499.166
 11
499.057
 20
-287.251
 21
-287.197
  0
LINE
  8
0
 10
499.057
 11
498.943
 20
-287.197
 21
-287.155
  0
LINE
  8
0
 10
498.943
 11
498.84
 20
-287.155
 21
-287.09
  0
LINE
  8
0
 10
498.84
 11
498.73
 20
-287.09
 21
-287.037
  0
LINE
  8
0
 10
498.73
 11
498.634
 20
-287.037
 21
-286.962
  0
LINE
  8
0
 10
498.634
 11
498.531
 20
-286.962
 21
-286.898
  0
LINE
  8
0
 10
498.531
 11
498.443
 20
-286.898
 21
-286.814
  0
LINE
  8
0
 10
498.443
 11
498.346
 20
-286.814
 21
-286.74
  0
LINE
  8
0
 10
498.346
 11
498.267
 20
-286.74
 21
-286.647
  0
LINE
  8
0
 10
498.267
 11
498.179
 20
-286.647
 21
-286.563
  0
LINE
  8
0
 10
498.179
 11
498.109
 20
-286.563
 21
-286.463
  0
LINE
  8
0
 10
498.109
 11
498.03
 20
-286.463
 21
-286.371
  0
LINE
  8
0
 10
498.03
 11
497.971
 20
-286.371
 21
-286.265
  0
LINE
  8
0
 10
497.971
 11
497.902
 20
-286.265
 21
-286.165
  0
LINE
  8
0
 10
497.902
 11
497.854
 20
-286.165
 21
-286.053
  0
LINE
  8
0
 10
497.854
 11
497.795
 20
-286.053
 21
-285.946
  0
LINE
  8
0
 10
497.795
 11
497.758
 20
-285.946
 21
-285.83
  0
LINE
  8
0
 10
497.758
 11
497.71
 20
-285.83
 21
-285.718
  0
LINE
  8
0
 10
497.71
 11
497.686
 20
-285.718
 21
-285.599
  0
LINE
  8
0
 10
497.686
 11
497.649
 20
-285.599
 21
-285.483
  0
LINE
  8
0
 10
497.649
 11
497.637
 20
-285.483
 21
-285.362
  0
LINE
  8
0
 10
497.637
 11
497.612
 20
-285.362
 21
-285.243
  0
LINE
  8
0
 10
497.612
 11
497.612
 20
-285.243
 21
-285.121
  0
LINE
  8
0
 10
497.612
 11
497.6
 20
-285.121
 21
-285
  0
LINE
  8
0
 10
497.6
 11
497.612
 20
285
 21
285.121
  0
LINE
  8
0
 10
497.612
 11
497.612
 20
285.121
 21
285.243
  0
LINE
  8
0
 10
497.612
 11
497.637
 20
285.243
 21
285.362
  0
LINE
  8
0
 10
497.637
 11
497.649
 20
285.362
 21
285.483
  0
LINE
  8
0
 10
497.649
 11
497.686
 20
285.483
 21
285.599
  0
LINE
  8
0
 10
497.686
 11
497.71
 20
285.599
 21
285.718
  0
LINE
  8
0
 10
497.71
 11
497.758
 20
285.718
 21
285.83
  0
LINE
  8
0
 10
497.758
 11
497.795
 20
285.83
 21
285.946
  0
LINE
  8
0
 10
497.795
 11
497.854
 20
285.946
 21
286.053
  0
LINE
  8
0
 10
497.854
 11
497.902
 20
286.053
 21
286.165
  0
LINE
  8
0
 10
497.902
 11
497.971
 20
286.165
 21
286.265
  0
LINE
  8
0
 10
497.971
 11
498.03
 20
286.265
 21
286.371
  0
LINE
  8
0
 10
498.03
 11
498.109
 20
286.371
 21
286.463
  0
LINE
  8
0
 10
498.109
 11
498.179
 20
286.463
 21
286.563
  0
LINE
  8
0
 10
498.179
 11
498.267
 20
286.563
 21
286.647
  0
LINE
  8
0
 10
498.267
 11
498.346
 20
286.647
 21
286.74
  0
LINE
  8
0
 10
498.346
 11
498.443
 20
286.74
 21
286.814
  0
LINE
  8
0
 10
498.443
 11
498.531
 20
286.814
 21
286.898
  0
LINE
  8
0
 10
498.531
 11
498.634
 20
286.898
 21
286.962
  0
LINE
  8
0
 10
498.634
 11
498.73
 20
286.962
 21
287.037
  0
LINE
  8
0
 10
498.73
 11
498.84
 20
287.037
 21
287.09
  0
LINE
  8
0
 10
498.84
 11
498.943
 20
287.09
 21
287.155
  0
LINE
  8
0
 10
498.943
 11
499.057
 20
287.155
 21
287.197
  0
LINE
  8
0
 10
499.057
 11
499.166
 20
287.197
 21
287.251
  0
LINE
  8
0
 10
499.166
 11
499.284
 20
287.251
 21
287.281
  0
LINE
  8
0
 10
499.284
 11
499.398
 20
287.281
 21
287.323
  0
LINE
  8
0
 10
499.398
 11
499.519
 20
287.323
 21
287.342
  0
LINE
  8
0
 10
499.519
 11
499.637
 20
287.342
 21
287.372
  0
LINE
  8
0
 10
499.637
 11
499.758
 20
287.372
 21
287.378
  0
LINE
  8
0
 10
499.758
 11
499.878
 20
287.378
 21
287.397
  0
LINE
  8
0
 10
499.878
 11
500
 20
287.397
 21
287.391
  0
LINE
  8
0
 10
500
 11
500.122
 20
287.391
 21
287.397
  0
LINE
  8
0
 10
500.122
 11
500.242
 20
287.397
 21
287.378
  0
LINE
  8
0
 10
500.242
 11
500.363
 20
287.378
 21
287.372
  0
LINE
  8
0
 10
500.363
 11
500.481
 20
287.372
 21
287.342
  0
LINE
  8
0
 10
500.481
 11
500.602
 20
287.342
 21
287.323
  0
LINE
  8
0
 10
500.602
 11
500.716
 20
287.323
 21
287.281
  0
LINE
  8
0
 10
500.716
 11
500.834
 20
287.281
 21
287.251
  0
LINE
  8
0
 10
500.834
 11
500.943
 20
287.251
 21
287.197
  0
LINE
  8
0
 10
500.943
 11
501.057
 20
287.197
 21
287.155
  0
LINE
  8
0
 10
501.057
 11
501.16
 20
287.155
 21
287.09
  0
LINE
  8
0
 10
501.16
 11
501.27
 20
287.09
 21
287.037
  0
LINE
  8
0
 10
501.27
 11
501.366
 20
287.037
 21
286.962
  0
LINE
  8
0
 10
501.366
 11
501.469
 20
286.962
 21
286.898
  0
LINE
  8
0
 10
501.469
 11
501.557
 20
286.898
 21
286.814
  0
LINE
  8
0
 10
501.557
 11
501.654
 20
286.814
 21
286.74
  0
LINE
  8
0
 10
501.654
 11
501.733
 20
286.74
 21
286.647
  0
LINE
  8
0
 10
501.733
 11
501.821
 20
286.647
 21
286.563
  0
LINE
  8
0
 10
501.821
 11
501.891
 20
286.563
 21
286.463
  0
LINE
  8
0
 10
501.891
 11
501.97
 20
286.463
 21
286.371
  0
LINE
  8
0
 10
501.97
 11
502.029
 20
286.371
 21
286.265
  0
LINE
  8
0
 10
502.029
 11
502.098
 20
286.265
 21
286.165
  0
LINE
  8
0
 10
502.098
 11
502.146
 20
286.165
 21
286.053
  0
LINE
  8
0
 10
502.146
 11
502.205
 20
286.053
 21
285.946
  0
LINE
  8
0
 10
502.205
 11
502.242
 20
285.946
 21
285.83
  0
LINE
  8
0
 10
502.242
 11
502.29
 20
285.83
 21
285.718
  0
LINE
  8
0
 10
502.29
 11
502.314
 20
285.718
 21
285.599
  0
LINE
  8
0
 10
502.314
 11
502.351
 20
285.599
 21
285.483
  0
LINE
  8
0
 10
502.351
 11
502.363
 20
285.483
 21
285.362
  0
LINE
  8
0
 10
502.363
 11
502.388
 20
285.362
 21
285.243
  0
LINE
  8
0
 10
502.388
 11
502.388
 20
285.243
 21
285.121
  0
LINE
  8
0
 10
502.388
 11
502.4
 20
285.121
 21
285
  0
LINE
  8
0
 10
502.4
 11
502.388
 20
285
 21
284.879
  0
LINE
  8
0
 10
502.388
 11
502.388
 20
284.879
 21
284.757
  0
LINE
  8
0
 10
502.388
 11
502.363
 20
284.757
 21
284.638
  0
LINE
  8
0
 10
502.363
 11
502.351
 20
284.638
 21
284.517
  0
LINE
  8
0
 10
502.351
 11
502.314
 20
284.517
 21
284.401
  0
LINE
  8
0
 10
502.314
 11
502.29
 20
284.401
 21
284.282
  0
LINE
  8
0
 10
502.29
 11
502.242
 20
284.282
 21
284.17
  0
LINE
  8
0
 10
502.242
 11
502.205
 20
284.17
 21
284.054
  0
LINE
  8
0
 10
502.205
 11
502.146
 20
284.054
 21
283.947
  0
LINE
  8
0
 10
502.146
 11
502.098
 20
283.947
 21
283.835
  0
LINE
  8
0
 10
502.098
 11
502.029
 20
283.835
 21
283.735
  0
LINE
  8
0
 10
502.029
 11
501.97
 20
283.735
 21
283.629
  0
LINE
  8
0
 10
501.97
 11
501.891
 20
283.629
 21
283.537
  0
LINE
  8
0
 10
501.891
 11
501.821
 20
283.537
 21
283.437
  0
LINE
  8
0
 10
501.821
 11
501.733
 20
283.437
 21
283.353
  0
LINE
  8
0
 10
501.733
 11
501.654
 20
283.353
 21
283.26
  0
LINE
  8
0
 10
501.654
 11
501.557
 20
283.26
 21
283.186
  0
LINE
  8
0
 10
501.557
 11
501.469
 20
283.186
 21
283.102
  0
LINE
  8
0
 10
501.469
 11
501.366
 20
283.102
 21
283.038
  0
LINE
  8
0
 10
501.366
 11
501.27
 20
283.038
 21
282.963
  0
LINE
  8
0
 10
501.27
 11
501.16
 20
282.963
 21
282.91
  0
LINE
  8
0
 10
501.16
 11
501.057
 20
282.91
 21
282.845
  0
LINE
  8
0
 10
501.057
 11
500.943
 20
282.845
 21
282.803
  0
LINE
  8
0
 10
500.943
 11
500.834
 20
282.803
 21
282.749
  0
LINE
  8
0
 10
500.834
 11
500.716
 20
282.749
 21
282.719
  0
LINE
  8
0
 10
500.716
 11
500.602
 20
282.719
 21
282.677
  0
LINE
  8
0
 10
500.602
 11
500.481
 20
282.677
 21
282.658
  0
LINE
  8
0
 10
500.481
 11
500.363
 20
282.658
 21
282.628
  0
LINE
  8
0
 10
500.363
 11
500.242
 20
282.628
 21
282.622
  0
LINE
  8
0
 10
500.242
 11
500.122
 20
282.622
 21
282.603
  0
LINE
  8
0
 10
500.122
 11
500
 20
282.603
 21
282.609
  0
LINE
  8
0
 10
500
 11
499.878
 20
282.609
 21
282.603
  0
LINE
  8
0
 10
499.878
 11
499.758
 20
282.603
 21
282.622
  0
LINE
  8
0
 10
499.758
 11
499.637
 20
282.622
 21
282.628
  0
LINE
  8
0
 10
499.637
 11
499.519
 20
282.628
 21
282.658
  0
LINE
  8
0
 10
499.519
 11
499.398
 20
282.658
 21
282.677
  0
LINE
  8
0
 10
499.398
 11
499.284
 20
282.677
 21
282.719
  0
LINE
  8
0
 10
499.284
 11
499.166
 20
282.719
 21
282.749
  0
LINE
  8
0
 10
499.166
 11
499.057
 20
282.749
 21
282.803
  0
LINE
  8
0
 10
499.057
 11
498.943
 20
282.803
 21
282.845
  0
LINE
  8
0
 10
498.943
 11
498.84
 20
282.845
 21
282.91
  0
LINE
  8
0
 10
498.84
 11
498.73
 20
282.91
 21
282.963
  0
LINE
  8
0
 10
498.73
 11
498.634
 20
282.963
 21
283.038
  0
LINE
  8
0
 10
498.634
 11
498.531
 20
283.038
 21
283.102
  0
LINE
  8
0
 10
498.531
 11
498.443
 20
283.102
 21
283.186
  0
LINE
  8
0
 10
498.443
 11
498.346
 20
283.186
 21
283.26
  0
LINE
  8
0
 10
498.346
 11
498.267
 20
283.26
 21
283.353
  0
LINE
  8
0
 10
498.267
 11
498.179
 20
283.353
 21
283.437
  0
LINE
  8
0
 10
498.179
 11
498.109
 20
283.437
 21
283.537
  0
LINE
  8
0
 10
498.109
 11
498.03
 20
283.537
 21
283.629
  0
LINE
  8
0
 10
498.03
 11
497.971
 20
283.629
 21
283.735
  0
LINE
  8
0
 10
497.971
 11
497.902
 20
283.735
 21
283.835
  0
LINE
  8
0
 10
497.902
 11
497.854
 20
283.835
 21
283.947
  0
LINE
  8
0
 10
497.854
 11
497.795
 20
283.947
 21
284.054
  0
LINE
  8
0
 10
497.795
 11
497.758
 20
284.054
 21
284.17
  0
LINE
  8
0
 10
497.758
 11
497.71
 20
284.17
 21
284.282
  0
LINE
  8
0
 10
497.71
 11
497.686
 20
284.282
 21
284.401
  0
LINE
  8
0
 10
497.686
 11
497.649
 20
284.401
 21
284.517
  0
LINE
  8
0
 10
497.649
 11
497.637
 20
284.517
 21
284.638
  0
LINE
  8
0
 10
497.637
 11
497.612
 20
284.638
 21
284.757
  0
LINE
  8
0
 10
497.612
 11
497.612
 20
284.757
 21
284.879
  0
LINE
  8
0
 10
497.612
 11
497.6
 20
284.879
 21
285
  0
LINE
  8
0
 10
752.612
 11
752.612
 20
-285.243
 21
-284.757
  0
LINE
  8
0
 10
752.612
 11
752.71
 20
-284.757
 21
-284.282
  0
LINE
  8
0
 10
752.71
 11
752.902
 20
-284.282
 21
-283.835
  0
LINE
  8
0
 10
752.902
 11
753.179
 20
-283.835
 21
-283.437
  0
LINE
  8
0
 10
753.179
 11
753.531
 20
-283.437
 21
-283.102
  0
LINE
  8
0
 10
753.531
 11
753.943
 20
-283.102
 21
-282.845
  0
LINE
  8
0
 10
753.943
 11
754.398
 20
-282.845
 21
-282.677
  0
LINE
  8
0
 10
754.398
 11
754.878
 20
-282.677
 21
-282.603
  0
LINE
  8
0
 10
754.878
 11
755.363
 20
-282.603
 21
-282.628
  0
LINE
  8
0
 10
755.363
 11
755.834
 20
-282.628
 21
-282.749
  0
LINE
  8
0
 10
755.834
 11
756.27
 20
-282.749
 21
-282.963
  0
LINE
  8
0
 10
756.27
 11
756.654
 20
-282.963
 21
-283.26
  0
LINE
  8
0
 10
756.654
 11
756.97
 20
-283.26
 21
-283.629
  0
LINE
  8
0
 10
756.97
 11
757.205
 20
-283.629
 21
-284.054
  0
LINE
  8
0
 10
757.205
 11
757.351
 20
-284.054
 21
-284.517
  0
LINE
  8
0
 10
757.351
 11
757.4
 20
-284.517
 21
-285
  0
LINE
  8
0
 10
757.4
 11
757.351
 20
-285
 21
-285.483
  0
LINE
  8
0
 10
757.351
 11
757.205
 20
-285.483
 21
-285.946
  0
LINE
  8
0
 10
757.205
 11
756.97
 20
-285.946
 21
-286.371
  0
LINE
  8
0
 10
756.97
 11
756.654
 20
-286.371
 21
-286.74
  0
LINE
  8
0
 10
756.654
 11
756.27
 20
-286.74
 21
-287.037
  0
LINE
  8
0
 10
756.27
 11
755.834
 20
-287.037
 21
-287.251
  0
LINE
  8
0
 10
755.834
 11
755.363
 20
-287.251
 21
-287.372
  0
LINE
  8
0
 10
755.363
 11
754.878
 20
-287.372
 21
-287.397
  0
LINE
  8
0
 10
754.878
 11
754.398
 20
-287.397
 21
-287.323
  0
LINE
  8
0
 10
754.398
 11
753.943
 20
-287.323
 21
-287.155
  0
LINE
  8
0
 10
753.943
 11
753.531
 20
-287.155
 21
-286.898
  0
LINE
  8
0
 10
753.531
 11
753.179
 20
-286.898
 21
-286.563
  0
LINE
  8
0
 10
753.179
 11
752.902
 20
-286.563
 21
-286.165
  0
LINE
  8
0
 10
752.902
 11
752.71
 20
-286.165
 21
-285.718
  0
LINE
  8
0
 10
752.71
 11
752.612
 20
-285.718
 21
-285.243
  0
LINE
  8
0
 10
752.612
 11
752.612
 20
284.757
 21
285.243
  0
LINE
  8
0
 10
752.612
 11
752.71
 20
285.243
 21
285.718
  0
LINE
  8
0
 10
752.71
 11
752.902
 20
285.718
 21
286.165
  0
LINE
  8
0
 10
752.902
 11
753.179
 20
286.165
 21
286.563
  0
LINE
  8
0
 10
753.179
 11
753.531
 20
286.563
 21
286.898
  0
LINE
  8
0
 10
753.531
 11
753.943
 20
286.898
 21
287.155
  0
LINE
  8
0
 10
753.943
 11
754.398
 20
287.155
 21
287.323
  0
LINE
  8
0
 10
754.398
 11
754.878
 20
287.323
 21
287.397
  0
LINE
  8
0
 10
754.878
 11
755.363
 20
287.397
 21
287.372
  0
LINE
  8
0
 10
755.363
 11
755.834
 20
287.372
 21
287.251
  0
LINE
  8
0
 10
755.834
 11
756.27
 20
287.251
 21
287.037
  0
LINE
  8
0
 10
756.27
 11
756.654
 20
287.037
 21
286.74
  0
LINE
  8
0
 10
756.654
 11
756.97
 20
286.74
 21
286.371
  0
LINE
  8
0
 10
756.97
 11
757.205
 20
286.371
 21
285.946
  0
LINE
  8
0
 10
757.205
 11
757.351
 20
285.946
 21
285.483
  0
LINE
  8
0
 10
757.351
 11
757.4
 20
285.483
 21
285
  0
LINE
  8
0
 10
757.4
 11
757.351
 20
285
 21
284.517
  0
LINE
  8
0
 10
757.351
 11
757.205
 20
284.517
 21
284.054
  0
LINE
  8
0
 10
757.205
 11
756.97
 20
284.054
 21
283.629
  0
LINE
  8
0
 10
756.97
 11
756.654
 20
283.629
 21
283.26
  0
LINE
  8
0
 10
756.654
 11
756.27
 20
283.26
 21
282.963
  0
LINE
  8
0
 10
756.27
 11
755.834
 20
282.963
 21
282.749
  0
LINE
  8
0
 10
755.834
 11
755.363
 20
282.749
 21
282.628
  0
LINE
  8
0
 10
755.363
 11
754.878
 20
282.628
 21
282.603
  0
LINE
  8
0
 10
754.878
 11
754.398
 20
282.603
 21
282.677
  0
LINE
  8
0
 10
754.398
 11
753.943
 20
282.677
 21
282.845
  0
LINE
  8
0
 10
753.943
 11
753.531
 20
282.845
 21
283.102
  0
LINE
  8
0
 10
753.531
 11
753.179
 20
283.102
 21
283.437
  0
LINE
  8
0
 10
753.179
 11
752.902
 20
283.437
 21
283.835
  0
LINE
  8
0
 10
752.902
 11
752.71
 20
283.835
 21
284.282
  0
LINE
  8
0
 10
752.71
 11
752.612
 20
284.282
 21
284.757
  0
LINE
  8
0
 10
782.612
 11
782.612
 20
-225.243
 21
-224.757
  0
LINE
  8
0
 10
782.612
 11
782.71
 20
-224.757
 21
-224.282
  0
LINE
  8
0
 10
782.71
 11
782.902
 20
-224.282
 21
-223.835
  0
LINE
  8
0
 10
782.902
 11
783.179
 20
-223.835
 21
-223.437
  0
LINE
  8
0
 10
783.179
 11
783.531
 20
-223.437
 21
-223.102
  0
LINE
  8
0
 10
783.531
 11
783.943
 20
-223.102
 21
-222.845
  0
LINE
  8
0
 10
783.943
 11
784.398
 20
-222.845
 21
-222.677
  0
LINE
  8
0
 10
784.398
 11
784.878
 20
-222.677
 21
-222.603
  0
LINE
  8
0
 10
784.878
 11
785.363
 20
-222.603
 21
-222.628
  0
LINE
  8
0
 10
785.363
 11
785.834
 20
-222.628
 21
-222.749
  0
LINE
  8
0
 10
785.834
 11
786.27
 20
-222.749
 21
-222.963
  0
LINE
  8
0
 10
786.27
 11
786.654
 20
-222.963
 21
-223.26
  0
LINE
  8
0
 10
786.654
 11
786.97
 20
-223.26
 21
-223.629
  0
LINE
  8
0
 10
786.97
 11
787.205
 20
-223.629
 21
-224.054
  0
LINE
  8
0
 10
787.205
 11
787.351
 20
-224.054
 21
-224.517
  0
LINE
  8
0
 10
787.351
 11
787.4
 20
-224.517
 21
-225
  0
LINE
  8
0
 10
787.4
 11
787.351
 20
-225
 21
-225.483
  0
LINE
  8
0
 10
787.351
 11
787.205
 20
-225.483
 21
-225.946
  0
LINE
  8
0
 10
787.205
 11
786.97
 20
-225.946
 21
-226.371
  0
LINE
  8
0
 10
786.97
 11
786.654
 20
-226.371
 21
-226.74
  0
LINE
  8
0
 10
786.654
 11
786.27
 20
-226.74
 21
-227.037
  0
LINE
  8
0
 10
786.27
 11
785.834
 20
-227.037
 21
-227.251
  0
LINE
  8
0
 10
785.834
 11
785.363
 20
-227.251
 21
-227.372
  0
LINE
  8
0
 10
785.363
 11
784.878
 20
-227.372
 21
-227.397
  0
LINE
  8
0
 10
784.878
 11
784.398
 20
-227.397
 21
-227.323
  0
LINE
  8
0
 10
784.398
 11
783.943
 20
-227.323
 21
-227.155
  0
LINE
  8
0
 10
783.943
 11
783.531
 20
-227.155
 21
-226.898
  0
LINE
  8
0
 10
783.531
 11
783.179
 20
-226.898
 21
-226.563
  0
LINE
  8
0
 10
783.179
 11
782.902
 20
-226.563
 21
-226.165
  0
LINE
  8
0
 10
782.902
 11
782.71
 20
-226.165
 21
-225.718
  0
LINE
  8
0
 10
782.71
 11
782.612
 20
-225.718
 21
-225.243
  0
LINE
  8
0
 10
782.612
 11
782.612
 20
-0.243
 21
0.243
  0
LINE
  8
0
 10
782.612
 11
782.71
 20
0.243
 21
0.718
  0
LINE
  8
0
 10
782.71
 11
782.902
 20
0.718
 21
1.165
  0
LINE
  8
0
 10
782.902
 11
783.179
 20
1.165
 21
1.563
  0
LINE
  8
0
 10
783.179
 11
783.531
 20
1.563
 21
1.898
  0
LINE
  8
0
 10
783.531
 11
783.943
 20
1.898
 21
2.155
  0
LINE
  8
0
 10
783.943
 11
784.398
 20
2.155
 21
2.323
  0
LINE
  8
0
 10
784.398
 11
784.878
 20
2.323
 21
2.397
  0
LINE
  8
0
 10
784.878
 11
785.363
 20
2.397
 21
2.372
  0
LINE
  8
0
 10
785.363
 11
785.834
 20
2.372
 21
2.251
  0
LINE
  8
0
 10
785.834
 11
786.27
 20
2.251
 21
2.037
  0
LINE
  8
0
 10
786.27
 11
786.654
 20
2.037
 21
1.74
  0
LINE
  8
0
 10
786.654
 11
786.97
 20
1.74
 21
1.371
  0
LINE
  8
0
 10
786.97
 11
787.205
 20
1.371
 21
0.946
  0
LINE
  8
0
 10
787.205
 11
787.351
 20
0.946
 21
0.483
  0
LINE
  8
0
 10
787.351
 11
787.4
 20
0.483
 21
0
  0
LINE
  8
0
 10
787.4
 11
787.351
 20
0
 21
-0.483
  0
LINE
  8
0
 10
787.351
 11
787.205
 20
-0.483
 21
-0.946
  0
LINE
  8
0
 10
787.205
 11
786.97
 20
-0.946
 21
-1.371
  0
LINE
  8
0
 10
786.97
 11
786.654
 20
-1.371
 21
-1.74
  0
LINE
  8
0
 10
786.654
 11
786.27
 20
-1.74
 21
-2.037
  0
LINE
  8
0
 10
786.27
 11
785.834
 20
-2.037
 21
-2.251
  0
LINE
  8
0
 10
785.834
 11
785.363
 20
-2.251
 21
-2.372
  0
LINE
  8
0
 10
785.363
 11
784.878
 20
-2.372
 21
-2.397
  0
LINE
  8
0
 10
784.878
 11
784.398
 20
-2.397
 21
-2.323
  0
LINE
  8
0
 10
784.398
 11
783.943
 20
-2.323
 21
-2.155
  0
LINE
  8
0
 10
783.943
 11
783.531
 20
-2.155
 21
-1.898
  0
LINE
  8
0
 10
783.531
 11
783.179
 20
-1.898
 21
-1.563
  0
LINE
  8
0
 10
783.179
 11
782.902
 20
-1.563
 21
-1.165
  0
LINE
  8
0
 10
782.902
 11
782.71
 20
-1.165
 21
-0.718
  0
LINE
  8
0
 10
782.71
 11
782.612
 20
-0.718
 21
-0.243
  0
LINE
  8
0
 10
782.612
 11
782.612
 20
224.757
 21
225.243
  0
LINE
  8
0
 10
782.612
 11
782.71
 20
225.243
 21
225.718
  0
LINE
  8
0
 10
782.71
 11
782.902
 20
225.718
 21
226.165
  0
LINE
  8
0
 10
782.902
 11
783.179
 20
226.165
 21
226.563
  0
LINE
  8
0
 10
783.179
 11
783.531
 20
226.563
 21
226.898
  0
LINE
  8
0
 10
783.531
 11
783.943
 20
226.898
 21
227.155
  0
LINE
  8
0
 10
783.943
 11
784.398
 20
227.155
 21
227.323
  0
LINE
  8
0
 10
784.398
 11
784.878
 20
227.323
 21
227.397
  0
LINE
  8
0
 10
784.878
 11
785.363
 20
227.397
 21
227.372
  0
LINE
  8
0
 10
785.363
 11
785.834
 20
227.372
 21
227.251
  0
LINE
  8
0
 10
785.834
 11
786.27
 20
227.251
 21
227.037
  0
LINE
  8
0
 10
786.27
 11
786.654
 20
227.037
 21
226.74
  0
LINE
  8
0
 10
786.654
 11
786.97
 20
226.74
 21
226.371
  0
LINE
  8
0
 10
786.97
 11
787.205
 20
226.371
 21
225.946
  0
LINE
  8
0
 10
787.205
 11
787.351
 20
225.946
 21
225.483
  0
LINE
  8
0
 10
787.351
 11
787.4
 20
225.483
 21
225
  0
LINE
  8
0
 10
787.4
 11
787.351
 20
225
 21
224.517
  0
LINE
  8
0
 10
787.351
 11
787.205
 20
224.517
 21
224.054
  0
LINE
  8
0
 10
787.205
 11
786.97
 20
224.054
 21
223.629
  0
LINE
  8
0
 10
786.97
 11
786.654
 20
223.629
 21
223.26
  0
LINE
  8
0
 10
786.654
 11
786.27
 20
223.26
 21
222.963
  0
LINE
  8
0
 10
786.27
 11
785.834
 20
222.963
 21
222.749
  0
LINE
  8
0
 10
785.834
 11
785.363
 20
222.749
 21
222.628
  0
LINE
  8
0
 10
785.363
 11
784.878
 20
222.628
 21
222.603
  0
LINE
  8
0
 10
784.878
 11
784.398
 20
222.603
 21
222.677
  0
LINE
  8
0
 10
784.398
 11
783.943
 20
222.677
 21
222.845
  0
LINE
  8
0
 10
783.943
 11
783.531
 20
222.845
 21
223.102
  0
LINE
  8
0
 10
783.531
 11
783.179
 20
223.102
 21
223.437
  0
LINE
  8
0
 10
783.179
 11
782.902
 20
223.437
 21
223.835
  0
LINE
  8
0
 10
782.902
 11
782.71
 20
223.835
 21
224.282
  0
LINE
  8
0
 10
782.71
 11
782.612
 20
224.282
 21
224.757
  0
ENDSEC
  0
SECTION
  2
OBJECTS
  0
DICTIONARY
  0
ENDSEC
  0
EOF
