  0
SECTION
  2
BLOCKS
  0
ENDSEC
  0
SECTION
  2
ENTITIES
  0
LINE
  8
0
 10
-300
 11
-300
 20
27
 21
170
  0
LINE
  8
0
 10
-300
 11
-243
 20
170
 21
170
  0
LINE
  8
0
 10
-243
 11
-243
 20
170
 21
200
  0
LINE
  8
0
 10
-243
 11
243
 20
200
 21
200
  0
LINE
  8
0
 10
243
 11
243
 20
200
 21
170
  0
LINE
  8
0
 10
243
 11
300
 20
170
 21
170
  0
LINE
  8
0
 10
300
 11
300
 20
170
 21
27
  0
LINE
  8
0
 10
300
 11
243
 20
27
 21
27
  0
LINE
  8
0
 10
243
 11
243
 20
27
 21
-6
  0
LINE
  8
0
 10
243
 11
-243
 20
-6
 21
-6
  0
LINE
  8
0
 10
-243
 11
-243
 20
-6
 21
27
  0
LINE
  8
0
 10
-243
 11
-300
 20
27
 21
27
  0
LINE
  8
0
 10
-287.4
 11
-287.351
 20
45
 21
45.483
  0
LINE
  8
0
 10
-287.351
 11
-287.205
 20
45.483
 21
45.946
  0
LINE
  8
0
 10
-287.205
 11
-286.97
 20
45.946
 21
46.371
  0
LINE
  8
0
 10
-286.97
 11
-286.654
 20
46.371
 21
46.74
  0
LINE
  8
0
 10
-286.654
 11
-286.27
 20
46.74
 21
47.037
  0
LINE
  8
0
 10
-286.27
 11
-285.834
 20
47.037
 21
47.251
  0
LINE
  8
0
 10
-285.834
 11
-285.363
 20
47.251
 21
47.372
  0
LINE
  8
0
 10
-285.363
 11
-284.878
 20
47.372
 21
47.397
  0
LINE
  8
0
 10
-284.878
 11
-284.398
 20
47.397
 21
47.323
  0
LINE
  8
0
 10
-284.398
 11
-283.943
 20
47.323
 21
47.155
  0
LINE
  8
0
 10
-283.943
 11
-283.531
 20
47.155
 21
46.898
  0
LINE
  8
0
 10
-283.531
 11
-283.179
 20
46.898
 21
46.563
  0
LINE
  8
0
 10
-283.179
 11
-282.902
 20
46.563
 21
46.165
  0
LINE
  8
0
 10
-282.902
 11
-282.71
 20
46.165
 21
45.718
  0
LINE
  8
0
 10
-282.71
 11
-282.612
 20
45.718
 21
45.243
  0
LINE
  8
0
 10
-282.612
 11
-282.612
 20
45.243
 21
44.757
  0
LINE
  8
0
 10
-282.612
 11
-282.71
 20
44.757
 21
44.282
  0
LINE
  8
0
 10
-282.71
 11
-282.902
 20
44.282
 21
43.835
  0
LINE
  8
0
 10
-282.902
 11
-283.179
 20
43.835
 21
43.437
  0
LINE
  8
0
 10
-283.179
 11
-283.531
 20
43.437
 21
43.102
  0
LINE
  8
0
 10
-283.531
 11
-283.943
 20
43.102
 21
42.845
  0
LINE
  8
0
 10
-283.943
 11
-284.398
 20
42.845
 21
42.677
  0
LINE
  8
0
 10
-284.398
 11
-284.878
 20
42.677
 21
42.603
  0
LINE
  8
0
 10
-284.878
 11
-285.363
 20
42.603
 21
42.628
  0
LINE
  8
0
 10
-285.363
 11
-285.834
 20
42.628
 21
42.749
  0
LINE
  8
0
 10
-285.834
 11
-286.27
 20
42.749
 21
42.963
  0
LINE
  8
0
 10
-286.27
 11
-286.654
 20
42.963
 21
43.26
  0
LINE
  8
0
 10
-286.654
 11
-286.97
 20
43.26
 21
43.629
  0
LINE
  8
0
 10
-286.97
 11
-287.205
 20
43.629
 21
44.054
  0
LINE
  8
0
 10
-287.205
 11
-287.351
 20
44.054
 21
44.517
  0
LINE
  8
0
 10
-287.351
 11
-287.4
 20
44.517
 21
45
  0
LINE
  8
0
 10
-287.4
 11
-287.351
 20
155
 21
155.483
  0
LINE
  8
0
 10
-287.351
 11
-287.205
 20
155.483
 21
155.946
  0
LINE
  8
0
 10
-287.205
 11
-286.97
 20
155.946
 21
156.371
  0
LINE
  8
0
 10
-286.97
 11
-286.654
 20
156.371
 21
156.74
  0
LINE
  8
0
 10
-286.654
 11
-286.27
 20
156.74
 21
157.037
  0
LINE
  8
0
 10
-286.27
 11
-285.834
 20
157.037
 21
157.251
  0
LINE
  8
0
 10
-285.834
 11
-285.363
 20
157.251
 21
157.372
  0
LINE
  8
0
 10
-285.363
 11
-284.878
 20
157.372
 21
157.397
  0
LINE
  8
0
 10
-284.878
 11
-284.398
 20
157.397
 21
157.323
  0
LINE
  8
0
 10
-284.398
 11
-283.943
 20
157.323
 21
157.155
  0
LINE
  8
0
 10
-283.943
 11
-283.531
 20
157.155
 21
156.898
  0
LINE
  8
0
 10
-283.531
 11
-283.179
 20
156.898
 21
156.563
  0
LINE
  8
0
 10
-283.179
 11
-282.902
 20
156.563
 21
156.165
  0
LINE
  8
0
 10
-282.902
 11
-282.71
 20
156.165
 21
155.718
  0
LINE
  8
0
 10
-282.71
 11
-282.612
 20
155.718
 21
155.243
  0
LINE
  8
0
 10
-282.612
 11
-282.612
 20
155.243
 21
154.757
  0
LINE
  8
0
 10
-282.612
 11
-282.71
 20
154.757
 21
154.282
  0
LINE
  8
0
 10
-282.71
 11
-282.902
 20
154.282
 21
153.835
  0
LINE
  8
0
 10
-282.902
 11
-283.179
 20
153.835
 21
153.437
  0
LINE
  8
0
 10
-283.179
 11
-283.531
 20
153.437
 21
153.102
  0
LINE
  8
0
 10
-283.531
 11
-283.943
 20
153.102
 21
152.845
  0
LINE
  8
0
 10
-283.943
 11
-284.398
 20
152.845
 21
152.677
  0
LINE
  8
0
 10
-284.398
 11
-284.878
 20
152.677
 21
152.603
  0
LINE
  8
0
 10
-284.878
 11
-285.363
 20
152.603
 21
152.628
  0
LINE
  8
0
 10
-285.363
 11
-285.834
 20
152.628
 21
152.749
  0
LINE
  8
0
 10
-285.834
 11
-286.27
 20
152.749
 21
152.963
  0
LINE
  8
0
 10
-286.27
 11
-286.654
 20
152.963
 21
153.26
  0
LINE
  8
0
 10
-286.654
 11
-286.97
 20
153.26
 21
153.629
  0
LINE
  8
0
 10
-286.97
 11
-287.205
 20
153.629
 21
154.054
  0
LINE
  8
0
 10
-287.205
 11
-287.351
 20
154.054
 21
154.517
  0
LINE
  8
0
 10
-287.351
 11
-287.4
 20
154.517
 21
155
  0
LINE
  8
0
 10
-227.4
 11
-227.351
 20
15
 21
15.483
  0
LINE
  8
0
 10
-227.351
 11
-227.205
 20
15.483
 21
15.946
  0
LINE
  8
0
 10
-227.205
 11
-226.97
 20
15.946
 21
16.371
  0
LINE
  8
0
 10
-226.97
 11
-226.654
 20
16.371
 21
16.74
  0
LINE
  8
0
 10
-226.654
 11
-226.27
 20
16.74
 21
17.037
  0
LINE
  8
0
 10
-226.27
 11
-225.834
 20
17.037
 21
17.251
  0
LINE
  8
0
 10
-225.834
 11
-225.363
 20
17.251
 21
17.372
  0
LINE
  8
0
 10
-225.363
 11
-224.878
 20
17.372
 21
17.397
  0
LINE
  8
0
 10
-224.878
 11
-224.398
 20
17.397
 21
17.323
  0
LINE
  8
0
 10
-224.398
 11
-223.943
 20
17.323
 21
17.155
  0
LINE
  8
0
 10
-223.943
 11
-223.531
 20
17.155
 21
16.898
  0
LINE
  8
0
 10
-223.531
 11
-223.179
 20
16.898
 21
16.563
  0
LINE
  8
0
 10
-223.179
 11
-222.902
 20
16.563
 21
16.165
  0
LINE
  8
0
 10
-222.902
 11
-222.71
 20
16.165
 21
15.718
  0
LINE
  8
0
 10
-222.71
 11
-222.612
 20
15.718
 21
15.243
  0
LINE
  8
0
 10
-222.612
 11
-222.612
 20
15.243
 21
14.757
  0
LINE
  8
0
 10
-222.612
 11
-222.71
 20
14.757
 21
14.282
  0
LINE
  8
0
 10
-222.71
 11
-222.902
 20
14.282
 21
13.835
  0
LINE
  8
0
 10
-222.902
 11
-223.179
 20
13.835
 21
13.437
  0
LINE
  8
0
 10
-223.179
 11
-223.531
 20
13.437
 21
13.102
  0
LINE
  8
0
 10
-223.531
 11
-223.943
 20
13.102
 21
12.845
  0
LINE
  8
0
 10
-223.943
 11
-224.398
 20
12.845
 21
12.677
  0
LINE
  8
0
 10
-224.398
 11
-224.878
 20
12.677
 21
12.603
  0
LINE
  8
0
 10
-224.878
 11
-225.363
 20
12.603
 21
12.628
  0
LINE
  8
0
 10
-225.363
 11
-225.834
 20
12.628
 21
12.749
  0
LINE
  8
0
 10
-225.834
 11
-226.27
 20
12.749
 21
12.963
  0
LINE
  8
0
 10
-226.27
 11
-226.654
 20
12.963
 21
13.26
  0
LINE
  8
0
 10
-226.654
 11
-226.97
 20
13.26
 21
13.629
  0
LINE
  8
0
 10
-226.97
 11
-227.205
 20
13.629
 21
14.054
  0
LINE
  8
0
 10
-227.205
 11
-227.351
 20
14.054
 21
14.517
  0
LINE
  8
0
 10
-227.351
 11
-227.4
 20
14.517
 21
15
  0
LINE
  8
0
 10
-154.9
 11
-154.851
 20
65
 21
65.483
  0
LINE
  8
0
 10
-154.851
 11
-154.705
 20
65.483
 21
65.946
  0
LINE
  8
0
 10
-154.705
 11
-154.47
 20
65.946
 21
66.371
  0
LINE
  8
0
 10
-154.47
 11
-154.154
 20
66.371
 21
66.74
  0
LINE
  8
0
 10
-154.154
 11
-153.77
 20
66.74
 21
67.037
  0
LINE
  8
0
 10
-153.77
 11
-153.334
 20
67.037
 21
67.251
  0
LINE
  8
0
 10
-153.334
 11
-152.863
 20
67.251
 21
67.372
  0
LINE
  8
0
 10
-152.863
 11
-152.378
 20
67.372
 21
67.397
  0
LINE
  8
0
 10
-152.378
 11
-151.898
 20
67.397
 21
67.323
  0
LINE
  8
0
 10
-151.898
 11
-151.443
 20
67.323
 21
67.155
  0
LINE
  8
0
 10
-151.443
 11
-151.031
 20
67.155
 21
66.898
  0
LINE
  8
0
 10
-151.031
 11
-150.679
 20
66.898
 21
66.563
  0
LINE
  8
0
 10
-150.679
 11
-150.402
 20
66.563
 21
66.165
  0
LINE
  8
0
 10
-150.402
 11
-150.21
 20
66.165
 21
65.718
  0
LINE
  8
0
 10
-150.21
 11
-150.112
 20
65.718
 21
65.243
  0
LINE
  8
0
 10
-150.112
 11
-150.112
 20
65.243
 21
64.757
  0
LINE
  8
0
 10
-150.112
 11
-150.21
 20
64.757
 21
64.282
  0
LINE
  8
0
 10
-150.21
 11
-150.402
 20
64.282
 21
63.835
  0
LINE
  8
0
 10
-150.402
 11
-150.679
 20
63.835
 21
63.437
  0
LINE
  8
0
 10
-150.679
 11
-151.031
 20
63.437
 21
63.102
  0
LINE
  8
0
 10
-151.031
 11
-151.443
 20
63.102
 21
62.845
  0
LINE
  8
0
 10
-151.443
 11
-151.898
 20
62.845
 21
62.677
  0
LINE
  8
0
 10
-151.898
 11
-152.378
 20
62.677
 21
62.603
  0
LINE
  8
0
 10
-152.378
 11
-152.863
 20
62.603
 21
62.628
  0
LINE
  8
0
 10
-152.863
 11
-153.334
 20
62.628
 21
62.749
  0
LINE
  8
0
 10
-153.334
 11
-153.77
 20
62.749
 21
62.963
  0
LINE
  8
0
 10
-153.77
 11
-154.154
 20
62.963
 21
63.26
  0
LINE
  8
0
 10
-154.154
 11
-154.47
 20
63.26
 21
63.629
  0
LINE
  8
0
 10
-154.47
 11
-154.705
 20
63.629
 21
64.054
  0
LINE
  8
0
 10
-154.705
 11
-154.851
 20
64.054
 21
64.517
  0
LINE
  8
0
 10
-154.851
 11
-154.9
 20
64.517
 21
65
  0
LINE
  8
0
 10
-154.9
 11
-154.851
 20
90
 21
90.483
  0
LINE
  8
0
 10
-154.851
 11
-154.705
 20
90.483
 21
90.946
  0
LINE
  8
0
 10
-154.705
 11
-154.47
 20
90.946
 21
91.371
  0
LINE
  8
0
 10
-154.47
 11
-154.154
 20
91.371
 21
91.74
  0
LINE
  8
0
 10
-154.154
 11
-153.77
 20
91.74
 21
92.037
  0
LINE
  8
0
 10
-153.77
 11
-153.334
 20
92.037
 21
92.251
  0
LINE
  8
0
 10
-153.334
 11
-152.863
 20
92.251
 21
92.372
  0
LINE
  8
0
 10
-152.863
 11
-152.378
 20
92.372
 21
92.397
  0
LINE
  8
0
 10
-152.378
 11
-151.898
 20
92.397
 21
92.323
  0
LINE
  8
0
 10
-151.898
 11
-151.443
 20
92.323
 21
92.155
  0
LINE
  8
0
 10
-151.443
 11
-151.031
 20
92.155
 21
91.898
  0
LINE
  8
0
 10
-151.031
 11
-150.679
 20
91.898
 21
91.563
  0
LINE
  8
0
 10
-150.679
 11
-150.402
 20
91.563
 21
91.165
  0
LINE
  8
0
 10
-150.402
 11
-150.21
 20
91.165
 21
90.718
  0
LINE
  8
0
 10
-150.21
 11
-150.112
 20
90.718
 21
90.243
  0
LINE
  8
0
 10
-150.112
 11
-150.112
 20
90.243
 21
89.757
  0
LINE
  8
0
 10
-150.112
 11
-150.21
 20
89.757
 21
89.282
  0
LINE
  8
0
 10
-150.21
 11
-150.402
 20
89.282
 21
88.835
  0
LINE
  8
0
 10
-150.402
 11
-150.679
 20
88.835
 21
88.437
  0
LINE
  8
0
 10
-150.679
 11
-151.031
 20
88.437
 21
88.102
  0
LINE
  8
0
 10
-151.031
 11
-151.443
 20
88.102
 21
87.845
  0
LINE
  8
0
 10
-151.443
 11
-151.898
 20
87.845
 21
87.677
  0
LINE
  8
0
 10
-151.898
 11
-152.378
 20
87.677
 21
87.603
  0
LINE
  8
0
 10
-152.378
 11
-152.863
 20
87.603
 21
87.628
  0
LINE
  8
0
 10
-152.863
 11
-153.334
 20
87.628
 21
87.749
  0
LINE
  8
0
 10
-153.334
 11
-153.77
 20
87.749
 21
87.963
  0
LINE
  8
0
 10
-153.77
 11
-154.154
 20
87.963
 21
88.26
  0
LINE
  8
0
 10
-154.154
 11
-154.47
 20
88.26
 21
88.629
  0
LINE
  8
0
 10
-154.47
 11
-154.705
 20
88.629
 21
89.054
  0
LINE
  8
0
 10
-154.705
 11
-154.851
 20
89.054
 21
89.517
  0
LINE
  8
0
 10
-154.851
 11
-154.9
 20
89.517
 21
90
  0
LINE
  8
0
 10
-129.888
 11
-129.888
 20
64.757
 21
65.243
  0
LINE
  8
0
 10
-129.888
 11
-129.79
 20
65.243
 21
65.718
  0
LINE
  8
0
 10
-129.79
 11
-129.598
 20
65.718
 21
66.165
  0
LINE
  8
0
 10
-129.598
 11
-129.321
 20
66.165
 21
66.563
  0
LINE
  8
0
 10
-129.321
 11
-128.969
 20
66.563
 21
66.898
  0
LINE
  8
0
 10
-128.969
 11
-128.557
 20
66.898
 21
67.155
  0
LINE
  8
0
 10
-128.557
 11
-128.102
 20
67.155
 21
67.323
  0
LINE
  8
0
 10
-128.102
 11
-127.622
 20
67.323
 21
67.397
  0
LINE
  8
0
 10
-127.622
 11
-127.137
 20
67.397
 21
67.372
  0
LINE
  8
0
 10
-127.137
 11
-126.666
 20
67.372
 21
67.251
  0
LINE
  8
0
 10
-126.666
 11
-126.23
 20
67.251
 21
67.037
  0
LINE
  8
0
 10
-126.23
 11
-125.846
 20
67.037
 21
66.74
  0
LINE
  8
0
 10
-125.846
 11
-125.53
 20
66.74
 21
66.371
  0
LINE
  8
0
 10
-125.53
 11
-125.295
 20
66.371
 21
65.946
  0
LINE
  8
0
 10
-125.295
 11
-125.149
 20
65.946
 21
65.483
  0
LINE
  8
0
 10
-125.149
 11
-125.1
 20
65.483
 21
65
  0
LINE
  8
0
 10
-125.1
 11
-125.149
 20
65
 21
64.517
  0
LINE
  8
0
 10
-125.149
 11
-125.295
 20
64.517
 21
64.054
  0
LINE
  8
0
 10
-125.295
 11
-125.53
 20
64.054
 21
63.629
  0
LINE
  8
0
 10
-125.53
 11
-125.846
 20
63.629
 21
63.26
  0
LINE
  8
0
 10
-125.846
 11
-126.23
 20
63.26
 21
62.963
  0
LINE
  8
0
 10
-126.23
 11
-126.666
 20
62.963
 21
62.749
  0
LINE
  8
0
 10
-126.666
 11
-127.137
 20
62.749
 21
62.628
  0
LINE
  8
0
 10
-127.137
 11
-127.622
 20
62.628
 21
62.603
  0
LINE
  8
0
 10
-127.622
 11
-128.102
 20
62.603
 21
62.677
  0
LINE
  8
0
 10
-128.102
 11
-128.557
 20
62.677
 21
62.845
  0
LINE
  8
0
 10
-128.557
 11
-128.969
 20
62.845
 21
63.102
  0
LINE
  8
0
 10
-128.969
 11
-129.321
 20
63.102
 21
63.437
  0
LINE
  8
0
 10
-129.321
 11
-129.598
 20
63.437
 21
63.835
  0
LINE
  8
0
 10
-129.598
 11
-129.79
 20
63.835
 21
64.282
  0
LINE
  8
0
 10
-129.79
 11
-129.888
 20
64.282
 21
64.757
  0
LINE
  8
0
 10
-129.888
 11
-129.888
 20
89.757
 21
90.243
  0
LINE
  8
0
 10
-129.888
 11
-129.79
 20
90.243
 21
90.718
  0
LINE
  8
0
 10
-129.79
 11
-129.598
 20
90.718
 21
91.165
  0
LINE
  8
0
 10
-129.598
 11
-129.321
 20
91.165
 21
91.563
  0
LINE
  8
0
 10
-129.321
 11
-128.969
 20
91.563
 21
91.898
  0
LINE
  8
0
 10
-128.969
 11
-128.557
 20
91.898
 21
92.155
  0
LINE
  8
0
 10
-128.557
 11
-128.102
 20
92.155
 21
92.323
  0
LINE
  8
0
 10
-128.102
 11
-127.622
 20
92.323
 21
92.397
  0
LINE
  8
0
 10
-127.622
 11
-127.137
 20
92.397
 21
92.372
  0
LINE
  8
0
 10
-127.137
 11
-126.666
 20
92.372
 21
92.251
  0
LINE
  8
0
 10
-126.666
 11
-126.23
 20
92.251
 21
92.037
  0
LINE
  8
0
 10
-126.23
 11
-125.846
 20
92.037
 21
91.74
  0
LINE
  8
0
 10
-125.846
 11
-125.53
 20
91.74
 21
91.371
  0
LINE
  8
0
 10
-125.53
 11
-125.295
 20
91.371
 21
90.946
  0
LINE
  8
0
 10
-125.295
 11
-125.149
 20
90.946
 21
90.483
  0
LINE
  8
0
 10
-125.149
 11
-125.1
 20
90.483
 21
90
  0
LINE
  8
0
 10
-125.1
 11
-125.149
 20
90
 21
89.517
  0
LINE
  8
0
 10
-125.149
 11
-125.295
 20
89.517
 21
89.054
  0
LINE
  8
0
 10
-125.295
 11
-125.53
 20
89.054
 21
88.629
  0
LINE
  8
0
 10
-125.53
 11
-125.846
 20
88.629
 21
88.26
  0
LINE
  8
0
 10
-125.846
 11
-126.23
 20
88.26
 21
87.963
  0
LINE
  8
0
 10
-126.23
 11
-126.666
 20
87.963
 21
87.749
  0
LINE
  8
0
 10
-126.666
 11
-127.137
 20
87.749
 21
87.628
  0
LINE
  8
0
 10
-127.137
 11
-127.622
 20
87.628
 21
87.603
  0
LINE
  8
0
 10
-127.622
 11
-128.102
 20
87.603
 21
87.677
  0
LINE
  8
0
 10
-128.102
 11
-128.557
 20
87.677
 21
87.845
  0
LINE
  8
0
 10
-128.557
 11
-128.969
 20
87.845
 21
88.102
  0
LINE
  8
0
 10
-128.969
 11
-129.321
 20
88.102
 21
88.437
  0
LINE
  8
0
 10
-129.321
 11
-129.598
 20
88.437
 21
88.835
  0
LINE
  8
0
 10
-129.598
 11
-129.79
 20
88.835
 21
89.282
  0
LINE
  8
0
 10
-129.79
 11
-129.888
 20
89.282
 21
89.757
  0
LINE
  8
0
 10
-23.5
 11
-23.5
 20
76.717
 21
123.283
  0
LINE
  8
0
 10
-23.5
 11
-23.449
 20
123.283
 21
123.413
  0
LINE
  8
0
 10
-23.449
 11
-23.032
 20
123.413
 21
124.421
  0
LINE
  8
0
 10
-23.032
 11
-22.597
 20
124.421
 21
125.421
  0
LINE
  8
0
 10
-22.597
 11
-22.144
 20
125.421
 21
126.414
  0
LINE
  8
0
 10
-22.144
 11
-21.675
 20
126.414
 21
127.398
  0
LINE
  8
0
 10
-21.675
 11
-21.188
 20
127.398
 21
128.374
  0
LINE
  8
0
 10
-21.188
 11
-20.684
 20
128.374
 21
129.342
  0
LINE
  8
0
 10
-20.684
 11
-20.164
 20
129.342
 21
130.301
  0
LINE
  8
0
 10
-20.164
 11
-19.627
 20
130.301
 21
131.25
  0
LINE
  8
0
 10
-19.627
 11
-19.073
 20
131.25
 21
132.19
  0
LINE
  8
0
 10
-19.073
 11
-18.503
 20
132.19
 21
133.12
  0
LINE
  8
0
 10
-18.503
 11
-17.917
 20
133.12
 21
134.04
  0
LINE
  8
0
 10
-17.917
 11
-17.315
 20
134.04
 21
134.95
  0
LINE
  8
0
 10
-17.315
 11
-16.697
 20
134.95
 21
135.849
  0
LINE
  8
0
 10
-16.697
 11
-16.064
 20
135.849
 21
136.737
  0
LINE
  8
0
 10
-16.064
 11
-15.415
 20
136.737
 21
137.613
  0
LINE
  8
0
 10
-15.415
 11
-14.751
 20
137.613
 21
138.479
  0
LINE
  8
0
 10
-14.751
 11
-14.072
 20
138.479
 21
139.333
  0
LINE
  8
0
 10
-14.072
 11
-13.378
 20
139.333
 21
140.174
  0
LINE
  8
0
 10
-13.378
 11
-12.669
 20
140.174
 21
141.004
  0
LINE
  8
0
 10
-12.669
 11
-11.947
 20
141.004
 21
141.821
  0
LINE
  8
0
 10
-11.947
 11
-11.21
 20
141.821
 21
142.625
  0
LINE
  8
0
 10
-11.21
 11
-10.459
 20
142.625
 21
143.416
  0
LINE
  8
0
 10
-10.459
 11
-9.694
 20
143.416
 21
144.194
  0
LINE
  8
0
 10
-9.694
 11
-8.916
 20
144.194
 21
144.959
  0
LINE
  8
0
 10
-8.916
 11
-8.125
 20
144.959
 21
145.71
  0
LINE
  8
0
 10
-8.125
 11
-7.321
 20
145.71
 21
146.447
  0
LINE
  8
0
 10
-7.321
 11
-6.504
 20
146.447
 21
147.169
  0
LINE
  8
0
 10
-6.504
 11
-5.674
 20
147.169
 21
147.878
  0
LINE
  8
0
 10
-5.674
 11
-4.833
 20
147.878
 21
148.572
  0
LINE
  8
0
 10
-4.833
 11
-3.979
 20
148.572
 21
149.251
  0
LINE
  8
0
 10
-3.979
 11
-3.113
 20
149.251
 21
149.915
  0
LINE
  8
0
 10
-3.113
 11
-2.237
 20
149.915
 21
150.564
  0
LINE
  8
0
 10
-2.237
 11
-1.349
 20
150.564
 21
151.197
  0
LINE
  8
0
 10
-1.349
 11
-0.45
 20
151.197
 21
151.815
  0
LINE
  8
0
 10
-0.45
 11
0.46
 20
151.815
 21
152.417
  0
LINE
  8
0
 10
0.46
 11
1.38
 20
152.417
 21
153.003
  0
LINE
  8
0
 10
1.38
 11
2.31
 20
153.003
 21
153.573
  0
LINE
  8
0
 10
2.31
 11
3.25
 20
153.573
 21
154.127
  0
LINE
  8
0
 10
3.25
 11
4.199
 20
154.127
 21
154.664
  0
LINE
  8
0
 10
4.199
 11
5.158
 20
154.664
 21
155.184
  0
LINE
  8
0
 10
5.158
 11
6.126
 20
155.184
 21
155.688
  0
LINE
  8
0
 10
6.126
 11
7.102
 20
155.688
 21
156.175
  0
LINE
  8
0
 10
7.102
 11
8.086
 20
156.175
 21
156.644
  0
LINE
  8
0
 10
8.086
 11
9.079
 20
156.644
 21
157.097
  0
LINE
  8
0
 10
9.079
 11
10.079
 20
157.097
 21
157.532
  0
LINE
  8
0
 10
10.079
 11
11.087
 20
157.532
 21
157.949
  0
LINE
  8
0
 10
11.087
 11
11.217
 20
157.949
 21
158
  0
LINE
  8
0
 10
11.217
 11
57.783
 20
158
 21
158
  0
LINE
  8
0
 10
57.783
 11
57.913
 20
158
 21
157.949
  0
LINE
  8
0
 10
57.913
 11
58.921
 20
157.949
 21
157.532
  0
LINE
  8
0
 10
58.921
 11
59.921
 20
157.532
 21
157.097
  0
LINE
  8
0
 10
59.921
 11
60.914
 20
157.097
 21
156.644
  0
LINE
  8
0
 10
60.914
 11
61.898
 20
156.644
 21
156.175
  0
LINE
  8
0
 10
61.898
 11
62.874
 20
156.175
 21
155.688
  0
LINE
  8
0
 10
62.874
 11
63.842
 20
155.688
 21
155.184
  0
LINE
  8
0
 10
63.842
 11
64.801
 20
155.184
 21
154.664
  0
LINE
  8
0
 10
64.801
 11
65.75
 20
154.664
 21
154.127
  0
LINE
  8
0
 10
65.75
 11
66.69
 20
154.127
 21
153.573
  0
LINE
  8
0
 10
66.69
 11
67.62
 20
153.573
 21
153.003
  0
LINE
  8
0
 10
67.62
 11
68.54
 20
153.003
 21
152.417
  0
LINE
  8
0
 10
68.54
 11
69.45
 20
152.417
 21
151.815
  0
LINE
  8
0
 10
69.45
 11
70.349
 20
151.815
 21
151.197
  0
LINE
  8
0
 10
70.349
 11
71.237
 20
151.197
 21
150.564
  0
LINE
  8
0
 10
71.237
 11
72.113
 20
150.564
 21
149.915
  0
LINE
  8
0
 10
72.113
 11
72.979
 20
149.915
 21
149.251
  0
LINE
  8
0
 10
72.979
 11
73.833
 20
149.251
 21
148.572
  0
LINE
  8
0
 10
73.833
 11
74.674
 20
148.572
 21
147.878
  0
LINE
  8
0
 10
74.674
 11
75.504
 20
147.878
 21
147.169
  0
LINE
  8
0
 10
75.504
 11
76.321
 20
147.169
 21
146.447
  0
LINE
  8
0
 10
76.321
 11
77.125
 20
146.447
 21
145.71
  0
LINE
  8
0
 10
77.125
 11
77.916
 20
145.71
 21
144.959
  0
LINE
  8
0
 10
77.916
 11
78.694
 20
144.959
 21
144.194
  0
LINE
  8
0
 10
78.694
 11
79.459
 20
144.194
 21
143.416
  0
LINE
  8
0
 10
79.459
 11
80.21
 20
143.416
 21
142.625
  0
LINE
  8
0
 10
80.21
 11
80.947
 20
142.625
 21
141.821
  0
LINE
  8
0
 10
80.947
 11
81.669
 20
141.821
 21
141.004
  0
LINE
  8
0
 10
81.669
 11
82.378
 20
141.004
 21
140.174
  0
LINE
  8
0
 10
82.378
 11
83.072
 20
140.174
 21
139.333
  0
LINE
  8
0
 10
83.072
 11
83.751
 20
139.333
 21
138.479
  0
LINE
  8
0
 10
83.751
 11
84.415
 20
138.479
 21
137.613
  0
LINE
  8
0
 10
84.415
 11
85.064
 20
137.613
 21
136.737
  0
LINE
  8
0
 10
85.064
 11
85.697
 20
136.737
 21
135.849
  0
LINE
  8
0
 10
85.697
 11
86.315
 20
135.849
 21
134.95
  0
LINE
  8
0
 10
86.315
 11
86.917
 20
134.95
 21
134.04
  0
LINE
  8
0
 10
86.917
 11
87.503
 20
134.04
 21
133.12
  0
LINE
  8
0
 10
87.503
 11
88.073
 20
133.12
 21
132.19
  0
LINE
  8
0
 10
88.073
 11
88.627
 20
132.19
 21
131.25
  0
LINE
  8
0
 10
88.627
 11
89.164
 20
131.25
 21
130.301
  0
LINE
  8
0
 10
89.164
 11
89.684
 20
130.301
 21
129.342
  0
LINE
  8
0
 10
89.684
 11
90.188
 20
129.342
 21
128.374
  0
LINE
  8
0
 10
90.188
 11
90.675
 20
128.374
 21
127.398
  0
LINE
  8
0
 10
90.675
 11
91.144
 20
127.398
 21
126.414
  0
LINE
  8
0
 10
91.144
 11
91.597
 20
126.414
 21
125.421
  0
LINE
  8
0
 10
91.597
 11
92.032
 20
125.421
 21
124.421
  0
LINE
  8
0
 10
92.032
 11
92.449
 20
124.421
 21
123.413
  0
LINE
  8
0
 10
92.449
 11
92.5
 20
123.413
 21
123.283
  0
LINE
  8
0
 10
92.5
 11
92.5
 20
123.283
 21
76.717
  0
LINE
  8
0
 10
92.5
 11
92.449
 20
76.717
 21
76.587
  0
LINE
  8
0
 10
92.449
 11
92.032
 20
76.587
 21
75.579
  0
LINE
  8
0
 10
92.032
 11
91.597
 20
75.579
 21
74.579
  0
LINE
  8
0
 10
91.597
 11
91.144
 20
74.579
 21
73.586
  0
LINE
  8
0
 10
91.144
 11
90.675
 20
73.586
 21
72.602
  0
LINE
  8
0
 10
90.675
 11
90.188
 20
72.602
 21
71.626
  0
LINE
  8
0
 10
90.188
 11
89.684
 20
71.626
 21
70.658
  0
LINE
  8
0
 10
89.684
 11
89.164
 20
70.658
 21
69.699
  0
LINE
  8
0
 10
89.164
 11
88.627
 20
69.699
 21
68.75
  0
LINE
  8
0
 10
88.627
 11
88.073
 20
68.75
 21
67.81
  0
LINE
  8
0
 10
88.073
 11
87.503
 20
67.81
 21
66.88
  0
LINE
  8
0
 10
87.503
 11
86.917
 20
66.88
 21
65.96
  0
LINE
  8
0
 10
86.917
 11
86.315
 20
65.96
 21
65.05
  0
LINE
  8
0
 10
86.315
 11
85.697
 20
65.05
 21
64.151
  0
LINE
  8
0
 10
85.697
 11
85.064
 20
64.151
 21
63.263
  0
LINE
  8
0
 10
85.064
 11
84.415
 20
63.263
 21
62.387
  0
LINE
  8
0
 10
84.415
 11
83.751
 20
62.387
 21
61.521
  0
LINE
  8
0
 10
83.751
 11
83.072
 20
61.521
 21
60.667
  0
LINE
  8
0
 10
83.072
 11
82.378
 20
60.667
 21
59.826
  0
LINE
  8
0
 10
82.378
 11
81.669
 20
59.826
 21
58.996
  0
LINE
  8
0
 10
81.669
 11
80.947
 20
58.996
 21
58.179
  0
LINE
  8
0
 10
80.947
 11
80.21
 20
58.179
 21
57.375
  0
LINE
  8
0
 10
80.21
 11
79.459
 20
57.375
 21
56.584
  0
LINE
  8
0
 10
79.459
 11
78.694
 20
56.584
 21
55.806
  0
LINE
  8
0
 10
78.694
 11
77.916
 20
55.806
 21
55.041
  0
LINE
  8
0
 10
77.916
 11
77.125
 20
55.041
 21
54.29
  0
LINE
  8
0
 10
77.125
 11
76.321
 20
54.29
 21
53.553
  0
LINE
  8
0
 10
76.321
 11
75.504
 20
53.553
 21
52.831
  0
LINE
  8
0
 10
75.504
 11
74.674
 20
52.831
 21
52.122
  0
LINE
  8
0
 10
74.674
 11
73.833
 20
52.122
 21
51.428
  0
LINE
  8
0
 10
73.833
 11
72.979
 20
51.428
 21
50.749
  0
LINE
  8
0
 10
72.979
 11
72.113
 20
50.749
 21
50.085
  0
LINE
  8
0
 10
72.113
 11
71.237
 20
50.085
 21
49.436
  0
LINE
  8
0
 10
71.237
 11
70.349
 20
49.436
 21
48.803
  0
LINE
  8
0
 10
70.349
 11
69.45
 20
48.803
 21
48.185
  0
LINE
  8
0
 10
69.45
 11
68.54
 20
48.185
 21
47.583
  0
LINE
  8
0
 10
68.54
 11
67.62
 20
47.583
 21
46.997
  0
LINE
  8
0
 10
67.62
 11
66.69
 20
46.997
 21
46.427
  0
LINE
  8
0
 10
66.69
 11
65.75
 20
46.427
 21
45.873
  0
LINE
  8
0
 10
65.75
 11
64.801
 20
45.873
 21
45.336
  0
LINE
  8
0
 10
64.801
 11
63.842
 20
45.336
 21
44.816
  0
LINE
  8
0
 10
63.842
 11
62.874
 20
44.816
 21
44.312
  0
LINE
  8
0
 10
62.874
 11
61.898
 20
44.312
 21
43.825
  0
LINE
  8
0
 10
61.898
 11
60.914
 20
43.825
 21
43.356
  0
LINE
  8
0
 10
60.914
 11
59.921
 20
43.356
 21
42.903
  0
LINE
  8
0
 10
59.921
 11
58.921
 20
42.903
 21
42.468
  0
LINE
  8
0
 10
58.921
 11
57.913
 20
42.468
 21
42.051
  0
LINE
  8
0
 10
57.913
 11
57.783
 20
42.051
 21
42
  0
LINE
  8
0
 10
57.783
 11
11.217
 20
42
 21
42
  0
LINE
  8
0
 10
11.217
 11
11.087
 20
42
 21
42.051
  0
LINE
  8
0
 10
11.087
 11
10.079
 20
42.051
 21
42.468
  0
LINE
  8
0
 10
10.079
 11
9.079
 20
42.468
 21
42.903
  0
LINE
  8
0
 10
9.079
 11
8.086
 20
42.903
 21
43.356
  0
LINE
  8
0
 10
8.086
 11
7.102
 20
43.356
 21
43.825
  0
LINE
  8
0
 10
7.102
 11
6.126
 20
43.825
 21
44.312
  0
LINE
  8
0
 10
6.126
 11
5.158
 20
44.312
 21
44.816
  0
LINE
  8
0
 10
5.158
 11
4.199
 20
44.816
 21
45.336
  0
LINE
  8
0
 10
4.199
 11
3.25
 20
45.336
 21
45.873
  0
LINE
  8
0
 10
3.25
 11
2.31
 20
45.873
 21
46.427
  0
LINE
  8
0
 10
2.31
 11
1.38
 20
46.427
 21
46.997
  0
LINE
  8
0
 10
1.38
 11
0.46
 20
46.997
 21
47.583
  0
LINE
  8
0
 10
0.46
 11
-0.45
 20
47.583
 21
48.185
  0
LINE
  8
0
 10
-0.45
 11
-1.349
 20
48.185
 21
48.803
  0
LINE
  8
0
 10
-1.349
 11
-2.237
 20
48.803
 21
49.436
  0
LINE
  8
0
 10
-2.237
 11
-3.113
 20
49.436
 21
50.085
  0
LINE
  8
0
 10
-3.113
 11
-3.979
 20
50.085
 21
50.749
  0
LINE
  8
0
 10
-3.979
 11
-4.833
 20
50.749
 21
51.428
  0
LINE
  8
0
 10
-4.833
 11
-5.674
 20
51.428
 21
52.122
  0
LINE
  8
0
 10
-5.674
 11
-6.504
 20
52.122
 21
52.831
  0
LINE
  8
0
 10
-6.504
 11
-7.321
 20
52.831
 21
53.553
  0
LINE
  8
0
 10
-7.321
 11
-8.125
 20
53.553
 21
54.29
  0
LINE
  8
0
 10
-8.125
 11
-8.916
 20
54.29
 21
55.041
  0
LINE
  8
0
 10
-8.916
 11
-9.694
 20
55.041
 21
55.806
  0
LINE
  8
0
 10
-9.694
 11
-10.459
 20
55.806
 21
56.584
  0
LINE
  8
0
 10
-10.459
 11
-11.21
 20
56.584
 21
57.375
  0
LINE
  8
0
 10
-11.21
 11
-11.947
 20
57.375
 21
58.179
  0
LINE
  8
0
 10
-11.947
 11
-12.669
 20
58.179
 21
58.996
  0
LINE
  8
0
 10
-12.669
 11
-13.378
 20
58.996
 21
59.826
  0
LINE
  8
0
 10
-13.378
 11
-14.072
 20
59.826
 21
60.667
  0
LINE
  8
0
 10
-14.072
 11
-14.751
 20
60.667
 21
61.521
  0
LINE
  8
0
 10
-14.751
 11
-15.415
 20
61.521
 21
62.387
  0
LINE
  8
0
 10
-15.415
 11
-16.064
 20
62.387
 21
63.263
  0
LINE
  8
0
 10
-16.064
 11
-16.697
 20
63.263
 21
64.151
  0
LINE
  8
0
 10
-16.697
 11
-17.315
 20
64.151
 21
65.05
  0
LINE
  8
0
 10
-17.315
 11
-17.917
 20
65.05
 21
65.96
  0
LINE
  8
0
 10
-17.917
 11
-18.503
 20
65.96
 21
66.88
  0
LINE
  8
0
 10
-18.503
 11
-19.073
 20
66.88
 21
67.81
  0
LINE
  8
0
 10
-19.073
 11
-19.627
 20
67.81
 21
68.75
  0
LINE
  8
0
 10
-19.627
 11
-20.164
 20
68.75
 21
69.699
  0
LINE
  8
0
 10
-20.164
 11
-20.684
 20
69.699
 21
70.658
  0
LINE
  8
0
 10
-20.684
 11
-21.188
 20
70.658
 21
71.626
  0
LINE
  8
0
 10
-21.188
 11
-21.675
 20
71.626
 21
72.602
  0
LINE
  8
0
 10
-21.675
 11
-22.144
 20
72.602
 21
73.586
  0
LINE
  8
0
 10
-22.144
 11
-22.597
 20
73.586
 21
74.579
  0
LINE
  8
0
 10
-22.597
 11
-23.032
 20
74.579
 21
75.579
  0
LINE
  8
0
 10
-23.032
 11
-23.449
 20
75.579
 21
76.587
  0
LINE
  8
0
 10
-23.449
 11
-23.5
 20
76.587
 21
76.717
  0
LINE
  8
0
 10
-19.8
 11
-19.735
 20
47.6
 21
48.092
  0
LINE
  8
0
 10
-19.735
 11
-19.545
 20
48.092
 21
48.55
  0
LINE
  8
0
 10
-19.545
 11
-19.244
 20
48.55
 21
48.944
  0
LINE
  8
0
 10
-19.244
 11
-18.85
 20
48.944
 21
49.245
  0
LINE
  8
0
 10
-18.85
 11
-18.392
 20
49.245
 21
49.435
  0
LINE
  8
0
 10
-18.392
 11
-17.9
 20
49.435
 21
49.5
  0
LINE
  8
0
 10
-17.9
 11
-17.408
 20
49.5
 21
49.435
  0
LINE
  8
0
 10
-17.408
 11
-16.95
 20
49.435
 21
49.245
  0
LINE
  8
0
 10
-16.95
 11
-16.556
 20
49.245
 21
48.944
  0
LINE
  8
0
 10
-16.556
 11
-16.255
 20
48.944
 21
48.55
  0
LINE
  8
0
 10
-16.255
 11
-16.065
 20
48.55
 21
48.092
  0
LINE
  8
0
 10
-16.065
 11
-16
 20
48.092
 21
47.6
  0
LINE
  8
0
 10
-16
 11
-16.065
 20
47.6
 21
47.108
  0
LINE
  8
0
 10
-16.065
 11
-16.255
 20
47.108
 21
46.65
  0
LINE
  8
0
 10
-16.255
 11
-16.556
 20
46.65
 21
46.256
  0
LINE
  8
0
 10
-16.556
 11
-16.95
 20
46.256
 21
45.955
  0
LINE
  8
0
 10
-16.95
 11
-17.408
 20
45.955
 21
45.765
  0
LINE
  8
0
 10
-17.408
 11
-17.9
 20
45.765
 21
45.7
  0
LINE
  8
0
 10
-17.9
 11
-18.392
 20
45.7
 21
45.765
  0
LINE
  8
0
 10
-18.392
 11
-18.85
 20
45.765
 21
45.955
  0
LINE
  8
0
 10
-18.85
 11
-19.244
 20
45.955
 21
46.256
  0
LINE
  8
0
 10
-19.244
 11
-19.545
 20
46.256
 21
46.65
  0
LINE
  8
0
 10
-19.545
 11
-19.735
 20
46.65
 21
47.108
  0
LINE
  8
0
 10
-19.735
 11
-19.8
 20
47.108
 21
47.6
  0
LINE
  8
0
 10
-19.8
 11
-19.735
 20
152.4
 21
152.892
  0
LINE
  8
0
 10
-19.735
 11
-19.545
 20
152.892
 21
153.35
  0
LINE
  8
0
 10
-19.545
 11
-19.244
 20
153.35
 21
153.744
  0
LINE
  8
0
 10
-19.244
 11
-18.85
 20
153.744
 21
154.045
  0
LINE
  8
0
 10
-18.85
 11
-18.392
 20
154.045
 21
154.235
  0
LINE
  8
0
 10
-18.392
 11
-17.9
 20
154.235
 21
154.3
  0
LINE
  8
0
 10
-17.9
 11
-17.408
 20
154.3
 21
154.235
  0
LINE
  8
0
 10
-17.408
 11
-16.95
 20
154.235
 21
154.045
  0
LINE
  8
0
 10
-16.95
 11
-16.556
 20
154.045
 21
153.744
  0
LINE
  8
0
 10
-16.556
 11
-16.255
 20
153.744
 21
153.35
  0
LINE
  8
0
 10
-16.255
 11
-16.065
 20
153.35
 21
152.892
  0
LINE
  8
0
 10
-16.065
 11
-16
 20
152.892
 21
152.4
  0
LINE
  8
0
 10
-16
 11
-16.065
 20
152.4
 21
151.908
  0
LINE
  8
0
 10
-16.065
 11
-16.255
 20
151.908
 21
151.45
  0
LINE
  8
0
 10
-16.255
 11
-16.556
 20
151.45
 21
151.056
  0
LINE
  8
0
 10
-16.556
 11
-16.95
 20
151.056
 21
150.755
  0
LINE
  8
0
 10
-16.95
 11
-17.408
 20
150.755
 21
150.565
  0
LINE
  8
0
 10
-17.408
 11
-17.9
 20
150.565
 21
150.5
  0
LINE
  8
0
 10
-17.9
 11
-18.392
 20
150.5
 21
150.565
  0
LINE
  8
0
 10
-18.392
 11
-18.85
 20
150.565
 21
150.755
  0
LINE
  8
0
 10
-18.85
 11
-19.244
 20
150.755
 21
151.056
  0
LINE
  8
0
 10
-19.244
 11
-19.545
 20
151.056
 21
151.45
  0
LINE
  8
0
 10
-19.545
 11
-19.735
 20
151.45
 21
151.908
  0
LINE
  8
0
 10
-19.735
 11
-19.8
 20
151.908
 21
152.4
  0
LINE
  8
0
 10
-2.4
 11
-2.388
 20
15
 21
15.121
  0
LINE
  8
0
 10
-2.388
 11
-2.388
 20
15.121
 21
15.243
  0
LINE
  8
0
 10
-2.388
 11
-2.363
 20
15.243
 21
15.362
  0
LINE
  8
0
 10
-2.363
 11
-2.351
 20
15.362
 21
15.483
  0
LINE
  8
0
 10
-2.351
 11
-2.314
 20
15.483
 21
15.599
  0
LINE
  8
0
 10
-2.314
 11
-2.29
 20
15.599
 21
15.718
  0
LINE
  8
0
 10
-2.29
 11
-2.242
 20
15.718
 21
15.83
  0
LINE
  8
0
 10
-2.242
 11
-2.205
 20
15.83
 21
15.946
  0
LINE
  8
0
 10
-2.205
 11
-2.146
 20
15.946
 21
16.053
  0
LINE
  8
0
 10
-2.146
 11
-2.098
 20
16.053
 21
16.165
  0
LINE
  8
0
 10
-2.098
 11
-2.029
 20
16.165
 21
16.265
  0
LINE
  8
0
 10
-2.029
 11
-1.97
 20
16.265
 21
16.371
  0
LINE
  8
0
 10
-1.97
 11
-1.891
 20
16.371
 21
16.463
  0
LINE
  8
0
 10
-1.891
 11
-1.821
 20
16.463
 21
16.563
  0
LINE
  8
0
 10
-1.821
 11
-1.733
 20
16.563
 21
16.647
  0
LINE
  8
0
 10
-1.733
 11
-1.654
 20
16.647
 21
16.74
  0
LINE
  8
0
 10
-1.654
 11
-1.557
 20
16.74
 21
16.814
  0
LINE
  8
0
 10
-1.557
 11
-1.469
 20
16.814
 21
16.898
  0
LINE
  8
0
 10
-1.469
 11
-1.366
 20
16.898
 21
16.962
  0
LINE
  8
0
 10
-1.366
 11
-1.27
 20
16.962
 21
17.037
  0
LINE
  8
0
 10
-1.27
 11
-1.16
 20
17.037
 21
17.09
  0
LINE
  8
0
 10
-1.16
 11
-1.057
 20
17.09
 21
17.155
  0
LINE
  8
0
 10
-1.057
 11
-0.943
 20
17.155
 21
17.197
  0
LINE
  8
0
 10
-0.943
 11
-0.834
 20
17.197
 21
17.251
  0
LINE
  8
0
 10
-0.834
 11
-0.716
 20
17.251
 21
17.281
  0
LINE
  8
0
 10
-0.716
 11
-0.602
 20
17.281
 21
17.323
  0
LINE
  8
0
 10
-0.602
 11
-0.481
 20
17.323
 21
17.342
  0
LINE
  8
0
 10
-0.481
 11
-0.363
 20
17.342
 21
17.372
  0
LINE
  8
0
 10
-0.363
 11
-0.242
 20
17.372
 21
17.378
  0
LINE
  8
0
 10
-0.242
 11
-0.122
 20
17.378
 21
17.397
  0
LINE
  8
0
 10
-0.122
 11
0
 20
17.397
 21
17.391
  0
LINE
  8
0
 10
0
 11
0.122
 20
17.391
 21
17.397
  0
LINE
  8
0
 10
0.122
 11
0.242
 20
17.397
 21
17.378
  0
LINE
  8
0
 10
0.242
 11
0.363
 20
17.378
 21
17.372
  0
LINE
  8
0
 10
0.363
 11
0.481
 20
17.372
 21
17.342
  0
LINE
  8
0
 10
0.481
 11
0.602
 20
17.342
 21
17.323
  0
LINE
  8
0
 10
0.602
 11
0.716
 20
17.323
 21
17.281
  0
LINE
  8
0
 10
0.716
 11
0.834
 20
17.281
 21
17.251
  0
LINE
  8
0
 10
0.834
 11
0.943
 20
17.251
 21
17.197
  0
LINE
  8
0
 10
0.943
 11
1.057
 20
17.197
 21
17.155
  0
LINE
  8
0
 10
1.057
 11
1.16
 20
17.155
 21
17.09
  0
LINE
  8
0
 10
1.16
 11
1.27
 20
17.09
 21
17.037
  0
LINE
  8
0
 10
1.27
 11
1.366
 20
17.037
 21
16.962
  0
LINE
  8
0
 10
1.366
 11
1.469
 20
16.962
 21
16.898
  0
LINE
  8
0
 10
1.469
 11
1.557
 20
16.898
 21
16.814
  0
LINE
  8
0
 10
1.557
 11
1.654
 20
16.814
 21
16.74
  0
LINE
  8
0
 10
1.654
 11
1.733
 20
16.74
 21
16.647
  0
LINE
  8
0
 10
1.733
 11
1.821
 20
16.647
 21
16.563
  0
LINE
  8
0
 10
1.821
 11
1.891
 20
16.563
 21
16.463
  0
LINE
  8
0
 10
1.891
 11
1.97
 20
16.463
 21
16.371
  0
LINE
  8
0
 10
1.97
 11
2.029
 20
16.371
 21
16.265
  0
LINE
  8
0
 10
2.029
 11
2.098
 20
16.265
 21
16.165
  0
LINE
  8
0
 10
2.098
 11
2.146
 20
16.165
 21
16.053
  0
LINE
  8
0
 10
2.146
 11
2.205
 20
16.053
 21
15.946
  0
LINE
  8
0
 10
2.205
 11
2.242
 20
15.946
 21
15.83
  0
LINE
  8
0
 10
2.242
 11
2.29
 20
15.83
 21
15.718
  0
LINE
  8
0
 10
2.29
 11
2.314
 20
15.718
 21
15.599
  0
LINE
  8
0
 10
2.314
 11
2.351
 20
15.599
 21
15.483
  0
LINE
  8
0
 10
2.351
 11
2.363
 20
15.483
 21
15.362
  0
LINE
  8
0
 10
2.363
 11
2.388
 20
15.362
 21
15.243
  0
LINE
  8
0
 10
2.388
 11
2.388
 20
15.243
 21
15.121
  0
LINE
  8
0
 10
2.388
 11
2.4
 20
15.121
 21
15
  0
LINE
  8
0
 10
2.4
 11
2.388
 20
15
 21
14.879
  0
LINE
  8
0
 10
2.388
 11
2.388
 20
14.879
 21
14.757
  0
LINE
  8
0
 10
2.388
 11
2.363
 20
14.757
 21
14.638
  0
LINE
  8
0
 10
2.363
 11
2.351
 20
14.638
 21
14.517
  0
LINE
  8
0
 10
2.351
 11
2.314
 20
14.517
 21
14.401
  0
LINE
  8
0
 10
2.314
 11
2.29
 20
14.401
 21
14.282
  0
LINE
  8
0
 10
2.29
 11
2.242
 20
14.282
 21
14.17
  0
LINE
  8
0
 10
2.242
 11
2.205
 20
14.17
 21
14.054
  0
LINE
  8
0
 10
2.205
 11
2.146
 20
14.054
 21
13.947
  0
LINE
  8
0
 10
2.146
 11
2.098
 20
13.947
 21
13.835
  0
LINE
  8
0
 10
2.098
 11
2.029
 20
13.835
 21
13.735
  0
LINE
  8
0
 10
2.029
 11
1.97
 20
13.735
 21
13.629
  0
LINE
  8
0
 10
1.97
 11
1.891
 20
13.629
 21
13.537
  0
LINE
  8
0
 10
1.891
 11
1.821
 20
13.537
 21
13.437
  0
LINE
  8
0
 10
1.821
 11
1.733
 20
13.437
 21
13.353
  0
LINE
  8
0
 10
1.733
 11
1.654
 20
13.353
 21
13.26
  0
LINE
  8
0
 10
1.654
 11
1.557
 20
13.26
 21
13.186
  0
LINE
  8
0
 10
1.557
 11
1.469
 20
13.186
 21
13.102
  0
LINE
  8
0
 10
1.469
 11
1.366
 20
13.102
 21
13.038
  0
LINE
  8
0
 10
1.366
 11
1.27
 20
13.038
 21
12.963
  0
LINE
  8
0
 10
1.27
 11
1.16
 20
12.963
 21
12.91
  0
LINE
  8
0
 10
1.16
 11
1.057
 20
12.91
 21
12.845
  0
LINE
  8
0
 10
1.057
 11
0.943
 20
12.845
 21
12.803
  0
LINE
  8
0
 10
0.943
 11
0.834
 20
12.803
 21
12.749
  0
LINE
  8
0
 10
0.834
 11
0.716
 20
12.749
 21
12.719
  0
LINE
  8
0
 10
0.716
 11
0.602
 20
12.719
 21
12.677
  0
LINE
  8
0
 10
0.602
 11
0.481
 20
12.677
 21
12.658
  0
LINE
  8
0
 10
0.481
 11
0.363
 20
12.658
 21
12.628
  0
LINE
  8
0
 10
0.363
 11
0.242
 20
12.628
 21
12.622
  0
LINE
  8
0
 10
0.242
 11
0.122
 20
12.622
 21
12.603
  0
LINE
  8
0
 10
0.122
 11
0
 20
12.603
 21
12.609
  0
LINE
  8
0
 10
0
 11
-0.122
 20
12.609
 21
12.603
  0
LINE
  8
0
 10
-0.122
 11
-0.242
 20
12.603
 21
12.622
  0
LINE
  8
0
 10
-0.242
 11
-0.363
 20
12.622
 21
12.628
  0
LINE
  8
0
 10
-0.363
 11
-0.481
 20
12.628
 21
12.658
  0
LINE
  8
0
 10
-0.481
 11
-0.602
 20
12.658
 21
12.677
  0
LINE
  8
0
 10
-0.602
 11
-0.716
 20
12.677
 21
12.719
  0
LINE
  8
0
 10
-0.716
 11
-0.834
 20
12.719
 21
12.749
  0
LINE
  8
0
 10
-0.834
 11
-0.943
 20
12.749
 21
12.803
  0
LINE
  8
0
 10
-0.943
 11
-1.057
 20
12.803
 21
12.845
  0
LINE
  8
0
 10
-1.057
 11
-1.16
 20
12.845
 21
12.91
  0
LINE
  8
0
 10
-1.16
 11
-1.27
 20
12.91
 21
12.963
  0
LINE
  8
0
 10
-1.27
 11
-1.366
 20
12.963
 21
13.038
  0
LINE
  8
0
 10
-1.366
 11
-1.469
 20
13.038
 21
13.102
  0
LINE
  8
0
 10
-1.469
 11
-1.557
 20
13.102
 21
13.186
  0
LINE
  8
0
 10
-1.557
 11
-1.654
 20
13.186
 21
13.26
  0
LINE
  8
0
 10
-1.654
 11
-1.733
 20
13.26
 21
13.353
  0
LINE
  8
0
 10
-1.733
 11
-1.821
 20
13.353
 21
13.437
  0
LINE
  8
0
 10
-1.821
 11
-1.891
 20
13.437
 21
13.537
  0
LINE
  8
0
 10
-1.891
 11
-1.97
 20
13.537
 21
13.629
  0
LINE
  8
0
 10
-1.97
 11
-2.029
 20
13.629
 21
13.735
  0
LINE
  8
0
 10
-2.029
 11
-2.098
 20
13.735
 21
13.835
  0
LINE
  8
0
 10
-2.098
 11
-2.146
 20
13.835
 21
13.947
  0
LINE
  8
0
 10
-2.146
 11
-2.205
 20
13.947
 21
14.054
  0
LINE
  8
0
 10
-2.205
 11
-2.242
 20
14.054
 21
14.17
  0
LINE
  8
0
 10
-2.242
 11
-2.29
 20
14.17
 21
14.282
  0
LINE
  8
0
 10
-2.29
 11
-2.314
 20
14.282
 21
14.401
  0
LINE
  8
0
 10
-2.314
 11
-2.351
 20
14.401
 21
14.517
  0
LINE
  8
0
 10
-2.351
 11
-2.363
 20
14.517
 21
14.638
  0
LINE
  8
0
 10
-2.363
 11
-2.388
 20
14.638
 21
14.757
  0
LINE
  8
0
 10
-2.388
 11
-2.388
 20
14.757
 21
14.879
  0
LINE
  8
0
 10
-2.388
 11
-2.4
 20
14.879
 21
15
  0
LINE
  8
0
 10
-2.4
 11
-2.388
 20
185
 21
185.121
  0
LINE
  8
0
 10
-2.388
 11
-2.388
 20
185.121
 21
185.243
  0
LINE
  8
0
 10
-2.388
 11
-2.363
 20
185.243
 21
185.362
  0
LINE
  8
0
 10
-2.363
 11
-2.351
 20
185.362
 21
185.483
  0
LINE
  8
0
 10
-2.351
 11
-2.314
 20
185.483
 21
185.599
  0
LINE
  8
0
 10
-2.314
 11
-2.29
 20
185.599
 21
185.718
  0
LINE
  8
0
 10
-2.29
 11
-2.242
 20
185.718
 21
185.83
  0
LINE
  8
0
 10
-2.242
 11
-2.205
 20
185.83
 21
185.946
  0
LINE
  8
0
 10
-2.205
 11
-2.146
 20
185.946
 21
186.053
  0
LINE
  8
0
 10
-2.146
 11
-2.098
 20
186.053
 21
186.165
  0
LINE
  8
0
 10
-2.098
 11
-2.029
 20
186.165
 21
186.265
  0
LINE
  8
0
 10
-2.029
 11
-1.97
 20
186.265
 21
186.371
  0
LINE
  8
0
 10
-1.97
 11
-1.891
 20
186.371
 21
186.463
  0
LINE
  8
0
 10
-1.891
 11
-1.821
 20
186.463
 21
186.563
  0
LINE
  8
0
 10
-1.821
 11
-1.733
 20
186.563
 21
186.647
  0
LINE
  8
0
 10
-1.733
 11
-1.654
 20
186.647
 21
186.74
  0
LINE
  8
0
 10
-1.654
 11
-1.557
 20
186.74
 21
186.814
  0
LINE
  8
0
 10
-1.557
 11
-1.469
 20
186.814
 21
186.898
  0
LINE
  8
0
 10
-1.469
 11
-1.366
 20
186.898
 21
186.962
  0
LINE
  8
0
 10
-1.366
 11
-1.27
 20
186.962
 21
187.037
  0
LINE
  8
0
 10
-1.27
 11
-1.16
 20
187.037
 21
187.09
  0
LINE
  8
0
 10
-1.16
 11
-1.057
 20
187.09
 21
187.155
  0
LINE
  8
0
 10
-1.057
 11
-0.943
 20
187.155
 21
187.197
  0
LINE
  8
0
 10
-0.943
 11
-0.834
 20
187.197
 21
187.251
  0
LINE
  8
0
 10
-0.834
 11
-0.716
 20
187.251
 21
187.281
  0
LINE
  8
0
 10
-0.716
 11
-0.602
 20
187.281
 21
187.323
  0
LINE
  8
0
 10
-0.602
 11
-0.481
 20
187.323
 21
187.342
  0
LINE
  8
0
 10
-0.481
 11
-0.363
 20
187.342
 21
187.372
  0
LINE
  8
0
 10
-0.363
 11
-0.242
 20
187.372
 21
187.378
  0
LINE
  8
0
 10
-0.242
 11
-0.122
 20
187.378
 21
187.397
  0
LINE
  8
0
 10
-0.122
 11
0
 20
187.397
 21
187.391
  0
LINE
  8
0
 10
0
 11
0.122
 20
187.391
 21
187.397
  0
LINE
  8
0
 10
0.122
 11
0.242
 20
187.397
 21
187.378
  0
LINE
  8
0
 10
0.242
 11
0.363
 20
187.378
 21
187.372
  0
LINE
  8
0
 10
0.363
 11
0.481
 20
187.372
 21
187.342
  0
LINE
  8
0
 10
0.481
 11
0.602
 20
187.342
 21
187.323
  0
LINE
  8
0
 10
0.602
 11
0.716
 20
187.323
 21
187.281
  0
LINE
  8
0
 10
0.716
 11
0.834
 20
187.281
 21
187.251
  0
LINE
  8
0
 10
0.834
 11
0.943
 20
187.251
 21
187.197
  0
LINE
  8
0
 10
0.943
 11
1.057
 20
187.197
 21
187.155
  0
LINE
  8
0
 10
1.057
 11
1.16
 20
187.155
 21
187.09
  0
LINE
  8
0
 10
1.16
 11
1.27
 20
187.09
 21
187.037
  0
LINE
  8
0
 10
1.27
 11
1.366
 20
187.037
 21
186.962
  0
LINE
  8
0
 10
1.366
 11
1.469
 20
186.962
 21
186.898
  0
LINE
  8
0
 10
1.469
 11
1.557
 20
186.898
 21
186.814
  0
LINE
  8
0
 10
1.557
 11
1.654
 20
186.814
 21
186.74
  0
LINE
  8
0
 10
1.654
 11
1.733
 20
186.74
 21
186.647
  0
LINE
  8
0
 10
1.733
 11
1.821
 20
186.647
 21
186.563
  0
LINE
  8
0
 10
1.821
 11
1.891
 20
186.563
 21
186.463
  0
LINE
  8
0
 10
1.891
 11
1.97
 20
186.463
 21
186.371
  0
LINE
  8
0
 10
1.97
 11
2.029
 20
186.371
 21
186.265
  0
LINE
  8
0
 10
2.029
 11
2.098
 20
186.265
 21
186.165
  0
LINE
  8
0
 10
2.098
 11
2.146
 20
186.165
 21
186.053
  0
LINE
  8
0
 10
2.146
 11
2.205
 20
186.053
 21
185.946
  0
LINE
  8
0
 10
2.205
 11
2.242
 20
185.946
 21
185.83
  0
LINE
  8
0
 10
2.242
 11
2.29
 20
185.83
 21
185.718
  0
LINE
  8
0
 10
2.29
 11
2.314
 20
185.718
 21
185.599
  0
LINE
  8
0
 10
2.314
 11
2.351
 20
185.599
 21
185.483
  0
LINE
  8
0
 10
2.351
 11
2.363
 20
185.483
 21
185.362
  0
LINE
  8
0
 10
2.363
 11
2.388
 20
185.362
 21
185.243
  0
LINE
  8
0
 10
2.388
 11
2.388
 20
185.243
 21
185.121
  0
LINE
  8
0
 10
2.388
 11
2.4
 20
185.121
 21
185
  0
LINE
  8
0
 10
2.4
 11
2.388
 20
185
 21
184.879
  0
LINE
  8
0
 10
2.388
 11
2.388
 20
184.879
 21
184.757
  0
LINE
  8
0
 10
2.388
 11
2.363
 20
184.757
 21
184.638
  0
LINE
  8
0
 10
2.363
 11
2.351
 20
184.638
 21
184.517
  0
LINE
  8
0
 10
2.351
 11
2.314
 20
184.517
 21
184.401
  0
LINE
  8
0
 10
2.314
 11
2.29
 20
184.401
 21
184.282
  0
LINE
  8
0
 10
2.29
 11
2.242
 20
184.282
 21
184.17
  0
LINE
  8
0
 10
2.242
 11
2.205
 20
184.17
 21
184.054
  0
LINE
  8
0
 10
2.205
 11
2.146
 20
184.054
 21
183.947
  0
LINE
  8
0
 10
2.146
 11
2.098
 20
183.947
 21
183.835
  0
LINE
  8
0
 10
2.098
 11
2.029
 20
183.835
 21
183.735
  0
LINE
  8
0
 10
2.029
 11
1.97
 20
183.735
 21
183.629
  0
LINE
  8
0
 10
1.97
 11
1.891
 20
183.629
 21
183.537
  0
LINE
  8
0
 10
1.891
 11
1.821
 20
183.537
 21
183.437
  0
LINE
  8
0
 10
1.821
 11
1.733
 20
183.437
 21
183.353
  0
LINE
  8
0
 10
1.733
 11
1.654
 20
183.353
 21
183.26
  0
LINE
  8
0
 10
1.654
 11
1.557
 20
183.26
 21
183.186
  0
LINE
  8
0
 10
1.557
 11
1.469
 20
183.186
 21
183.102
  0
LINE
  8
0
 10
1.469
 11
1.366
 20
183.102
 21
183.038
  0
LINE
  8
0
 10
1.366
 11
1.27
 20
183.038
 21
182.963
  0
LINE
  8
0
 10
1.27
 11
1.16
 20
182.963
 21
182.91
  0
LINE
  8
0
 10
1.16
 11
1.057
 20
182.91
 21
182.845
  0
LINE
  8
0
 10
1.057
 11
0.943
 20
182.845
 21
182.803
  0
LINE
  8
0
 10
0.943
 11
0.834
 20
182.803
 21
182.749
  0
LINE
  8
0
 10
0.834
 11
0.716
 20
182.749
 21
182.719
  0
LINE
  8
0
 10
0.716
 11
0.602
 20
182.719
 21
182.677
  0
LINE
  8
0
 10
0.602
 11
0.481
 20
182.677
 21
182.658
  0
LINE
  8
0
 10
0.481
 11
0.363
 20
182.658
 21
182.628
  0
LINE
  8
0
 10
0.363
 11
0.242
 20
182.628
 21
182.622
  0
LINE
  8
0
 10
0.242
 11
0.122
 20
182.622
 21
182.603
  0
LINE
  8
0
 10
0.122
 11
0
 20
182.603
 21
182.609
  0
LINE
  8
0
 10
0
 11
-0.122
 20
182.609
 21
182.603
  0
LINE
  8
0
 10
-0.122
 11
-0.242
 20
182.603
 21
182.622
  0
LINE
  8
0
 10
-0.242
 11
-0.363
 20
182.622
 21
182.628
  0
LINE
  8
0
 10
-0.363
 11
-0.481
 20
182.628
 21
182.658
  0
LINE
  8
0
 10
-0.481
 11
-0.602
 20
182.658
 21
182.677
  0
LINE
  8
0
 10
-0.602
 11
-0.716
 20
182.677
 21
182.719
  0
LINE
  8
0
 10
-0.716
 11
-0.834
 20
182.719
 21
182.749
  0
LINE
  8
0
 10
-0.834
 11
-0.943
 20
182.749
 21
182.803
  0
LINE
  8
0
 10
-0.943
 11
-1.057
 20
182.803
 21
182.845
  0
LINE
  8
0
 10
-1.057
 11
-1.16
 20
182.845
 21
182.91
  0
LINE
  8
0
 10
-1.16
 11
-1.27
 20
182.91
 21
182.963
  0
LINE
  8
0
 10
-1.27
 11
-1.366
 20
182.963
 21
183.038
  0
LINE
  8
0
 10
-1.366
 11
-1.469
 20
183.038
 21
183.102
  0
LINE
  8
0
 10
-1.469
 11
-1.557
 20
183.102
 21
183.186
  0
LINE
  8
0
 10
-1.557
 11
-1.654
 20
183.186
 21
183.26
  0
LINE
  8
0
 10
-1.654
 11
-1.733
 20
183.26
 21
183.353
  0
LINE
  8
0
 10
-1.733
 11
-1.821
 20
183.353
 21
183.437
  0
LINE
  8
0
 10
-1.821
 11
-1.891
 20
183.437
 21
183.537
  0
LINE
  8
0
 10
-1.891
 11
-1.97
 20
183.537
 21
183.629
  0
LINE
  8
0
 10
-1.97
 11
-2.029
 20
183.629
 21
183.735
  0
LINE
  8
0
 10
-2.029
 11
-2.098
 20
183.735
 21
183.835
  0
LINE
  8
0
 10
-2.098
 11
-2.146
 20
183.835
 21
183.947
  0
LINE
  8
0
 10
-2.146
 11
-2.205
 20
183.947
 21
184.054
  0
LINE
  8
0
 10
-2.205
 11
-2.242
 20
184.054
 21
184.17
  0
LINE
  8
0
 10
-2.242
 11
-2.29
 20
184.17
 21
184.282
  0
LINE
  8
0
 10
-2.29
 11
-2.314
 20
184.282
 21
184.401
  0
LINE
  8
0
 10
-2.314
 11
-2.351
 20
184.401
 21
184.517
  0
LINE
  8
0
 10
-2.351
 11
-2.363
 20
184.517
 21
184.638
  0
LINE
  8
0
 10
-2.363
 11
-2.388
 20
184.638
 21
184.757
  0
LINE
  8
0
 10
-2.388
 11
-2.388
 20
184.757
 21
184.879
  0
LINE
  8
0
 10
-2.388
 11
-2.4
 20
184.879
 21
185
  0
LINE
  8
0
 10
85
 11
85.065
 20
47.6
 21
48.092
  0
LINE
  8
0
 10
85.065
 11
85.255
 20
48.092
 21
48.55
  0
LINE
  8
0
 10
85.255
 11
85.556
 20
48.55
 21
48.944
  0
LINE
  8
0
 10
85.556
 11
85.95
 20
48.944
 21
49.245
  0
LINE
  8
0
 10
85.95
 11
86.408
 20
49.245
 21
49.435
  0
LINE
  8
0
 10
86.408
 11
86.9
 20
49.435
 21
49.5
  0
LINE
  8
0
 10
86.9
 11
87.392
 20
49.5
 21
49.435
  0
LINE
  8
0
 10
87.392
 11
87.85
 20
49.435
 21
49.245
  0
LINE
  8
0
 10
87.85
 11
88.244
 20
49.245
 21
48.944
  0
LINE
  8
0
 10
88.244
 11
88.545
 20
48.944
 21
48.55
  0
LINE
  8
0
 10
88.545
 11
88.735
 20
48.55
 21
48.092
  0
LINE
  8
0
 10
88.735
 11
88.8
 20
48.092
 21
47.6
  0
LINE
  8
0
 10
88.8
 11
88.735
 20
47.6
 21
47.108
  0
LINE
  8
0
 10
88.735
 11
88.545
 20
47.108
 21
46.65
  0
LINE
  8
0
 10
88.545
 11
88.244
 20
46.65
 21
46.256
  0
LINE
  8
0
 10
88.244
 11
87.85
 20
46.256
 21
45.955
  0
LINE
  8
0
 10
87.85
 11
87.392
 20
45.955
 21
45.765
  0
LINE
  8
0
 10
87.392
 11
86.9
 20
45.765
 21
45.7
  0
LINE
  8
0
 10
86.9
 11
86.408
 20
45.7
 21
45.765
  0
LINE
  8
0
 10
86.408
 11
85.95
 20
45.765
 21
45.955
  0
LINE
  8
0
 10
85.95
 11
85.556
 20
45.955
 21
46.256
  0
LINE
  8
0
 10
85.556
 11
85.255
 20
46.256
 21
46.65
  0
LINE
  8
0
 10
85.255
 11
85.065
 20
46.65
 21
47.108
  0
LINE
  8
0
 10
85.065
 11
85
 20
47.108
 21
47.6
  0
LINE
  8
0
 10
85
 11
85.065
 20
152.4
 21
152.892
  0
LINE
  8
0
 10
85.065
 11
85.255
 20
152.892
 21
153.35
  0
LINE
  8
0
 10
85.255
 11
85.556
 20
153.35
 21
153.744
  0
LINE
  8
0
 10
85.556
 11
85.95
 20
153.744
 21
154.045
  0
LINE
  8
0
 10
85.95
 11
86.408
 20
154.045
 21
154.235
  0
LINE
  8
0
 10
86.408
 11
86.9
 20
154.235
 21
154.3
  0
LINE
  8
0
 10
86.9
 11
87.392
 20
154.3
 21
154.235
  0
LINE
  8
0
 10
87.392
 11
87.85
 20
154.235
 21
154.045
  0
LINE
  8
0
 10
87.85
 11
88.244
 20
154.045
 21
153.744
  0
LINE
  8
0
 10
88.244
 11
88.545
 20
153.744
 21
153.35
  0
LINE
  8
0
 10
88.545
 11
88.735
 20
153.35
 21
152.892
  0
LINE
  8
0
 10
88.735
 11
88.8
 20
152.892
 21
152.4
  0
LINE
  8
0
 10
88.8
 11
88.735
 20
152.4
 21
151.908
  0
LINE
  8
0
 10
88.735
 11
88.545
 20
151.908
 21
151.45
  0
LINE
  8
0
 10
88.545
 11
88.244
 20
151.45
 21
151.056
  0
LINE
  8
0
 10
88.244
 11
87.85
 20
151.056
 21
150.755
  0
LINE
  8
0
 10
87.85
 11
87.392
 20
150.755
 21
150.565
  0
LINE
  8
0
 10
87.392
 11
86.9
 20
150.565
 21
150.5
  0
LINE
  8
0
 10
86.9
 11
86.408
 20
150.5
 21
150.565
  0
LINE
  8
0
 10
86.408
 11
85.95
 20
150.565
 21
150.755
  0
LINE
  8
0
 10
85.95
 11
85.556
 20
150.755
 21
151.056
  0
LINE
  8
0
 10
85.556
 11
85.255
 20
151.056
 21
151.45
  0
LINE
  8
0
 10
85.255
 11
85.065
 20
151.45
 21
151.908
  0
LINE
  8
0
 10
85.065
 11
85
 20
151.908
 21
152.4
  0
LINE
  8
0
 10
127
 11
127
 20
71.15
 21
162.848
  0
LINE
  8
0
 10
127
 11
140
 20
162.848
 21
162.848
  0
LINE
  8
0
 10
140
 11
140.497
 20
162.848
 21
162.859
  0
LINE
  8
0
 10
140.497
 11
140.993
 20
162.859
 21
162.892
  0
LINE
  8
0
 10
140.993
 11
141.486
 20
162.892
 21
162.947
  0
LINE
  8
0
 10
141.486
 11
141.977
 20
162.947
 21
163.024
  0
LINE
  8
0
 10
141.977
 11
142.464
 20
163.024
 21
163.123
  0
LINE
  8
0
 10
142.464
 11
142.946
 20
163.123
 21
163.244
  0
LINE
  8
0
 10
142.946
 11
143.423
 20
163.244
 21
163.386
  0
LINE
  8
0
 10
143.423
 11
143.892
 20
163.386
 21
163.549
  0
LINE
  8
0
 10
143.892
 11
144.354
 20
163.549
 21
163.732
  0
LINE
  8
0
 10
144.354
 11
144.807
 20
163.732
 21
163.937
  0
LINE
  8
0
 10
144.807
 11
145.25
 20
163.937
 21
164.161
  0
LINE
  8
0
 10
145.25
 11
145.683
 20
164.161
 21
164.404
  0
LINE
  8
0
 10
145.683
 11
146.105
 20
164.404
 21
164.667
  0
LINE
  8
0
 10
146.105
 11
146.515
 20
164.667
 21
164.948
  0
LINE
  8
0
 10
146.515
 11
146.912
 20
164.948
 21
165.248
  0
LINE
  8
0
 10
146.912
 11
147.295
 20
165.248
 21
165.564
  0
LINE
  8
0
 10
147.295
 11
147.663
 20
165.564
 21
165.897
  0
LINE
  8
0
 10
147.663
 11
148.017
 20
165.897
 21
166.247
  0
LINE
  8
0
 10
148.017
 11
148.354
 20
166.247
 21
166.612
  0
LINE
  8
0
 10
148.354
 11
148.675
 20
166.612
 21
166.991
  0
LINE
  8
0
 10
148.675
 11
148.979
 20
166.991
 21
167.385
  0
LINE
  8
0
 10
148.979
 11
149.264
 20
167.385
 21
167.791
  0
LINE
  8
0
 10
149.264
 11
149.532
 20
167.791
 21
168.21
  0
LINE
  8
0
 10
149.532
 11
149.78
 20
168.21
 21
168.64
  0
LINE
  8
0
 10
149.78
 11
150.009
 20
168.64
 21
169.081
  0
LINE
  8
0
 10
150.009
 11
150.218
 20
169.081
 21
169.532
  0
LINE
  8
0
 10
150.218
 11
150.407
 20
169.532
 21
169.992
  0
LINE
  8
0
 10
150.407
 11
150.576
 20
169.992
 21
170.459
  0
LINE
  8
0
 10
150.576
 11
150.723
 20
170.459
 21
170.934
  0
LINE
  8
0
 10
150.723
 11
150.849
 20
170.934
 21
171.415
  0
LINE
  8
0
 10
150.849
 11
150.953
 20
171.415
 21
171.9
  0
LINE
  8
0
 10
150.953
 11
151.036
 20
171.9
 21
172.39
  0
LINE
  8
0
 10
151.036
 11
151.096
 20
172.39
 21
172.884
  0
LINE
  8
0
 10
151.096
 11
151.135
 20
172.884
 21
173.379
  0
LINE
  8
0
 10
151.135
 11
151.152
 20
173.379
 21
173.876
  0
LINE
  8
0
 10
151.152
 11
151.152
 20
173.876
 21
177
  0
LINE
  8
0
 10
151.152
 11
192.848
 20
177
 21
177
  0
LINE
  8
0
 10
192.848
 11
192.848
 20
177
 21
173.876
  0
LINE
  8
0
 10
192.848
 11
192.865
 20
173.876
 21
173.379
  0
LINE
  8
0
 10
192.865
 11
192.904
 20
173.379
 21
172.884
  0
LINE
  8
0
 10
192.904
 11
192.964
 20
172.884
 21
172.39
  0
LINE
  8
0
 10
192.964
 11
193.047
 20
172.39
 21
171.9
  0
LINE
  8
0
 10
193.047
 11
193.151
 20
171.9
 21
171.415
  0
LINE
  8
0
 10
193.151
 11
193.277
 20
171.415
 21
170.934
  0
LINE
  8
0
 10
193.277
 11
193.424
 20
170.934
 21
170.459
  0
LINE
  8
0
 10
193.424
 11
193.593
 20
170.459
 21
169.992
  0
LINE
  8
0
 10
193.593
 11
193.782
 20
169.992
 21
169.532
  0
LINE
  8
0
 10
193.782
 11
193.991
 20
169.532
 21
169.081
  0
LINE
  8
0
 10
193.991
 11
194.22
 20
169.081
 21
168.64
  0
LINE
  8
0
 10
194.22
 11
194.468
 20
168.64
 21
168.21
  0
LINE
  8
0
 10
194.468
 11
194.736
 20
168.21
 21
167.791
  0
LINE
  8
0
 10
194.736
 11
195.021
 20
167.791
 21
167.385
  0
LINE
  8
0
 10
195.021
 11
195.325
 20
167.385
 21
166.991
  0
LINE
  8
0
 10
195.325
 11
195.646
 20
166.991
 21
166.612
  0
LINE
  8
0
 10
195.646
 11
195.983
 20
166.612
 21
166.247
  0
LINE
  8
0
 10
195.983
 11
196.337
 20
166.247
 21
165.897
  0
LINE
  8
0
 10
196.337
 11
196.705
 20
165.897
 21
165.564
  0
LINE
  8
0
 10
196.705
 11
197.088
 20
165.564
 21
165.248
  0
LINE
  8
0
 10
197.088
 11
197.485
 20
165.248
 21
164.948
  0
LINE
  8
0
 10
197.485
 11
197.895
 20
164.948
 21
164.667
  0
LINE
  8
0
 10
197.895
 11
198.317
 20
164.667
 21
164.404
  0
LINE
  8
0
 10
198.317
 11
198.75
 20
164.404
 21
164.161
  0
LINE
  8
0
 10
198.75
 11
199.193
 20
164.161
 21
163.937
  0
LINE
  8
0
 10
199.193
 11
199.646
 20
163.937
 21
163.732
  0
LINE
  8
0
 10
199.646
 11
200.108
 20
163.732
 21
163.549
  0
LINE
  8
0
 10
200.108
 11
200.577
 20
163.549
 21
163.386
  0
LINE
  8
0
 10
200.577
 11
201.054
 20
163.386
 21
163.244
  0
LINE
  8
0
 10
201.054
 11
201.536
 20
163.244
 21
163.123
  0
LINE
  8
0
 10
201.536
 11
202.023
 20
163.123
 21
163.024
  0
LINE
  8
0
 10
202.023
 11
202.514
 20
163.024
 21
162.947
  0
LINE
  8
0
 10
202.514
 11
203.007
 20
162.947
 21
162.892
  0
LINE
  8
0
 10
203.007
 11
203.503
 20
162.892
 21
162.859
  0
LINE
  8
0
 10
203.503
 11
204
 20
162.859
 21
162.848
  0
LINE
  8
0
 10
204
 11
207
 20
162.848
 21
162.848
  0
LINE
  8
0
 10
207
 11
207
 20
162.848
 21
47.15
  0
LINE
  8
0
 10
207
 11
203.752
 20
47.15
 21
47.15
  0
LINE
  8
0
 10
203.752
 11
203.255
 20
47.15
 21
47.128
  0
LINE
  8
0
 10
203.255
 11
202.76
 20
47.128
 21
47.083
  0
LINE
  8
0
 10
202.76
 11
202.268
 20
47.083
 21
47.017
  0
LINE
  8
0
 10
202.268
 11
201.779
 20
47.017
 21
46.929
  0
LINE
  8
0
 10
201.779
 11
201.294
 20
46.929
 21
46.819
  0
LINE
  8
0
 10
201.294
 11
200.815
 20
46.819
 21
46.688
  0
LINE
  8
0
 10
200.815
 11
200.342
 20
46.688
 21
46.535
  0
LINE
  8
0
 10
200.342
 11
199.876
 20
46.535
 21
46.362
  0
LINE
  8
0
 10
199.876
 11
199.419
 20
46.362
 21
46.168
  0
LINE
  8
0
 10
199.419
 11
198.97
 20
46.168
 21
45.954
  0
LINE
  8
0
 10
198.97
 11
198.532
 20
45.954
 21
45.72
  0
LINE
  8
0
 10
198.532
 11
198.104
 20
45.72
 21
45.467
  0
LINE
  8
0
 10
198.104
 11
197.688
 20
45.467
 21
45.195
  0
LINE
  8
0
 10
197.688
 11
197.285
 20
45.195
 21
44.904
  0
LINE
  8
0
 10
197.285
 11
196.895
 20
44.904
 21
44.596
  0
LINE
  8
0
 10
196.895
 11
196.519
 20
44.596
 21
44.271
  0
LINE
  8
0
 10
196.519
 11
196.158
 20
44.271
 21
43.93
  0
LINE
  8
0
 10
196.158
 11
195.813
 20
43.93
 21
43.573
  0
LINE
  8
0
 10
195.813
 11
195.483
 20
43.573
 21
43.2
  0
LINE
  8
0
 10
195.483
 11
195.171
 20
43.2
 21
42.814
  0
LINE
  8
0
 10
195.171
 11
194.876
 20
42.814
 21
42.414
  0
LINE
  8
0
 10
194.876
 11
194.6
 20
42.414
 21
42.001
  0
LINE
  8
0
 10
194.6
 11
194.342
 20
42.001
 21
41.576
  0
LINE
  8
0
 10
194.342
 11
194.103
 20
41.576
 21
41.14
  0
LINE
  8
0
 10
194.103
 11
193.884
 20
41.14
 21
40.694
  0
LINE
  8
0
 10
193.884
 11
193.685
 20
40.694
 21
40.239
  0
LINE
  8
0
 10
193.685
 11
193.506
 20
40.239
 21
39.775
  0
LINE
  8
0
 10
193.506
 11
193.348
 20
39.775
 21
39.304
  0
LINE
  8
0
 10
193.348
 11
193.212
 20
39.304
 21
38.826
  0
LINE
  8
0
 10
193.212
 11
193.096
 20
38.826
 21
38.343
  0
LINE
  8
0
 10
193.096
 11
193.003
 20
38.343
 21
37.855
  0
LINE
  8
0
 10
193.003
 11
192.931
 20
37.855
 21
37.363
  0
LINE
  8
0
 10
192.931
 11
192.881
 20
37.363
 21
36.869
  0
LINE
  8
0
 10
192.881
 11
192.854
 20
36.869
 21
36.373
  0
LINE
  8
0
 10
192.854
 11
192.848
 20
36.373
 21
35.876
  0
LINE
  8
0
 10
192.848
 11
192.848
 20
35.876
 21
33
  0
LINE
  8
0
 10
192.848
 11
141.152
 20
33
 21
33
  0
LINE
  8
0
 10
141.152
 11
141.152
 20
33
 21
59.876
  0
LINE
  8
0
 10
141.152
 11
141.146
 20
59.876
 21
60.373
  0
LINE
  8
0
 10
141.146
 11
141.119
 20
60.373
 21
60.869
  0
LINE
  8
0
 10
141.119
 11
141.069
 20
60.869
 21
61.363
  0
LINE
  8
0
 10
141.069
 11
140.997
 20
61.363
 21
61.855
  0
LINE
  8
0
 10
140.997
 11
140.904
 20
61.855
 21
62.343
  0
LINE
  8
0
 10
140.904
 11
140.788
 20
62.343
 21
62.826
  0
LINE
  8
0
 10
140.788
 11
140.652
 20
62.826
 21
63.304
  0
LINE
  8
0
 10
140.652
 11
140.494
 20
63.304
 21
63.775
  0
LINE
  8
0
 10
140.494
 11
140.315
 20
63.775
 21
64.239
  0
LINE
  8
0
 10
140.315
 11
140.116
 20
64.239
 21
64.694
  0
LINE
  8
0
 10
140.116
 11
139.897
 20
64.694
 21
65.14
  0
LINE
  8
0
 10
139.897
 11
139.658
 20
65.14
 21
65.576
  0
LINE
  8
0
 10
139.658
 11
139.4
 20
65.576
 21
66.001
  0
LINE
  8
0
 10
139.4
 11
139.124
 20
66.001
 21
66.414
  0
LINE
  8
0
 10
139.124
 11
138.829
 20
66.414
 21
66.814
  0
LINE
  8
0
 10
138.829
 11
138.517
 20
66.814
 21
67.2
  0
LINE
  8
0
 10
138.517
 11
138.187
 20
67.2
 21
67.573
  0
LINE
  8
0
 10
138.187
 11
137.842
 20
67.573
 21
67.93
  0
LINE
  8
0
 10
137.842
 11
137.481
 20
67.93
 21
68.271
  0
LINE
  8
0
 10
137.481
 11
137.105
 20
68.271
 21
68.596
  0
LINE
  8
0
 10
137.105
 11
136.715
 20
68.596
 21
68.904
  0
LINE
  8
0
 10
136.715
 11
136.312
 20
68.904
 21
69.195
  0
LINE
  8
0
 10
136.312
 11
135.896
 20
69.195
 21
69.467
  0
LINE
  8
0
 10
135.896
 11
135.468
 20
69.467
 21
69.72
  0
LINE
  8
0
 10
135.468
 11
135.03
 20
69.72
 21
69.954
  0
LINE
  8
0
 10
135.03
 11
134.581
 20
69.954
 21
70.168
  0
LINE
  8
0
 10
134.581
 11
134.124
 20
70.168
 21
70.362
  0
LINE
  8
0
 10
134.124
 11
133.658
 20
70.362
 21
70.535
  0
LINE
  8
0
 10
133.658
 11
133.185
 20
70.535
 21
70.688
  0
LINE
  8
0
 10
133.185
 11
132.706
 20
70.688
 21
70.819
  0
LINE
  8
0
 10
132.706
 11
132.221
 20
70.819
 21
70.929
  0
LINE
  8
0
 10
132.221
 11
131.732
 20
70.929
 21
71.017
  0
LINE
  8
0
 10
131.732
 11
131.24
 20
71.017
 21
71.083
  0
LINE
  8
0
 10
131.24
 11
130.745
 20
71.083
 21
71.128
  0
LINE
  8
0
 10
130.745
 11
130.248
 20
71.128
 21
71.15
  0
LINE
  8
0
 10
130.248
 11
127
 20
71.15
 21
71.15
  0
LINE
  8
0
 10
127.848
 11
127.901
 20
60
 21
60.479
  0
LINE
  8
0
 10
127.901
 11
128.061
 20
60.479
 21
60.934
  0
LINE
  8
0
 10
128.061
 11
128.317
 20
60.934
 21
61.342
  0
LINE
  8
0
 10
128.317
 11
128.658
 20
61.342
 21
61.683
  0
LINE
  8
0
 10
128.658
 11
129.066
 20
61.683
 21
61.939
  0
LINE
  8
0
 10
129.066
 11
129.521
 20
61.939
 21
62.099
  0
LINE
  8
0
 10
129.521
 11
130
 20
62.099
 21
62.152
  0
LINE
  8
0
 10
130
 11
130.479
 20
62.152
 21
62.099
  0
LINE
  8
0
 10
130.479
 11
130.934
 20
62.099
 21
61.939
  0
LINE
  8
0
 10
130.934
 11
131.342
 20
61.939
 21
61.683
  0
LINE
  8
0
 10
131.342
 11
131.683
 20
61.683
 21
61.342
  0
LINE
  8
0
 10
131.683
 11
131.939
 20
61.342
 21
60.934
  0
LINE
  8
0
 10
131.939
 11
132.099
 20
60.934
 21
60.479
  0
LINE
  8
0
 10
132.099
 11
132.153
 20
60.479
 21
60
  0
LINE
  8
0
 10
132.153
 11
132.099
 20
60
 21
59.521
  0
LINE
  8
0
 10
132.099
 11
131.939
 20
59.521
 21
59.066
  0
LINE
  8
0
 10
131.939
 11
131.683
 20
59.066
 21
58.658
  0
LINE
  8
0
 10
131.683
 11
131.342
 20
58.658
 21
58.317
  0
LINE
  8
0
 10
131.342
 11
130.934
 20
58.317
 21
58.061
  0
LINE
  8
0
 10
130.934
 11
130.479
 20
58.061
 21
57.901
  0
LINE
  8
0
 10
130.479
 11
130
 20
57.901
 21
57.847
  0
LINE
  8
0
 10
130
 11
129.521
 20
57.847
 21
57.901
  0
LINE
  8
0
 10
129.521
 11
129.066
 20
57.901
 21
58.061
  0
LINE
  8
0
 10
129.066
 11
128.658
 20
58.061
 21
58.317
  0
LINE
  8
0
 10
128.658
 11
128.317
 20
58.317
 21
58.658
  0
LINE
  8
0
 10
128.317
 11
128.061
 20
58.658
 21
59.066
  0
LINE
  8
0
 10
128.061
 11
127.901
 20
59.066
 21
59.521
  0
LINE
  8
0
 10
127.901
 11
127.848
 20
59.521
 21
60
  0
LINE
  8
0
 10
137.848
 11
137.901
 20
174
 21
174.479
  0
LINE
  8
0
 10
137.901
 11
138.061
 20
174.479
 21
174.934
  0
LINE
  8
0
 10
138.061
 11
138.317
 20
174.934
 21
175.342
  0
LINE
  8
0
 10
138.317
 11
138.658
 20
175.342
 21
175.683
  0
LINE
  8
0
 10
138.658
 11
139.066
 20
175.683
 21
175.939
  0
LINE
  8
0
 10
139.066
 11
139.521
 20
175.939
 21
176.099
  0
LINE
  8
0
 10
139.521
 11
140
 20
176.099
 21
176.153
  0
LINE
  8
0
 10
140
 11
140.479
 20
176.153
 21
176.099
  0
LINE
  8
0
 10
140.479
 11
140.934
 20
176.099
 21
175.939
  0
LINE
  8
0
 10
140.934
 11
141.342
 20
175.939
 21
175.683
  0
LINE
  8
0
 10
141.342
 11
141.683
 20
175.683
 21
175.342
  0
LINE
  8
0
 10
141.683
 11
141.939
 20
175.342
 21
174.934
  0
LINE
  8
0
 10
141.939
 11
142.099
 20
174.934
 21
174.479
  0
LINE
  8
0
 10
142.099
 11
142.153
 20
174.479
 21
174
  0
LINE
  8
0
 10
142.153
 11
142.099
 20
174
 21
173.521
  0
LINE
  8
0
 10
142.099
 11
141.939
 20
173.521
 21
173.066
  0
LINE
  8
0
 10
141.939
 11
141.683
 20
173.066
 21
172.658
  0
LINE
  8
0
 10
141.683
 11
141.342
 20
172.658
 21
172.317
  0
LINE
  8
0
 10
141.342
 11
140.934
 20
172.317
 21
172.061
  0
LINE
  8
0
 10
140.934
 11
140.479
 20
172.061
 21
171.901
  0
LINE
  8
0
 10
140.479
 11
140
 20
171.901
 21
171.848
  0
LINE
  8
0
 10
140
 11
139.521
 20
171.848
 21
171.901
  0
LINE
  8
0
 10
139.521
 11
139.066
 20
171.901
 21
172.061
  0
LINE
  8
0
 10
139.066
 11
138.658
 20
172.061
 21
172.317
  0
LINE
  8
0
 10
138.658
 11
138.317
 20
172.317
 21
172.658
  0
LINE
  8
0
 10
138.317
 11
138.061
 20
172.658
 21
173.066
  0
LINE
  8
0
 10
138.061
 11
137.901
 20
173.066
 21
173.521
  0
LINE
  8
0
 10
137.901
 11
137.848
 20
173.521
 21
174
  0
LINE
  8
0
 10
201.848
 11
201.901
 20
36
 21
36.479
  0
LINE
  8
0
 10
201.901
 11
202.061
 20
36.479
 21
36.934
  0
LINE
  8
0
 10
202.061
 11
202.317
 20
36.934
 21
37.342
  0
LINE
  8
0
 10
202.317
 11
202.658
 20
37.342
 21
37.683
  0
LINE
  8
0
 10
202.658
 11
203.066
 20
37.683
 21
37.939
  0
LINE
  8
0
 10
203.066
 11
203.521
 20
37.939
 21
38.099
  0
LINE
  8
0
 10
203.521
 11
204
 20
38.099
 21
38.152
  0
LINE
  8
0
 10
204
 11
204.479
 20
38.152
 21
38.099
  0
LINE
  8
0
 10
204.479
 11
204.934
 20
38.099
 21
37.939
  0
LINE
  8
0
 10
204.934
 11
205.342
 20
37.939
 21
37.683
  0
LINE
  8
0
 10
205.342
 11
205.683
 20
37.683
 21
37.342
  0
LINE
  8
0
 10
205.683
 11
205.939
 20
37.342
 21
36.934
  0
LINE
  8
0
 10
205.939
 11
206.099
 20
36.934
 21
36.479
  0
LINE
  8
0
 10
206.099
 11
206.153
 20
36.479
 21
36
  0
LINE
  8
0
 10
206.153
 11
206.099
 20
36
 21
35.521
  0
LINE
  8
0
 10
206.099
 11
205.939
 20
35.521
 21
35.066
  0
LINE
  8
0
 10
205.939
 11
205.683
 20
35.066
 21
34.658
  0
LINE
  8
0
 10
205.683
 11
205.342
 20
34.658
 21
34.317
  0
LINE
  8
0
 10
205.342
 11
204.934
 20
34.317
 21
34.061
  0
LINE
  8
0
 10
204.934
 11
204.479
 20
34.061
 21
33.901
  0
LINE
  8
0
 10
204.479
 11
204
 20
33.901
 21
33.847
  0
LINE
  8
0
 10
204
 11
203.521
 20
33.847
 21
33.901
  0
LINE
  8
0
 10
203.521
 11
203.066
 20
33.901
 21
34.061
  0
LINE
  8
0
 10
203.066
 11
202.658
 20
34.061
 21
34.317
  0
LINE
  8
0
 10
202.658
 11
202.317
 20
34.317
 21
34.658
  0
LINE
  8
0
 10
202.317
 11
202.061
 20
34.658
 21
35.066
  0
LINE
  8
0
 10
202.061
 11
201.901
 20
35.066
 21
35.521
  0
LINE
  8
0
 10
201.901
 11
201.848
 20
35.521
 21
36
  0
LINE
  8
0
 10
201.848
 11
201.901
 20
174
 21
174.479
  0
LINE
  8
0
 10
201.901
 11
202.061
 20
174.479
 21
174.934
  0
LINE
  8
0
 10
202.061
 11
202.317
 20
174.934
 21
175.342
  0
LINE
  8
0
 10
202.317
 11
202.658
 20
175.342
 21
175.683
  0
LINE
  8
0
 10
202.658
 11
203.066
 20
175.683
 21
175.939
  0
LINE
  8
0
 10
203.066
 11
203.521
 20
175.939
 21
176.099
  0
LINE
  8
0
 10
203.521
 11
204
 20
176.099
 21
176.153
  0
LINE
  8
0
 10
204
 11
204.479
 20
176.153
 21
176.099
  0
LINE
  8
0
 10
204.479
 11
204.934
 20
176.099
 21
175.939
  0
LINE
  8
0
 10
204.934
 11
205.342
 20
175.939
 21
175.683
  0
LINE
  8
0
 10
205.342
 11
205.683
 20
175.683
 21
175.342
  0
LINE
  8
0
 10
205.683
 11
205.939
 20
175.342
 21
174.934
  0
LINE
  8
0
 10
205.939
 11
206.099
 20
174.934
 21
174.479
  0
LINE
  8
0
 10
206.099
 11
206.153
 20
174.479
 21
174
  0
LINE
  8
0
 10
206.153
 11
206.099
 20
174
 21
173.521
  0
LINE
  8
0
 10
206.099
 11
205.939
 20
173.521
 21
173.066
  0
LINE
  8
0
 10
205.939
 11
205.683
 20
173.066
 21
172.658
  0
LINE
  8
0
 10
205.683
 11
205.342
 20
172.658
 21
172.317
  0
LINE
  8
0
 10
205.342
 11
204.934
 20
172.317
 21
172.061
  0
LINE
  8
0
 10
204.934
 11
204.479
 20
172.061
 21
171.901
  0
LINE
  8
0
 10
204.479
 11
204
 20
171.901
 21
171.848
  0
LINE
  8
0
 10
204
 11
203.521
 20
171.848
 21
171.901
  0
LINE
  8
0
 10
203.521
 11
203.066
 20
171.901
 21
172.061
  0
LINE
  8
0
 10
203.066
 11
202.658
 20
172.061
 21
172.317
  0
LINE
  8
0
 10
202.658
 11
202.317
 20
172.317
 21
172.658
  0
LINE
  8
0
 10
202.317
 11
202.061
 20
172.658
 21
173.066
  0
LINE
  8
0
 10
202.061
 11
201.901
 20
173.066
 21
173.521
  0
LINE
  8
0
 10
201.901
 11
201.848
 20
173.521
 21
174
  0
LINE
  8
0
 10
222.612
 11
222.612
 20
14.757
 21
15.243
  0
LINE
  8
0
 10
222.612
 11
222.71
 20
15.243
 21
15.718
  0
LINE
  8
0
 10
222.71
 11
222.902
 20
15.718
 21
16.165
  0
LINE
  8
0
 10
222.902
 11
223.179
 20
16.165
 21
16.563
  0
LINE
  8
0
 10
223.179
 11
223.531
 20
16.563
 21
16.898
  0
LINE
  8
0
 10
223.531
 11
223.943
 20
16.898
 21
17.155
  0
LINE
  8
0
 10
223.943
 11
224.398
 20
17.155
 21
17.323
  0
LINE
  8
0
 10
224.398
 11
224.878
 20
17.323
 21
17.397
  0
LINE
  8
0
 10
224.878
 11
225.363
 20
17.397
 21
17.372
  0
LINE
  8
0
 10
225.363
 11
225.834
 20
17.372
 21
17.251
  0
LINE
  8
0
 10
225.834
 11
226.27
 20
17.251
 21
17.037
  0
LINE
  8
0
 10
226.27
 11
226.654
 20
17.037
 21
16.74
  0
LINE
  8
0
 10
226.654
 11
226.97
 20
16.74
 21
16.371
  0
LINE
  8
0
 10
226.97
 11
227.205
 20
16.371
 21
15.946
  0
LINE
  8
0
 10
227.205
 11
227.351
 20
15.946
 21
15.483
  0
LINE
  8
0
 10
227.351
 11
227.4
 20
15.483
 21
15
  0
LINE
  8
0
 10
227.4
 11
227.351
 20
15
 21
14.517
  0
LINE
  8
0
 10
227.351
 11
227.205
 20
14.517
 21
14.054
  0
LINE
  8
0
 10
227.205
 11
226.97
 20
14.054
 21
13.629
  0
LINE
  8
0
 10
226.97
 11
226.654
 20
13.629
 21
13.26
  0
LINE
  8
0
 10
226.654
 11
226.27
 20
13.26
 21
12.963
  0
LINE
  8
0
 10
226.27
 11
225.834
 20
12.963
 21
12.749
  0
LINE
  8
0
 10
225.834
 11
225.363
 20
12.749
 21
12.628
  0
LINE
  8
0
 10
225.363
 11
224.878
 20
12.628
 21
12.603
  0
LINE
  8
0
 10
224.878
 11
224.398
 20
12.603
 21
12.677
  0
LINE
  8
0
 10
224.398
 11
223.943
 20
12.677
 21
12.845
  0
LINE
  8
0
 10
223.943
 11
223.531
 20
12.845
 21
13.102
  0
LINE
  8
0
 10
223.531
 11
223.179
 20
13.102
 21
13.437
  0
LINE
  8
0
 10
223.179
 11
222.902
 20
13.437
 21
13.835
  0
LINE
  8
0
 10
222.902
 11
222.71
 20
13.835
 21
14.282
  0
LINE
  8
0
 10
222.71
 11
222.612
 20
14.282
 21
14.757
  0
LINE
  8
0
 10
237.1
 11
237.149
 20
100
 21
100.483
  0
LINE
  8
0
 10
237.149
 11
237.295
 20
100.483
 21
100.946
  0
LINE
  8
0
 10
237.295
 11
237.53
 20
100.946
 21
101.371
  0
LINE
  8
0
 10
237.53
 11
237.846
 20
101.371
 21
101.74
  0
LINE
  8
0
 10
237.846
 11
238.23
 20
101.74
 21
102.037
  0
LINE
  8
0
 10
238.23
 11
238.666
 20
102.037
 21
102.251
  0
LINE
  8
0
 10
238.666
 11
239.137
 20
102.251
 21
102.372
  0
LINE
  8
0
 10
239.137
 11
239.622
 20
102.372
 21
102.397
  0
LINE
  8
0
 10
239.622
 11
240.102
 20
102.397
 21
102.323
  0
LINE
  8
0
 10
240.102
 11
240.557
 20
102.323
 21
102.155
  0
LINE
  8
0
 10
240.557
 11
240.969
 20
102.155
 21
101.898
  0
LINE
  8
0
 10
240.969
 11
241.321
 20
101.898
 21
101.563
  0
LINE
  8
0
 10
241.321
 11
241.598
 20
101.563
 21
101.165
  0
LINE
  8
0
 10
241.598
 11
241.79
 20
101.165
 21
100.718
  0
LINE
  8
0
 10
241.79
 11
241.888
 20
100.718
 21
100.243
  0
LINE
  8
0
 10
241.888
 11
241.888
 20
100.243
 21
99.757
  0
LINE
  8
0
 10
241.888
 11
241.79
 20
99.757
 21
99.282
  0
LINE
  8
0
 10
241.79
 11
241.598
 20
99.282
 21
98.835
  0
LINE
  8
0
 10
241.598
 11
241.321
 20
98.835
 21
98.437
  0
LINE
  8
0
 10
241.321
 11
240.969
 20
98.437
 21
98.102
  0
LINE
  8
0
 10
240.969
 11
240.557
 20
98.102
 21
97.845
  0
LINE
  8
0
 10
240.557
 11
240.102
 20
97.845
 21
97.677
  0
LINE
  8
0
 10
240.102
 11
239.622
 20
97.677
 21
97.603
  0
LINE
  8
0
 10
239.622
 11
239.137
 20
97.603
 21
97.628
  0
LINE
  8
0
 10
239.137
 11
238.666
 20
97.628
 21
97.749
  0
LINE
  8
0
 10
238.666
 11
238.23
 20
97.749
 21
97.963
  0
LINE
  8
0
 10
238.23
 11
237.846
 20
97.963
 21
98.26
  0
LINE
  8
0
 10
237.846
 11
237.53
 20
98.26
 21
98.629
  0
LINE
  8
0
 10
237.53
 11
237.295
 20
98.629
 21
99.054
  0
LINE
  8
0
 10
237.295
 11
237.149
 20
99.054
 21
99.517
  0
LINE
  8
0
 10
237.149
 11
237.1
 20
99.517
 21
100
  0
LINE
  8
0
 10
244.5
 11
244.5
 20
92.6
 21
109.9
  0
LINE
  8
0
 10
244.5
 11
259.8
 20
109.9
 21
109.9
  0
LINE
  8
0
 10
259.8
 11
259.8
 20
109.9
 21
92.6
  0
LINE
  8
0
 10
259.8
 11
244.5
 20
92.6
 21
92.6
  0
LINE
  8
0
 10
262.412
 11
262.412
 20
99.757
 21
100.243
  0
LINE
  8
0
 10
262.412
 11
262.51
 20
100.243
 21
100.718
  0
LINE
  8
0
 10
262.51
 11
262.702
 20
100.718
 21
101.165
  0
LINE
  8
0
 10
262.702
 11
262.979
 20
101.165
 21
101.563
  0
LINE
  8
0
 10
262.979
 11
263.331
 20
101.563
 21
101.898
  0
LINE
  8
0
 10
263.331
 11
263.743
 20
101.898
 21
102.155
  0
LINE
  8
0
 10
263.743
 11
264.198
 20
102.155
 21
102.323
  0
LINE
  8
0
 10
264.198
 11
264.678
 20
102.323
 21
102.397
  0
LINE
  8
0
 10
264.678
 11
265.163
 20
102.397
 21
102.372
  0
LINE
  8
0
 10
265.163
 11
265.634
 20
102.372
 21
102.251
  0
LINE
  8
0
 10
265.634
 11
266.07
 20
102.251
 21
102.037
  0
LINE
  8
0
 10
266.07
 11
266.454
 20
102.037
 21
101.74
  0
LINE
  8
0
 10
266.454
 11
266.77
 20
101.74
 21
101.371
  0
LINE
  8
0
 10
266.77
 11
267.005
 20
101.371
 21
100.946
  0
LINE
  8
0
 10
267.005
 11
267.151
 20
100.946
 21
100.483
  0
LINE
  8
0
 10
267.151
 11
267.2
 20
100.483
 21
100
  0
LINE
  8
0
 10
267.2
 11
267.151
 20
100
 21
99.517
  0
LINE
  8
0
 10
267.151
 11
267.005
 20
99.517
 21
99.054
  0
LINE
  8
0
 10
267.005
 11
266.77
 20
99.054
 21
98.629
  0
LINE
  8
0
 10
266.77
 11
266.454
 20
98.629
 21
98.26
  0
LINE
  8
0
 10
266.454
 11
266.07
 20
98.26
 21
97.963
  0
LINE
  8
0
 10
266.07
 11
265.634
 20
97.963
 21
97.749
  0
LINE
  8
0
 10
265.634
 11
265.163
 20
97.749
 21
97.628
  0
LINE
  8
0
 10
265.163
 11
264.678
 20
97.628
 21
97.603
  0
LINE
  8
0
 10
264.678
 11
264.198
 20
97.603
 21
97.677
  0
LINE
  8
0
 10
264.198
 11
263.743
 20
97.677
 21
97.845
  0
LINE
  8
0
 10
263.743
 11
263.331
 20
97.845
 21
98.102
  0
LINE
  8
0
 10
263.331
 11
262.979
 20
98.102
 21
98.437
  0
LINE
  8
0
 10
262.979
 11
262.702
 20
98.437
 21
98.835
  0
LINE
  8
0
 10
262.702
 11
262.51
 20
98.835
 21
99.282
  0
LINE
  8
0
 10
262.51
 11
262.412
 20
99.282
 21
99.757
  0
LINE
  8
0
 10
282.612
 11
282.612
 20
44.757
 21
45.243
  0
LINE
  8
0
 10
282.612
 11
282.71
 20
45.243
 21
45.718
  0
LINE
  8
0
 10
282.71
 11
282.902
 20
45.718
 21
46.165
  0
LINE
  8
0
 10
282.902
 11
283.179
 20
46.165
 21
46.563
  0
LINE
  8
0
 10
283.179
 11
283.531
 20
46.563
 21
46.898
  0
LINE
  8
0
 10
283.531
 11
283.943
 20
46.898
 21
47.155
  0
LINE
  8
0
 10
283.943
 11
284.398
 20
47.155
 21
47.323
  0
LINE
  8
0
 10
284.398
 11
284.878
 20
47.323
 21
47.397
  0
LINE
  8
0
 10
284.878
 11
285.363
 20
47.397
 21
47.372
  0
LINE
  8
0
 10
285.363
 11
285.834
 20
47.372
 21
47.251
  0
LINE
  8
0
 10
285.834
 11
286.27
 20
47.251
 21
47.037
  0
LINE
  8
0
 10
286.27
 11
286.654
 20
47.037
 21
46.74
  0
LINE
  8
0
 10
286.654
 11
286.97
 20
46.74
 21
46.371
  0
LINE
  8
0
 10
286.97
 11
287.205
 20
46.371
 21
45.946
  0
LINE
  8
0
 10
287.205
 11
287.351
 20
45.946
 21
45.483
  0
LINE
  8
0
 10
287.351
 11
287.4
 20
45.483
 21
45
  0
LINE
  8
0
 10
287.4
 11
287.351
 20
45
 21
44.517
  0
LINE
  8
0
 10
287.351
 11
287.205
 20
44.517
 21
44.054
  0
LINE
  8
0
 10
287.205
 11
286.97
 20
44.054
 21
43.629
  0
LINE
  8
0
 10
286.97
 11
286.654
 20
43.629
 21
43.26
  0
LINE
  8
0
 10
286.654
 11
286.27
 20
43.26
 21
42.963
  0
LINE
  8
0
 10
286.27
 11
285.834
 20
42.963
 21
42.749
  0
LINE
  8
0
 10
285.834
 11
285.363
 20
42.749
 21
42.628
  0
LINE
  8
0
 10
285.363
 11
284.878
 20
42.628
 21
42.603
  0
LINE
  8
0
 10
284.878
 11
284.398
 20
42.603
 21
42.677
  0
LINE
  8
0
 10
284.398
 11
283.943
 20
42.677
 21
42.845
  0
LINE
  8
0
 10
283.943
 11
283.531
 20
42.845
 21
43.102
  0
LINE
  8
0
 10
283.531
 11
283.179
 20
43.102
 21
43.437
  0
LINE
  8
0
 10
283.179
 11
282.902
 20
43.437
 21
43.835
  0
LINE
  8
0
 10
282.902
 11
282.71
 20
43.835
 21
44.282
  0
LINE
  8
0
 10
282.71
 11
282.612
 20
44.282
 21
44.757
  0
LINE
  8
0
 10
282.612
 11
282.612
 20
154.757
 21
155.243
  0
LINE
  8
0
 10
282.612
 11
282.71
 20
155.243
 21
155.718
  0
LINE
  8
0
 10
282.71
 11
282.902
 20
155.718
 21
156.165
  0
LINE
  8
0
 10
282.902
 11
283.179
 20
156.165
 21
156.563
  0
LINE
  8
0
 10
283.179
 11
283.531
 20
156.563
 21
156.898
  0
LINE
  8
0
 10
283.531
 11
283.943
 20
156.898
 21
157.155
  0
LINE
  8
0
 10
283.943
 11
284.398
 20
157.155
 21
157.323
  0
LINE
  8
0
 10
284.398
 11
284.878
 20
157.323
 21
157.397
  0
LINE
  8
0
 10
284.878
 11
285.363
 20
157.397
 21
157.372
  0
LINE
  8
0
 10
285.363
 11
285.834
 20
157.372
 21
157.251
  0
LINE
  8
0
 10
285.834
 11
286.27
 20
157.251
 21
157.037
  0
LINE
  8
0
 10
286.27
 11
286.654
 20
157.037
 21
156.74
  0
LINE
  8
0
 10
286.654
 11
286.97
 20
156.74
 21
156.371
  0
LINE
  8
0
 10
286.97
 11
287.205
 20
156.371
 21
155.946
  0
LINE
  8
0
 10
287.205
 11
287.351
 20
155.946
 21
155.483
  0
LINE
  8
0
 10
287.351
 11
287.4
 20
155.483
 21
155
  0
LINE
  8
0
 10
287.4
 11
287.351
 20
155
 21
154.517
  0
LINE
  8
0
 10
287.351
 11
287.205
 20
154.517
 21
154.054
  0
LINE
  8
0
 10
287.205
 11
286.97
 20
154.054
 21
153.629
  0
LINE
  8
0
 10
286.97
 11
286.654
 20
153.629
 21
153.26
  0
LINE
  8
0
 10
286.654
 11
286.27
 20
153.26
 21
152.963
  0
LINE
  8
0
 10
286.27
 11
285.834
 20
152.963
 21
152.749
  0
LINE
  8
0
 10
285.834
 11
285.363
 20
152.749
 21
152.628
  0
LINE
  8
0
 10
285.363
 11
284.878
 20
152.628
 21
152.603
  0
LINE
  8
0
 10
284.878
 11
284.398
 20
152.603
 21
152.677
  0
LINE
  8
0
 10
284.398
 11
283.943
 20
152.677
 21
152.845
  0
LINE
  8
0
 10
283.943
 11
283.531
 20
152.845
 21
153.102
  0
LINE
  8
0
 10
283.531
 11
283.179
 20
153.102
 21
153.437
  0
LINE
  8
0
 10
283.179
 11
282.902
 20
153.437
 21
153.835
  0
LINE
  8
0
 10
282.902
 11
282.71
 20
153.835
 21
154.282
  0
LINE
  8
0
 10
282.71
 11
282.612
 20
154.282
 21
154.757
  0
ENDSEC
  0
SECTION
  2
OBJECTS
  0
DICTIONARY
  0
ENDSEC
  0
EOF
