  0
SECTION
  2
HEADER
  9
$ACADVER
  1
AC1014
  9
$HANDSEED
  5
FFFF
  9
$MEASUREMENT
 70
     1
  0
ENDSEC
  0
SECTION
  2
TABLES
  0
TABLE
  2
VPORT
  5
8
330
0
100
AcDbSymbolTable
 70
     4
  0
VPORT
  5
2E
330
8
100
AcDbSymbolTableRecord
100
AcDbViewportTableRecord
  2
*ACTIVE
 70
     0
 10
0.0
 20
0.0
 11
1.0
 21
1.0
 12
210.0
 22
148.5
 13
0.0
 23
0.0
 14
10.0
 24
10.0
 15
10.0
 25
10.0
 16
0.0
 26
0.0
 36
1.0
 17
0.0
 27
0.0
 37
0.0
 40
341.0
 41
1.24
 42
50.0
 43
0.0
 44
0.0
 50
0.0
 51
0.0
 71
     0
 72
   100
 73
     1
 74
     3
 75
     0
 76
     0
 77
     0
 78
     0
  0
ENDTAB
  0
TABLE
  2
LTYPE
  5
5
330
0
100
AcDbSymbolTable
 70
     1
  0
LTYPE
  5
14
330
5
100
AcDbSymbolTableRecord
100
AcDbLinetypeTableRecord
  2
BYBLOCK
 70
     0
  3

 72
    65
 73
     0
 40
0.0
  0
LTYPE
  5
15
330
5
100
AcDbSymbolTableRecord
100
AcDbLinetypeTableRecord
  2
BYLAYER
 70
     0
  3

 72
    65
 73
     0
 40
0.0
  0
LTYPE
  5
16
330
5
100
AcDbSymbolTableRecord
100
AcDbLinetypeTableRecord
  2
CONTINUOUS
 70
     0
  3
Solid line
 72
    65
 73
     0
 40
0.0
  0
ENDTAB
  0
TABLE
  2
LAYER
  5
2
100
AcDbSymbolTable
 70
2
  0
LAYER
  5
50
100
AcDbSymbolTableRecord
100
AcDbLayerTableRecord
  2
0
 70
0
  6
CONTINUOUS
  0
LAYER
  5
51
100
AcDbSymbolTableRecord
100
AcDbLayerTableRecord
  2
Ebene_1
 70
0
  6
CONTINUOUS
  0
ENDTAB
  0
TABLE
  2
STYLE
  5
3
330
0
100
AcDbSymbolTable
 70
     1
  0
STYLE
  5
11
330
3
100
AcDbSymbolTableRecord
100
AcDbTextStyleTableRecord
  2
STANDARD
 70
     0
 40
0.0
 41
1.0
 50
0.0
 71
     0
 42
2.5
  3
txt
  4

  0
ENDTAB
  0
TABLE
  2
VIEW
  5
6
330
0
100
AcDbSymbolTable
 70
     0
  0
ENDTAB
  0
TABLE
  2
UCS
  5
7
330
0
100
AcDbSymbolTable
 70
     0
  0
ENDTAB
  0
TABLE
  2
APPID
  5
9
330
0
100
AcDbSymbolTable
 70
     2
  0
APPID
  5
12
330
9
100
AcDbSymbolTableRecord
100
AcDbRegAppTableRecord
  2
ACAD
 70
     0
  0
ENDTAB
  0
TABLE
  2
DIMSTYLE
  5
A
330
0
100
AcDbSymbolTable
 70
     1
  0
DIMSTYLE
105
27
330
A
100
AcDbSymbolTableRecord
100
AcDbDimStyleTableRecord
  2
ISO-25
 70
     0
  3

  4

  5

  6

  7

 40
1.0
 41
2.5
 42
0.625
 43
3.75
 44
1.25
 45
0.0
 46
0.0
 47
0.0
 48
0.0
140
2.5
141
2.5
142
0.0
143
0.03937007874016
144
1.0
145
0.0
146
1.0
147
0.625
 71
     0
 72
     0
 73
     0
 74
     0
 75
     0
 76
     0
 77
     1
 78
     8
170
     0
171
     3
172
     1
173
     0
174
     0
175
     0
176
     0
177
     0
178
     0
270
     2
271
     2
272
     2
273
     2
274
     3
340
11
275
     0
280
     0
281
     0
282
     0
283
     0
284
     8
285
     0
286
     0
287
     3
288
     0
  0
ENDTAB
  0
TABLE
  2
BLOCK_RECORD
  5
1
330
0
100
AcDbSymbolTable
 70
     1
  0
BLOCK_RECORD
  5
1F
330
1
100
AcDbSymbolTableRecord
100
AcDbBlockTableRecord
  2
*MODEL_SPACE
  0
BLOCK_RECORD
  5
1B
330
1
100
AcDbSymbolTableRecord
100
AcDbBlockTableRecord
  2
*PAPER_SPACE
  0
ENDTAB
  0
ENDSEC
  0
SECTION
  2
BLOCKS
  0
BLOCK
  5
20
330
1F
100
AcDbEntity
  8
0
100
AcDbBlockBegin
  2
*MODEL_SPACE
 70
     0
 10
0.0
 20
0.0
 30
0.0
  3
*MODEL_SPACE
  1

  0
ENDBLK
  5
21
330
1F
100
AcDbEntity
  8
0
100
AcDbBlockEnd
  0
BLOCK
  5
1C
330
1B
100
AcDbEntity
 67
     1
  8
0
100
AcDbBlockBegin
  2
*PAPER_SPACE
  1

  0
ENDBLK
  5
1D
330
1B
100
AcDbEntity
 67
     1
  8
0
100
AcDbBlockEnd
  0
ENDSEC
  0
SECTION
  2
ENTITIES
  0
LWPOLYLINE
  5
100
100
AcDbEntity
  8
Ebene_1
 62
7
100
AcDbPolyline
 90
49
 70
0
 10
1.252228
 20
4.538218
 30
0.0
 10
1.147160
 20
4.525744
 30
0.0
 10
1.057873
 20
4.488369
 30
0.0
 10
0.984369
 20
4.426077
 30
0.0
 10
0.926646
 20
4.338871
 30
0.0
 10
0.805798
 20
4.073712
 30
0.0
 10
0.702392
 20
3.789864
 30
0.0
 10
0.616430
 20
3.487333
 30
0.0
 10
0.547909
 20
3.166113
 30
0.0
 10
0.523186
 20
3.011004
 30
0.0
 10
0.505547
 20
2.854650
 30
0.0
 10
0.494964
 20
2.697051
 30
0.0
 10
0.491436
 20
2.538205
 30
0.0
 10
0.493412
 20
2.422133
 30
0.0
 10
0.499028
 20
2.306476
 30
0.0
 10
0.508370
 20
2.191236
 30
0.0
 10
0.521465
 20
2.076411
 30
0.0
 10
0.578152
 20
1.715116
 30
0.0
 10
0.651863
 20
1.382059
 30
0.0
 10
0.742603
 20
1.077243
 30
0.0
 10
0.850369
 20
0.800665
 30
0.0
 10
0.927611
 20
0.662582
 30
0.0
 10
1.019804
 20
0.563954
 30
0.0
 10
1.126947
 20
0.504774
 30
0.0
 10
1.249039
 20
0.485047
 30
0.0
 10
1.367395
 20
0.502912
 30
0.0
 10
1.473293
 20
0.556483
 30
0.0
 10
1.566731
 20
0.645770
 30
0.0
 10
1.647712
 20
0.770769
 30
0.0
 10
1.750495
 20
1.001457
 30
0.0
 10
1.839572
 20
1.271600
 30
0.0
 10
1.914946
 20
1.581193
 30
0.0
 10
1.976617
 20
1.930239
 30
0.0
 10
1.996965
 20
2.086799
 30
0.0
 10
2.011499
 20
2.240867
 30
0.0
 10
2.020220
 20
2.392446
 30
0.0
 10
2.023127
 20
2.541533
 30
0.0
 10
2.020220
 20
2.688127
 30
0.0
 10
2.011499
 20
2.832230
 30
0.0
 10
1.996965
 20
2.973841
 30
0.0
 10
1.976617
 20
3.112962
 30
0.0
 10
1.907261
 20
3.452871
 30
0.0
 10
1.818807
 20
3.771598
 30
0.0
 10
1.711249
 20
4.069148
 30
0.0
 10
1.584587
 20
4.345520
 30
0.0
 10
1.526447
 20
4.429820
 30
0.0
 10
1.451697
 20
4.490034
 30
0.0
 10
1.360337
 20
4.526167
 30
0.0
 10
1.252364
 20
4.538218
 30
0.0
  0
LWPOLYLINE
  5
101
100
AcDbEntity
  8
Ebene_1
 62
7
100
AcDbPolyline
 90
49
 70
0
 10
1.268987
 20
5.016622
 30
0.0
 10
1.483064
 20
4.994608
 30
0.0
 10
1.670146
 20
4.928577
 30
0.0
 10
1.830239
 20
4.818527
 30
0.0
 10
1.963338
 20
4.664459
 30
0.0
 10
2.133603
 20
4.366077
 30
0.0
 10
2.275628
 20
4.012464
 30
0.0
 10
2.389415
 20
3.603620
 30
0.0
 10
2.474965
 20
3.139545
 30
0.0
 10
2.493874
 20
2.991288
 30
0.0
 10
2.507364
 20
2.842201
 30
0.0
 10
2.515464
 20
2.692282
 30
0.0
 10
2.518286
 20
2.541536
 30
0.0
 10
2.515379
 20
2.382275
 30
0.0
 10
2.506658
 20
2.223429
 30
0.0
 10
2.492124
 20
2.064998
 30
0.0
 10
2.471776
 20
1.906984
 30
0.0
 10
2.387264
 20
1.445190
 30
0.0
 10
2.276591
 20
1.036552
 30
0.0
 10
2.139758
 20
0.681070
 30
0.0
 10
1.976761
 20
0.378745
 30
0.0
 10
1.840961
 20
0.213050
 30
0.0
 10
1.676092
 20
0.094694
 30
0.0
 10
1.482158
 20
0.023679
 30
0.0
 10
1.259151
 20
0.000000
 30
0.0
 10
1.038637
 20
0.024497
 30
0.0
 10
0.845529
 20
0.098002
 30
0.0
 10
0.679831
 20
0.220509
 30
0.0
 10
0.541542
 20
0.392021
 30
0.0
 10
0.396401
 20
0.665068
 30
0.0
 10
0.266627
 20
1.005809
 30
0.0
 10
0.152217
 20
1.414238
 30
0.0
 10
0.053171
 20
1.890359
 30
0.0
 10
0.029916
 20
2.039030
 30
0.0
 10
0.013293
 20
2.189362
 30
0.0
 10
0.003330
 20
2.341355
 30
0.0
 10
-0.000000
 20
2.495011
 30
0.0
 10
0.003528
 20
2.656346
 30
0.0
 10
0.014111
 20
2.818099
 30
0.0
 10
0.031750
 20
2.980267
 30
0.0
 10
0.056473
 20
3.142852
 30
0.0
 10
0.151158
 20
3.614403
 30
0.0
 10
0.259131
 20
4.015771
 30
0.0
 10
0.380393
 20
4.346959
 30
0.0
 10
0.514945
 20
4.607967
 30
0.0
 10
0.656762
 20
4.786743
 30
0.0
 10
0.829728
 20
4.914443
 30
0.0
 10
1.033839
 20
4.991064
 30
0.0
 10
1.269100
 20
5.016605
 30
0.0
  0
ENDSEC
  0
SECTION
  2
OBJECTS
  0
DICTIONARY
  5
C
330
0
100
AcDbDictionary
  3
ACAD_GROUP
350
D
  3
ACAD_MLINESTYLE
350
17
  0
DICTIONARY
  5
D
330
C
100
AcDbDictionary
  0
DICTIONARY
  5
1A
330
C
100
AcDbDictionary
  0
DICTIONARY
  5
17
330
C
100
AcDbDictionary
  3
STANDARD
350
18
  0
DICTIONARY
  5
19
330
C
100
AcDbDictionary
  0
ENDSEC
  0
EOF
