  0
SECTION
  2
HEADER
  9
$ACADVER
  1
AC1014
  9
$HANDSEED
  5
FFFF
  9
$MEASUREMENT
 70
     1
  0
ENDSEC
  0
SECTION
  2
TABLES
  0
TABLE
  2
VPORT
  5
8
330
0
100
AcDbSymbolTable
 70
     4
  0
VPORT
  5
2E
330
8
100
AcDbSymbolTableRecord
100
AcDbViewportTableRecord
  2
*ACTIVE
 70
     0
 10
0.0
 20
0.0
 11
1.0
 21
1.0
 12
210.0
 22
148.5
 13
0.0
 23
0.0
 14
10.0
 24
10.0
 15
10.0
 25
10.0
 16
0.0
 26
0.0
 36
1.0
 17
0.0
 27
0.0
 37
0.0
 40
341.0
 41
1.24
 42
50.0
 43
0.0
 44
0.0
 50
0.0
 51
0.0
 71
     0
 72
   100
 73
     1
 74
     3
 75
     0
 76
     0
 77
     0
 78
     0
  0
ENDTAB
  0
TABLE
  2
LTYPE
  5
5
330
0
100
AcDbSymbolTable
 70
     1
  0
LTYPE
  5
14
330
5
100
AcDbSymbolTableRecord
100
AcDbLinetypeTableRecord
  2
BYBLOCK
 70
     0
  3

 72
    65
 73
     0
 40
0.0
  0
LTYPE
  5
15
330
5
100
AcDbSymbolTableRecord
100
AcDbLinetypeTableRecord
  2
BYLAYER
 70
     0
  3

 72
    65
 73
     0
 40
0.0
  0
LTYPE
  5
16
330
5
100
AcDbSymbolTableRecord
100
AcDbLinetypeTableRecord
  2
CONTINUOUS
 70
     0
  3
Solid line
 72
    65
 73
     0
 40
0.0
  0
ENDTAB
  0
TABLE
  2
LAYER
  5
2
100
AcDbSymbolTable
 70
2
  0
LAYER
  5
50
100
AcDbSymbolTableRecord
100
AcDbLayerTableRecord
  2
0
 70
0
  6
CONTINUOUS
  0
LAYER
  5
51
100
AcDbSymbolTableRecord
100
AcDbLayerTableRecord
  2
Ebene_1
 70
0
  6
CONTINUOUS
  0
ENDTAB
  0
TABLE
  2
STYLE
  5
3
330
0
100
AcDbSymbolTable
 70
     1
  0
STYLE
  5
11
330
3
100
AcDbSymbolTableRecord
100
AcDbTextStyleTableRecord
  2
STANDARD
 70
     0
 40
0.0
 41
1.0
 50
0.0
 71
     0
 42
2.5
  3
txt
  4

  0
ENDTAB
  0
TABLE
  2
VIEW
  5
6
330
0
100
AcDbSymbolTable
 70
     0
  0
ENDTAB
  0
TABLE
  2
UCS
  5
7
330
0
100
AcDbSymbolTable
 70
     0
  0
ENDTAB
  0
TABLE
  2
APPID
  5
9
330
0
100
AcDbSymbolTable
 70
     2
  0
APPID
  5
12
330
9
100
AcDbSymbolTableRecord
100
AcDbRegAppTableRecord
  2
ACAD
 70
     0
  0
ENDTAB
  0
TABLE
  2
DIMSTYLE
  5
A
330
0
100
AcDbSymbolTable
 70
     1
  0
DIMSTYLE
105
27
330
A
100
AcDbSymbolTableRecord
100
AcDbDimStyleTableRecord
  2
ISO-25
 70
     0
  3

  4

  5

  6

  7

 40
1.0
 41
2.5
 42
0.625
 43
3.75
 44
1.25
 45
0.0
 46
0.0
 47
0.0
 48
0.0
140
2.5
141
2.5
142
0.0
143
0.03937007874016
144
1.0
145
0.0
146
1.0
147
0.625
 71
     0
 72
     0
 73
     0
 74
     0
 75
     0
 76
     0
 77
     1
 78
     8
170
     0
171
     3
172
     1
173
     0
174
     0
175
     0
176
     0
177
     0
178
     0
270
     2
271
     2
272
     2
273
     2
274
     3
340
11
275
     0
280
     0
281
     0
282
     0
283
     0
284
     8
285
     0
286
     0
287
     3
288
     0
  0
ENDTAB
  0
TABLE
  2
BLOCK_RECORD
  5
1
330
0
100
AcDbSymbolTable
 70
     1
  0
BLOCK_RECORD
  5
1F
330
1
100
AcDbSymbolTableRecord
100
AcDbBlockTableRecord
  2
*MODEL_SPACE
  0
BLOCK_RECORD
  5
1B
330
1
100
AcDbSymbolTableRecord
100
AcDbBlockTableRecord
  2
*PAPER_SPACE
  0
ENDTAB
  0
ENDSEC
  0
SECTION
  2
BLOCKS
  0
BLOCK
  5
20
330
1F
100
AcDbEntity
  8
0
100
AcDbBlockBegin
  2
*MODEL_SPACE
 70
     0
 10
0.0
 20
0.0
 30
0.0
  3
*MODEL_SPACE
  1

  0
ENDBLK
  5
21
330
1F
100
AcDbEntity
  8
0
100
AcDbBlockEnd
  0
BLOCK
  5
1C
330
1B
100
AcDbEntity
 67
     1
  8
0
100
AcDbBlockBegin
  2
*PAPER_SPACE
  1

  0
ENDBLK
  5
1D
330
1B
100
AcDbEntity
 67
     1
  8
0
100
AcDbBlockEnd
  0
ENDSEC
  0
SECTION
  2
ENTITIES
  0
LWPOLYLINE
  5
100
100
AcDbEntity
  8
Ebene_1
 62
7
100
AcDbPolyline
 90
81
 70
0
 10
0.258278
 20
3.771544
 30
0.0
 10
0.145282
 20
3.786022
 30
0.0
 10
0.064570
 20
3.829482
 30
0.0
 10
0.016143
 20
3.901917
 30
0.0
 10
0.000000
 20
4.003325
 30
0.0
 10
0.003725
 20
4.042644
 30
0.0
 10
0.014901
 20
4.087760
 30
0.0
 10
0.033528
 20
4.138670
 30
0.0
 10
0.059605
 20
4.195377
 30
0.0
 10
0.167840
 20
4.385979
 30
0.0
 10
0.283941
 20
4.547195
 30
0.0
 10
0.407907
 20
4.679027
 30
0.0
 10
0.539736
 20
4.781471
 30
0.0
 10
0.710887
 20
4.877082
 30
0.0
 10
0.886590
 20
4.945374
 30
0.0
 10
1.066848
 20
4.986353
 30
0.0
 10
1.251658
 20
5.000012
 30
0.0
 10
1.549256
 20
4.970001
 30
0.0
 10
1.812914
 20
4.879975
 30
0.0
 10
2.042631
 20
4.729934
 30
0.0
 10
2.238412
 20
4.519879
 30
0.0
 10
2.352856
 20
4.341069
 30
0.0
 10
2.434601
 20
4.155637
 30
0.0
 10
2.483649
 20
3.963585
 30
0.0
 10
2.499989
 20
3.764912
 30
0.0
 10
2.486330
 20
3.587758
 30
0.0
 10
2.445351
 20
3.410604
 30
0.0
 10
2.377059
 20
3.233454
 30
0.0
 10
2.281448
 20
3.056303
 30
0.0
 10
1.879958
 20
2.408123
 30
0.0
 10
1.478466
 20
1.759946
 30
0.0
 10
1.076977
 20
1.111766
 30
0.0
 10
0.675488
 20
0.463586
 30
0.0
 10
1.067872
 20
0.463586
 30
0.0
 10
1.460254
 20
0.463586
 30
0.0
 10
1.852639
 20
0.463586
 30
0.0
 10
2.245024
 20
0.463586
 30
0.0
 10
2.353674
 20
0.448064
 30
0.0
 10
2.431280
 20
0.401500
 30
0.0
 10
2.477846
 20
0.323892
 30
0.0
 10
2.493368
 20
0.215242
 30
0.0
 10
2.476407
 20
0.121079
 30
0.0
 10
2.425497
 20
0.053819
 30
0.0
 10
2.340647
 20
0.013462
 30
0.0
 10
2.221857
 20
-0.000000
 30
0.0
 10
1.740896
 20
-0.000000
 30
0.0
 10
1.259936
 20
-0.000000
 30
0.0
 10
0.778976
 20
-0.000000
 30
0.0
 10
0.298015
 20
-0.000000
 30
0.0
 10
0.169082
 20
0.013236
 30
0.0
 10
0.076987
 20
0.052973
 30
0.0
 10
0.021731
 20
0.119196
 30
0.0
 10
0.003302
 20
0.211912
 30
0.0
 10
0.006124
 20
0.256822
 30
0.0
 10
0.014196
 20
0.298834
 30
0.0
 10
0.027658
 20
0.337947
 30
0.0
 10
0.046510
 20
0.374164
 30
0.0
 10
0.491874
 20
1.091881
 30
0.0
 10
0.937237
 20
1.809594
 30
0.0
 10
1.382601
 20
2.527311
 30
0.0
 10
1.827965
 20
3.245025
 30
0.0
 10
1.907642
 20
3.388027
 30
0.0
 10
1.964555
 20
3.522339
 30
0.0
 10
1.998701
 20
3.647962
 30
0.0
 10
2.010074
 20
3.764892
 30
0.0
 10
1.998701
 20
3.902721
 30
0.0
 10
1.964555
 20
4.031445
 30
0.0
 10
1.907642
 20
4.151065
 30
0.0
 10
1.827965
 20
4.261581
 30
0.0
 10
1.707724
 20
4.374574
 30
0.0
 10
1.568856
 20
4.455287
 30
0.0
 10
1.411365
 20
4.503713
 30
0.0
 10
1.235250
 20
4.519856
 30
0.0
 10
1.016087
 20
4.485913
 30
0.0
 10
0.818859
 20
4.384091
 30
0.0
 10
0.643571
 20
4.214390
 30
0.0
 10
0.490217
 20
3.976810
 30
0.0
 10
0.434755
 20
3.886990
 30
0.0
 10
0.377633
 20
3.822832
 30
0.0
 10
0.318857
 20
3.784340
 30
0.0
 10
0.258428
 20
3.771499
 30
0.0
  0
ENDSEC
  0
SECTION
  2
OBJECTS
  0
DICTIONARY
  5
C
330
0
100
AcDbDictionary
  3
ACAD_GROUP
350
D
  3
ACAD_MLINESTYLE
350
17
  0
DICTIONARY
  5
D
330
C
100
AcDbDictionary
  0
DICTIONARY
  5
1A
330
C
100
AcDbDictionary
  0
DICTIONARY
  5
17
330
C
100
AcDbDictionary
  3
STANDARD
350
18
  0
DICTIONARY
  5
19
330
C
100
AcDbDictionary
  0
ENDSEC
  0
EOF
