  0
SECTION
  2
HEADER
  9
$ACADVER
  1
AC1014
  9
$HANDSEED
  5
FFFF
  9
$MEASUREMENT
 70
     1
  0
ENDSEC
  0
SECTION
  2
TABLES
  0
TABLE
  2
VPORT
  5
8
330
0
100
AcDbSymbolTable
 70
     4
  0
VPORT
  5
2E
330
8
100
AcDbSymbolTableRecord
100
AcDbViewportTableRecord
  2
*ACTIVE
 70
     0
 10
0.0
 20
0.0
 11
1.0
 21
1.0
 12
210.0
 22
148.5
 13
0.0
 23
0.0
 14
10.0
 24
10.0
 15
10.0
 25
10.0
 16
0.0
 26
0.0
 36
1.0
 17
0.0
 27
0.0
 37
0.0
 40
341.0
 41
1.24
 42
50.0
 43
0.0
 44
0.0
 50
0.0
 51
0.0
 71
     0
 72
   100
 73
     1
 74
     3
 75
     0
 76
     0
 77
     0
 78
     0
  0
ENDTAB
  0
TABLE
  2
LTYPE
  5
5
330
0
100
AcDbSymbolTable
 70
     1
  0
LTYPE
  5
14
330
5
100
AcDbSymbolTableRecord
100
AcDbLinetypeTableRecord
  2
BYBLOCK
 70
     0
  3

 72
    65
 73
     0
 40
0.0
  0
LTYPE
  5
15
330
5
100
AcDbSymbolTableRecord
100
AcDbLinetypeTableRecord
  2
BYLAYER
 70
     0
  3

 72
    65
 73
     0
 40
0.0
  0
LTYPE
  5
16
330
5
100
AcDbSymbolTableRecord
100
AcDbLinetypeTableRecord
  2
CONTINUOUS
 70
     0
  3
Solid line
 72
    65
 73
     0
 40
0.0
  0
ENDTAB
  0
TABLE
  2
LAYER
  5
2
100
AcDbSymbolTable
 70
2
  0
LAYER
  5
50
100
AcDbSymbolTableRecord
100
AcDbLayerTableRecord
  2
0
 70
0
  6
CONTINUOUS
  0
LAYER
  5
51
100
AcDbSymbolTableRecord
100
AcDbLayerTableRecord
  2
Ebene_1
 70
0
  6
CONTINUOUS
  0
ENDTAB
  0
TABLE
  2
STYLE
  5
3
330
0
100
AcDbSymbolTable
 70
     1
  0
STYLE
  5
11
330
3
100
AcDbSymbolTableRecord
100
AcDbTextStyleTableRecord
  2
STANDARD
 70
     0
 40
0.0
 41
1.0
 50
0.0
 71
     0
 42
2.5
  3
txt
  4

  0
ENDTAB
  0
TABLE
  2
VIEW
  5
6
330
0
100
AcDbSymbolTable
 70
     0
  0
ENDTAB
  0
TABLE
  2
UCS
  5
7
330
0
100
AcDbSymbolTable
 70
     0
  0
ENDTAB
  0
TABLE
  2
APPID
  5
9
330
0
100
AcDbSymbolTable
 70
     2
  0
APPID
  5
12
330
9
100
AcDbSymbolTableRecord
100
AcDbRegAppTableRecord
  2
ACAD
 70
     0
  0
ENDTAB
  0
TABLE
  2
DIMSTYLE
  5
A
330
0
100
AcDbSymbolTable
 70
     1
  0
DIMSTYLE
105
27
330
A
100
AcDbSymbolTableRecord
100
AcDbDimStyleTableRecord
  2
ISO-25
 70
     0
  3

  4

  5

  6

  7

 40
1.0
 41
2.5
 42
0.625
 43
3.75
 44
1.25
 45
0.0
 46
0.0
 47
0.0
 48
0.0
140
2.5
141
2.5
142
0.0
143
0.03937007874016
144
1.0
145
0.0
146
1.0
147
0.625
 71
     0
 72
     0
 73
     0
 74
     0
 75
     0
 76
     0
 77
     1
 78
     8
170
     0
171
     3
172
     1
173
     0
174
     0
175
     0
176
     0
177
     0
178
     0
270
     2
271
     2
272
     2
273
     2
274
     3
340
11
275
     0
280
     0
281
     0
282
     0
283
     0
284
     8
285
     0
286
     0
287
     3
288
     0
  0
ENDTAB
  0
TABLE
  2
BLOCK_RECORD
  5
1
330
0
100
AcDbSymbolTable
 70
     1
  0
BLOCK_RECORD
  5
1F
330
1
100
AcDbSymbolTableRecord
100
AcDbBlockTableRecord
  2
*MODEL_SPACE
  0
BLOCK_RECORD
  5
1B
330
1
100
AcDbSymbolTableRecord
100
AcDbBlockTableRecord
  2
*PAPER_SPACE
  0
ENDTAB
  0
ENDSEC
  0
SECTION
  2
BLOCKS
  0
BLOCK
  5
20
330
1F
100
AcDbEntity
  8
0
100
AcDbBlockBegin
  2
*MODEL_SPACE
 70
     0
 10
0.0
 20
0.0
 30
0.0
  3
*MODEL_SPACE
  1

  0
ENDBLK
  5
21
330
1F
100
AcDbEntity
  8
0
100
AcDbBlockEnd
  0
BLOCK
  5
1C
330
1B
100
AcDbEntity
 67
     1
  8
0
100
AcDbBlockBegin
  2
*PAPER_SPACE
  1

  0
ENDBLK
  5
1D
330
1B
100
AcDbEntity
 67
     1
  8
0
100
AcDbBlockEnd
  0
ENDSEC
  0
SECTION
  2
ENTITIES
  0
LWPOLYLINE
  5
100
100
AcDbEntity
  8
Ebene_1
 62
7
100
AcDbPolyline
 90
97
 70
0
 10
0.000000
 20
4.764137
 30
0.0
 10
0.018062
 20
4.874599
 30
0.0
 10
0.072255
 20
4.953503
 30
0.0
 10
0.162580
 20
5.000845
 30
0.0
 10
0.289032
 20
5.016622
 30
0.0
 10
0.411124
 20
5.016619
 30
0.0
 10
0.777404
 20
5.016619
 30
0.0
 10
1.387870
 20
5.016619
 30
0.0
 10
2.242521
 20
5.016622
 30
0.0
 10
2.363160
 20
5.001664
 30
0.0
 10
2.449330
 20
4.956813
 30
0.0
 10
2.501034
 20
4.882061
 30
0.0
 10
2.518277
 20
4.777413
 30
0.0
 10
2.501880
 20
4.672759
 30
0.0
 10
2.452669
 20
4.598007
 30
0.0
 10
2.370653
 20
4.553159
 30
0.0
 10
2.255828
 20
4.538201
 30
0.0
 10
1.813966
 20
4.538201
 30
0.0
 10
1.372105
 20
4.538201
 30
0.0
 10
0.930247
 20
4.538201
 30
0.0
 10
0.488386
 20
4.538201
 30
0.0
 10
0.488386
 20
4.153651
 30
0.0
 10
0.488386
 20
3.769098
 30
0.0
 10
0.488386
 20
3.384545
 30
0.0
 10
0.488386
 20
2.999994
 30
0.0
 10
0.672770
 20
2.999994
 30
0.0
 10
0.857157
 20
2.999994
 30
0.0
 10
1.041541
 20
2.999994
 30
0.0
 10
1.225928
 20
2.999994
 30
0.0
 10
1.530742
 20
2.970093
 30
0.0
 10
1.803998
 20
2.880391
 30
0.0
 10
2.045693
 20
2.730890
 30
0.0
 10
2.255828
 20
2.521588
 30
0.0
 10
2.369199
 20
2.354228
 30
0.0
 10
2.450177
 20
2.171088
 30
0.0
 10
2.498767
 20
1.972169
 30
0.0
 10
2.514967
 20
1.757469
 30
0.0
 10
2.514967
 20
1.623749
 30
0.0
 10
2.514967
 20
1.490029
 30
0.0
 10
2.514967
 20
1.356307
 30
0.0
 10
2.514967
 20
1.222587
 30
0.0
 10
2.492333
 20
0.969055
 30
0.0
 10
2.424433
 20
0.740026
 30
0.0
 10
2.311267
 20
0.535500
 30
0.0
 10
2.152839
 20
0.355476
 30
0.0
 10
1.956824
 20
0.199952
 30
0.0
 10
1.750845
 20
0.088866
 30
0.0
 10
1.534897
 20
0.022211
 30
0.0
 10
1.308986
 20
0.000000
 30
0.0
 10
1.049850
 20
0.000000
 30
0.0
 10
0.790713
 20
0.000000
 30
0.0
 10
0.531577
 20
0.000000
 30
0.0
 10
0.272440
 20
0.000000
 30
0.0
 10
0.160522
 20
0.014535
 30
0.0
 10
0.080580
 20
0.058138
 30
0.0
 10
0.032616
 20
0.130813
 30
0.0
 10
0.016643
 20
0.232557
 30
0.0
 10
0.034084
 20
0.335754
 30
0.0
 10
0.086408
 20
0.409468
 30
0.0
 10
0.173617
 20
0.453695
 30
0.0
 10
0.295712
 20
0.468427
 30
0.0
 10
0.526610
 20
0.468427
 30
0.0
 10
0.757504
 20
0.468427
 30
0.0
 10
0.988401
 20
0.468427
 30
0.0
 10
1.219299
 20
0.468427
 30
0.0
 10
1.416349
 20
0.486292
 30
0.0
 10
1.588900
 20
0.539863
 30
0.0
 10
1.736948
 20
0.629150
 30
0.0
 10
1.860496
 20
0.754149
 30
0.0
 10
1.933169
 20
0.865237
 30
0.0
 10
1.985078
 20
0.985876
 30
0.0
 10
2.016227
 20
1.116068
 30
0.0
 10
2.026612
 20
1.255810
 30
0.0
 10
2.026612
 20
1.381227
 30
0.0
 10
2.026612
 20
1.506641
 30
0.0
 10
2.026612
 20
1.632058
 30
0.0
 10
2.026612
 20
1.757471
 30
0.0
 10
2.014364
 20
1.901989
 30
0.0
 10
1.977610
 20
2.036541
 30
0.0
 10
1.916357
 20
2.161125
 30
0.0
 10
1.830601
 20
2.275744
 30
0.0
 10
1.706428
 20
2.383302
 30
0.0
 10
1.553190
 20
2.460129
 30
0.0
 10
1.370880
 20
2.506224
 30
0.0
 10
1.159504
 20
2.521577
 30
0.0
 10
0.930269
 20
2.521577
 30
0.0
 10
0.701032
 20
2.521577
 30
0.0
 10
0.471797
 20
2.521577
 30
0.0
 10
0.242562
 20
2.521577
 30
0.0
 10
0.136457
 20
2.539216
 30
0.0
 10
0.060666
 20
2.592166
 30
0.0
 10
0.015195
 20
2.680414
 30
0.0
 10
0.000040
 20
2.803963
 30
0.0
 10
0.000040
 20
3.293996
 30
0.0
 10
0.000040
 20
3.784030
 30
0.0
 10
0.000040
 20
4.274061
 30
0.0
 10
0.000040
 20
4.764095
 30
0.0
  0
ENDSEC
  0
SECTION
  2
OBJECTS
  0
DICTIONARY
  5
C
330
0
100
AcDbDictionary
  3
ACAD_GROUP
350
D
  3
ACAD_MLINESTYLE
350
17
  0
DICTIONARY
  5
D
330
C
100
AcDbDictionary
  0
DICTIONARY
  5
1A
330
C
100
AcDbDictionary
  0
DICTIONARY
  5
17
330
C
100
AcDbDictionary
  3
STANDARD
350
18
  0
DICTIONARY
  5
19
330
C
100
AcDbDictionary
  0
ENDSEC
  0
EOF
