  0
SECTION
  2
HEADER
  9
$ACADVER
  1
AC1014
  9
$HANDSEED
  5
FFFF
  9
$MEASUREMENT
 70
     1
  0
ENDSEC
  0
SECTION
  2
TABLES
  0
TABLE
  2
VPORT
  5
8
330
0
100
AcDbSymbolTable
 70
     4
  0
VPORT
  5
2E
330
8
100
AcDbSymbolTableRecord
100
AcDbViewportTableRecord
  2
*ACTIVE
 70
     0
 10
0.0
 20
0.0
 11
1.0
 21
1.0
 12
210.0
 22
148.5
 13
0.0
 23
0.0
 14
10.0
 24
10.0
 15
10.0
 25
10.0
 16
0.0
 26
0.0
 36
1.0
 17
0.0
 27
0.0
 37
0.0
 40
341.0
 41
1.24
 42
50.0
 43
0.0
 44
0.0
 50
0.0
 51
0.0
 71
     0
 72
   100
 73
     1
 74
     3
 75
     0
 76
     0
 77
     0
 78
     0
  0
ENDTAB
  0
TABLE
  2
LTYPE
  5
5
330
0
100
AcDbSymbolTable
 70
     1
  0
LTYPE
  5
14
330
5
100
AcDbSymbolTableRecord
100
AcDbLinetypeTableRecord
  2
BYBLOCK
 70
     0
  3

 72
    65
 73
     0
 40
0.0
  0
LTYPE
  5
15
330
5
100
AcDbSymbolTableRecord
100
AcDbLinetypeTableRecord
  2
BYLAYER
 70
     0
  3

 72
    65
 73
     0
 40
0.0
  0
LTYPE
  5
16
330
5
100
AcDbSymbolTableRecord
100
AcDbLinetypeTableRecord
  2
CONTINUOUS
 70
     0
  3
Solid line
 72
    65
 73
     0
 40
0.0
  0
ENDTAB
  0
TABLE
  2
LAYER
  5
2
100
AcDbSymbolTable
 70
2
  0
LAYER
  5
50
100
AcDbSymbolTableRecord
100
AcDbLayerTableRecord
  2
0
 70
0
  6
CONTINUOUS
  0
LAYER
  5
51
100
AcDbSymbolTableRecord
100
AcDbLayerTableRecord
  2
Ebene_1
 70
0
  6
CONTINUOUS
  0
ENDTAB
  0
TABLE
  2
STYLE
  5
3
330
0
100
AcDbSymbolTable
 70
     1
  0
STYLE
  5
11
330
3
100
AcDbSymbolTableRecord
100
AcDbTextStyleTableRecord
  2
STANDARD
 70
     0
 40
0.0
 41
1.0
 50
0.0
 71
     0
 42
2.5
  3
txt
  4

  0
ENDTAB
  0
TABLE
  2
VIEW
  5
6
330
0
100
AcDbSymbolTable
 70
     0
  0
ENDTAB
  0
TABLE
  2
UCS
  5
7
330
0
100
AcDbSymbolTable
 70
     0
  0
ENDTAB
  0
TABLE
  2
APPID
  5
9
330
0
100
AcDbSymbolTable
 70
     2
  0
APPID
  5
12
330
9
100
AcDbSymbolTableRecord
100
AcDbRegAppTableRecord
  2
ACAD
 70
     0
  0
ENDTAB
  0
TABLE
  2
DIMSTYLE
  5
A
330
0
100
AcDbSymbolTable
 70
     1
  0
DIMSTYLE
105
27
330
A
100
AcDbSymbolTableRecord
100
AcDbDimStyleTableRecord
  2
ISO-25
 70
     0
  3

  4

  5

  6

  7

 40
1.0
 41
2.5
 42
0.625
 43
3.75
 44
1.25
 45
0.0
 46
0.0
 47
0.0
 48
0.0
140
2.5
141
2.5
142
0.0
143
0.03937007874016
144
1.0
145
0.0
146
1.0
147
0.625
 71
     0
 72
     0
 73
     0
 74
     0
 75
     0
 76
     0
 77
     1
 78
     8
170
     0
171
     3
172
     1
173
     0
174
     0
175
     0
176
     0
177
     0
178
     0
270
     2
271
     2
272
     2
273
     2
274
     3
340
11
275
     0
280
     0
281
     0
282
     0
283
     0
284
     8
285
     0
286
     0
287
     3
288
     0
  0
ENDTAB
  0
TABLE
  2
BLOCK_RECORD
  5
1
330
0
100
AcDbSymbolTable
 70
     1
  0
BLOCK_RECORD
  5
1F
330
1
100
AcDbSymbolTableRecord
100
AcDbBlockTableRecord
  2
*MODEL_SPACE
  0
BLOCK_RECORD
  5
1B
330
1
100
AcDbSymbolTableRecord
100
AcDbBlockTableRecord
  2
*PAPER_SPACE
  0
ENDTAB
  0
ENDSEC
  0
SECTION
  2
BLOCKS
  0
BLOCK
  5
20
330
1F
100
AcDbEntity
  8
0
100
AcDbBlockBegin
  2
*MODEL_SPACE
 70
     0
 10
0.0
 20
0.0
 30
0.0
  3
*MODEL_SPACE
  1

  0
ENDBLK
  5
21
330
1F
100
AcDbEntity
  8
0
100
AcDbBlockEnd
  0
BLOCK
  5
1C
330
1B
100
AcDbEntity
 67
     1
  8
0
100
AcDbBlockBegin
  2
*PAPER_SPACE
  1

  0
ENDBLK
  5
1D
330
1B
100
AcDbEntity
 67
     1
  8
0
100
AcDbBlockEnd
  0
ENDSEC
  0
SECTION
  2
ENTITIES
  0
LWPOLYLINE
  5
100
100
AcDbEntity
  8
Ebene_1
 62
7
100
AcDbPolyline
 90
65
 70
0
 10
0.467817
 20
3.153096
 30
0.0
 10
0.509775
 20
3.153094
 30
0.0
 10
0.635649
 20
3.153094
 30
0.0
 10
0.845436
 20
3.153094
 30
0.0
 10
1.139142
 20
3.153096
 30
0.0
 10
1.383673
 20
3.129362
 30
0.0
 10
1.606942
 20
3.058165
 30
0.0
 10
1.808948
 20
2.939508
 30
0.0
 10
1.989689
 20
2.773386
 30
0.0
 10
2.119929
 20
2.605173
 30
0.0
 10
2.212955
 20
2.431646
 30
0.0
 10
2.268773
 20
2.252805
 30
0.0
 10
2.287372
 20
2.068646
 30
0.0
 10
2.287369
 20
2.030295
 30
0.0
 10
2.287369
 20
1.915244
 30
0.0
 10
2.287369
 20
1.723491
 30
0.0
 10
2.287372
 20
1.455039
 30
0.0
 10
2.263637
 20
1.260627
 30
0.0
 10
2.192441
 20
1.069255
 30
0.0
 10
2.073783
 20
0.880920
 30
0.0
 10
1.907661
 20
0.695621
 30
0.0
 10
1.746854
 20
0.572027
 30
0.0
 10
1.556049
 20
0.483746
 30
0.0
 10
1.335250
 20
0.430775
 30
0.0
 10
1.084453
 20
0.413108
 30
0.0
 10
0.876373
 20
0.433231
 30
0.0
 10
0.680443
 20
0.493604
 30
0.0
 10
0.496666
 20
0.594224
 30
0.0
 10
0.325038
 20
0.735098
 30
0.0
 10
0.182838
 20
0.898561
 30
0.0
 10
0.081263
 20
1.073037
 30
0.0
 10
0.020320
 20
1.258525
 30
0.0
 10
-0.000000
 20
1.455025
 30
0.0
 10
-0.000000
 20
1.851440
 30
0.0
 10
-0.000000
 20
2.247857
 30
0.0
 10
-0.000000
 20
2.644272
 30
0.0
 10
-0.000000
 20
3.040687
 30
0.0
 10
0.033226
 20
3.382614
 30
0.0
 10
0.132898
 20
3.715805
 30
0.0
 10
0.299023
 20
4.040268
 30
0.0
 10
0.531594
 20
4.355998
 30
0.0
 10
0.707398
 20
4.535596
 30
0.0
 10
0.909780
 20
4.694693
 30
0.0
 10
1.138744
 20
4.833290
 30
0.0
 10
1.394291
 20
4.951380
 30
0.0
 10
1.452764
 20
4.972631
 30
0.0
 10
1.506683
 20
4.987815
 30
0.0
 10
1.556044
 20
4.996930
 30
0.0
 10
1.600852
 20
4.999978
 30
0.0
 10
1.696537
 20
4.985162
 30
0.0
 10
1.764882
 20
4.940737
 30
0.0
 10
1.805892
 20
4.866693
 30
0.0
 10
1.819552
 20
4.763036
 30
0.0
 10
1.807585
 20
4.697724
 30
0.0
 10
1.771704
 20
4.641528
 30
0.0
 10
1.711901
 20
4.594445
 30
0.0
 10
1.628177
 20
4.556475
 30
0.0
 10
1.425411
 20
4.475974
 30
0.0
 10
1.245427
 20
4.383326
 30
0.0
 10
1.088229
 20
4.278525
 30
0.0
 10
0.953815
 20
4.161578
 30
0.0
 10
0.766239
 20
3.942483
 30
0.0
 10
0.622706
 20
3.701370
 30
0.0
 10
0.523223
 20
3.438231
 30
0.0
 10
0.467786
 20
3.153071
 30
0.0
  0
LWPOLYLINE
  5
101
100
AcDbEntity
  8
Ebene_1
 62
7
100
AcDbPolyline
 90
37
 70
0
 10
0.434374
 20
1.500581
 30
0.0
 10
0.450319
 20
1.371670
 30
0.0
 10
0.498162
 20
1.246177
 30
0.0
 10
0.577901
 20
1.124099
 30
0.0
 10
0.689537
 20
1.005442
 30
0.0
 10
0.785413
 20
0.933675
 30
0.0
 10
0.893820
 20
0.882415
 30
0.0
 10
1.014755
 20
0.851659
 30
0.0
 10
1.148224
 20
0.841414
 30
0.0
 10
1.259098
 20
0.854904
 30
0.0
 10
1.379087
 20
0.895344
 30
0.0
 10
1.508187
 20
0.962742
 30
0.0
 10
1.646403
 20
1.057100
 30
0.0
 10
1.734114
 20
1.142534
 30
0.0
 10
1.796765
 20
1.246953
 30
0.0
 10
1.834357
 20
1.370358
 30
0.0
 10
1.846888
 20
1.512750
 30
0.0
 10
1.846888
 20
1.628182
 30
0.0
 10
1.846888
 20
1.743614
 30
0.0
 10
1.846888
 20
1.859043
 30
0.0
 10
1.846888
 20
1.974474
 30
0.0
 10
1.833990
 20
2.119903
 30
0.0
 10
1.795261
 20
2.255458
 30
0.0
 10
1.730711
 20
2.381142
 30
0.0
 10
1.640340
 20
2.496952
 30
0.0
 10
1.535351
 20
2.589981
 30
0.0
 10
1.417831
 20
2.656430
 30
0.0
 10
1.287780
 20
2.696300
 30
0.0
 10
1.145201
 20
2.709593
 30
0.0
 10
0.967497
 20
2.709593
 30
0.0
 10
0.789793
 20
2.709593
 30
0.0
 10
0.612092
 20
2.709593
 30
0.0
 10
0.434388
 20
2.709593
 30
0.0
 10
0.434388
 20
2.407344
 30
0.0
 10
0.434388
 20
2.105098
 30
0.0
 10
0.434388
 20
1.802849
 30
0.0
 10
0.434388
 20
1.500601
 30
0.0
  0
LWPOLYLINE
  5
102
100
AcDbEntity
  8
Ebene_1
 62
7
100
AcDbPolyline
 90
17
 70
0
 10
3.301960
 20
-0.000000
 30
0.0
 10
3.202288
 20
0.020320
 30
0.0
 10
3.131092
 20
0.081263
 30
0.0
 10
3.088375
 20
0.182835
 30
0.0
 10
3.074122
 20
0.325035
 30
0.0
 10
3.087415
 20
0.467236
 30
0.0
 10
3.127285
 20
0.568807
 30
0.0
 10
3.193734
 20
0.629750
 30
0.0
 10
3.286763
 20
0.650070
 30
0.0
 10
3.395737
 20
0.628424
 30
0.0
 10
3.473577
 20
0.563493
 30
0.0
 10
3.520282
 20
0.455278
 30
0.0
 10
3.535861
 20
0.303775
 30
0.0
 10
3.521242
 20
0.170877
 30
0.0
 10
3.477384
 20
0.075951
 30
0.0
 10
3.404289
 20
0.018993
 30
0.0
 10
3.301958
 20
-0.000000
 30
0.0
  0
ENDSEC
  0
SECTION
  2
OBJECTS
  0
DICTIONARY
  5
C
330
0
100
AcDbDictionary
  3
ACAD_GROUP
350
D
  3
ACAD_MLINESTYLE
350
17
  0
DICTIONARY
  5
D
330
C
100
AcDbDictionary
  0
DICTIONARY
  5
1A
330
C
100
AcDbDictionary
  0
DICTIONARY
  5
17
330
C
100
AcDbDictionary
  3
STANDARD
350
18
  0
DICTIONARY
  5
19
330
C
100
AcDbDictionary
  0
ENDSEC
  0
EOF
