  0
SECTION
  2
HEADER
  9
$ACADVER
  1
AC1014
  9
$HANDSEED
  5
FFFF
  9
$MEASUREMENT
 70
     1
  0
ENDSEC
  0
SECTION
  2
TABLES
  0
TABLE
  2
VPORT
  5
8
330
0
100
AcDbSymbolTable
 70
     4
  0
VPORT
  5
2E
330
8
100
AcDbSymbolTableRecord
100
AcDbViewportTableRecord
  2
*ACTIVE
 70
     0
 10
0.0
 20
0.0
 11
1.0
 21
1.0
 12
210.0
 22
148.5
 13
0.0
 23
0.0
 14
10.0
 24
10.0
 15
10.0
 25
10.0
 16
0.0
 26
0.0
 36
1.0
 17
0.0
 27
0.0
 37
0.0
 40
341.0
 41
1.24
 42
50.0
 43
0.0
 44
0.0
 50
0.0
 51
0.0
 71
     0
 72
   100
 73
     1
 74
     3
 75
     0
 76
     0
 77
     0
 78
     0
  0
ENDTAB
  0
TABLE
  2
LTYPE
  5
5
330
0
100
AcDbSymbolTable
 70
     1
  0
LTYPE
  5
14
330
5
100
AcDbSymbolTableRecord
100
AcDbLinetypeTableRecord
  2
BYBLOCK
 70
     0
  3

 72
    65
 73
     0
 40
0.0
  0
LTYPE
  5
15
330
5
100
AcDbSymbolTableRecord
100
AcDbLinetypeTableRecord
  2
BYLAYER
 70
     0
  3

 72
    65
 73
     0
 40
0.0
  0
LTYPE
  5
16
330
5
100
AcDbSymbolTableRecord
100
AcDbLinetypeTableRecord
  2
CONTINUOUS
 70
     0
  3
Solid line
 72
    65
 73
     0
 40
0.0
  0
ENDTAB
  0
TABLE
  2
LAYER
  5
2
100
AcDbSymbolTable
 70
2
  0
LAYER
  5
50
100
AcDbSymbolTableRecord
100
AcDbLayerTableRecord
  2
0
 70
0
  6
CONTINUOUS
  0
LAYER
  5
51
100
AcDbSymbolTableRecord
100
AcDbLayerTableRecord
  2
Ebene_1
 70
0
  6
CONTINUOUS
  0
ENDTAB
  0
TABLE
  2
STYLE
  5
3
330
0
100
AcDbSymbolTable
 70
     1
  0
STYLE
  5
11
330
3
100
AcDbSymbolTableRecord
100
AcDbTextStyleTableRecord
  2
STANDARD
 70
     0
 40
0.0
 41
1.0
 50
0.0
 71
     0
 42
2.5
  3
txt
  4

  0
ENDTAB
  0
TABLE
  2
VIEW
  5
6
330
0
100
AcDbSymbolTable
 70
     0
  0
ENDTAB
  0
TABLE
  2
UCS
  5
7
330
0
100
AcDbSymbolTable
 70
     0
  0
ENDTAB
  0
TABLE
  2
APPID
  5
9
330
0
100
AcDbSymbolTable
 70
     2
  0
APPID
  5
12
330
9
100
AcDbSymbolTableRecord
100
AcDbRegAppTableRecord
  2
ACAD
 70
     0
  0
ENDTAB
  0
TABLE
  2
DIMSTYLE
  5
A
330
0
100
AcDbSymbolTable
 70
     1
  0
DIMSTYLE
105
27
330
A
100
AcDbSymbolTableRecord
100
AcDbDimStyleTableRecord
  2
ISO-25
 70
     0
  3

  4

  5

  6

  7

 40
1.0
 41
2.5
 42
0.625
 43
3.75
 44
1.25
 45
0.0
 46
0.0
 47
0.0
 48
0.0
140
2.5
141
2.5
142
0.0
143
0.03937007874016
144
1.0
145
0.0
146
1.0
147
0.625
 71
     0
 72
     0
 73
     0
 74
     0
 75
     0
 76
     0
 77
     1
 78
     8
170
     0
171
     3
172
     1
173
     0
174
     0
175
     0
176
     0
177
     0
178
     0
270
     2
271
     2
272
     2
273
     2
274
     3
340
11
275
     0
280
     0
281
     0
282
     0
283
     0
284
     8
285
     0
286
     0
287
     3
288
     0
  0
ENDTAB
  0
TABLE
  2
BLOCK_RECORD
  5
1
330
0
100
AcDbSymbolTable
 70
     1
  0
BLOCK_RECORD
  5
1F
330
1
100
AcDbSymbolTableRecord
100
AcDbBlockTableRecord
  2
*MODEL_SPACE
  0
BLOCK_RECORD
  5
1B
330
1
100
AcDbSymbolTableRecord
100
AcDbBlockTableRecord
  2
*PAPER_SPACE
  0
ENDTAB
  0
ENDSEC
  0
SECTION
  2
BLOCKS
  0
BLOCK
  5
20
330
1F
100
AcDbEntity
  8
0
100
AcDbBlockBegin
  2
*MODEL_SPACE
 70
     0
 10
0.0
 20
0.0
 30
0.0
  3
*MODEL_SPACE
  1

  0
ENDBLK
  5
21
330
1F
100
AcDbEntity
  8
0
100
AcDbBlockEnd
  0
BLOCK
  5
1C
330
1B
100
AcDbEntity
 67
     1
  8
0
100
AcDbBlockBegin
  2
*PAPER_SPACE
  1

  0
ENDBLK
  5
1D
330
1B
100
AcDbEntity
 67
     1
  8
0
100
AcDbBlockEnd
  0
ENDSEC
  0
SECTION
  2
ENTITIES
  0
LWPOLYLINE
  5
100
100
AcDbEntity
  8
Ebene_1
 62
7
100
AcDbPolyline
 90
41
 70
0
 10
1.245856
 20
2.511594
 30
0.0
 10
1.102377
 20
2.498302
 30
0.0
 10
0.967616
 20
2.458432
 30
0.0
 10
0.841578
 20
2.391989
 30
0.0
 10
0.724261
 20
2.298965
 30
0.0
 10
0.616704
 20
2.178533
 30
0.0
 10
0.539877
 20
2.049794
 30
0.0
 10
0.493779
 20
1.912753
 30
0.0
 10
0.478426
 20
1.767405
 30
0.0
 10
0.478426
 20
1.616242
 30
0.0
 10
0.478426
 20
1.465080
 30
0.0
 10
0.478426
 20
1.313917
 30
0.0
 10
0.478426
 20
1.162753
 30
0.0
 10
0.496488
 20
1.038169
 30
0.0
 10
0.550683
 20
0.910260
 30
0.0
 10
0.641006
 20
0.779032
 30
0.0
 10
0.767461
 20
0.644480
 30
0.0
 10
0.862353
 20
0.573258
 30
0.0
 10
0.974271
 20
0.522388
 30
0.0
 10
1.103215
 20
0.491865
 30
0.0
 10
1.249186
 20
0.481705
 30
0.0
 10
1.383530
 20
0.495196
 30
0.0
 10
1.517458
 20
0.535683
 30
0.0
 10
1.650972
 20
0.603168
 30
0.0
 10
1.784071
 20
0.697645
 30
0.0
 10
1.887268
 20
0.803955
 30
0.0
 10
1.960979
 20
0.930202
 30
0.0
 10
2.005209
 20
1.076381
 30
0.0
 10
2.019941
 20
1.242495
 30
0.0
 10
2.019941
 20
1.366249
 30
0.0
 10
2.019941
 20
1.490004
 30
0.0
 10
2.019941
 20
1.613758
 30
0.0
 10
2.019941
 20
1.737512
 30
0.0
 10
2.004983
 20
1.878084
 30
0.0
 10
1.960132
 20
2.017412
 30
0.0
 10
1.885383
 20
2.155495
 30
0.0
 10
1.780732
 20
2.292330
 30
0.0
 10
1.675043
 20
2.388260
 30
0.0
 10
1.550664
 20
2.456781
 30
0.0
 10
1.407597
 20
2.497895
 30
0.0
 10
1.245847
 20
2.511611
 30
0.0
  0
LWPOLYLINE
  5
101
100
AcDbEntity
  8
Ebene_1
 62
7
100
AcDbPolyline
 90
33
 70
0
 10
0.724253
 20
4.328885
 30
0.0
 10
0.618149
 20
4.200768
 30
0.0
 10
0.542358
 20
4.068916
 30
0.0
 10
0.496886
 20
3.933325
 30
0.0
 10
0.481731
 20
3.794001
 30
0.0
 10
0.492314
 20
3.662355
 30
0.0
 10
0.524084
 20
3.533202
 30
0.0
 10
0.577032
 20
3.406541
 30
0.0
 10
0.651160
 20
3.282374
 30
0.0
 10
0.760171
 20
3.160279
 30
0.0
 10
0.894515
 20
3.073070
 30
0.0
 10
1.054193
 20
3.020746
 30
0.0
 10
1.239201
 20
3.003304
 30
0.0
 10
1.419225
 20
3.017839
 30
0.0
 10
1.577238
 20
3.061442
 30
0.0
 10
1.713244
 20
3.134114
 30
0.0
 10
1.827239
 20
3.235861
 30
0.0
 10
1.915899
 20
3.358992
 30
0.0
 10
1.979230
 20
3.489181
 30
0.0
 10
2.017228
 20
3.626434
 30
0.0
 10
2.029900
 20
3.770746
 30
0.0
 10
2.013503
 20
3.919415
 30
0.0
 10
1.964292
 20
4.059778
 30
0.0
 10
1.882275
 20
4.191838
 30
0.0
 10
1.767451
 20
4.315595
 30
0.0
 10
1.646809
 20
4.407162
 30
0.0
 10
1.517450
 20
4.472570
 30
0.0
 10
1.379367
 20
4.511816
 30
0.0
 10
1.232566
 20
4.524911
 30
0.0
 10
1.081196
 20
4.512663
 30
0.0
 10
0.946020
 20
4.475909
 30
0.0
 10
0.827044
 20
4.414655
 30
0.0
 10
0.724261
 20
4.328902
 30
0.0
  0
LWPOLYLINE
  5
102
100
AcDbEntity
  8
Ebene_1
 62
7
100
AcDbPolyline
 90
57
 70
0
 10
0.501670
 20
2.760797
 30
0.0
 10
0.282191
 20
2.974044
 30
0.0
 10
0.125422
 20
3.225080
 30
0.0
 10
0.031363
 20
3.513909
 30
0.0
 10
0.000008
 20
3.840531
 30
0.0
 10
0.028033
 20
4.102986
 30
0.0
 10
0.112130
 20
4.338868
 30
0.0
 10
0.252287
 20
4.548169
 30
0.0
 10
0.448508
 20
4.730897
 30
0.0
 10
0.642651
 20
4.857346
 30
0.0
 10
0.843026
 20
4.947669
 30
0.0
 10
1.049630
 20
5.001864
 30
0.0
 10
1.262462
 20
5.019926
 30
0.0
 10
1.435633
 20
5.009964
 30
0.0
 10
1.596348
 20
4.980065
 30
0.0
 10
1.744602
 20
4.930233
 30
0.0
 10
1.880402
 20
4.860468
 30
0.0
 10
2.153658
 20
4.647839
 30
0.0
 10
2.348840
 20
4.395346
 30
0.0
 10
2.465951
 20
4.102989
 30
0.0
 10
2.504988
 20
3.770765
 30
0.0
 10
2.473633
 20
3.460341
 30
0.0
 10
2.379571
 20
3.186876
 30
0.0
 10
2.222802
 20
2.950374
 30
0.0
 10
2.003326
 20
2.750831
 30
0.0
 10
2.225709
 20
2.536752
 30
0.0
 10
2.384552
 20
2.299835
 30
0.0
 10
2.479861
 20
2.040074
 30
0.0
 10
2.511631
 20
1.757477
 30
0.0
 10
2.511631
 20
1.615451
 30
0.0
 10
2.511631
 20
1.473423
 30
0.0
 10
2.511631
 20
1.331397
 30
0.0
 10
2.511631
 20
1.189372
 30
0.0
 10
2.484848
 20
0.953491
 30
0.0
 10
2.404488
 20
0.727575
 30
0.0
 10
2.270560
 20
0.511629
 30
0.0
 10
2.083062
 20
0.305649
 30
0.0
 10
1.910303
 20
0.171930
 30
0.0
 10
1.717613
 20
0.076414
 30
0.0
 10
1.504990
 20
0.019106
 30
0.0
 10
1.272433
 20
-0.000000
 30
0.0
 10
1.013296
 20
0.017639
 30
0.0
 10
0.787383
 20
0.070587
 30
0.0
 10
0.594690
 20
0.158835
 30
0.0
 10
0.435223
 20
0.282380
 30
0.0
 10
0.244816
 20
0.498534
 30
0.0
 10
0.108811
 20
0.718425
 30
0.0
 10
0.027206
 20
0.942055
 30
0.0
 10
-0.000000
 20
1.169422
 30
0.0
 10
-0.000000
 20
1.323075
 30
0.0
 10
-0.000000
 20
1.476731
 30
0.0
 10
-0.000000
 20
1.630384
 30
0.0
 10
-0.000000
 20
1.784040
 30
0.0
 10
0.031355
 20
2.048160
 30
0.0
 10
0.125414
 20
2.298988
 30
0.0
 10
0.282183
 20
2.536531
 30
0.0
 10
0.501661
 20
2.760785
 30
0.0
  0
ENDSEC
  0
SECTION
  2
OBJECTS
  0
DICTIONARY
  5
C
330
0
100
AcDbDictionary
  3
ACAD_GROUP
350
D
  3
ACAD_MLINESTYLE
350
17
  0
DICTIONARY
  5
D
330
C
100
AcDbDictionary
  0
DICTIONARY
  5
1A
330
C
100
AcDbDictionary
  0
DICTIONARY
  5
17
330
C
100
AcDbDictionary
  3
STANDARD
350
18
  0
DICTIONARY
  5
19
330
C
100
AcDbDictionary
  0
ENDSEC
  0
EOF
