  0
SECTION
  2
HEADER
  9
$ACADVER
  1
AC1014
  9
$HANDSEED
  5
FFFF
  9
$MEASUREMENT
 70
     1
  0
ENDSEC
  0
SECTION
  2
TABLES
  0
TABLE
  2
VPORT
  5
8
330
0
100
AcDbSymbolTable
 70
     4
  0
VPORT
  5
2E
330
8
100
AcDbSymbolTableRecord
100
AcDbViewportTableRecord
  2
*ACTIVE
 70
     0
 10
0.0
 20
0.0
 11
1.0
 21
1.0
 12
210.0
 22
148.5
 13
0.0
 23
0.0
 14
10.0
 24
10.0
 15
10.0
 25
10.0
 16
0.0
 26
0.0
 36
1.0
 17
0.0
 27
0.0
 37
0.0
 40
341.0
 41
1.24
 42
50.0
 43
0.0
 44
0.0
 50
0.0
 51
0.0
 71
     0
 72
   100
 73
     1
 74
     3
 75
     0
 76
     0
 77
     0
 78
     0
  0
ENDTAB
  0
TABLE
  2
LTYPE
  5
5
330
0
100
AcDbSymbolTable
 70
     1
  0
LTYPE
  5
14
330
5
100
AcDbSymbolTableRecord
100
AcDbLinetypeTableRecord
  2
BYBLOCK
 70
     0
  3

 72
    65
 73
     0
 40
0.0
  0
LTYPE
  5
15
330
5
100
AcDbSymbolTableRecord
100
AcDbLinetypeTableRecord
  2
BYLAYER
 70
     0
  3

 72
    65
 73
     0
 40
0.0
  0
LTYPE
  5
16
330
5
100
AcDbSymbolTableRecord
100
AcDbLinetypeTableRecord
  2
CONTINUOUS
 70
     0
  3
Solid line
 72
    65
 73
     0
 40
0.0
  0
ENDTAB
  0
TABLE
  2
LAYER
  5
2
100
AcDbSymbolTable
 70
2
  0
LAYER
  5
50
100
AcDbSymbolTableRecord
100
AcDbLayerTableRecord
  2
0
 70
0
  6
CONTINUOUS
  0
LAYER
  5
51
100
AcDbSymbolTableRecord
100
AcDbLayerTableRecord
  2
Ebene_1
 70
0
  6
CONTINUOUS
  0
ENDTAB
  0
TABLE
  2
STYLE
  5
3
330
0
100
AcDbSymbolTable
 70
     1
  0
STYLE
  5
11
330
3
100
AcDbSymbolTableRecord
100
AcDbTextStyleTableRecord
  2
STANDARD
 70
     0
 40
0.0
 41
1.0
 50
0.0
 71
     0
 42
2.5
  3
txt
  4

  0
ENDTAB
  0
TABLE
  2
VIEW
  5
6
330
0
100
AcDbSymbolTable
 70
     0
  0
ENDTAB
  0
TABLE
  2
UCS
  5
7
330
0
100
AcDbSymbolTable
 70
     0
  0
ENDTAB
  0
TABLE
  2
APPID
  5
9
330
0
100
AcDbSymbolTable
 70
     2
  0
APPID
  5
12
330
9
100
AcDbSymbolTableRecord
100
AcDbRegAppTableRecord
  2
ACAD
 70
     0
  0
ENDTAB
  0
TABLE
  2
DIMSTYLE
  5
A
330
0
100
AcDbSymbolTable
 70
     1
  0
DIMSTYLE
105
27
330
A
100
AcDbSymbolTableRecord
100
AcDbDimStyleTableRecord
  2
ISO-25
 70
     0
  3

  4

  5

  6

  7

 40
1.0
 41
2.5
 42
0.625
 43
3.75
 44
1.25
 45
0.0
 46
0.0
 47
0.0
 48
0.0
140
2.5
141
2.5
142
0.0
143
0.03937007874016
144
1.0
145
0.0
146
1.0
147
0.625
 71
     0
 72
     0
 73
     0
 74
     0
 75
     0
 76
     0
 77
     1
 78
     8
170
     0
171
     3
172
     1
173
     0
174
     0
175
     0
176
     0
177
     0
178
     0
270
     2
271
     2
272
     2
273
     2
274
     3
340
11
275
     0
280
     0
281
     0
282
     0
283
     0
284
     8
285
     0
286
     0
287
     3
288
     0
  0
ENDTAB
  0
TABLE
  2
BLOCK_RECORD
  5
1
330
0
100
AcDbSymbolTable
 70
     1
  0
BLOCK_RECORD
  5
1F
330
1
100
AcDbSymbolTableRecord
100
AcDbBlockTableRecord
  2
*MODEL_SPACE
  0
BLOCK_RECORD
  5
1B
330
1
100
AcDbSymbolTableRecord
100
AcDbBlockTableRecord
  2
*PAPER_SPACE
  0
ENDTAB
  0
ENDSEC
  0
SECTION
  2
BLOCKS
  0
BLOCK
  5
20
330
1F
100
AcDbEntity
  8
0
100
AcDbBlockBegin
  2
*MODEL_SPACE
 70
     0
 10
0.0
 20
0.0
 30
0.0
  3
*MODEL_SPACE
  1

  0
ENDBLK
  5
21
330
1F
100
AcDbEntity
  8
0
100
AcDbBlockEnd
  0
BLOCK
  5
1C
330
1B
100
AcDbEntity
 67
     1
  8
0
100
AcDbBlockBegin
  2
*PAPER_SPACE
  1

  0
ENDBLK
  5
1D
330
1B
100
AcDbEntity
 67
     1
  8
0
100
AcDbBlockEnd
  0
ENDSEC
  0
SECTION
  2
ENTITIES
  0
LWPOLYLINE
  5
100
100
AcDbEntity
  8
Ebene_1
 62
7
100
AcDbPolyline
 90
49
 70
0
 10
3.019860
 20
1.523178
 30
0.0
 10
2.990884
 20
1.179635
 30
0.0
 10
2.903962
 20
0.877482
 30
0.0
 10
2.759098
 20
0.616720
 30
0.0
 10
2.556284
 20
0.397349
 30
0.0
 10
2.329253
 20
0.223508
 30
0.0
 10
2.108434
 20
0.099336
 30
0.0
 10
1.893824
 20
0.024835
 30
0.0
 10
1.685423
 20
-0.000000
 30
0.0
 10
1.322014
 20
-0.000000
 30
0.0
 10
0.958602
 20
-0.000000
 30
0.0
 10
0.595193
 20
-0.000000
 30
0.0
 10
0.231781
 20
-0.000000
 30
0.0
 10
0.130373
 20
0.018824
 30
0.0
 10
0.057940
 20
0.075322
 30
0.0
 10
0.014478
 20
0.169485
 30
0.0
 10
0.000000
 20
0.301314
 30
0.0
 10
0.000000
 20
1.398168
 30
0.0
 10
0.000000
 20
2.495022
 30
0.0
 10
0.000000
 20
3.591879
 30
0.0
 10
0.000000
 20
4.688732
 30
0.0
 10
0.019248
 20
4.824905
 30
0.0
 10
0.076987
 20
4.922173
 30
0.0
 10
0.173220
 20
4.980533
 30
0.0
 10
0.307947
 20
4.999978
 30
0.0
 10
0.566225
 20
4.999978
 30
0.0
 10
0.824504
 20
4.999978
 30
0.0
 10
1.082782
 20
4.999978
 30
0.0
 10
1.341061
 20
4.999978
 30
0.0
 10
1.634312
 20
4.984259
 30
0.0
 10
1.884934
 20
4.937071
 30
0.0
 10
2.092920
 20
4.858430
 30
0.0
 10
2.258280
 20
4.748335
 30
0.0
 10
2.478476
 20
4.520683
 30
0.0
 10
2.635761
 20
4.278133
 30
0.0
 10
2.730130
 20
4.020681
 30
0.0
 10
2.761590
 20
3.748334
 30
0.0
 10
2.732614
 20
3.459011
 30
0.0
 10
2.645695
 20
3.200318
 30
0.0
 10
2.500828
 20
2.972257
 30
0.0
 10
2.298014
 20
2.774826
 30
0.0
 10
2.445571
 20
2.675692
 30
0.0
 10
2.580296
 20
2.557108
 30
0.0
 10
2.702193
 20
2.419070
 30
0.0
 10
2.811258
 20
2.261579
 30
0.0
 10
2.902523
 20
2.090013
 30
0.0
 10
2.967713
 20
1.909758
 30
0.0
 10
3.006829
 20
1.720810
 30
0.0
 10
3.019868
 20
1.523170
 30
0.0
  0
LWPOLYLINE
  5
101
100
AcDbEntity
  8
Ebene_1
 62
7
100
AcDbPolyline
 90
29
 70
0
 10
0.509936
 20
2.476813
 30
0.0
 10
0.509936
 20
1.972674
 30
0.0
 10
0.509936
 20
1.468535
 30
0.0
 10
0.509936
 20
0.964395
 30
0.0
 10
0.509936
 20
0.460256
 30
0.0
 10
0.768215
 20
0.460256
 30
0.0
 10
1.026493
 20
0.460256
 30
0.0
 10
1.284769
 20
0.460256
 30
0.0
 10
1.543047
 20
0.460256
 30
0.0
 10
1.757037
 20
0.479701
 30
0.0
 10
1.948674
 20
0.538062
 30
0.0
 10
2.117962
 20
0.635330
 30
0.0
 10
2.264901
 20
0.771505
 30
0.0
 10
2.383691
 20
0.931271
 30
0.0
 10
2.468541
 20
1.099317
 30
0.0
 10
2.519451
 20
1.275644
 30
0.0
 10
2.536413
 20
1.460246
 30
0.0
 10
2.520467
 20
1.645468
 30
0.0
 10
2.472662
 20
1.823658
 30
0.0
 10
2.392985
 20
1.994808
 30
0.0
 10
2.281439
 20
2.158924
 30
0.0
 10
2.141536
 20
2.297994
 30
0.0
 10
1.973490
 20
2.397334
 30
0.0
 10
1.777297
 20
2.456936
 30
0.0
 10
1.552962
 20
2.476805
 30
0.0
 10
1.292200
 20
2.476805
 30
0.0
 10
1.031440
 20
2.476805
 30
0.0
 10
0.770678
 20
2.476805
 30
0.0
 10
0.509916
 20
2.476805
 30
0.0
  0
LWPOLYLINE
  5
102
100
AcDbEntity
  8
Ebene_1
 62
7
100
AcDbPolyline
 90
29
 70
0
 10
0.509916
 20
4.506603
 30
0.0
 10
0.509916
 20
4.128293
 30
0.0
 10
0.509916
 20
3.749982
 30
0.0
 10
0.509916
 20
3.371669
 30
0.0
 10
0.509916
 20
2.993359
 30
0.0
 10
0.762401
 20
2.993359
 30
0.0
 10
1.014882
 20
2.993359
 30
0.0
 10
1.267367
 20
2.993359
 30
0.0
 10
1.519849
 20
2.993359
 30
0.0
 10
1.698241
 20
3.006200
 30
0.0
 10
1.852628
 20
3.044692
 30
0.0
 10
1.983009
 20
3.108850
 30
0.0
 10
2.089384
 20
3.198670
 30
0.0
 10
2.173407
 20
3.309179
 30
0.0
 10
2.233422
 20
3.432110
 30
0.0
 10
2.269434
 20
3.567458
 30
0.0
 10
2.281428
 20
3.715224
 30
0.0
 10
2.268813
 20
3.866300
 30
0.0
 10
2.230941
 20
4.008269
 30
0.0
 10
2.167819
 20
4.141134
 30
0.0
 10
2.079450
 20
4.264894
 30
0.0
 10
1.967902
 20
4.370645
 30
0.0
 10
1.835243
 20
4.446182
 30
0.0
 10
1.681477
 20
4.491504
 30
0.0
 10
1.506604
 20
4.506603
 30
0.0
 10
1.257433
 20
4.506603
 30
0.0
 10
1.008261
 20
4.506603
 30
0.0
 10
0.759087
 20
4.506603
 30
0.0
 10
0.509916
 20
4.506603
 30
0.0
  0
ENDSEC
  0
SECTION
  2
OBJECTS
  0
DICTIONARY
  5
C
330
0
100
AcDbDictionary
  3
ACAD_GROUP
350
D
  3
ACAD_MLINESTYLE
350
17
  0
DICTIONARY
  5
D
330
C
100
AcDbDictionary
  0
DICTIONARY
  5
1A
330
C
100
AcDbDictionary
  0
DICTIONARY
  5
17
330
C
100
AcDbDictionary
  3
STANDARD
350
18
  0
DICTIONARY
  5
19
330
C
100
AcDbDictionary
  0
ENDSEC
  0
EOF
