  0
SECTION
  2
HEADER
  9
$ACADVER
  1
AC1014
  9
$HANDSEED
  5
FFFF
  9
$MEASUREMENT
 70
     1
  0
ENDSEC
  0
SECTION
  2
TABLES
  0
TABLE
  2
VPORT
  5
8
330
0
100
AcDbSymbolTable
 70
     4
  0
VPORT
  5
2E
330
8
100
AcDbSymbolTableRecord
100
AcDbViewportTableRecord
  2
*ACTIVE
 70
     0
 10
0.0
 20
0.0
 11
1.0
 21
1.0
 12
210.0
 22
148.5
 13
0.0
 23
0.0
 14
10.0
 24
10.0
 15
10.0
 25
10.0
 16
0.0
 26
0.0
 36
1.0
 17
0.0
 27
0.0
 37
0.0
 40
341.0
 41
1.24
 42
50.0
 43
0.0
 44
0.0
 50
0.0
 51
0.0
 71
     0
 72
   100
 73
     1
 74
     3
 75
     0
 76
     0
 77
     0
 78
     0
  0
ENDTAB
  0
TABLE
  2
LTYPE
  5
5
330
0
100
AcDbSymbolTable
 70
     1
  0
LTYPE
  5
14
330
5
100
AcDbSymbolTableRecord
100
AcDbLinetypeTableRecord
  2
BYBLOCK
 70
     0
  3

 72
    65
 73
     0
 40
0.0
  0
LTYPE
  5
15
330
5
100
AcDbSymbolTableRecord
100
AcDbLinetypeTableRecord
  2
BYLAYER
 70
     0
  3

 72
    65
 73
     0
 40
0.0
  0
LTYPE
  5
16
330
5
100
AcDbSymbolTableRecord
100
AcDbLinetypeTableRecord
  2
CONTINUOUS
 70
     0
  3
Solid line
 72
    65
 73
     0
 40
0.0
  0
ENDTAB
  0
TABLE
  2
LAYER
  5
2
100
AcDbSymbolTable
 70
2
  0
LAYER
  5
50
100
AcDbSymbolTableRecord
100
AcDbLayerTableRecord
  2
0
 70
0
  6
CONTINUOUS
  0
LAYER
  5
51
100
AcDbSymbolTableRecord
100
AcDbLayerTableRecord
  2
Ebene_1
 70
0
  6
CONTINUOUS
  0
ENDTAB
  0
TABLE
  2
STYLE
  5
3
330
0
100
AcDbSymbolTable
 70
     1
  0
STYLE
  5
11
330
3
100
AcDbSymbolTableRecord
100
AcDbTextStyleTableRecord
  2
STANDARD
 70
     0
 40
0.0
 41
1.0
 50
0.0
 71
     0
 42
2.5
  3
txt
  4

  0
ENDTAB
  0
TABLE
  2
VIEW
  5
6
330
0
100
AcDbSymbolTable
 70
     0
  0
ENDTAB
  0
TABLE
  2
UCS
  5
7
330
0
100
AcDbSymbolTable
 70
     0
  0
ENDTAB
  0
TABLE
  2
APPID
  5
9
330
0
100
AcDbSymbolTable
 70
     2
  0
APPID
  5
12
330
9
100
AcDbSymbolTableRecord
100
AcDbRegAppTableRecord
  2
ACAD
 70
     0
  0
ENDTAB
  0
TABLE
  2
DIMSTYLE
  5
A
330
0
100
AcDbSymbolTable
 70
     1
  0
DIMSTYLE
105
27
330
A
100
AcDbSymbolTableRecord
100
AcDbDimStyleTableRecord
  2
ISO-25
 70
     0
  3

  4

  5

  6

  7

 40
1.0
 41
2.5
 42
0.625
 43
3.75
 44
1.25
 45
0.0
 46
0.0
 47
0.0
 48
0.0
140
2.5
141
2.5
142
0.0
143
0.03937007874016
144
1.0
145
0.0
146
1.0
147
0.625
 71
     0
 72
     0
 73
     0
 74
     0
 75
     0
 76
     0
 77
     1
 78
     8
170
     0
171
     3
172
     1
173
     0
174
     0
175
     0
176
     0
177
     0
178
     0
270
     2
271
     2
272
     2
273
     2
274
     3
340
11
275
     0
280
     0
281
     0
282
     0
283
     0
284
     8
285
     0
286
     0
287
     3
288
     0
  0
ENDTAB
  0
TABLE
  2
BLOCK_RECORD
  5
1
330
0
100
AcDbSymbolTable
 70
     1
  0
BLOCK_RECORD
  5
1F
330
1
100
AcDbSymbolTableRecord
100
AcDbBlockTableRecord
  2
*MODEL_SPACE
  0
BLOCK_RECORD
  5
1B
330
1
100
AcDbSymbolTableRecord
100
AcDbBlockTableRecord
  2
*PAPER_SPACE
  0
ENDTAB
  0
ENDSEC
  0
SECTION
  2
BLOCKS
  0
BLOCK
  5
20
330
1F
100
AcDbEntity
  8
0
100
AcDbBlockBegin
  2
*MODEL_SPACE
 70
     0
 10
0.0
 20
0.0
 30
0.0
  3
*MODEL_SPACE
  1

  0
ENDBLK
  5
21
330
1F
100
AcDbEntity
  8
0
100
AcDbBlockEnd
  0
BLOCK
  5
1C
330
1B
100
AcDbEntity
 67
     1
  8
0
100
AcDbBlockBegin
  2
*PAPER_SPACE
  1

  0
ENDBLK
  5
1D
330
1B
100
AcDbEntity
 67
     1
  8
0
100
AcDbBlockEnd
  0
ENDSEC
  0
SECTION
  2
ENTITIES
  0
LWPOLYLINE
  5
100
100
AcDbEntity
  8
Ebene_1
 62
7
100
AcDbPolyline
 90
29
 70
0
 10
0.486760
 20
2.486753
 30
0.0
 10
0.554431
 20
2.486751
 30
0.0
 10
0.757453
 20
2.486751
 30
0.0
 10
1.095824
 20
2.486751
 30
0.0
 10
1.569539
 20
2.486753
 30
0.0
 10
1.741723
 20
2.507243
 30
0.0
 10
1.913910
 20
2.568708
 30
0.0
 10
2.086096
 20
2.671152
 30
0.0
 10
2.258283
 20
2.814571
 30
0.0
 10
2.375622
 20
2.955090
 30
0.0
 10
2.459440
 20
3.121689
 30
0.0
 10
2.509729
 20
3.314364
 30
0.0
 10
2.526493
 20
3.533115
 30
0.0
 10
2.508290
 20
3.705505
 30
0.0
 10
2.453654
 20
3.871688
 30
0.0
 10
2.362595
 20
4.031663
 30
0.0
 10
2.235115
 20
4.185432
 30
0.0
 10
2.077827
 20
4.325950
 30
0.0
 10
1.913921
 20
4.426323
 30
0.0
 10
1.743391
 20
4.486546
 30
0.0
 10
1.566240
 20
4.506612
 30
0.0
 10
1.296374
 20
4.506612
 30
0.0
 10
1.026504
 20
4.506612
 30
0.0
 10
0.756638
 20
4.506612
 30
0.0
 10
0.486771
 20
4.506612
 30
0.0
 10
0.486771
 20
4.001646
 30
0.0
 10
0.486771
 20
3.496677
 30
0.0
 10
0.486771
 20
2.991711
 30
0.0
 10
0.486771
 20
2.486745
 30
0.0
  0
LWPOLYLINE
  5
101
100
AcDbEntity
  8
Ebene_1
 62
7
100
AcDbPolyline
 90
65
 70
0
 10
0.258293
 20
4.980125
 30
0.0
 10
0.585278
 20
4.980125
 30
0.0
 10
0.912266
 20
4.980125
 30
0.0
 10
1.239252
 20
4.980125
 30
0.0
 10
1.566240
 20
4.980125
 30
0.0
 10
1.862390
 20
4.946182
 30
0.0
 10
2.144880
 20
4.844359
 30
0.0
 10
2.413714
 20
4.674659
 30
0.0
 10
2.668888
 20
4.437078
 30
0.0
 10
2.812305
 20
4.251853
 30
0.0
 10
2.914749
 20
4.053795
 30
0.0
 10
2.976214
 20
3.842910
 30
0.0
 10
2.996703
 20
3.619195
 30
0.0
 10
2.986346
 20
3.400651
 30
0.0
 10
2.955301
 20
3.188730
 30
0.0
 10
2.903564
 20
2.983433
 30
0.0
 10
2.831132
 20
2.784760
 30
0.0
 10
2.715858
 20
2.582980
 30
0.0
 10
2.552158
 20
2.404790
 30
0.0
 10
2.340029
 20
2.250198
 30
0.0
 10
2.079475
 20
2.119196
 30
0.0
 10
2.295536
 20
1.694527
 30
0.0
 10
2.511594
 20
1.269859
 30
0.0
 10
2.727655
 20
0.845188
 30
0.0
 10
2.943716
 20
0.420520
 30
0.0
 10
2.965447
 20
0.371472
 30
0.0
 10
2.980969
 20
0.326977
 30
0.0
 10
2.990283
 20
0.287034
 30
0.0
 10
2.993387
 20
0.251647
 30
0.0
 10
2.978063
 20
0.141549
 30
0.0
 10
2.932117
 20
0.062905
 30
0.0
 10
2.855544
 20
0.015720
 30
0.0
 10
2.748345
 20
0.000000
 30
0.0
 10
2.686050
 20
0.011797
 30
0.0
 10
2.628310
 20
0.047185
 30
0.0
 10
2.575123
 20
0.106167
 30
0.0
 10
2.526490
 20
0.188742
 30
0.0
 10
2.294701
 20
0.641556
 30
0.0
 10
2.062915
 20
1.094371
 30
0.0
 10
1.831126
 20
1.547185
 30
0.0
 10
1.599339
 20
1.999999
 30
0.0
 10
1.318709
 20
1.999999
 30
0.0
 10
1.038081
 20
1.999999
 30
0.0
 10
0.757451
 20
1.999999
 30
0.0
 10
0.476823
 20
1.999999
 30
0.0
 10
0.476823
 20
1.565397
 30
0.0
 10
0.476823
 20
1.130794
 30
0.0
 10
0.476823
 20
0.696192
 30
0.0
 10
0.476823
 20
0.261589
 30
0.0
 10
0.461724
 20
0.147142
 30
0.0
 10
0.416402
 20
0.065397
 30
0.0
 10
0.340865
 20
0.016349
 30
0.0
 10
0.235111
 20
0.000009
 30
0.0
 10
0.132255
 20
0.016575
 30
0.0
 10
0.058787
 20
0.066243
 30
0.0
 10
0.014704
 20
0.149025
 30
0.0
 10
-0.000000
 20
0.264919
 30
0.0
 10
-0.000000
 20
1.379985
 30
0.0
 10
-0.000000
 20
2.495054
 30
0.0
 10
-0.000000
 20
3.610119
 30
0.0
 10
-0.000000
 20
4.725185
 30
0.0
 10
0.016143
 20
4.836730
 30
0.0
 10
0.064570
 20
4.916407
 30
0.0
 10
0.145282
 20
4.964213
 30
0.0
 10
0.258278
 20
4.980159
 30
0.0
  0
ENDSEC
  0
SECTION
  2
OBJECTS
  0
DICTIONARY
  5
C
330
0
100
AcDbDictionary
  3
ACAD_GROUP
350
D
  3
ACAD_MLINESTYLE
350
17
  0
DICTIONARY
  5
D
330
C
100
AcDbDictionary
  0
DICTIONARY
  5
1A
330
C
100
AcDbDictionary
  0
DICTIONARY
  5
17
330
C
100
AcDbDictionary
  3
STANDARD
350
18
  0
DICTIONARY
  5
19
330
C
100
AcDbDictionary
  0
ENDSEC
  0
EOF
