  0
SECTION
  2
HEADER
  9
$ACADVER
  1
AC1014
  9
$HANDSEED
  5
FFFF
  9
$MEASUREMENT
 70
     1
  0
ENDSEC
  0
SECTION
  2
TABLES
  0
TABLE
  2
VPORT
  5
8
330
0
100
AcDbSymbolTable
 70
     4
  0
VPORT
  5
2E
330
8
100
AcDbSymbolTableRecord
100
AcDbViewportTableRecord
  2
*ACTIVE
 70
     0
 10
0.0
 20
0.0
 11
1.0
 21
1.0
 12
210.0
 22
148.5
 13
0.0
 23
0.0
 14
10.0
 24
10.0
 15
10.0
 25
10.0
 16
0.0
 26
0.0
 36
1.0
 17
0.0
 27
0.0
 37
0.0
 40
341.0
 41
1.24
 42
50.0
 43
0.0
 44
0.0
 50
0.0
 51
0.0
 71
     0
 72
   100
 73
     1
 74
     3
 75
     0
 76
     0
 77
     0
 78
     0
  0
ENDTAB
  0
TABLE
  2
LTYPE
  5
5
330
0
100
AcDbSymbolTable
 70
     1
  0
LTYPE
  5
14
330
5
100
AcDbSymbolTableRecord
100
AcDbLinetypeTableRecord
  2
BYBLOCK
 70
     0
  3

 72
    65
 73
     0
 40
0.0
  0
LTYPE
  5
15
330
5
100
AcDbSymbolTableRecord
100
AcDbLinetypeTableRecord
  2
BYLAYER
 70
     0
  3

 72
    65
 73
     0
 40
0.0
  0
LTYPE
  5
16
330
5
100
AcDbSymbolTableRecord
100
AcDbLinetypeTableRecord
  2
CONTINUOUS
 70
     0
  3
Solid line
 72
    65
 73
     0
 40
0.0
  0
ENDTAB
  0
TABLE
  2
LAYER
  5
2
100
AcDbSymbolTable
 70
2
  0
LAYER
  5
50
100
AcDbSymbolTableRecord
100
AcDbLayerTableRecord
  2
0
 70
0
  6
CONTINUOUS
  0
LAYER
  5
51
100
AcDbSymbolTableRecord
100
AcDbLayerTableRecord
  2
Ebene_1
 70
0
  6
CONTINUOUS
  0
ENDTAB
  0
TABLE
  2
STYLE
  5
3
330
0
100
AcDbSymbolTable
 70
     1
  0
STYLE
  5
11
330
3
100
AcDbSymbolTableRecord
100
AcDbTextStyleTableRecord
  2
STANDARD
 70
     0
 40
0.0
 41
1.0
 50
0.0
 71
     0
 42
2.5
  3
txt
  4

  0
ENDTAB
  0
TABLE
  2
VIEW
  5
6
330
0
100
AcDbSymbolTable
 70
     0
  0
ENDTAB
  0
TABLE
  2
UCS
  5
7
330
0
100
AcDbSymbolTable
 70
     0
  0
ENDTAB
  0
TABLE
  2
APPID
  5
9
330
0
100
AcDbSymbolTable
 70
     2
  0
APPID
  5
12
330
9
100
AcDbSymbolTableRecord
100
AcDbRegAppTableRecord
  2
ACAD
 70
     0
  0
ENDTAB
  0
TABLE
  2
DIMSTYLE
  5
A
330
0
100
AcDbSymbolTable
 70
     1
  0
DIMSTYLE
105
27
330
A
100
AcDbSymbolTableRecord
100
AcDbDimStyleTableRecord
  2
ISO-25
 70
     0
  3

  4

  5

  6

  7

 40
1.0
 41
2.5
 42
0.625
 43
3.75
 44
1.25
 45
0.0
 46
0.0
 47
0.0
 48
0.0
140
2.5
141
2.5
142
0.0
143
0.03937007874016
144
1.0
145
0.0
146
1.0
147
0.625
 71
     0
 72
     0
 73
     0
 74
     0
 75
     0
 76
     0
 77
     1
 78
     8
170
     0
171
     3
172
     1
173
     0
174
     0
175
     0
176
     0
177
     0
178
     0
270
     2
271
     2
272
     2
273
     2
274
     3
340
11
275
     0
280
     0
281
     0
282
     0
283
     0
284
     8
285
     0
286
     0
287
     3
288
     0
  0
ENDTAB
  0
TABLE
  2
BLOCK_RECORD
  5
1
330
0
100
AcDbSymbolTable
 70
     1
  0
BLOCK_RECORD
  5
1F
330
1
100
AcDbSymbolTableRecord
100
AcDbBlockTableRecord
  2
*MODEL_SPACE
  0
BLOCK_RECORD
  5
1B
330
1
100
AcDbSymbolTableRecord
100
AcDbBlockTableRecord
  2
*PAPER_SPACE
  0
ENDTAB
  0
ENDSEC
  0
SECTION
  2
BLOCKS
  0
BLOCK
  5
20
330
1F
100
AcDbEntity
  8
0
100
AcDbBlockBegin
  2
*MODEL_SPACE
 70
     0
 10
0.0
 20
0.0
 30
0.0
  3
*MODEL_SPACE
  1

  0
ENDBLK
  5
21
330
1F
100
AcDbEntity
  8
0
100
AcDbBlockEnd
  0
BLOCK
  5
1C
330
1B
100
AcDbEntity
 67
     1
  8
0
100
AcDbBlockBegin
  2
*PAPER_SPACE
  1

  0
ENDBLK
  5
1D
330
1B
100
AcDbEntity
 67
     1
  8
0
100
AcDbBlockEnd
  0
ENDSEC
  0
SECTION
  2
ENTITIES
  0
LWPOLYLINE
  5
100
100
AcDbEntity
  8
Ebene_1
 62
7
100
AcDbPolyline
 90
81
 70
0
 10
1.470175
 20
2.500037
 30
0.0
 10
1.382217
 20
2.631866
 30
0.0
 10
1.118354
 20
3.027353
 30
0.0
 10
0.678575
 20
3.686502
 30
0.0
 10
0.062890
 20
4.609310
 30
0.0
 10
0.039720
 20
4.650492
 30
0.0
 10
0.023154
 20
4.691261
 30
0.0
 10
0.013219
 20
4.731616
 30
0.0
 10
0.009917
 20
4.771562
 30
0.0
 10
0.025242
 20
4.867171
 30
0.0
 10
0.071188
 20
4.935463
 30
0.0
 10
0.147760
 20
4.976441
 30
0.0
 10
0.254962
 20
4.990101
 30
0.0
 10
0.314771
 20
4.980985
 30
0.0
 10
0.371684
 20
4.953666
 30
0.0
 10
0.425698
 20
4.908138
 30
0.0
 10
0.476817
 20
4.844401
 30
0.0
 10
0.797182
 20
4.369235
 30
0.0
 10
1.117546
 20
3.894068
 30
0.0
 10
1.437908
 20
3.418905
 30
0.0
 10
1.758273
 20
2.943739
 30
0.0
 10
2.083604
 20
3.427182
 30
0.0
 10
2.408936
 20
3.910626
 30
0.0
 10
2.734265
 20
4.394070
 30
0.0
 10
3.059597
 20
4.877514
 30
0.0
 10
3.105539
 20
4.931111
 30
0.0
 10
3.157276
 20
4.969397
 30
0.0
 10
3.214810
 20
4.992370
 30
0.0
 10
3.278141
 20
5.000018
 30
0.0
 10
3.382445
 20
4.986161
 30
0.0
 10
3.456946
 20
4.944562
 30
0.0
 10
3.501650
 20
4.875234
 30
0.0
 10
3.516551
 20
4.778175
 30
0.0
 10
3.511161
 20
4.730987
 30
0.0
 10
3.495017
 20
4.678835
 30
0.0
 10
3.468122
 20
4.621716
 30
0.0
 10
3.430459
 20
4.559633
 30
0.0
 10
3.085262
 20
4.044733
 30
0.0
 10
2.740062
 20
3.529832
 30
0.0
 10
2.394864
 20
3.014929
 30
0.0
 10
2.049664
 20
2.500029
 30
0.0
 10
2.400658
 20
1.970227
 30
0.0
 10
2.751653
 20
1.440428
 30
0.0
 10
3.102644
 20
0.910627
 30
0.0
 10
3.453638
 20
0.380825
 30
0.0
 10
3.476808
 20
0.343781
 30
0.0
 10
3.493375
 20
0.308805
 30
0.0
 10
3.503309
 20
0.275898
 30
0.0
 10
3.506611
 20
0.245062
 30
0.0
 10
3.491512
 20
0.137860
 30
0.0
 10
3.446190
 20
0.061287
 30
0.0
 10
3.370653
 20
0.015344
 30
0.0
 10
3.264902
 20
0.000020
 30
0.0
 10
3.198261
 20
0.008910
 30
0.0
 10
3.137416
 20
0.035608
 30
0.0
 10
3.082366
 20
0.080103
 30
0.0
 10
3.033113
 20
0.142395
 30
0.0
 10
2.714405
 20
0.624182
 30
0.0
 10
2.395697
 20
1.105972
 30
0.0
 10
2.076986
 20
1.587760
 30
0.0
 10
1.758278
 20
2.069547
 30
0.0
 10
1.435430
 20
1.583619
 30
0.0
 10
1.112585
 20
1.097692
 30
0.0
 10
0.789737
 20
0.611765
 30
0.0
 10
0.466889
 20
0.125837
 30
0.0
 10
0.422188
 20
0.070787
 30
0.0
 10
0.374173
 20
0.031468
 30
0.0
 10
0.322848
 20
0.007874
 30
0.0
 10
0.268213
 20
0.000000
 30
0.0
 10
0.150870
 20
0.014478
 30
0.0
 10
0.067053
 20
0.057937
 30
0.0
 10
0.016764
 20
0.130370
 30
0.0
 10
0.000000
 20
0.231778
 30
0.0
 10
0.004544
 20
0.272133
 30
0.0
 10
0.018203
 20
0.317043
 30
0.0
 10
0.040979
 20
0.366505
 30
0.0
 10
0.072853
 20
0.420520
 30
0.0
 10
0.422190
 20
0.940387
 30
0.0
 10
0.771531
 20
1.460254
 30
0.0
 10
1.120868
 20
1.980122
 30
0.0
 10
1.470206
 20
2.499989
 30
0.0
  0
ENDSEC
  0
SECTION
  2
OBJECTS
  0
DICTIONARY
  5
C
330
0
100
AcDbDictionary
  3
ACAD_GROUP
350
D
  3
ACAD_MLINESTYLE
350
17
  0
DICTIONARY
  5
D
330
C
100
AcDbDictionary
  0
DICTIONARY
  5
1A
330
C
100
AcDbDictionary
  0
DICTIONARY
  5
17
330
C
100
AcDbDictionary
  3
STANDARD
350
18
  0
DICTIONARY
  5
19
330
C
100
AcDbDictionary
  0
ENDSEC
  0
EOF
