  0
SECTION
  2
HEADER
  9
$ACADVER
  1
AC1014
  9
$HANDSEED
  5
FFFF
  9
$MEASUREMENT
 70
     1
  0
ENDSEC
  0
SECTION
  2
TABLES
  0
TABLE
  2
VPORT
  5
8
330
0
100
AcDbSymbolTable
 70
     4
  0
VPORT
  5
2E
330
8
100
AcDbSymbolTableRecord
100
AcDbViewportTableRecord
  2
*ACTIVE
 70
     0
 10
0.0
 20
0.0
 11
1.0
 21
1.0
 12
210.0
 22
148.5
 13
0.0
 23
0.0
 14
10.0
 24
10.0
 15
10.0
 25
10.0
 16
0.0
 26
0.0
 36
1.0
 17
0.0
 27
0.0
 37
0.0
 40
341.0
 41
1.24
 42
50.0
 43
0.0
 44
0.0
 50
0.0
 51
0.0
 71
     0
 72
   100
 73
     1
 74
     3
 75
     0
 76
     0
 77
     0
 78
     0
  0
ENDTAB
  0
TABLE
  2
LTYPE
  5
5
330
0
100
AcDbSymbolTable
 70
     1
  0
LTYPE
  5
14
330
5
100
AcDbSymbolTableRecord
100
AcDbLinetypeTableRecord
  2
BYBLOCK
 70
     0
  3

 72
    65
 73
     0
 40
0.0
  0
LTYPE
  5
15
330
5
100
AcDbSymbolTableRecord
100
AcDbLinetypeTableRecord
  2
BYLAYER
 70
     0
  3

 72
    65
 73
     0
 40
0.0
  0
LTYPE
  5
16
330
5
100
AcDbSymbolTableRecord
100
AcDbLinetypeTableRecord
  2
CONTINUOUS
 70
     0
  3
Solid line
 72
    65
 73
     0
 40
0.0
  0
ENDTAB
  0
TABLE
  2
LAYER
  5
2
100
AcDbSymbolTable
 70
2
  0
LAYER
  5
50
100
AcDbSymbolTableRecord
100
AcDbLayerTableRecord
  2
0
 70
0
  6
CONTINUOUS
  0
LAYER
  5
51
100
AcDbSymbolTableRecord
100
AcDbLayerTableRecord
  2
Ebene_1
 70
0
  6
CONTINUOUS
  0
ENDTAB
  0
TABLE
  2
STYLE
  5
3
330
0
100
AcDbSymbolTable
 70
     1
  0
STYLE
  5
11
330
3
100
AcDbSymbolTableRecord
100
AcDbTextStyleTableRecord
  2
STANDARD
 70
     0
 40
0.0
 41
1.0
 50
0.0
 71
     0
 42
2.5
  3
txt
  4

  0
ENDTAB
  0
TABLE
  2
VIEW
  5
6
330
0
100
AcDbSymbolTable
 70
     0
  0
ENDTAB
  0
TABLE
  2
UCS
  5
7
330
0
100
AcDbSymbolTable
 70
     0
  0
ENDTAB
  0
TABLE
  2
APPID
  5
9
330
0
100
AcDbSymbolTable
 70
     2
  0
APPID
  5
12
330
9
100
AcDbSymbolTableRecord
100
AcDbRegAppTableRecord
  2
ACAD
 70
     0
  0
ENDTAB
  0
TABLE
  2
DIMSTYLE
  5
A
330
0
100
AcDbSymbolTable
 70
     1
  0
DIMSTYLE
105
27
330
A
100
AcDbSymbolTableRecord
100
AcDbDimStyleTableRecord
  2
ISO-25
 70
     0
  3

  4

  5

  6

  7

 40
1.0
 41
2.5
 42
0.625
 43
3.75
 44
1.25
 45
0.0
 46
0.0
 47
0.0
 48
0.0
140
2.5
141
2.5
142
0.0
143
0.03937007874016
144
1.0
145
0.0
146
1.0
147
0.625
 71
     0
 72
     0
 73
     0
 74
     0
 75
     0
 76
     0
 77
     1
 78
     8
170
     0
171
     3
172
     1
173
     0
174
     0
175
     0
176
     0
177
     0
178
     0
270
     2
271
     2
272
     2
273
     2
274
     3
340
11
275
     0
280
     0
281
     0
282
     0
283
     0
284
     8
285
     0
286
     0
287
     3
288
     0
  0
ENDTAB
  0
TABLE
  2
BLOCK_RECORD
  5
1
330
0
100
AcDbSymbolTable
 70
     1
  0
BLOCK_RECORD
  5
1F
330
1
100
AcDbSymbolTableRecord
100
AcDbBlockTableRecord
  2
*MODEL_SPACE
  0
BLOCK_RECORD
  5
1B
330
1
100
AcDbSymbolTableRecord
100
AcDbBlockTableRecord
  2
*PAPER_SPACE
  0
ENDTAB
  0
ENDSEC
  0
SECTION
  2
BLOCKS
  0
BLOCK
  5
20
330
1F
100
AcDbEntity
  8
0
100
AcDbBlockBegin
  2
*MODEL_SPACE
 70
     0
 10
0.0
 20
0.0
 30
0.0
  3
*MODEL_SPACE
  1

  0
ENDBLK
  5
21
330
1F
100
AcDbEntity
  8
0
100
AcDbBlockEnd
  0
BLOCK
  5
1C
330
1B
100
AcDbEntity
 67
     1
  8
0
100
AcDbBlockBegin
  2
*PAPER_SPACE
  1

  0
ENDBLK
  5
1D
330
1B
100
AcDbEntity
 67
     1
  8
0
100
AcDbBlockEnd
  0
ENDSEC
  0
SECTION
  2
ENTITIES
  0
LWPOLYLINE
  5
100
100
AcDbEntity
  8
Ebene_1
 62
7
100
AcDbPolyline
 90
57
 70
0
 10
1.519860
 20
2.519869
 30
0.0
 10
1.428177
 20
2.650456
 30
0.0
 10
1.153137
 20
3.042217
 30
0.0
 10
0.694735
 20
3.695158
 30
0.0
 10
0.052973
 20
4.609273
 30
0.0
 10
0.029803
 20
4.647351
 30
0.0
 10
0.013236
 20
4.685428
 30
0.0
 10
0.003302
 20
4.723508
 30
0.0
 10
0.000000
 20
4.761591
 30
0.0
 10
0.016341
 20
4.865892
 30
0.0
 10
0.065388
 20
4.940396
 30
0.0
 10
0.147137
 20
4.985097
 30
0.0
 10
0.261580
 20
4.999998
 30
0.0
 10
0.318287
 20
4.990883
 30
0.0
 10
0.372508
 20
4.963564
 30
0.0
 10
0.424248
 20
4.918033
 30
0.0
 10
0.473501
 20
4.854296
 30
0.0
 10
0.793039
 20
4.390720
 30
0.0
 10
1.112574
 20
3.927145
 30
0.0
 10
1.432111
 20
3.463567
 30
0.0
 10
1.751649
 20
2.999991
 30
0.0
 10
2.074497
 20
3.471017
 30
0.0
 10
2.397345
 20
3.942043
 30
0.0
 10
2.720190
 20
4.413069
 30
0.0
 10
3.043039
 20
4.884095
 30
0.0
 10
3.088361
 20
4.934797
 30
0.0
 10
3.138235
 20
4.971011
 30
0.0
 10
3.192664
 20
4.992743
 30
0.0
 10
3.251649
 20
4.999996
 30
0.0
 10
3.361746
 20
4.985913
 30
0.0
 10
3.440388
 20
4.943695
 30
0.0
 10
3.487572
 20
4.873331
 30
0.0
 10
3.503292
 20
4.774825
 30
0.0
 10
3.499369
 20
4.732604
 30
0.0
 10
3.487572
 20
4.688730
 30
0.0
 10
3.467902
 20
4.643199
 30
0.0
 10
3.440385
 20
4.596017
 30
0.0
 10
3.078630
 20
4.073666
 30
0.0
 10
2.716874
 20
3.551315
 30
0.0
 10
2.355119
 20
3.028964
 30
0.0
 10
1.993364
 20
2.506613
 30
0.0
 10
1.993364
 20
1.950322
 30
0.0
 10
1.993364
 20
1.394031
 30
0.0
 10
1.993364
 20
0.837737
 30
0.0
 10
1.993364
 20
0.281446
 30
0.0
 10
1.978886
 20
0.158310
 30
0.0
 10
1.935426
 20
0.070355
 30
0.0
 10
1.862994
 20
0.017582
 30
0.0
 10
1.761589
 20
0.000000
 30
0.0
 10
1.655834
 20
0.018006
 30
0.0
 10
1.580295
 20
0.072020
 30
0.0
 10
1.534973
 20
0.162044
 30
0.0
 10
1.519874
 20
0.288078
 30
0.0
 10
1.519874
 20
0.846026
 30
0.0
 10
1.519874
 20
1.403974
 30
0.0
 10
1.519874
 20
1.961919
 30
0.0
 10
1.519874
 20
2.519866
 30
0.0
  0
ENDSEC
  0
SECTION
  2
OBJECTS
  0
DICTIONARY
  5
C
330
0
100
AcDbDictionary
  3
ACAD_GROUP
350
D
  3
ACAD_MLINESTYLE
350
17
  0
DICTIONARY
  5
D
330
C
100
AcDbDictionary
  0
DICTIONARY
  5
1A
330
C
100
AcDbDictionary
  0
DICTIONARY
  5
17
330
C
100
AcDbDictionary
  3
STANDARD
350
18
  0
DICTIONARY
  5
19
330
C
100
AcDbDictionary
  0
ENDSEC
  0
EOF
