  0
SECTION
  2
HEADER
  9
$ACADVER
  1
AC1014
  9
$HANDSEED
  5
FFFF
  9
$MEASUREMENT
 70
     1
  0
ENDSEC
  0
SECTION
  2
TABLES
  0
TABLE
  2
VPORT
  5
8
330
0
100
AcDbSymbolTable
 70
     4
  0
VPORT
  5
2E
330
8
100
AcDbSymbolTableRecord
100
AcDbViewportTableRecord
  2
*ACTIVE
 70
     0
 10
0.0
 20
0.0
 11
1.0
 21
1.0
 12
210.0
 22
148.5
 13
0.0
 23
0.0
 14
10.0
 24
10.0
 15
10.0
 25
10.0
 16
0.0
 26
0.0
 36
1.0
 17
0.0
 27
0.0
 37
0.0
 40
341.0
 41
1.24
 42
50.0
 43
0.0
 44
0.0
 50
0.0
 51
0.0
 71
     0
 72
   100
 73
     1
 74
     3
 75
     0
 76
     0
 77
     0
 78
     0
  0
ENDTAB
  0
TABLE
  2
LTYPE
  5
5
330
0
100
AcDbSymbolTable
 70
     1
  0
LTYPE
  5
14
330
5
100
AcDbSymbolTableRecord
100
AcDbLinetypeTableRecord
  2
BYBLOCK
 70
     0
  3

 72
    65
 73
     0
 40
0.0
  0
LTYPE
  5
15
330
5
100
AcDbSymbolTableRecord
100
AcDbLinetypeTableRecord
  2
BYLAYER
 70
     0
  3

 72
    65
 73
     0
 40
0.0
  0
LTYPE
  5
16
330
5
100
AcDbSymbolTableRecord
100
AcDbLinetypeTableRecord
  2
CONTINUOUS
 70
     0
  3
Solid line
 72
    65
 73
     0
 40
0.0
  0
ENDTAB
  0
TABLE
  2
LAYER
  5
2
100
AcDbSymbolTable
 70
2
  0
LAYER
  5
50
100
AcDbSymbolTableRecord
100
AcDbLayerTableRecord
  2
0
 70
0
  6
CONTINUOUS
  0
LAYER
  5
51
100
AcDbSymbolTableRecord
100
AcDbLayerTableRecord
  2
Ebene_1
 70
0
  6
CONTINUOUS
  0
ENDTAB
  0
TABLE
  2
STYLE
  5
3
330
0
100
AcDbSymbolTable
 70
     1
  0
STYLE
  5
11
330
3
100
AcDbSymbolTableRecord
100
AcDbTextStyleTableRecord
  2
STANDARD
 70
     0
 40
0.0
 41
1.0
 50
0.0
 71
     0
 42
2.5
  3
txt
  4

  0
ENDTAB
  0
TABLE
  2
VIEW
  5
6
330
0
100
AcDbSymbolTable
 70
     0
  0
ENDTAB
  0
TABLE
  2
UCS
  5
7
330
0
100
AcDbSymbolTable
 70
     0
  0
ENDTAB
  0
TABLE
  2
APPID
  5
9
330
0
100
AcDbSymbolTable
 70
     2
  0
APPID
  5
12
330
9
100
AcDbSymbolTableRecord
100
AcDbRegAppTableRecord
  2
ACAD
 70
     0
  0
ENDTAB
  0
TABLE
  2
DIMSTYLE
  5
A
330
0
100
AcDbSymbolTable
 70
     1
  0
DIMSTYLE
105
27
330
A
100
AcDbSymbolTableRecord
100
AcDbDimStyleTableRecord
  2
ISO-25
 70
     0
  3

  4

  5

  6

  7

 40
1.0
 41
2.5
 42
0.625
 43
3.75
 44
1.25
 45
0.0
 46
0.0
 47
0.0
 48
0.0
140
2.5
141
2.5
142
0.0
143
0.03937007874016
144
1.0
145
0.0
146
1.0
147
0.625
 71
     0
 72
     0
 73
     0
 74
     0
 75
     0
 76
     0
 77
     1
 78
     8
170
     0
171
     3
172
     1
173
     0
174
     0
175
     0
176
     0
177
     0
178
     0
270
     2
271
     2
272
     2
273
     2
274
     3
340
11
275
     0
280
     0
281
     0
282
     0
283
     0
284
     8
285
     0
286
     0
287
     3
288
     0
  0
ENDTAB
  0
TABLE
  2
BLOCK_RECORD
  5
1
330
0
100
AcDbSymbolTable
 70
     1
  0
BLOCK_RECORD
  5
1F
330
1
100
AcDbSymbolTableRecord
100
AcDbBlockTableRecord
  2
*MODEL_SPACE
  0
BLOCK_RECORD
  5
1B
330
1
100
AcDbSymbolTableRecord
100
AcDbBlockTableRecord
  2
*PAPER_SPACE
  0
ENDTAB
  0
ENDSEC
  0
SECTION
  2
BLOCKS
  0
BLOCK
  5
20
330
1F
100
AcDbEntity
  8
0
100
AcDbBlockBegin
  2
*MODEL_SPACE
 70
     0
 10
0.0
 20
0.0
 30
0.0
  3
*MODEL_SPACE
  1

  0
ENDBLK
  5
21
330
1F
100
AcDbEntity
  8
0
100
AcDbBlockEnd
  0
BLOCK
  5
1C
330
1B
100
AcDbEntity
 67
     1
  8
0
100
AcDbBlockBegin
  2
*PAPER_SPACE
  1

  0
ENDBLK
  5
1D
330
1B
100
AcDbEntity
 67
     1
  8
0
100
AcDbBlockEnd
  0
ENDSEC
  0
SECTION
  2
ENTITIES
  0
LWPOLYLINE
  5
100
100
AcDbEntity
  8
Ebene_1
 62
7
100
AcDbPolyline
 90
57
 70
0
 10
0.639053
 20
0.470188
 30
0.0
 10
1.164714
 20
0.470188
 30
0.0
 10
1.690378
 20
0.470188
 30
0.0
 10
2.216043
 20
0.470188
 30
0.0
 10
2.741704
 20
0.470188
 30
0.0
 10
2.854698
 20
0.454665
 30
0.0
 10
2.935410
 20
0.408102
 30
0.0
 10
2.983837
 20
0.330493
 30
0.0
 10
2.999980
 20
0.221843
 30
0.0
 10
2.983639
 20
0.124784
 30
0.0
 10
2.934592
 20
0.055454
 30
0.0
 10
2.852846
 20
0.013857
 30
0.0
 10
2.738402
 20
-0.000000
 30
0.0
 10
2.116715
 20
-0.000000
 30
0.0
 10
1.495027
 20
-0.000000
 30
0.0
 10
0.873337
 20
-0.000000
 30
0.0
 10
0.251649
 20
-0.000000
 30
0.0
 10
0.141549
 20
0.014901
 30
0.0
 10
0.062905
 20
0.059602
 30
0.0
 10
0.015720
 20
0.134103
 30
0.0
 10
0.000000
 20
0.238410
 30
0.0
 10
0.004770
 20
0.286009
 30
0.0
 10
0.019050
 20
0.339403
 30
0.0
 10
0.042841
 20
0.398591
 30
0.0
 10
0.076155
 20
0.463575
 30
0.0
 10
0.644037
 20
1.477648
 30
0.0
 10
1.211916
 20
2.491720
 30
0.0
 10
1.779798
 20
3.505792
 30
0.0
 10
2.347677
 20
4.519865
 30
0.0
 10
1.831950
 20
4.519865
 30
0.0
 10
1.316220
 20
4.519865
 30
0.0
 10
0.800492
 20
4.519865
 30
0.0
 10
0.284762
 20
4.519865
 30
0.0
 10
0.163074
 20
4.536205
 30
0.0
 10
0.076155
 20
4.585256
 30
0.0
 10
0.024003
 20
4.667001
 30
0.0
 10
0.006618
 20
4.781451
 30
0.0
 10
0.024624
 20
4.877059
 30
0.0
 10
0.078638
 20
4.945354
 30
0.0
 10
0.168662
 20
4.986330
 30
0.0
 10
0.294696
 20
4.999990
 30
0.0
 10
0.890724
 20
4.999990
 30
0.0
 10
1.486749
 20
4.999990
 30
0.0
 10
2.082777
 20
4.999990
 30
0.0
 10
2.678803
 20
4.999990
 30
0.0
 10
2.814978
 20
4.986330
 30
0.0
 10
2.912245
 20
4.945354
 30
0.0
 10
2.970606
 20
4.877059
 30
0.0
 10
2.990051
 20
4.781451
 30
0.0
 10
2.986749
 20
4.731986
 30
0.0
 10
2.976815
 20
4.682936
 30
0.0
 10
2.960249
 20
4.634303
 30
0.0
 10
2.937078
 20
4.586085
 30
0.0
 10
2.362575
 20
3.557112
 30
0.0
 10
1.788073
 20
2.528138
 30
0.0
 10
1.213567
 20
1.499164
 30
0.0
 10
0.639064
 20
0.470190
 30
0.0
  0
ENDSEC
  0
SECTION
  2
OBJECTS
  0
DICTIONARY
  5
C
330
0
100
AcDbDictionary
  3
ACAD_GROUP
350
D
  3
ACAD_MLINESTYLE
350
17
  0
DICTIONARY
  5
D
330
C
100
AcDbDictionary
  0
DICTIONARY
  5
1A
330
C
100
AcDbDictionary
  0
DICTIONARY
  5
17
330
C
100
AcDbDictionary
  3
STANDARD
350
18
  0
DICTIONARY
  5
19
330
C
100
AcDbDictionary
  0
ENDSEC
  0
EOF
