solid OpenSCAD_Model
  facet normal 0 -1 0
    outer loop
      vertex -6.659 0 2.506
      vertex -6.537 0 2.026
      vertex -6.338 0 1.572
    endloop
  endfacet
  facet normal 0 -1 0
    outer loop
      vertex -5.821 0 0.879
      vertex -6.659 0 2.506
      vertex -6.067 0 1.157
    endloop
  endfacet
  facet normal 0 -1 0
    outer loop
      vertex -6.067 0 1.157
      vertex -6.659 0 2.506
      vertex -6.338 0 1.572
    endloop
  endfacet
  facet normal 0 -1 0
    outer loop
      vertex -4.94241 0 0
      vertex -6.659 0 2.506
      vertex -5.821 0 0.879
    endloop
  endfacet
  facet normal 0 -1 0
    outer loop
      vertex 4.94241 0 0
      vertex -6.659 0 2.506
      vertex -4.94241 0 0
    endloop
  endfacet
  facet normal 0 -1 0
    outer loop
      vertex 5.821 0 0.879
      vertex -6.659 0 2.506
      vertex 4.94241 0 0
    endloop
  endfacet
  facet normal 0 -1 0
    outer loop
      vertex 6.067 0 1.157
      vertex -6.659 0 2.506
      vertex 5.821 0 0.879
    endloop
  endfacet
  facet normal 0 -1 0
    outer loop
      vertex 6.338 0 1.572
      vertex -6.659 0 2.506
      vertex 6.067 0 1.157
    endloop
  endfacet
  facet normal 0 -1 0
    outer loop
      vertex 6.537 0 2.026
      vertex -6.659 0 2.506
      vertex 6.338 0 1.572
    endloop
  endfacet
  facet normal 0 -1 0
    outer loop
      vertex 6.659 0 2.506
      vertex -6.659 0 2.506
      vertex 6.537 0 2.026
    endloop
  endfacet
  facet normal 0 -1 0
    outer loop
      vertex 6.7 0 3
      vertex -6.659 0 2.506
      vertex 6.659 0 2.506
    endloop
  endfacet
  facet normal 0 -1 0
    outer loop
      vertex 0.2 0 4.04145
      vertex -6.659 0 2.506
      vertex 6.7 0 3
    endloop
  endfacet
  facet normal 0 -1 0
    outer loop
      vertex 6.7 0 11.4829
      vertex 0.2 0 4.04145
      vertex 6.7 0 3
    endloop
  endfacet
  facet normal 0 -1 0
    outer loop
      vertex -2.2 0 4.04145
      vertex -6.659 0 2.506
      vertex 0.2 0 4.04145
    endloop
  endfacet
  facet normal 0 -1 0
    outer loop
      vertex -2.2 0 4.04145
      vertex -2.2 0 14.4729
      vertex -6.659 0 2.506
    endloop
  endfacet
  facet normal 0 -1 0
    outer loop
      vertex -3.948 0 14.4729
      vertex -6.659 0 2.506
      vertex -2.2 0 14.4729
    endloop
  endfacet
  facet normal 0 -1 0
    outer loop
      vertex -4.436 0 14.3909
      vertex -6.659 0 2.506
      vertex -3.948 0 14.4729
    endloop
  endfacet
  facet normal 0 -1 0
    outer loop
      vertex -4.905 0 14.2299
      vertex -6.659 0 2.506
      vertex -4.436 0 14.3909
    endloop
  endfacet
  facet normal 0 -1 0
    outer loop
      vertex -5.341 0 13.9939
      vertex -6.659 0 2.506
      vertex -4.905 0 14.2299
    endloop
  endfacet
  facet normal 0 -1 0
    outer loop
      vertex -5.732 0 13.6899
      vertex -6.659 0 2.506
      vertex -5.341 0 13.9939
    endloop
  endfacet
  facet normal 0 -1 0
    outer loop
      vertex -6.067 0 13.3259
      vertex -6.659 0 2.506
      vertex -5.732 0 13.6899
    endloop
  endfacet
  facet normal 0 -1 0
    outer loop
      vertex -6.338 0 12.9109
      vertex -6.659 0 2.506
      vertex -6.067 0 13.3259
    endloop
  endfacet
  facet normal 0 -1 0
    outer loop
      vertex -6.537 0 12.4569
      vertex -6.659 0 2.506
      vertex -6.338 0 12.9109
    endloop
  endfacet
  facet normal 0 -1 0
    outer loop
      vertex -6.659 0 11.9769
      vertex -6.659 0 2.506
      vertex -6.537 0 12.4569
    endloop
  endfacet
  facet normal 0 -1 0
    outer loop
      vertex -6.7 0 11.4829
      vertex -6.659 0 2.506
      vertex -6.659 0 11.9769
    endloop
  endfacet
  facet normal 0 -1 0
    outer loop
      vertex -6.7 0 3
      vertex -6.659 0 2.506
      vertex -6.7 0 11.4829
    endloop
  endfacet
  facet normal 0 -1 0
    outer loop
      vertex 0.2 0 14.4729
      vertex 4.436 0 14.3909
      vertex 3.948 0 14.4729
    endloop
  endfacet
  facet normal 0 -1 0
    outer loop
      vertex 0.2 0 14.4729
      vertex 4.905 0 14.2299
      vertex 4.436 0 14.3909
    endloop
  endfacet
  facet normal 0 -1 0
    outer loop
      vertex 0.2 0 14.4729
      vertex 5.341 0 13.9939
      vertex 4.905 0 14.2299
    endloop
  endfacet
  facet normal 0 -1 0
    outer loop
      vertex 0.2 0 14.4729
      vertex 5.732 0 13.6899
      vertex 5.341 0 13.9939
    endloop
  endfacet
  facet normal 0 -1 0
    outer loop
      vertex 0.2 0 14.4729
      vertex 6.067 0 13.3259
      vertex 5.732 0 13.6899
    endloop
  endfacet
  facet normal 0 -1 0
    outer loop
      vertex 0.2 0 14.4729
      vertex 6.338 0 12.9109
      vertex 6.067 0 13.3259
    endloop
  endfacet
  facet normal 0 -1 0
    outer loop
      vertex 0.2 0 14.4729
      vertex 6.537 0 12.4569
      vertex 6.338 0 12.9109
    endloop
  endfacet
  facet normal 0 -1 0
    outer loop
      vertex 0.2 0 14.4729
      vertex 6.659 0 11.9769
      vertex 6.537 0 12.4569
    endloop
  endfacet
  facet normal 0 -1 0
    outer loop
      vertex 0.2 0 14.4729
      vertex 6.7 0 11.4829
      vertex 6.659 0 11.9769
    endloop
  endfacet
  facet normal 0 -1 0
    outer loop
      vertex 0.2 0 14.4729
      vertex 0.2 0 4.04145
      vertex 6.7 0 11.4829
    endloop
  endfacet
  facet normal -0.996574 0 -0.0827116
    outer loop
      vertex -6.659 32.7 2.506
      vertex -6.659 0 2.506
      vertex -6.7 32.7 3
    endloop
  endfacet
  facet normal -0.996574 0 -0.0827116
    outer loop
      vertex -6.7 32.7 3
      vertex -6.659 0 2.506
      vertex -6.7 0 3
    endloop
  endfacet
  facet normal -1 0 0
    outer loop
      vertex -6.7 32.7 11.4829
      vertex -6.7 32.7 3
      vertex -6.7 0 11.4829
    endloop
  endfacet
  facet normal -1 0 0
    outer loop
      vertex -6.7 0 11.4829
      vertex -6.7 32.7 3
      vertex -6.7 0 3
    endloop
  endfacet
  facet normal -0.969185 0 -0.246334
    outer loop
      vertex -6.537 32.7 2.026
      vertex -6.537 0 2.026
      vertex -6.659 32.7 2.506
    endloop
  endfacet
  facet normal -0.969185 0 -0.246334
    outer loop
      vertex -6.659 32.7 2.506
      vertex -6.537 0 2.026
      vertex -6.659 0 2.506
    endloop
  endfacet
  facet normal -0.996574 0 0.0827116
    outer loop
      vertex -6.659 32.7 11.9769
      vertex -6.7 32.7 11.4829
      vertex -6.659 0 11.9769
    endloop
  endfacet
  facet normal -0.996574 0 0.0827116
    outer loop
      vertex -6.659 0 11.9769
      vertex -6.7 32.7 11.4829
      vertex -6.7 0 11.4829
    endloop
  endfacet
  facet normal -0.969185 0 0.246334
    outer loop
      vertex -6.537 32.7 12.4569
      vertex -6.659 32.7 11.9769
      vertex -6.537 0 12.4569
    endloop
  endfacet
  facet normal -0.969185 0 0.246334
    outer loop
      vertex -6.537 0 12.4569
      vertex -6.659 32.7 11.9769
      vertex -6.659 0 11.9769
    endloop
  endfacet
  facet normal -0.915879 0 0.401454
    outer loop
      vertex -6.338 32.7 12.9109
      vertex -6.537 32.7 12.4569
      vertex -6.338 0 12.9109
    endloop
  endfacet
  facet normal -0.915879 0 0.401454
    outer loop
      vertex -6.338 0 12.9109
      vertex -6.537 32.7 12.4569
      vertex -6.537 0 12.4569
    endloop
  endfacet
  facet normal -0.837289 0 0.54676
    outer loop
      vertex -6.067 32.7 13.3259
      vertex -6.338 32.7 12.9109
      vertex -6.067 0 13.3259
    endloop
  endfacet
  facet normal -0.837289 0 0.54676
    outer loop
      vertex -6.067 0 13.3259
      vertex -6.338 32.7 12.9109
      vertex -6.338 0 12.9109
    endloop
  endfacet
  facet normal -0.73581 0 0.677188
    outer loop
      vertex -5.732 32.7 13.6899
      vertex -6.067 32.7 13.3259
      vertex -5.732 0 13.6899
    endloop
  endfacet
  facet normal -0.73581 0 0.677188
    outer loop
      vertex -5.732 0 13.6899
      vertex -6.067 32.7 13.3259
      vertex -6.067 0 13.3259
    endloop
  endfacet
  facet normal -0.613801 0 0.789461
    outer loop
      vertex -5.341 0 13.9939
      vertex -5.341 32.7 13.9939
      vertex -5.732 32.7 13.6899
    endloop
  endfacet
  facet normal -0.613801 0 0.789461
    outer loop
      vertex -5.732 0 13.6899
      vertex -5.341 0 13.9939
      vertex -5.732 32.7 13.6899
    endloop
  endfacet
  facet normal -0.476023 0 0.879433
    outer loop
      vertex -4.905 0 14.2299
      vertex -4.905 32.7 14.2299
      vertex -5.341 32.7 13.9939
    endloop
  endfacet
  facet normal -0.476023 0 0.879433
    outer loop
      vertex -5.341 0 13.9939
      vertex -4.905 0 14.2299
      vertex -5.341 32.7 13.9939
    endloop
  endfacet
  facet normal -0.324685 0 0.945822
    outer loop
      vertex -4.436 0 14.3909
      vertex -4.436 32.7 14.3909
      vertex -4.905 32.7 14.2299
    endloop
  endfacet
  facet normal -0.324685 0 0.945822
    outer loop
      vertex -4.905 0 14.2299
      vertex -4.436 0 14.3909
      vertex -4.905 32.7 14.2299
    endloop
  endfacet
  facet normal -0.16571 0 0.986175
    outer loop
      vertex -3.948 0 14.4729
      vertex -3.948 32.7 14.4729
      vertex -4.436 32.7 14.3909
    endloop
  endfacet
  facet normal -0.16571 0 0.986175
    outer loop
      vertex -4.436 0 14.3909
      vertex -3.948 0 14.4729
      vertex -4.436 32.7 14.3909
    endloop
  endfacet
  facet normal 0 0 1
    outer loop
      vertex -3.4 5 14.4729
      vertex -3.4 15 14.4729
      vertex -3.4 2.5 14.4729
    endloop
  endfacet
  facet normal 0 0 1
    outer loop
      vertex -2.2 0 14.4729
      vertex -2.2 2.5 14.4729
      vertex -3.4 2.5 14.4729
    endloop
  endfacet
  facet normal 0 0 1
    outer loop
      vertex -3.4 7.5 14.4729
      vertex -3.4 15 14.4729
      vertex -3.4 5 14.4729
    endloop
  endfacet
  facet normal 0 0 1
    outer loop
      vertex -3.948 0 14.4729
      vertex -2.2 0 14.4729
      vertex -3.4 2.5 14.4729
    endloop
  endfacet
  facet normal 0 0 1
    outer loop
      vertex -2.2 5 14.4729
      vertex -2.2 7.5 14.4729
      vertex -3.4 5 14.4729
    endloop
  endfacet
  facet normal 0 0 1
    outer loop
      vertex -2.2 7.5 14.4729
      vertex -3.4 7.5 14.4729
      vertex -3.4 5 14.4729
    endloop
  endfacet
  facet normal 0 0 1
    outer loop
      vertex -3.4 10 14.4729
      vertex -3.4 15 14.4729
      vertex -3.4 7.5 14.4729
    endloop
  endfacet
  facet normal 0 0 1
    outer loop
      vertex -3.4 12.5 14.4729
      vertex -3.4 15 14.4729
      vertex -3.4 10 14.4729
    endloop
  endfacet
  facet normal 0 0 1
    outer loop
      vertex -2.2 10 14.4729
      vertex -2.2 12.5 14.4729
      vertex -3.4 10 14.4729
    endloop
  endfacet
  facet normal 0 0 1
    outer loop
      vertex -2.2 12.5 14.4729
      vertex -3.4 12.5 14.4729
      vertex -3.4 10 14.4729
    endloop
  endfacet
  facet normal 0 0 1
    outer loop
      vertex -3.4 15 14.4729
      vertex -3.7 20.5 14.4729
      vertex -3.4 2.5 14.4729
    endloop
  endfacet
  facet normal 0 0 1
    outer loop
      vertex -3.35087 15.4831 14.4729
      vertex -3.7 20.5 14.4729
      vertex -3.4 15 14.4729
    endloop
  endfacet
  facet normal 0 0 1
    outer loop
      vertex -3.2055 15.9465 14.4729
      vertex -3.7 20.5 14.4729
      vertex -3.35087 15.4831 14.4729
    endloop
  endfacet
  facet normal 0 0 1
    outer loop
      vertex 3.7 20.5 14.4729
      vertex -0.878442 17.3969 14.4729
      vertex -0.398434 17.3234 14.4729
    endloop
  endfacet
  facet normal 0 0 1
    outer loop
      vertex 3.7 20.5 14.4729
      vertex -0.398434 17.3234 14.4729
      vertex 0.056946 17.1547 14.4729
    endloop
  endfacet
  facet normal 0 0 1
    outer loop
      vertex 3.7 20.5 14.4729
      vertex 0.056946 17.1547 14.4729
      vertex 0.469054 16.8979 14.4729
    endloop
  endfacet
  facet normal 0 0 1
    outer loop
      vertex 3.7 20.5 14.4729
      vertex 0.469054 16.8979 14.4729
      vertex 0.821019 16.5633 14.4729
    endloop
  endfacet
  facet normal 0 0 1
    outer loop
      vertex 3.7 20.5 14.4729
      vertex 0.821019 16.5633 14.4729
      vertex 1.09843 16.1647 14.4729
    endloop
  endfacet
  facet normal 0 0 1
    outer loop
      vertex 2.2 23.7 14.4729
      vertex 3.7 23.7 14.4729
      vertex 3.948 32.7 14.4729
    endloop
  endfacet
  facet normal 0 0 1
    outer loop
      vertex 3.7 20.5 14.4729
      vertex 1.09843 16.1647 14.4729
      vertex 1.28993 15.7185 14.4729
    endloop
  endfacet
  facet normal 0 0 1
    outer loop
      vertex 3.7 20.5 14.4729
      vertex 1.28993 15.7185 14.4729
      vertex 1.38769 15.2428 14.4729
    endloop
  endfacet
  facet normal 0 0 1
    outer loop
      vertex 0.2 10 14.4729
      vertex 1.4 10 14.4729
      vertex 1.4 12.5 14.4729
    endloop
  endfacet
  facet normal 0 0 1
    outer loop
      vertex 1.38769 15.2428 14.4729
      vertex 1.38769 15 14.4729
      vertex 1.4 15 14.4729
    endloop
  endfacet
  facet normal 0 0 1
    outer loop
      vertex 1.38769 15.2428 14.4729
      vertex 1.4 15 14.4729
      vertex 3.948 0 14.4729
    endloop
  endfacet
  facet normal 0 0 1
    outer loop
      vertex 1.4 15 14.4729
      vertex 1.4 12.5 14.4729
      vertex 3.948 0 14.4729
    endloop
  endfacet
  facet normal 0 0 1
    outer loop
      vertex 1.4 12.5 14.4729
      vertex 1.4 10 14.4729
      vertex 3.948 0 14.4729
    endloop
  endfacet
  facet normal 0 0 1
    outer loop
      vertex 1.4 10 14.4729
      vertex 1.4 7.5 14.4729
      vertex 3.948 0 14.4729
    endloop
  endfacet
  facet normal 0 0 1
    outer loop
      vertex 0.2 2.5 14.4729
      vertex 0.2 0 14.4729
      vertex 1.4 2.5 14.4729
    endloop
  endfacet
  facet normal 0 0 1
    outer loop
      vertex 0.2 5 14.4729
      vertex 1.4 5 14.4729
      vertex 1.4 7.5 14.4729
    endloop
  endfacet
  facet normal 0 0 1
    outer loop
      vertex 1.4 7.5 14.4729
      vertex 1.4 5 14.4729
      vertex 3.948 0 14.4729
    endloop
  endfacet
  facet normal 0 0 1
    outer loop
      vertex 1.4 5 14.4729
      vertex 1.4 2.5 14.4729
      vertex 3.948 0 14.4729
    endloop
  endfacet
  facet normal 0 0 1
    outer loop
      vertex 1.4 2.5 14.4729
      vertex 0.2 0 14.4729
      vertex 3.948 0 14.4729
    endloop
  endfacet
  facet normal 0 0 1
    outer loop
      vertex 3.7 23.7 14.4729
      vertex 3.948 0 14.4729
      vertex 3.948 32.7 14.4729
    endloop
  endfacet
  facet normal 0 0 1
    outer loop
      vertex 3.7 20.5 14.4729
      vertex -1.36343 17.3723 14.4729
      vertex -0.878442 17.3969 14.4729
    endloop
  endfacet
  facet normal 0 0 1
    outer loop
      vertex 3.7 20.5 14.4729
      vertex 3.948 0 14.4729
      vertex 3.7 23.7 14.4729
    endloop
  endfacet
  facet normal 0 0 1
    outer loop
      vertex 1.38769 15.2428 14.4729
      vertex 3.948 0 14.4729
      vertex 3.7 20.5 14.4729
    endloop
  endfacet
  facet normal 0 0 1
    outer loop
      vertex -3.4 2.5 14.4729
      vertex -3.7 20.5 14.4729
      vertex -3.948 32.7 14.4729
    endloop
  endfacet
  facet normal 0 0 1
    outer loop
      vertex -3.7 20.5 14.4729
      vertex -3.7 23.7 14.4729
      vertex -3.948 32.7 14.4729
    endloop
  endfacet
  facet normal 0 0 1
    outer loop
      vertex -3.7 23.7 14.4729
      vertex -2.2 32.7 14.4729
      vertex -3.948 32.7 14.4729
    endloop
  endfacet
  facet normal 0 0 1
    outer loop
      vertex -3.4 2.5 14.4729
      vertex -3.948 32.7 14.4729
      vertex -3.948 0 14.4729
    endloop
  endfacet
  facet normal 0 0 1
    outer loop
      vertex 1.4 7.5 14.4729
      vertex 0.2 7.5 14.4729
      vertex 0.2 5 14.4729
    endloop
  endfacet
  facet normal 0 0 1
    outer loop
      vertex 1.4 12.5 14.4729
      vertex 0.2 12.5 14.4729
      vertex 0.2 10 14.4729
    endloop
  endfacet
  facet normal 0 0 1
    outer loop
      vertex -2.2 23.7 14.4729
      vertex -2.2 32.7 14.4729
      vertex -3.7 23.7 14.4729
    endloop
  endfacet
  facet normal 0 0 1
    outer loop
      vertex 2.2 32.7 14.4729
      vertex 2.2 23.7 14.4729
      vertex 3.948 32.7 14.4729
    endloop
  endfacet
  facet normal 0 0 1
    outer loop
      vertex 3.7 20.5 14.4729
      vertex -1.83353 17.2506 14.4729
      vertex -1.36343 17.3723 14.4729
    endloop
  endfacet
  facet normal 0 0 1
    outer loop
      vertex 3.7 20.5 14.4729
      vertex -2.26951 17.0367 14.4729
      vertex -1.83353 17.2506 14.4729
    endloop
  endfacet
  facet normal 0 0 1
    outer loop
      vertex -2.96983 16.371 14.4729
      vertex -3.7 20.5 14.4729
      vertex -3.2055 15.9465 14.4729
    endloop
  endfacet
  facet normal 0 0 1
    outer loop
      vertex -2.65352 16.7395 14.4729
      vertex -3.7 20.5 14.4729
      vertex -2.96983 16.371 14.4729
    endloop
  endfacet
  facet normal 0 0 1
    outer loop
      vertex -2.26951 17.0367 14.4729
      vertex -3.7 20.5 14.4729
      vertex -2.65352 16.7395 14.4729
    endloop
  endfacet
  facet normal 0 0 1
    outer loop
      vertex 3.7 20.5 14.4729
      vertex -3.7 20.5 14.4729
      vertex -2.26951 17.0367 14.4729
    endloop
  endfacet
  facet normal 1 0 0
    outer loop
      vertex -2.2 0 14.4729
      vertex -2.2 0 4.04145
      vertex -2.2 2.5 4.04145
    endloop
  endfacet
  facet normal 1 0 0
    outer loop
      vertex -2.2 2.5 14.4729
      vertex -2.2 0 14.4729
      vertex -2.2 2.5 4.04145
    endloop
  endfacet
  facet normal 0 0 1
    outer loop
      vertex 0.2 10 4.04145
      vertex 0.2 12.5 4.04145
      vertex -3.35087 15.4831 4.04145
    endloop
  endfacet
  facet normal 0 0 1
    outer loop
      vertex -3.4 12.5 4.04145
      vertex -3.35087 15.4831 4.04145
      vertex -3.4 15 4.04145
    endloop
  endfacet
  facet normal 0 0 1
    outer loop
      vertex -3.4 12.5 4.04145
      vertex -2.2 12.5 4.04145
      vertex -3.35087 15.4831 4.04145
    endloop
  endfacet
  facet normal 0 0 1
    outer loop
      vertex -2.2 10 4.04145
      vertex 0.2 0 4.04145
      vertex -2.2 12.5 4.04145
    endloop
  endfacet
  facet normal 0 0 1
    outer loop
      vertex -2.2 7.5 4.04145
      vertex 0.2 0 4.04145
      vertex -2.2 10 4.04145
    endloop
  endfacet
  facet normal 0 0 1
    outer loop
      vertex -3.4 10 4.04145
      vertex -3.4 7.5 4.04145
      vertex -2.2 10 4.04145
    endloop
  endfacet
  facet normal 0 0 1
    outer loop
      vertex -3.4 7.5 4.04145
      vertex -2.2 7.5 4.04145
      vertex -2.2 10 4.04145
    endloop
  endfacet
  facet normal 0 0 1
    outer loop
      vertex -2.2 5 4.04145
      vertex 0.2 0 4.04145
      vertex -2.2 7.5 4.04145
    endloop
  endfacet
  facet normal 0 0 1
    outer loop
      vertex -2.2 2.5 4.04145
      vertex 0.2 0 4.04145
      vertex -2.2 5 4.04145
    endloop
  endfacet
  facet normal 0 0 1
    outer loop
      vertex -3.4 5 4.04145
      vertex -3.4 2.5 4.04145
      vertex -2.2 5 4.04145
    endloop
  endfacet
  facet normal 0 0 1
    outer loop
      vertex -3.4 2.5 4.04145
      vertex -2.2 2.5 4.04145
      vertex -2.2 5 4.04145
    endloop
  endfacet
  facet normal 0 0 1
    outer loop
      vertex -2.2 0 4.04145
      vertex 0.2 0 4.04145
      vertex -2.2 2.5 4.04145
    endloop
  endfacet
  facet normal 0 0 1
    outer loop
      vertex 0.2 0 4.04145
      vertex 0.2 2.5 4.04145
      vertex -2.2 12.5 4.04145
    endloop
  endfacet
  facet normal 0 0 1
    outer loop
      vertex 0.2 12.5 4.04145
      vertex 1.4 12.5 4.04145
      vertex -3.35087 15.4831 4.04145
    endloop
  endfacet
  facet normal 0 0 1
    outer loop
      vertex 0.2 2.5 4.04145
      vertex 0.2 5 4.04145
      vertex -2.2 12.5 4.04145
    endloop
  endfacet
  facet normal 0 0 1
    outer loop
      vertex 0.2 2.5 4.04145
      vertex 1.4 2.5 4.04145
      vertex 0.2 5 4.04145
    endloop
  endfacet
  facet normal 0 0 1
    outer loop
      vertex 0.2 7.5 4.04145
      vertex -3.35087 15.4831 4.04145
      vertex -2.2 12.5 4.04145
    endloop
  endfacet
  facet normal 0 0 1
    outer loop
      vertex 0.2 7.5 4.04145
      vertex 1.4 7.5 4.04145
      vertex -3.35087 15.4831 4.04145
    endloop
  endfacet
  facet normal 0 0 1
    outer loop
      vertex 1.38769 15 4.04145
      vertex 1.38769 15.2428 4.04145
      vertex -3.35087 15.4831 4.04145
    endloop
  endfacet
  facet normal 0 0 1
    outer loop
      vertex 1.4 7.5 4.04145
      vertex 0.2 10 4.04145
      vertex -3.35087 15.4831 4.04145
    endloop
  endfacet
  facet normal 0 0 1
    outer loop
      vertex 1.4 7.5 4.04145
      vertex 1.4 10 4.04145
      vertex 0.2 10 4.04145
    endloop
  endfacet
  facet normal 0 0 1
    outer loop
      vertex 1.4 12.5 4.04145
      vertex 1.38769 15 4.04145
      vertex -3.35087 15.4831 4.04145
    endloop
  endfacet
  facet normal 0 0 1
    outer loop
      vertex 1.4 12.5 4.04145
      vertex 1.4 15 4.04145
      vertex 1.38769 15 4.04145
    endloop
  endfacet
  facet normal 0 0 1
    outer loop
      vertex 1.38769 15.2428 4.04145
      vertex 1.28993 15.7185 4.04145
      vertex -3.35087 15.4831 4.04145
    endloop
  endfacet
  facet normal 0 0 1
    outer loop
      vertex 1.28993 15.7185 4.04145
      vertex 1.09843 16.1647 4.04145
      vertex -3.35087 15.4831 4.04145
    endloop
  endfacet
  facet normal 0 0 1
    outer loop
      vertex 1.09843 16.1647 4.04145
      vertex 0.821019 16.5633 4.04145
      vertex -3.35087 15.4831 4.04145
    endloop
  endfacet
  facet normal 0 0 1
    outer loop
      vertex 0.821019 16.5633 4.04145
      vertex 0.469054 16.8979 4.04145
      vertex -3.35087 15.4831 4.04145
    endloop
  endfacet
  facet normal 0 0 1
    outer loop
      vertex 0.469054 16.8979 4.04145
      vertex 0.056946 17.1547 4.04145
      vertex -3.35087 15.4831 4.04145
    endloop
  endfacet
  facet normal 0 0 1
    outer loop
      vertex 0.056946 17.1547 4.04145
      vertex -0.398434 17.3234 4.04145
      vertex -3.35087 15.4831 4.04145
    endloop
  endfacet
  facet normal 0 0 1
    outer loop
      vertex -0.398434 17.3234 4.04145
      vertex -0.878442 17.3969 4.04145
      vertex -3.35087 15.4831 4.04145
    endloop
  endfacet
  facet normal 0 0 1
    outer loop
      vertex -0.878442 17.3969 4.04145
      vertex -1.36343 17.3723 4.04145
      vertex -3.35087 15.4831 4.04145
    endloop
  endfacet
  facet normal 0 0 1
    outer loop
      vertex -1.36343 17.3723 4.04145
      vertex -1.83353 17.2506 4.04145
      vertex -3.35087 15.4831 4.04145
    endloop
  endfacet
  facet normal 0 0 1
    outer loop
      vertex -1.83353 17.2506 4.04145
      vertex -2.26951 17.0367 4.04145
      vertex -3.35087 15.4831 4.04145
    endloop
  endfacet
  facet normal 0 0 1
    outer loop
      vertex -2.26951 17.0367 4.04145
      vertex -2.65352 16.7395 4.04145
      vertex -3.35087 15.4831 4.04145
    endloop
  endfacet
  facet normal 0 0 1
    outer loop
      vertex -2.65352 16.7395 4.04145
      vertex -2.96983 16.371 4.04145
      vertex -3.35087 15.4831 4.04145
    endloop
  endfacet
  facet normal 0 0 1
    outer loop
      vertex -2.96983 16.371 4.04145
      vertex -3.2055 15.9465 4.04145
      vertex -3.35087 15.4831 4.04145
    endloop
  endfacet
  facet normal 0 0 1
    outer loop
      vertex 0.2 5 4.04145
      vertex 0.2 7.5 4.04145
      vertex -2.2 12.5 4.04145
    endloop
  endfacet
  facet normal 0 0 1
    outer loop
      vertex 1.4 5 4.04145
      vertex 0.2 5 4.04145
      vertex 1.4 2.5 4.04145
    endloop
  endfacet
  facet normal -1 0 0
    outer loop
      vertex 0.2 0 4.04145
      vertex 0.2 0 14.4729
      vertex 0.2 2.5 4.04145
    endloop
  endfacet
  facet normal -1 0 0
    outer loop
      vertex 0.2 2.5 4.04145
      vertex 0.2 0 14.4729
      vertex 0.2 2.5 14.4729
    endloop
  endfacet
  facet normal 0.16571 0 0.986175
    outer loop
      vertex 4.436 0 14.3909
      vertex 4.436 32.7 14.3909
      vertex 3.948 32.7 14.4729
    endloop
  endfacet
  facet normal 0.16571 0 0.986175
    outer loop
      vertex 3.948 0 14.4729
      vertex 4.436 0 14.3909
      vertex 3.948 32.7 14.4729
    endloop
  endfacet
  facet normal 0.324685 0 0.945822
    outer loop
      vertex 4.905 0 14.2299
      vertex 4.905 32.7 14.2299
      vertex 4.436 32.7 14.3909
    endloop
  endfacet
  facet normal 0.324685 0 0.945822
    outer loop
      vertex 4.436 0 14.3909
      vertex 4.905 0 14.2299
      vertex 4.436 32.7 14.3909
    endloop
  endfacet
  facet normal 0.476023 0 0.879433
    outer loop
      vertex 5.341 0 13.9939
      vertex 5.341 32.7 13.9939
      vertex 4.905 32.7 14.2299
    endloop
  endfacet
  facet normal 0.476023 0 0.879433
    outer loop
      vertex 4.905 0 14.2299
      vertex 5.341 0 13.9939
      vertex 4.905 32.7 14.2299
    endloop
  endfacet
  facet normal 0.613801 0 0.789461
    outer loop
      vertex 5.732 0 13.6899
      vertex 5.732 32.7 13.6899
      vertex 5.341 32.7 13.9939
    endloop
  endfacet
  facet normal 0.613801 0 0.789461
    outer loop
      vertex 5.341 0 13.9939
      vertex 5.732 0 13.6899
      vertex 5.341 32.7 13.9939
    endloop
  endfacet
  facet normal 0.73581 0 0.677188
    outer loop
      vertex 6.067 0 13.3259
      vertex 6.067 32.7 13.3259
      vertex 5.732 32.7 13.6899
    endloop
  endfacet
  facet normal 0.73581 0 0.677188
    outer loop
      vertex 5.732 0 13.6899
      vertex 6.067 0 13.3259
      vertex 5.732 32.7 13.6899
    endloop
  endfacet
  facet normal 0.837289 0 0.54676
    outer loop
      vertex 6.338 0 12.9109
      vertex 6.338 32.7 12.9109
      vertex 6.067 32.7 13.3259
    endloop
  endfacet
  facet normal 0.837289 0 0.54676
    outer loop
      vertex 6.067 0 13.3259
      vertex 6.338 0 12.9109
      vertex 6.067 32.7 13.3259
    endloop
  endfacet
  facet normal 0.915879 0 0.401454
    outer loop
      vertex 6.537 0 12.4569
      vertex 6.537 32.7 12.4569
      vertex 6.338 32.7 12.9109
    endloop
  endfacet
  facet normal 0.915879 0 0.401454
    outer loop
      vertex 6.338 0 12.9109
      vertex 6.537 0 12.4569
      vertex 6.338 32.7 12.9109
    endloop
  endfacet
  facet normal 0.969185 0 0.246334
    outer loop
      vertex 6.659 0 11.9769
      vertex 6.659 32.7 11.9769
      vertex 6.537 32.7 12.4569
    endloop
  endfacet
  facet normal 0.969185 0 0.246334
    outer loop
      vertex 6.537 0 12.4569
      vertex 6.659 0 11.9769
      vertex 6.537 32.7 12.4569
    endloop
  endfacet
  facet normal 0.996574 0 0.0827116
    outer loop
      vertex 6.7 0 11.4829
      vertex 6.7 32.7 11.4829
      vertex 6.659 32.7 11.9769
    endloop
  endfacet
  facet normal 0.996574 0 0.0827116
    outer loop
      vertex 6.659 0 11.9769
      vertex 6.7 0 11.4829
      vertex 6.659 32.7 11.9769
    endloop
  endfacet
  facet normal 1 0 0
    outer loop
      vertex 6.7 32.7 3
      vertex 6.7 32.7 11.4829
      vertex 6.7 0 11.4829
    endloop
  endfacet
  facet normal 1 0 0
    outer loop
      vertex 6.7 3.4128 10.2223
      vertex 6.7 32.7 3
      vertex 6.7 0 11.4829
    endloop
  endfacet
  facet normal 1 0 0
    outer loop
      vertex 6.7 0 3
      vertex 6.7 3 9.93545
      vertex 6.7 0 11.4829
    endloop
  endfacet
  facet normal 1 0 0
    outer loop
      vertex 6.7 5.9172 4.74545
      vertex 6.7 5.9856 4.65425
      vertex 6.7 32.7 3
    endloop
  endfacet
  facet normal 1 0 0
    outer loop
      vertex 6.7 3 9.93545
      vertex 6.7 3.018 10.0699
      vertex 6.7 0 11.4829
    endloop
  endfacet
  facet normal 1 0 0
    outer loop
      vertex 6.7 3.018 10.0699
      vertex 6.7 3.072 10.1647
      vertex 6.7 0 11.4829
    endloop
  endfacet
  facet normal 1 0 0
    outer loop
      vertex 6.7 3.576 9.93545
      vertex 6.7 5.646 4.81745
      vertex 6.7 32.7 3
    endloop
  endfacet
  facet normal 1 0 0
    outer loop
      vertex 6.7 3.072 10.1647
      vertex 6.7 3.1608 10.2223
      vertex 6.7 0 11.4829
    endloop
  endfacet
  facet normal 1 0 0
    outer loop
      vertex 6.7 3.1608 10.2223
      vertex 6.7 3.2856 10.2415
      vertex 6.7 0 11.4829
    endloop
  endfacet
  facet normal 1 0 0
    outer loop
      vertex 6.7 3.2856 10.2415
      vertex 6.7 3.4128 10.2223
      vertex 6.7 0 11.4829
    endloop
  endfacet
  facet normal 1 0 0
    outer loop
      vertex 6.7 3.504 10.1647
      vertex 6.7 3.558 10.0699
      vertex 6.7 32.7 3
    endloop
  endfacet
  facet normal 1 0 0
    outer loop
      vertex 6.7 3.576 9.93545
      vertex 6.7 3.576 4.81745
      vertex 6.7 5.646 4.81745
    endloop
  endfacet
  facet normal 1 0 0
    outer loop
      vertex 6.7 5.8044 4.79945
      vertex 6.7 32.7 3
      vertex 6.7 5.646 4.81745
    endloop
  endfacet
  facet normal 1 0 0
    outer loop
      vertex 6.7 5.9172 4.74545
      vertex 6.7 32.7 3
      vertex 6.7 5.8044 4.79945
    endloop
  endfacet
  facet normal 1 0 0
    outer loop
      vertex 6.7 6.0084 4.52705
      vertex 6.7 32.7 3
      vertex 6.7 5.9856 4.65425
    endloop
  endfacet
  facet normal 1 0 0
    outer loop
      vertex 6.7 3.018 4.44065
      vertex 6.7 3 4.59545
      vertex 6.7 0 3
    endloop
  endfacet
  facet normal 1 0 0
    outer loop
      vertex 6.7 5.9844 4.40225
      vertex 6.7 32.7 3
      vertex 6.7 6.0084 4.52705
    endloop
  endfacet
  facet normal 1 0 0
    outer loop
      vertex 6.7 5.9148 4.31345
      vertex 6.7 32.7 3
      vertex 6.7 5.9844 4.40225
    endloop
  endfacet
  facet normal 1 0 0
    outer loop
      vertex 6.7 5.7984 4.25945
      vertex 6.7 32.7 3
      vertex 6.7 5.9148 4.31345
    endloop
  endfacet
  facet normal 1 0 0
    outer loop
      vertex 6.7 0 3
      vertex 6.7 32.7 3
      vertex 6.7 5.7984 4.25945
    endloop
  endfacet
  facet normal 1 0 0
    outer loop
      vertex 6.7 0 3
      vertex 6.7 5.7984 4.25945
      vertex 6.7 5.634 4.24145
    endloop
  endfacet
  facet normal 1 0 0
    outer loop
      vertex 6.7 0 3
      vertex 6.7 3.282 4.24145
      vertex 6.7 3.1584 4.26305
    endloop
  endfacet
  facet normal 1 0 0
    outer loop
      vertex 6.7 0 3
      vertex 6.7 3.1584 4.26305
      vertex 6.7 3.0708 4.33025
    endloop
  endfacet
  facet normal 1 0 0
    outer loop
      vertex 6.7 0 3
      vertex 6.7 3.0708 4.33025
      vertex 6.7 3.018 4.44065
    endloop
  endfacet
  facet normal 1 0 0
    outer loop
      vertex 6.7 0 3
      vertex 6.7 3 4.59545
      vertex 6.7 3 9.93545
    endloop
  endfacet
  facet normal 1 0 0
    outer loop
      vertex 6.7 3.4128 10.2223
      vertex 6.7 3.504 10.1647
      vertex 6.7 32.7 3
    endloop
  endfacet
  facet normal 1 0 0
    outer loop
      vertex 6.7 3.558 10.0699
      vertex 6.7 3.576 9.93545
      vertex 6.7 32.7 3
    endloop
  endfacet
  facet normal 1 0 0
    outer loop
      vertex 6.7 5.634 4.24145
      vertex 6.7 3.282 4.24145
      vertex 6.7 0 3
    endloop
  endfacet
  facet normal 0.996574 0 -0.0827116
    outer loop
      vertex 6.659 32.7 2.506
      vertex 6.7 32.7 3
      vertex 6.7 0 3
    endloop
  endfacet
  facet normal 0.996574 0 -0.0827116
    outer loop
      vertex 6.659 0 2.506
      vertex 6.659 32.7 2.506
      vertex 6.7 0 3
    endloop
  endfacet
  facet normal 0.969185 0 -0.246334
    outer loop
      vertex 6.537 32.7 2.026
      vertex 6.659 32.7 2.506
      vertex 6.659 0 2.506
    endloop
  endfacet
  facet normal 0.969185 0 -0.246334
    outer loop
      vertex 6.537 0 2.026
      vertex 6.537 32.7 2.026
      vertex 6.659 0 2.506
    endloop
  endfacet
  facet normal 0.915879 0 -0.401454
    outer loop
      vertex 6.338 32.7 1.572
      vertex 6.537 32.7 2.026
      vertex 6.537 0 2.026
    endloop
  endfacet
  facet normal 0.915879 0 -0.401454
    outer loop
      vertex 6.338 0 1.572
      vertex 6.338 32.7 1.572
      vertex 6.537 0 2.026
    endloop
  endfacet
  facet normal 0.837289 0 -0.54676
    outer loop
      vertex 6.067 32.7 1.157
      vertex 6.338 32.7 1.572
      vertex 6.338 0 1.572
    endloop
  endfacet
  facet normal 0.837289 0 -0.54676
    outer loop
      vertex 6.067 0 1.157
      vertex 6.067 32.7 1.157
      vertex 6.338 0 1.572
    endloop
  endfacet
  facet normal 0.748894 0 -0.66269
    outer loop
      vertex 5.821 32.7 0.879
      vertex 6.067 32.7 1.157
      vertex 6.067 0 1.157
    endloop
  endfacet
  facet normal 0.748894 0 -0.66269
    outer loop
      vertex 5.821 0 0.879
      vertex 5.821 32.7 0.879
      vertex 6.067 0 1.157
    endloop
  endfacet
  facet normal 0.707273 0 -0.70694
    outer loop
      vertex 4.94241 32.7 0
      vertex 5.821 32.7 0.879
      vertex 5.821 0 0.879
    endloop
  endfacet
  facet normal 0.707273 0 -0.70694
    outer loop
      vertex 4.94241 0 0
      vertex 4.94241 32.7 0
      vertex 5.821 0 0.879
    endloop
  endfacet
  facet normal 0 0 -1
    outer loop
      vertex 4.94241 32.7 0
      vertex 4.94241 0 0
      vertex -4.94241 32.7 0
    endloop
  endfacet
  facet normal 0 0 -1
    outer loop
      vertex -4.94241 32.7 0
      vertex 4.94241 0 0
      vertex -4.94241 0 0
    endloop
  endfacet
  facet normal -0.707273 0 -0.70694
    outer loop
      vertex -4.94241 32.7 0
      vertex -4.94241 0 0
      vertex -5.821 32.7 0.879
    endloop
  endfacet
  facet normal -0.707273 0 -0.70694
    outer loop
      vertex -5.821 32.7 0.879
      vertex -4.94241 0 0
      vertex -5.821 0 0.879
    endloop
  endfacet
  facet normal -0.748894 0 -0.66269
    outer loop
      vertex -5.821 32.7 0.879
      vertex -5.821 0 0.879
      vertex -6.067 32.7 1.157
    endloop
  endfacet
  facet normal -0.748894 0 -0.66269
    outer loop
      vertex -6.067 32.7 1.157
      vertex -5.821 0 0.879
      vertex -6.067 0 1.157
    endloop
  endfacet
  facet normal -0.837289 0 -0.54676
    outer loop
      vertex -6.067 32.7 1.157
      vertex -6.067 0 1.157
      vertex -6.338 32.7 1.572
    endloop
  endfacet
  facet normal -0.837289 0 -0.54676
    outer loop
      vertex -6.338 32.7 1.572
      vertex -6.067 0 1.157
      vertex -6.338 0 1.572
    endloop
  endfacet
  facet normal -0.915879 0 -0.401454
    outer loop
      vertex -6.338 32.7 1.572
      vertex -6.338 0 1.572
      vertex -6.537 32.7 2.026
    endloop
  endfacet
  facet normal -0.915879 0 -0.401454
    outer loop
      vertex -6.537 32.7 2.026
      vertex -6.338 0 1.572
      vertex -6.537 0 2.026
    endloop
  endfacet
  facet normal 0 1 0
    outer loop
      vertex -6.659 32.7 11.9769
      vertex -6.537 32.7 12.4569
      vertex -6.7 32.7 11.4829
    endloop
  endfacet
  facet normal 0 1 0
    outer loop
      vertex -6.7 32.7 11.4829
      vertex -6.537 32.7 12.4569
      vertex -6.338 32.7 12.9109
    endloop
  endfacet
  facet normal 0 1 0
    outer loop
      vertex -6.7 32.7 11.4829
      vertex -6.338 32.7 12.9109
      vertex -6.067 32.7 13.3259
    endloop
  endfacet
  facet normal 0 1 0
    outer loop
      vertex -6.7 32.7 11.4829
      vertex -6.067 32.7 13.3259
      vertex -5.732 32.7 13.6899
    endloop
  endfacet
  facet normal 0 1 0
    outer loop
      vertex -6.7 32.7 11.4829
      vertex -5.732 32.7 13.6899
      vertex -5.341 32.7 13.9939
    endloop
  endfacet
  facet normal 0 1 0
    outer loop
      vertex -6.7 32.7 11.4829
      vertex -5.341 32.7 13.9939
      vertex -4.905 32.7 14.2299
    endloop
  endfacet
  facet normal 0 1 0
    outer loop
      vertex -6.7 32.7 11.4829
      vertex -4.905 32.7 14.2299
      vertex -4.436 32.7 14.3909
    endloop
  endfacet
  facet normal 0 1 0
    outer loop
      vertex -6.7 32.7 11.4829
      vertex -4.436 32.7 14.3909
      vertex -3.948 32.7 14.4729
    endloop
  endfacet
  facet normal 0 1 0
    outer loop
      vertex -6.7 32.7 11.4829
      vertex -3.948 32.7 14.4729
      vertex -2.2 32.7 14.4729
    endloop
  endfacet
  facet normal 0 1 0
    outer loop
      vertex -6.7 32.7 11.4829
      vertex -2.2 32.7 14.4729
      vertex -2.2 32.7 7.24145
    endloop
  endfacet
  facet normal 0 1 0
    outer loop
      vertex -6.7 32.7 11.4829
      vertex -2.2 32.7 7.24145
      vertex -2.145 32.7 6.75145
    endloop
  endfacet
  facet normal 0 1 0
    outer loop
      vertex -2.145 32.7 6.75145
      vertex -1.982 32.7 6.28645
      vertex -6.7 32.7 11.4829
    endloop
  endfacet
  facet normal 0 1 0
    outer loop
      vertex -1.982 32.7 6.28645
      vertex -1.72 32.7 5.86945
      vertex -6.7 32.7 11.4829
    endloop
  endfacet
  facet normal 0 1 0
    outer loop
      vertex -1.72 32.7 5.86945
      vertex -4.94241 32.7 0
      vertex -6.7 32.7 11.4829
    endloop
  endfacet
  facet normal 0 1 0
    outer loop
      vertex -3.95239e-15 32.7 5.04145
      vertex 6.7 32.7 3
      vertex -0.49 32.7 5.09645
    endloop
  endfacet
  facet normal 0 1 0
    outer loop
      vertex 0.49 32.7 5.09645
      vertex 6.7 32.7 3
      vertex -3.95239e-15 32.7 5.04145
    endloop
  endfacet
  facet normal 0 1 0
    outer loop
      vertex 0.955 32.7 5.25945
      vertex 6.7 32.7 3
      vertex 0.49 32.7 5.09645
    endloop
  endfacet
  facet normal 0 1 0
    outer loop
      vertex 1.372 32.7 5.52145
      vertex 6.7 32.7 3
      vertex 0.955 32.7 5.25945
    endloop
  endfacet
  facet normal 0 1 0
    outer loop
      vertex 2.2 32.7 7.24145
      vertex 2.2 32.7 14.4729
      vertex 3.948 32.7 14.4729
    endloop
  endfacet
  facet normal 0 1 0
    outer loop
      vertex 2.2 32.7 7.24145
      vertex 3.948 32.7 14.4729
      vertex 2.145 32.7 6.75145
    endloop
  endfacet
  facet normal 0 1 0
    outer loop
      vertex 2.145 32.7 6.75145
      vertex 3.948 32.7 14.4729
      vertex 4.436 32.7 14.3909
    endloop
  endfacet
  facet normal 0 1 0
    outer loop
      vertex 2.145 32.7 6.75145
      vertex 4.436 32.7 14.3909
      vertex 4.905 32.7 14.2299
    endloop
  endfacet
  facet normal 0 1 0
    outer loop
      vertex 2.145 32.7 6.75145
      vertex 4.905 32.7 14.2299
      vertex 1.982 32.7 6.28645
    endloop
  endfacet
  facet normal 0 1 0
    outer loop
      vertex 1.982 32.7 6.28645
      vertex 4.905 32.7 14.2299
      vertex 5.341 32.7 13.9939
    endloop
  endfacet
  facet normal 0 1 0
    outer loop
      vertex 1.982 32.7 6.28645
      vertex 5.341 32.7 13.9939
      vertex 5.732 32.7 13.6899
    endloop
  endfacet
  facet normal 0 1 0
    outer loop
      vertex 1.982 32.7 6.28645
      vertex 5.732 32.7 13.6899
      vertex 6.067 32.7 13.3259
    endloop
  endfacet
  facet normal 0 1 0
    outer loop
      vertex 1.982 32.7 6.28645
      vertex 6.067 32.7 13.3259
      vertex 6.338 32.7 12.9109
    endloop
  endfacet
  facet normal 0 1 0
    outer loop
      vertex 1.982 32.7 6.28645
      vertex 6.338 32.7 12.9109
      vertex 1.72 32.7 5.86945
    endloop
  endfacet
  facet normal 0 1 0
    outer loop
      vertex 1.72 32.7 5.86945
      vertex 6.338 32.7 12.9109
      vertex 6.537 32.7 12.4569
    endloop
  endfacet
  facet normal 0 1 0
    outer loop
      vertex 1.72 32.7 5.86945
      vertex 6.537 32.7 12.4569
      vertex 6.659 32.7 11.9769
    endloop
  endfacet
  facet normal 0 1 0
    outer loop
      vertex 1.72 32.7 5.86945
      vertex 6.659 32.7 11.9769
      vertex 6.7 32.7 11.4829
    endloop
  endfacet
  facet normal 0 1 0
    outer loop
      vertex 1.72 32.7 5.86945
      vertex 6.7 32.7 11.4829
      vertex 6.7 32.7 3
    endloop
  endfacet
  facet normal 0 1 0
    outer loop
      vertex 1.72 32.7 5.86945
      vertex 6.7 32.7 3
      vertex 1.372 32.7 5.52145
    endloop
  endfacet
  facet normal 0 1 0
    outer loop
      vertex -0.49 32.7 5.09645
      vertex 6.7 32.7 3
      vertex 6.659 32.7 2.506
    endloop
  endfacet
  facet normal 0 1 0
    outer loop
      vertex -0.49 32.7 5.09645
      vertex 6.659 32.7 2.506
      vertex -0.955 32.7 5.25945
    endloop
  endfacet
  facet normal 0 1 0
    outer loop
      vertex -0.955 32.7 5.25945
      vertex 6.659 32.7 2.506
      vertex 6.537 32.7 2.026
    endloop
  endfacet
  facet normal 0 1 0
    outer loop
      vertex -0.955 32.7 5.25945
      vertex 6.537 32.7 2.026
      vertex 6.338 32.7 1.572
    endloop
  endfacet
  facet normal 0 1 0
    outer loop
      vertex -0.955 32.7 5.25945
      vertex 6.338 32.7 1.572
      vertex 6.067 32.7 1.157
    endloop
  endfacet
  facet normal 0 1 0
    outer loop
      vertex -0.955 32.7 5.25945
      vertex 6.067 32.7 1.157
      vertex 5.821 32.7 0.879
    endloop
  endfacet
  facet normal 0 1 0
    outer loop
      vertex -0.955 32.7 5.25945
      vertex 5.821 32.7 0.879
      vertex -1.372 32.7 5.52145
    endloop
  endfacet
  facet normal 0 1 0
    outer loop
      vertex -1.372 32.7 5.52145
      vertex 5.821 32.7 0.879
      vertex 4.94241 32.7 0
    endloop
  endfacet
  facet normal 0 1 0
    outer loop
      vertex -1.372 32.7 5.52145
      vertex 4.94241 32.7 0
      vertex -4.94241 32.7 0
    endloop
  endfacet
  facet normal 0 1 0
    outer loop
      vertex -1.372 32.7 5.52145
      vertex -4.94241 32.7 0
      vertex -1.72 32.7 5.86945
    endloop
  endfacet
  facet normal 0 1 0
    outer loop
      vertex -6.7 32.7 11.4829
      vertex -4.94241 32.7 0
      vertex -5.821 32.7 0.879
    endloop
  endfacet
  facet normal 0 1 0
    outer loop
      vertex -6.7 32.7 11.4829
      vertex -5.821 32.7 0.879
      vertex -6.067 32.7 1.157
    endloop
  endfacet
  facet normal 0 1 0
    outer loop
      vertex -6.7 32.7 11.4829
      vertex -6.067 32.7 1.157
      vertex -6.338 32.7 1.572
    endloop
  endfacet
  facet normal 0 1 0
    outer loop
      vertex -6.7 32.7 11.4829
      vertex -6.338 32.7 1.572
      vertex -6.537 32.7 2.026
    endloop
  endfacet
  facet normal 0 1 0
    outer loop
      vertex -6.7 32.7 11.4829
      vertex -6.537 32.7 2.026
      vertex -6.659 32.7 2.506
    endloop
  endfacet
  facet normal 0 1 0
    outer loop
      vertex -6.7 32.7 11.4829
      vertex -6.659 32.7 2.506
      vertex -6.7 32.7 3
    endloop
  endfacet
  facet normal 1 0 0
    outer loop
      vertex -2.2 23.7 14.4729
      vertex -2.2 23.7 10.2437
      vertex -2.2 26.7 10.2437
    endloop
  endfacet
  facet normal 1 0 0
    outer loop
      vertex -2.2 32.7 7.24145
      vertex -2.2 23.7 14.4729
      vertex -2.2 26.7 10.2437
    endloop
  endfacet
  facet normal 1 0 0
    outer loop
      vertex -2.2 26.7 7.24145
      vertex -2.2 32.7 7.24145
      vertex -2.2 26.7 10.2437
    endloop
  endfacet
  facet normal 1 0 0
    outer loop
      vertex -2.2 32.7 7.24145
      vertex -2.2 32.7 14.4729
      vertex -2.2 23.7 14.4729
    endloop
  endfacet
  facet normal 0 -1 0
    outer loop
      vertex -3.7 23.7 14.4729
      vertex -3.7 23.7 9.37765
      vertex -2.2 23.7 10.2437
    endloop
  endfacet
  facet normal 0 -1 0
    outer loop
      vertex -2.2 23.7 14.4729
      vertex -3.7 23.7 14.4729
      vertex -2.2 23.7 10.2437
    endloop
  endfacet
  facet normal 1 0 0
    outer loop
      vertex -3.7 20.5 14.4729
      vertex -3.7 20.5 7.24145
      vertex -3.7 21.6 7.24145
    endloop
  endfacet
  facet normal 1 0 0
    outer loop
      vertex -3.7 23.7 9.37765
      vertex -3.7 20.5 14.4729
      vertex -3.7 21.6 9.37765
    endloop
  endfacet
  facet normal 1 0 0
    outer loop
      vertex -3.7 21.6 9.37765
      vertex -3.7 20.5 14.4729
      vertex -3.7 21.6 7.24145
    endloop
  endfacet
  facet normal 1 0 0
    outer loop
      vertex -3.7 23.7 14.4729
      vertex -3.7 20.5 14.4729
      vertex -3.7 23.7 9.37765
    endloop
  endfacet
  facet normal 0 1 0
    outer loop
      vertex 6.88338e-16 20.5 11.5138
      vertex -3.7 20.5 14.4729
      vertex 3.7 20.5 14.4729
    endloop
  endfacet
  facet normal 0 1 0
    outer loop
      vertex 1.46549e-15 20.5 7.24145
      vertex 3.7 20.5 14.4729
      vertex 3.7 20.5 7.24145
    endloop
  endfacet
  facet normal 0 1 0
    outer loop
      vertex 1.44064 20.5 10.6821
      vertex 3.7 20.5 14.4729
      vertex 1.46549e-15 20.5 7.24145
    endloop
  endfacet
  facet normal 0 1 0
    outer loop
      vertex -0.666667 20.5 8.57479
      vertex 1.44064 20.5 10.6821
      vertex 1.46549e-15 20.5 7.24145
    endloop
  endfacet
  facet normal 0 1 0
    outer loop
      vertex -3.7 20.5 9.37765
      vertex -3.7 20.5 14.4729
      vertex 6.88338e-16 20.5 11.5138
    endloop
  endfacet
  facet normal 0 1 0
    outer loop
      vertex -3.7 20.5 7.24145
      vertex -3.7 20.5 14.4729
      vertex -3.7 20.5 9.37765
    endloop
  endfacet
  facet normal 0 1 0
    outer loop
      vertex 6.88338e-16 20.5 11.5138
      vertex 3.7 20.5 14.4729
      vertex 1.44064 20.5 10.6821
    endloop
  endfacet
  facet normal -1 0 0
    outer loop
      vertex 3.7 21.6 7.24145
      vertex 3.7 23.7 14.4729
      vertex 3.7 23.7 7.24145
    endloop
  endfacet
  facet normal -1 0 0
    outer loop
      vertex 3.7 21.6 9.37765
      vertex 3.7 23.7 14.4729
      vertex 3.7 21.6 7.24145
    endloop
  endfacet
  facet normal -1 0 0
    outer loop
      vertex 3.7 20.5 7.24145
      vertex 3.7 20.5 14.4729
      vertex 3.7 20.5 9.37765
    endloop
  endfacet
  facet normal -1 0 0
    outer loop
      vertex 3.7 20.5 9.37765
      vertex 3.7 20.5 14.4729
      vertex 3.7 23.7 14.4729
    endloop
  endfacet
  facet normal -1 0 0
    outer loop
      vertex 3.7 20.5 9.37765
      vertex 3.7 23.7 14.4729
      vertex 3.7 21.6 9.37765
    endloop
  endfacet
  facet normal 0 -1 0
    outer loop
      vertex 2.2 23.7 14.4729
      vertex 2.2 23.7 10.2437
      vertex 3.7 23.7 9.37765
    endloop
  endfacet
  facet normal 0 -1 0
    outer loop
      vertex 3.7 23.7 14.4729
      vertex 2.2 23.7 14.4729
      vertex 3.7 23.7 9.37765
    endloop
  endfacet
  facet normal 0 -1 0
    outer loop
      vertex 3.7 23.7 7.24145
      vertex 3.7 23.7 14.4729
      vertex 3.7 23.7 9.37765
    endloop
  endfacet
  facet normal -1 0 0
    outer loop
      vertex 2.2 23.7 10.2437
      vertex 2.2 23.7 14.4729
      vertex 2.2 26.7 10.2437
    endloop
  endfacet
  facet normal -1 0 0
    outer loop
      vertex 2.2 26.7 10.2437
      vertex 2.2 23.7 14.4729
      vertex 2.2 32.7 14.4729
    endloop
  endfacet
  facet normal -1 0 0
    outer loop
      vertex 2.2 26.7 10.2437
      vertex 2.2 32.7 14.4729
      vertex 2.2 32.7 7.24145
    endloop
  endfacet
  facet normal -1 0 0
    outer loop
      vertex 2.2 26.7 10.2437
      vertex 2.2 32.7 7.24145
      vertex 2.2 26.7 7.24145
    endloop
  endfacet
  facet normal 0 1 0
    outer loop
      vertex 0.2 2.5 4.04145
      vertex 0.2 2.5 14.4729
      vertex 1.4 2.5 4.04145
    endloop
  endfacet
  facet normal 0 1 0
    outer loop
      vertex 1.4 2.5 4.04145
      vertex 0.2 2.5 14.4729
      vertex 1.4 2.5 14.4729
    endloop
  endfacet
  facet normal -1 0 0
    outer loop
      vertex 1.4 2.5 4.04145
      vertex 1.4 2.5 14.4729
      vertex 1.4 5 4.04145
    endloop
  endfacet
  facet normal -1 0 0
    outer loop
      vertex 1.4 5 4.04145
      vertex 1.4 2.5 14.4729
      vertex 1.4 5 14.4729
    endloop
  endfacet
  facet normal 0 -1 0
    outer loop
      vertex 0.2 5 14.4729
      vertex 0.2 5 4.04145
      vertex 1.4 5 4.04145
    endloop
  endfacet
  facet normal 0 -1 0
    outer loop
      vertex 1.4 5 14.4729
      vertex 0.2 5 14.4729
      vertex 1.4 5 4.04145
    endloop
  endfacet
  facet normal -1 0 0
    outer loop
      vertex 0.2 5 4.04145
      vertex 0.2 5 14.4729
      vertex 0.2 7.5 4.04145
    endloop
  endfacet
  facet normal -1 0 0
    outer loop
      vertex 0.2 7.5 4.04145
      vertex 0.2 5 14.4729
      vertex 0.2 7.5 14.4729
    endloop
  endfacet
  facet normal 0 1 0
    outer loop
      vertex 0.2 7.5 4.04145
      vertex 0.2 7.5 14.4729
      vertex 1.4 7.5 4.04145
    endloop
  endfacet
  facet normal 0 1 0
    outer loop
      vertex 1.4 7.5 4.04145
      vertex 0.2 7.5 14.4729
      vertex 1.4 7.5 14.4729
    endloop
  endfacet
  facet normal -1 0 0
    outer loop
      vertex 1.4 7.5 4.04145
      vertex 1.4 7.5 14.4729
      vertex 1.4 10 4.04145
    endloop
  endfacet
  facet normal -1 0 0
    outer loop
      vertex 1.4 10 4.04145
      vertex 1.4 7.5 14.4729
      vertex 1.4 10 14.4729
    endloop
  endfacet
  facet normal 0 -1 0
    outer loop
      vertex 0.2 10 14.4729
      vertex 0.2 10 4.04145
      vertex 1.4 10 4.04145
    endloop
  endfacet
  facet normal 0 -1 0
    outer loop
      vertex 1.4 10 14.4729
      vertex 0.2 10 14.4729
      vertex 1.4 10 4.04145
    endloop
  endfacet
  facet normal -1 0 0
    outer loop
      vertex 0.2 10 4.04145
      vertex 0.2 10 14.4729
      vertex 0.2 12.5 4.04145
    endloop
  endfacet
  facet normal -1 0 0
    outer loop
      vertex 0.2 12.5 4.04145
      vertex 0.2 10 14.4729
      vertex 0.2 12.5 14.4729
    endloop
  endfacet
  facet normal 0 1 0
    outer loop
      vertex 0.2 12.5 4.04145
      vertex 0.2 12.5 14.4729
      vertex 1.4 12.5 4.04145
    endloop
  endfacet
  facet normal 0 1 0
    outer loop
      vertex 1.4 12.5 4.04145
      vertex 0.2 12.5 14.4729
      vertex 1.4 12.5 14.4729
    endloop
  endfacet
  facet normal -1 0 0
    outer loop
      vertex 1.4 12.5 4.04145
      vertex 1.4 12.5 14.4729
      vertex 1.4 15 4.04145
    endloop
  endfacet
  facet normal -1 0 0
    outer loop
      vertex 1.4 15 4.04145
      vertex 1.4 12.5 14.4729
      vertex 1.4 15 14.4729
    endloop
  endfacet
  facet normal 0 -1 0
    outer loop
      vertex 1.38769 15 14.4729
      vertex 1.38769 15 4.04145
      vertex 1.4 15 4.04145
    endloop
  endfacet
  facet normal 0 -1 0
    outer loop
      vertex 1.4 15 14.4729
      vertex 1.38769 15 14.4729
      vertex 1.4 15 4.04145
    endloop
  endfacet
  facet normal -1 0 0
    outer loop
      vertex 1.38769 15 4.04145
      vertex 1.38769 15 14.4729
      vertex 1.38769 15.2428 4.04145
    endloop
  endfacet
  facet normal -1 0 0
    outer loop
      vertex 1.38769 15.2428 4.04145
      vertex 1.38769 15 14.4729
      vertex 1.38769 15.2428 14.4729
    endloop
  endfacet
  facet normal -0.97953 -0.201298 0
    outer loop
      vertex 1.28993 15.7185 4.04145
      vertex 1.38769 15.2428 4.04145
      vertex 1.28993 15.7185 14.4729
    endloop
  endfacet
  facet normal -0.97953 -0.201298 0
    outer loop
      vertex 1.28993 15.7185 14.4729
      vertex 1.38769 15.2428 4.04145
      vertex 1.38769 15.2428 14.4729
    endloop
  endfacet
  facet normal -0.918958 -0.394355 0
    outer loop
      vertex 1.09843 16.1647 4.04145
      vertex 1.28993 15.7185 4.04145
      vertex 1.09843 16.1647 14.4729
    endloop
  endfacet
  facet normal -0.918958 -0.394355 0
    outer loop
      vertex 1.09843 16.1647 14.4729
      vertex 1.28993 15.7185 4.04145
      vertex 1.28993 15.7185 14.4729
    endloop
  endfacet
  facet normal -0.820763 -0.571269 0
    outer loop
      vertex 0.821019 16.5633 4.04145
      vertex 1.09843 16.1647 4.04145
      vertex 0.821019 16.5633 14.4729
    endloop
  endfacet
  facet normal -0.820763 -0.571269 0
    outer loop
      vertex 0.821019 16.5633 14.4729
      vertex 1.09843 16.1647 4.04145
      vertex 1.09843 16.1647 14.4729
    endloop
  endfacet
  facet normal -0.688967 -0.724792 0
    outer loop
      vertex 0.469054 16.8979 14.4729
      vertex 0.469054 16.8979 4.04145
      vertex 0.821019 16.5633 4.04145
    endloop
  endfacet
  facet normal -0.688967 -0.724792 0
    outer loop
      vertex 0.821019 16.5633 14.4729
      vertex 0.469054 16.8979 14.4729
      vertex 0.821019 16.5633 4.04145
    endloop
  endfacet
  facet normal -0.528964 -0.848644 0
    outer loop
      vertex 0.056946 17.1547 14.4729
      vertex 0.056946 17.1547 4.04145
      vertex 0.469054 16.8979 4.04145
    endloop
  endfacet
  facet normal -0.528964 -0.848644 0
    outer loop
      vertex 0.469054 16.8979 14.4729
      vertex 0.056946 17.1547 14.4729
      vertex 0.469054 16.8979 4.04145
    endloop
  endfacet
  facet normal -0.347305 -0.937752 0
    outer loop
      vertex -0.398434 17.3234 14.4729
      vertex -0.398434 17.3234 4.04145
      vertex 0.056946 17.1547 4.04145
    endloop
  endfacet
  facet normal -0.347305 -0.937752 0
    outer loop
      vertex 0.056946 17.1547 14.4729
      vertex -0.398434 17.3234 14.4729
      vertex 0.056946 17.1547 4.04145
    endloop
  endfacet
  facet normal -0.151429 -0.988468 0
    outer loop
      vertex -0.878442 17.3969 14.4729
      vertex -0.878442 17.3969 4.04145
      vertex -0.398434 17.3234 4.04145
    endloop
  endfacet
  facet normal -0.151429 -0.988468 0
    outer loop
      vertex -0.398434 17.3234 14.4729
      vertex -0.878442 17.3969 14.4729
      vertex -0.398434 17.3234 4.04145
    endloop
  endfacet
  facet normal 0.0506499 -0.998716 0
    outer loop
      vertex -1.36343 17.3723 14.4729
      vertex -1.36343 17.3723 4.04145
      vertex -0.878442 17.3969 4.04145
    endloop
  endfacet
  facet normal 0.0506499 -0.998716 0
    outer loop
      vertex -0.878442 17.3969 14.4729
      vertex -1.36343 17.3723 14.4729
      vertex -0.878442 17.3969 4.04145
    endloop
  endfacet
  facet normal 0.250653 -0.968077 0
    outer loop
      vertex -1.83353 17.2506 14.4729
      vertex -1.83353 17.2506 4.04145
      vertex -1.36343 17.3723 4.04145
    endloop
  endfacet
  facet normal 0.250653 -0.968077 0
    outer loop
      vertex -1.36343 17.3723 14.4729
      vertex -1.83353 17.2506 14.4729
      vertex -1.36343 17.3723 4.04145
    endloop
  endfacet
  facet normal 0.440394 -0.897804 0
    outer loop
      vertex -2.26951 17.0367 14.4729
      vertex -2.26951 17.0367 4.04145
      vertex -1.83353 17.2506 4.04145
    endloop
  endfacet
  facet normal 0.440394 -0.897804 0
    outer loop
      vertex -1.83353 17.2506 14.4729
      vertex -2.26951 17.0367 14.4729
      vertex -1.83353 17.2506 4.04145
    endloop
  endfacet
  facet normal 0.612105 -0.790776 0
    outer loop
      vertex -2.65352 16.7395 14.4729
      vertex -2.65352 16.7395 4.04145
      vertex -2.26951 17.0367 4.04145
    endloop
  endfacet
  facet normal 0.612105 -0.790776 0
    outer loop
      vertex -2.26951 17.0367 14.4729
      vertex -2.65352 16.7395 14.4729
      vertex -2.26951 17.0367 4.04145
    endloop
  endfacet
  facet normal 0.758759 -0.651372 0
    outer loop
      vertex -2.96983 16.371 14.4729
      vertex -2.96983 16.371 4.04145
      vertex -2.65352 16.7395 4.04145
    endloop
  endfacet
  facet normal 0.758759 -0.651372 0
    outer loop
      vertex -2.65352 16.7395 14.4729
      vertex -2.96983 16.371 14.4729
      vertex -2.65352 16.7395 4.04145
    endloop
  endfacet
  facet normal 0.874346 -0.485302 0
    outer loop
      vertex -3.2055 15.9465 14.4729
      vertex -3.2055 15.9465 4.04145
      vertex -2.96983 16.371 4.04145
    endloop
  endfacet
  facet normal 0.874346 -0.485302 0
    outer loop
      vertex -2.96983 16.371 14.4729
      vertex -3.2055 15.9465 14.4729
      vertex -2.96983 16.371 4.04145
    endloop
  endfacet
  facet normal 0.954139 -0.299363 0
    outer loop
      vertex -3.35087 15.4831 14.4729
      vertex -3.35087 15.4831 4.04145
      vertex -3.2055 15.9465 4.04145
    endloop
  endfacet
  facet normal 0.954139 -0.299363 0
    outer loop
      vertex -3.2055 15.9465 14.4729
      vertex -3.35087 15.4831 14.4729
      vertex -3.2055 15.9465 4.04145
    endloop
  endfacet
  facet normal 0.994869 -0.101168 0
    outer loop
      vertex -3.4 15 14.4729
      vertex -3.4 15 4.04145
      vertex -3.35087 15.4831 4.04145
    endloop
  endfacet
  facet normal 0.994869 -0.101168 0
    outer loop
      vertex -3.35087 15.4831 14.4729
      vertex -3.4 15 14.4729
      vertex -3.35087 15.4831 4.04145
    endloop
  endfacet
  facet normal 1 0 0
    outer loop
      vertex -3.4 12.5 14.4729
      vertex -3.4 12.5 4.04145
      vertex -3.4 15 4.04145
    endloop
  endfacet
  facet normal 1 0 0
    outer loop
      vertex -3.4 15 14.4729
      vertex -3.4 12.5 14.4729
      vertex -3.4 15 4.04145
    endloop
  endfacet
  facet normal 0 1 0
    outer loop
      vertex -3.4 12.5 4.04145
      vertex -3.4 12.5 14.4729
      vertex -2.2 12.5 4.04145
    endloop
  endfacet
  facet normal 0 1 0
    outer loop
      vertex -2.2 12.5 4.04145
      vertex -3.4 12.5 14.4729
      vertex -2.2 12.5 14.4729
    endloop
  endfacet
  facet normal 1 0 0
    outer loop
      vertex -2.2 10 14.4729
      vertex -2.2 10 4.04145
      vertex -2.2 12.5 4.04145
    endloop
  endfacet
  facet normal 1 0 0
    outer loop
      vertex -2.2 12.5 14.4729
      vertex -2.2 10 14.4729
      vertex -2.2 12.5 4.04145
    endloop
  endfacet
  facet normal 0 -1 0
    outer loop
      vertex -3.4 10 14.4729
      vertex -3.4 10 4.04145
      vertex -2.2 10 4.04145
    endloop
  endfacet
  facet normal 0 -1 0
    outer loop
      vertex -2.2 10 14.4729
      vertex -3.4 10 14.4729
      vertex -2.2 10 4.04145
    endloop
  endfacet
  facet normal 1 0 0
    outer loop
      vertex -3.4 7.5 14.4729
      vertex -3.4 7.5 4.04145
      vertex -3.4 10 4.04145
    endloop
  endfacet
  facet normal 1 0 0
    outer loop
      vertex -3.4 10 14.4729
      vertex -3.4 7.5 14.4729
      vertex -3.4 10 4.04145
    endloop
  endfacet
  facet normal 0 1 0
    outer loop
      vertex -3.4 7.5 4.04145
      vertex -3.4 7.5 14.4729
      vertex -2.2 7.5 4.04145
    endloop
  endfacet
  facet normal 0 1 0
    outer loop
      vertex -2.2 7.5 4.04145
      vertex -3.4 7.5 14.4729
      vertex -2.2 7.5 14.4729
    endloop
  endfacet
  facet normal 1 0 0
    outer loop
      vertex -2.2 5 14.4729
      vertex -2.2 5 4.04145
      vertex -2.2 7.5 4.04145
    endloop
  endfacet
  facet normal 1 0 0
    outer loop
      vertex -2.2 7.5 14.4729
      vertex -2.2 5 14.4729
      vertex -2.2 7.5 4.04145
    endloop
  endfacet
  facet normal 0 -1 0
    outer loop
      vertex -3.4 5 14.4729
      vertex -3.4 5 4.04145
      vertex -2.2 5 4.04145
    endloop
  endfacet
  facet normal 0 -1 0
    outer loop
      vertex -2.2 5 14.4729
      vertex -3.4 5 14.4729
      vertex -2.2 5 4.04145
    endloop
  endfacet
  facet normal 1 0 0
    outer loop
      vertex -3.4 2.5 14.4729
      vertex -3.4 2.5 4.04145
      vertex -3.4 5 4.04145
    endloop
  endfacet
  facet normal 1 0 0
    outer loop
      vertex -3.4 5 14.4729
      vertex -3.4 2.5 14.4729
      vertex -3.4 5 4.04145
    endloop
  endfacet
  facet normal 0 1 0
    outer loop
      vertex -3.4 2.5 4.04145
      vertex -3.4 2.5 14.4729
      vertex -2.2 2.5 4.04145
    endloop
  endfacet
  facet normal 0 1 0
    outer loop
      vertex -2.2 2.5 4.04145
      vertex -3.4 2.5 14.4729
      vertex -2.2 2.5 14.4729
    endloop
  endfacet
  facet normal 2.49555e-16 0.99115 -0.132743
    outer loop
      vertex 6.7 3 9.93545
      vertex 6.2 3 9.93545
      vertex 6.7 3.018 10.0699
    endloop
  endfacet
  facet normal 2.49555e-16 0.99115 -0.132743
    outer loop
      vertex 6.7 3.018 10.0699
      vertex 6.2 3 9.93545
      vertex 6.2 3.018 10.0699
    endloop
  endfacet
  facet normal 2.22045e-16 1 0
    outer loop
      vertex 6.7 3 4.59545
      vertex 6.2 3 4.59545
      vertex 6.7 3 9.93545
    endloop
  endfacet
  facet normal 2.22045e-16 1 0
    outer loop
      vertex 6.7 3 9.93545
      vertex 6.2 3 4.59545
      vertex 6.2 3 9.93545
    endloop
  endfacet
  facet normal 1.94912e-16 0.993307 0.115501
    outer loop
      vertex 6.7 3.018 4.44065
      vertex 6.2 3.018 4.44065
      vertex 6.7 3 4.59545
    endloop
  endfacet
  facet normal 1.94912e-16 0.993307 0.115501
    outer loop
      vertex 6.7 3 4.59545
      vertex 6.2 3.018 4.44065
      vertex 6.2 3 4.59545
    endloop
  endfacet
  facet normal 1.04512e-16 0.902134 0.431455
    outer loop
      vertex 6.7 3.0708 4.33025
      vertex 6.2 3.0708 4.33025
      vertex 6.7 3.018 4.44065
    endloop
  endfacet
  facet normal 1.04512e-16 0.902134 0.431455
    outer loop
      vertex 6.7 3.018 4.44065
      vertex 6.2 3.0708 4.33025
      vertex 6.2 3.018 4.44065
    endloop
  endfacet
  facet normal -4.10276e-17 0.60866 0.793431
    outer loop
      vertex 6.7 3.0708 4.33025
      vertex 6.7 3.1584 4.26305
      vertex 6.2 3.1584 4.26305
    endloop
  endfacet
  facet normal -4.10276e-17 0.60866 0.793431
    outer loop
      vertex 6.2 3.0708 4.33025
      vertex 6.7 3.0708 4.33025
      vertex 6.2 3.1584 4.26305
    endloop
  endfacet
  facet normal -1.80505e-16 0.172148 0.985071
    outer loop
      vertex 6.7 3.1584 4.26305
      vertex 6.7 3.282 4.24145
      vertex 6.2 3.282 4.24145
    endloop
  endfacet
  facet normal -1.80505e-16 0.172148 0.985071
    outer loop
      vertex 6.2 3.1584 4.26305
      vertex 6.7 3.1584 4.26305
      vertex 6.2 3.282 4.24145
    endloop
  endfacet
  facet normal -2.22045e-16 4.93038e-32 1
    outer loop
      vertex 6.7 3.282 4.24145
      vertex 6.7 5.634 4.24145
      vertex 6.2 5.634 4.24145
    endloop
  endfacet
  facet normal -2.22045e-16 4.93038e-32 1
    outer loop
      vertex 6.2 3.282 4.24145
      vertex 6.7 3.282 4.24145
      vertex 6.2 5.634 4.24145
    endloop
  endfacet
  facet normal -2.44893e-16 -0.108839 0.994059
    outer loop
      vertex 6.7 5.634 4.24145
      vertex 6.7 5.7984 4.25945
      vertex 6.2 5.7984 4.25945
    endloop
  endfacet
  facet normal -2.44893e-16 -0.108839 0.994059
    outer loop
      vertex 6.2 5.634 4.24145
      vertex 6.7 5.634 4.24145
      vertex 6.2 5.7984 4.25945
    endloop
  endfacet
  facet normal -2.94869e-16 -0.420837 0.907136
    outer loop
      vertex 6.7 5.7984 4.25945
      vertex 6.7 5.9148 4.31345
      vertex 6.2 5.9148 4.31345
    endloop
  endfacet
  facet normal -2.94869e-16 -0.420837 0.907136
    outer loop
      vertex 6.2 5.7984 4.25945
      vertex 6.7 5.7984 4.25945
      vertex 6.2 5.9148 4.31345
    endloop
  endfacet
  facet normal -3.11737e-16 -0.787056 0.616882
    outer loop
      vertex 6.2 5.9148 4.31345
      vertex 6.7 5.9148 4.31345
      vertex 6.7 5.9844 4.40225
    endloop
  endfacet
  facet normal -3.11737e-16 -0.787056 0.616882
    outer loop
      vertex 6.2 5.9844 4.40225
      vertex 6.2 5.9148 4.31345
      vertex 6.7 5.9844 4.40225
    endloop
  endfacet
  facet normal -2.59982e-16 -0.982006 0.188847
    outer loop
      vertex 6.2 5.9844 4.40225
      vertex 6.7 5.9844 4.40225
      vertex 6.7 6.0084 4.52705
    endloop
  endfacet
  facet normal -2.59982e-16 -0.982006 0.188847
    outer loop
      vertex 6.2 6.0084 4.52705
      vertex 6.2 5.9844 4.40225
      vertex 6.7 6.0084 4.52705
    endloop
  endfacet
  facet normal -1.79385e-16 -0.984313 -0.176433
    outer loop
      vertex 6.2 6.0084 4.52705
      vertex 6.7 6.0084 4.52705
      vertex 6.7 5.9856 4.65425
    endloop
  endfacet
  facet normal -1.79385e-16 -0.984313 -0.176433
    outer loop
      vertex 6.2 5.9856 4.65425
      vertex 6.2 6.0084 4.52705
      vertex 6.7 5.9856 4.65425
    endloop
  endfacet
  facet normal -4.44089e-17 -0.8 -0.6
    outer loop
      vertex 6.2 5.9856 4.65425
      vertex 6.7 5.9856 4.65425
      vertex 6.7 5.9172 4.74545
    endloop
  endfacet
  facet normal -4.44089e-17 -0.8 -0.6
    outer loop
      vertex 6.2 5.9172 4.74545
      vertex 6.2 5.9856 4.65425
      vertex 6.7 5.9172 4.74545
    endloop
  endfacet
  facet normal 1.044e-16 -0.431795 -0.901972
    outer loop
      vertex 6.7 5.9172 4.74545
      vertex 6.7 5.8044 4.79945
      vertex 6.2 5.9172 4.74545
    endloop
  endfacet
  facet normal 1.044e-16 -0.431795 -0.901972
    outer loop
      vertex 6.2 5.9172 4.74545
      vertex 6.7 5.8044 4.79945
      vertex 6.2 5.8044 4.79945
    endloop
  endfacet
  facet normal 1.95554e-16 -0.11291 -0.993605
    outer loop
      vertex 6.7 5.8044 4.79945
      vertex 6.7 5.646 4.81745
      vertex 6.2 5.8044 4.79945
    endloop
  endfacet
  facet normal 1.95554e-16 -0.11291 -0.993605
    outer loop
      vertex 6.2 5.8044 4.79945
      vertex 6.7 5.646 4.81745
      vertex 6.2 5.646 4.81745
    endloop
  endfacet
  facet normal 2.22045e-16 -4.93038e-32 -1
    outer loop
      vertex 6.7 5.646 4.81745
      vertex 6.7 3.576 4.81745
      vertex 6.2 5.646 4.81745
    endloop
  endfacet
  facet normal 2.22045e-16 -4.93038e-32 -1
    outer loop
      vertex 6.2 5.646 4.81745
      vertex 6.7 3.576 4.81745
      vertex 6.2 3.576 4.81745
    endloop
  endfacet
  facet normal -2.22045e-16 -1 0
    outer loop
      vertex 6.2 3.576 4.81745
      vertex 6.7 3.576 4.81745
      vertex 6.7 3.576 9.93545
    endloop
  endfacet
  facet normal -2.22045e-16 -1 0
    outer loop
      vertex 6.2 3.576 9.93545
      vertex 6.2 3.576 4.81745
      vertex 6.7 3.576 9.93545
    endloop
  endfacet
  facet normal -1.90605e-16 -0.99115 -0.132743
    outer loop
      vertex 6.2 3.576 9.93545
      vertex 6.7 3.576 9.93545
      vertex 6.7 3.558 10.0699
    endloop
  endfacet
  facet normal -1.90605e-16 -0.99115 -0.132743
    outer loop
      vertex 6.2 3.558 10.0699
      vertex 6.2 3.576 9.93545
      vertex 6.7 3.558 10.0699
    endloop
  endfacet
  facet normal -8.3037e-17 -0.868919 -0.494954
    outer loop
      vertex 6.2 3.558 10.0699
      vertex 6.7 3.558 10.0699
      vertex 6.7 3.504 10.1647
    endloop
  endfacet
  facet normal -8.3037e-17 -0.868919 -0.494954
    outer loop
      vertex 6.2 3.504 10.1647
      vertex 6.2 3.558 10.0699
      vertex 6.7 3.504 10.1647
    endloop
  endfacet
  facet normal 6.9166e-17 -0.533993 -0.845489
    outer loop
      vertex 6.7 3.504 10.1647
      vertex 6.7 3.4128 10.2223
      vertex 6.2 3.504 10.1647
    endloop
  endfacet
  facet normal 6.9166e-17 -0.533993 -0.845489
    outer loop
      vertex 6.2 3.504 10.1647
      vertex 6.7 3.4128 10.2223
      vertex 6.2 3.4128 10.2223
    endloop
  endfacet
  facet normal 1.86417e-16 -0.149253 -0.988799
    outer loop
      vertex 6.7 3.4128 10.2223
      vertex 6.7 3.2856 10.2415
      vertex 6.2 3.4128 10.2223
    endloop
  endfacet
  facet normal 1.86417e-16 -0.149253 -0.988799
    outer loop
      vertex 6.2 3.4128 10.2223
      vertex 6.7 3.2856 10.2415
      vertex 6.2 3.2856 10.2415
    endloop
  endfacet
  facet normal 2.53226e-16 0.152057 -0.988372
    outer loop
      vertex 6.7 3.2856 10.2415
      vertex 6.7 3.1608 10.2223
      vertex 6.2 3.2856 10.2415
    endloop
  endfacet
  facet normal 2.53226e-16 0.152057 -0.988372
    outer loop
      vertex 6.2 3.2856 10.2415
      vertex 6.7 3.1608 10.2223
      vertex 6.2 3.1608 10.2223
    endloop
  endfacet
  facet normal 3.07122e-16 0.544191 -0.838961
    outer loop
      vertex 6.7 3.1608 10.2223
      vertex 6.7 3.072 10.1647
      vertex 6.2 3.1608 10.2223
    endloop
  endfacet
  facet normal 3.07122e-16 0.544191 -0.838961
    outer loop
      vertex 6.2 3.1608 10.2223
      vertex 6.7 3.072 10.1647
      vertex 6.2 3.072 10.1647
    endloop
  endfacet
  facet normal 3.02841e-16 0.868919 -0.494954
    outer loop
      vertex 6.7 3.018 10.0699
      vertex 6.2 3.018 10.0699
      vertex 6.7 3.072 10.1647
    endloop
  endfacet
  facet normal 3.02841e-16 0.868919 -0.494954
    outer loop
      vertex 6.7 3.072 10.1647
      vertex 6.2 3.018 10.0699
      vertex 6.2 3.072 10.1647
    endloop
  endfacet
  facet normal -0.993759 -4.1655e-16 0.111544
    outer loop
      vertex 2.145 32.7 6.75145
      vertex 2.145 26.7 6.75145
      vertex 2.2 32.7 7.24145
    endloop
  endfacet
  facet normal -0.993759 -4.1655e-16 0.111544
    outer loop
      vertex 2.2 32.7 7.24145
      vertex 2.145 26.7 6.75145
      vertex 2.2 26.7 7.24145
    endloop
  endfacet
  facet normal -0.9437 -3.45634e-16 0.330802
    outer loop
      vertex 1.982 32.7 6.28645
      vertex 1.982 26.7 6.28645
      vertex 2.145 32.7 6.75145
    endloop
  endfacet
  facet normal -0.9437 -3.45634e-16 0.330802
    outer loop
      vertex 2.145 32.7 6.75145
      vertex 1.982 26.7 6.28645
      vertex 2.145 26.7 6.75145
    endloop
  endfacet
  facet normal -0.846741 -2.579e-16 0.532005
    outer loop
      vertex 1.72 32.7 5.86945
      vertex 1.72 26.7 5.86945
      vertex 1.982 32.7 6.28645
    endloop
  endfacet
  facet normal -0.846741 -2.579e-16 0.532005
    outer loop
      vertex 1.982 32.7 6.28645
      vertex 1.72 26.7 5.86945
      vertex 1.982 26.7 6.28645
    endloop
  endfacet
  facet normal -0.707107 -1.57009e-16 0.707107
    outer loop
      vertex 1.72 32.7 5.86945
      vertex 1.372 32.7 5.52145
      vertex 1.372 26.7 5.52145
    endloop
  endfacet
  facet normal -0.707107 -1.57009e-16 0.707107
    outer loop
      vertex 1.72 26.7 5.86945
      vertex 1.72 32.7 5.86945
      vertex 1.372 26.7 5.52145
    endloop
  endfacet
  facet normal -0.532005 -4.82435e-17 0.846741
    outer loop
      vertex 1.372 32.7 5.52145
      vertex 0.955 32.7 5.25945
      vertex 0.955 26.7 5.25945
    endloop
  endfacet
  facet normal -0.532005 -4.82435e-17 0.846741
    outer loop
      vertex 1.372 26.7 5.52145
      vertex 1.372 32.7 5.52145
      vertex 0.955 26.7 5.25945
    endloop
  endfacet
  facet normal -0.330802 6.26377e-17 0.9437
    outer loop
      vertex 0.955 32.7 5.25945
      vertex 0.49 32.7 5.09645
      vertex 0.49 26.7 5.09645
    endloop
  endfacet
  facet normal -0.330802 6.26377e-17 0.9437
    outer loop
      vertex 0.955 26.7 5.25945
      vertex 0.955 32.7 5.25945
      vertex 0.49 26.7 5.09645
    endloop
  endfacet
  facet normal -0.111544 1.71123e-16 0.993759
    outer loop
      vertex 0.49 32.7 5.09645
      vertex -3.95239e-15 32.7 5.04145
      vertex -1.28786e-15 26.7 5.04145
    endloop
  endfacet
  facet normal -0.111544 1.71123e-16 0.993759
    outer loop
      vertex 0.49 26.7 5.09645
      vertex 0.49 32.7 5.09645
      vertex -1.28786e-15 26.7 5.04145
    endloop
  endfacet
  facet normal 0.111544 2.70195e-16 0.993759
    outer loop
      vertex -3.95239e-15 32.7 5.04145
      vertex -0.49 32.7 5.09645
      vertex -0.49 26.7 5.09645
    endloop
  endfacet
  facet normal 0.111544 2.70195e-16 0.993759
    outer loop
      vertex -1.28786e-15 26.7 5.04145
      vertex -3.95239e-15 32.7 5.04145
      vertex -0.49 26.7 5.09645
    endloop
  endfacet
  facet normal 0.330802 3.56449e-16 0.9437
    outer loop
      vertex -0.49 32.7 5.09645
      vertex -0.955 32.7 5.25945
      vertex -0.955 26.7 5.25945
    endloop
  endfacet
  facet normal 0.330802 3.56449e-16 0.9437
    outer loop
      vertex -0.49 26.7 5.09645
      vertex -0.49 32.7 5.09645
      vertex -0.955 26.7 5.25945
    endloop
  endfacet
  facet normal 0.532005 4.24272e-16 0.846741
    outer loop
      vertex -0.955 32.7 5.25945
      vertex -1.372 32.7 5.52145
      vertex -1.372 26.7 5.52145
    endloop
  endfacet
  facet normal 0.532005 4.24272e-16 0.846741
    outer loop
      vertex -0.955 26.7 5.25945
      vertex -0.955 32.7 5.25945
      vertex -1.372 26.7 5.52145
    endloop
  endfacet
  facet normal 0.707107 4.71028e-16 0.707107
    outer loop
      vertex -1.372 32.7 5.52145
      vertex -1.72 32.7 5.86945
      vertex -1.72 26.7 5.86945
    endloop
  endfacet
  facet normal 0.707107 4.71028e-16 0.707107
    outer loop
      vertex -1.372 26.7 5.52145
      vertex -1.372 32.7 5.52145
      vertex -1.72 26.7 5.86945
    endloop
  endfacet
  facet normal 0.846741 4.94157e-16 0.532005
    outer loop
      vertex -1.72 32.7 5.86945
      vertex -1.982 32.7 6.28645
      vertex -1.982 26.7 6.28645
    endloop
  endfacet
  facet normal 0.846741 4.94157e-16 0.532005
    outer loop
      vertex -1.72 26.7 5.86945
      vertex -1.72 32.7 5.86945
      vertex -1.982 26.7 6.28645
    endloop
  endfacet
  facet normal 0.9437 4.9254e-16 0.330802
    outer loop
      vertex -1.982 32.7 6.28645
      vertex -2.145 32.7 6.75145
      vertex -2.145 26.7 6.75145
    endloop
  endfacet
  facet normal 0.9437 4.9254e-16 0.330802
    outer loop
      vertex -1.982 26.7 6.28645
      vertex -1.982 32.7 6.28645
      vertex -2.145 26.7 6.75145
    endloop
  endfacet
  facet normal 0.993759 4.66086e-16 0.111544
    outer loop
      vertex -2.145 32.7 6.75145
      vertex -2.2 32.7 7.24145
      vertex -2.2 26.7 7.24145
    endloop
  endfacet
  facet normal 0.993759 4.66086e-16 0.111544
    outer loop
      vertex -2.145 26.7 6.75145
      vertex -2.145 32.7 6.75145
      vertex -2.2 26.7 7.24145
    endloop
  endfacet
  facet normal 2.22045e-16 -1 -2.22045e-16
    outer loop
      vertex -1.72 26.7 5.86945
      vertex -3.7 26.7 5.10526
      vertex -6.88338e-16 26.7 2.96906
    endloop
  endfacet
  facet normal 2.22045e-16 -1 -2.22045e-16
    outer loop
      vertex -1.982 26.7 6.28645
      vertex -2.145 26.7 6.75145
      vertex -3.7 26.7 9.37765
    endloop
  endfacet
  facet normal 2.22045e-16 -1 -2.22045e-16
    outer loop
      vertex 1.982 26.7 6.28645
      vertex 1.72 26.7 5.86945
      vertex 3.7 26.7 5.10526
    endloop
  endfacet
  facet normal 2.22045e-16 -1 -2.22045e-16
    outer loop
      vertex 3.7 26.7 9.37765
      vertex 2.2 26.7 7.24145
      vertex 3.7 26.7 5.10526
    endloop
  endfacet
  facet normal 2.22045e-16 -1 -2.22045e-16
    outer loop
      vertex 2.2 26.7 7.24145
      vertex 2.145 26.7 6.75145
      vertex 3.7 26.7 5.10526
    endloop
  endfacet
  facet normal 2.22045e-16 -1 -2.22045e-16
    outer loop
      vertex 2.145 26.7 6.75145
      vertex 1.982 26.7 6.28645
      vertex 3.7 26.7 5.10526
    endloop
  endfacet
  facet normal 2.22045e-16 -1 -2.22045e-16
    outer loop
      vertex 3.7 26.7 5.10526
      vertex 1.72 26.7 5.86945
      vertex -6.88338e-16 26.7 2.96906
    endloop
  endfacet
  facet normal 2.22045e-16 -1 -2.22045e-16
    outer loop
      vertex 1.72 26.7 5.86945
      vertex 1.372 26.7 5.52145
      vertex -6.88338e-16 26.7 2.96906
    endloop
  endfacet
  facet normal 2.22045e-16 -1 -2.22045e-16
    outer loop
      vertex 1.372 26.7 5.52145
      vertex 0.955 26.7 5.25945
      vertex -6.88338e-16 26.7 2.96906
    endloop
  endfacet
  facet normal 2.22045e-16 -1 -2.22045e-16
    outer loop
      vertex 0.955 26.7 5.25945
      vertex 0.49 26.7 5.09645
      vertex -6.88338e-16 26.7 2.96906
    endloop
  endfacet
  facet normal 2.22045e-16 -1 -2.22045e-16
    outer loop
      vertex 0.49 26.7 5.09645
      vertex -1.28786e-15 26.7 5.04145
      vertex -6.88338e-16 26.7 2.96906
    endloop
  endfacet
  facet normal 2.22045e-16 -1 -2.22045e-16
    outer loop
      vertex -1.28786e-15 26.7 5.04145
      vertex -0.49 26.7 5.09645
      vertex -6.88338e-16 26.7 2.96906
    endloop
  endfacet
  facet normal 2.22045e-16 -1 -2.22045e-16
    outer loop
      vertex -0.49 26.7 5.09645
      vertex -0.955 26.7 5.25945
      vertex -6.88338e-16 26.7 2.96906
    endloop
  endfacet
  facet normal 2.22045e-16 -1 -2.22045e-16
    outer loop
      vertex -0.955 26.7 5.25945
      vertex -1.372 26.7 5.52145
      vertex -6.88338e-16 26.7 2.96906
    endloop
  endfacet
  facet normal 2.22045e-16 -1 -2.22045e-16
    outer loop
      vertex -1.982 26.7 6.28645
      vertex -3.7 26.7 5.10526
      vertex -1.72 26.7 5.86945
    endloop
  endfacet
  facet normal 2.22045e-16 -1 -2.22045e-16
    outer loop
      vertex -3.7 26.7 9.37765
      vertex -3.7 26.7 5.10526
      vertex -1.982 26.7 6.28645
    endloop
  endfacet
  facet normal 2.22045e-16 -1 -2.22045e-16
    outer loop
      vertex -2.145 26.7 6.75145
      vertex -2.2 26.7 7.24145
      vertex -3.7 26.7 9.37765
    endloop
  endfacet
  facet normal 2.22045e-16 -1 -2.22045e-16
    outer loop
      vertex 2.2 26.7 10.2437
      vertex 2.2 26.7 7.24145
      vertex 3.7 26.7 9.37765
    endloop
  endfacet
  facet normal 2.22045e-16 -1 -2.22045e-16
    outer loop
      vertex -1.372 26.7 5.52145
      vertex -1.72 26.7 5.86945
      vertex -6.88338e-16 26.7 2.96906
    endloop
  endfacet
  facet normal 2.22045e-16 -1 -2.22045e-16
    outer loop
      vertex -2.2 26.7 7.24145
      vertex -2.2 26.7 10.2437
      vertex -3.7 26.7 9.37765
    endloop
  endfacet
  facet normal 0.5 3.03319e-16 -0.866025
    outer loop
      vertex -3.7 26.7 9.37765
      vertex -2.2 26.7 10.2437
      vertex -3.7 23.7 9.37765
    endloop
  endfacet
  facet normal 0.5 3.03319e-16 -0.866025
    outer loop
      vertex -3.7 26.7 9.37765
      vertex -3.7 23.7 9.37765
      vertex -3.7 21.6 9.37765
    endloop
  endfacet
  facet normal 0.5 3.03319e-16 -0.866025
    outer loop
      vertex -3.7 23.7 9.37765
      vertex -2.2 26.7 10.2437
      vertex -2.2 23.7 10.2437
    endloop
  endfacet
  facet normal 1 2.22045e-16 0
    outer loop
      vertex -3.7 20.5 5.10526
      vertex -3.7 26.7 5.10526
      vertex -3.7 26.7 9.37765
    endloop
  endfacet
  facet normal 1 2.22045e-16 0
    outer loop
      vertex -3.7 21.6 7.24145
      vertex -3.7 20.5 5.10526
      vertex -3.7 26.7 9.37765
    endloop
  endfacet
  facet normal 1 2.22045e-16 0
    outer loop
      vertex -3.7 21.6 9.37765
      vertex -3.7 21.6 7.24145
      vertex -3.7 26.7 9.37765
    endloop
  endfacet
  facet normal 1 2.22045e-16 0
    outer loop
      vertex -3.7 20.5 9.37765
      vertex -3.7 20.5 5.10526
      vertex -3.7 20.5 7.24145
    endloop
  endfacet
  facet normal 1 2.22045e-16 0
    outer loop
      vertex -3.7 21.6 7.24145
      vertex -3.7 20.5 7.24145
      vertex -3.7 20.5 5.10526
    endloop
  endfacet
  facet normal -2.22045e-16 1 2.22045e-16
    outer loop
      vertex -1.40794 20.5 8.94542
      vertex -3.7 20.5 9.37765
      vertex 6.88338e-16 20.5 11.5138
    endloop
  endfacet
  facet normal -2.22045e-16 1 2.22045e-16
    outer loop
      vertex -1.72 20.5 8.61345
      vertex -1.556 20.5 8.79745
      vertex -1.546 20.5 8.78745
    endloop
  endfacet
  facet normal -2.22045e-16 1 2.22045e-16
    outer loop
      vertex -1.556 20.5 8.79745
      vertex -3.7 20.5 9.37765
      vertex -1.40794 20.5 8.94542
    endloop
  endfacet
  facet normal -2.22045e-16 1 2.22045e-16
    outer loop
      vertex -0.666667 20.5 8.57479
      vertex -1.40794 20.5 8.94542
      vertex 6.88338e-16 20.5 11.5138
    endloop
  endfacet
  facet normal -2.22045e-16 1 2.22045e-16
    outer loop
      vertex -1.72 20.5 8.61345
      vertex -3.7 20.5 9.37765
      vertex -1.556 20.5 8.79745
    endloop
  endfacet
  facet normal -2.22045e-16 1 2.22045e-16
    outer loop
      vertex -1.982 20.5 8.19645
      vertex -3.7 20.5 9.37765
      vertex -1.72 20.5 8.61345
    endloop
  endfacet
  facet normal -2.22045e-16 1 2.22045e-16
    outer loop
      vertex -1.982 20.5 6.28645
      vertex -3.7 20.5 9.37765
      vertex -2.145 20.5 6.75145
    endloop
  endfacet
  facet normal -2.22045e-16 1 2.22045e-16
    outer loop
      vertex -2.145 20.5 7.73145
      vertex -3.7 20.5 9.37765
      vertex -1.982 20.5 8.19645
    endloop
  endfacet
  facet normal -2.22045e-16 1 2.22045e-16
    outer loop
      vertex -2.2 20.5 7.24145
      vertex -3.7 20.5 9.37765
      vertex -2.145 20.5 7.73145
    endloop
  endfacet
  facet normal -2.22045e-16 1 2.22045e-16
    outer loop
      vertex -2.145 20.5 6.75145
      vertex -3.7 20.5 9.37765
      vertex -2.2 20.5 7.24145
    endloop
  endfacet
  facet normal -2.22045e-16 1 2.22045e-16
    outer loop
      vertex -3.7 20.5 5.10526
      vertex -3.7 20.5 9.37765
      vertex -1.982 20.5 6.28645
    endloop
  endfacet
  facet normal -2.22045e-16 1 2.22045e-16
    outer loop
      vertex -3.7 20.5 5.10526
      vertex -1.982 20.5 6.28645
      vertex 6.88338e-16 20.5 2.96906
    endloop
  endfacet
  facet normal -2.22045e-16 1 2.22045e-16
    outer loop
      vertex -1.372 20.5 5.52145
      vertex 6.88338e-16 20.5 2.96906
      vertex -1.72 20.5 5.86945
    endloop
  endfacet
  facet normal -2.22045e-16 1 2.22045e-16
    outer loop
      vertex -1.982 20.5 6.28645
      vertex -1.72 20.5 5.86945
      vertex 6.88338e-16 20.5 2.96906
    endloop
  endfacet
  facet normal -2.22045e-16 1 2.22045e-16
    outer loop
      vertex -0.955 20.5 5.25945
      vertex 6.88338e-16 20.5 2.96906
      vertex -1.372 20.5 5.52145
    endloop
  endfacet
  facet normal -2.22045e-16 1 2.22045e-16
    outer loop
      vertex -0.49 20.5 5.09645
      vertex 6.88338e-16 20.5 2.96906
      vertex -0.955 20.5 5.25945
    endloop
  endfacet
  facet normal -2.22045e-16 1 2.22045e-16
    outer loop
      vertex 1.46549e-15 20.5 5.04145
      vertex 6.88338e-16 20.5 2.96906
      vertex -0.49 20.5 5.09645
    endloop
  endfacet
  facet normal -2.22045e-16 1 2.22045e-16
    outer loop
      vertex 6.88338e-16 20.5 2.96906
      vertex 0.49 20.5 5.09645
      vertex 0.955 20.5 5.25945
    endloop
  endfacet
  facet normal -2.22045e-16 1 2.22045e-16
    outer loop
      vertex 0.955 20.5 5.25945
      vertex 1.372 20.5 5.52145
      vertex 6.88338e-16 20.5 2.96906
    endloop
  endfacet
  facet normal -2.22045e-16 1 2.22045e-16
    outer loop
      vertex 1.372 20.5 5.52145
      vertex 1.72 20.5 5.86945
      vertex 6.88338e-16 20.5 2.96906
    endloop
  endfacet
  facet normal -2.22045e-16 1 2.22045e-16
    outer loop
      vertex 1.72 20.5 5.86945
      vertex 1.982 20.5 6.28645
      vertex 6.88338e-16 20.5 2.96906
    endloop
  endfacet
  facet normal -2.22045e-16 1 2.22045e-16
    outer loop
      vertex 3.7 20.5 7.24145
      vertex 2.18937 20.5 7.14677
      vertex 2 20.5 7.24145
    endloop
  endfacet
  facet normal -2.22045e-16 1 2.22045e-16
    outer loop
      vertex 1.982 20.5 6.28645
      vertex 3.7 20.5 7.24145
      vertex 6.88338e-16 20.5 2.96906
    endloop
  endfacet
  facet normal -2.22045e-16 1 2.22045e-16
    outer loop
      vertex 2.145 20.5 6.75145
      vertex 2.18937 20.5 7.14677
      vertex 3.7 20.5 7.24145
    endloop
  endfacet
  facet normal -2.22045e-16 1 2.22045e-16
    outer loop
      vertex 2.145 20.5 6.75145
      vertex 3.7 20.5 7.24145
      vertex 1.982 20.5 6.28645
    endloop
  endfacet
  facet normal -2.22045e-16 1 2.22045e-16
    outer loop
      vertex 3.7 20.5 7.24145
      vertex 3.7 20.5 9.37765
      vertex 3.7 20.5 5.10526
    endloop
  endfacet
  facet normal -2.22045e-16 1 2.22045e-16
    outer loop
      vertex 3.7 20.5 7.24145
      vertex 3.7 20.5 5.10526
      vertex 6.88338e-16 20.5 2.96906
    endloop
  endfacet
  facet normal -2.22045e-16 1 2.22045e-16
    outer loop
      vertex -0.666667 20.5 8.57479
      vertex 6.88338e-16 20.5 11.5138
      vertex 1.44064 20.5 10.6821
    endloop
  endfacet
  facet normal -2.22045e-16 1 2.22045e-16
    outer loop
      vertex 0.49 20.5 5.09645
      vertex 6.88338e-16 20.5 2.96906
      vertex 1.46549e-15 20.5 5.04145
    endloop
  endfacet
  facet normal -4.44089e-16 1 -2.22045e-16
    outer loop
      vertex -2.2 20.5 7.24145
      vertex -2.145 20.5 7.73145
      vertex -2.145 20.5 6.75145
    endloop
  endfacet
  facet normal -4.44089e-16 1 -2.22045e-16
    outer loop
      vertex -2.145 20.5 6.75145
      vertex -2.145 20.5 7.73145
      vertex -1.982 20.5 8.19645
    endloop
  endfacet
  facet normal -4.44089e-16 1 -2.22045e-16
    outer loop
      vertex -2.145 20.5 6.75145
      vertex -1.982 20.5 8.19645
      vertex -1.72 20.5 8.61345
    endloop
  endfacet
  facet normal -4.44089e-16 1 -2.22045e-16
    outer loop
      vertex -2.145 20.5 6.75145
      vertex -1.72 20.5 8.61345
      vertex -1.546 20.5 8.78745
    endloop
  endfacet
  facet normal -4.44089e-16 1 -2.22045e-16
    outer loop
      vertex -1.546 20.5 8.78745
      vertex -1.556 20.5 8.79745
      vertex -1.40794 20.5 8.94542
    endloop
  endfacet
  facet normal -4.44089e-16 1 -2.22045e-16
    outer loop
      vertex -1.546 20.5 8.78745
      vertex -1.40794 20.5 8.94542
      vertex -2.145 20.5 6.75145
    endloop
  endfacet
  facet normal -4.44089e-16 1 -2.22045e-16
    outer loop
      vertex -2.145 20.5 6.75145
      vertex -1.40794 20.5 8.94542
      vertex -0.666667 20.5 8.57479
    endloop
  endfacet
  facet normal -4.44089e-16 1 -2.22045e-16
    outer loop
      vertex -2.145 20.5 6.75145
      vertex -0.666667 20.5 8.57479
      vertex 1.46549e-15 20.5 7.24145
    endloop
  endfacet
  facet normal -4.44089e-16 1 -2.22045e-16
    outer loop
      vertex -2.145 20.5 6.75145
      vertex 1.46549e-15 20.5 7.24145
      vertex 2 20.5 7.24145
    endloop
  endfacet
  facet normal -4.44089e-16 1 -2.22045e-16
    outer loop
      vertex -2.145 20.5 6.75145
      vertex 2 20.5 7.24145
      vertex 2.18937 20.5 7.14677
    endloop
  endfacet
  facet normal -4.44089e-16 1 -2.22045e-16
    outer loop
      vertex -2.145 20.5 6.75145
      vertex 2.18937 20.5 7.14677
      vertex 2.145 20.5 6.75145
    endloop
  endfacet
  facet normal -4.44089e-16 1 -2.22045e-16
    outer loop
      vertex -2.145 20.5 6.75145
      vertex 2.145 20.5 6.75145
      vertex 1.982 20.5 6.28645
    endloop
  endfacet
  facet normal -4.44089e-16 1 -2.22045e-16
    outer loop
      vertex -2.145 20.5 6.75145
      vertex 1.982 20.5 6.28645
      vertex 1.72 20.5 5.86945
    endloop
  endfacet
  facet normal -4.44089e-16 1 -2.22045e-16
    outer loop
      vertex -2.145 20.5 6.75145
      vertex 1.72 20.5 5.86945
      vertex 1.372 20.5 5.52145
    endloop
  endfacet
  facet normal -4.44089e-16 1 -2.22045e-16
    outer loop
      vertex -2.145 20.5 6.75145
      vertex 1.372 20.5 5.52145
      vertex 0.955 20.5 5.25945
    endloop
  endfacet
  facet normal -4.44089e-16 1 -2.22045e-16
    outer loop
      vertex -2.145 20.5 6.75145
      vertex 0.955 20.5 5.25945
      vertex 0.49 20.5 5.09645
    endloop
  endfacet
  facet normal -4.44089e-16 1 -2.22045e-16
    outer loop
      vertex -2.145 20.5 6.75145
      vertex 0.49 20.5 5.09645
      vertex 1.46549e-15 20.5 5.04145
    endloop
  endfacet
  facet normal -4.44089e-16 1 -2.22045e-16
    outer loop
      vertex -2.145 20.5 6.75145
      vertex 1.46549e-15 20.5 5.04145
      vertex -0.49 20.5 5.09645
    endloop
  endfacet
  facet normal -4.44089e-16 1 -2.22045e-16
    outer loop
      vertex -2.145 20.5 6.75145
      vertex -0.49 20.5 5.09645
      vertex -0.955 20.5 5.25945
    endloop
  endfacet
  facet normal -4.44089e-16 1 -2.22045e-16
    outer loop
      vertex -2.145 20.5 6.75145
      vertex -0.955 20.5 5.25945
      vertex -1.372 20.5 5.52145
    endloop
  endfacet
  facet normal -4.44089e-16 1 -2.22045e-16
    outer loop
      vertex -2.145 20.5 6.75145
      vertex -1.372 20.5 5.52145
      vertex -1.72 20.5 5.86945
    endloop
  endfacet
  facet normal -4.44089e-16 1 -2.22045e-16
    outer loop
      vertex -2.145 20.5 6.75145
      vertex -1.72 20.5 5.86945
      vertex -1.982 20.5 6.28645
    endloop
  endfacet
  facet normal 0 0 1
    outer loop
      vertex 2 20.5 7.24145
      vertex 1.46549e-15 20.5 7.24145
      vertex 3.7 20.5 7.24145
    endloop
  endfacet
  facet normal -1 -2.22045e-16 0
    outer loop
      vertex 3.7 23.7 9.37765
      vertex 3.7 26.7 9.37765
      vertex 3.7 23.7 7.24145
    endloop
  endfacet
  facet normal -1 -2.22045e-16 0
    outer loop
      vertex 3.7 21.6 9.37765
      vertex 3.7 20.5 5.10526
      vertex 3.7 20.5 9.37765
    endloop
  endfacet
  facet normal -1 -2.22045e-16 0
    outer loop
      vertex 3.7 21.6 7.24145
      vertex 3.7 20.5 5.10526
      vertex 3.7 21.6 9.37765
    endloop
  endfacet
  facet normal -1 -2.22045e-16 0
    outer loop
      vertex 3.7 26.7 5.10526
      vertex 3.7 20.5 5.10526
      vertex 3.7 23.7 7.24145
    endloop
  endfacet
  facet normal -1 -2.22045e-16 0
    outer loop
      vertex 3.7 26.7 5.10526
      vertex 3.7 23.7 7.24145
      vertex 3.7 26.7 9.37765
    endloop
  endfacet
  facet normal -1 -2.22045e-16 0
    outer loop
      vertex 3.7 23.7 7.24145
      vertex 3.7 20.5 5.10526
      vertex 3.7 21.6 7.24145
    endloop
  endfacet
  facet normal -0.5 8.1274e-17 -0.866025
    outer loop
      vertex 2.2 23.7 10.2437
      vertex 2.2 26.7 10.2437
      vertex 3.7 23.7 9.37765
    endloop
  endfacet
  facet normal -0.5 8.1274e-17 -0.866025
    outer loop
      vertex 3.7 23.7 9.37765
      vertex 2.2 26.7 10.2437
      vertex 3.7 26.7 9.37765
    endloop
  endfacet
  facet normal 1 -2.22045e-16 2.22045e-16
    outer loop
      vertex 6.2 3.018 10.0699
      vertex 6.2 3 9.93545
      vertex 6.2 3 4.59545
    endloop
  endfacet
  facet normal 1 -2.22045e-16 2.22045e-16
    outer loop
      vertex 6.2 3.0708 4.33025
      vertex 6.2 3.018 10.0699
      vertex 6.2 3.018 4.44065
    endloop
  endfacet
  facet normal 1 -2.22045e-16 2.22045e-16
    outer loop
      vertex 6.2 3.018 4.44065
      vertex 6.2 3.018 10.0699
      vertex 6.2 3 4.59545
    endloop
  endfacet
  facet normal 1 -2.22045e-16 2.22045e-16
    outer loop
      vertex 6.2 3.1584 4.26305
      vertex 6.2 3.018 10.0699
      vertex 6.2 3.0708 4.33025
    endloop
  endfacet
  facet normal 1 -2.22045e-16 2.22045e-16
    outer loop
      vertex 6.2 3.282 4.24145
      vertex 6.2 3.018 10.0699
      vertex 6.2 3.1584 4.26305
    endloop
  endfacet
  facet normal 1 -2.22045e-16 2.22045e-16
    outer loop
      vertex 6.2 3.576 4.81745
      vertex 6.2 3.018 10.0699
      vertex 6.2 3.282 4.24145
    endloop
  endfacet
  facet normal 1 -2.22045e-16 2.22045e-16
    outer loop
      vertex 6.2 5.646 4.81745
      vertex 6.2 5.634 4.24145
      vertex 6.2 5.7984 4.25945
    endloop
  endfacet
  facet normal 1 -2.22045e-16 2.22045e-16
    outer loop
      vertex 6.2 5.646 4.81745
      vertex 6.2 3.576 4.81745
      vertex 6.2 5.634 4.24145
    endloop
  endfacet
  facet normal 1 -2.22045e-16 2.22045e-16
    outer loop
      vertex 6.2 5.8044 4.79945
      vertex 6.2 5.9148 4.31345
      vertex 6.2 5.9844 4.40225
    endloop
  endfacet
  facet normal 1 -2.22045e-16 2.22045e-16
    outer loop
      vertex 6.2 5.9856 4.65425
      vertex 6.2 5.9172 4.74545
      vertex 6.2 6.0084 4.52705
    endloop
  endfacet
  facet normal 1 -2.22045e-16 2.22045e-16
    outer loop
      vertex 6.2 6.0084 4.52705
      vertex 6.2 5.8044 4.79945
      vertex 6.2 5.9844 4.40225
    endloop
  endfacet
  facet normal 1 -2.22045e-16 2.22045e-16
    outer loop
      vertex 6.2 5.9148 4.31345
      vertex 6.2 5.646 4.81745
      vertex 6.2 5.7984 4.25945
    endloop
  endfacet
  facet normal 1 -2.22045e-16 2.22045e-16
    outer loop
      vertex 6.2 5.634 4.24145
      vertex 6.2 3.576 4.81745
      vertex 6.2 3.282 4.24145
    endloop
  endfacet
  facet normal 1 -2.22045e-16 2.22045e-16
    outer loop
      vertex 6.2 3.558 10.0699
      vertex 6.2 3.018 10.0699
      vertex 6.2 3.576 9.93545
    endloop
  endfacet
  facet normal 1 -2.22045e-16 2.22045e-16
    outer loop
      vertex 6.2 3.504 10.1647
      vertex 6.2 3.018 10.0699
      vertex 6.2 3.558 10.0699
    endloop
  endfacet
  facet normal 1 -2.22045e-16 2.22045e-16
    outer loop
      vertex 6.2 3.4128 10.2223
      vertex 6.2 3.018 10.0699
      vertex 6.2 3.504 10.1647
    endloop
  endfacet
  facet normal 1 -2.22045e-16 2.22045e-16
    outer loop
      vertex 6.2 3.2856 10.2415
      vertex 6.2 3.018 10.0699
      vertex 6.2 3.4128 10.2223
    endloop
  endfacet
  facet normal 1 -2.22045e-16 2.22045e-16
    outer loop
      vertex 6.2 3.1608 10.2223
      vertex 6.2 3.018 10.0699
      vertex 6.2 3.2856 10.2415
    endloop
  endfacet
  facet normal 1 -2.22045e-16 2.22045e-16
    outer loop
      vertex 6.2 3.072 10.1647
      vertex 6.2 3.018 10.0699
      vertex 6.2 3.1608 10.2223
    endloop
  endfacet
  facet normal 1 -2.22045e-16 2.22045e-16
    outer loop
      vertex 6.2 5.9172 4.74545
      vertex 6.2 5.8044 4.79945
      vertex 6.2 6.0084 4.52705
    endloop
  endfacet
  facet normal 1 -2.22045e-16 2.22045e-16
    outer loop
      vertex 6.2 5.8044 4.79945
      vertex 6.2 5.646 4.81745
      vertex 6.2 5.9148 4.31345
    endloop
  endfacet
  facet normal 1 -2.22045e-16 2.22045e-16
    outer loop
      vertex 6.2 3.576 4.81745
      vertex 6.2 3.576 9.93545
      vertex 6.2 3.018 10.0699
    endloop
  endfacet
  facet normal -0.5 -3.03319e-16 0.866025
    outer loop
      vertex 3.7 26.7 5.10526
      vertex -6.88338e-16 26.7 2.96906
      vertex 6.88338e-16 20.5 2.96906
    endloop
  endfacet
  facet normal -0.5 -3.03319e-16 0.866025
    outer loop
      vertex 3.7 20.5 5.10526
      vertex 3.7 26.7 5.10526
      vertex 6.88338e-16 20.5 2.96906
    endloop
  endfacet
  facet normal 0.5 -8.1274e-17 0.866025
    outer loop
      vertex -6.88338e-16 26.7 2.96906
      vertex -3.7 26.7 5.10526
      vertex -3.7 20.5 5.10526
    endloop
  endfacet
  facet normal 0.5 -8.1274e-17 0.866025
    outer loop
      vertex 6.88338e-16 20.5 2.96906
      vertex -6.88338e-16 26.7 2.96906
      vertex -3.7 20.5 5.10526
    endloop
  endfacet
endsolid OpenSCAD_Model
