solid OpenSCAD_Model
  facet normal -1 0 0
    outer loop
      vertex -17.85 -3 6
      vertex -17.85 -28.4 6
      vertex -17.85 -3 12.4
    endloop
  endfacet
  facet normal -1 0 0
    outer loop
      vertex -17.85 -3 12.4
      vertex -17.85 -28.4 6
      vertex -17.85 -28.4 12.4
    endloop
  endfacet
  facet normal 0 -2.22045e-16 -1
    outer loop
      vertex -17.85 -3 6
      vertex -17.8091 -2.50622 6
      vertex -17.85 -28.4 6
    endloop
  endfacet
  facet normal 0 -2.22045e-16 -1
    outer loop
      vertex -17.85 -28.4 6
      vertex -17.8091 -2.50622 6
      vertex -17.6875 -2.0259 6
    endloop
  endfacet
  facet normal 0 -2.22045e-16 -1
    outer loop
      vertex -17.85 -28.4 6
      vertex -17.6875 -2.0259 6
      vertex -17.4884 -1.57216 6
    endloop
  endfacet
  facet normal 0 -2.22045e-16 -1
    outer loop
      vertex -17.85 -28.4 6
      vertex -17.4884 -1.57216 6
      vertex -17.2174 -1.15736 6
    endloop
  endfacet
  facet normal 0 -2.22045e-16 -1
    outer loop
      vertex -17.85 -28.4 6
      vertex -17.2174 -1.15736 6
      vertex -16.8818 -0.792828 6
    endloop
  endfacet
  facet normal 0 -2.22045e-16 -1
    outer loop
      vertex -17.85 -28.4 6
      vertex -16.8818 -0.792828 6
      vertex -16.4908 -0.488501 6
    endloop
  endfacet
  facet normal 0 -2.22045e-16 -1
    outer loop
      vertex -17.85 -28.4 6
      vertex -16.4908 -0.488501 6
      vertex -16.0551 -0.25268 6
    endloop
  endfacet
  facet normal 0 -2.22045e-16 -1
    outer loop
      vertex -17.85 -28.4 6
      vertex -16.0551 -0.25268 6
      vertex -15.5865 -0.091799 6
    endloop
  endfacet
  facet normal 0 -2.22045e-16 -1
    outer loop
      vertex -17.85 -28.4 6
      vertex -15.5865 -0.091799 6
      vertex -15.0977 -0.010247 6
    endloop
  endfacet
  facet normal 0 -2.22045e-16 -1
    outer loop
      vertex -7.45 -3 6
      vertex -15.0977 -0.010247 6
      vertex 15.0977 -0.010247 6
    endloop
  endfacet
  facet normal 0 -2.22045e-16 -1
    outer loop
      vertex 7.45 -3 6
      vertex 10.5052 -15.2105 6
      vertex 7.45 -28.4 6
    endloop
  endfacet
  facet normal 0 -2.22045e-16 -1
    outer loop
      vertex 7.45 -3 6
      vertex 10.6679 -14.7455 6
      vertex 10.5052 -15.2105 6
    endloop
  endfacet
  facet normal 0 -2.22045e-16 -1
    outer loop
      vertex 7.45 -3 6
      vertex 10.93 -14.3283 6
      vertex 10.6679 -14.7455 6
    endloop
  endfacet
  facet normal 0 -2.22045e-16 -1
    outer loop
      vertex 7.45 -3 6
      vertex 17.85 -3 6
      vertex 10.93 -14.3283 6
    endloop
  endfacet
  facet normal 0 -2.22045e-16 -1
    outer loop
      vertex 7.45 -28.4 6
      vertex 17.85 -28.4 6
      vertex 17.8091 -28.8938 6
    endloop
  endfacet
  facet normal 0 -2.22045e-16 -1
    outer loop
      vertex -17.85 -28.4 6
      vertex 17.8091 -28.8938 6
      vertex 17.6875 -29.3741 6
    endloop
  endfacet
  facet normal 0 -2.22045e-16 -1
    outer loop
      vertex -17.85 -28.4 6
      vertex 17.6875 -29.3741 6
      vertex 17.4884 -29.8278 6
    endloop
  endfacet
  facet normal 0 -2.22045e-16 -1
    outer loop
      vertex -17.85 -28.4 6
      vertex 17.4884 -29.8278 6
      vertex 17.2174 -30.2426 6
    endloop
  endfacet
  facet normal 0 -2.22045e-16 -1
    outer loop
      vertex -17.85 -28.4 6
      vertex 17.2174 -30.2426 6
      vertex 16.8818 -30.6072 6
    endloop
  endfacet
  facet normal 0 -2.22045e-16 -1
    outer loop
      vertex -17.85 -28.4 6
      vertex 16.8818 -30.6072 6
      vertex 16.4908 -30.9115 6
    endloop
  endfacet
  facet normal 0 -2.22045e-16 -1
    outer loop
      vertex -17.85 -28.4 6
      vertex 16.4908 -30.9115 6
      vertex 16.0551 -31.1473 6
    endloop
  endfacet
  facet normal 0 -2.22045e-16 -1
    outer loop
      vertex -17.85 -28.4 6
      vertex 16.0551 -31.1473 6
      vertex 15.5865 -31.3082 6
    endloop
  endfacet
  facet normal 0 -2.22045e-16 -1
    outer loop
      vertex -17.85 -28.4 6
      vertex 15.5865 -31.3082 6
      vertex 15.0977 -31.3898 6
    endloop
  endfacet
  facet normal 0 -2.22045e-16 -1
    outer loop
      vertex -17.85 -28.4 6
      vertex 15.0977 -31.3898 6
      vertex -15.0977 -31.3898 6
    endloop
  endfacet
  facet normal 0 -2.22045e-16 -1
    outer loop
      vertex -17.85 -28.4 6
      vertex -15.0977 -31.3898 6
      vertex -15.5865 -31.3082 6
    endloop
  endfacet
  facet normal 0 -2.22045e-16 -1
    outer loop
      vertex -17.85 -28.4 6
      vertex -15.5865 -31.3082 6
      vertex -16.0551 -31.1473 6
    endloop
  endfacet
  facet normal 0 -2.22045e-16 -1
    outer loop
      vertex -17.85 -28.4 6
      vertex -16.0551 -31.1473 6
      vertex -16.4908 -30.9115 6
    endloop
  endfacet
  facet normal 0 -2.22045e-16 -1
    outer loop
      vertex -17.85 -28.4 6
      vertex -16.4908 -30.9115 6
      vertex -16.8818 -30.6072 6
    endloop
  endfacet
  facet normal 0 -2.22045e-16 -1
    outer loop
      vertex -17.85 -28.4 6
      vertex -16.8818 -30.6072 6
      vertex -17.2174 -30.2426 6
    endloop
  endfacet
  facet normal 0 -2.22045e-16 -1
    outer loop
      vertex -17.85 -28.4 6
      vertex -17.2174 -30.2426 6
      vertex -17.4884 -29.8278 6
    endloop
  endfacet
  facet normal 0 -2.22045e-16 -1
    outer loop
      vertex -17.85 -28.4 6
      vertex -17.4884 -29.8278 6
      vertex -17.6875 -29.3741 6
    endloop
  endfacet
  facet normal 0 -2.22045e-16 -1
    outer loop
      vertex -17.85 -28.4 6
      vertex -17.6875 -29.3741 6
      vertex -17.8091 -28.8938 6
    endloop
  endfacet
  facet normal 0 -2.22045e-16 -1
    outer loop
      vertex -17.85 -28.4 6
      vertex -15.0977 -0.010247 6
      vertex -14.7948 -15.2105 6
    endloop
  endfacet
  facet normal 0 -2.22045e-16 -1
    outer loop
      vertex -7.45 -28.4 6
      vertex -11.2783 -17.42 6
      vertex -10.93 -17.0717 6
    endloop
  endfacet
  facet normal 0 -2.22045e-16 -1
    outer loop
      vertex -17.85 -28.4 6
      vertex -14.7948 -15.2105 6
      vertex -14.85 -15.7 6
    endloop
  endfacet
  facet normal 0 -2.22045e-16 -1
    outer loop
      vertex -17.85 -28.4 6
      vertex -14.85 -15.7 6
      vertex -14.7948 -16.1895 6
    endloop
  endfacet
  facet normal 0 -2.22045e-16 -1
    outer loop
      vertex -17.85 -28.4 6
      vertex -14.7948 -16.1895 6
      vertex -14.6321 -16.6545 6
    endloop
  endfacet
  facet normal 0 -2.22045e-16 -1
    outer loop
      vertex -17.85 -28.4 6
      vertex -14.6321 -16.6545 6
      vertex -14.37 -17.0717 6
    endloop
  endfacet
  facet normal 0 -2.22045e-16 -1
    outer loop
      vertex -17.85 -28.4 6
      vertex -14.37 -17.0717 6
      vertex -14.0217 -17.42 6
    endloop
  endfacet
  facet normal 0 -2.22045e-16 -1
    outer loop
      vertex -17.85 -28.4 6
      vertex -14.0217 -17.42 6
      vertex -13.6045 -17.6821 6
    endloop
  endfacet
  facet normal 0 -2.22045e-16 -1
    outer loop
      vertex -17.85 -28.4 6
      vertex -13.6045 -17.6821 6
      vertex -13.1395 -17.8448 6
    endloop
  endfacet
  facet normal 0 -2.22045e-16 -1
    outer loop
      vertex -7.45 -28.4 6
      vertex -10.93 -17.0717 6
      vertex -10.6679 -16.6545 6
    endloop
  endfacet
  facet normal 0 -2.22045e-16 -1
    outer loop
      vertex -17.85 -28.4 6
      vertex -13.1395 -17.8448 6
      vertex -12.65 -17.9 6
    endloop
  endfacet
  facet normal 0 -2.22045e-16 -1
    outer loop
      vertex -17.85 -28.4 6
      vertex -12.65 -17.9 6
      vertex -12.1605 -17.8448 6
    endloop
  endfacet
  facet normal 0 -2.22045e-16 -1
    outer loop
      vertex -17.85 -28.4 6
      vertex -12.1605 -17.8448 6
      vertex -11.6955 -17.6821 6
    endloop
  endfacet
  facet normal 0 -2.22045e-16 -1
    outer loop
      vertex -17.85 -28.4 6
      vertex -11.6955 -17.6821 6
      vertex -11.2783 -17.42 6
    endloop
  endfacet
  facet normal 0 -2.22045e-16 -1
    outer loop
      vertex -12.65 -13.5 6
      vertex -15.0977 -0.010247 6
      vertex -12.1605 -13.5552 6
    endloop
  endfacet
  facet normal 0 -2.22045e-16 -1
    outer loop
      vertex -7.45 -28.4 6
      vertex -17.85 -28.4 6
      vertex -11.2783 -17.42 6
    endloop
  endfacet
  facet normal 0 -2.22045e-16 -1
    outer loop
      vertex -13.1395 -13.5552 6
      vertex -15.0977 -0.010247 6
      vertex -12.65 -13.5 6
    endloop
  endfacet
  facet normal 0 -2.22045e-16 -1
    outer loop
      vertex -13.6045 -13.7179 6
      vertex -15.0977 -0.010247 6
      vertex -13.1395 -13.5552 6
    endloop
  endfacet
  facet normal 0 -2.22045e-16 -1
    outer loop
      vertex -14.0217 -13.98 6
      vertex -15.0977 -0.010247 6
      vertex -13.6045 -13.7179 6
    endloop
  endfacet
  facet normal 0 -2.22045e-16 -1
    outer loop
      vertex -14.37 -14.3283 6
      vertex -15.0977 -0.010247 6
      vertex -14.0217 -13.98 6
    endloop
  endfacet
  facet normal 0 -2.22045e-16 -1
    outer loop
      vertex -14.6321 -14.7455 6
      vertex -15.0977 -0.010247 6
      vertex -14.37 -14.3283 6
    endloop
  endfacet
  facet normal 0 -2.22045e-16 -1
    outer loop
      vertex -14.7948 -15.2105 6
      vertex -15.0977 -0.010247 6
      vertex -14.6321 -14.7455 6
    endloop
  endfacet
  facet normal 0 -2.22045e-16 -1
    outer loop
      vertex -12.1605 -13.5552 6
      vertex -15.0977 -0.010247 6
      vertex -7.45 -3 6
    endloop
  endfacet
  facet normal 0 -2.22045e-16 -1
    outer loop
      vertex 7.45 -3 6
      vertex -7.45 -3 6
      vertex 15.0977 -0.010247 6
    endloop
  endfacet
  facet normal 0 -2.22045e-16 -1
    outer loop
      vertex -17.85 -28.4 6
      vertex -7.45 -28.4 6
      vertex 17.8091 -28.8938 6
    endloop
  endfacet
  facet normal 0 -2.22045e-16 -1
    outer loop
      vertex 12.1605 -17.8448 6
      vertex 17.85 -28.4 6
      vertex 7.45 -28.4 6
    endloop
  endfacet
  facet normal 0 -2.22045e-16 -1
    outer loop
      vertex -7.45 -28.4 6
      vertex 7.45 -28.4 6
      vertex 17.8091 -28.8938 6
    endloop
  endfacet
  facet normal 0 -2.22045e-16 -1
    outer loop
      vertex 10.45 -15.7 6
      vertex 7.45 -28.4 6
      vertex 10.5052 -15.2105 6
    endloop
  endfacet
  facet normal 0 -2.22045e-16 -1
    outer loop
      vertex 10.5052 -16.1895 6
      vertex 7.45 -28.4 6
      vertex 10.45 -15.7 6
    endloop
  endfacet
  facet normal 0 -2.22045e-16 -1
    outer loop
      vertex 10.6679 -16.6545 6
      vertex 7.45 -28.4 6
      vertex 10.5052 -16.1895 6
    endloop
  endfacet
  facet normal 0 -2.22045e-16 -1
    outer loop
      vertex 10.93 -17.0717 6
      vertex 7.45 -28.4 6
      vertex 10.6679 -16.6545 6
    endloop
  endfacet
  facet normal 0 -2.22045e-16 -1
    outer loop
      vertex 11.2783 -17.42 6
      vertex 7.45 -28.4 6
      vertex 10.93 -17.0717 6
    endloop
  endfacet
  facet normal 0 -2.22045e-16 -1
    outer loop
      vertex 11.6955 -17.6821 6
      vertex 7.45 -28.4 6
      vertex 11.2783 -17.42 6
    endloop
  endfacet
  facet normal 0 -2.22045e-16 -1
    outer loop
      vertex 12.65 -17.9 6
      vertex 17.85 -28.4 6
      vertex 12.1605 -17.8448 6
    endloop
  endfacet
  facet normal 0 -2.22045e-16 -1
    outer loop
      vertex 14.85 -15.7 6
      vertex 17.85 -3 6
      vertex 14.7948 -16.1895 6
    endloop
  endfacet
  facet normal 0 -2.22045e-16 -1
    outer loop
      vertex 13.1395 -17.8448 6
      vertex 17.85 -28.4 6
      vertex 12.65 -17.9 6
    endloop
  endfacet
  facet normal 0 -2.22045e-16 -1
    outer loop
      vertex 13.6045 -17.6821 6
      vertex 17.85 -28.4 6
      vertex 13.1395 -17.8448 6
    endloop
  endfacet
  facet normal 0 -2.22045e-16 -1
    outer loop
      vertex 14.0217 -17.42 6
      vertex 17.85 -28.4 6
      vertex 13.6045 -17.6821 6
    endloop
  endfacet
  facet normal 0 -2.22045e-16 -1
    outer loop
      vertex 14.37 -17.0717 6
      vertex 17.85 -28.4 6
      vertex 14.0217 -17.42 6
    endloop
  endfacet
  facet normal 0 -2.22045e-16 -1
    outer loop
      vertex 14.6321 -16.6545 6
      vertex 17.85 -28.4 6
      vertex 14.37 -17.0717 6
    endloop
  endfacet
  facet normal 0 -2.22045e-16 -1
    outer loop
      vertex 14.7948 -16.1895 6
      vertex 17.85 -28.4 6
      vertex 14.6321 -16.6545 6
    endloop
  endfacet
  facet normal 0 -2.22045e-16 -1
    outer loop
      vertex 17.85 -3 6
      vertex 17.85 -28.4 6
      vertex 14.7948 -16.1895 6
    endloop
  endfacet
  facet normal 0 -2.22045e-16 -1
    outer loop
      vertex 14.7948 -15.2105 6
      vertex 17.85 -3 6
      vertex 14.85 -15.7 6
    endloop
  endfacet
  facet normal 0 -2.22045e-16 -1
    outer loop
      vertex 14.6321 -14.7455 6
      vertex 17.85 -3 6
      vertex 14.7948 -15.2105 6
    endloop
  endfacet
  facet normal 0 -2.22045e-16 -1
    outer loop
      vertex 14.37 -14.3283 6
      vertex 17.85 -3 6
      vertex 14.6321 -14.7455 6
    endloop
  endfacet
  facet normal 0 -2.22045e-16 -1
    outer loop
      vertex 14.0217 -13.98 6
      vertex 17.85 -3 6
      vertex 14.37 -14.3283 6
    endloop
  endfacet
  facet normal 0 -2.22045e-16 -1
    outer loop
      vertex 13.6045 -13.7179 6
      vertex 17.85 -3 6
      vertex 14.0217 -13.98 6
    endloop
  endfacet
  facet normal 0 -2.22045e-16 -1
    outer loop
      vertex 13.1395 -13.5552 6
      vertex 17.85 -3 6
      vertex 13.6045 -13.7179 6
    endloop
  endfacet
  facet normal 0 -2.22045e-16 -1
    outer loop
      vertex 12.65 -13.5 6
      vertex 17.85 -3 6
      vertex 13.1395 -13.5552 6
    endloop
  endfacet
  facet normal 0 -2.22045e-16 -1
    outer loop
      vertex 12.1605 -13.5552 6
      vertex 17.85 -3 6
      vertex 12.65 -13.5 6
    endloop
  endfacet
  facet normal 0 -2.22045e-16 -1
    outer loop
      vertex 11.6955 -13.7179 6
      vertex 17.85 -3 6
      vertex 12.1605 -13.5552 6
    endloop
  endfacet
  facet normal 0 -2.22045e-16 -1
    outer loop
      vertex 11.2783 -13.98 6
      vertex 17.85 -3 6
      vertex 11.6955 -13.7179 6
    endloop
  endfacet
  facet normal 0 -2.22045e-16 -1
    outer loop
      vertex 10.93 -14.3283 6
      vertex 17.85 -3 6
      vertex 11.2783 -13.98 6
    endloop
  endfacet
  facet normal 0 -2.22045e-16 -1
    outer loop
      vertex -7.45 -28.4 6
      vertex -10.6679 -16.6545 6
      vertex -10.5052 -16.1895 6
    endloop
  endfacet
  facet normal 0 -2.22045e-16 -1
    outer loop
      vertex -7.45 -28.4 6
      vertex -10.5052 -16.1895 6
      vertex -10.45 -15.7 6
    endloop
  endfacet
  facet normal 0 -2.22045e-16 -1
    outer loop
      vertex -7.45 -28.4 6
      vertex -10.45 -15.7 6
      vertex -10.5052 -15.2105 6
    endloop
  endfacet
  facet normal 0 -2.22045e-16 -1
    outer loop
      vertex -11.6955 -13.7179 6
      vertex -12.1605 -13.5552 6
      vertex -7.45 -3 6
    endloop
  endfacet
  facet normal 0 -2.22045e-16 -1
    outer loop
      vertex -11.2783 -13.98 6
      vertex -11.6955 -13.7179 6
      vertex -7.45 -3 6
    endloop
  endfacet
  facet normal 0 -2.22045e-16 -1
    outer loop
      vertex -10.93 -14.3283 6
      vertex -11.2783 -13.98 6
      vertex -7.45 -3 6
    endloop
  endfacet
  facet normal 0 -2.22045e-16 -1
    outer loop
      vertex -10.6679 -14.7455 6
      vertex -10.93 -14.3283 6
      vertex -7.45 -3 6
    endloop
  endfacet
  facet normal 0 -2.22045e-16 -1
    outer loop
      vertex -10.5052 -15.2105 6
      vertex -10.6679 -14.7455 6
      vertex -7.45 -3 6
    endloop
  endfacet
  facet normal 0 -2.22045e-16 -1
    outer loop
      vertex -7.45 -28.4 6
      vertex -10.5052 -15.2105 6
      vertex -7.45 -3 6
    endloop
  endfacet
  facet normal 0 -2.22045e-16 -1
    outer loop
      vertex 7.45 -3 6
      vertex 15.0977 -0.010247 6
      vertex 15.5865 -0.091799 6
    endloop
  endfacet
  facet normal 0 -2.22045e-16 -1
    outer loop
      vertex 7.45 -3 6
      vertex 15.5865 -0.091799 6
      vertex 16.0551 -0.25268 6
    endloop
  endfacet
  facet normal 0 -2.22045e-16 -1
    outer loop
      vertex 7.45 -3 6
      vertex 16.0551 -0.25268 6
      vertex 16.4908 -0.488501 6
    endloop
  endfacet
  facet normal 0 -2.22045e-16 -1
    outer loop
      vertex 7.45 -3 6
      vertex 16.4908 -0.488501 6
      vertex 16.8818 -0.792828 6
    endloop
  endfacet
  facet normal 0 -2.22045e-16 -1
    outer loop
      vertex 7.45 -3 6
      vertex 16.8818 -0.792828 6
      vertex 17.2174 -1.15736 6
    endloop
  endfacet
  facet normal 0 -2.22045e-16 -1
    outer loop
      vertex 7.45 -3 6
      vertex 17.2174 -1.15736 6
      vertex 17.4884 -1.57216 6
    endloop
  endfacet
  facet normal 0 -2.22045e-16 -1
    outer loop
      vertex 7.45 -3 6
      vertex 17.4884 -1.57216 6
      vertex 17.6875 -2.0259 6
    endloop
  endfacet
  facet normal 0 -2.22045e-16 -1
    outer loop
      vertex 7.45 -3 6
      vertex 17.6875 -2.0259 6
      vertex 17.8091 -2.50622 6
    endloop
  endfacet
  facet normal 0 -2.22045e-16 -1
    outer loop
      vertex 7.45 -3 6
      vertex 17.8091 -2.50622 6
      vertex 17.85 -3 6
    endloop
  endfacet
  facet normal 0 -2.22045e-16 -1
    outer loop
      vertex 12.1605 -17.8448 6
      vertex 7.45 -28.4 6
      vertex 11.6955 -17.6821 6
    endloop
  endfacet
  facet normal -0.996585 0.0825791 -1.83362e-17
    outer loop
      vertex -17.85 -3 6
      vertex -17.85 -3 12.4
      vertex -17.8091 -2.50622 6
    endloop
  endfacet
  facet normal -0.996585 0.0825791 -1.83362e-17
    outer loop
      vertex -17.8091 -2.50622 6
      vertex -17.85 -3 12.4
      vertex -17.8091 -2.50622 12.4
    endloop
  endfacet
  facet normal 0 2.22045e-16 1
    outer loop
      vertex -17.8091 -2.50622 12.4
      vertex -17.85 -3 12.4
      vertex -17.85 -28.4 12.4
    endloop
  endfacet
  facet normal 0 2.22045e-16 1
    outer loop
      vertex -17.6875 -29.3741 12.4
      vertex -17.8091 -2.50622 12.4
      vertex -17.8091 -28.8938 12.4
    endloop
  endfacet
  facet normal 0 2.22045e-16 1
    outer loop
      vertex -17.8091 -28.8938 12.4
      vertex -17.8091 -2.50622 12.4
      vertex -17.85 -28.4 12.4
    endloop
  endfacet
  facet normal 0 2.22045e-16 1
    outer loop
      vertex -17.4884 -29.8278 12.4
      vertex -17.8091 -2.50622 12.4
      vertex -17.6875 -29.3741 12.4
    endloop
  endfacet
  facet normal 0 2.22045e-16 1
    outer loop
      vertex -17.2174 -30.2426 12.4
      vertex -17.8091 -2.50622 12.4
      vertex -17.4884 -29.8278 12.4
    endloop
  endfacet
  facet normal 0 2.22045e-16 1
    outer loop
      vertex -16.8818 -30.6072 12.4
      vertex -17.8091 -2.50622 12.4
      vertex -17.2174 -30.2426 12.4
    endloop
  endfacet
  facet normal 0 2.22045e-16 1
    outer loop
      vertex -16.4908 -30.9115 12.4
      vertex -17.8091 -2.50622 12.4
      vertex -16.8818 -30.6072 12.4
    endloop
  endfacet
  facet normal 0 2.22045e-16 1
    outer loop
      vertex -16.0551 -31.1473 12.4
      vertex -17.8091 -2.50622 12.4
      vertex -16.4908 -30.9115 12.4
    endloop
  endfacet
  facet normal 0 2.22045e-16 1
    outer loop
      vertex -15.5865 -31.3082 12.4
      vertex -17.8091 -2.50622 12.4
      vertex -16.0551 -31.1473 12.4
    endloop
  endfacet
  facet normal 0 2.22045e-16 1
    outer loop
      vertex -16.35 -19.4 12.4
      vertex -17.8091 -2.50622 12.4
      vertex -15.5865 -31.3082 12.4
    endloop
  endfacet
  facet normal 0 2.22045e-16 1
    outer loop
      vertex 9.5 -19.4 12.4
      vertex 16.8818 -30.6072 12.4
      vertex 17.2174 -30.2426 12.4
    endloop
  endfacet
  facet normal 0 2.22045e-16 1
    outer loop
      vertex 9.5 -19.4 12.4
      vertex 17.2174 -30.2426 12.4
      vertex 17.4884 -29.8278 12.4
    endloop
  endfacet
  facet normal 0 2.22045e-16 1
    outer loop
      vertex 9.5 -19.4 12.4
      vertex 17.4884 -29.8278 12.4
      vertex 17.6875 -29.3741 12.4
    endloop
  endfacet
  facet normal 0 2.22045e-16 1
    outer loop
      vertex 9.5 -19.4 12.4
      vertex 17.6875 -29.3741 12.4
      vertex 17.8091 -28.8938 12.4
    endloop
  endfacet
  facet normal 0 2.22045e-16 1
    outer loop
      vertex 9.5 -19.4 12.4
      vertex 17.8091 -28.8938 12.4
      vertex 17.85 -28.4 12.4
    endloop
  endfacet
  facet normal 0 2.22045e-16 1
    outer loop
      vertex 9.5 -12 12.4
      vertex 12.65 -12 12.4
      vertex 9.5 -3 12.4
    endloop
  endfacet
  facet normal 0 2.22045e-16 1
    outer loop
      vertex 17.8091 -2.50622 12.4
      vertex -17.8091 -2.50622 12.4
      vertex 17.85 -3 12.4
    endloop
  endfacet
  facet normal 0 2.22045e-16 1
    outer loop
      vertex 17.6875 -2.0259 12.4
      vertex -17.8091 -2.50622 12.4
      vertex 17.8091 -2.50622 12.4
    endloop
  endfacet
  facet normal 0 2.22045e-16 1
    outer loop
      vertex 17.4884 -1.57216 12.4
      vertex -17.8091 -2.50622 12.4
      vertex 17.6875 -2.0259 12.4
    endloop
  endfacet
  facet normal 0 2.22045e-16 1
    outer loop
      vertex 17.2174 -1.15736 12.4
      vertex -17.8091 -2.50622 12.4
      vertex 17.4884 -1.57216 12.4
    endloop
  endfacet
  facet normal 0 2.22045e-16 1
    outer loop
      vertex 16.8818 -0.792828 12.4
      vertex -17.8091 -2.50622 12.4
      vertex 17.2174 -1.15736 12.4
    endloop
  endfacet
  facet normal 0 2.22045e-16 1
    outer loop
      vertex 16.4908 -0.488501 12.4
      vertex -17.8091 -2.50622 12.4
      vertex 16.8818 -0.792828 12.4
    endloop
  endfacet
  facet normal 0 2.22045e-16 1
    outer loop
      vertex 16.0551 -0.25268 12.4
      vertex -17.8091 -2.50622 12.4
      vertex 16.4908 -0.488501 12.4
    endloop
  endfacet
  facet normal 0 2.22045e-16 1
    outer loop
      vertex 15.5865 -0.091799 12.4
      vertex -17.8091 -2.50622 12.4
      vertex 16.0551 -0.25268 12.4
    endloop
  endfacet
  facet normal 0 2.22045e-16 1
    outer loop
      vertex 15.0977 -0.010247 12.4
      vertex -17.8091 -2.50622 12.4
      vertex 15.5865 -0.091799 12.4
    endloop
  endfacet
  facet normal 0 2.22045e-16 1
    outer loop
      vertex -15.0977 -0.010247 12.4
      vertex -17.8091 -2.50622 12.4
      vertex 15.0977 -0.010247 12.4
    endloop
  endfacet
  facet normal 0 2.22045e-16 1
    outer loop
      vertex -15.5865 -0.091799 12.4
      vertex -17.8091 -2.50622 12.4
      vertex -15.0977 -0.010247 12.4
    endloop
  endfacet
  facet normal 0 2.22045e-16 1
    outer loop
      vertex -16.0551 -0.25268 12.4
      vertex -17.8091 -2.50622 12.4
      vertex -15.5865 -0.091799 12.4
    endloop
  endfacet
  facet normal 0 2.22045e-16 1
    outer loop
      vertex -16.4908 -0.488501 12.4
      vertex -17.8091 -2.50622 12.4
      vertex -16.0551 -0.25268 12.4
    endloop
  endfacet
  facet normal 0 2.22045e-16 1
    outer loop
      vertex -16.8818 -0.792828 12.4
      vertex -17.8091 -2.50622 12.4
      vertex -16.4908 -0.488501 12.4
    endloop
  endfacet
  facet normal 0 2.22045e-16 1
    outer loop
      vertex -17.2174 -1.15736 12.4
      vertex -17.8091 -2.50622 12.4
      vertex -16.8818 -0.792828 12.4
    endloop
  endfacet
  facet normal 0 2.22045e-16 1
    outer loop
      vertex -17.4884 -1.57216 12.4
      vertex -17.8091 -2.50622 12.4
      vertex -17.2174 -1.15736 12.4
    endloop
  endfacet
  facet normal 0 2.22045e-16 1
    outer loop
      vertex -17.6875 -2.0259 12.4
      vertex -17.8091 -2.50622 12.4
      vertex -17.4884 -1.57216 12.4
    endloop
  endfacet
  facet normal 0 2.22045e-16 1
    outer loop
      vertex -15.0977 -31.3898 12.4
      vertex -16.35 -19.4 12.4
      vertex -15.5865 -31.3082 12.4
    endloop
  endfacet
  facet normal 0 2.22045e-16 1
    outer loop
      vertex -12.65 -12 12.4
      vertex -17.8091 -2.50622 12.4
      vertex -16.35 -12 12.4
    endloop
  endfacet
  facet normal 0 2.22045e-16 1
    outer loop
      vertex -9.5 -12 12.4
      vertex -17.8091 -2.50622 12.4
      vertex -12.65 -12 12.4
    endloop
  endfacet
  facet normal 0 2.22045e-16 1
    outer loop
      vertex 9.5 -19.4 12.4
      vertex 16.4908 -30.9115 12.4
      vertex 16.8818 -30.6072 12.4
    endloop
  endfacet
  facet normal 0 2.22045e-16 1
    outer loop
      vertex 9.5 -3 12.4
      vertex -17.8091 -2.50622 12.4
      vertex -9.5 -3 12.4
    endloop
  endfacet
  facet normal 0 2.22045e-16 1
    outer loop
      vertex 17.85 -3 12.4
      vertex -17.8091 -2.50622 12.4
      vertex 9.5 -3 12.4
    endloop
  endfacet
  facet normal 0 2.22045e-16 1
    outer loop
      vertex 17.85 -3 12.4
      vertex 9.5 -3 12.4
      vertex 12.65 -12 12.4
    endloop
  endfacet
  facet normal 0 2.22045e-16 1
    outer loop
      vertex 16.35 -19.4 12.4
      vertex 9.5 -19.4 12.4
      vertex 17.85 -28.4 12.4
    endloop
  endfacet
  facet normal 0 2.22045e-16 1
    outer loop
      vertex 17.85 -3 12.4
      vertex 16.35 -12 12.4
      vertex 17.85 -28.4 12.4
    endloop
  endfacet
  facet normal 0 2.22045e-16 1
    outer loop
      vertex 17.85 -3 12.4
      vertex 12.65 -12 12.4
      vertex 16.35 -12 12.4
    endloop
  endfacet
  facet normal 0 2.22045e-16 1
    outer loop
      vertex 16.35 -12 12.4
      vertex 16.35 -19.4 12.4
      vertex 17.85 -28.4 12.4
    endloop
  endfacet
  facet normal 0 2.22045e-16 1
    outer loop
      vertex 15.0977 -31.3898 12.4
      vertex 9.5 -28.4 12.4
      vertex -15.0977 -31.3898 12.4
    endloop
  endfacet
  facet normal 0 2.22045e-16 1
    outer loop
      vertex 9.5 -28.4 12.4
      vertex -9.5 -28.4 12.4
      vertex -15.0977 -31.3898 12.4
    endloop
  endfacet
  facet normal 0 2.22045e-16 1
    outer loop
      vertex -16.35 -19.4 12.4
      vertex -16.35 -12 12.4
      vertex -17.8091 -2.50622 12.4
    endloop
  endfacet
  facet normal 0 2.22045e-16 1
    outer loop
      vertex -9.5 -19.4 12.4
      vertex -15.0977 -31.3898 12.4
      vertex -9.5 -28.4 12.4
    endloop
  endfacet
  facet normal 0 2.22045e-16 1
    outer loop
      vertex -9.5 -19.4 12.4
      vertex -16.35 -19.4 12.4
      vertex -15.0977 -31.3898 12.4
    endloop
  endfacet
  facet normal 0 2.22045e-16 1
    outer loop
      vertex -9.5 -12 12.4
      vertex -9.5 -3 12.4
      vertex -17.8091 -2.50622 12.4
    endloop
  endfacet
  facet normal 0 2.22045e-16 1
    outer loop
      vertex 9.5 -19.4 12.4
      vertex 16.0551 -31.1473 12.4
      vertex 16.4908 -30.9115 12.4
    endloop
  endfacet
  facet normal 0 2.22045e-16 1
    outer loop
      vertex 9.5 -19.4 12.4
      vertex 15.5865 -31.3082 12.4
      vertex 16.0551 -31.1473 12.4
    endloop
  endfacet
  facet normal 0 2.22045e-16 1
    outer loop
      vertex 9.5 -19.4 12.4
      vertex 15.0977 -31.3898 12.4
      vertex 15.5865 -31.3082 12.4
    endloop
  endfacet
  facet normal 0 2.22045e-16 1
    outer loop
      vertex 9.5 -19.4 12.4
      vertex 9.5 -28.4 12.4
      vertex 15.0977 -31.3898 12.4
    endloop
  endfacet
  facet normal -0.996585 -0.0825791 1.83362e-17
    outer loop
      vertex -17.85 -28.4 6
      vertex -17.8091 -28.8938 6
      vertex -17.85 -28.4 12.4
    endloop
  endfacet
  facet normal -0.996585 -0.0825791 1.83362e-17
    outer loop
      vertex -17.85 -28.4 12.4
      vertex -17.8091 -28.8938 6
      vertex -17.8091 -28.8938 12.4
    endloop
  endfacet
  facet normal -0.9694 -0.245485 5.45087e-17
    outer loop
      vertex -17.8091 -28.8938 6
      vertex -17.6875 -29.3741 6
      vertex -17.8091 -28.8938 12.4
    endloop
  endfacet
  facet normal -0.9694 -0.245485 5.45087e-17
    outer loop
      vertex -17.8091 -28.8938 12.4
      vertex -17.6875 -29.3741 6
      vertex -17.6875 -29.3741 12.4
    endloop
  endfacet
  facet normal -0.915773 -0.401696 8.91945e-17
    outer loop
      vertex -17.6875 -29.3741 6
      vertex -17.4884 -29.8278 6
      vertex -17.6875 -29.3741 12.4
    endloop
  endfacet
  facet normal -0.915773 -0.401696 8.91945e-17
    outer loop
      vertex -17.6875 -29.3741 12.4
      vertex -17.4884 -29.8278 6
      vertex -17.4884 -29.8278 12.4
    endloop
  endfacet
  facet normal -0.837167 -0.546947 1.21447e-16
    outer loop
      vertex -17.4884 -29.8278 6
      vertex -17.2174 -30.2426 6
      vertex -17.4884 -29.8278 12.4
    endloop
  endfacet
  facet normal -0.837167 -0.546947 1.21447e-16
    outer loop
      vertex -17.4884 -29.8278 12.4
      vertex -17.2174 -30.2426 6
      vertex -17.2174 -30.2426 12.4
    endloop
  endfacet
  facet normal -0.735724 -0.677281 1.50387e-16
    outer loop
      vertex -17.2174 -30.2426 6
      vertex -16.8818 -30.6072 6
      vertex -17.2174 -30.2426 12.4
    endloop
  endfacet
  facet normal -0.735724 -0.677281 1.50387e-16
    outer loop
      vertex -17.2174 -30.2426 12.4
      vertex -16.8818 -30.6072 6
      vertex -16.8818 -30.6072 12.4
    endloop
  endfacet
  facet normal -0.614211 -0.789142 1.75225e-16
    outer loop
      vertex -16.8818 -30.6072 12.4
      vertex -16.8818 -30.6072 6
      vertex -16.4908 -30.9115 6
    endloop
  endfacet
  facet normal -0.614211 -0.789142 1.75225e-16
    outer loop
      vertex -16.4908 -30.9115 12.4
      vertex -16.8818 -30.6072 12.4
      vertex -16.4908 -30.9115 6
    endloop
  endfacet
  facet normal -0.475948 -0.879473 1.95282e-16
    outer loop
      vertex -16.4908 -30.9115 12.4
      vertex -16.4908 -30.9115 6
      vertex -16.0551 -31.1473 6
    endloop
  endfacet
  facet normal -0.475948 -0.879473 1.95282e-16
    outer loop
      vertex -16.0551 -31.1473 12.4
      vertex -16.4908 -30.9115 12.4
      vertex -16.0551 -31.1473 6
    endloop
  endfacet
  facet normal -0.3247 -0.945817 2.10014e-16
    outer loop
      vertex -16.0551 -31.1473 12.4
      vertex -16.0551 -31.1473 6
      vertex -15.5865 -31.3082 6
    endloop
  endfacet
  facet normal -0.3247 -0.945817 2.10014e-16
    outer loop
      vertex -15.5865 -31.3082 12.4
      vertex -16.0551 -31.1473 12.4
      vertex -15.5865 -31.3082 6
    endloop
  endfacet
  facet normal -0.164593 -0.986362 2.19016e-16
    outer loop
      vertex -15.5865 -31.3082 12.4
      vertex -15.5865 -31.3082 6
      vertex -15.0977 -31.3898 6
    endloop
  endfacet
  facet normal -0.164593 -0.986362 2.19016e-16
    outer loop
      vertex -15.0977 -31.3898 12.4
      vertex -15.5865 -31.3082 12.4
      vertex -15.0977 -31.3898 6
    endloop
  endfacet
  facet normal 0 -1 2.22045e-16
    outer loop
      vertex -15.0977 -31.3898 12.4
      vertex -15.0977 -31.3898 6
      vertex 15.0977 -31.3898 6
    endloop
  endfacet
  facet normal 0 -1 2.22045e-16
    outer loop
      vertex 15.0977 -31.3898 12.4
      vertex -15.0977 -31.3898 12.4
      vertex 15.0977 -31.3898 6
    endloop
  endfacet
  facet normal 0.164593 -0.986362 2.19016e-16
    outer loop
      vertex 15.0977 -31.3898 12.4
      vertex 15.0977 -31.3898 6
      vertex 15.5865 -31.3082 6
    endloop
  endfacet
  facet normal 0.164593 -0.986362 2.19016e-16
    outer loop
      vertex 15.5865 -31.3082 12.4
      vertex 15.0977 -31.3898 12.4
      vertex 15.5865 -31.3082 6
    endloop
  endfacet
  facet normal 0.3247 -0.945817 2.10014e-16
    outer loop
      vertex 15.5865 -31.3082 12.4
      vertex 15.5865 -31.3082 6
      vertex 16.0551 -31.1473 6
    endloop
  endfacet
  facet normal 0.3247 -0.945817 2.10014e-16
    outer loop
      vertex 16.0551 -31.1473 12.4
      vertex 15.5865 -31.3082 12.4
      vertex 16.0551 -31.1473 6
    endloop
  endfacet
  facet normal 0.475948 -0.879473 1.95282e-16
    outer loop
      vertex 16.0551 -31.1473 12.4
      vertex 16.0551 -31.1473 6
      vertex 16.4908 -30.9115 6
    endloop
  endfacet
  facet normal 0.475948 -0.879473 1.95282e-16
    outer loop
      vertex 16.4908 -30.9115 12.4
      vertex 16.0551 -31.1473 12.4
      vertex 16.4908 -30.9115 6
    endloop
  endfacet
  facet normal 0.614211 -0.789142 1.75225e-16
    outer loop
      vertex 16.4908 -30.9115 12.4
      vertex 16.4908 -30.9115 6
      vertex 16.8818 -30.6072 6
    endloop
  endfacet
  facet normal 0.614211 -0.789142 1.75225e-16
    outer loop
      vertex 16.8818 -30.6072 12.4
      vertex 16.4908 -30.9115 12.4
      vertex 16.8818 -30.6072 6
    endloop
  endfacet
  facet normal 0.735724 -0.677281 1.50387e-16
    outer loop
      vertex 16.8818 -30.6072 12.4
      vertex 16.8818 -30.6072 6
      vertex 17.2174 -30.2426 6
    endloop
  endfacet
  facet normal 0.735724 -0.677281 1.50387e-16
    outer loop
      vertex 17.2174 -30.2426 12.4
      vertex 16.8818 -30.6072 12.4
      vertex 17.2174 -30.2426 6
    endloop
  endfacet
  facet normal 0.837167 -0.546947 1.21447e-16
    outer loop
      vertex 17.2174 -30.2426 12.4
      vertex 17.2174 -30.2426 6
      vertex 17.4884 -29.8278 6
    endloop
  endfacet
  facet normal 0.837167 -0.546947 1.21447e-16
    outer loop
      vertex 17.4884 -29.8278 12.4
      vertex 17.2174 -30.2426 12.4
      vertex 17.4884 -29.8278 6
    endloop
  endfacet
  facet normal 0.915773 -0.401696 8.91945e-17
    outer loop
      vertex 17.4884 -29.8278 12.4
      vertex 17.4884 -29.8278 6
      vertex 17.6875 -29.3741 6
    endloop
  endfacet
  facet normal 0.915773 -0.401696 8.91945e-17
    outer loop
      vertex 17.6875 -29.3741 12.4
      vertex 17.4884 -29.8278 12.4
      vertex 17.6875 -29.3741 6
    endloop
  endfacet
  facet normal 0.9694 -0.245485 5.45087e-17
    outer loop
      vertex 17.6875 -29.3741 12.4
      vertex 17.6875 -29.3741 6
      vertex 17.8091 -28.8938 6
    endloop
  endfacet
  facet normal 0.9694 -0.245485 5.45087e-17
    outer loop
      vertex 17.8091 -28.8938 12.4
      vertex 17.6875 -29.3741 12.4
      vertex 17.8091 -28.8938 6
    endloop
  endfacet
  facet normal 0.996585 -0.0825791 1.83362e-17
    outer loop
      vertex 17.8091 -28.8938 12.4
      vertex 17.8091 -28.8938 6
      vertex 17.85 -28.4 6
    endloop
  endfacet
  facet normal 0.996585 -0.0825791 1.83362e-17
    outer loop
      vertex 17.85 -28.4 12.4
      vertex 17.8091 -28.8938 12.4
      vertex 17.85 -28.4 6
    endloop
  endfacet
  facet normal 1 0 0
    outer loop
      vertex 17.85 -28.4 6
      vertex 17.85 -3 6
      vertex 17.85 -3 12.4
    endloop
  endfacet
  facet normal 1 0 0
    outer loop
      vertex 17.85 -28.4 12.4
      vertex 17.85 -28.4 6
      vertex 17.85 -3 12.4
    endloop
  endfacet
  facet normal 0.996585 0.0825791 -1.83362e-17
    outer loop
      vertex 17.85 -3 6
      vertex 17.8091 -2.50622 6
      vertex 17.8091 -2.50622 12.4
    endloop
  endfacet
  facet normal 0.996585 0.0825791 -1.83362e-17
    outer loop
      vertex 17.85 -3 12.4
      vertex 17.85 -3 6
      vertex 17.8091 -2.50622 12.4
    endloop
  endfacet
  facet normal 0.9694 0.245485 -5.45087e-17
    outer loop
      vertex 17.8091 -2.50622 6
      vertex 17.6875 -2.0259 6
      vertex 17.6875 -2.0259 12.4
    endloop
  endfacet
  facet normal 0.9694 0.245485 -5.45087e-17
    outer loop
      vertex 17.8091 -2.50622 12.4
      vertex 17.8091 -2.50622 6
      vertex 17.6875 -2.0259 12.4
    endloop
  endfacet
  facet normal 0.915773 0.401696 -8.91945e-17
    outer loop
      vertex 17.6875 -2.0259 6
      vertex 17.4884 -1.57216 6
      vertex 17.4884 -1.57216 12.4
    endloop
  endfacet
  facet normal 0.915773 0.401696 -8.91945e-17
    outer loop
      vertex 17.6875 -2.0259 12.4
      vertex 17.6875 -2.0259 6
      vertex 17.4884 -1.57216 12.4
    endloop
  endfacet
  facet normal 0.837167 0.546947 -1.21447e-16
    outer loop
      vertex 17.4884 -1.57216 6
      vertex 17.2174 -1.15736 6
      vertex 17.2174 -1.15736 12.4
    endloop
  endfacet
  facet normal 0.837167 0.546947 -1.21447e-16
    outer loop
      vertex 17.4884 -1.57216 12.4
      vertex 17.4884 -1.57216 6
      vertex 17.2174 -1.15736 12.4
    endloop
  endfacet
  facet normal 0.735724 0.677281 -1.50387e-16
    outer loop
      vertex 17.2174 -1.15736 6
      vertex 16.8818 -0.792828 6
      vertex 16.8818 -0.792828 12.4
    endloop
  endfacet
  facet normal 0.735724 0.677281 -1.50387e-16
    outer loop
      vertex 17.2174 -1.15736 12.4
      vertex 17.2174 -1.15736 6
      vertex 16.8818 -0.792828 12.4
    endloop
  endfacet
  facet normal 0.614211 0.789142 -1.75225e-16
    outer loop
      vertex 16.4908 -0.488501 6
      vertex 16.4908 -0.488501 12.4
      vertex 16.8818 -0.792828 6
    endloop
  endfacet
  facet normal 0.614211 0.789142 -1.75225e-16
    outer loop
      vertex 16.8818 -0.792828 6
      vertex 16.4908 -0.488501 12.4
      vertex 16.8818 -0.792828 12.4
    endloop
  endfacet
  facet normal 0.475948 0.879473 -1.95282e-16
    outer loop
      vertex 16.0551 -0.25268 6
      vertex 16.0551 -0.25268 12.4
      vertex 16.4908 -0.488501 6
    endloop
  endfacet
  facet normal 0.475948 0.879473 -1.95282e-16
    outer loop
      vertex 16.4908 -0.488501 6
      vertex 16.0551 -0.25268 12.4
      vertex 16.4908 -0.488501 12.4
    endloop
  endfacet
  facet normal 0.3247 0.945817 -2.10014e-16
    outer loop
      vertex 15.5865 -0.091799 6
      vertex 15.5865 -0.091799 12.4
      vertex 16.0551 -0.25268 6
    endloop
  endfacet
  facet normal 0.3247 0.945817 -2.10014e-16
    outer loop
      vertex 16.0551 -0.25268 6
      vertex 15.5865 -0.091799 12.4
      vertex 16.0551 -0.25268 12.4
    endloop
  endfacet
  facet normal 0.164593 0.986362 -2.19016e-16
    outer loop
      vertex 15.0977 -0.010247 6
      vertex 15.0977 -0.010247 12.4
      vertex 15.5865 -0.091799 6
    endloop
  endfacet
  facet normal 0.164593 0.986362 -2.19016e-16
    outer loop
      vertex 15.5865 -0.091799 6
      vertex 15.0977 -0.010247 12.4
      vertex 15.5865 -0.091799 12.4
    endloop
  endfacet
  facet normal 0 1 -2.22045e-16
    outer loop
      vertex -15.0977 -0.010247 6
      vertex -15.0977 -0.010247 12.4
      vertex 15.0977 -0.010247 6
    endloop
  endfacet
  facet normal 0 1 -2.22045e-16
    outer loop
      vertex 15.0977 -0.010247 6
      vertex -15.0977 -0.010247 12.4
      vertex 15.0977 -0.010247 12.4
    endloop
  endfacet
  facet normal -0.164593 0.986362 -2.19016e-16
    outer loop
      vertex -15.5865 -0.091799 6
      vertex -15.5865 -0.091799 12.4
      vertex -15.0977 -0.010247 6
    endloop
  endfacet
  facet normal -0.164593 0.986362 -2.19016e-16
    outer loop
      vertex -15.0977 -0.010247 6
      vertex -15.5865 -0.091799 12.4
      vertex -15.0977 -0.010247 12.4
    endloop
  endfacet
  facet normal -0.3247 0.945817 -2.10014e-16
    outer loop
      vertex -16.0551 -0.25268 6
      vertex -16.0551 -0.25268 12.4
      vertex -15.5865 -0.091799 6
    endloop
  endfacet
  facet normal -0.3247 0.945817 -2.10014e-16
    outer loop
      vertex -15.5865 -0.091799 6
      vertex -16.0551 -0.25268 12.4
      vertex -15.5865 -0.091799 12.4
    endloop
  endfacet
  facet normal -0.475948 0.879473 -1.95282e-16
    outer loop
      vertex -16.4908 -0.488501 6
      vertex -16.4908 -0.488501 12.4
      vertex -16.0551 -0.25268 6
    endloop
  endfacet
  facet normal -0.475948 0.879473 -1.95282e-16
    outer loop
      vertex -16.0551 -0.25268 6
      vertex -16.4908 -0.488501 12.4
      vertex -16.0551 -0.25268 12.4
    endloop
  endfacet
  facet normal -0.614211 0.789142 -1.75225e-16
    outer loop
      vertex -16.8818 -0.792828 6
      vertex -16.8818 -0.792828 12.4
      vertex -16.4908 -0.488501 6
    endloop
  endfacet
  facet normal -0.614211 0.789142 -1.75225e-16
    outer loop
      vertex -16.4908 -0.488501 6
      vertex -16.8818 -0.792828 12.4
      vertex -16.4908 -0.488501 12.4
    endloop
  endfacet
  facet normal -0.735724 0.677281 -1.50387e-16
    outer loop
      vertex -17.2174 -1.15736 6
      vertex -17.2174 -1.15736 12.4
      vertex -16.8818 -0.792828 6
    endloop
  endfacet
  facet normal -0.735724 0.677281 -1.50387e-16
    outer loop
      vertex -16.8818 -0.792828 6
      vertex -17.2174 -1.15736 12.4
      vertex -16.8818 -0.792828 12.4
    endloop
  endfacet
  facet normal -0.837167 0.546947 -1.21447e-16
    outer loop
      vertex -17.4884 -1.57216 6
      vertex -17.4884 -1.57216 12.4
      vertex -17.2174 -1.15736 6
    endloop
  endfacet
  facet normal -0.837167 0.546947 -1.21447e-16
    outer loop
      vertex -17.2174 -1.15736 6
      vertex -17.4884 -1.57216 12.4
      vertex -17.2174 -1.15736 12.4
    endloop
  endfacet
  facet normal -0.915773 0.401696 -8.91945e-17
    outer loop
      vertex -17.6875 -2.0259 6
      vertex -17.6875 -2.0259 12.4
      vertex -17.4884 -1.57216 6
    endloop
  endfacet
  facet normal -0.915773 0.401696 -8.91945e-17
    outer loop
      vertex -17.4884 -1.57216 6
      vertex -17.6875 -2.0259 12.4
      vertex -17.4884 -1.57216 12.4
    endloop
  endfacet
  facet normal -0.9694 0.245485 -5.45087e-17
    outer loop
      vertex -17.8091 -2.50622 6
      vertex -17.8091 -2.50622 12.4
      vertex -17.6875 -2.0259 6
    endloop
  endfacet
  facet normal -0.9694 0.245485 -5.45087e-17
    outer loop
      vertex -17.6875 -2.0259 6
      vertex -17.8091 -2.50622 12.4
      vertex -17.6875 -2.0259 12.4
    endloop
  endfacet
  facet normal 0.993712 -0.111965 0
    outer loop
      vertex -14.85 -15.7 9.4
      vertex -14.85 -15.7 6
      vertex -14.7948 -15.2105 6
    endloop
  endfacet
  facet normal 0.993712 -0.111965 0
    outer loop
      vertex -14.7948 -15.2105 9.4
      vertex -14.85 -15.7 9.4
      vertex -14.7948 -15.2105 6
    endloop
  endfacet
  facet normal 0.943884 -0.330278 0
    outer loop
      vertex -14.7948 -15.2105 9.4
      vertex -14.7948 -15.2105 6
      vertex -14.6321 -14.7455 6
    endloop
  endfacet
  facet normal 0.943884 -0.330278 0
    outer loop
      vertex -14.6321 -14.7455 9.4
      vertex -14.7948 -15.2105 9.4
      vertex -14.6321 -14.7455 6
    endloop
  endfacet
  facet normal 0.846724 -0.532033 0
    outer loop
      vertex -14.6321 -14.7455 9.4
      vertex -14.6321 -14.7455 6
      vertex -14.37 -14.3283 6
    endloop
  endfacet
  facet normal 0.846724 -0.532033 0
    outer loop
      vertex -14.37 -14.3283 9.4
      vertex -14.6321 -14.7455 9.4
      vertex -14.37 -14.3283 6
    endloop
  endfacet
  facet normal 0.707107 -0.707107 0
    outer loop
      vertex -14.37 -14.3283 9.4
      vertex -14.37 -14.3283 6
      vertex -14.0217 -13.98 6
    endloop
  endfacet
  facet normal 0.707107 -0.707107 0
    outer loop
      vertex -14.0217 -13.98 9.4
      vertex -14.37 -14.3283 9.4
      vertex -14.0217 -13.98 6
    endloop
  endfacet
  facet normal 0.532033 -0.846724 0
    outer loop
      vertex -14.0217 -13.98 9.4
      vertex -14.0217 -13.98 6
      vertex -13.6045 -13.7179 6
    endloop
  endfacet
  facet normal 0.532033 -0.846724 0
    outer loop
      vertex -13.6045 -13.7179 9.4
      vertex -14.0217 -13.98 9.4
      vertex -13.6045 -13.7179 6
    endloop
  endfacet
  facet normal 0.330278 -0.943884 0
    outer loop
      vertex -13.6045 -13.7179 9.4
      vertex -13.6045 -13.7179 6
      vertex -13.1395 -13.5552 6
    endloop
  endfacet
  facet normal 0.330278 -0.943884 0
    outer loop
      vertex -13.1395 -13.5552 9.4
      vertex -13.6045 -13.7179 9.4
      vertex -13.1395 -13.5552 6
    endloop
  endfacet
  facet normal 0.111965 -0.993712 0
    outer loop
      vertex -13.1395 -13.5552 9.4
      vertex -13.1395 -13.5552 6
      vertex -12.65 -13.5 6
    endloop
  endfacet
  facet normal 0.111965 -0.993712 0
    outer loop
      vertex -12.65 -13.5 9.4
      vertex -13.1395 -13.5552 9.4
      vertex -12.65 -13.5 6
    endloop
  endfacet
  facet normal -0.111965 -0.993712 0
    outer loop
      vertex -12.65 -13.5 9.4
      vertex -12.65 -13.5 6
      vertex -12.1605 -13.5552 6
    endloop
  endfacet
  facet normal -0.111965 -0.993712 0
    outer loop
      vertex -12.1605 -13.5552 9.4
      vertex -12.65 -13.5 9.4
      vertex -12.1605 -13.5552 6
    endloop
  endfacet
  facet normal -0.330278 -0.943884 0
    outer loop
      vertex -12.1605 -13.5552 9.4
      vertex -12.1605 -13.5552 6
      vertex -11.6955 -13.7179 6
    endloop
  endfacet
  facet normal -0.330278 -0.943884 0
    outer loop
      vertex -11.6955 -13.7179 9.4
      vertex -12.1605 -13.5552 9.4
      vertex -11.6955 -13.7179 6
    endloop
  endfacet
  facet normal -0.532033 -0.846724 0
    outer loop
      vertex -11.6955 -13.7179 9.4
      vertex -11.6955 -13.7179 6
      vertex -11.2783 -13.98 6
    endloop
  endfacet
  facet normal -0.532033 -0.846724 0
    outer loop
      vertex -11.2783 -13.98 9.4
      vertex -11.6955 -13.7179 9.4
      vertex -11.2783 -13.98 6
    endloop
  endfacet
  facet normal -0.707107 -0.707107 0
    outer loop
      vertex -11.2783 -13.98 6
      vertex -10.93 -14.3283 6
      vertex -11.2783 -13.98 9.4
    endloop
  endfacet
  facet normal -0.707107 -0.707107 0
    outer loop
      vertex -11.2783 -13.98 9.4
      vertex -10.93 -14.3283 6
      vertex -10.93 -14.3283 9.4
    endloop
  endfacet
  facet normal -0.846724 -0.532033 0
    outer loop
      vertex -10.93 -14.3283 6
      vertex -10.6679 -14.7455 6
      vertex -10.93 -14.3283 9.4
    endloop
  endfacet
  facet normal -0.846724 -0.532033 0
    outer loop
      vertex -10.93 -14.3283 9.4
      vertex -10.6679 -14.7455 6
      vertex -10.6679 -14.7455 9.4
    endloop
  endfacet
  facet normal -0.943884 -0.330278 0
    outer loop
      vertex -10.6679 -14.7455 6
      vertex -10.5052 -15.2105 6
      vertex -10.6679 -14.7455 9.4
    endloop
  endfacet
  facet normal -0.943884 -0.330278 0
    outer loop
      vertex -10.6679 -14.7455 9.4
      vertex -10.5052 -15.2105 6
      vertex -10.5052 -15.2105 9.4
    endloop
  endfacet
  facet normal -0.993712 -0.111965 0
    outer loop
      vertex -10.5052 -15.2105 6
      vertex -10.45 -15.7 6
      vertex -10.5052 -15.2105 9.4
    endloop
  endfacet
  facet normal -0.993712 -0.111965 0
    outer loop
      vertex -10.5052 -15.2105 9.4
      vertex -10.45 -15.7 6
      vertex -10.45 -15.7 9.4
    endloop
  endfacet
  facet normal -0.993712 0.111965 0
    outer loop
      vertex -10.5052 -16.1895 6
      vertex -10.5052 -16.1895 9.4
      vertex -10.45 -15.7 6
    endloop
  endfacet
  facet normal -0.993712 0.111965 0
    outer loop
      vertex -10.45 -15.7 6
      vertex -10.5052 -16.1895 9.4
      vertex -10.45 -15.7 9.4
    endloop
  endfacet
  facet normal -0.943884 0.330278 0
    outer loop
      vertex -10.6679 -16.6545 6
      vertex -10.6679 -16.6545 9.4
      vertex -10.5052 -16.1895 6
    endloop
  endfacet
  facet normal -0.943884 0.330278 0
    outer loop
      vertex -10.5052 -16.1895 6
      vertex -10.6679 -16.6545 9.4
      vertex -10.5052 -16.1895 9.4
    endloop
  endfacet
  facet normal -0.846724 0.532033 0
    outer loop
      vertex -10.93 -17.0717 6
      vertex -10.93 -17.0717 9.4
      vertex -10.6679 -16.6545 6
    endloop
  endfacet
  facet normal -0.846724 0.532033 0
    outer loop
      vertex -10.6679 -16.6545 6
      vertex -10.93 -17.0717 9.4
      vertex -10.6679 -16.6545 9.4
    endloop
  endfacet
  facet normal -0.707107 0.707107 0
    outer loop
      vertex -11.2783 -17.42 6
      vertex -11.2783 -17.42 9.4
      vertex -10.93 -17.0717 6
    endloop
  endfacet
  facet normal -0.707107 0.707107 0
    outer loop
      vertex -10.93 -17.0717 6
      vertex -11.2783 -17.42 9.4
      vertex -10.93 -17.0717 9.4
    endloop
  endfacet
  facet normal -0.532033 0.846724 0
    outer loop
      vertex -11.6955 -17.6821 6
      vertex -11.6955 -17.6821 9.4
      vertex -11.2783 -17.42 6
    endloop
  endfacet
  facet normal -0.532033 0.846724 0
    outer loop
      vertex -11.2783 -17.42 6
      vertex -11.6955 -17.6821 9.4
      vertex -11.2783 -17.42 9.4
    endloop
  endfacet
  facet normal -0.330278 0.943884 0
    outer loop
      vertex -12.1605 -17.8448 6
      vertex -12.1605 -17.8448 9.4
      vertex -11.6955 -17.6821 6
    endloop
  endfacet
  facet normal -0.330278 0.943884 0
    outer loop
      vertex -11.6955 -17.6821 6
      vertex -12.1605 -17.8448 9.4
      vertex -11.6955 -17.6821 9.4
    endloop
  endfacet
  facet normal -0.111965 0.993712 0
    outer loop
      vertex -12.65 -17.9 6
      vertex -12.65 -17.9 9.4
      vertex -12.1605 -17.8448 6
    endloop
  endfacet
  facet normal -0.111965 0.993712 0
    outer loop
      vertex -12.1605 -17.8448 9.4
      vertex -12.1605 -17.8448 6
      vertex -12.65 -17.9 9.4
    endloop
  endfacet
  facet normal 0.111965 0.993712 0
    outer loop
      vertex -13.1395 -17.8448 6
      vertex -13.1395 -17.8448 9.4
      vertex -12.65 -17.9 6
    endloop
  endfacet
  facet normal 0.111965 0.993712 0
    outer loop
      vertex -12.65 -17.9 6
      vertex -13.1395 -17.8448 9.4
      vertex -12.65 -17.9 9.4
    endloop
  endfacet
  facet normal 0.330278 0.943884 0
    outer loop
      vertex -13.6045 -17.6821 6
      vertex -13.6045 -17.6821 9.4
      vertex -13.1395 -17.8448 6
    endloop
  endfacet
  facet normal 0.330278 0.943884 0
    outer loop
      vertex -13.1395 -17.8448 6
      vertex -13.6045 -17.6821 9.4
      vertex -13.1395 -17.8448 9.4
    endloop
  endfacet
  facet normal 0.532033 0.846724 0
    outer loop
      vertex -14.0217 -17.42 6
      vertex -14.0217 -17.42 9.4
      vertex -13.6045 -17.6821 6
    endloop
  endfacet
  facet normal 0.532033 0.846724 0
    outer loop
      vertex -13.6045 -17.6821 6
      vertex -14.0217 -17.42 9.4
      vertex -13.6045 -17.6821 9.4
    endloop
  endfacet
  facet normal 0.707107 0.707107 0
    outer loop
      vertex -14.0217 -17.42 6
      vertex -14.37 -17.0717 6
      vertex -14.37 -17.0717 9.4
    endloop
  endfacet
  facet normal 0.707107 0.707107 0
    outer loop
      vertex -14.0217 -17.42 9.4
      vertex -14.0217 -17.42 6
      vertex -14.37 -17.0717 9.4
    endloop
  endfacet
  facet normal 0.846724 0.532033 0
    outer loop
      vertex -14.37 -17.0717 6
      vertex -14.6321 -16.6545 6
      vertex -14.6321 -16.6545 9.4
    endloop
  endfacet
  facet normal 0.846724 0.532033 0
    outer loop
      vertex -14.37 -17.0717 9.4
      vertex -14.37 -17.0717 6
      vertex -14.6321 -16.6545 9.4
    endloop
  endfacet
  facet normal 0.943884 0.330278 0
    outer loop
      vertex -14.6321 -16.6545 6
      vertex -14.7948 -16.1895 6
      vertex -14.7948 -16.1895 9.4
    endloop
  endfacet
  facet normal 0.943884 0.330278 0
    outer loop
      vertex -14.6321 -16.6545 9.4
      vertex -14.6321 -16.6545 6
      vertex -14.7948 -16.1895 9.4
    endloop
  endfacet
  facet normal 0.993712 0.111965 0
    outer loop
      vertex -14.7948 -16.1895 6
      vertex -14.85 -15.7 6
      vertex -14.85 -15.7 9.4
    endloop
  endfacet
  facet normal 0.993712 0.111965 0
    outer loop
      vertex -14.7948 -16.1895 9.4
      vertex -14.7948 -16.1895 6
      vertex -14.85 -15.7 9.4
    endloop
  endfacet
  facet normal 1 0 0
    outer loop
      vertex -7.45 -12 9.7
      vertex -7.45 -6 8.2
      vertex -7.45 -6 9.7
    endloop
  endfacet
  facet normal 1 0 0
    outer loop
      vertex -7.45 -12 9.4
      vertex -7.45 -6 8.2
      vertex -7.45 -12 9.7
    endloop
  endfacet
  facet normal 1 0 0
    outer loop
      vertex -7.45 -3 8.2
      vertex -7.45 -6 8.2
      vertex -7.45 -28.4 6
    endloop
  endfacet
  facet normal 1 0 0
    outer loop
      vertex -7.45 -19.4 9.4
      vertex -7.45 -6 8.2
      vertex -7.45 -12 9.4
    endloop
  endfacet
  facet normal 1 0 0
    outer loop
      vertex -7.45 -25.4 9.7
      vertex -7.45 -6 8.2
      vertex -7.45 -19.4 9.4
    endloop
  endfacet
  facet normal 1 0 0
    outer loop
      vertex -7.45 -25.4 9.7
      vertex -7.45 -19.4 9.4
      vertex -7.45 -19.4 9.7
    endloop
  endfacet
  facet normal 1 0 0
    outer loop
      vertex -7.45 -25.4 8.2
      vertex -7.45 -6 8.2
      vertex -7.45 -25.4 9.7
    endloop
  endfacet
  facet normal 1 0 0
    outer loop
      vertex -7.45 -28.4 6
      vertex -7.45 -6 8.2
      vertex -7.45 -25.4 8.2
    endloop
  endfacet
  facet normal 1 0 0
    outer loop
      vertex -7.45 -28.4 6
      vertex -7.45 -25.4 8.2
      vertex -7.45 -28.4 8.2
    endloop
  endfacet
  facet normal 1 0 0
    outer loop
      vertex -7.45 -3 6
      vertex -7.45 -3 8.2
      vertex -7.45 -28.4 6
    endloop
  endfacet
  facet normal 0 -1 2.22045e-16
    outer loop
      vertex 7.45 -3 6
      vertex 7.45 -3 8.2
      vertex -7.45 -3 8.2
    endloop
  endfacet
  facet normal 0 -1 2.22045e-16
    outer loop
      vertex -7.45 -3 6
      vertex 7.45 -3 6
      vertex -7.45 -3 8.2
    endloop
  endfacet
  facet normal -1 0 0
    outer loop
      vertex 7.45 -28.4 8.2
      vertex 7.45 -25.4 8.2
      vertex 7.45 -28.4 6
    endloop
  endfacet
  facet normal -1 0 0
    outer loop
      vertex 7.45 -19.4 9.7
      vertex 7.45 -25.4 8.2
      vertex 7.45 -25.4 9.7
    endloop
  endfacet
  facet normal -1 0 0
    outer loop
      vertex 7.45 -28.4 6
      vertex 7.45 -25.4 8.2
      vertex 7.45 -19.4 9.7
    endloop
  endfacet
  facet normal -1 0 0
    outer loop
      vertex 7.45 -28.4 6
      vertex 7.45 -19.4 9.7
      vertex 7.45 -19.4 9.4
    endloop
  endfacet
  facet normal -1 0 0
    outer loop
      vertex 7.45 -28.4 6
      vertex 7.45 -19.4 9.4
      vertex 7.45 -12 9.4
    endloop
  endfacet
  facet normal -1 0 0
    outer loop
      vertex 7.45 -12 9.4
      vertex 7.45 -12 9.7
      vertex 7.45 -6 9.7
    endloop
  endfacet
  facet normal -1 0 0
    outer loop
      vertex 7.45 -12 9.4
      vertex 7.45 -6 9.7
      vertex 7.45 -28.4 6
    endloop
  endfacet
  facet normal -1 0 0
    outer loop
      vertex 7.45 -28.4 6
      vertex 7.45 -6 9.7
      vertex 7.45 -6 8.2
    endloop
  endfacet
  facet normal -1 0 0
    outer loop
      vertex 7.45 -28.4 6
      vertex 7.45 -6 8.2
      vertex 7.45 -3 8.2
    endloop
  endfacet
  facet normal -1 0 0
    outer loop
      vertex 7.45 -28.4 6
      vertex 7.45 -3 8.2
      vertex 7.45 -3 6
    endloop
  endfacet
  facet normal 0 1 -2.22045e-16
    outer loop
      vertex 7.45 -28.4 8.2
      vertex 7.45 -28.4 6
      vertex -7.45 -28.4 8.2
    endloop
  endfacet
  facet normal 0 1 -2.22045e-16
    outer loop
      vertex -7.45 -28.4 8.2
      vertex 7.45 -28.4 6
      vertex -7.45 -28.4 6
    endloop
  endfacet
  facet normal 0.993712 -0.111965 0
    outer loop
      vertex 10.5052 -15.2105 6
      vertex 10.5052 -15.2105 9.4
      vertex 10.45 -15.7 9.4
    endloop
  endfacet
  facet normal 0.993712 -0.111965 0
    outer loop
      vertex 10.45 -15.7 6
      vertex 10.5052 -15.2105 6
      vertex 10.45 -15.7 9.4
    endloop
  endfacet
  facet normal 0.943884 -0.330278 0
    outer loop
      vertex 10.6679 -14.7455 6
      vertex 10.6679 -14.7455 9.4
      vertex 10.5052 -15.2105 9.4
    endloop
  endfacet
  facet normal 0.943884 -0.330278 0
    outer loop
      vertex 10.5052 -15.2105 6
      vertex 10.6679 -14.7455 6
      vertex 10.5052 -15.2105 9.4
    endloop
  endfacet
  facet normal 0.846724 -0.532033 0
    outer loop
      vertex 10.93 -14.3283 6
      vertex 10.93 -14.3283 9.4
      vertex 10.6679 -14.7455 9.4
    endloop
  endfacet
  facet normal 0.846724 -0.532033 0
    outer loop
      vertex 10.6679 -14.7455 6
      vertex 10.93 -14.3283 6
      vertex 10.6679 -14.7455 9.4
    endloop
  endfacet
  facet normal 0.707107 -0.707107 0
    outer loop
      vertex 11.2783 -13.98 6
      vertex 11.2783 -13.98 9.4
      vertex 10.93 -14.3283 9.4
    endloop
  endfacet
  facet normal 0.707107 -0.707107 0
    outer loop
      vertex 10.93 -14.3283 6
      vertex 11.2783 -13.98 6
      vertex 10.93 -14.3283 9.4
    endloop
  endfacet
  facet normal 0.532033 -0.846724 0
    outer loop
      vertex 11.6955 -13.7179 6
      vertex 11.6955 -13.7179 9.4
      vertex 11.2783 -13.98 9.4
    endloop
  endfacet
  facet normal 0.532033 -0.846724 0
    outer loop
      vertex 11.2783 -13.98 6
      vertex 11.6955 -13.7179 6
      vertex 11.2783 -13.98 9.4
    endloop
  endfacet
  facet normal 0.330278 -0.943884 0
    outer loop
      vertex 12.1605 -13.5552 6
      vertex 12.1605 -13.5552 9.4
      vertex 11.6955 -13.7179 9.4
    endloop
  endfacet
  facet normal 0.330278 -0.943884 0
    outer loop
      vertex 11.6955 -13.7179 6
      vertex 12.1605 -13.5552 6
      vertex 11.6955 -13.7179 9.4
    endloop
  endfacet
  facet normal 0.111965 -0.993712 0
    outer loop
      vertex 12.65 -13.5 6
      vertex 12.65 -13.5 9.4
      vertex 12.1605 -13.5552 9.4
    endloop
  endfacet
  facet normal 0.111965 -0.993712 0
    outer loop
      vertex 12.1605 -13.5552 6
      vertex 12.65 -13.5 6
      vertex 12.1605 -13.5552 9.4
    endloop
  endfacet
  facet normal -0.111965 -0.993712 0
    outer loop
      vertex 13.1395 -13.5552 6
      vertex 13.1395 -13.5552 9.4
      vertex 12.65 -13.5 9.4
    endloop
  endfacet
  facet normal -0.111965 -0.993712 0
    outer loop
      vertex 12.65 -13.5 6
      vertex 13.1395 -13.5552 6
      vertex 12.65 -13.5 9.4
    endloop
  endfacet
  facet normal -0.330278 -0.943884 0
    outer loop
      vertex 13.6045 -13.7179 6
      vertex 13.6045 -13.7179 9.4
      vertex 13.1395 -13.5552 9.4
    endloop
  endfacet
  facet normal -0.330278 -0.943884 0
    outer loop
      vertex 13.1395 -13.5552 6
      vertex 13.6045 -13.7179 6
      vertex 13.1395 -13.5552 9.4
    endloop
  endfacet
  facet normal -0.532033 -0.846724 0
    outer loop
      vertex 14.0217 -13.98 6
      vertex 14.0217 -13.98 9.4
      vertex 13.6045 -13.7179 9.4
    endloop
  endfacet
  facet normal -0.532033 -0.846724 0
    outer loop
      vertex 13.6045 -13.7179 6
      vertex 14.0217 -13.98 6
      vertex 13.6045 -13.7179 9.4
    endloop
  endfacet
  facet normal -0.707107 -0.707107 0
    outer loop
      vertex 14.37 -14.3283 9.4
      vertex 14.0217 -13.98 9.4
      vertex 14.37 -14.3283 6
    endloop
  endfacet
  facet normal -0.707107 -0.707107 0
    outer loop
      vertex 14.37 -14.3283 6
      vertex 14.0217 -13.98 9.4
      vertex 14.0217 -13.98 6
    endloop
  endfacet
  facet normal -0.846724 -0.532033 0
    outer loop
      vertex 14.6321 -14.7455 9.4
      vertex 14.37 -14.3283 9.4
      vertex 14.6321 -14.7455 6
    endloop
  endfacet
  facet normal -0.846724 -0.532033 0
    outer loop
      vertex 14.6321 -14.7455 6
      vertex 14.37 -14.3283 9.4
      vertex 14.37 -14.3283 6
    endloop
  endfacet
  facet normal -0.943884 -0.330278 0
    outer loop
      vertex 14.7948 -15.2105 9.4
      vertex 14.6321 -14.7455 9.4
      vertex 14.7948 -15.2105 6
    endloop
  endfacet
  facet normal -0.943884 -0.330278 0
    outer loop
      vertex 14.7948 -15.2105 6
      vertex 14.6321 -14.7455 9.4
      vertex 14.6321 -14.7455 6
    endloop
  endfacet
  facet normal -0.993712 -0.111965 0
    outer loop
      vertex 14.85 -15.7 9.4
      vertex 14.7948 -15.2105 9.4
      vertex 14.85 -15.7 6
    endloop
  endfacet
  facet normal -0.993712 -0.111965 0
    outer loop
      vertex 14.85 -15.7 6
      vertex 14.7948 -15.2105 9.4
      vertex 14.7948 -15.2105 6
    endloop
  endfacet
  facet normal -0.993712 0.111965 0
    outer loop
      vertex 14.85 -15.7 9.4
      vertex 14.85 -15.7 6
      vertex 14.7948 -16.1895 9.4
    endloop
  endfacet
  facet normal -0.993712 0.111965 0
    outer loop
      vertex 14.7948 -16.1895 9.4
      vertex 14.85 -15.7 6
      vertex 14.7948 -16.1895 6
    endloop
  endfacet
  facet normal -0.943884 0.330278 0
    outer loop
      vertex 14.7948 -16.1895 9.4
      vertex 14.7948 -16.1895 6
      vertex 14.6321 -16.6545 9.4
    endloop
  endfacet
  facet normal -0.943884 0.330278 0
    outer loop
      vertex 14.6321 -16.6545 9.4
      vertex 14.7948 -16.1895 6
      vertex 14.6321 -16.6545 6
    endloop
  endfacet
  facet normal -0.846724 0.532033 0
    outer loop
      vertex 14.6321 -16.6545 9.4
      vertex 14.6321 -16.6545 6
      vertex 14.37 -17.0717 9.4
    endloop
  endfacet
  facet normal -0.846724 0.532033 0
    outer loop
      vertex 14.37 -17.0717 9.4
      vertex 14.6321 -16.6545 6
      vertex 14.37 -17.0717 6
    endloop
  endfacet
  facet normal -0.707107 0.707107 0
    outer loop
      vertex 14.37 -17.0717 9.4
      vertex 14.37 -17.0717 6
      vertex 14.0217 -17.42 9.4
    endloop
  endfacet
  facet normal -0.707107 0.707107 0
    outer loop
      vertex 14.0217 -17.42 9.4
      vertex 14.37 -17.0717 6
      vertex 14.0217 -17.42 6
    endloop
  endfacet
  facet normal -0.532033 0.846724 0
    outer loop
      vertex 14.0217 -17.42 9.4
      vertex 14.0217 -17.42 6
      vertex 13.6045 -17.6821 9.4
    endloop
  endfacet
  facet normal -0.532033 0.846724 0
    outer loop
      vertex 13.6045 -17.6821 9.4
      vertex 14.0217 -17.42 6
      vertex 13.6045 -17.6821 6
    endloop
  endfacet
  facet normal -0.330278 0.943884 0
    outer loop
      vertex 13.6045 -17.6821 9.4
      vertex 13.6045 -17.6821 6
      vertex 13.1395 -17.8448 9.4
    endloop
  endfacet
  facet normal -0.330278 0.943884 0
    outer loop
      vertex 13.1395 -17.8448 9.4
      vertex 13.6045 -17.6821 6
      vertex 13.1395 -17.8448 6
    endloop
  endfacet
  facet normal -0.111965 0.993712 0
    outer loop
      vertex 13.1395 -17.8448 9.4
      vertex 13.1395 -17.8448 6
      vertex 12.65 -17.9 9.4
    endloop
  endfacet
  facet normal -0.111965 0.993712 0
    outer loop
      vertex 12.65 -17.9 9.4
      vertex 13.1395 -17.8448 6
      vertex 12.65 -17.9 6
    endloop
  endfacet
  facet normal 0.111965 0.993712 0
    outer loop
      vertex 12.65 -17.9 9.4
      vertex 12.65 -17.9 6
      vertex 12.1605 -17.8448 9.4
    endloop
  endfacet
  facet normal 0.111965 0.993712 0
    outer loop
      vertex 12.65 -17.9 6
      vertex 12.1605 -17.8448 6
      vertex 12.1605 -17.8448 9.4
    endloop
  endfacet
  facet normal 0.330278 0.943884 0
    outer loop
      vertex 12.1605 -17.8448 9.4
      vertex 12.1605 -17.8448 6
      vertex 11.6955 -17.6821 9.4
    endloop
  endfacet
  facet normal 0.330278 0.943884 0
    outer loop
      vertex 11.6955 -17.6821 9.4
      vertex 12.1605 -17.8448 6
      vertex 11.6955 -17.6821 6
    endloop
  endfacet
  facet normal 0.532033 0.846724 0
    outer loop
      vertex 11.6955 -17.6821 9.4
      vertex 11.6955 -17.6821 6
      vertex 11.2783 -17.42 9.4
    endloop
  endfacet
  facet normal 0.532033 0.846724 0
    outer loop
      vertex 11.2783 -17.42 9.4
      vertex 11.6955 -17.6821 6
      vertex 11.2783 -17.42 6
    endloop
  endfacet
  facet normal 0.707107 0.707107 0
    outer loop
      vertex 10.93 -17.0717 9.4
      vertex 11.2783 -17.42 9.4
      vertex 11.2783 -17.42 6
    endloop
  endfacet
  facet normal 0.707107 0.707107 0
    outer loop
      vertex 10.93 -17.0717 6
      vertex 10.93 -17.0717 9.4
      vertex 11.2783 -17.42 6
    endloop
  endfacet
  facet normal 0.846724 0.532033 0
    outer loop
      vertex 10.6679 -16.6545 9.4
      vertex 10.93 -17.0717 9.4
      vertex 10.93 -17.0717 6
    endloop
  endfacet
  facet normal 0.846724 0.532033 0
    outer loop
      vertex 10.6679 -16.6545 6
      vertex 10.6679 -16.6545 9.4
      vertex 10.93 -17.0717 6
    endloop
  endfacet
  facet normal 0.943884 0.330278 0
    outer loop
      vertex 10.5052 -16.1895 9.4
      vertex 10.6679 -16.6545 9.4
      vertex 10.6679 -16.6545 6
    endloop
  endfacet
  facet normal 0.943884 0.330278 0
    outer loop
      vertex 10.5052 -16.1895 6
      vertex 10.5052 -16.1895 9.4
      vertex 10.6679 -16.6545 6
    endloop
  endfacet
  facet normal 0.993712 0.111965 0
    outer loop
      vertex 10.45 -15.7 9.4
      vertex 10.5052 -16.1895 9.4
      vertex 10.5052 -16.1895 6
    endloop
  endfacet
  facet normal 0.993712 0.111965 0
    outer loop
      vertex 10.45 -15.7 6
      vertex 10.45 -15.7 9.4
      vertex 10.5052 -16.1895 6
    endloop
  endfacet
  facet normal 1 1.22465e-16 -2.71926e-32
    outer loop
      vertex -16.35 -12 9.4
      vertex -16.35 -12 12.4
      vertex -16.35 -19.4 12.4
    endloop
  endfacet
  facet normal 1 1.22465e-16 -2.71926e-32
    outer loop
      vertex -16.35 -19.4 9.4
      vertex -16.35 -12 9.4
      vertex -16.35 -19.4 12.4
    endloop
  endfacet
  facet normal -1.22465e-16 1 -4.44089e-16
    outer loop
      vertex -16.35 -19.4 12.4
      vertex -9.5 -19.4 12.4
      vertex -16.35 -19.4 9.4
    endloop
  endfacet
  facet normal -1.22465e-16 1 -4.44089e-16
    outer loop
      vertex -16.35 -19.4 9.4
      vertex -9.5 -19.4 12.4
      vertex -9.5 -19.4 9.7
    endloop
  endfacet
  facet normal -1.22465e-16 1 -4.44089e-16
    outer loop
      vertex -16.35 -19.4 9.4
      vertex -9.5 -19.4 9.7
      vertex -8.95 -19.4 9.7
    endloop
  endfacet
  facet normal -1.22465e-16 1 -4.44089e-16
    outer loop
      vertex -16.35 -19.4 9.4
      vertex -8.95 -19.4 9.7
      vertex -8.95 -19.4 9.4
    endloop
  endfacet
  facet normal 1 0 0
    outer loop
      vertex -9.5 -19.4 12.4
      vertex -9.5 -28.4 12.4
      vertex -9.5 -28.4 9.7
    endloop
  endfacet
  facet normal 1 0 0
    outer loop
      vertex -9.5 -19.4 9.7
      vertex -9.5 -19.4 12.4
      vertex -9.5 -28.4 9.7
    endloop
  endfacet
  facet normal 0 1 -2.22045e-16
    outer loop
      vertex 9.5 -28.4 12.4
      vertex 9.5 -28.4 9.7
      vertex -9.5 -28.4 12.4
    endloop
  endfacet
  facet normal 0 1 -2.22045e-16
    outer loop
      vertex -9.5 -28.4 12.4
      vertex 9.5 -28.4 9.7
      vertex -9.5 -28.4 9.7
    endloop
  endfacet
  facet normal -1 0 0
    outer loop
      vertex 9.5 -28.4 12.4
      vertex 9.5 -19.4 12.4
      vertex 9.5 -28.4 9.7
    endloop
  endfacet
  facet normal -1 0 0
    outer loop
      vertex 9.5 -28.4 9.7
      vertex 9.5 -19.4 12.4
      vertex 9.5 -19.4 9.7
    endloop
  endfacet
  facet normal 1.22465e-16 1 -4.44089e-16
    outer loop
      vertex 9.5 -19.4 9.7
      vertex 9.5 -19.4 12.4
      vertex 16.35 -19.4 12.4
    endloop
  endfacet
  facet normal 1.22465e-16 1 -4.44089e-16
    outer loop
      vertex 9.5 -19.4 9.7
      vertex 16.35 -19.4 12.4
      vertex 16.35 -19.4 9.4
    endloop
  endfacet
  facet normal 1.22465e-16 1 -4.44089e-16
    outer loop
      vertex 9.5 -19.4 9.7
      vertex 16.35 -19.4 9.4
      vertex 8.95 -19.4 9.7
    endloop
  endfacet
  facet normal 1.22465e-16 1 -4.44089e-16
    outer loop
      vertex 16.35 -19.4 9.4
      vertex 8.95 -19.4 9.4
      vertex 8.95 -19.4 9.7
    endloop
  endfacet
  facet normal -1 1.22465e-16 -2.71926e-32
    outer loop
      vertex 16.35 -12 12.4
      vertex 16.35 -12 9.4
      vertex 16.35 -19.4 12.4
    endloop
  endfacet
  facet normal -1 1.22465e-16 -2.71926e-32
    outer loop
      vertex 16.35 -19.4 12.4
      vertex 16.35 -12 9.4
      vertex 16.35 -19.4 9.4
    endloop
  endfacet
  facet normal -1.22465e-16 -1 4.44089e-16
    outer loop
      vertex 16.35 -12 9.4
      vertex 16.35 -12 12.4
      vertex 12.65 -12 12.4
    endloop
  endfacet
  facet normal -1.22465e-16 -1 4.44089e-16
    outer loop
      vertex 12.65 -12 9.4
      vertex 16.35 -12 9.4
      vertex 12.65 -12 12.4
    endloop
  endfacet
  facet normal -1.22465e-16 -1 4.44089e-16
    outer loop
      vertex 12.65 -12 9.4
      vertex 12.65 -12 12.4
      vertex 9.5 -12 12.4
    endloop
  endfacet
  facet normal -1.22465e-16 -1 4.44089e-16
    outer loop
      vertex 7.45 -12 9.7
      vertex 12.65 -12 9.4
      vertex 9.5 -12 9.7
    endloop
  endfacet
  facet normal -1.22465e-16 -1 4.44089e-16
    outer loop
      vertex 9.5 -12 9.7
      vertex 12.65 -12 9.4
      vertex 9.5 -12 12.4
    endloop
  endfacet
  facet normal -1.22465e-16 -1 4.44089e-16
    outer loop
      vertex 7.45 -12 9.4
      vertex 12.65 -12 9.4
      vertex 7.45 -12 9.7
    endloop
  endfacet
  facet normal -1 0 0
    outer loop
      vertex 9.5 -12 12.4
      vertex 9.5 -3 12.4
      vertex 9.5 -12 9.7
    endloop
  endfacet
  facet normal -1 0 0
    outer loop
      vertex 9.5 -12 9.7
      vertex 9.5 -3 12.4
      vertex 9.5 -3 9.7
    endloop
  endfacet
  facet normal 0 -1 2.22045e-16
    outer loop
      vertex 9.5 -3 9.7
      vertex 9.5 -3 12.4
      vertex -9.5 -3 12.4
    endloop
  endfacet
  facet normal 0 -1 2.22045e-16
    outer loop
      vertex -9.5 -3 9.7
      vertex 9.5 -3 9.7
      vertex -9.5 -3 12.4
    endloop
  endfacet
  facet normal 1 0 0
    outer loop
      vertex -9.5 -3 12.4
      vertex -9.5 -12 12.4
      vertex -9.5 -12 9.7
    endloop
  endfacet
  facet normal 1 0 0
    outer loop
      vertex -9.5 -3 9.7
      vertex -9.5 -3 12.4
      vertex -9.5 -12 9.7
    endloop
  endfacet
  facet normal 1.22465e-16 -1 4.44089e-16
    outer loop
      vertex -9.5 -12 12.4
      vertex -12.65 -12 12.4
      vertex -12.65 -12 9.4
    endloop
  endfacet
  facet normal 1.22465e-16 -1 4.44089e-16
    outer loop
      vertex -9.5 -12 9.7
      vertex -9.5 -12 12.4
      vertex -12.65 -12 9.4
    endloop
  endfacet
  facet normal 1.22465e-16 -1 4.44089e-16
    outer loop
      vertex -7.45 -12 9.4
      vertex -9.5 -12 9.7
      vertex -12.65 -12 9.4
    endloop
  endfacet
  facet normal 1.22465e-16 -1 4.44089e-16
    outer loop
      vertex -7.45 -12 9.7
      vertex -9.5 -12 9.7
      vertex -7.45 -12 9.4
    endloop
  endfacet
  facet normal 1.22465e-16 -1 4.44089e-16
    outer loop
      vertex -12.65 -12 12.4
      vertex -16.35 -12 12.4
      vertex -16.35 -12 9.4
    endloop
  endfacet
  facet normal 1.22465e-16 -1 4.44089e-16
    outer loop
      vertex -12.65 -12 9.4
      vertex -12.65 -12 12.4
      vertex -16.35 -12 9.4
    endloop
  endfacet
  facet normal -2.71926e-32 4.44089e-16 1
    outer loop
      vertex -14.7948 -16.1895 9.4
      vertex -16.35 -12 9.4
      vertex -16.35 -19.4 9.4
    endloop
  endfacet
  facet normal -2.71926e-32 4.44089e-16 1
    outer loop
      vertex -13.6045 -13.7179 9.4
      vertex -13.1395 -13.5552 9.4
      vertex -12.65 -12 9.4
    endloop
  endfacet
  facet normal -2.71926e-32 4.44089e-16 1
    outer loop
      vertex -12.65 -19.4 9.4
      vertex -12.65 -17.9 9.4
      vertex -16.35 -19.4 9.4
    endloop
  endfacet
  facet normal -2.71926e-32 4.44089e-16 1
    outer loop
      vertex -8.95 -19.4 9.4
      vertex -12.65 -19.4 9.4
      vertex -16.35 -19.4 9.4
    endloop
  endfacet
  facet normal -2.71926e-32 4.44089e-16 1
    outer loop
      vertex -14.37 -14.3283 9.4
      vertex -14.0217 -13.98 9.4
      vertex -12.65 -12 9.4
    endloop
  endfacet
  facet normal -2.71926e-32 4.44089e-16 1
    outer loop
      vertex -12.65 -17.9 9.4
      vertex -13.1395 -17.8448 9.4
      vertex -16.35 -19.4 9.4
    endloop
  endfacet
  facet normal -2.71926e-32 4.44089e-16 1
    outer loop
      vertex -13.1395 -17.8448 9.4
      vertex -13.6045 -17.6821 9.4
      vertex -16.35 -19.4 9.4
    endloop
  endfacet
  facet normal -2.71926e-32 4.44089e-16 1
    outer loop
      vertex -13.6045 -17.6821 9.4
      vertex -14.0217 -17.42 9.4
      vertex -16.35 -19.4 9.4
    endloop
  endfacet
  facet normal -2.71926e-32 4.44089e-16 1
    outer loop
      vertex -14.0217 -17.42 9.4
      vertex -14.37 -17.0717 9.4
      vertex -16.35 -19.4 9.4
    endloop
  endfacet
  facet normal -2.71926e-32 4.44089e-16 1
    outer loop
      vertex -14.37 -17.0717 9.4
      vertex -14.6321 -16.6545 9.4
      vertex -16.35 -19.4 9.4
    endloop
  endfacet
  facet normal -2.71926e-32 4.44089e-16 1
    outer loop
      vertex -14.85 -15.7 9.4
      vertex -16.35 -12 9.4
      vertex -14.7948 -16.1895 9.4
    endloop
  endfacet
  facet normal -2.71926e-32 4.44089e-16 1
    outer loop
      vertex -14.7948 -15.2105 9.4
      vertex -16.35 -12 9.4
      vertex -14.85 -15.7 9.4
    endloop
  endfacet
  facet normal -2.71926e-32 4.44089e-16 1
    outer loop
      vertex -14.6321 -14.7455 9.4
      vertex -16.35 -12 9.4
      vertex -14.7948 -15.2105 9.4
    endloop
  endfacet
  facet normal -2.71926e-32 4.44089e-16 1
    outer loop
      vertex -14.37 -14.3283 9.4
      vertex -16.35 -12 9.4
      vertex -14.6321 -14.7455 9.4
    endloop
  endfacet
  facet normal -2.71926e-32 4.44089e-16 1
    outer loop
      vertex -12.65 -12 9.4
      vertex -16.35 -12 9.4
      vertex -14.37 -14.3283 9.4
    endloop
  endfacet
  facet normal -2.71926e-32 4.44089e-16 1
    outer loop
      vertex -14.6321 -16.6545 9.4
      vertex -14.7948 -16.1895 9.4
      vertex -16.35 -19.4 9.4
    endloop
  endfacet
  facet normal -2.71926e-32 4.44089e-16 1
    outer loop
      vertex -14.0217 -13.98 9.4
      vertex -13.6045 -13.7179 9.4
      vertex -12.65 -12 9.4
    endloop
  endfacet
  facet normal -2.71926e-32 4.44089e-16 1
    outer loop
      vertex -13.1395 -13.5552 9.4
      vertex -12.65 -13.5 9.4
      vertex -12.65 -12 9.4
    endloop
  endfacet
  facet normal -2.71926e-32 4.44089e-16 1
    outer loop
      vertex -7.45 -12 9.4
      vertex -12.65 -12 9.4
      vertex -12.65 -13.5 9.4
    endloop
  endfacet
  facet normal -2.71926e-32 4.44089e-16 1
    outer loop
      vertex -12.1605 -13.5552 9.4
      vertex -7.45 -12 9.4
      vertex -12.65 -13.5 9.4
    endloop
  endfacet
  facet normal -2.71926e-32 4.44089e-16 1
    outer loop
      vertex -11.6955 -13.7179 9.4
      vertex -7.45 -12 9.4
      vertex -12.1605 -13.5552 9.4
    endloop
  endfacet
  facet normal -2.71926e-32 4.44089e-16 1
    outer loop
      vertex -11.2783 -13.98 9.4
      vertex -7.45 -12 9.4
      vertex -11.6955 -13.7179 9.4
    endloop
  endfacet
  facet normal -2.71926e-32 4.44089e-16 1
    outer loop
      vertex -10.93 -14.3283 9.4
      vertex -7.45 -12 9.4
      vertex -11.2783 -13.98 9.4
    endloop
  endfacet
  facet normal -2.71926e-32 4.44089e-16 1
    outer loop
      vertex -10.6679 -14.7455 9.4
      vertex -7.45 -12 9.4
      vertex -10.93 -14.3283 9.4
    endloop
  endfacet
  facet normal -2.71926e-32 4.44089e-16 1
    outer loop
      vertex -10.5052 -15.2105 9.4
      vertex -7.45 -12 9.4
      vertex -10.6679 -14.7455 9.4
    endloop
  endfacet
  facet normal -2.71926e-32 4.44089e-16 1
    outer loop
      vertex -10.45 -15.7 9.4
      vertex -7.45 -12 9.4
      vertex -10.5052 -15.2105 9.4
    endloop
  endfacet
  facet normal -2.71926e-32 4.44089e-16 1
    outer loop
      vertex -10.5052 -16.1895 9.4
      vertex -7.45 -12 9.4
      vertex -10.45 -15.7 9.4
    endloop
  endfacet
  facet normal -2.71926e-32 4.44089e-16 1
    outer loop
      vertex -10.6679 -16.6545 9.4
      vertex -7.45 -12 9.4
      vertex -10.5052 -16.1895 9.4
    endloop
  endfacet
  facet normal -2.71926e-32 4.44089e-16 1
    outer loop
      vertex -10.93 -17.0717 9.4
      vertex -7.45 -12 9.4
      vertex -10.6679 -16.6545 9.4
    endloop
  endfacet
  facet normal -2.71926e-32 4.44089e-16 1
    outer loop
      vertex -7.45 -19.4 9.4
      vertex -7.45 -12 9.4
      vertex -10.93 -17.0717 9.4
    endloop
  endfacet
  facet normal -2.71926e-32 4.44089e-16 1
    outer loop
      vertex -12.65 -19.4 9.4
      vertex -10.93 -17.0717 9.4
      vertex -11.2783 -17.42 9.4
    endloop
  endfacet
  facet normal -2.71926e-32 4.44089e-16 1
    outer loop
      vertex -12.65 -19.4 9.4
      vertex -11.2783 -17.42 9.4
      vertex -11.6955 -17.6821 9.4
    endloop
  endfacet
  facet normal -2.71926e-32 4.44089e-16 1
    outer loop
      vertex -12.65 -19.4 9.4
      vertex -11.6955 -17.6821 9.4
      vertex -12.1605 -17.8448 9.4
    endloop
  endfacet
  facet normal -2.71926e-32 4.44089e-16 1
    outer loop
      vertex -12.65 -19.4 9.4
      vertex -12.1605 -17.8448 9.4
      vertex -12.65 -17.9 9.4
    endloop
  endfacet
  facet normal -2.71926e-32 4.44089e-16 1
    outer loop
      vertex -7.45 -19.4 9.4
      vertex -10.93 -17.0717 9.4
      vertex -12.65 -19.4 9.4
    endloop
  endfacet
  facet normal 0 -2.22045e-16 -1
    outer loop
      vertex 7.45 -6 8.2
      vertex -7.45 -6 8.2
      vertex 7.45 -3 8.2
    endloop
  endfacet
  facet normal 0 -2.22045e-16 -1
    outer loop
      vertex 7.45 -3 8.2
      vertex -7.45 -6 8.2
      vertex -7.45 -3 8.2
    endloop
  endfacet
  facet normal 0 -2.22045e-16 -1
    outer loop
      vertex 7.45 -28.4 8.2
      vertex -7.45 -28.4 8.2
      vertex 7.45 -25.4 8.2
    endloop
  endfacet
  facet normal 0 -2.22045e-16 -1
    outer loop
      vertex 7.45 -25.4 8.2
      vertex -7.45 -28.4 8.2
      vertex -7.45 -25.4 8.2
    endloop
  endfacet
  facet normal 0 1 -2.22045e-16
    outer loop
      vertex 7.45 -25.4 9.7
      vertex 7.45 -25.4 8.2
      vertex -7.45 -25.4 9.7
    endloop
  endfacet
  facet normal 0 1 -2.22045e-16
    outer loop
      vertex -7.45 -25.4 9.7
      vertex 7.45 -25.4 8.2
      vertex -7.45 -25.4 8.2
    endloop
  endfacet
  facet normal 0 2.22045e-16 1
    outer loop
      vertex 7.45 -25.4 9.7
      vertex 9.5 -28.4 9.7
      vertex 9.5 -19.4 9.7
    endloop
  endfacet
  facet normal 0 2.22045e-16 1
    outer loop
      vertex 7.45 -25.4 9.7
      vertex -7.45 -25.4 9.7
      vertex -9.5 -28.4 9.7
    endloop
  endfacet
  facet normal 0 2.22045e-16 1
    outer loop
      vertex -9.5 -28.4 9.7
      vertex 9.5 -28.4 9.7
      vertex 7.45 -25.4 9.7
    endloop
  endfacet
  facet normal 0 2.22045e-16 1
    outer loop
      vertex -7.45 -19.4 9.7
      vertex -9.5 -28.4 9.7
      vertex -7.45 -25.4 9.7
    endloop
  endfacet
  facet normal 0 2.22045e-16 1
    outer loop
      vertex -8.95 -19.4 9.7
      vertex -9.5 -28.4 9.7
      vertex -7.45 -19.4 9.7
    endloop
  endfacet
  facet normal 0 2.22045e-16 1
    outer loop
      vertex -8.95 -19.4 9.7
      vertex -9.5 -19.4 9.7
      vertex -9.5 -28.4 9.7
    endloop
  endfacet
  facet normal 0 2.22045e-16 1
    outer loop
      vertex 8.95 -19.4 9.7
      vertex 7.45 -25.4 9.7
      vertex 9.5 -19.4 9.7
    endloop
  endfacet
  facet normal 0 2.22045e-16 1
    outer loop
      vertex 7.45 -19.4 9.7
      vertex 7.45 -25.4 9.7
      vertex 8.95 -19.4 9.7
    endloop
  endfacet
  facet normal -1.22465e-16 1 -4.44089e-16
    outer loop
      vertex -7.45 -19.4 9.7
      vertex -8.95 -19.4 9.4
      vertex -8.95 -19.4 9.7
    endloop
  endfacet
  facet normal -1.22465e-16 1 -4.44089e-16
    outer loop
      vertex -7.45 -19.4 9.4
      vertex -8.95 -19.4 9.4
      vertex -7.45 -19.4 9.7
    endloop
  endfacet
  facet normal -1.22465e-16 1 -4.44089e-16
    outer loop
      vertex -12.65 -19.4 9.4
      vertex -8.95 -19.4 9.4
      vertex -7.45 -19.4 9.4
    endloop
  endfacet
  facet normal 0 2.22045e-16 1
    outer loop
      vertex -9.5 -12 9.7
      vertex -7.45 -12 9.7
      vertex -7.45 -6 9.7
    endloop
  endfacet
  facet normal 0 2.22045e-16 1
    outer loop
      vertex 7.45 -12 9.7
      vertex 9.5 -12 9.7
      vertex 7.45 -6 9.7
    endloop
  endfacet
  facet normal 0 2.22045e-16 1
    outer loop
      vertex -9.5 -3 9.7
      vertex -9.5 -12 9.7
      vertex -7.45 -6 9.7
    endloop
  endfacet
  facet normal 0 2.22045e-16 1
    outer loop
      vertex 7.45 -6 9.7
      vertex 9.5 -3 9.7
      vertex -7.45 -6 9.7
    endloop
  endfacet
  facet normal 0 2.22045e-16 1
    outer loop
      vertex 7.45 -6 9.7
      vertex 9.5 -12 9.7
      vertex 9.5 -3 9.7
    endloop
  endfacet
  facet normal 0 2.22045e-16 1
    outer loop
      vertex 9.5 -3 9.7
      vertex -9.5 -3 9.7
      vertex -7.45 -6 9.7
    endloop
  endfacet
  facet normal 0 -1 2.22045e-16
    outer loop
      vertex 7.45 -6 8.2
      vertex 7.45 -6 9.7
      vertex -7.45 -6 9.7
    endloop
  endfacet
  facet normal 0 -1 2.22045e-16
    outer loop
      vertex -7.45 -6 8.2
      vertex 7.45 -6 8.2
      vertex -7.45 -6 9.7
    endloop
  endfacet
  facet normal 2.71926e-32 4.44089e-16 1
    outer loop
      vertex 7.45 -19.4 9.4
      vertex 12.65 -19.4 9.4
      vertex 12.65 -17.9 9.4
    endloop
  endfacet
  facet normal 2.71926e-32 4.44089e-16 1
    outer loop
      vertex 11.6955 -17.6821 9.4
      vertex 7.45 -19.4 9.4
      vertex 12.1605 -17.8448 9.4
    endloop
  endfacet
  facet normal 2.71926e-32 4.44089e-16 1
    outer loop
      vertex 12.1605 -17.8448 9.4
      vertex 7.45 -19.4 9.4
      vertex 12.65 -17.9 9.4
    endloop
  endfacet
  facet normal 2.71926e-32 4.44089e-16 1
    outer loop
      vertex 11.2783 -17.42 9.4
      vertex 7.45 -19.4 9.4
      vertex 11.6955 -17.6821 9.4
    endloop
  endfacet
  facet normal 2.71926e-32 4.44089e-16 1
    outer loop
      vertex 10.93 -17.0717 9.4
      vertex 7.45 -19.4 9.4
      vertex 11.2783 -17.42 9.4
    endloop
  endfacet
  facet normal 2.71926e-32 4.44089e-16 1
    outer loop
      vertex 10.6679 -16.6545 9.4
      vertex 7.45 -19.4 9.4
      vertex 10.93 -17.0717 9.4
    endloop
  endfacet
  facet normal 2.71926e-32 4.44089e-16 1
    outer loop
      vertex 10.5052 -16.1895 9.4
      vertex 7.45 -19.4 9.4
      vertex 10.6679 -16.6545 9.4
    endloop
  endfacet
  facet normal 2.71926e-32 4.44089e-16 1
    outer loop
      vertex 10.45 -15.7 9.4
      vertex 7.45 -19.4 9.4
      vertex 10.5052 -16.1895 9.4
    endloop
  endfacet
  facet normal 2.71926e-32 4.44089e-16 1
    outer loop
      vertex 10.5052 -15.2105 9.4
      vertex 7.45 -19.4 9.4
      vertex 10.45 -15.7 9.4
    endloop
  endfacet
  facet normal 2.71926e-32 4.44089e-16 1
    outer loop
      vertex 10.6679 -14.7455 9.4
      vertex 7.45 -19.4 9.4
      vertex 10.5052 -15.2105 9.4
    endloop
  endfacet
  facet normal 2.71926e-32 4.44089e-16 1
    outer loop
      vertex 10.93 -14.3283 9.4
      vertex 7.45 -19.4 9.4
      vertex 10.6679 -14.7455 9.4
    endloop
  endfacet
  facet normal 2.71926e-32 4.44089e-16 1
    outer loop
      vertex 7.45 -12 9.4
      vertex 7.45 -19.4 9.4
      vertex 10.93 -14.3283 9.4
    endloop
  endfacet
  facet normal 2.71926e-32 4.44089e-16 1
    outer loop
      vertex 12.65 -12 9.4
      vertex 10.93 -14.3283 9.4
      vertex 11.2783 -13.98 9.4
    endloop
  endfacet
  facet normal 2.71926e-32 4.44089e-16 1
    outer loop
      vertex 12.65 -12 9.4
      vertex 11.2783 -13.98 9.4
      vertex 11.6955 -13.7179 9.4
    endloop
  endfacet
  facet normal 2.71926e-32 4.44089e-16 1
    outer loop
      vertex 12.65 -12 9.4
      vertex 11.6955 -13.7179 9.4
      vertex 12.1605 -13.5552 9.4
    endloop
  endfacet
  facet normal 2.71926e-32 4.44089e-16 1
    outer loop
      vertex 12.65 -12 9.4
      vertex 12.1605 -13.5552 9.4
      vertex 12.65 -13.5 9.4
    endloop
  endfacet
  facet normal 2.71926e-32 4.44089e-16 1
    outer loop
      vertex 7.45 -12 9.4
      vertex 10.93 -14.3283 9.4
      vertex 12.65 -12 9.4
    endloop
  endfacet
  facet normal 1.22465e-16 1 -4.44089e-16
    outer loop
      vertex 8.95 -19.4 9.7
      vertex 8.95 -19.4 9.4
      vertex 7.45 -19.4 9.7
    endloop
  endfacet
  facet normal 1.22465e-16 1 -4.44089e-16
    outer loop
      vertex 7.45 -19.4 9.4
      vertex 8.95 -19.4 9.4
      vertex 12.65 -19.4 9.4
    endloop
  endfacet
  facet normal 1.22465e-16 1 -4.44089e-16
    outer loop
      vertex 7.45 -19.4 9.7
      vertex 8.95 -19.4 9.4
      vertex 7.45 -19.4 9.4
    endloop
  endfacet
  facet normal 2.71926e-32 4.44089e-16 1
    outer loop
      vertex 13.6045 -13.7179 9.4
      vertex 16.35 -12 9.4
      vertex 12.65 -12 9.4
    endloop
  endfacet
  facet normal 2.71926e-32 4.44089e-16 1
    outer loop
      vertex 14.85 -15.7 9.4
      vertex 14.7948 -16.1895 9.4
      vertex 16.35 -19.4 9.4
    endloop
  endfacet
  facet normal 2.71926e-32 4.44089e-16 1
    outer loop
      vertex 12.65 -13.5 9.4
      vertex 13.1395 -13.5552 9.4
      vertex 12.65 -12 9.4
    endloop
  endfacet
  facet normal 2.71926e-32 4.44089e-16 1
    outer loop
      vertex 14.0217 -13.98 9.4
      vertex 16.35 -12 9.4
      vertex 13.6045 -13.7179 9.4
    endloop
  endfacet
  facet normal 2.71926e-32 4.44089e-16 1
    outer loop
      vertex 14.7948 -16.1895 9.4
      vertex 14.6321 -16.6545 9.4
      vertex 16.35 -19.4 9.4
    endloop
  endfacet
  facet normal 2.71926e-32 4.44089e-16 1
    outer loop
      vertex 14.37 -14.3283 9.4
      vertex 16.35 -12 9.4
      vertex 14.0217 -13.98 9.4
    endloop
  endfacet
  facet normal 2.71926e-32 4.44089e-16 1
    outer loop
      vertex 14.6321 -14.7455 9.4
      vertex 16.35 -12 9.4
      vertex 14.37 -14.3283 9.4
    endloop
  endfacet
  facet normal 2.71926e-32 4.44089e-16 1
    outer loop
      vertex 16.35 -19.4 9.4
      vertex 16.35 -12 9.4
      vertex 14.6321 -14.7455 9.4
    endloop
  endfacet
  facet normal 2.71926e-32 4.44089e-16 1
    outer loop
      vertex 16.35 -19.4 9.4
      vertex 14.6321 -14.7455 9.4
      vertex 14.7948 -15.2105 9.4
    endloop
  endfacet
  facet normal 2.71926e-32 4.44089e-16 1
    outer loop
      vertex 14.7948 -15.2105 9.4
      vertex 14.85 -15.7 9.4
      vertex 16.35 -19.4 9.4
    endloop
  endfacet
  facet normal 2.71926e-32 4.44089e-16 1
    outer loop
      vertex 14.0217 -17.42 9.4
      vertex 16.35 -19.4 9.4
      vertex 14.37 -17.0717 9.4
    endloop
  endfacet
  facet normal 2.71926e-32 4.44089e-16 1
    outer loop
      vertex 13.6045 -17.6821 9.4
      vertex 16.35 -19.4 9.4
      vertex 14.0217 -17.42 9.4
    endloop
  endfacet
  facet normal 2.71926e-32 4.44089e-16 1
    outer loop
      vertex 13.1395 -17.8448 9.4
      vertex 16.35 -19.4 9.4
      vertex 13.6045 -17.6821 9.4
    endloop
  endfacet
  facet normal 2.71926e-32 4.44089e-16 1
    outer loop
      vertex 12.65 -17.9 9.4
      vertex 16.35 -19.4 9.4
      vertex 13.1395 -17.8448 9.4
    endloop
  endfacet
  facet normal 2.71926e-32 4.44089e-16 1
    outer loop
      vertex 12.65 -19.4 9.4
      vertex 16.35 -19.4 9.4
      vertex 12.65 -17.9 9.4
    endloop
  endfacet
  facet normal 2.71926e-32 4.44089e-16 1
    outer loop
      vertex 8.95 -19.4 9.4
      vertex 16.35 -19.4 9.4
      vertex 12.65 -19.4 9.4
    endloop
  endfacet
  facet normal 2.71926e-32 4.44089e-16 1
    outer loop
      vertex 14.6321 -16.6545 9.4
      vertex 14.37 -17.0717 9.4
      vertex 16.35 -19.4 9.4
    endloop
  endfacet
  facet normal 2.71926e-32 4.44089e-16 1
    outer loop
      vertex 13.1395 -13.5552 9.4
      vertex 13.6045 -13.7179 9.4
      vertex 12.65 -12 9.4
    endloop
  endfacet
endsolid OpenSCAD_Model
