solid OpenSCAD_Model
  facet normal 0 0 -1
    outer loop
      vertex -4.49317 -0.247895 0
      vertex -4.49317 0.247895 0
      vertex -4.43863 -0.740676 0
    endloop
  endfacet
  facet normal 0 0 -1
    outer loop
      vertex -4.43863 -0.740676 0
      vertex -4.49317 0.247895 0
      vertex -4.43863 0.740676 0
    endloop
  endfacet
  facet normal 0 0 -1
    outer loop
      vertex -4.43863 -0.740676 0
      vertex -4.43863 0.740676 0
      vertex -4.33021 1.22447 0
    endloop
  endfacet
  facet normal 0 0 -1
    outer loop
      vertex -4.43863 -0.740676 0
      vertex -4.33021 1.22447 0
      vertex -4.16922 1.69339 0
    endloop
  endfacet
  facet normal 0 0 -1
    outer loop
      vertex -4.43863 -0.740676 0
      vertex -4.16922 1.69339 0
      vertex -3.95763 2.14176 0
    endloop
  endfacet
  facet normal 0 0 -1
    outer loop
      vertex -4.43863 -0.740676 0
      vertex -3.95763 2.14176 0
      vertex -3.698 2.56414 0
    endloop
  endfacet
  facet normal 0 0 -1
    outer loop
      vertex -4.43863 -0.740676 0
      vertex -3.698 2.56414 0
      vertex -3.39348 2.95538 0
    endloop
  endfacet
  facet normal 0 0 -1
    outer loop
      vertex -4.43863 -0.740676 0
      vertex -3.39348 2.95538 0
      vertex -3.04777 3.31076 0
    endloop
  endfacet
  facet normal 0 0 -1
    outer loop
      vertex -4.43863 -0.740676 0
      vertex -3.04777 3.31076 0
      vertex -2.66506 3.62594 0
    endloop
  endfacet
  facet normal 0 0 -1
    outer loop
      vertex -4.43863 -0.740676 0
      vertex -2.66506 3.62594 0
      vertex -2.25 3.89711 0
    endloop
  endfacet
  facet normal 0 0 -1
    outer loop
      vertex -4.43863 -0.740676 0
      vertex -2.25 3.89711 0
      vertex -1.80763 4.12098 0
    endloop
  endfacet
  facet normal 0 0 -1
    outer loop
      vertex -4.43863 -0.740676 0
      vertex -1.80763 4.12098 0
      vertex -1.34332 4.29482 0
    endloop
  endfacet
  facet normal 0 0 -1
    outer loop
      vertex -4.43863 -0.740676 0
      vertex -1.34332 4.29482 0
      vertex -0.862698 4.41653 0
    endloop
  endfacet
  facet normal 0 0 -1
    outer loop
      vertex -4.43863 -0.740676 0
      vertex -0.862698 4.41653 0
      vertex -0.371607 4.48463 0
    endloop
  endfacet
  facet normal 0 0 -1
    outer loop
      vertex -4.43863 -0.740676 0
      vertex -0.371607 4.48463 0
      vertex 0.123995 4.49829 0
    endloop
  endfacet
  facet normal 0 0 -1
    outer loop
      vertex -4.43863 -0.740676 0
      vertex 0.123995 4.49829 0
      vertex 0.618091 4.45735 0
    endloop
  endfacet
  facet normal 0 0 -1
    outer loop
      vertex -4.43863 -0.740676 0
      vertex 0.618091 4.45735 0
      vertex 1.10468 4.3623 0
    endloop
  endfacet
  facet normal 0 0 -1
    outer loop
      vertex -4.43863 -0.740676 0
      vertex 1.10468 4.3623 0
      vertex 1.57787 4.2143 0
    endloop
  endfacet
  facet normal 0 0 -1
    outer loop
      vertex -0.954544 1.98213 0
      vertex 1.57787 4.2143 0
      vertex 2.0319 4.01514 0
    endloop
  endfacet
  facet normal 0 0 -1
    outer loop
      vertex 0 2.2 0
      vertex 2.0319 4.01514 0
      vertex 2.46127 3.76725 0
    endloop
  endfacet
  facet normal 0 0 -1
    outer loop
      vertex 0.489546 2.14484 0
      vertex 2.46127 3.76725 0
      vertex 2.86076 3.47362 0
    endloop
  endfacet
  facet normal 0 0 -1
    outer loop
      vertex 0.954544 1.98213 0
      vertex 3.22552 3.13784 0
      vertex 3.55113 2.76396 0
    endloop
  endfacet
  facet normal 0 0 -1
    outer loop
      vertex 1.37168 1.72003 0
      vertex 3.55113 2.76396 0
      vertex 3.83364 2.35653 0
    endloop
  endfacet
  facet normal 0 0 -1
    outer loop
      vertex 1.72003 1.37168 0
      vertex 3.83364 2.35653 0
      vertex 4.06961 1.92049 0
    endloop
  endfacet
  facet normal 0 0 -1
    outer loop
      vertex 1.98213 0.954544 0
      vertex 4.06961 1.92049 0
      vertex 4.25618 1.46115 0
    endloop
  endfacet
  facet normal 0 0 -1
    outer loop
      vertex 2.14484 0.489546 0
      vertex 4.39108 0.984065 0
      vertex 4.47269 0.495037 0
    endloop
  endfacet
  facet normal 0 0 -1
    outer loop
      vertex 2.2 0 0
      vertex 4.47269 0.495037 0
      vertex 4.5 0 0
    endloop
  endfacet
  facet normal 0 0 -1
    outer loop
      vertex 2.14484 -0.489546 0
      vertex 4.5 0 0
      vertex 4.47269 -0.495037 0
    endloop
  endfacet
  facet normal 0 0 -1
    outer loop
      vertex 1.98213 -0.954544 0
      vertex 4.39108 -0.984065 0
      vertex 4.25618 -1.46115 0
    endloop
  endfacet
  facet normal 0 0 -1
    outer loop
      vertex 1.72003 -1.37168 0
      vertex 4.25618 -1.46115 0
      vertex 4.06961 -1.92049 0
    endloop
  endfacet
  facet normal 0 0 -1
    outer loop
      vertex 1.37168 -1.72003 0
      vertex 4.06961 -1.92049 0
      vertex 3.83364 -2.35653 0
    endloop
  endfacet
  facet normal 0 0 -1
    outer loop
      vertex 0.954544 -1.98213 0
      vertex 3.83364 -2.35653 0
      vertex 3.55113 -2.76396 0
    endloop
  endfacet
  facet normal 0 0 -1
    outer loop
      vertex 0.489546 -2.14484 0
      vertex 3.55113 -2.76396 0
      vertex 3.22552 -3.13784 0
    endloop
  endfacet
  facet normal 0 0 -1
    outer loop
      vertex 0 -2.2 0
      vertex 3.22552 -3.13784 0
      vertex 2.86076 -3.47362 0
    endloop
  endfacet
  facet normal 0 0 -1
    outer loop
      vertex -4.43863 -0.740676 0
      vertex 2.86076 -3.47362 0
      vertex 2.46127 -3.76725 0
    endloop
  endfacet
  facet normal 0 0 -1
    outer loop
      vertex -4.43863 -0.740676 0
      vertex 2.46127 -3.76725 0
      vertex 2.0319 -4.01514 0
    endloop
  endfacet
  facet normal 0 0 -1
    outer loop
      vertex -4.43863 -0.740676 0
      vertex 2.0319 -4.01514 0
      vertex 1.57787 -4.2143 0
    endloop
  endfacet
  facet normal 0 0 -1
    outer loop
      vertex -4.43863 -0.740676 0
      vertex 1.57787 -4.2143 0
      vertex 1.10468 -4.3623 0
    endloop
  endfacet
  facet normal 0 0 -1
    outer loop
      vertex -4.43863 -0.740676 0
      vertex 1.10468 -4.3623 0
      vertex 0.618091 -4.45735 0
    endloop
  endfacet
  facet normal 0 0 -1
    outer loop
      vertex -4.43863 -0.740676 0
      vertex 0.618091 -4.45735 0
      vertex 0.123995 -4.49829 0
    endloop
  endfacet
  facet normal 0 0 -1
    outer loop
      vertex -4.43863 -0.740676 0
      vertex 0.123995 -4.49829 0
      vertex -0.371607 -4.48463 0
    endloop
  endfacet
  facet normal 0 0 -1
    outer loop
      vertex -4.43863 -0.740676 0
      vertex -0.371607 -4.48463 0
      vertex -0.862698 -4.41653 0
    endloop
  endfacet
  facet normal 0 0 -1
    outer loop
      vertex -4.43863 -0.740676 0
      vertex -0.862698 -4.41653 0
      vertex -1.34332 -4.29482 0
    endloop
  endfacet
  facet normal 0 0 -1
    outer loop
      vertex -4.43863 -0.740676 0
      vertex -1.34332 -4.29482 0
      vertex -1.80763 -4.12098 0
    endloop
  endfacet
  facet normal 0 0 -1
    outer loop
      vertex -4.43863 -0.740676 0
      vertex -1.80763 -4.12098 0
      vertex -2.25 -3.89711 0
    endloop
  endfacet
  facet normal 0 0 -1
    outer loop
      vertex -4.43863 -0.740676 0
      vertex -2.25 -3.89711 0
      vertex -2.66506 -3.62594 0
    endloop
  endfacet
  facet normal 0 0 -1
    outer loop
      vertex -4.43863 -0.740676 0
      vertex -2.66506 -3.62594 0
      vertex -3.04777 -3.31076 0
    endloop
  endfacet
  facet normal 0 0 -1
    outer loop
      vertex -4.43863 -0.740676 0
      vertex -3.04777 -3.31076 0
      vertex -3.39348 -2.95538 0
    endloop
  endfacet
  facet normal 0 0 -1
    outer loop
      vertex -4.43863 -0.740676 0
      vertex -3.39348 -2.95538 0
      vertex -3.698 -2.56414 0
    endloop
  endfacet
  facet normal 0 0 -1
    outer loop
      vertex -4.43863 -0.740676 0
      vertex -3.698 -2.56414 0
      vertex -3.95763 -2.14176 0
    endloop
  endfacet
  facet normal 0 0 -1
    outer loop
      vertex -4.43863 -0.740676 0
      vertex -3.95763 -2.14176 0
      vertex -4.16922 -1.69339 0
    endloop
  endfacet
  facet normal 0 0 -1
    outer loop
      vertex -4.43863 -0.740676 0
      vertex -4.16922 -1.69339 0
      vertex -4.33021 -1.22447 0
    endloop
  endfacet
  facet normal 0 0 -1
    outer loop
      vertex -2.14484 -0.489546 0
      vertex -4.43863 -0.740676 0
      vertex -2.2 0 0
    endloop
  endfacet
  facet normal 0 0 -1
    outer loop
      vertex 2.14484 -0.489546 0
      vertex 4.39108 -0.984065 0
      vertex 1.98213 -0.954544 0
    endloop
  endfacet
  facet normal 0 0 -1
    outer loop
      vertex -1.98213 -0.954544 0
      vertex -4.43863 -0.740676 0
      vertex -2.14484 -0.489546 0
    endloop
  endfacet
  facet normal 0 0 -1
    outer loop
      vertex -1.72003 -1.37168 0
      vertex -4.43863 -0.740676 0
      vertex -1.98213 -0.954544 0
    endloop
  endfacet
  facet normal 0 0 -1
    outer loop
      vertex -1.37168 -1.72003 0
      vertex -4.43863 -0.740676 0
      vertex -1.72003 -1.37168 0
    endloop
  endfacet
  facet normal 0 0 -1
    outer loop
      vertex 0 -2.2 0
      vertex 2.86076 -3.47362 0
      vertex -0.489546 -2.14484 0
    endloop
  endfacet
  facet normal 0 0 -1
    outer loop
      vertex -4.43863 -0.740676 0
      vertex -1.37168 -1.72003 0
      vertex -0.954544 -1.98213 0
    endloop
  endfacet
  facet normal 0 0 -1
    outer loop
      vertex -4.43863 -0.740676 0
      vertex -0.954544 -1.98213 0
      vertex 2.86076 -3.47362 0
    endloop
  endfacet
  facet normal 0 0 -1
    outer loop
      vertex -0.954544 -1.98213 0
      vertex -0.489546 -2.14484 0
      vertex 2.86076 -3.47362 0
    endloop
  endfacet
  facet normal 0 0 -1
    outer loop
      vertex 0.489546 -2.14484 0
      vertex 3.22552 -3.13784 0
      vertex 0 -2.2 0
    endloop
  endfacet
  facet normal 0 0 -1
    outer loop
      vertex 1.37168 -1.72003 0
      vertex 3.83364 -2.35653 0
      vertex 0.954544 -1.98213 0
    endloop
  endfacet
  facet normal 0 0 -1
    outer loop
      vertex 0.954544 -1.98213 0
      vertex 3.55113 -2.76396 0
      vertex 0.489546 -2.14484 0
    endloop
  endfacet
  facet normal 0 0 -1
    outer loop
      vertex 1.98213 -0.954544 0
      vertex 4.25618 -1.46115 0
      vertex 1.72003 -1.37168 0
    endloop
  endfacet
  facet normal 0 0 -1
    outer loop
      vertex 1.72003 -1.37168 0
      vertex 4.06961 -1.92049 0
      vertex 1.37168 -1.72003 0
    endloop
  endfacet
  facet normal 0 0 -1
    outer loop
      vertex 2.14484 0.489546 0
      vertex 4.47269 0.495037 0
      vertex 2.2 0 0
    endloop
  endfacet
  facet normal 0 0 -1
    outer loop
      vertex 2.2 0 0
      vertex 4.5 0 0
      vertex 2.14484 -0.489546 0
    endloop
  endfacet
  facet normal 0 0 -1
    outer loop
      vertex 2.14484 -0.489546 0
      vertex 4.47269 -0.495037 0
      vertex 4.39108 -0.984065 0
    endloop
  endfacet
  facet normal 0 0 -1
    outer loop
      vertex 1.37168 1.72003 0
      vertex 3.83364 2.35653 0
      vertex 1.72003 1.37168 0
    endloop
  endfacet
  facet normal 0 0 -1
    outer loop
      vertex 1.72003 1.37168 0
      vertex 4.06961 1.92049 0
      vertex 1.98213 0.954544 0
    endloop
  endfacet
  facet normal 0 0 -1
    outer loop
      vertex 0 2.2 0
      vertex 2.46127 3.76725 0
      vertex 0.489546 2.14484 0
    endloop
  endfacet
  facet normal 0 0 -1
    outer loop
      vertex -0.489546 2.14484 0
      vertex 2.0319 4.01514 0
      vertex 0 2.2 0
    endloop
  endfacet
  facet normal 0 0 -1
    outer loop
      vertex -0.954544 1.98213 0
      vertex 2.0319 4.01514 0
      vertex -0.489546 2.14484 0
    endloop
  endfacet
  facet normal 0 0 -1
    outer loop
      vertex -1.37168 1.72003 0
      vertex 1.57787 4.2143 0
      vertex -0.954544 1.98213 0
    endloop
  endfacet
  facet normal 0 0 -1
    outer loop
      vertex -1.72003 1.37168 0
      vertex -4.43863 -0.740676 0
      vertex -1.37168 1.72003 0
    endloop
  endfacet
  facet normal 0 0 -1
    outer loop
      vertex -4.43863 -0.740676 0
      vertex 1.57787 4.2143 0
      vertex -1.37168 1.72003 0
    endloop
  endfacet
  facet normal 0 0 -1
    outer loop
      vertex -1.98213 0.954544 0
      vertex -4.43863 -0.740676 0
      vertex -1.72003 1.37168 0
    endloop
  endfacet
  facet normal 0 0 -1
    outer loop
      vertex -2.14484 0.489546 0
      vertex -4.43863 -0.740676 0
      vertex -1.98213 0.954544 0
    endloop
  endfacet
  facet normal 0 0 -1
    outer loop
      vertex 1.98213 0.954544 0
      vertex 4.25618 1.46115 0
      vertex 4.39108 0.984065 0
    endloop
  endfacet
  facet normal 0 0 -1
    outer loop
      vertex -2.2 0 0
      vertex -4.43863 -0.740676 0
      vertex -2.14484 0.489546 0
    endloop
  endfacet
  facet normal 0 0 -1
    outer loop
      vertex 0.489546 2.14484 0
      vertex 2.86076 3.47362 0
      vertex 3.22552 3.13784 0
    endloop
  endfacet
  facet normal 0 0 -1
    outer loop
      vertex 0.489546 2.14484 0
      vertex 3.22552 3.13784 0
      vertex 0.954544 1.98213 0
    endloop
  endfacet
  facet normal 0 0 -1
    outer loop
      vertex 0.954544 1.98213 0
      vertex 3.55113 2.76396 0
      vertex 1.37168 1.72003 0
    endloop
  endfacet
  facet normal 0 0 -1
    outer loop
      vertex 1.98213 0.954544 0
      vertex 4.39108 0.984065 0
      vertex 2.14484 0.489546 0
    endloop
  endfacet
  facet normal -1 0 0
    outer loop
      vertex -4.49317 -0.247895 0
      vertex -4.49317 -0.247895 1.65
      vertex -4.49317 0.247895 0
    endloop
  endfacet
  facet normal -1 0 0
    outer loop
      vertex -4.49317 0.247895 0
      vertex -4.49317 -0.247895 1.65
      vertex -4.49317 0.247895 1.65
    endloop
  endfacet
  facet normal -0.993931 -0.110008 0
    outer loop
      vertex -4.49317 -0.247895 0
      vertex -4.43863 -0.740676 0
      vertex -4.49317 -0.247895 1.65
    endloop
  endfacet
  facet normal -0.993931 -0.110008 0
    outer loop
      vertex -4.49317 -0.247895 1.65
      vertex -4.43863 -0.740676 0
      vertex -4.43863 -0.740676 1.65
    endloop
  endfacet
  facet normal -0.975796 -0.218681 0
    outer loop
      vertex -4.43863 -0.740676 0
      vertex -4.33021 -1.22447 0
      vertex -4.43863 -0.740676 1.65
    endloop
  endfacet
  facet normal -0.975796 -0.218681 0
    outer loop
      vertex -4.43863 -0.740676 1.65
      vertex -4.33021 -1.22447 0
      vertex -4.33021 -1.22447 1.65
    endloop
  endfacet
  facet normal -0.945817 -0.3247 0
    outer loop
      vertex -4.33021 -1.22447 0
      vertex -4.16922 -1.69339 0
      vertex -4.33021 -1.22447 1.65
    endloop
  endfacet
  facet normal -0.945817 -0.3247 0
    outer loop
      vertex -4.33021 -1.22447 1.65
      vertex -4.16922 -1.69339 0
      vertex -4.16922 -1.69339 1.65
    endloop
  endfacet
  facet normal -0.904357 -0.426776 0
    outer loop
      vertex -4.16922 -1.69339 0
      vertex -3.95763 -2.14176 0
      vertex -4.16922 -1.69339 1.65
    endloop
  endfacet
  facet normal -0.904357 -0.426776 0
    outer loop
      vertex -4.16922 -1.69339 1.65
      vertex -3.95763 -2.14176 0
      vertex -3.95763 -2.14176 1.65
    endloop
  endfacet
  facet normal -0.851919 -0.523673 0
    outer loop
      vertex -3.95763 -2.14176 0
      vertex -3.698 -2.56414 0
      vertex -3.95763 -2.14176 1.65
    endloop
  endfacet
  facet normal -0.851919 -0.523673 0
    outer loop
      vertex -3.95763 -2.14176 1.65
      vertex -3.698 -2.56414 0
      vertex -3.698 -2.56414 1.65
    endloop
  endfacet
  facet normal -0.789141 -0.614212 0
    outer loop
      vertex -3.698 -2.56414 0
      vertex -3.39348 -2.95538 0
      vertex -3.698 -2.56414 1.65
    endloop
  endfacet
  facet normal -0.789141 -0.614212 0
    outer loop
      vertex -3.698 -2.56414 1.65
      vertex -3.39348 -2.95538 0
      vertex -3.39348 -2.95538 1.65
    endloop
  endfacet
  facet normal -0.716783 -0.697297 0
    outer loop
      vertex -3.39348 -2.95538 0
      vertex -3.04777 -3.31076 0
      vertex -3.39348 -2.95538 1.65
    endloop
  endfacet
  facet normal -0.716783 -0.697297 0
    outer loop
      vertex -3.39348 -2.95538 1.65
      vertex -3.04777 -3.31076 0
      vertex -3.04777 -3.31076 1.65
    endloop
  endfacet
  facet normal -0.635724 -0.771917 0
    outer loop
      vertex -3.04777 -3.31076 1.65
      vertex -3.04777 -3.31076 0
      vertex -2.66506 -3.62594 0
    endloop
  endfacet
  facet normal -0.635724 -0.771917 0
    outer loop
      vertex -2.66506 -3.62594 1.65
      vertex -3.04777 -3.31076 1.65
      vertex -2.66506 -3.62594 0
    endloop
  endfacet
  facet normal -0.546947 -0.837167 0
    outer loop
      vertex -2.66506 -3.62594 1.65
      vertex -2.66506 -3.62594 0
      vertex -2.25 -3.89711 0
    endloop
  endfacet
  facet normal -0.546947 -0.837167 0
    outer loop
      vertex -2.25 -3.89711 1.65
      vertex -2.66506 -3.62594 1.65
      vertex -2.25 -3.89711 0
    endloop
  endfacet
  facet normal -0.451534 -0.892254 0
    outer loop
      vertex -2.25 -3.89711 1.65
      vertex -2.25 -3.89711 0
      vertex -1.80763 -4.12098 0
    endloop
  endfacet
  facet normal -0.451534 -0.892254 0
    outer loop
      vertex -1.80763 -4.12098 1.65
      vertex -2.25 -3.89711 1.65
      vertex -1.80763 -4.12098 0
    endloop
  endfacet
  facet normal -0.350639 -0.936511 0
    outer loop
      vertex -1.80763 -4.12098 1.65
      vertex -1.80763 -4.12098 0
      vertex -1.34332 -4.29482 0
    endloop
  endfacet
  facet normal -0.350639 -0.936511 0
    outer loop
      vertex -1.34332 -4.29482 1.65
      vertex -1.80763 -4.12098 1.65
      vertex -1.34332 -4.29482 0
    endloop
  endfacet
  facet normal -0.245485 -0.9694 0
    outer loop
      vertex -1.34332 -4.29482 1.65
      vertex -1.34332 -4.29482 0
      vertex -0.862698 -4.41653 0
    endloop
  endfacet
  facet normal -0.245485 -0.9694 0
    outer loop
      vertex -0.862698 -4.41653 1.65
      vertex -1.34332 -4.29482 1.65
      vertex -0.862698 -4.41653 0
    endloop
  endfacet
  facet normal -0.137353 -0.990522 0
    outer loop
      vertex -0.862698 -4.41653 1.65
      vertex -0.862698 -4.41653 0
      vertex -0.371607 -4.48463 0
    endloop
  endfacet
  facet normal -0.137353 -0.990522 0
    outer loop
      vertex -0.371607 -4.48463 1.65
      vertex -0.862698 -4.41653 1.65
      vertex -0.371607 -4.48463 0
    endloop
  endfacet
  facet normal -0.027554 -0.99962 0
    outer loop
      vertex -0.371607 -4.48463 1.65
      vertex -0.371607 -4.48463 0
      vertex 0.123995 -4.49829 0
    endloop
  endfacet
  facet normal -0.027554 -0.99962 0
    outer loop
      vertex 0.123995 -4.49829 1.65
      vertex -0.371607 -4.48463 1.65
      vertex 0.123995 -4.49829 0
    endloop
  endfacet
  facet normal 0.0825794 -0.996584 0
    outer loop
      vertex 0.123995 -4.49829 1.65
      vertex 0.123995 -4.49829 0
      vertex 0.618091 -4.45735 0
    endloop
  endfacet
  facet normal 0.0825794 -0.996584 0
    outer loop
      vertex 0.618091 -4.45735 1.65
      vertex 0.123995 -4.49829 1.65
      vertex 0.618091 -4.45735 0
    endloop
  endfacet
  facet normal 0.19171 -0.981452 0
    outer loop
      vertex 0.618091 -4.45735 1.65
      vertex 0.618091 -4.45735 0
      vertex 1.10468 -4.3623 0
    endloop
  endfacet
  facet normal 0.19171 -0.981452 0
    outer loop
      vertex 1.10468 -4.3623 1.65
      vertex 0.618091 -4.45735 1.65
      vertex 1.10468 -4.3623 0
    endloop
  endfacet
  facet normal 0.298514 -0.954405 0
    outer loop
      vertex 1.10468 -4.3623 1.65
      vertex 1.10468 -4.3623 0
      vertex 1.57787 -4.2143 0
    endloop
  endfacet
  facet normal 0.298514 -0.954405 0
    outer loop
      vertex 1.57787 -4.2143 1.65
      vertex 1.10468 -4.3623 1.65
      vertex 1.57787 -4.2143 0
    endloop
  endfacet
  facet normal 0.401696 -0.915773 0
    outer loop
      vertex 1.57787 -4.2143 1.65
      vertex 1.57787 -4.2143 0
      vertex 2.0319 -4.01514 0
    endloop
  endfacet
  facet normal 0.401696 -0.915773 0
    outer loop
      vertex 2.0319 -4.01514 1.65
      vertex 1.57787 -4.2143 1.65
      vertex 2.0319 -4.01514 0
    endloop
  endfacet
  facet normal 0.5 -0.866026 0
    outer loop
      vertex 2.0319 -4.01514 1.65
      vertex 2.0319 -4.01514 0
      vertex 2.46127 -3.76725 0
    endloop
  endfacet
  facet normal 0.5 -0.866026 0
    outer loop
      vertex 2.46127 -3.76725 1.65
      vertex 2.0319 -4.01514 1.65
      vertex 2.46127 -3.76725 0
    endloop
  endfacet
  facet normal 0.592235 -0.805765 0
    outer loop
      vertex 2.46127 -3.76725 1.65
      vertex 2.46127 -3.76725 0
      vertex 2.86076 -3.47362 0
    endloop
  endfacet
  facet normal 0.592235 -0.805765 0
    outer loop
      vertex 2.86076 -3.47362 1.65
      vertex 2.46127 -3.76725 1.65
      vertex 2.86076 -3.47362 0
    endloop
  endfacet
  facet normal 0.677282 -0.735724 0
    outer loop
      vertex 2.86076 -3.47362 1.65
      vertex 2.86076 -3.47362 0
      vertex 3.22552 -3.13784 0
    endloop
  endfacet
  facet normal 0.677282 -0.735724 0
    outer loop
      vertex 3.22552 -3.13784 1.65
      vertex 2.86076 -3.47362 1.65
      vertex 3.22552 -3.13784 0
    endloop
  endfacet
  facet normal 0.754107 -0.656751 0
    outer loop
      vertex 3.22552 -3.13784 1.65
      vertex 3.22552 -3.13784 0
      vertex 3.55113 -2.76396 0
    endloop
  endfacet
  facet normal 0.754107 -0.656751 0
    outer loop
      vertex 3.55113 -2.76396 1.65
      vertex 3.22552 -3.13784 1.65
      vertex 3.55113 -2.76396 0
    endloop
  endfacet
  facet normal 0.821778 -0.569808 0
    outer loop
      vertex 3.55113 -2.76396 1.65
      vertex 3.55113 -2.76396 0
      vertex 3.83364 -2.35653 0
    endloop
  endfacet
  facet normal 0.821778 -0.569808 0
    outer loop
      vertex 3.83364 -2.35653 1.65
      vertex 3.55113 -2.76396 1.65
      vertex 3.83364 -2.35653 0
    endloop
  endfacet
  facet normal 0.879474 -0.475948 0
    outer loop
      vertex 3.83364 -2.35653 1.65
      vertex 3.83364 -2.35653 0
      vertex 4.06961 -1.92049 0
    endloop
  endfacet
  facet normal 0.879474 -0.475948 0
    outer loop
      vertex 4.06961 -1.92049 1.65
      vertex 3.83364 -2.35653 1.65
      vertex 4.06961 -1.92049 0
    endloop
  endfacet
  facet normal 0.926494 -0.376311 0
    outer loop
      vertex 4.06961 -1.92049 1.65
      vertex 4.06961 -1.92049 0
      vertex 4.25618 -1.46115 0
    endloop
  endfacet
  facet normal 0.926494 -0.376311 0
    outer loop
      vertex 4.25618 -1.46115 1.65
      vertex 4.06961 -1.92049 1.65
      vertex 4.25618 -1.46115 0
    endloop
  endfacet
  facet normal 0.962268 -0.272103 0
    outer loop
      vertex 4.25618 -1.46115 1.65
      vertex 4.25618 -1.46115 0
      vertex 4.39108 -0.984065 0
    endloop
  endfacet
  facet normal 0.962268 -0.272103 0
    outer loop
      vertex 4.39108 -0.984065 1.65
      vertex 4.25618 -1.46115 1.65
      vertex 4.39108 -0.984065 0
    endloop
  endfacet
  facet normal 0.986361 -0.164594 0
    outer loop
      vertex 4.39108 -0.984065 1.65
      vertex 4.39108 -0.984065 0
      vertex 4.47269 -0.495037 0
    endloop
  endfacet
  facet normal 0.986361 -0.164594 0
    outer loop
      vertex 4.47269 -0.495037 1.65
      vertex 4.39108 -0.984065 1.65
      vertex 4.47269 -0.495037 0
    endloop
  endfacet
  facet normal 0.998482 -0.0550879 0
    outer loop
      vertex 4.47269 -0.495037 1.65
      vertex 4.47269 -0.495037 0
      vertex 4.5 0 0
    endloop
  endfacet
  facet normal 0.998482 -0.0550879 0
    outer loop
      vertex 4.5 0 1.65
      vertex 4.47269 -0.495037 1.65
      vertex 4.5 0 0
    endloop
  endfacet
  facet normal 0.998482 0.0550879 0
    outer loop
      vertex 4.5 0 0
      vertex 4.47269 0.495037 0
      vertex 4.47269 0.495037 1.65
    endloop
  endfacet
  facet normal 0.998482 0.0550879 0
    outer loop
      vertex 4.5 0 1.65
      vertex 4.5 0 0
      vertex 4.47269 0.495037 1.65
    endloop
  endfacet
  facet normal 0.986361 0.164594 0
    outer loop
      vertex 4.47269 0.495037 0
      vertex 4.39108 0.984065 0
      vertex 4.39108 0.984065 1.65
    endloop
  endfacet
  facet normal 0.986361 0.164594 0
    outer loop
      vertex 4.47269 0.495037 1.65
      vertex 4.47269 0.495037 0
      vertex 4.39108 0.984065 1.65
    endloop
  endfacet
  facet normal 0.962268 0.272103 0
    outer loop
      vertex 4.39108 0.984065 0
      vertex 4.25618 1.46115 0
      vertex 4.25618 1.46115 1.65
    endloop
  endfacet
  facet normal 0.962268 0.272103 0
    outer loop
      vertex 4.39108 0.984065 1.65
      vertex 4.39108 0.984065 0
      vertex 4.25618 1.46115 1.65
    endloop
  endfacet
  facet normal 0.926494 0.376311 0
    outer loop
      vertex 4.25618 1.46115 0
      vertex 4.06961 1.92049 0
      vertex 4.06961 1.92049 1.65
    endloop
  endfacet
  facet normal 0.926494 0.376311 0
    outer loop
      vertex 4.25618 1.46115 1.65
      vertex 4.25618 1.46115 0
      vertex 4.06961 1.92049 1.65
    endloop
  endfacet
  facet normal 0.879474 0.475948 0
    outer loop
      vertex 4.06961 1.92049 0
      vertex 3.83364 2.35653 0
      vertex 3.83364 2.35653 1.65
    endloop
  endfacet
  facet normal 0.879474 0.475948 0
    outer loop
      vertex 4.06961 1.92049 1.65
      vertex 4.06961 1.92049 0
      vertex 3.83364 2.35653 1.65
    endloop
  endfacet
  facet normal 0.821778 0.569808 0
    outer loop
      vertex 3.83364 2.35653 0
      vertex 3.55113 2.76396 0
      vertex 3.55113 2.76396 1.65
    endloop
  endfacet
  facet normal 0.821778 0.569808 0
    outer loop
      vertex 3.83364 2.35653 1.65
      vertex 3.83364 2.35653 0
      vertex 3.55113 2.76396 1.65
    endloop
  endfacet
  facet normal 0.754107 0.656751 0
    outer loop
      vertex 3.55113 2.76396 0
      vertex 3.22552 3.13784 0
      vertex 3.22552 3.13784 1.65
    endloop
  endfacet
  facet normal 0.754107 0.656751 0
    outer loop
      vertex 3.55113 2.76396 1.65
      vertex 3.55113 2.76396 0
      vertex 3.22552 3.13784 1.65
    endloop
  endfacet
  facet normal 0.677282 0.735724 0
    outer loop
      vertex 2.86076 3.47362 0
      vertex 2.86076 3.47362 1.65
      vertex 3.22552 3.13784 0
    endloop
  endfacet
  facet normal 0.677282 0.735724 0
    outer loop
      vertex 3.22552 3.13784 0
      vertex 2.86076 3.47362 1.65
      vertex 3.22552 3.13784 1.65
    endloop
  endfacet
  facet normal 0.592235 0.805765 0
    outer loop
      vertex 2.46127 3.76725 0
      vertex 2.46127 3.76725 1.65
      vertex 2.86076 3.47362 0
    endloop
  endfacet
  facet normal 0.592235 0.805765 0
    outer loop
      vertex 2.86076 3.47362 0
      vertex 2.46127 3.76725 1.65
      vertex 2.86076 3.47362 1.65
    endloop
  endfacet
  facet normal 0.5 0.866026 0
    outer loop
      vertex 2.0319 4.01514 0
      vertex 2.0319 4.01514 1.65
      vertex 2.46127 3.76725 0
    endloop
  endfacet
  facet normal 0.5 0.866026 0
    outer loop
      vertex 2.46127 3.76725 0
      vertex 2.0319 4.01514 1.65
      vertex 2.46127 3.76725 1.65
    endloop
  endfacet
  facet normal 0.401696 0.915773 0
    outer loop
      vertex 1.57787 4.2143 0
      vertex 1.57787 4.2143 1.65
      vertex 2.0319 4.01514 0
    endloop
  endfacet
  facet normal 0.401696 0.915773 0
    outer loop
      vertex 2.0319 4.01514 0
      vertex 1.57787 4.2143 1.65
      vertex 2.0319 4.01514 1.65
    endloop
  endfacet
  facet normal 0.298514 0.954405 0
    outer loop
      vertex 1.10468 4.3623 0
      vertex 1.10468 4.3623 1.65
      vertex 1.57787 4.2143 0
    endloop
  endfacet
  facet normal 0.298514 0.954405 0
    outer loop
      vertex 1.57787 4.2143 0
      vertex 1.10468 4.3623 1.65
      vertex 1.57787 4.2143 1.65
    endloop
  endfacet
  facet normal 0.19171 0.981452 0
    outer loop
      vertex 0.618091 4.45735 0
      vertex 0.618091 4.45735 1.65
      vertex 1.10468 4.3623 0
    endloop
  endfacet
  facet normal 0.19171 0.981452 0
    outer loop
      vertex 1.10468 4.3623 0
      vertex 0.618091 4.45735 1.65
      vertex 1.10468 4.3623 1.65
    endloop
  endfacet
  facet normal 0.0825794 0.996584 0
    outer loop
      vertex 0.123995 4.49829 0
      vertex 0.123995 4.49829 1.65
      vertex 0.618091 4.45735 0
    endloop
  endfacet
  facet normal 0.0825794 0.996584 0
    outer loop
      vertex 0.618091 4.45735 0
      vertex 0.123995 4.49829 1.65
      vertex 0.618091 4.45735 1.65
    endloop
  endfacet
  facet normal -0.027554 0.99962 0
    outer loop
      vertex -0.371607 4.48463 0
      vertex -0.371607 4.48463 1.65
      vertex 0.123995 4.49829 0
    endloop
  endfacet
  facet normal -0.027554 0.99962 0
    outer loop
      vertex 0.123995 4.49829 0
      vertex -0.371607 4.48463 1.65
      vertex 0.123995 4.49829 1.65
    endloop
  endfacet
  facet normal -0.137353 0.990522 0
    outer loop
      vertex -0.862698 4.41653 0
      vertex -0.862698 4.41653 1.65
      vertex -0.371607 4.48463 0
    endloop
  endfacet
  facet normal -0.137353 0.990522 0
    outer loop
      vertex -0.371607 4.48463 0
      vertex -0.862698 4.41653 1.65
      vertex -0.371607 4.48463 1.65
    endloop
  endfacet
  facet normal -0.245485 0.9694 0
    outer loop
      vertex -1.34332 4.29482 0
      vertex -1.34332 4.29482 1.65
      vertex -0.862698 4.41653 0
    endloop
  endfacet
  facet normal -0.245485 0.9694 0
    outer loop
      vertex -0.862698 4.41653 0
      vertex -1.34332 4.29482 1.65
      vertex -0.862698 4.41653 1.65
    endloop
  endfacet
  facet normal -0.350639 0.936511 0
    outer loop
      vertex -1.80763 4.12098 0
      vertex -1.80763 4.12098 1.65
      vertex -1.34332 4.29482 0
    endloop
  endfacet
  facet normal -0.350639 0.936511 0
    outer loop
      vertex -1.34332 4.29482 0
      vertex -1.80763 4.12098 1.65
      vertex -1.34332 4.29482 1.65
    endloop
  endfacet
  facet normal -0.451534 0.892254 0
    outer loop
      vertex -2.25 3.89711 0
      vertex -2.25 3.89711 1.65
      vertex -1.80763 4.12098 0
    endloop
  endfacet
  facet normal -0.451534 0.892254 0
    outer loop
      vertex -1.80763 4.12098 0
      vertex -2.25 3.89711 1.65
      vertex -1.80763 4.12098 1.65
    endloop
  endfacet
  facet normal -0.546947 0.837167 0
    outer loop
      vertex -2.66506 3.62594 0
      vertex -2.66506 3.62594 1.65
      vertex -2.25 3.89711 0
    endloop
  endfacet
  facet normal -0.546947 0.837167 0
    outer loop
      vertex -2.25 3.89711 0
      vertex -2.66506 3.62594 1.65
      vertex -2.25 3.89711 1.65
    endloop
  endfacet
  facet normal -0.635724 0.771917 0
    outer loop
      vertex -3.04777 3.31076 0
      vertex -3.04777 3.31076 1.65
      vertex -2.66506 3.62594 0
    endloop
  endfacet
  facet normal -0.635724 0.771917 0
    outer loop
      vertex -2.66506 3.62594 0
      vertex -3.04777 3.31076 1.65
      vertex -2.66506 3.62594 1.65
    endloop
  endfacet
  facet normal -0.716783 0.697297 0
    outer loop
      vertex -3.39348 2.95538 0
      vertex -3.39348 2.95538 1.65
      vertex -3.04777 3.31076 0
    endloop
  endfacet
  facet normal -0.716783 0.697297 0
    outer loop
      vertex -3.04777 3.31076 0
      vertex -3.39348 2.95538 1.65
      vertex -3.04777 3.31076 1.65
    endloop
  endfacet
  facet normal -0.789141 0.614212 0
    outer loop
      vertex -3.698 2.56414 0
      vertex -3.698 2.56414 1.65
      vertex -3.39348 2.95538 0
    endloop
  endfacet
  facet normal -0.789141 0.614212 0
    outer loop
      vertex -3.39348 2.95538 0
      vertex -3.698 2.56414 1.65
      vertex -3.39348 2.95538 1.65
    endloop
  endfacet
  facet normal -0.851919 0.523673 0
    outer loop
      vertex -3.95763 2.14176 0
      vertex -3.95763 2.14176 1.65
      vertex -3.698 2.56414 0
    endloop
  endfacet
  facet normal -0.851919 0.523673 0
    outer loop
      vertex -3.698 2.56414 0
      vertex -3.95763 2.14176 1.65
      vertex -3.698 2.56414 1.65
    endloop
  endfacet
  facet normal -0.904357 0.426776 0
    outer loop
      vertex -4.16922 1.69339 0
      vertex -4.16922 1.69339 1.65
      vertex -3.95763 2.14176 0
    endloop
  endfacet
  facet normal -0.904357 0.426776 0
    outer loop
      vertex -3.95763 2.14176 0
      vertex -4.16922 1.69339 1.65
      vertex -3.95763 2.14176 1.65
    endloop
  endfacet
  facet normal -0.945817 0.3247 0
    outer loop
      vertex -4.33021 1.22447 0
      vertex -4.33021 1.22447 1.65
      vertex -4.16922 1.69339 0
    endloop
  endfacet
  facet normal -0.945817 0.3247 0
    outer loop
      vertex -4.16922 1.69339 0
      vertex -4.33021 1.22447 1.65
      vertex -4.16922 1.69339 1.65
    endloop
  endfacet
  facet normal -0.975796 0.218681 0
    outer loop
      vertex -4.43863 0.740676 0
      vertex -4.43863 0.740676 1.65
      vertex -4.33021 1.22447 0
    endloop
  endfacet
  facet normal -0.975796 0.218681 0
    outer loop
      vertex -4.33021 1.22447 0
      vertex -4.43863 0.740676 1.65
      vertex -4.33021 1.22447 1.65
    endloop
  endfacet
  facet normal -0.993931 0.110008 0
    outer loop
      vertex -4.49317 0.247895 0
      vertex -4.49317 0.247895 1.65
      vertex -4.43863 0.740676 0
    endloop
  endfacet
  facet normal -0.993931 0.110008 0
    outer loop
      vertex -4.43863 0.740676 0
      vertex -4.49317 0.247895 1.65
      vertex -4.43863 0.740676 1.65
    endloop
  endfacet
  facet normal 0.993712 -0.111965 0
    outer loop
      vertex -2.14484 0.489546 0
      vertex -2.14484 0.489546 1.65
      vertex -2.2 0 1.65
    endloop
  endfacet
  facet normal 0.993712 -0.111965 0
    outer loop
      vertex -2.2 0 0
      vertex -2.14484 0.489546 0
      vertex -2.2 0 1.65
    endloop
  endfacet
  facet normal 0.993712 0.111965 0
    outer loop
      vertex -2.2 0 1.65
      vertex -2.14484 -0.489546 1.65
      vertex -2.14484 -0.489546 0
    endloop
  endfacet
  facet normal 0.993712 0.111965 0
    outer loop
      vertex -2.2 0 0
      vertex -2.2 0 1.65
      vertex -2.14484 -0.489546 0
    endloop
  endfacet
  facet normal 0.943884 -0.330278 0
    outer loop
      vertex -1.98213 0.954544 0
      vertex -1.98213 0.954544 1.65
      vertex -2.14484 0.489546 1.65
    endloop
  endfacet
  facet normal 0.943884 -0.330278 0
    outer loop
      vertex -2.14484 0.489546 0
      vertex -1.98213 0.954544 0
      vertex -2.14484 0.489546 1.65
    endloop
  endfacet
  facet normal 0.846724 -0.532033 0
    outer loop
      vertex -1.72003 1.37168 0
      vertex -1.72003 1.37168 1.65
      vertex -1.98213 0.954544 1.65
    endloop
  endfacet
  facet normal 0.846724 -0.532033 0
    outer loop
      vertex -1.98213 0.954544 0
      vertex -1.72003 1.37168 0
      vertex -1.98213 0.954544 1.65
    endloop
  endfacet
  facet normal 0.707107 -0.707107 0
    outer loop
      vertex -1.37168 1.72003 0
      vertex -1.37168 1.72003 1.65
      vertex -1.72003 1.37168 1.65
    endloop
  endfacet
  facet normal 0.707107 -0.707107 0
    outer loop
      vertex -1.72003 1.37168 0
      vertex -1.37168 1.72003 0
      vertex -1.72003 1.37168 1.65
    endloop
  endfacet
  facet normal 0.532033 -0.846724 0
    outer loop
      vertex -0.954544 1.98213 0
      vertex -0.954544 1.98213 1.65
      vertex -1.37168 1.72003 1.65
    endloop
  endfacet
  facet normal 0.532033 -0.846724 0
    outer loop
      vertex -1.37168 1.72003 0
      vertex -0.954544 1.98213 0
      vertex -1.37168 1.72003 1.65
    endloop
  endfacet
  facet normal 0.330278 -0.943884 0
    outer loop
      vertex -0.489546 2.14484 0
      vertex -0.489546 2.14484 1.65
      vertex -0.954544 1.98213 1.65
    endloop
  endfacet
  facet normal 0.330278 -0.943884 0
    outer loop
      vertex -0.954544 1.98213 0
      vertex -0.489546 2.14484 0
      vertex -0.954544 1.98213 1.65
    endloop
  endfacet
  facet normal 0.111965 -0.993712 0
    outer loop
      vertex 0 2.2 0
      vertex 0 2.2 1.65
      vertex -0.489546 2.14484 1.65
    endloop
  endfacet
  facet normal 0.111965 -0.993712 0
    outer loop
      vertex -0.489546 2.14484 0
      vertex 0 2.2 0
      vertex -0.489546 2.14484 1.65
    endloop
  endfacet
  facet normal -0.111965 -0.993712 0
    outer loop
      vertex 0.489546 2.14484 0
      vertex 0.489546 2.14484 1.65
      vertex 0 2.2 1.65
    endloop
  endfacet
  facet normal -0.111965 -0.993712 0
    outer loop
      vertex 0 2.2 0
      vertex 0.489546 2.14484 0
      vertex 0 2.2 1.65
    endloop
  endfacet
  facet normal -0.330278 -0.943884 0
    outer loop
      vertex 0.954544 1.98213 0
      vertex 0.954544 1.98213 1.65
      vertex 0.489546 2.14484 1.65
    endloop
  endfacet
  facet normal -0.330278 -0.943884 0
    outer loop
      vertex 0.489546 2.14484 0
      vertex 0.954544 1.98213 0
      vertex 0.489546 2.14484 1.65
    endloop
  endfacet
  facet normal -0.532033 -0.846724 0
    outer loop
      vertex 1.37168 1.72003 0
      vertex 1.37168 1.72003 1.65
      vertex 0.954544 1.98213 1.65
    endloop
  endfacet
  facet normal -0.532033 -0.846724 0
    outer loop
      vertex 0.954544 1.98213 0
      vertex 1.37168 1.72003 0
      vertex 0.954544 1.98213 1.65
    endloop
  endfacet
  facet normal -0.707107 -0.707107 0
    outer loop
      vertex 1.72003 1.37168 0
      vertex 1.72003 1.37168 1.65
      vertex 1.37168 1.72003 1.65
    endloop
  endfacet
  facet normal -0.707107 -0.707107 0
    outer loop
      vertex 1.37168 1.72003 0
      vertex 1.72003 1.37168 0
      vertex 1.37168 1.72003 1.65
    endloop
  endfacet
  facet normal -0.846724 -0.532033 0
    outer loop
      vertex 1.98213 0.954544 1.65
      vertex 1.72003 1.37168 1.65
      vertex 1.98213 0.954544 0
    endloop
  endfacet
  facet normal -0.846724 -0.532033 0
    outer loop
      vertex 1.98213 0.954544 0
      vertex 1.72003 1.37168 1.65
      vertex 1.72003 1.37168 0
    endloop
  endfacet
  facet normal -0.943884 -0.330278 0
    outer loop
      vertex 2.14484 0.489546 1.65
      vertex 1.98213 0.954544 1.65
      vertex 2.14484 0.489546 0
    endloop
  endfacet
  facet normal -0.943884 -0.330278 0
    outer loop
      vertex 2.14484 0.489546 0
      vertex 1.98213 0.954544 1.65
      vertex 1.98213 0.954544 0
    endloop
  endfacet
  facet normal -0.993712 -0.111965 0
    outer loop
      vertex 2.2 0 1.65
      vertex 2.14484 0.489546 1.65
      vertex 2.2 0 0
    endloop
  endfacet
  facet normal -0.993712 -0.111965 0
    outer loop
      vertex 2.2 0 0
      vertex 2.14484 0.489546 1.65
      vertex 2.14484 0.489546 0
    endloop
  endfacet
  facet normal -0.993712 0.111965 0
    outer loop
      vertex 2.2 0 1.65
      vertex 2.2 0 0
      vertex 2.14484 -0.489546 1.65
    endloop
  endfacet
  facet normal -0.993712 0.111965 0
    outer loop
      vertex 2.14484 -0.489546 1.65
      vertex 2.2 0 0
      vertex 2.14484 -0.489546 0
    endloop
  endfacet
  facet normal -0.943884 0.330278 0
    outer loop
      vertex 2.14484 -0.489546 1.65
      vertex 2.14484 -0.489546 0
      vertex 1.98213 -0.954544 1.65
    endloop
  endfacet
  facet normal -0.943884 0.330278 0
    outer loop
      vertex 1.98213 -0.954544 1.65
      vertex 2.14484 -0.489546 0
      vertex 1.98213 -0.954544 0
    endloop
  endfacet
  facet normal -0.846724 0.532033 0
    outer loop
      vertex 1.98213 -0.954544 1.65
      vertex 1.98213 -0.954544 0
      vertex 1.72003 -1.37168 1.65
    endloop
  endfacet
  facet normal -0.846724 0.532033 0
    outer loop
      vertex 1.72003 -1.37168 1.65
      vertex 1.98213 -0.954544 0
      vertex 1.72003 -1.37168 0
    endloop
  endfacet
  facet normal -0.707107 0.707107 0
    outer loop
      vertex 1.72003 -1.37168 1.65
      vertex 1.72003 -1.37168 0
      vertex 1.37168 -1.72003 1.65
    endloop
  endfacet
  facet normal -0.707107 0.707107 0
    outer loop
      vertex 1.37168 -1.72003 1.65
      vertex 1.72003 -1.37168 0
      vertex 1.37168 -1.72003 0
    endloop
  endfacet
  facet normal -0.532033 0.846724 0
    outer loop
      vertex 1.37168 -1.72003 1.65
      vertex 1.37168 -1.72003 0
      vertex 0.954544 -1.98213 1.65
    endloop
  endfacet
  facet normal -0.532033 0.846724 0
    outer loop
      vertex 0.954544 -1.98213 1.65
      vertex 1.37168 -1.72003 0
      vertex 0.954544 -1.98213 0
    endloop
  endfacet
  facet normal -0.330278 0.943884 0
    outer loop
      vertex 0.954544 -1.98213 1.65
      vertex 0.954544 -1.98213 0
      vertex 0.489546 -2.14484 1.65
    endloop
  endfacet
  facet normal -0.330278 0.943884 0
    outer loop
      vertex 0.489546 -2.14484 1.65
      vertex 0.954544 -1.98213 0
      vertex 0.489546 -2.14484 0
    endloop
  endfacet
  facet normal -0.111965 0.993712 0
    outer loop
      vertex 0.489546 -2.14484 1.65
      vertex 0.489546 -2.14484 0
      vertex 0 -2.2 1.65
    endloop
  endfacet
  facet normal -0.111965 0.993712 0
    outer loop
      vertex 0 -2.2 1.65
      vertex 0.489546 -2.14484 0
      vertex 0 -2.2 0
    endloop
  endfacet
  facet normal 0.111965 0.993712 0
    outer loop
      vertex 0 -2.2 1.65
      vertex 0 -2.2 0
      vertex -0.489546 -2.14484 1.65
    endloop
  endfacet
  facet normal 0.111965 0.993712 0
    outer loop
      vertex -0.489546 -2.14484 1.65
      vertex 0 -2.2 0
      vertex -0.489546 -2.14484 0
    endloop
  endfacet
  facet normal 0.330278 0.943884 0
    outer loop
      vertex -0.489546 -2.14484 1.65
      vertex -0.489546 -2.14484 0
      vertex -0.954544 -1.98213 1.65
    endloop
  endfacet
  facet normal 0.330278 0.943884 0
    outer loop
      vertex -0.954544 -1.98213 1.65
      vertex -0.489546 -2.14484 0
      vertex -0.954544 -1.98213 0
    endloop
  endfacet
  facet normal 0.532033 0.846724 0
    outer loop
      vertex -0.954544 -1.98213 1.65
      vertex -0.954544 -1.98213 0
      vertex -1.37168 -1.72003 1.65
    endloop
  endfacet
  facet normal 0.532033 0.846724 0
    outer loop
      vertex -1.37168 -1.72003 1.65
      vertex -0.954544 -1.98213 0
      vertex -1.37168 -1.72003 0
    endloop
  endfacet
  facet normal 0.707107 0.707107 0
    outer loop
      vertex -1.37168 -1.72003 1.65
      vertex -1.37168 -1.72003 0
      vertex -1.72003 -1.37168 1.65
    endloop
  endfacet
  facet normal 0.707107 0.707107 0
    outer loop
      vertex -1.72003 -1.37168 1.65
      vertex -1.37168 -1.72003 0
      vertex -1.72003 -1.37168 0
    endloop
  endfacet
  facet normal 0.846724 0.532033 0
    outer loop
      vertex -1.98213 -0.954544 1.65
      vertex -1.72003 -1.37168 1.65
      vertex -1.72003 -1.37168 0
    endloop
  endfacet
  facet normal 0.846724 0.532033 0
    outer loop
      vertex -1.98213 -0.954544 0
      vertex -1.98213 -0.954544 1.65
      vertex -1.72003 -1.37168 0
    endloop
  endfacet
  facet normal 0.943884 0.330278 0
    outer loop
      vertex -2.14484 -0.489546 1.65
      vertex -1.98213 -0.954544 1.65
      vertex -1.98213 -0.954544 0
    endloop
  endfacet
  facet normal 0.943884 0.330278 0
    outer loop
      vertex -2.14484 -0.489546 0
      vertex -2.14484 -0.489546 1.65
      vertex -1.98213 -0.954544 0
    endloop
  endfacet
  facet normal 0 0 1
    outer loop
      vertex -4.49317 0.247895 1.65
      vertex -4.49317 -0.247895 1.65
      vertex -4.43863 -0.740676 1.65
    endloop
  endfacet
  facet normal 0 0 1
    outer loop
      vertex -4.16922 -1.69339 1.65
      vertex -4.49317 0.247895 1.65
      vertex -4.33021 -1.22447 1.65
    endloop
  endfacet
  facet normal 0 0 1
    outer loop
      vertex -4.33021 -1.22447 1.65
      vertex -4.49317 0.247895 1.65
      vertex -4.43863 -0.740676 1.65
    endloop
  endfacet
  facet normal 0 0 1
    outer loop
      vertex -3.95763 -2.14176 1.65
      vertex -4.49317 0.247895 1.65
      vertex -4.16922 -1.69339 1.65
    endloop
  endfacet
  facet normal 0 0 1
    outer loop
      vertex -3.698 -2.56414 1.65
      vertex -4.49317 0.247895 1.65
      vertex -3.95763 -2.14176 1.65
    endloop
  endfacet
  facet normal 0 0 1
    outer loop
      vertex -3.39348 -2.95538 1.65
      vertex -4.49317 0.247895 1.65
      vertex -3.698 -2.56414 1.65
    endloop
  endfacet
  facet normal 0 0 1
    outer loop
      vertex -3.04777 -3.31076 1.65
      vertex -4.49317 0.247895 1.65
      vertex -3.39348 -2.95538 1.65
    endloop
  endfacet
  facet normal 0 0 1
    outer loop
      vertex -2.66506 -3.62594 1.65
      vertex -4.49317 0.247895 1.65
      vertex -3.04777 -3.31076 1.65
    endloop
  endfacet
  facet normal 0 0 1
    outer loop
      vertex -2.25 -3.89711 1.65
      vertex -4.49317 0.247895 1.65
      vertex -2.66506 -3.62594 1.65
    endloop
  endfacet
  facet normal 0 0 1
    outer loop
      vertex -1.80763 -4.12098 1.65
      vertex -4.49317 0.247895 1.65
      vertex -2.25 -3.89711 1.65
    endloop
  endfacet
  facet normal 0 0 1
    outer loop
      vertex -1.34332 -4.29482 1.65
      vertex -4.49317 0.247895 1.65
      vertex -1.80763 -4.12098 1.65
    endloop
  endfacet
  facet normal 0 0 1
    outer loop
      vertex -0.862698 -4.41653 1.65
      vertex -4.49317 0.247895 1.65
      vertex -1.34332 -4.29482 1.65
    endloop
  endfacet
  facet normal 0 0 1
    outer loop
      vertex -0.371607 -4.48463 1.65
      vertex -4.49317 0.247895 1.65
      vertex -0.862698 -4.41653 1.65
    endloop
  endfacet
  facet normal 0 0 1
    outer loop
      vertex 0.123995 -4.49829 1.65
      vertex -4.49317 0.247895 1.65
      vertex -0.371607 -4.48463 1.65
    endloop
  endfacet
  facet normal 0 0 1
    outer loop
      vertex 0.618091 -4.45735 1.65
      vertex -4.49317 0.247895 1.65
      vertex 0.123995 -4.49829 1.65
    endloop
  endfacet
  facet normal 0 0 1
    outer loop
      vertex 1.10468 -4.3623 1.65
      vertex -4.49317 0.247895 1.65
      vertex 0.618091 -4.45735 1.65
    endloop
  endfacet
  facet normal 0 0 1
    outer loop
      vertex 1.57787 -4.2143 1.65
      vertex -4.49317 0.247895 1.65
      vertex 1.10468 -4.3623 1.65
    endloop
  endfacet
  facet normal 0 0 1
    outer loop
      vertex 2.0319 -4.01514 1.65
      vertex -4.49317 0.247895 1.65
      vertex 1.57787 -4.2143 1.65
    endloop
  endfacet
  facet normal 0 0 1
    outer loop
      vertex -1.37168 -1.72003 1.65
      vertex -4.49317 0.247895 1.65
      vertex 2.0319 -4.01514 1.65
    endloop
  endfacet
  facet normal 0 0 1
    outer loop
      vertex -1.37168 -1.72003 1.65
      vertex -1.72003 -1.37168 1.65
      vertex -4.49317 0.247895 1.65
    endloop
  endfacet
  facet normal 0 0 1
    outer loop
      vertex 2.14484 -0.489546 1.65
      vertex 1.98213 -0.954544 1.65
      vertex 4.39108 -0.984065 1.65
    endloop
  endfacet
  facet normal 0 0 1
    outer loop
      vertex -2.14484 0.489546 1.65
      vertex -1.98213 0.954544 1.65
      vertex -4.49317 0.247895 1.65
    endloop
  endfacet
  facet normal 0 0 1
    outer loop
      vertex 2.2 0 1.65
      vertex 2.14484 -0.489546 1.65
      vertex 4.47269 -0.495037 1.65
    endloop
  endfacet
  facet normal 0 0 1
    outer loop
      vertex -1.98213 0.954544 1.65
      vertex -1.72003 1.37168 1.65
      vertex -4.49317 0.247895 1.65
    endloop
  endfacet
  facet normal 0 0 1
    outer loop
      vertex 1.72003 1.37168 1.65
      vertex 1.98213 0.954544 1.65
      vertex 4.25618 1.46115 1.65
    endloop
  endfacet
  facet normal 0 0 1
    outer loop
      vertex 0.489546 2.14484 1.65
      vertex 0.954544 1.98213 1.65
      vertex 3.22552 3.13784 1.65
    endloop
  endfacet
  facet normal 0 0 1
    outer loop
      vertex 2.0319 4.01514 1.65
      vertex -4.49317 0.247895 1.65
      vertex 2.46127 3.76725 1.65
    endloop
  endfacet
  facet normal 0 0 1
    outer loop
      vertex 1.57787 4.2143 1.65
      vertex -4.49317 0.247895 1.65
      vertex 2.0319 4.01514 1.65
    endloop
  endfacet
  facet normal 0 0 1
    outer loop
      vertex 1.10468 4.3623 1.65
      vertex -4.49317 0.247895 1.65
      vertex 1.57787 4.2143 1.65
    endloop
  endfacet
  facet normal 0 0 1
    outer loop
      vertex 0.618091 4.45735 1.65
      vertex -4.49317 0.247895 1.65
      vertex 1.10468 4.3623 1.65
    endloop
  endfacet
  facet normal 0 0 1
    outer loop
      vertex 0.123995 4.49829 1.65
      vertex -4.49317 0.247895 1.65
      vertex 0.618091 4.45735 1.65
    endloop
  endfacet
  facet normal 0 0 1
    outer loop
      vertex -0.371607 4.48463 1.65
      vertex -4.49317 0.247895 1.65
      vertex 0.123995 4.49829 1.65
    endloop
  endfacet
  facet normal 0 0 1
    outer loop
      vertex -0.862698 4.41653 1.65
      vertex -4.49317 0.247895 1.65
      vertex -0.371607 4.48463 1.65
    endloop
  endfacet
  facet normal 0 0 1
    outer loop
      vertex -1.34332 4.29482 1.65
      vertex -4.49317 0.247895 1.65
      vertex -0.862698 4.41653 1.65
    endloop
  endfacet
  facet normal 0 0 1
    outer loop
      vertex -1.80763 4.12098 1.65
      vertex -4.49317 0.247895 1.65
      vertex -1.34332 4.29482 1.65
    endloop
  endfacet
  facet normal 0 0 1
    outer loop
      vertex -2.25 3.89711 1.65
      vertex -4.49317 0.247895 1.65
      vertex -1.80763 4.12098 1.65
    endloop
  endfacet
  facet normal 0 0 1
    outer loop
      vertex -2.66506 3.62594 1.65
      vertex -4.49317 0.247895 1.65
      vertex -2.25 3.89711 1.65
    endloop
  endfacet
  facet normal 0 0 1
    outer loop
      vertex -3.04777 3.31076 1.65
      vertex -4.49317 0.247895 1.65
      vertex -2.66506 3.62594 1.65
    endloop
  endfacet
  facet normal 0 0 1
    outer loop
      vertex -3.39348 2.95538 1.65
      vertex -4.49317 0.247895 1.65
      vertex -3.04777 3.31076 1.65
    endloop
  endfacet
  facet normal 0 0 1
    outer loop
      vertex -3.698 2.56414 1.65
      vertex -4.49317 0.247895 1.65
      vertex -3.39348 2.95538 1.65
    endloop
  endfacet
  facet normal 0 0 1
    outer loop
      vertex -3.95763 2.14176 1.65
      vertex -4.49317 0.247895 1.65
      vertex -3.698 2.56414 1.65
    endloop
  endfacet
  facet normal 0 0 1
    outer loop
      vertex -4.16922 1.69339 1.65
      vertex -4.49317 0.247895 1.65
      vertex -3.95763 2.14176 1.65
    endloop
  endfacet
  facet normal 0 0 1
    outer loop
      vertex -4.33021 1.22447 1.65
      vertex -4.49317 0.247895 1.65
      vertex -4.16922 1.69339 1.65
    endloop
  endfacet
  facet normal 0 0 1
    outer loop
      vertex -4.43863 0.740676 1.65
      vertex -4.49317 0.247895 1.65
      vertex -4.33021 1.22447 1.65
    endloop
  endfacet
  facet normal 0 0 1
    outer loop
      vertex -2.2 0 1.65
      vertex -2.14484 0.489546 1.65
      vertex -4.49317 0.247895 1.65
    endloop
  endfacet
  facet normal 0 0 1
    outer loop
      vertex 1.98213 -0.954544 1.65
      vertex 1.72003 -1.37168 1.65
      vertex 4.06961 -1.92049 1.65
    endloop
  endfacet
  facet normal 0 0 1
    outer loop
      vertex 2.14484 0.489546 1.65
      vertex 2.2 0 1.65
      vertex 4.5 0 1.65
    endloop
  endfacet
  facet normal 0 0 1
    outer loop
      vertex 1.37168 1.72003 1.65
      vertex 1.72003 1.37168 1.65
      vertex 4.06961 1.92049 1.65
    endloop
  endfacet
  facet normal 0 0 1
    outer loop
      vertex 0.954544 1.98213 1.65
      vertex 3.83364 2.35653 1.65
      vertex 3.55113 2.76396 1.65
    endloop
  endfacet
  facet normal 0 0 1
    outer loop
      vertex 0 2.2 1.65
      vertex 0.489546 2.14484 1.65
      vertex 3.22552 3.13784 1.65
    endloop
  endfacet
  facet normal 0 0 1
    outer loop
      vertex 0 2.2 1.65
      vertex 3.22552 3.13784 1.65
      vertex 2.86076 3.47362 1.65
    endloop
  endfacet
  facet normal 0 0 1
    outer loop
      vertex -0.954544 1.98213 1.65
      vertex -4.49317 0.247895 1.65
      vertex -1.37168 1.72003 1.65
    endloop
  endfacet
  facet normal 0 0 1
    outer loop
      vertex -0.489546 2.14484 1.65
      vertex 0 2.2 1.65
      vertex 2.86076 3.47362 1.65
    endloop
  endfacet
  facet normal 0 0 1
    outer loop
      vertex 2.46127 3.76725 1.65
      vertex -4.49317 0.247895 1.65
      vertex -0.954544 1.98213 1.65
    endloop
  endfacet
  facet normal 0 0 1
    outer loop
      vertex 2.46127 3.76725 1.65
      vertex -0.489546 2.14484 1.65
      vertex 2.86076 3.47362 1.65
    endloop
  endfacet
  facet normal 0 0 1
    outer loop
      vertex 0.954544 1.98213 1.65
      vertex 1.37168 1.72003 1.65
      vertex 3.83364 2.35653 1.65
    endloop
  endfacet
  facet normal 0 0 1
    outer loop
      vertex -0.954544 1.98213 1.65
      vertex -0.489546 2.14484 1.65
      vertex 2.46127 3.76725 1.65
    endloop
  endfacet
  facet normal 0 0 1
    outer loop
      vertex 3.22552 3.13784 1.65
      vertex 0.954544 1.98213 1.65
      vertex 3.55113 2.76396 1.65
    endloop
  endfacet
  facet normal 0 0 1
    outer loop
      vertex -1.72003 1.37168 1.65
      vertex -1.37168 1.72003 1.65
      vertex -4.49317 0.247895 1.65
    endloop
  endfacet
  facet normal 0 0 1
    outer loop
      vertex 3.83364 2.35653 1.65
      vertex 1.37168 1.72003 1.65
      vertex 4.06961 1.92049 1.65
    endloop
  endfacet
  facet normal 0 0 1
    outer loop
      vertex 4.06961 1.92049 1.65
      vertex 1.72003 1.37168 1.65
      vertex 4.25618 1.46115 1.65
    endloop
  endfacet
  facet normal 0 0 1
    outer loop
      vertex 4.25618 1.46115 1.65
      vertex 1.98213 0.954544 1.65
      vertex 4.39108 0.984065 1.65
    endloop
  endfacet
  facet normal 0 0 1
    outer loop
      vertex 4.39108 0.984065 1.65
      vertex 2.14484 0.489546 1.65
      vertex 4.47269 0.495037 1.65
    endloop
  endfacet
  facet normal 0 0 1
    outer loop
      vertex 4.5 0 1.65
      vertex 2.2 0 1.65
      vertex 4.47269 -0.495037 1.65
    endloop
  endfacet
  facet normal 0 0 1
    outer loop
      vertex 1.98213 0.954544 1.65
      vertex 2.14484 0.489546 1.65
      vertex 4.39108 0.984065 1.65
    endloop
  endfacet
  facet normal 0 0 1
    outer loop
      vertex 4.47269 -0.495037 1.65
      vertex 2.14484 -0.489546 1.65
      vertex 4.39108 -0.984065 1.65
    endloop
  endfacet
  facet normal 0 0 1
    outer loop
      vertex 4.39108 -0.984065 1.65
      vertex 1.98213 -0.954544 1.65
      vertex 4.25618 -1.46115 1.65
    endloop
  endfacet
  facet normal 0 0 1
    outer loop
      vertex 2.14484 0.489546 1.65
      vertex 4.5 0 1.65
      vertex 4.47269 0.495037 1.65
    endloop
  endfacet
  facet normal 0 0 1
    outer loop
      vertex 4.06961 -1.92049 1.65
      vertex 1.72003 -1.37168 1.65
      vertex 3.83364 -2.35653 1.65
    endloop
  endfacet
  facet normal 0 0 1
    outer loop
      vertex 1.72003 -1.37168 1.65
      vertex 1.37168 -1.72003 1.65
      vertex 3.83364 -2.35653 1.65
    endloop
  endfacet
  facet normal 0 0 1
    outer loop
      vertex 3.83364 -2.35653 1.65
      vertex 1.37168 -1.72003 1.65
      vertex 3.55113 -2.76396 1.65
    endloop
  endfacet
  facet normal 0 0 1
    outer loop
      vertex 3.55113 -2.76396 1.65
      vertex 0.954544 -1.98213 1.65
      vertex 3.22552 -3.13784 1.65
    endloop
  endfacet
  facet normal 0 0 1
    outer loop
      vertex 1.98213 -0.954544 1.65
      vertex 4.06961 -1.92049 1.65
      vertex 4.25618 -1.46115 1.65
    endloop
  endfacet
  facet normal 0 0 1
    outer loop
      vertex 3.22552 -3.13784 1.65
      vertex 0.489546 -2.14484 1.65
      vertex 2.86076 -3.47362 1.65
    endloop
  endfacet
  facet normal 0 0 1
    outer loop
      vertex 2.86076 -3.47362 1.65
      vertex 0 -2.2 1.65
      vertex 2.46127 -3.76725 1.65
    endloop
  endfacet
  facet normal 0 0 1
    outer loop
      vertex 2.46127 -3.76725 1.65
      vertex -0.489546 -2.14484 1.65
      vertex 2.0319 -4.01514 1.65
    endloop
  endfacet
  facet normal 0 0 1
    outer loop
      vertex -0.489546 -2.14484 1.65
      vertex -0.954544 -1.98213 1.65
      vertex 2.0319 -4.01514 1.65
    endloop
  endfacet
  facet normal 0 0 1
    outer loop
      vertex -0.954544 -1.98213 1.65
      vertex -1.37168 -1.72003 1.65
      vertex 2.0319 -4.01514 1.65
    endloop
  endfacet
  facet normal 0 0 1
    outer loop
      vertex -1.72003 -1.37168 1.65
      vertex -1.98213 -0.954544 1.65
      vertex -4.49317 0.247895 1.65
    endloop
  endfacet
  facet normal 0 0 1
    outer loop
      vertex 0 -2.2 1.65
      vertex -0.489546 -2.14484 1.65
      vertex 2.46127 -3.76725 1.65
    endloop
  endfacet
  facet normal 0 0 1
    outer loop
      vertex 0.489546 -2.14484 1.65
      vertex 0 -2.2 1.65
      vertex 2.86076 -3.47362 1.65
    endloop
  endfacet
  facet normal 0 0 1
    outer loop
      vertex -1.98213 -0.954544 1.65
      vertex -2.14484 -0.489546 1.65
      vertex -4.49317 0.247895 1.65
    endloop
  endfacet
  facet normal 0 0 1
    outer loop
      vertex 0.954544 -1.98213 1.65
      vertex 0.489546 -2.14484 1.65
      vertex 3.22552 -3.13784 1.65
    endloop
  endfacet
  facet normal 0 0 1
    outer loop
      vertex 1.37168 -1.72003 1.65
      vertex 0.954544 -1.98213 1.65
      vertex 3.55113 -2.76396 1.65
    endloop
  endfacet
  facet normal 0 0 1
    outer loop
      vertex -2.14484 -0.489546 1.65
      vertex -2.2 0 1.65
      vertex -4.49317 0.247895 1.65
    endloop
  endfacet
endsolid OpenSCAD_Model
