solid OpenSCAD_Model
  facet normal 0 0 -1
    outer loop
      vertex -5.2 0.2 -14.2
      vertex -5.2 17.2 -14.2
      vertex 5.2 0.2 -14.2
    endloop
  endfacet
  facet normal 0 0 -1
    outer loop
      vertex 5.2 0.2 -14.2
      vertex -5.2 17.2 -14.2
      vertex -5.15908 17.6938 -14.2
    endloop
  endfacet
  facet normal 0 0 -1
    outer loop
      vertex 5.2 0.2 -14.2
      vertex -5.15908 17.6938 -14.2
      vertex -5.03745 18.1741 -14.2
    endloop
  endfacet
  facet normal 0 0 -1
    outer loop
      vertex 5.2 0.2 -14.2
      vertex -5.03745 18.1741 -14.2
      vertex -4.83842 18.6278 -14.2
    endloop
  endfacet
  facet normal 0 0 -1
    outer loop
      vertex -1.98213 14.0455 -14.2
      vertex -4.83842 18.6278 -14.2
      vertex -4.56742 19.0426 -14.2
    endloop
  endfacet
  facet normal 0 0 -1
    outer loop
      vertex -2.2 15 -14.2
      vertex -4.56742 19.0426 -14.2
      vertex -4.23184 19.4072 -14.2
    endloop
  endfacet
  facet normal 0 0 -1
    outer loop
      vertex -2.14484 15.4895 -14.2
      vertex -4.23184 19.4072 -14.2
      vertex -3.84084 19.7115 -14.2
    endloop
  endfacet
  facet normal 0 0 -1
    outer loop
      vertex -1.98213 15.9545 -14.2
      vertex -3.84084 19.7115 -14.2
      vertex -3.40509 19.9473 -14.2
    endloop
  endfacet
  facet normal 0 0 -1
    outer loop
      vertex -1.37168 16.72 -14.2
      vertex -2.93646 20.1082 -14.2
      vertex -2.44774 20.1898 -14.2
    endloop
  endfacet
  facet normal 0 0 -1
    outer loop
      vertex 1.37168 16.72 -14.2
      vertex -2.44774 20.1898 -14.2
      vertex 2.44774 20.1898 -14.2
    endloop
  endfacet
  facet normal 0 0 -1
    outer loop
      vertex 5.2 0.2 -14.2
      vertex 2.44774 20.1898 -14.2
      vertex 2.93646 20.1082 -14.2
    endloop
  endfacet
  facet normal 0 0 -1
    outer loop
      vertex 5.2 0.2 -14.2
      vertex 2.93646 20.1082 -14.2
      vertex 3.40509 19.9473 -14.2
    endloop
  endfacet
  facet normal 0 0 -1
    outer loop
      vertex 5.2 0.2 -14.2
      vertex 3.40509 19.9473 -14.2
      vertex 3.84084 19.7115 -14.2
    endloop
  endfacet
  facet normal 0 0 -1
    outer loop
      vertex 5.2 0.2 -14.2
      vertex 3.84084 19.7115 -14.2
      vertex 4.23184 19.4072 -14.2
    endloop
  endfacet
  facet normal 0 0 -1
    outer loop
      vertex 5.2 0.2 -14.2
      vertex 4.23184 19.4072 -14.2
      vertex 4.56742 19.0426 -14.2
    endloop
  endfacet
  facet normal 0 0 -1
    outer loop
      vertex 5.2 0.2 -14.2
      vertex 4.56742 19.0426 -14.2
      vertex 4.83842 18.6278 -14.2
    endloop
  endfacet
  facet normal 0 0 -1
    outer loop
      vertex 5.2 0.2 -14.2
      vertex 4.83842 18.6278 -14.2
      vertex 5.03745 18.1741 -14.2
    endloop
  endfacet
  facet normal 0 0 -1
    outer loop
      vertex 5.2 0.2 -14.2
      vertex 5.03745 18.1741 -14.2
      vertex 5.15908 17.6938 -14.2
    endloop
  endfacet
  facet normal 0 0 -1
    outer loop
      vertex 5.2 0.2 -14.2
      vertex 5.15908 17.6938 -14.2
      vertex 5.2 17.2 -14.2
    endloop
  endfacet
  facet normal 0 0 -1
    outer loop
      vertex -2.14484 14.5105 -14.2
      vertex -4.56742 19.0426 -14.2
      vertex -2.2 15 -14.2
    endloop
  endfacet
  facet normal 0 0 -1
    outer loop
      vertex -1.98213 14.0455 -14.2
      vertex -4.56742 19.0426 -14.2
      vertex -2.14484 14.5105 -14.2
    endloop
  endfacet
  facet normal 0 0 -1
    outer loop
      vertex 5.2 0.2 -14.2
      vertex -4.83842 18.6278 -14.2
      vertex -1.98213 14.0455 -14.2
    endloop
  endfacet
  facet normal 0 0 -1
    outer loop
      vertex -1.37168 13.28 -14.2
      vertex 5.2 0.2 -14.2
      vertex -1.72003 13.6283 -14.2
    endloop
  endfacet
  facet normal 0 0 -1
    outer loop
      vertex -0.954544 13.0179 -14.2
      vertex 5.2 0.2 -14.2
      vertex -1.37168 13.28 -14.2
    endloop
  endfacet
  facet normal 0 0 -1
    outer loop
      vertex -1.72003 13.6283 -14.2
      vertex 5.2 0.2 -14.2
      vertex -1.98213 14.0455 -14.2
    endloop
  endfacet
  facet normal 0 0 -1
    outer loop
      vertex 0 12.8 -14.2
      vertex 5.2 0.2 -14.2
      vertex -0.489546 12.8552 -14.2
    endloop
  endfacet
  facet normal 0 0 -1
    outer loop
      vertex -1.72003 16.3717 -14.2
      vertex -3.40509 19.9473 -14.2
      vertex -2.93646 20.1082 -14.2
    endloop
  endfacet
  facet normal 0 0 -1
    outer loop
      vertex -1.98213 15.9545 -14.2
      vertex -3.40509 19.9473 -14.2
      vertex -1.72003 16.3717 -14.2
    endloop
  endfacet
  facet normal 0 0 -1
    outer loop
      vertex 2.14484 15.4895 -14.2
      vertex 2.44774 20.1898 -14.2
      vertex 2.2 15 -14.2
    endloop
  endfacet
  facet normal 0 0 -1
    outer loop
      vertex 5.2 0.2 -14.2
      vertex 0.489546 12.8552 -14.2
      vertex 0.954544 13.0179 -14.2
    endloop
  endfacet
  facet normal 0 0 -1
    outer loop
      vertex 5.2 0.2 -14.2
      vertex 0.954544 13.0179 -14.2
      vertex 1.37168 13.28 -14.2
    endloop
  endfacet
  facet normal 0 0 -1
    outer loop
      vertex 5.2 0.2 -14.2
      vertex 1.37168 13.28 -14.2
      vertex 1.72003 13.6283 -14.2
    endloop
  endfacet
  facet normal 0 0 -1
    outer loop
      vertex 5.2 0.2 -14.2
      vertex 1.72003 13.6283 -14.2
      vertex 1.98213 14.0455 -14.2
    endloop
  endfacet
  facet normal 0 0 -1
    outer loop
      vertex 5.2 0.2 -14.2
      vertex 1.98213 14.0455 -14.2
      vertex 2.14484 14.5105 -14.2
    endloop
  endfacet
  facet normal 0 0 -1
    outer loop
      vertex 5.2 0.2 -14.2
      vertex 2.14484 14.5105 -14.2
      vertex 2.2 15 -14.2
    endloop
  endfacet
  facet normal 0 0 -1
    outer loop
      vertex 5.2 0.2 -14.2
      vertex 2.2 15 -14.2
      vertex 2.44774 20.1898 -14.2
    endloop
  endfacet
  facet normal 0 0 -1
    outer loop
      vertex 1.98213 15.9545 -14.2
      vertex 2.44774 20.1898 -14.2
      vertex 2.14484 15.4895 -14.2
    endloop
  endfacet
  facet normal 0 0 -1
    outer loop
      vertex 1.72003 16.3717 -14.2
      vertex 2.44774 20.1898 -14.2
      vertex 1.98213 15.9545 -14.2
    endloop
  endfacet
  facet normal 0 0 -1
    outer loop
      vertex 1.37168 16.72 -14.2
      vertex 2.44774 20.1898 -14.2
      vertex 1.72003 16.3717 -14.2
    endloop
  endfacet
  facet normal 0 0 -1
    outer loop
      vertex 0.954544 16.9821 -14.2
      vertex -2.44774 20.1898 -14.2
      vertex 1.37168 16.72 -14.2
    endloop
  endfacet
  facet normal 0 0 -1
    outer loop
      vertex -1.37168 16.72 -14.2
      vertex -2.44774 20.1898 -14.2
      vertex -0.954544 16.9821 -14.2
    endloop
  endfacet
  facet normal 0 0 -1
    outer loop
      vertex 0.489546 17.1448 -14.2
      vertex -2.44774 20.1898 -14.2
      vertex 0.954544 16.9821 -14.2
    endloop
  endfacet
  facet normal 0 0 -1
    outer loop
      vertex 0 17.2 -14.2
      vertex -2.44774 20.1898 -14.2
      vertex 0.489546 17.1448 -14.2
    endloop
  endfacet
  facet normal 0 0 -1
    outer loop
      vertex -0.489546 17.1448 -14.2
      vertex -2.44774 20.1898 -14.2
      vertex 0 17.2 -14.2
    endloop
  endfacet
  facet normal 0 0 -1
    outer loop
      vertex -0.954544 16.9821 -14.2
      vertex -2.44774 20.1898 -14.2
      vertex -0.489546 17.1448 -14.2
    endloop
  endfacet
  facet normal 0 0 -1
    outer loop
      vertex 0.489546 12.8552 -14.2
      vertex 5.2 0.2 -14.2
      vertex 0 12.8 -14.2
    endloop
  endfacet
  facet normal 0 0 -1
    outer loop
      vertex -2.14484 15.4895 -14.2
      vertex -3.84084 19.7115 -14.2
      vertex -1.98213 15.9545 -14.2
    endloop
  endfacet
  facet normal 0 0 -1
    outer loop
      vertex -2.2 15 -14.2
      vertex -4.23184 19.4072 -14.2
      vertex -2.14484 15.4895 -14.2
    endloop
  endfacet
  facet normal 0 0 -1
    outer loop
      vertex -0.489546 12.8552 -14.2
      vertex 5.2 0.2 -14.2
      vertex -0.954544 13.0179 -14.2
    endloop
  endfacet
  facet normal 0 0 -1
    outer loop
      vertex -1.72003 16.3717 -14.2
      vertex -2.93646 20.1082 -14.2
      vertex -1.37168 16.72 -14.2
    endloop
  endfacet
  facet normal -1 0 0
    outer loop
      vertex -5.2 0.2 -14.2
      vertex -5.2 0.2 0
      vertex -5.2 17.2 -14.2
    endloop
  endfacet
  facet normal -1 0 0
    outer loop
      vertex -5.2 17.2 -14.2
      vertex -5.2 0.2 0
      vertex -5.2 17.2 0
    endloop
  endfacet
  facet normal 0 -1 0
    outer loop
      vertex 0.49 0.2 -11.145
      vertex -5.2 0.2 -14.2
      vertex 5.2 0.2 -14.2
    endloop
  endfacet
  facet normal 0 -1 0
    outer loop
      vertex -5.2 0.2 0
      vertex -5.2 0.2 -14.2
      vertex -2.2 0.2 -9
    endloop
  endfacet
  facet normal 0 -1 0
    outer loop
      vertex 0.955 0.2 -10.982
      vertex 0.49 0.2 -11.145
      vertex 5.2 0.2 -14.2
    endloop
  endfacet
  facet normal 0 -1 0
    outer loop
      vertex -5.2 0.2 0
      vertex -2.2 0.2 -9
      vertex -2.145 0.2 -8.51
    endloop
  endfacet
  facet normal 0 -1 0
    outer loop
      vertex -5.2 0.2 0
      vertex -2.145 0.2 -8.51
      vertex -1.982 0.2 -8.045
    endloop
  endfacet
  facet normal 0 -1 0
    outer loop
      vertex -5.2 0.2 0
      vertex -1.982 0.2 -8.045
      vertex -1.72 0.2 -7.628
    endloop
  endfacet
  facet normal 0 -1 0
    outer loop
      vertex 1.372 0.2 -10.72
      vertex 0.955 0.2 -10.982
      vertex 5.2 0.2 -14.2
    endloop
  endfacet
  facet normal 0 -1 0
    outer loop
      vertex -1.556 0.2 -7.444
      vertex -1.72 0.2 -7.628
      vertex -1.546 0.2 -7.454
    endloop
  endfacet
  facet normal 0 -1 0
    outer loop
      vertex -5.2 0.2 0
      vertex -1.72 0.2 -7.628
      vertex -1.556 0.2 -7.444
    endloop
  endfacet
  facet normal 0 -1 0
    outer loop
      vertex 2.145 0.2 -9.49
      vertex 1.982 0.2 -9.955
      vertex 5.2 0.2 -14.2
    endloop
  endfacet
  facet normal 0 -1 0
    outer loop
      vertex 1.982 0.2 -9.955
      vertex 1.72 0.2 -10.372
      vertex 5.2 0.2 -14.2
    endloop
  endfacet
  facet normal 0 -1 0
    outer loop
      vertex 5.2 0.2 0
      vertex -5.2 0.2 0
      vertex 0.911586 0.2 -6.8
    endloop
  endfacet
  facet normal 0 -1 0
    outer loop
      vertex 1.982 0.2 -8.045
      vertex 2.145 0.2 -8.51
      vertex 5.2 0.2 -14.2
    endloop
  endfacet
  facet normal 0 -1 0
    outer loop
      vertex 5.2 0.2 0
      vertex 0.911586 0.2 -6.8
      vertex 1.556 0.2 -7.444
    endloop
  endfacet
  facet normal 0 -1 0
    outer loop
      vertex 1.72 0.2 -10.372
      vertex 1.372 0.2 -10.72
      vertex 5.2 0.2 -14.2
    endloop
  endfacet
  facet normal 0 -1 0
    outer loop
      vertex 2.145 0.2 -8.51
      vertex 2.2 0.2 -9
      vertex 5.2 0.2 -14.2
    endloop
  endfacet
  facet normal 0 -1 0
    outer loop
      vertex 5.2 0.2 0
      vertex 1.556 0.2 -7.444
      vertex 1.72 0.2 -7.628
    endloop
  endfacet
  facet normal 0 -1 0
    outer loop
      vertex 5.2 0.2 0
      vertex 1.982 0.2 -8.045
      vertex 5.2 0.2 -14.2
    endloop
  endfacet
  facet normal 0 -1 0
    outer loop
      vertex 5.2 0.2 0
      vertex 1.72 0.2 -7.628
      vertex 1.982 0.2 -8.045
    endloop
  endfacet
  facet normal 0 -1 0
    outer loop
      vertex 2.2 0.2 -9
      vertex 2.145 0.2 -9.49
      vertex 5.2 0.2 -14.2
    endloop
  endfacet
  facet normal 0 -1 0
    outer loop
      vertex 1.546 0.2 -7.454
      vertex 1.72 0.2 -7.628
      vertex 1.556 0.2 -7.444
    endloop
  endfacet
  facet normal 0 -1 0
    outer loop
      vertex -7.3549e-16 0.2 -11.2
      vertex -5.2 0.2 -14.2
      vertex 0.49 0.2 -11.145
    endloop
  endfacet
  facet normal 0 -1 0
    outer loop
      vertex -0.49 0.2 -11.145
      vertex -5.2 0.2 -14.2
      vertex -7.3549e-16 0.2 -11.2
    endloop
  endfacet
  facet normal 0 -1 0
    outer loop
      vertex -0.955 0.2 -10.982
      vertex -5.2 0.2 -14.2
      vertex -0.49 0.2 -11.145
    endloop
  endfacet
  facet normal 0 -1 0
    outer loop
      vertex -1.372 0.2 -10.72
      vertex -5.2 0.2 -14.2
      vertex -0.955 0.2 -10.982
    endloop
  endfacet
  facet normal 0 -1 0
    outer loop
      vertex -1.72 0.2 -10.372
      vertex -5.2 0.2 -14.2
      vertex -1.372 0.2 -10.72
    endloop
  endfacet
  facet normal 0 -1 0
    outer loop
      vertex -1.982 0.2 -9.955
      vertex -5.2 0.2 -14.2
      vertex -1.72 0.2 -10.372
    endloop
  endfacet
  facet normal 0 -1 0
    outer loop
      vertex -2.145 0.2 -9.49
      vertex -5.2 0.2 -14.2
      vertex -1.982 0.2 -9.955
    endloop
  endfacet
  facet normal 0 -1 0
    outer loop
      vertex -2.2 0.2 -9
      vertex -5.2 0.2 -14.2
      vertex -2.145 0.2 -9.49
    endloop
  endfacet
  facet normal 0 -1 0
    outer loop
      vertex -1.556 0.2 -7.444
      vertex -0.911586 0.2 -6.8
      vertex -5.2 0.2 0
    endloop
  endfacet
  facet normal 0 -1 0
    outer loop
      vertex -0.911586 0.2 -6.8
      vertex 0.911586 0.2 -6.8
      vertex -5.2 0.2 0
    endloop
  endfacet
  facet normal 1 0 0
    outer loop
      vertex 5.2 0.2 0
      vertex 5.2 0.2 -14.2
      vertex 5.2 17.2 -14.2
    endloop
  endfacet
  facet normal 1 0 0
    outer loop
      vertex 5.2 17.2 0
      vertex 5.2 0.2 0
      vertex 5.2 17.2 -14.2
    endloop
  endfacet
  facet normal 0.996585 0.0825791 0
    outer loop
      vertex 5.2 17.2 -14.2
      vertex 5.15908 17.6938 -14.2
      vertex 5.15908 17.6938 0
    endloop
  endfacet
  facet normal 0.996585 0.0825791 0
    outer loop
      vertex 5.2 17.2 0
      vertex 5.2 17.2 -14.2
      vertex 5.15908 17.6938 0
    endloop
  endfacet
  facet normal 0.9694 0.245485 0
    outer loop
      vertex 5.15908 17.6938 -14.2
      vertex 5.03745 18.1741 -14.2
      vertex 5.03745 18.1741 0
    endloop
  endfacet
  facet normal 0.9694 0.245485 0
    outer loop
      vertex 5.15908 17.6938 0
      vertex 5.15908 17.6938 -14.2
      vertex 5.03745 18.1741 0
    endloop
  endfacet
  facet normal 0.915773 0.401696 0
    outer loop
      vertex 5.03745 18.1741 -14.2
      vertex 4.83842 18.6278 -14.2
      vertex 4.83842 18.6278 0
    endloop
  endfacet
  facet normal 0.915773 0.401696 0
    outer loop
      vertex 5.03745 18.1741 0
      vertex 5.03745 18.1741 -14.2
      vertex 4.83842 18.6278 0
    endloop
  endfacet
  facet normal 0.837167 0.546947 0
    outer loop
      vertex 4.83842 18.6278 -14.2
      vertex 4.56742 19.0426 -14.2
      vertex 4.56742 19.0426 0
    endloop
  endfacet
  facet normal 0.837167 0.546947 0
    outer loop
      vertex 4.83842 18.6278 0
      vertex 4.83842 18.6278 -14.2
      vertex 4.56742 19.0426 0
    endloop
  endfacet
  facet normal 0.735724 0.677281 0
    outer loop
      vertex 4.56742 19.0426 -14.2
      vertex 4.23184 19.4072 -14.2
      vertex 4.23184 19.4072 0
    endloop
  endfacet
  facet normal 0.735724 0.677281 0
    outer loop
      vertex 4.56742 19.0426 0
      vertex 4.56742 19.0426 -14.2
      vertex 4.23184 19.4072 0
    endloop
  endfacet
  facet normal 0.614211 0.789142 0
    outer loop
      vertex 3.84084 19.7115 -14.2
      vertex 3.84084 19.7115 0
      vertex 4.23184 19.4072 -14.2
    endloop
  endfacet
  facet normal 0.614211 0.789142 0
    outer loop
      vertex 4.23184 19.4072 -14.2
      vertex 3.84084 19.7115 0
      vertex 4.23184 19.4072 0
    endloop
  endfacet
  facet normal 0.475948 0.879473 0
    outer loop
      vertex 3.40509 19.9473 -14.2
      vertex 3.40509 19.9473 0
      vertex 3.84084 19.7115 -14.2
    endloop
  endfacet
  facet normal 0.475948 0.879473 0
    outer loop
      vertex 3.84084 19.7115 -14.2
      vertex 3.40509 19.9473 0
      vertex 3.84084 19.7115 0
    endloop
  endfacet
  facet normal 0.3247 0.945817 0
    outer loop
      vertex 2.93646 20.1082 -14.2
      vertex 2.93646 20.1082 0
      vertex 3.40509 19.9473 -14.2
    endloop
  endfacet
  facet normal 0.3247 0.945817 0
    outer loop
      vertex 3.40509 19.9473 -14.2
      vertex 2.93646 20.1082 0
      vertex 3.40509 19.9473 0
    endloop
  endfacet
  facet normal 0.164593 0.986362 0
    outer loop
      vertex 2.44774 20.1898 -14.2
      vertex 2.44774 20.1898 0
      vertex 2.93646 20.1082 -14.2
    endloop
  endfacet
  facet normal 0.164593 0.986362 0
    outer loop
      vertex 2.93646 20.1082 -14.2
      vertex 2.44774 20.1898 0
      vertex 2.93646 20.1082 0
    endloop
  endfacet
  facet normal 0 1 0
    outer loop
      vertex -2.44774 20.1898 -14.2
      vertex -2.44774 20.1898 0
      vertex 2.44774 20.1898 -14.2
    endloop
  endfacet
  facet normal 0 1 0
    outer loop
      vertex 2.44774 20.1898 -14.2
      vertex -2.44774 20.1898 0
      vertex 2.44774 20.1898 0
    endloop
  endfacet
  facet normal -0.164593 0.986362 0
    outer loop
      vertex -2.93646 20.1082 -14.2
      vertex -2.93646 20.1082 0
      vertex -2.44774 20.1898 -14.2
    endloop
  endfacet
  facet normal -0.164593 0.986362 0
    outer loop
      vertex -2.44774 20.1898 -14.2
      vertex -2.93646 20.1082 0
      vertex -2.44774 20.1898 0
    endloop
  endfacet
  facet normal -0.3247 0.945817 0
    outer loop
      vertex -3.40509 19.9473 -14.2
      vertex -3.40509 19.9473 0
      vertex -2.93646 20.1082 -14.2
    endloop
  endfacet
  facet normal -0.3247 0.945817 0
    outer loop
      vertex -2.93646 20.1082 -14.2
      vertex -3.40509 19.9473 0
      vertex -2.93646 20.1082 0
    endloop
  endfacet
  facet normal -0.475948 0.879473 0
    outer loop
      vertex -3.84084 19.7115 -14.2
      vertex -3.84084 19.7115 0
      vertex -3.40509 19.9473 -14.2
    endloop
  endfacet
  facet normal -0.475948 0.879473 0
    outer loop
      vertex -3.40509 19.9473 -14.2
      vertex -3.84084 19.7115 0
      vertex -3.40509 19.9473 0
    endloop
  endfacet
  facet normal -0.614211 0.789142 0
    outer loop
      vertex -4.23184 19.4072 -14.2
      vertex -4.23184 19.4072 0
      vertex -3.84084 19.7115 -14.2
    endloop
  endfacet
  facet normal -0.614211 0.789142 0
    outer loop
      vertex -3.84084 19.7115 -14.2
      vertex -4.23184 19.4072 0
      vertex -3.84084 19.7115 0
    endloop
  endfacet
  facet normal -0.735724 0.677281 0
    outer loop
      vertex -4.56742 19.0426 -14.2
      vertex -4.56742 19.0426 0
      vertex -4.23184 19.4072 -14.2
    endloop
  endfacet
  facet normal -0.735724 0.677281 0
    outer loop
      vertex -4.23184 19.4072 -14.2
      vertex -4.56742 19.0426 0
      vertex -4.23184 19.4072 0
    endloop
  endfacet
  facet normal -0.837167 0.546947 0
    outer loop
      vertex -4.83842 18.6278 -14.2
      vertex -4.83842 18.6278 0
      vertex -4.56742 19.0426 -14.2
    endloop
  endfacet
  facet normal -0.837167 0.546947 0
    outer loop
      vertex -4.56742 19.0426 -14.2
      vertex -4.83842 18.6278 0
      vertex -4.56742 19.0426 0
    endloop
  endfacet
  facet normal -0.915773 0.401696 0
    outer loop
      vertex -5.03745 18.1741 -14.2
      vertex -5.03745 18.1741 0
      vertex -4.83842 18.6278 -14.2
    endloop
  endfacet
  facet normal -0.915773 0.401696 0
    outer loop
      vertex -4.83842 18.6278 -14.2
      vertex -5.03745 18.1741 0
      vertex -4.83842 18.6278 0
    endloop
  endfacet
  facet normal -0.9694 0.245485 0
    outer loop
      vertex -5.15908 17.6938 -14.2
      vertex -5.15908 17.6938 0
      vertex -5.03745 18.1741 -14.2
    endloop
  endfacet
  facet normal -0.9694 0.245485 0
    outer loop
      vertex -5.03745 18.1741 -14.2
      vertex -5.15908 17.6938 0
      vertex -5.03745 18.1741 0
    endloop
  endfacet
  facet normal -0.996585 0.0825791 0
    outer loop
      vertex -5.2 17.2 -14.2
      vertex -5.2 17.2 0
      vertex -5.15908 17.6938 -14.2
    endloop
  endfacet
  facet normal -0.996585 0.0825791 0
    outer loop
      vertex -5.15908 17.6938 -14.2
      vertex -5.2 17.2 0
      vertex -5.15908 17.6938 0
    endloop
  endfacet
  facet normal 0.993712 -0.111965 0
    outer loop
      vertex -2.14484 15.4895 -14.2
      vertex -2.14484 15.4895 0
      vertex -2.2 15 0
    endloop
  endfacet
  facet normal 0.993712 -0.111965 0
    outer loop
      vertex -2.2 15 -14.2
      vertex -2.14484 15.4895 -14.2
      vertex -2.2 15 0
    endloop
  endfacet
  facet normal 0.993712 0.111965 0
    outer loop
      vertex -2.2 15 0
      vertex -2.14484 14.5105 0
      vertex -2.14484 14.5105 -14.2
    endloop
  endfacet
  facet normal 0.993712 0.111965 0
    outer loop
      vertex -2.2 15 -14.2
      vertex -2.2 15 0
      vertex -2.14484 14.5105 -14.2
    endloop
  endfacet
  facet normal 0.943884 -0.330278 0
    outer loop
      vertex -1.98213 15.9545 -14.2
      vertex -1.98213 15.9545 0
      vertex -2.14484 15.4895 0
    endloop
  endfacet
  facet normal 0.943884 -0.330278 0
    outer loop
      vertex -2.14484 15.4895 -14.2
      vertex -1.98213 15.9545 -14.2
      vertex -2.14484 15.4895 0
    endloop
  endfacet
  facet normal 0.846724 -0.532033 0
    outer loop
      vertex -1.72003 16.3717 -14.2
      vertex -1.72003 16.3717 0
      vertex -1.98213 15.9545 0
    endloop
  endfacet
  facet normal 0.846724 -0.532033 0
    outer loop
      vertex -1.98213 15.9545 -14.2
      vertex -1.72003 16.3717 -14.2
      vertex -1.98213 15.9545 0
    endloop
  endfacet
  facet normal 0.707107 -0.707107 0
    outer loop
      vertex -1.37168 16.72 -14.2
      vertex -1.37168 16.72 0
      vertex -1.72003 16.3717 0
    endloop
  endfacet
  facet normal 0.707107 -0.707107 0
    outer loop
      vertex -1.72003 16.3717 -14.2
      vertex -1.37168 16.72 -14.2
      vertex -1.72003 16.3717 0
    endloop
  endfacet
  facet normal 0.532033 -0.846724 0
    outer loop
      vertex -0.954544 16.9821 -14.2
      vertex -0.954544 16.9821 0
      vertex -1.37168 16.72 0
    endloop
  endfacet
  facet normal 0.532033 -0.846724 0
    outer loop
      vertex -1.37168 16.72 -14.2
      vertex -0.954544 16.9821 -14.2
      vertex -1.37168 16.72 0
    endloop
  endfacet
  facet normal 0.330278 -0.943884 0
    outer loop
      vertex -0.489546 17.1448 -14.2
      vertex -0.489546 17.1448 0
      vertex -0.954544 16.9821 0
    endloop
  endfacet
  facet normal 0.330278 -0.943884 0
    outer loop
      vertex -0.954544 16.9821 -14.2
      vertex -0.489546 17.1448 -14.2
      vertex -0.954544 16.9821 0
    endloop
  endfacet
  facet normal 0.111965 -0.993712 0
    outer loop
      vertex 0 17.2 -14.2
      vertex 0 17.2 0
      vertex -0.489546 17.1448 0
    endloop
  endfacet
  facet normal 0.111965 -0.993712 0
    outer loop
      vertex -0.489546 17.1448 -14.2
      vertex 0 17.2 -14.2
      vertex -0.489546 17.1448 0
    endloop
  endfacet
  facet normal -0.111965 -0.993712 0
    outer loop
      vertex 0.489546 17.1448 -14.2
      vertex 0.489546 17.1448 0
      vertex 0 17.2 0
    endloop
  endfacet
  facet normal -0.111965 -0.993712 0
    outer loop
      vertex 0 17.2 -14.2
      vertex 0.489546 17.1448 -14.2
      vertex 0 17.2 0
    endloop
  endfacet
  facet normal -0.330278 -0.943884 0
    outer loop
      vertex 0.954544 16.9821 -14.2
      vertex 0.954544 16.9821 0
      vertex 0.489546 17.1448 0
    endloop
  endfacet
  facet normal -0.330278 -0.943884 0
    outer loop
      vertex 0.489546 17.1448 -14.2
      vertex 0.954544 16.9821 -14.2
      vertex 0.489546 17.1448 0
    endloop
  endfacet
  facet normal -0.532033 -0.846724 0
    outer loop
      vertex 1.37168 16.72 -14.2
      vertex 1.37168 16.72 0
      vertex 0.954544 16.9821 0
    endloop
  endfacet
  facet normal -0.532033 -0.846724 0
    outer loop
      vertex 0.954544 16.9821 -14.2
      vertex 1.37168 16.72 -14.2
      vertex 0.954544 16.9821 0
    endloop
  endfacet
  facet normal -0.707107 -0.707107 0
    outer loop
      vertex 1.72003 16.3717 -14.2
      vertex 1.72003 16.3717 0
      vertex 1.37168 16.72 0
    endloop
  endfacet
  facet normal -0.707107 -0.707107 0
    outer loop
      vertex 1.37168 16.72 -14.2
      vertex 1.72003 16.3717 -14.2
      vertex 1.37168 16.72 0
    endloop
  endfacet
  facet normal -0.846724 -0.532033 0
    outer loop
      vertex 1.98213 15.9545 0
      vertex 1.72003 16.3717 0
      vertex 1.98213 15.9545 -14.2
    endloop
  endfacet
  facet normal -0.846724 -0.532033 0
    outer loop
      vertex 1.98213 15.9545 -14.2
      vertex 1.72003 16.3717 0
      vertex 1.72003 16.3717 -14.2
    endloop
  endfacet
  facet normal -0.943884 -0.330278 0
    outer loop
      vertex 2.14484 15.4895 0
      vertex 1.98213 15.9545 0
      vertex 2.14484 15.4895 -14.2
    endloop
  endfacet
  facet normal -0.943884 -0.330278 0
    outer loop
      vertex 2.14484 15.4895 -14.2
      vertex 1.98213 15.9545 0
      vertex 1.98213 15.9545 -14.2
    endloop
  endfacet
  facet normal -0.993712 -0.111965 0
    outer loop
      vertex 2.2 15 0
      vertex 2.14484 15.4895 0
      vertex 2.2 15 -14.2
    endloop
  endfacet
  facet normal -0.993712 -0.111965 0
    outer loop
      vertex 2.2 15 -14.2
      vertex 2.14484 15.4895 0
      vertex 2.14484 15.4895 -14.2
    endloop
  endfacet
  facet normal -0.993712 0.111965 0
    outer loop
      vertex 2.2 15 0
      vertex 2.2 15 -14.2
      vertex 2.14484 14.5105 0
    endloop
  endfacet
  facet normal -0.993712 0.111965 0
    outer loop
      vertex 2.14484 14.5105 0
      vertex 2.2 15 -14.2
      vertex 2.14484 14.5105 -14.2
    endloop
  endfacet
  facet normal -0.943884 0.330278 0
    outer loop
      vertex 2.14484 14.5105 0
      vertex 2.14484 14.5105 -14.2
      vertex 1.98213 14.0455 0
    endloop
  endfacet
  facet normal -0.943884 0.330278 0
    outer loop
      vertex 1.98213 14.0455 0
      vertex 2.14484 14.5105 -14.2
      vertex 1.98213 14.0455 -14.2
    endloop
  endfacet
  facet normal -0.846724 0.532033 0
    outer loop
      vertex 1.98213 14.0455 0
      vertex 1.98213 14.0455 -14.2
      vertex 1.72003 13.6283 0
    endloop
  endfacet
  facet normal -0.846724 0.532033 0
    outer loop
      vertex 1.72003 13.6283 0
      vertex 1.98213 14.0455 -14.2
      vertex 1.72003 13.6283 -14.2
    endloop
  endfacet
  facet normal -0.707107 0.707107 0
    outer loop
      vertex 1.72003 13.6283 0
      vertex 1.72003 13.6283 -14.2
      vertex 1.37168 13.28 0
    endloop
  endfacet
  facet normal -0.707107 0.707107 0
    outer loop
      vertex 1.37168 13.28 0
      vertex 1.72003 13.6283 -14.2
      vertex 1.37168 13.28 -14.2
    endloop
  endfacet
  facet normal -0.532033 0.846724 0
    outer loop
      vertex 1.37168 13.28 0
      vertex 1.37168 13.28 -14.2
      vertex 0.954544 13.0179 0
    endloop
  endfacet
  facet normal -0.532033 0.846724 0
    outer loop
      vertex 0.954544 13.0179 0
      vertex 1.37168 13.28 -14.2
      vertex 0.954544 13.0179 -14.2
    endloop
  endfacet
  facet normal -0.330278 0.943884 0
    outer loop
      vertex 0.954544 13.0179 0
      vertex 0.954544 13.0179 -14.2
      vertex 0.489546 12.8552 0
    endloop
  endfacet
  facet normal -0.330278 0.943884 0
    outer loop
      vertex 0.489546 12.8552 0
      vertex 0.954544 13.0179 -14.2
      vertex 0.489546 12.8552 -14.2
    endloop
  endfacet
  facet normal -0.111965 0.993712 0
    outer loop
      vertex 0.489546 12.8552 0
      vertex 0.489546 12.8552 -14.2
      vertex 0 12.8 0
    endloop
  endfacet
  facet normal -0.111965 0.993712 0
    outer loop
      vertex 0 12.8 0
      vertex 0.489546 12.8552 -14.2
      vertex 0 12.8 -14.2
    endloop
  endfacet
  facet normal 0.111965 0.993712 0
    outer loop
      vertex 0 12.8 0
      vertex 0 12.8 -14.2
      vertex -0.489546 12.8552 0
    endloop
  endfacet
  facet normal 0.111965 0.993712 0
    outer loop
      vertex -0.489546 12.8552 0
      vertex 0 12.8 -14.2
      vertex -0.489546 12.8552 -14.2
    endloop
  endfacet
  facet normal 0.330278 0.943884 0
    outer loop
      vertex -0.489546 12.8552 0
      vertex -0.489546 12.8552 -14.2
      vertex -0.954544 13.0179 0
    endloop
  endfacet
  facet normal 0.330278 0.943884 0
    outer loop
      vertex -0.954544 13.0179 0
      vertex -0.489546 12.8552 -14.2
      vertex -0.954544 13.0179 -14.2
    endloop
  endfacet
  facet normal 0.532033 0.846724 0
    outer loop
      vertex -0.954544 13.0179 0
      vertex -0.954544 13.0179 -14.2
      vertex -1.37168 13.28 0
    endloop
  endfacet
  facet normal 0.532033 0.846724 0
    outer loop
      vertex -1.37168 13.28 0
      vertex -0.954544 13.0179 -14.2
      vertex -1.37168 13.28 -14.2
    endloop
  endfacet
  facet normal 0.707107 0.707107 0
    outer loop
      vertex -1.37168 13.28 0
      vertex -1.37168 13.28 -14.2
      vertex -1.72003 13.6283 0
    endloop
  endfacet
  facet normal 0.707107 0.707107 0
    outer loop
      vertex -1.72003 13.6283 0
      vertex -1.37168 13.28 -14.2
      vertex -1.72003 13.6283 -14.2
    endloop
  endfacet
  facet normal 0.846724 0.532033 0
    outer loop
      vertex -1.98213 14.0455 0
      vertex -1.72003 13.6283 0
      vertex -1.72003 13.6283 -14.2
    endloop
  endfacet
  facet normal 0.846724 0.532033 0
    outer loop
      vertex -1.98213 14.0455 -14.2
      vertex -1.98213 14.0455 0
      vertex -1.72003 13.6283 -14.2
    endloop
  endfacet
  facet normal 0.943884 0.330278 0
    outer loop
      vertex -2.14484 14.5105 0
      vertex -1.98213 14.0455 0
      vertex -1.98213 14.0455 -14.2
    endloop
  endfacet
  facet normal 0.943884 0.330278 0
    outer loop
      vertex -2.14484 14.5105 -14.2
      vertex -2.14484 14.5105 0
      vertex -1.98213 14.0455 -14.2
    endloop
  endfacet
  facet normal 0 0 1
    outer loop
      vertex -3.7 3.2 0
      vertex -5.2 0.2 0
      vertex 5.2 0.2 0
    endloop
  endfacet
  facet normal 0 0 1
    outer loop
      vertex 0.954544 16.9821 0
      vertex 1.37168 16.72 0
      vertex 5.2 17.2 0
    endloop
  endfacet
  facet normal 0 0 1
    outer loop
      vertex 5.03745 18.1741 0
      vertex -5.2 17.2 0
      vertex 5.15908 17.6938 0
    endloop
  endfacet
  facet normal 0 0 1
    outer loop
      vertex 4.83842 18.6278 0
      vertex -5.2 17.2 0
      vertex 5.03745 18.1741 0
    endloop
  endfacet
  facet normal 0 0 1
    outer loop
      vertex 4.56742 19.0426 0
      vertex -5.2 17.2 0
      vertex 4.83842 18.6278 0
    endloop
  endfacet
  facet normal 0 0 1
    outer loop
      vertex 4.23184 19.4072 0
      vertex -5.2 17.2 0
      vertex 4.56742 19.0426 0
    endloop
  endfacet
  facet normal 0 0 1
    outer loop
      vertex 3.84084 19.7115 0
      vertex -5.2 17.2 0
      vertex 4.23184 19.4072 0
    endloop
  endfacet
  facet normal 0 0 1
    outer loop
      vertex 3.40509 19.9473 0
      vertex -5.2 17.2 0
      vertex 3.84084 19.7115 0
    endloop
  endfacet
  facet normal 0 0 1
    outer loop
      vertex 2.93646 20.1082 0
      vertex -5.2 17.2 0
      vertex 3.40509 19.9473 0
    endloop
  endfacet
  facet normal 0 0 1
    outer loop
      vertex 2.44774 20.1898 0
      vertex -5.2 17.2 0
      vertex 2.93646 20.1082 0
    endloop
  endfacet
  facet normal 0 0 1
    outer loop
      vertex -2.44774 20.1898 0
      vertex -5.2 17.2 0
      vertex 2.44774 20.1898 0
    endloop
  endfacet
  facet normal 0 0 1
    outer loop
      vertex -2.93646 20.1082 0
      vertex -5.2 17.2 0
      vertex -2.44774 20.1898 0
    endloop
  endfacet
  facet normal 0 0 1
    outer loop
      vertex -3.40509 19.9473 0
      vertex -5.2 17.2 0
      vertex -2.93646 20.1082 0
    endloop
  endfacet
  facet normal 0 0 1
    outer loop
      vertex -3.84084 19.7115 0
      vertex -5.2 17.2 0
      vertex -3.40509 19.9473 0
    endloop
  endfacet
  facet normal 0 0 1
    outer loop
      vertex -4.23184 19.4072 0
      vertex -5.2 17.2 0
      vertex -3.84084 19.7115 0
    endloop
  endfacet
  facet normal 0 0 1
    outer loop
      vertex -4.56742 19.0426 0
      vertex -5.2 17.2 0
      vertex -4.23184 19.4072 0
    endloop
  endfacet
  facet normal 0 0 1
    outer loop
      vertex -4.83842 18.6278 0
      vertex -5.2 17.2 0
      vertex -4.56742 19.0426 0
    endloop
  endfacet
  facet normal 0 0 1
    outer loop
      vertex -5.03745 18.1741 0
      vertex -5.2 17.2 0
      vertex -4.83842 18.6278 0
    endloop
  endfacet
  facet normal 0 0 1
    outer loop
      vertex -5.15908 17.6938 0
      vertex -5.2 17.2 0
      vertex -5.03745 18.1741 0
    endloop
  endfacet
  facet normal 0 0 1
    outer loop
      vertex -5.2 17.2 0
      vertex -5.2 0.2 0
      vertex -3.7 3.2 0
    endloop
  endfacet
  facet normal 0 0 1
    outer loop
      vertex -3.7 6.8 0
      vertex 3.7 6.8 0
      vertex -5.2 17.2 0
    endloop
  endfacet
  facet normal 0 0 1
    outer loop
      vertex -5.2 17.2 0
      vertex -3.7 3.2 0
      vertex -3.7 6.8 0
    endloop
  endfacet
  facet normal 0 0 1
    outer loop
      vertex 5.2 17.2 0
      vertex 3.7 6.8 0
      vertex 5.2 0.2 0
    endloop
  endfacet
  facet normal 0 0 1
    outer loop
      vertex -1.72003 13.6283 0
      vertex -5.2 17.2 0
      vertex 3.7 6.8 0
    endloop
  endfacet
  facet normal 0 0 1
    outer loop
      vertex 3.7 6.8 0
      vertex 3.7 3.2 0
      vertex 5.2 0.2 0
    endloop
  endfacet
  facet normal 0 0 1
    outer loop
      vertex 0.489546 17.1448 0
      vertex 0.954544 16.9821 0
      vertex 5.2 17.2 0
    endloop
  endfacet
  facet normal 0 0 1
    outer loop
      vertex -1.72003 13.6283 0
      vertex -1.98213 14.0455 0
      vertex -5.2 17.2 0
    endloop
  endfacet
  facet normal 0 0 1
    outer loop
      vertex -2.2 15 0
      vertex -5.2 17.2 0
      vertex -2.14484 14.5105 0
    endloop
  endfacet
  facet normal 0 0 1
    outer loop
      vertex 2.2 15 0
      vertex 2.14484 14.5105 0
      vertex 3.7 6.8 0
    endloop
  endfacet
  facet normal 0 0 1
    outer loop
      vertex -2.14484 15.4895 0
      vertex -5.2 17.2 0
      vertex -2.2 15 0
    endloop
  endfacet
  facet normal 0 0 1
    outer loop
      vertex -1.98213 15.9545 0
      vertex -5.2 17.2 0
      vertex -2.14484 15.4895 0
    endloop
  endfacet
  facet normal 0 0 1
    outer loop
      vertex -1.72003 16.3717 0
      vertex -5.2 17.2 0
      vertex -1.98213 15.9545 0
    endloop
  endfacet
  facet normal 0 0 1
    outer loop
      vertex -1.37168 16.72 0
      vertex -5.2 17.2 0
      vertex -1.72003 16.3717 0
    endloop
  endfacet
  facet normal 0 0 1
    outer loop
      vertex -0.954544 16.9821 0
      vertex -5.2 17.2 0
      vertex -1.37168 16.72 0
    endloop
  endfacet
  facet normal 0 0 1
    outer loop
      vertex -0.489546 17.1448 0
      vertex -5.2 17.2 0
      vertex -0.954544 16.9821 0
    endloop
  endfacet
  facet normal 0 0 1
    outer loop
      vertex 0 17.2 0
      vertex 0.489546 17.1448 0
      vertex 5.2 17.2 0
    endloop
  endfacet
  facet normal 0 0 1
    outer loop
      vertex 5.15908 17.6938 0
      vertex 0 17.2 0
      vertex 5.2 17.2 0
    endloop
  endfacet
  facet normal 0 0 1
    outer loop
      vertex 5.15908 17.6938 0
      vertex -5.2 17.2 0
      vertex 0 17.2 0
    endloop
  endfacet
  facet normal 0 0 1
    outer loop
      vertex 1.37168 16.72 0
      vertex 1.72003 16.3717 0
      vertex 5.2 17.2 0
    endloop
  endfacet
  facet normal 0 0 1
    outer loop
      vertex 1.72003 16.3717 0
      vertex 1.98213 15.9545 0
      vertex 5.2 17.2 0
    endloop
  endfacet
  facet normal 0 0 1
    outer loop
      vertex -0.954544 13.0179 0
      vertex -1.37168 13.28 0
      vertex 3.7 6.8 0
    endloop
  endfacet
  facet normal 0 0 1
    outer loop
      vertex 5.2 17.2 0
      vertex 2.14484 15.4895 0
      vertex 3.7 6.8 0
    endloop
  endfacet
  facet normal 0 0 1
    outer loop
      vertex 5.2 17.2 0
      vertex 1.98213 15.9545 0
      vertex 2.14484 15.4895 0
    endloop
  endfacet
  facet normal 0 0 1
    outer loop
      vertex 2.14484 15.4895 0
      vertex 2.2 15 0
      vertex 3.7 6.8 0
    endloop
  endfacet
  facet normal 0 0 1
    outer loop
      vertex 2.14484 14.5105 0
      vertex 1.98213 14.0455 0
      vertex 3.7 6.8 0
    endloop
  endfacet
  facet normal 0 0 1
    outer loop
      vertex 1.98213 14.0455 0
      vertex 1.72003 13.6283 0
      vertex 3.7 6.8 0
    endloop
  endfacet
  facet normal 0 0 1
    outer loop
      vertex 1.72003 13.6283 0
      vertex 1.37168 13.28 0
      vertex 3.7 6.8 0
    endloop
  endfacet
  facet normal 0 0 1
    outer loop
      vertex 1.37168 13.28 0
      vertex 0.954544 13.0179 0
      vertex 3.7 6.8 0
    endloop
  endfacet
  facet normal 0 0 1
    outer loop
      vertex 0.954544 13.0179 0
      vertex 0.489546 12.8552 0
      vertex 3.7 6.8 0
    endloop
  endfacet
  facet normal 0 0 1
    outer loop
      vertex 0.489546 12.8552 0
      vertex 0 12.8 0
      vertex 3.7 6.8 0
    endloop
  endfacet
  facet normal 0 0 1
    outer loop
      vertex 0 12.8 0
      vertex -0.489546 12.8552 0
      vertex 3.7 6.8 0
    endloop
  endfacet
  facet normal 0 0 1
    outer loop
      vertex -0.489546 12.8552 0
      vertex -0.954544 13.0179 0
      vertex 3.7 6.8 0
    endloop
  endfacet
  facet normal 0 0 1
    outer loop
      vertex -1.37168 13.28 0
      vertex -1.72003 13.6283 0
      vertex 3.7 6.8 0
    endloop
  endfacet
  facet normal 0 0 1
    outer loop
      vertex -2.14484 14.5105 0
      vertex -5.2 17.2 0
      vertex -1.98213 14.0455 0
    endloop
  endfacet
  facet normal 0 0 1
    outer loop
      vertex -0.489546 17.1448 0
      vertex 0 17.2 0
      vertex -5.2 17.2 0
    endloop
  endfacet
  facet normal 0 0 1
    outer loop
      vertex 3.7 3.2 0
      vertex -3.7 3.2 0
      vertex 5.2 0.2 0
    endloop
  endfacet
  facet normal 0.993759 -3.72106e-16 0.111544
    outer loop
      vertex -2.145 0.2 -9.49
      vertex -2.145 3.2 -9.49
      vertex -2.2 3.2 -9
    endloop
  endfacet
  facet normal 0.993759 -3.72106e-16 0.111544
    outer loop
      vertex -2.2 0.2 -9
      vertex -2.145 0.2 -9.49
      vertex -2.2 3.2 -9
    endloop
  endfacet
  facet normal 0.993759 -4.21641e-16 -0.111544
    outer loop
      vertex -2.2 3.2 -9
      vertex -2.145 3.2 -8.51
      vertex -2.145 0.2 -8.51
    endloop
  endfacet
  facet normal 0.993759 -4.21641e-16 -0.111544
    outer loop
      vertex -2.2 0.2 -9
      vertex -2.2 3.2 -9
      vertex -2.145 0.2 -8.51
    endloop
  endfacet
  facet normal 0.9437 -3.03429e-16 0.330802
    outer loop
      vertex -1.982 0.2 -9.955
      vertex -1.982 3.2 -9.955
      vertex -2.145 3.2 -9.49
    endloop
  endfacet
  facet normal 0.9437 -3.03429e-16 0.330802
    outer loop
      vertex -2.145 0.2 -9.49
      vertex -1.982 0.2 -9.955
      vertex -2.145 3.2 -9.49
    endloop
  endfacet
  facet normal 0.846741 -2.20031e-16 0.532005
    outer loop
      vertex -1.72 0.2 -10.372
      vertex -1.72 3.2 -10.372
      vertex -1.982 3.2 -9.955
    endloop
  endfacet
  facet normal 0.846741 -2.20031e-16 0.532005
    outer loop
      vertex -1.982 0.2 -9.955
      vertex -1.72 0.2 -10.372
      vertex -1.982 3.2 -9.955
    endloop
  endfacet
  facet normal 0.707107 -1.25385e-16 0.707107
    outer loop
      vertex -1.372 0.2 -10.72
      vertex -1.372 3.2 -10.72
      vertex -1.72 3.2 -10.372
    endloop
  endfacet
  facet normal 0.707107 -1.25385e-16 0.707107
    outer loop
      vertex -1.72 0.2 -10.372
      vertex -1.372 0.2 -10.72
      vertex -1.72 3.2 -10.372
    endloop
  endfacet
  facet normal 0.532005 -2.44504e-17 0.846741
    outer loop
      vertex -0.955 0.2 -10.982
      vertex -0.955 3.2 -10.982
      vertex -1.372 3.2 -10.72
    endloop
  endfacet
  facet normal 0.532005 -2.44504e-17 0.846741
    outer loop
      vertex -1.372 0.2 -10.72
      vertex -0.955 0.2 -10.982
      vertex -1.372 3.2 -10.72
    endloop
  endfacet
  facet normal 0.330802 7.74323e-17 0.9437
    outer loop
      vertex -0.49 0.2 -11.145
      vertex -0.49 3.2 -11.145
      vertex -0.955 3.2 -10.982
    endloop
  endfacet
  facet normal 0.330802 7.74323e-17 0.9437
    outer loop
      vertex -0.955 0.2 -10.982
      vertex -0.49 0.2 -11.145
      vertex -0.955 3.2 -10.982
    endloop
  endfacet
  facet normal 0.111544 1.76112e-16 0.993759
    outer loop
      vertex -7.3549e-16 0.2 -11.2
      vertex 4.62607e-16 3.2 -11.2
      vertex -0.49 3.2 -11.145
    endloop
  endfacet
  facet normal 0.111544 1.76112e-16 0.993759
    outer loop
      vertex -0.49 0.2 -11.145
      vertex -7.3549e-16 0.2 -11.2
      vertex -0.49 3.2 -11.145
    endloop
  endfacet
  facet normal -0.111544 2.65206e-16 0.993759
    outer loop
      vertex 0.49 0.2 -11.145
      vertex 0.49 3.2 -11.145
      vertex 4.62607e-16 3.2 -11.2
    endloop
  endfacet
  facet normal -0.111544 2.65206e-16 0.993759
    outer loop
      vertex -7.3549e-16 0.2 -11.2
      vertex 0.49 0.2 -11.145
      vertex 4.62607e-16 3.2 -11.2
    endloop
  endfacet
  facet normal -0.330802 3.41655e-16 0.9437
    outer loop
      vertex 0.955 0.2 -10.982
      vertex 0.955 3.2 -10.982
      vertex 0.49 3.2 -11.145
    endloop
  endfacet
  facet normal -0.330802 3.41655e-16 0.9437
    outer loop
      vertex 0.49 0.2 -11.145
      vertex 0.955 0.2 -10.982
      vertex 0.49 3.2 -11.145
    endloop
  endfacet
  facet normal -0.532005 4.00479e-16 0.846741
    outer loop
      vertex 1.372 0.2 -10.72
      vertex 1.372 3.2 -10.72
      vertex 0.955 3.2 -10.982
    endloop
  endfacet
  facet normal -0.532005 4.00479e-16 0.846741
    outer loop
      vertex 0.955 0.2 -10.982
      vertex 1.372 0.2 -10.72
      vertex 0.955 3.2 -10.982
    endloop
  endfacet
  facet normal -0.707107 4.39404e-16 0.707107
    outer loop
      vertex 1.72 0.2 -10.372
      vertex 1.72 3.2 -10.372
      vertex 1.372 3.2 -10.72
    endloop
  endfacet
  facet normal -0.707107 4.39404e-16 0.707107
    outer loop
      vertex 1.372 0.2 -10.72
      vertex 1.72 0.2 -10.372
      vertex 1.372 3.2 -10.72
    endloop
  endfacet
  facet normal -0.846741 4.56288e-16 0.532005
    outer loop
      vertex 1.982 3.2 -9.955
      vertex 1.72 3.2 -10.372
      vertex 1.982 0.2 -9.955
    endloop
  endfacet
  facet normal -0.846741 4.56288e-16 0.532005
    outer loop
      vertex 1.982 0.2 -9.955
      vertex 1.72 3.2 -10.372
      vertex 1.72 0.2 -10.372
    endloop
  endfacet
  facet normal -0.9437 4.50334e-16 0.330802
    outer loop
      vertex 2.145 3.2 -9.49
      vertex 1.982 3.2 -9.955
      vertex 2.145 0.2 -9.49
    endloop
  endfacet
  facet normal -0.9437 4.50334e-16 0.330802
    outer loop
      vertex 2.145 0.2 -9.49
      vertex 1.982 3.2 -9.955
      vertex 1.982 0.2 -9.955
    endloop
  endfacet
  facet normal -0.993759 4.21641e-16 0.111544
    outer loop
      vertex 2.2 3.2 -9
      vertex 2.145 3.2 -9.49
      vertex 2.2 0.2 -9
    endloop
  endfacet
  facet normal -0.993759 4.21641e-16 0.111544
    outer loop
      vertex 2.2 0.2 -9
      vertex 2.145 3.2 -9.49
      vertex 2.145 0.2 -9.49
    endloop
  endfacet
  facet normal -0.993759 3.72106e-16 -0.111544
    outer loop
      vertex 2.2 3.2 -9
      vertex 2.2 0.2 -9
      vertex 2.145 3.2 -8.51
    endloop
  endfacet
  facet normal -0.993759 3.72106e-16 -0.111544
    outer loop
      vertex 2.145 3.2 -8.51
      vertex 2.2 0.2 -9
      vertex 2.145 0.2 -8.51
    endloop
  endfacet
  facet normal -0.9437 3.03429e-16 -0.330802
    outer loop
      vertex 2.145 3.2 -8.51
      vertex 2.145 0.2 -8.51
      vertex 1.982 3.2 -8.045
    endloop
  endfacet
  facet normal -0.9437 3.03429e-16 -0.330802
    outer loop
      vertex 1.982 3.2 -8.045
      vertex 2.145 0.2 -8.51
      vertex 1.982 0.2 -8.045
    endloop
  endfacet
  facet normal -0.846741 2.20031e-16 -0.532005
    outer loop
      vertex 1.982 3.2 -8.045
      vertex 1.982 0.2 -8.045
      vertex 1.72 3.2 -7.628
    endloop
  endfacet
  facet normal -0.846741 2.20031e-16 -0.532005
    outer loop
      vertex 1.72 3.2 -7.628
      vertex 1.982 0.2 -8.045
      vertex 1.72 0.2 -7.628
    endloop
  endfacet
  facet normal -0.707107 1.25385e-16 -0.707107
    outer loop
      vertex 1.72 3.2 -7.628
      vertex 1.72 0.2 -7.628
      vertex 1.546 3.2 -7.454
    endloop
  endfacet
  facet normal -0.707107 1.25385e-16 -0.707107
    outer loop
      vertex 1.546 3.2 -7.454
      vertex 1.72 0.2 -7.628
      vertex 1.546 0.2 -7.454
    endloop
  endfacet
  facet normal -0.707107 4.39404e-16 0.707107
    outer loop
      vertex 1.556 0.2 -7.444
      vertex 1.556 3.2 -7.444
      vertex 1.546 3.2 -7.454
    endloop
  endfacet
  facet normal -0.707107 4.39404e-16 0.707107
    outer loop
      vertex 1.546 0.2 -7.454
      vertex 1.556 0.2 -7.444
      vertex 1.546 3.2 -7.454
    endloop
  endfacet
  facet normal -0.706879 1.25244e-16 -0.707334
    outer loop
      vertex 1.556 3.2 -7.444
      vertex 1.556 0.2 -7.444
      vertex 0.911586 3.2 -6.8
    endloop
  endfacet
  facet normal -0.706879 1.25244e-16 -0.707334
    outer loop
      vertex 0.911586 3.2 -6.8
      vertex 1.556 0.2 -7.444
      vertex 0.911586 0.2 -6.8
    endloop
  endfacet
  facet normal -8.8677e-32 -2.22045e-16 -1
    outer loop
      vertex -0.911586 0.2 -6.8
      vertex -0.911586 3.2 -6.8
      vertex 0.911586 0.2 -6.8
    endloop
  endfacet
  facet normal -8.8677e-32 -2.22045e-16 -1
    outer loop
      vertex 0.911586 0.2 -6.8
      vertex -0.911586 3.2 -6.8
      vertex 0.911586 3.2 -6.8
    endloop
  endfacet
  facet normal 0.706879 -4.39363e-16 -0.707334
    outer loop
      vertex -0.911586 3.2 -6.8
      vertex -0.911586 0.2 -6.8
      vertex -1.556 3.2 -7.444
    endloop
  endfacet
  facet normal 0.706879 -4.39363e-16 -0.707334
    outer loop
      vertex -1.556 3.2 -7.444
      vertex -0.911586 0.2 -6.8
      vertex -1.556 0.2 -7.444
    endloop
  endfacet
  facet normal 0.707107 -1.25385e-16 0.707107
    outer loop
      vertex -1.546 0.2 -7.454
      vertex -1.546 3.2 -7.454
      vertex -1.556 3.2 -7.444
    endloop
  endfacet
  facet normal 0.707107 -1.25385e-16 0.707107
    outer loop
      vertex -1.556 0.2 -7.444
      vertex -1.546 0.2 -7.454
      vertex -1.556 3.2 -7.444
    endloop
  endfacet
  facet normal 0.707107 -4.39404e-16 -0.707107
    outer loop
      vertex -1.72 3.2 -7.628
      vertex -1.546 3.2 -7.454
      vertex -1.546 0.2 -7.454
    endloop
  endfacet
  facet normal 0.707107 -4.39404e-16 -0.707107
    outer loop
      vertex -1.72 0.2 -7.628
      vertex -1.72 3.2 -7.628
      vertex -1.546 0.2 -7.454
    endloop
  endfacet
  facet normal 0.846741 -4.56288e-16 -0.532005
    outer loop
      vertex -1.982 3.2 -8.045
      vertex -1.72 3.2 -7.628
      vertex -1.72 0.2 -7.628
    endloop
  endfacet
  facet normal 0.846741 -4.56288e-16 -0.532005
    outer loop
      vertex -1.982 0.2 -8.045
      vertex -1.982 3.2 -8.045
      vertex -1.72 0.2 -7.628
    endloop
  endfacet
  facet normal 0.9437 -4.50334e-16 -0.330802
    outer loop
      vertex -2.145 3.2 -8.51
      vertex -1.982 3.2 -8.045
      vertex -1.982 0.2 -8.045
    endloop
  endfacet
  facet normal 0.9437 -4.50334e-16 -0.330802
    outer loop
      vertex -2.145 0.2 -8.51
      vertex -2.145 3.2 -8.51
      vertex -1.982 0.2 -8.045
    endloop
  endfacet
  facet normal 1 -1.77321e-16 0
    outer loop
      vertex -3.7 6.8 0
      vertex -3.7 6.8 -5.3
      vertex -3.7 6.8 -9
    endloop
  endfacet
  facet normal 1 -1.77321e-16 0
    outer loop
      vertex -3.7 3.2 -5.3
      vertex -3.7 6.8 -5.3
      vertex -3.7 6.8 0
    endloop
  endfacet
  facet normal 1 -1.77321e-16 0
    outer loop
      vertex -3.7 3.2 0
      vertex -3.7 3.2 -5.3
      vertex -3.7 6.8 0
    endloop
  endfacet
  facet normal 1.77321e-16 1 1.36718e-16
    outer loop
      vertex 3.7 3.2 0
      vertex 3.7 3.2 -9
      vertex 3.7 3.2 -5.3
    endloop
  endfacet
  facet normal 1.77321e-16 1 1.36718e-16
    outer loop
      vertex 3.7 3.2 0
      vertex 3.7 3.2 -5.3
      vertex -3.7 3.2 -5.3
    endloop
  endfacet
  facet normal 1.77321e-16 1 1.36718e-16
    outer loop
      vertex 3.7 3.2 0
      vertex -3.7 3.2 -5.3
      vertex -3.7 3.2 0
    endloop
  endfacet
  facet normal -1 1.77321e-16 0
    outer loop
      vertex 3.7 6.8 -9
      vertex 3.7 3.2 -9
      vertex 3.7 6.8 0
    endloop
  endfacet
  facet normal -1 1.77321e-16 0
    outer loop
      vertex 3.7 6.8 0
      vertex 3.7 3.2 -9
      vertex 3.7 3.2 0
    endloop
  endfacet
  facet normal -1.77321e-16 -1 -1.36718e-16
    outer loop
      vertex -1.72 6.8 -7.628
      vertex -1.546 6.8 -7.454
      vertex -3.7 6.8 -9
    endloop
  endfacet
  facet normal -1.77321e-16 -1 -1.36718e-16
    outer loop
      vertex -3.7 6.8 -9
      vertex -2.2 6.8 -9
      vertex -2.145 6.8 -8.51
    endloop
  endfacet
  facet normal -1.77321e-16 -1 -1.36718e-16
    outer loop
      vertex -1.556 6.8 -7.444
      vertex -0.911586 6.8 -6.8
      vertex -3.7 6.8 -9
    endloop
  endfacet
  facet normal -1.77321e-16 -1 -1.36718e-16
    outer loop
      vertex -1.982 6.8 -8.045
      vertex -3.7 6.8 -9
      vertex -2.145 6.8 -8.51
    endloop
  endfacet
  facet normal -1.77321e-16 -1 -1.36718e-16
    outer loop
      vertex -1.982 6.8 -8.045
      vertex -1.72 6.8 -7.628
      vertex -3.7 6.8 -9
    endloop
  endfacet
  facet normal -1.77321e-16 -1 -1.36718e-16
    outer loop
      vertex 0.911586 6.8 -6.8
      vertex 3.7 6.8 0
      vertex -0.911586 6.8 -6.8
    endloop
  endfacet
  facet normal -1.77321e-16 -1 -1.36718e-16
    outer loop
      vertex -1.546 6.8 -7.454
      vertex -1.556 6.8 -7.444
      vertex -3.7 6.8 -9
    endloop
  endfacet
  facet normal -1.77321e-16 -1 -1.36718e-16
    outer loop
      vertex -0.911586 6.8 -6.8
      vertex 3.7 6.8 0
      vertex -3.7 6.8 -9
    endloop
  endfacet
  facet normal -1.77321e-16 -1 -1.36718e-16
    outer loop
      vertex 1.556 6.8 -7.444
      vertex 3.7 6.8 -9
      vertex 0.911586 6.8 -6.8
    endloop
  endfacet
  facet normal -1.77321e-16 -1 -1.36718e-16
    outer loop
      vertex 1.546 6.8 -7.454
      vertex 1.72 6.8 -7.628
      vertex 1.556 6.8 -7.444
    endloop
  endfacet
  facet normal -1.77321e-16 -1 -1.36718e-16
    outer loop
      vertex 1.72 6.8 -7.628
      vertex 3.7 6.8 -9
      vertex 1.556 6.8 -7.444
    endloop
  endfacet
  facet normal -1.77321e-16 -1 -1.36718e-16
    outer loop
      vertex 1.982 6.8 -8.045
      vertex 3.7 6.8 -9
      vertex 1.72 6.8 -7.628
    endloop
  endfacet
  facet normal -1.77321e-16 -1 -1.36718e-16
    outer loop
      vertex 2.145 6.8 -8.51
      vertex 3.7 6.8 -9
      vertex 1.982 6.8 -8.045
    endloop
  endfacet
  facet normal -1.77321e-16 -1 -1.36718e-16
    outer loop
      vertex 2.2 6.8 -9
      vertex 3.7 6.8 -9
      vertex 2.145 6.8 -8.51
    endloop
  endfacet
  facet normal -1.77321e-16 -1 -1.36718e-16
    outer loop
      vertex 3.7 6.8 -9
      vertex 3.7 6.8 0
      vertex 0.911586 6.8 -6.8
    endloop
  endfacet
  facet normal -1.77321e-16 -1 -1.36718e-16
    outer loop
      vertex 3.7 6.8 0
      vertex -3.7 6.8 0
      vertex -3.7 6.8 -9
    endloop
  endfacet
  facet normal 1.77321e-16 1 1.36718e-16
    outer loop
      vertex -2.2 3.2 -9
      vertex -3.7 3.2 -12.7
      vertex -3.7 3.2 -5.3
    endloop
  endfacet
  facet normal 1.77321e-16 1 1.36718e-16
    outer loop
      vertex -2.145 3.2 -9.49
      vertex -3.7 3.2 -12.7
      vertex -2.2 3.2 -9
    endloop
  endfacet
  facet normal 1.77321e-16 1 1.36718e-16
    outer loop
      vertex -2.145 3.2 -8.51
      vertex -2.2 3.2 -9
      vertex -3.7 3.2 -5.3
    endloop
  endfacet
  facet normal 1.77321e-16 1 1.36718e-16
    outer loop
      vertex -1.982 3.2 -9.955
      vertex -3.7 3.2 -12.7
      vertex -2.145 3.2 -9.49
    endloop
  endfacet
  facet normal 1.77321e-16 1 1.36718e-16
    outer loop
      vertex -1.72 3.2 -10.372
      vertex -3.7 3.2 -12.7
      vertex -1.982 3.2 -9.955
    endloop
  endfacet
  facet normal 1.77321e-16 1 1.36718e-16
    outer loop
      vertex -0.955 3.2 -10.982
      vertex -3.7 3.2 -12.7
      vertex -1.372 3.2 -10.72
    endloop
  endfacet
  facet normal 1.77321e-16 1 1.36718e-16
    outer loop
      vertex 3.7 3.2 -12.7
      vertex -3.7 3.2 -12.7
      vertex -0.955 3.2 -10.982
    endloop
  endfacet
  facet normal 1.77321e-16 1 1.36718e-16
    outer loop
      vertex 3.7 3.2 -12.7
      vertex -0.955 3.2 -10.982
      vertex -0.49 3.2 -11.145
    endloop
  endfacet
  facet normal 1.77321e-16 1 1.36718e-16
    outer loop
      vertex 2.2 3.2 -9
      vertex 3.7 3.2 -5.3
      vertex 2.145 3.2 -9.49
    endloop
  endfacet
  facet normal 1.77321e-16 1 1.36718e-16
    outer loop
      vertex 1.546 3.2 -7.454
      vertex 1.556 3.2 -7.444
      vertex 1.72 3.2 -7.628
    endloop
  endfacet
  facet normal 1.77321e-16 1 1.36718e-16
    outer loop
      vertex 3.7 3.2 -12.7
      vertex 4.62607e-16 3.2 -11.2
      vertex 0.49 3.2 -11.145
    endloop
  endfacet
  facet normal 1.77321e-16 1 1.36718e-16
    outer loop
      vertex 3.7 3.2 -12.7
      vertex 0.49 3.2 -11.145
      vertex 0.955 3.2 -10.982
    endloop
  endfacet
  facet normal 1.77321e-16 1 1.36718e-16
    outer loop
      vertex 3.7 3.2 -12.7
      vertex 0.955 3.2 -10.982
      vertex 1.372 3.2 -10.72
    endloop
  endfacet
  facet normal 1.77321e-16 1 1.36718e-16
    outer loop
      vertex 3.7 3.2 -12.7
      vertex 1.372 3.2 -10.72
      vertex 1.72 3.2 -10.372
    endloop
  endfacet
  facet normal 1.77321e-16 1 1.36718e-16
    outer loop
      vertex 3.7 3.2 -12.7
      vertex 1.72 3.2 -10.372
      vertex 1.982 3.2 -9.955
    endloop
  endfacet
  facet normal 1.77321e-16 1 1.36718e-16
    outer loop
      vertex 3.7 3.2 -12.7
      vertex 1.982 3.2 -9.955
      vertex 3.7 3.2 -5.3
    endloop
  endfacet
  facet normal 1.77321e-16 1 1.36718e-16
    outer loop
      vertex 1.982 3.2 -9.955
      vertex 2.145 3.2 -9.49
      vertex 3.7 3.2 -5.3
    endloop
  endfacet
  facet normal 1.77321e-16 1 1.36718e-16
    outer loop
      vertex 2.145 3.2 -8.51
      vertex 3.7 3.2 -5.3
      vertex 2.2 3.2 -9
    endloop
  endfacet
  facet normal 1.77321e-16 1 1.36718e-16
    outer loop
      vertex 1.982 3.2 -8.045
      vertex 3.7 3.2 -5.3
      vertex 2.145 3.2 -8.51
    endloop
  endfacet
  facet normal 1.77321e-16 1 1.36718e-16
    outer loop
      vertex 1.72 3.2 -7.628
      vertex 3.7 3.2 -5.3
      vertex 1.982 3.2 -8.045
    endloop
  endfacet
  facet normal 1.77321e-16 1 1.36718e-16
    outer loop
      vertex 1.556 3.2 -7.444
      vertex 3.7 3.2 -5.3
      vertex 1.72 3.2 -7.628
    endloop
  endfacet
  facet normal 1.77321e-16 1 1.36718e-16
    outer loop
      vertex 4.62607e-16 3.2 -11.2
      vertex 3.7 3.2 -12.7
      vertex -0.49 3.2 -11.145
    endloop
  endfacet
  facet normal 1.77321e-16 1 1.36718e-16
    outer loop
      vertex 0.911586 3.2 -6.8
      vertex 3.7 3.2 -5.3
      vertex 1.556 3.2 -7.444
    endloop
  endfacet
  facet normal 1.77321e-16 1 1.36718e-16
    outer loop
      vertex -1.72 3.2 -7.628
      vertex -1.556 3.2 -7.444
      vertex -1.546 3.2 -7.454
    endloop
  endfacet
  facet normal 1.77321e-16 1 1.36718e-16
    outer loop
      vertex 3.7 3.2 -5.3
      vertex 0.911586 3.2 -6.8
      vertex -3.7 3.2 -5.3
    endloop
  endfacet
  facet normal 1.77321e-16 1 1.36718e-16
    outer loop
      vertex 0.911586 3.2 -6.8
      vertex -0.911586 3.2 -6.8
      vertex -3.7 3.2 -5.3
    endloop
  endfacet
  facet normal 1.77321e-16 1 1.36718e-16
    outer loop
      vertex -0.911586 3.2 -6.8
      vertex -1.556 3.2 -7.444
      vertex -3.7 3.2 -5.3
    endloop
  endfacet
  facet normal 1.77321e-16 1 1.36718e-16
    outer loop
      vertex -1.556 3.2 -7.444
      vertex -1.72 3.2 -7.628
      vertex -3.7 3.2 -5.3
    endloop
  endfacet
  facet normal 1.77321e-16 1 1.36718e-16
    outer loop
      vertex -1.72 3.2 -7.628
      vertex -1.982 3.2 -8.045
      vertex -3.7 3.2 -5.3
    endloop
  endfacet
  facet normal 1.77321e-16 1 1.36718e-16
    outer loop
      vertex -1.982 3.2 -8.045
      vertex -2.145 3.2 -8.51
      vertex -3.7 3.2 -5.3
    endloop
  endfacet
  facet normal 1.77321e-16 1 1.36718e-16
    outer loop
      vertex -1.372 3.2 -10.72
      vertex -3.7 3.2 -12.7
      vertex -1.72 3.2 -10.372
    endloop
  endfacet
  facet normal -1.77321e-16 -1 -1.36718e-16
    outer loop
      vertex 1.982 6.8 -9.955
      vertex 3.7 6.8 -12.7
      vertex 3.7 6.8 -9
    endloop
  endfacet
  facet normal -1.77321e-16 -1 -1.36718e-16
    outer loop
      vertex 1.90032e-15 6.8 -11.2
      vertex -0.49 6.8 -11.145
      vertex -3.7 6.8 -12.7
    endloop
  endfacet
  facet normal -1.77321e-16 -1 -1.36718e-16
    outer loop
      vertex 2.2 6.8 -9
      vertex 2.145 6.8 -9.49
      vertex 3.7 6.8 -9
    endloop
  endfacet
  facet normal -1.77321e-16 -1 -1.36718e-16
    outer loop
      vertex 1.72 6.8 -10.372
      vertex 3.7 6.8 -12.7
      vertex 1.982 6.8 -9.955
    endloop
  endfacet
  facet normal -1.77321e-16 -1 -1.36718e-16
    outer loop
      vertex -0.49 6.8 -11.145
      vertex -0.955 6.8 -10.982
      vertex -3.7 6.8 -12.7
    endloop
  endfacet
  facet normal -1.77321e-16 -1 -1.36718e-16
    outer loop
      vertex 1.372 6.8 -10.72
      vertex 3.7 6.8 -12.7
      vertex 1.72 6.8 -10.372
    endloop
  endfacet
  facet normal -1.77321e-16 -1 -1.36718e-16
    outer loop
      vertex 0.955 6.8 -10.982
      vertex 3.7 6.8 -12.7
      vertex 1.372 6.8 -10.72
    endloop
  endfacet
  facet normal -1.77321e-16 -1 -1.36718e-16
    outer loop
      vertex -3.7 6.8 -12.7
      vertex 3.7 6.8 -12.7
      vertex 0.955 6.8 -10.982
    endloop
  endfacet
  facet normal -1.77321e-16 -1 -1.36718e-16
    outer loop
      vertex -3.7 6.8 -12.7
      vertex 0.955 6.8 -10.982
      vertex 0.49 6.8 -11.145
    endloop
  endfacet
  facet normal -1.77321e-16 -1 -1.36718e-16
    outer loop
      vertex -0.955 6.8 -10.982
      vertex -1.372 6.8 -10.72
      vertex -3.7 6.8 -12.7
    endloop
  endfacet
  facet normal -1.77321e-16 -1 -1.36718e-16
    outer loop
      vertex 0.49 6.8 -11.145
      vertex 1.90032e-15 6.8 -11.2
      vertex -3.7 6.8 -12.7
    endloop
  endfacet
  facet normal -1.77321e-16 -1 -1.36718e-16
    outer loop
      vertex -1.72 6.8 -10.372
      vertex -3.7 6.8 -12.7
      vertex -1.372 6.8 -10.72
    endloop
  endfacet
  facet normal -1.77321e-16 -1 -1.36718e-16
    outer loop
      vertex -1.982 6.8 -9.955
      vertex -3.7 6.8 -12.7
      vertex -1.72 6.8 -10.372
    endloop
  endfacet
  facet normal -1.77321e-16 -1 -1.36718e-16
    outer loop
      vertex -2.145 6.8 -9.49
      vertex -3.7 6.8 -12.7
      vertex -1.982 6.8 -9.955
    endloop
  endfacet
  facet normal -1.77321e-16 -1 -1.36718e-16
    outer loop
      vertex -2.2 6.8 -9
      vertex -3.7 6.8 -12.7
      vertex -2.145 6.8 -9.49
    endloop
  endfacet
  facet normal -1.77321e-16 -1 -1.36718e-16
    outer loop
      vertex -3.7 6.8 -9
      vertex -3.7 6.8 -12.7
      vertex -2.2 6.8 -9
    endloop
  endfacet
  facet normal -1.77321e-16 -1 -1.36718e-16
    outer loop
      vertex -3.7 6.8 -5.3
      vertex -3.7 6.8 -12.7
      vertex -3.7 6.8 -9
    endloop
  endfacet
  facet normal -1.77321e-16 -1 -1.36718e-16
    outer loop
      vertex 2.145 6.8 -9.49
      vertex 1.982 6.8 -9.955
      vertex 3.7 6.8 -9
    endloop
  endfacet
  facet normal -1 1.77321e-16 0
    outer loop
      vertex 3.7 3.2 -9
      vertex 3.7 6.8 -9
      vertex 3.7 6.8 -12.7
    endloop
  endfacet
  facet normal -1 1.77321e-16 0
    outer loop
      vertex 3.7 3.2 -9
      vertex 3.7 6.8 -12.7
      vertex 3.7 3.2 -12.7
    endloop
  endfacet
  facet normal -1 1.77321e-16 0
    outer loop
      vertex 3.7 3.2 -9
      vertex 3.7 3.2 -12.7
      vertex 3.7 3.2 -5.3
    endloop
  endfacet
  facet normal -0.993759 3.72106e-16 -0.111544
    outer loop
      vertex 2.2 12 -9
      vertex 2.2 6.8 -9
      vertex 2.145 12 -8.51
    endloop
  endfacet
  facet normal -0.993759 3.72106e-16 -0.111544
    outer loop
      vertex 2.145 6.8 -8.51
      vertex 2.145 12 -8.51
      vertex 2.2 6.8 -9
    endloop
  endfacet
  facet normal -0.9437 3.03429e-16 -0.330802
    outer loop
      vertex 2.145 12 -8.51
      vertex 2.145 6.8 -8.51
      vertex 1.982 12 -8.045
    endloop
  endfacet
  facet normal -0.9437 3.03429e-16 -0.330802
    outer loop
      vertex 1.982 12 -8.045
      vertex 2.145 6.8 -8.51
      vertex 1.982 6.8 -8.045
    endloop
  endfacet
  facet normal -0.846741 2.20031e-16 -0.532005
    outer loop
      vertex 1.982 12 -8.045
      vertex 1.982 6.8 -8.045
      vertex 1.72 12 -7.628
    endloop
  endfacet
  facet normal -0.846741 2.20031e-16 -0.532005
    outer loop
      vertex 1.72 12 -7.628
      vertex 1.982 6.8 -8.045
      vertex 1.72 6.8 -7.628
    endloop
  endfacet
  facet normal -0.707107 1.25385e-16 -0.707107
    outer loop
      vertex 1.72 12 -7.628
      vertex 1.72 6.8 -7.628
      vertex 1.546 12 -7.454
    endloop
  endfacet
  facet normal -0.707107 1.25385e-16 -0.707107
    outer loop
      vertex 1.546 12 -7.454
      vertex 1.72 6.8 -7.628
      vertex 1.546 6.8 -7.454
    endloop
  endfacet
  facet normal -0.707107 4.39404e-16 0.707107
    outer loop
      vertex 1.556 6.8 -7.444
      vertex 1.556 12 -7.444
      vertex 1.546 12 -7.454
    endloop
  endfacet
  facet normal -0.707107 4.39404e-16 0.707107
    outer loop
      vertex 1.546 6.8 -7.454
      vertex 1.556 6.8 -7.444
      vertex 1.546 12 -7.454
    endloop
  endfacet
  facet normal -0.706879 1.25244e-16 -0.707334
    outer loop
      vertex 1.556 12 -7.444
      vertex 1.556 6.8 -7.444
      vertex 0.911586 12 -6.8
    endloop
  endfacet
  facet normal -0.706879 1.25244e-16 -0.707334
    outer loop
      vertex 0.911586 12 -6.8
      vertex 1.556 6.8 -7.444
      vertex 0.911586 6.8 -6.8
    endloop
  endfacet
  facet normal -8.8677e-32 -2.22045e-16 -1
    outer loop
      vertex -0.911586 6.8 -6.8
      vertex -0.911586 12 -6.8
      vertex 0.911586 6.8 -6.8
    endloop
  endfacet
  facet normal -8.8677e-32 -2.22045e-16 -1
    outer loop
      vertex 0.911586 6.8 -6.8
      vertex -0.911586 12 -6.8
      vertex 0.911586 12 -6.8
    endloop
  endfacet
  facet normal 0.706879 -4.39363e-16 -0.707334
    outer loop
      vertex -0.911586 12 -6.8
      vertex -0.911586 6.8 -6.8
      vertex -1.556 12 -7.444
    endloop
  endfacet
  facet normal 0.706879 -4.39363e-16 -0.707334
    outer loop
      vertex -1.556 12 -7.444
      vertex -0.911586 6.8 -6.8
      vertex -1.556 6.8 -7.444
    endloop
  endfacet
  facet normal 0.707107 -1.25385e-16 0.707107
    outer loop
      vertex -1.546 6.8 -7.454
      vertex -1.546 12 -7.454
      vertex -1.556 12 -7.444
    endloop
  endfacet
  facet normal 0.707107 -1.25385e-16 0.707107
    outer loop
      vertex -1.556 6.8 -7.444
      vertex -1.546 6.8 -7.454
      vertex -1.556 12 -7.444
    endloop
  endfacet
  facet normal 0.707107 -4.39404e-16 -0.707107
    outer loop
      vertex -1.72 12 -7.628
      vertex -1.546 12 -7.454
      vertex -1.546 6.8 -7.454
    endloop
  endfacet
  facet normal 0.707107 -4.39404e-16 -0.707107
    outer loop
      vertex -1.72 6.8 -7.628
      vertex -1.72 12 -7.628
      vertex -1.546 6.8 -7.454
    endloop
  endfacet
  facet normal 0.846741 -4.56288e-16 -0.532005
    outer loop
      vertex -1.982 12 -8.045
      vertex -1.72 12 -7.628
      vertex -1.72 6.8 -7.628
    endloop
  endfacet
  facet normal 0.846741 -4.56288e-16 -0.532005
    outer loop
      vertex -1.982 6.8 -8.045
      vertex -1.982 12 -8.045
      vertex -1.72 6.8 -7.628
    endloop
  endfacet
  facet normal 0.9437 -4.50334e-16 -0.330802
    outer loop
      vertex -2.145 12 -8.51
      vertex -1.982 12 -8.045
      vertex -1.982 6.8 -8.045
    endloop
  endfacet
  facet normal 0.9437 -4.50334e-16 -0.330802
    outer loop
      vertex -2.145 6.8 -8.51
      vertex -2.145 12 -8.51
      vertex -1.982 6.8 -8.045
    endloop
  endfacet
  facet normal 0.993759 -4.21641e-16 -0.111544
    outer loop
      vertex -2.2 12 -9
      vertex -2.145 12 -8.51
      vertex -2.145 6.8 -8.51
    endloop
  endfacet
  facet normal 0.993759 -4.21641e-16 -0.111544
    outer loop
      vertex -2.2 6.8 -9
      vertex -2.2 12 -9
      vertex -2.145 6.8 -8.51
    endloop
  endfacet
  facet normal 1 -1.77321e-16 0
    outer loop
      vertex -3.7 3.2 -12.7
      vertex -3.7 6.8 -12.7
      vertex -3.7 6.8 -5.3
    endloop
  endfacet
  facet normal 1 -1.77321e-16 0
    outer loop
      vertex -3.7 3.2 -5.3
      vertex -3.7 3.2 -12.7
      vertex -3.7 6.8 -5.3
    endloop
  endfacet
  facet normal -3.93732e-32 -2.22045e-16 1
    outer loop
      vertex 3.7 3.2 -12.7
      vertex 3.7 6.8 -12.7
      vertex -3.7 6.8 -12.7
    endloop
  endfacet
  facet normal -3.93732e-32 -2.22045e-16 1
    outer loop
      vertex -3.7 3.2 -12.7
      vertex 3.7 3.2 -12.7
      vertex -3.7 6.8 -12.7
    endloop
  endfacet
  facet normal 0.993759 -3.72106e-16 0.111544
    outer loop
      vertex -2.145 6.8 -9.49
      vertex -2.145 12 -9.49
      vertex -2.2 12 -9
    endloop
  endfacet
  facet normal 0.993759 -3.72106e-16 0.111544
    outer loop
      vertex -2.2 6.8 -9
      vertex -2.145 6.8 -9.49
      vertex -2.2 12 -9
    endloop
  endfacet
  facet normal 0.9437 -3.03429e-16 0.330802
    outer loop
      vertex -1.982 6.8 -9.955
      vertex -1.982 12 -9.955
      vertex -2.145 12 -9.49
    endloop
  endfacet
  facet normal 0.9437 -3.03429e-16 0.330802
    outer loop
      vertex -2.145 6.8 -9.49
      vertex -1.982 6.8 -9.955
      vertex -2.145 12 -9.49
    endloop
  endfacet
  facet normal 0.846741 -2.20031e-16 0.532005
    outer loop
      vertex -1.72 6.8 -10.372
      vertex -1.72 12 -10.372
      vertex -1.982 12 -9.955
    endloop
  endfacet
  facet normal 0.846741 -2.20031e-16 0.532005
    outer loop
      vertex -1.982 6.8 -9.955
      vertex -1.72 6.8 -10.372
      vertex -1.982 12 -9.955
    endloop
  endfacet
  facet normal 0.707107 -1.25385e-16 0.707107
    outer loop
      vertex -1.372 6.8 -10.72
      vertex -1.372 12 -10.72
      vertex -1.72 12 -10.372
    endloop
  endfacet
  facet normal 0.707107 -1.25385e-16 0.707107
    outer loop
      vertex -1.72 6.8 -10.372
      vertex -1.372 6.8 -10.72
      vertex -1.72 12 -10.372
    endloop
  endfacet
  facet normal 0.532005 -2.44504e-17 0.846741
    outer loop
      vertex -0.955 6.8 -10.982
      vertex -0.955 12 -10.982
      vertex -1.372 12 -10.72
    endloop
  endfacet
  facet normal 0.532005 -2.44504e-17 0.846741
    outer loop
      vertex -1.372 6.8 -10.72
      vertex -0.955 6.8 -10.982
      vertex -1.372 12 -10.72
    endloop
  endfacet
  facet normal 0.330802 7.74323e-17 0.9437
    outer loop
      vertex -0.49 6.8 -11.145
      vertex -0.49 12 -11.145
      vertex -0.955 12 -10.982
    endloop
  endfacet
  facet normal 0.330802 7.74323e-17 0.9437
    outer loop
      vertex -0.955 6.8 -10.982
      vertex -0.49 6.8 -11.145
      vertex -0.955 12 -10.982
    endloop
  endfacet
  facet normal 0.111544 1.76112e-16 0.993759
    outer loop
      vertex 1.90032e-15 6.8 -11.2
      vertex 3.97703e-15 12 -11.2
      vertex -0.49 12 -11.145
    endloop
  endfacet
  facet normal 0.111544 1.76112e-16 0.993759
    outer loop
      vertex -0.49 6.8 -11.145
      vertex 1.90032e-15 6.8 -11.2
      vertex -0.49 12 -11.145
    endloop
  endfacet
  facet normal -0.111544 2.65206e-16 0.993759
    outer loop
      vertex 0.49 6.8 -11.145
      vertex 0.49 12 -11.145
      vertex 3.97703e-15 12 -11.2
    endloop
  endfacet
  facet normal -0.111544 2.65206e-16 0.993759
    outer loop
      vertex 1.90032e-15 6.8 -11.2
      vertex 0.49 6.8 -11.145
      vertex 3.97703e-15 12 -11.2
    endloop
  endfacet
  facet normal -0.330802 3.41655e-16 0.9437
    outer loop
      vertex 0.955 6.8 -10.982
      vertex 0.955 12 -10.982
      vertex 0.49 12 -11.145
    endloop
  endfacet
  facet normal -0.330802 3.41655e-16 0.9437
    outer loop
      vertex 0.49 6.8 -11.145
      vertex 0.955 6.8 -10.982
      vertex 0.49 12 -11.145
    endloop
  endfacet
  facet normal -0.532005 4.00479e-16 0.846741
    outer loop
      vertex 1.372 6.8 -10.72
      vertex 1.372 12 -10.72
      vertex 0.955 12 -10.982
    endloop
  endfacet
  facet normal -0.532005 4.00479e-16 0.846741
    outer loop
      vertex 0.955 6.8 -10.982
      vertex 1.372 6.8 -10.72
      vertex 0.955 12 -10.982
    endloop
  endfacet
  facet normal -0.707107 4.39404e-16 0.707107
    outer loop
      vertex 1.72 6.8 -10.372
      vertex 1.72 12 -10.372
      vertex 1.372 12 -10.72
    endloop
  endfacet
  facet normal -0.707107 4.39404e-16 0.707107
    outer loop
      vertex 1.372 6.8 -10.72
      vertex 1.72 6.8 -10.372
      vertex 1.372 12 -10.72
    endloop
  endfacet
  facet normal -0.846741 4.56288e-16 0.532005
    outer loop
      vertex 1.982 12 -9.955
      vertex 1.72 12 -10.372
      vertex 1.982 6.8 -9.955
    endloop
  endfacet
  facet normal -0.846741 4.56288e-16 0.532005
    outer loop
      vertex 1.982 6.8 -9.955
      vertex 1.72 12 -10.372
      vertex 1.72 6.8 -10.372
    endloop
  endfacet
  facet normal -0.9437 4.50334e-16 0.330802
    outer loop
      vertex 2.145 12 -9.49
      vertex 1.982 12 -9.955
      vertex 2.145 6.8 -9.49
    endloop
  endfacet
  facet normal -0.9437 4.50334e-16 0.330802
    outer loop
      vertex 2.145 6.8 -9.49
      vertex 1.982 12 -9.955
      vertex 1.982 6.8 -9.955
    endloop
  endfacet
  facet normal -0.993759 4.21641e-16 0.111544
    outer loop
      vertex 2.2 12 -9
      vertex 2.145 12 -9.49
      vertex 2.2 6.8 -9
    endloop
  endfacet
  facet normal -0.993759 4.21641e-16 0.111544
    outer loop
      vertex 2.2 6.8 -9
      vertex 2.145 12 -9.49
      vertex 2.145 6.8 -9.49
    endloop
  endfacet
  facet normal -3.99366e-16 -1 2.22045e-16
    outer loop
      vertex -2.145 12 -9.49
      vertex -1.982 12 -9.955
      vertex -1.72 12 -10.372
    endloop
  endfacet
  facet normal -3.99366e-16 -1 2.22045e-16
    outer loop
      vertex -0.955 12 -10.982
      vertex -2.145 12 -9.49
      vertex -1.372 12 -10.72
    endloop
  endfacet
  facet normal -3.99366e-16 -1 2.22045e-16
    outer loop
      vertex -1.372 12 -10.72
      vertex -2.145 12 -9.49
      vertex -1.72 12 -10.372
    endloop
  endfacet
  facet normal -3.99366e-16 -1 2.22045e-16
    outer loop
      vertex -0.49 12 -11.145
      vertex -2.145 12 -9.49
      vertex -0.955 12 -10.982
    endloop
  endfacet
  facet normal -3.99366e-16 -1 2.22045e-16
    outer loop
      vertex 3.97703e-15 12 -11.2
      vertex -2.145 12 -9.49
      vertex -0.49 12 -11.145
    endloop
  endfacet
  facet normal -3.99366e-16 -1 2.22045e-16
    outer loop
      vertex 0.49 12 -11.145
      vertex -2.145 12 -9.49
      vertex 3.97703e-15 12 -11.2
    endloop
  endfacet
  facet normal -3.99366e-16 -1 2.22045e-16
    outer loop
      vertex 0.955 12 -10.982
      vertex -2.145 12 -9.49
      vertex 0.49 12 -11.145
    endloop
  endfacet
  facet normal -3.99366e-16 -1 2.22045e-16
    outer loop
      vertex 1.372 12 -10.72
      vertex -2.145 12 -9.49
      vertex 0.955 12 -10.982
    endloop
  endfacet
  facet normal -3.99366e-16 -1 2.22045e-16
    outer loop
      vertex 1.72 12 -10.372
      vertex -2.145 12 -9.49
      vertex 1.372 12 -10.72
    endloop
  endfacet
  facet normal -3.99366e-16 -1 2.22045e-16
    outer loop
      vertex 1.982 12 -9.955
      vertex -2.145 12 -9.49
      vertex 1.72 12 -10.372
    endloop
  endfacet
  facet normal -3.99366e-16 -1 2.22045e-16
    outer loop
      vertex 2.145 12 -9.49
      vertex -2.145 12 -9.49
      vertex 1.982 12 -9.955
    endloop
  endfacet
  facet normal -3.99366e-16 -1 2.22045e-16
    outer loop
      vertex 2.2 12 -9
      vertex -2.145 12 -9.49
      vertex 2.145 12 -9.49
    endloop
  endfacet
  facet normal -3.99366e-16 -1 2.22045e-16
    outer loop
      vertex 2.145 12 -8.51
      vertex -2.145 12 -9.49
      vertex 2.2 12 -9
    endloop
  endfacet
  facet normal -3.99366e-16 -1 2.22045e-16
    outer loop
      vertex 1.982 12 -8.045
      vertex -2.145 12 -9.49
      vertex 2.145 12 -8.51
    endloop
  endfacet
  facet normal -3.99366e-16 -1 2.22045e-16
    outer loop
      vertex 1.72 12 -7.628
      vertex -2.145 12 -9.49
      vertex 1.982 12 -8.045
    endloop
  endfacet
  facet normal -3.99366e-16 -1 2.22045e-16
    outer loop
      vertex 1.546 12 -7.454
      vertex -2.145 12 -9.49
      vertex 1.72 12 -7.628
    endloop
  endfacet
  facet normal -3.99366e-16 -1 2.22045e-16
    outer loop
      vertex 1.556 12 -7.444
      vertex -2.145 12 -9.49
      vertex 1.546 12 -7.454
    endloop
  endfacet
  facet normal -3.99366e-16 -1 2.22045e-16
    outer loop
      vertex 0.911586 12 -6.8
      vertex -2.145 12 -9.49
      vertex 1.556 12 -7.444
    endloop
  endfacet
  facet normal -3.99366e-16 -1 2.22045e-16
    outer loop
      vertex -0.911586 12 -6.8
      vertex -2.145 12 -9.49
      vertex 0.911586 12 -6.8
    endloop
  endfacet
  facet normal -3.99366e-16 -1 2.22045e-16
    outer loop
      vertex -1.546 12 -7.454
      vertex -2.145 12 -9.49
      vertex -0.911586 12 -6.8
    endloop
  endfacet
  facet normal -3.99366e-16 -1 2.22045e-16
    outer loop
      vertex -1.556 12 -7.444
      vertex -1.546 12 -7.454
      vertex -0.911586 12 -6.8
    endloop
  endfacet
  facet normal -3.99366e-16 -1 2.22045e-16
    outer loop
      vertex -1.982 12 -8.045
      vertex -2.145 12 -9.49
      vertex -1.72 12 -7.628
    endloop
  endfacet
  facet normal -3.99366e-16 -1 2.22045e-16
    outer loop
      vertex -2.145 12 -8.51
      vertex -2.145 12 -9.49
      vertex -1.982 12 -8.045
    endloop
  endfacet
  facet normal -3.99366e-16 -1 2.22045e-16
    outer loop
      vertex -2.2 12 -9
      vertex -2.145 12 -9.49
      vertex -2.145 12 -8.51
    endloop
  endfacet
  facet normal -3.99366e-16 -1 2.22045e-16
    outer loop
      vertex -1.546 12 -7.454
      vertex -1.72 12 -7.628
      vertex -2.145 12 -9.49
    endloop
  endfacet
endsolid OpenSCAD_Model
