solid OpenSCAD_Model
  facet normal 0.996585 0.0825791 -1.0113e-17
    outer loop
      vertex 9.15908 6.69378 30
      vertex 9.2 6.2 30
      vertex 9.2 6.2 -4.8
    endloop
  endfacet
  facet normal 0.996585 0.0825791 -1.0113e-17
    outer loop
      vertex 9.15908 6.69378 -4.8
      vertex 9.15908 6.69378 30
      vertex 9.2 6.2 -4.8
    endloop
  endfacet
  facet normal 1 0 0
    outer loop
      vertex 9.2 6.2 30
      vertex 9.2 0.2 30
      vertex 9.2 0.2 -4.8
    endloop
  endfacet
  facet normal 1 0 0
    outer loop
      vertex 9.2 6.2 -4.8
      vertex 9.2 6.2 30
      vertex 9.2 0.2 -4.8
    endloop
  endfacet
  facet normal 0 1.22465e-16 1
    outer loop
      vertex 9.2 0.2 30
      vertex 0.2 6.2 30
      vertex 0.2 0.2 30
    endloop
  endfacet
  facet normal 0 1.22465e-16 1
    outer loop
      vertex 9.2 6.2 30
      vertex 0.2 6.2 30
      vertex 9.2 0.2 30
    endloop
  endfacet
  facet normal 0 1.22465e-16 1
    outer loop
      vertex -60 6.2 30
      vertex 0.2 6.2 30
      vertex 9.15908 6.69378 30
    endloop
  endfacet
  facet normal 0 1.22465e-16 1
    outer loop
      vertex 9.15908 6.69378 30
      vertex 0.2 6.2 30
      vertex 9.2 6.2 30
    endloop
  endfacet
  facet normal 0 1.22465e-16 1
    outer loop
      vertex 9.03745 7.1741 30
      vertex -60 6.2 30
      vertex 9.15908 6.69378 30
    endloop
  endfacet
  facet normal 0 1.22465e-16 1
    outer loop
      vertex 8.83842 7.62784 30
      vertex -60 6.2 30
      vertex 9.03745 7.1741 30
    endloop
  endfacet
  facet normal 0 1.22465e-16 1
    outer loop
      vertex 8.56742 8.04264 30
      vertex -60 6.2 30
      vertex 8.83842 7.62784 30
    endloop
  endfacet
  facet normal 0 1.22465e-16 1
    outer loop
      vertex 8.23184 8.40717 30
      vertex -60 6.2 30
      vertex 8.56742 8.04264 30
    endloop
  endfacet
  facet normal 0 1.22465e-16 1
    outer loop
      vertex 7.84084 8.7115 30
      vertex -60 6.2 30
      vertex 8.23184 8.40717 30
    endloop
  endfacet
  facet normal 0 1.22465e-16 1
    outer loop
      vertex 7.40509 8.94732 30
      vertex -60 6.2 30
      vertex 7.84084 8.7115 30
    endloop
  endfacet
  facet normal 0 1.22465e-16 1
    outer loop
      vertex 6.93646 9.1082 30
      vertex -60 6.2 30
      vertex 7.40509 8.94732 30
    endloop
  endfacet
  facet normal 0 1.22465e-16 1
    outer loop
      vertex 6.44774 9.18975 30
      vertex -60 6.2 30
      vertex 6.93646 9.1082 30
    endloop
  endfacet
  facet normal 0 1.22465e-16 1
    outer loop
      vertex -57.2477 9.18975 30
      vertex -60 6.2 30
      vertex 6.44774 9.18975 30
    endloop
  endfacet
  facet normal 0 1.22465e-16 1
    outer loop
      vertex -57.7365 9.1082 30
      vertex -60 6.2 30
      vertex -57.2477 9.18975 30
    endloop
  endfacet
  facet normal 0 1.22465e-16 1
    outer loop
      vertex -58.2051 8.94732 30
      vertex -60 6.2 30
      vertex -57.7365 9.1082 30
    endloop
  endfacet
  facet normal 0 1.22465e-16 1
    outer loop
      vertex -58.6408 8.7115 30
      vertex -60 6.2 30
      vertex -58.2051 8.94732 30
    endloop
  endfacet
  facet normal 0 1.22465e-16 1
    outer loop
      vertex -59.0318 8.40717 30
      vertex -60 6.2 30
      vertex -58.6408 8.7115 30
    endloop
  endfacet
  facet normal 0 1.22465e-16 1
    outer loop
      vertex -59.3674 8.04264 30
      vertex -60 6.2 30
      vertex -59.0318 8.40717 30
    endloop
  endfacet
  facet normal 0 1.22465e-16 1
    outer loop
      vertex -59.6384 7.62784 30
      vertex -60 6.2 30
      vertex -59.3674 8.04264 30
    endloop
  endfacet
  facet normal 0 1.22465e-16 1
    outer loop
      vertex -59.8375 7.1741 30
      vertex -60 6.2 30
      vertex -59.6384 7.62784 30
    endloop
  endfacet
  facet normal 0 1.22465e-16 1
    outer loop
      vertex -59.9591 6.69378 30
      vertex -60 6.2 30
      vertex -59.8375 7.1741 30
    endloop
  endfacet
  facet normal 0.9694 0.245485 -3.00633e-17
    outer loop
      vertex 9.03745 7.1741 30
      vertex 9.15908 6.69378 30
      vertex 9.15908 6.69378 -4.8
    endloop
  endfacet
  facet normal 0.9694 0.245485 -3.00633e-17
    outer loop
      vertex 9.03745 7.1741 -4.8
      vertex 9.03745 7.1741 30
      vertex 9.15908 6.69378 -4.8
    endloop
  endfacet
  facet normal 0 -1.22465e-16 -1
    outer loop
      vertex -59.9591 6.69378 -4.8
      vertex -59.8375 7.1741 -4.8
      vertex -60 6.2 -4.8
    endloop
  endfacet
  facet normal 0 -1.22465e-16 -1
    outer loop
      vertex -60 6.2 -4.8
      vertex -59.8375 7.1741 -4.8
      vertex -59.6384 7.62784 -4.8
    endloop
  endfacet
  facet normal 0 -1.22465e-16 -1
    outer loop
      vertex -60 6.2 -4.8
      vertex -59.6384 7.62784 -4.8
      vertex -59.3674 8.04264 -4.8
    endloop
  endfacet
  facet normal 0 -1.22465e-16 -1
    outer loop
      vertex -60 6.2 -4.8
      vertex -59.3674 8.04264 -4.8
      vertex -59.0318 8.40717 -4.8
    endloop
  endfacet
  facet normal 0 -1.22465e-16 -1
    outer loop
      vertex -60 6.2 -4.8
      vertex -59.0318 8.40717 -4.8
      vertex -58.6408 8.7115 -4.8
    endloop
  endfacet
  facet normal 0 -1.22465e-16 -1
    outer loop
      vertex -60 6.2 -4.8
      vertex -58.6408 8.7115 -4.8
      vertex -58.2051 8.94732 -4.8
    endloop
  endfacet
  facet normal 0 -1.22465e-16 -1
    outer loop
      vertex -60 6.2 -4.8
      vertex -58.2051 8.94732 -4.8
      vertex -57.7365 9.1082 -4.8
    endloop
  endfacet
  facet normal 0 -1.22465e-16 -1
    outer loop
      vertex -60 6.2 -4.8
      vertex -57.7365 9.1082 -4.8
      vertex -57.2477 9.18975 -4.8
    endloop
  endfacet
  facet normal 0 -1.22465e-16 -1
    outer loop
      vertex -60 6.2 -4.8
      vertex -57.2477 9.18975 -4.8
      vertex 6.44774 9.18975 -4.8
    endloop
  endfacet
  facet normal 0 -1.22465e-16 -1
    outer loop
      vertex -60 6.2 -4.8
      vertex 6.44774 9.18975 -4.8
      vertex 6.93646 9.1082 -4.8
    endloop
  endfacet
  facet normal 0 -1.22465e-16 -1
    outer loop
      vertex -60 6.2 -4.8
      vertex 6.93646 9.1082 -4.8
      vertex 7.40509 8.94732 -4.8
    endloop
  endfacet
  facet normal 0 -1.22465e-16 -1
    outer loop
      vertex -60 6.2 -4.8
      vertex 7.40509 8.94732 -4.8
      vertex 7.84084 8.7115 -4.8
    endloop
  endfacet
  facet normal 0 -1.22465e-16 -1
    outer loop
      vertex -60 6.2 -4.8
      vertex 7.84084 8.7115 -4.8
      vertex 8.23184 8.40717 -4.8
    endloop
  endfacet
  facet normal 0 -1.22465e-16 -1
    outer loop
      vertex -60 6.2 -4.8
      vertex 8.23184 8.40717 -4.8
      vertex 8.56742 8.04264 -4.8
    endloop
  endfacet
  facet normal 0 -1.22465e-16 -1
    outer loop
      vertex -60 6.2 -4.8
      vertex 8.56742 8.04264 -4.8
      vertex 8.83842 7.62784 -4.8
    endloop
  endfacet
  facet normal 0 -1.22465e-16 -1
    outer loop
      vertex -60 6.2 -4.8
      vertex 8.83842 7.62784 -4.8
      vertex 9.03745 7.1741 -4.8
    endloop
  endfacet
  facet normal 0 -1.22465e-16 -1
    outer loop
      vertex 5.08955 6.74484 -4.8
      vertex 9.03745 7.1741 -4.8
      vertex 9.15908 6.69378 -4.8
    endloop
  endfacet
  facet normal 0 -1.22465e-16 -1
    outer loop
      vertex 5.97168 6.32003 -4.8
      vertex 9.15908 6.69378 -4.8
      vertex 9.2 6.2 -4.8
    endloop
  endfacet
  facet normal 0 -1.22465e-16 -1
    outer loop
      vertex 6.32003 3.22832 -4.8
      vertex 9.2 6.2 -4.8
      vertex 9.2 0.2 -4.8
    endloop
  endfacet
  facet normal 0 -1.22465e-16 -1
    outer loop
      vertex 4.6 2.4 -4.8
      vertex 9.2 0.2 -4.8
      vertex 4.11045 2.45516 -4.8
    endloop
  endfacet
  facet normal 0 -1.22465e-16 -1
    outer loop
      vertex 5.97168 6.32003 -4.8
      vertex 9.2 6.2 -4.8
      vertex 6.32003 5.97168 -4.8
    endloop
  endfacet
  facet normal 0 -1.22465e-16 -1
    outer loop
      vertex 3.64546 2.61787 -4.8
      vertex 4.11045 2.45516 -4.8
      vertex 9.2 0.2 -4.8
    endloop
  endfacet
  facet normal 0 -1.22465e-16 -1
    outer loop
      vertex 5.08955 2.45516 -4.8
      vertex 9.2 0.2 -4.8
      vertex 4.6 2.4 -4.8
    endloop
  endfacet
  facet normal 0 -1.22465e-16 -1
    outer loop
      vertex 5.55454 2.61787 -4.8
      vertex 9.2 0.2 -4.8
      vertex 5.08955 2.45516 -4.8
    endloop
  endfacet
  facet normal 0 -1.22465e-16 -1
    outer loop
      vertex 6.32003 5.97168 -4.8
      vertex 9.2 6.2 -4.8
      vertex 6.58213 5.55454 -4.8
    endloop
  endfacet
  facet normal 0 -1.22465e-16 -1
    outer loop
      vertex 6.58213 3.64546 -4.8
      vertex 9.2 6.2 -4.8
      vertex 6.32003 3.22832 -4.8
    endloop
  endfacet
  facet normal 0 -1.22465e-16 -1
    outer loop
      vertex 5.55454 2.61787 -4.8
      vertex 5.97168 2.87997 -4.8
      vertex 9.2 0.2 -4.8
    endloop
  endfacet
  facet normal 0 -1.22465e-16 -1
    outer loop
      vertex 3.22832 6.32003 -4.8
      vertex -56.8 6.2 -4.8
      vertex 3.64546 6.58213 -4.8
    endloop
  endfacet
  facet normal 0 -1.22465e-16 -1
    outer loop
      vertex 5.97168 2.87997 -4.8
      vertex 6.32003 3.22832 -4.8
      vertex 9.2 0.2 -4.8
    endloop
  endfacet
  facet normal 0 -1.22465e-16 -1
    outer loop
      vertex 6.74484 4.11045 -4.8
      vertex 9.2 6.2 -4.8
      vertex 6.58213 3.64546 -4.8
    endloop
  endfacet
  facet normal 0 -1.22465e-16 -1
    outer loop
      vertex 6.8 4.6 -4.8
      vertex 9.2 6.2 -4.8
      vertex 6.74484 4.11045 -4.8
    endloop
  endfacet
  facet normal 0 -1.22465e-16 -1
    outer loop
      vertex 6.74484 5.08955 -4.8
      vertex 9.2 6.2 -4.8
      vertex 6.8 4.6 -4.8
    endloop
  endfacet
  facet normal 0 -1.22465e-16 -1
    outer loop
      vertex 6.58213 5.55454 -4.8
      vertex 9.2 6.2 -4.8
      vertex 6.74484 5.08955 -4.8
    endloop
  endfacet
  facet normal 0 -1.22465e-16 -1
    outer loop
      vertex 5.55454 6.58213 -4.8
      vertex 9.15908 6.69378 -4.8
      vertex 5.97168 6.32003 -4.8
    endloop
  endfacet
  facet normal 0 -1.22465e-16 -1
    outer loop
      vertex 5.08955 6.74484 -4.8
      vertex 9.15908 6.69378 -4.8
      vertex 5.55454 6.58213 -4.8
    endloop
  endfacet
  facet normal 0 -1.22465e-16 -1
    outer loop
      vertex 4.6 6.8 -4.8
      vertex 9.03745 7.1741 -4.8
      vertex 5.08955 6.74484 -4.8
    endloop
  endfacet
  facet normal 0 -1.22465e-16 -1
    outer loop
      vertex 3.64546 6.58213 -4.8
      vertex -60 6.2 -4.8
      vertex 4.11045 6.74484 -4.8
    endloop
  endfacet
  facet normal 0 -1.22465e-16 -1
    outer loop
      vertex -60 6.2 -4.8
      vertex 9.03745 7.1741 -4.8
      vertex 4.6 6.8 -4.8
    endloop
  endfacet
  facet normal 0 -1.22465e-16 -1
    outer loop
      vertex -60 6.2 -4.8
      vertex 4.6 6.8 -4.8
      vertex 4.11045 6.74484 -4.8
    endloop
  endfacet
  facet normal 0 -1.22465e-16 -1
    outer loop
      vertex 2.87997 5.97168 -4.8
      vertex -56.8 6.2 -4.8
      vertex 3.22832 6.32003 -4.8
    endloop
  endfacet
  facet normal 0 -1.22465e-16 -1
    outer loop
      vertex 3.64546 6.58213 -4.8
      vertex -56.8 6.2 -4.8
      vertex -60 6.2 -4.8
    endloop
  endfacet
  facet normal 0 -1.22465e-16 -1
    outer loop
      vertex -56.8 6.2 -4.8
      vertex 2.87997 5.97168 -4.8
      vertex 2.61787 5.55454 -4.8
    endloop
  endfacet
  facet normal 0 -1.22465e-16 -1
    outer loop
      vertex -56.8 6.2 -4.8
      vertex 2.61787 5.55454 -4.8
      vertex 2.45516 5.08955 -4.8
    endloop
  endfacet
  facet normal 0 -1.22465e-16 -1
    outer loop
      vertex -56.8 6.2 -4.8
      vertex 2.45516 5.08955 -4.8
      vertex 2.4 4.6 -4.8
    endloop
  endfacet
  facet normal 0 -1.22465e-16 -1
    outer loop
      vertex -56.8 6.2 -4.8
      vertex 2.4 4.6 -4.8
      vertex 2.45516 4.11045 -4.8
    endloop
  endfacet
  facet normal 0 -1.22465e-16 -1
    outer loop
      vertex -56.8 6.2 -4.8
      vertex 2.45516 4.11045 -4.8
      vertex 2.61787 3.64546 -4.8
    endloop
  endfacet
  facet normal 0 -1.22465e-16 -1
    outer loop
      vertex -56.8 6.2 -4.8
      vertex 2.61787 3.64546 -4.8
      vertex 2.87997 3.22832 -4.8
    endloop
  endfacet
  facet normal 0 -1.22465e-16 -1
    outer loop
      vertex -56.8 6.2 -4.8
      vertex 2.87997 3.22832 -4.8
      vertex 3.22832 2.87997 -4.8
    endloop
  endfacet
  facet normal 0 -1.22465e-16 -1
    outer loop
      vertex -56.8 6.2 -4.8
      vertex 3.22832 2.87997 -4.8
      vertex 3.64546 2.61787 -4.8
    endloop
  endfacet
  facet normal 0 -1.22465e-16 -1
    outer loop
      vertex -56.8 6.2 -4.8
      vertex 3.64546 2.61787 -4.8
      vertex 9.2 0.2 -4.8
    endloop
  endfacet
  facet normal 0 -1.22465e-16 -1
    outer loop
      vertex -56.8 6.2 -4.8
      vertex 9.2 0.2 -4.8
      vertex -56.8 0.2 -4.8
    endloop
  endfacet
  facet normal 0 -1 1.22465e-16
    outer loop
      vertex -56.8 0.2 -3.2
      vertex -56.8 0.2 -4.8
      vertex 9.2 0.2 -4.8
    endloop
  endfacet
  facet normal 0 -1 1.22465e-16
    outer loop
      vertex 0.2 0.2 -3.2
      vertex -56.8 0.2 -3.2
      vertex 9.2 0.2 -4.8
    endloop
  endfacet
  facet normal 0 -1 1.22465e-16
    outer loop
      vertex 9.2 0.2 30
      vertex 0.2 0.2 -3.2
      vertex 9.2 0.2 -4.8
    endloop
  endfacet
  facet normal 0 -1 1.22465e-16
    outer loop
      vertex 0.2 0.2 30
      vertex 0.2 0.2 -3.2
      vertex 9.2 0.2 30
    endloop
  endfacet
  facet normal 0 -1 1.22465e-16
    outer loop
      vertex -60 6.2 30
      vertex -60 6.2 -4.8
      vertex -56.8 6.2 -4.8
    endloop
  endfacet
  facet normal 0 -1 1.22465e-16
    outer loop
      vertex -47.2 6.2 15
      vertex -60 6.2 30
      vertex -56.8 6.2 -3.2
    endloop
  endfacet
  facet normal 0 -1 1.22465e-16
    outer loop
      vertex -56.8 6.2 -3.2
      vertex -60 6.2 30
      vertex -56.8 6.2 -4.8
    endloop
  endfacet
  facet normal 0 -1 1.22465e-16
    outer loop
      vertex -15.955 6.2 13.018
      vertex -60 6.2 30
      vertex 0.2 6.2 -3.2
    endloop
  endfacet
  facet normal 0 -1 1.22465e-16
    outer loop
      vertex -15.955 6.2 13.018
      vertex -16.372 6.2 13.28
      vertex -60 6.2 30
    endloop
  endfacet
  facet normal 0 -1 1.22465e-16
    outer loop
      vertex -17.145 6.2 15.49
      vertex -60 6.2 30
      vertex -17.2 6.2 15
    endloop
  endfacet
  facet normal 0 -1 1.22465e-16
    outer loop
      vertex -16.982 6.2 15.955
      vertex -60 6.2 30
      vertex -17.145 6.2 15.49
    endloop
  endfacet
  facet normal 0 -1 1.22465e-16
    outer loop
      vertex -13.454 6.2 16.546
      vertex -13.28 6.2 16.372
      vertex -13.444 6.2 16.556
    endloop
  endfacet
  facet normal 0 -1 1.22465e-16
    outer loop
      vertex -16.72 6.2 16.372
      vertex -60 6.2 30
      vertex -16.982 6.2 15.955
    endloop
  endfacet
  facet normal 0 -1 1.22465e-16
    outer loop
      vertex -42.8 6.2 15
      vertex -42.855 6.2 14.51
      vertex 0.2 6.2 -3.2
    endloop
  endfacet
  facet normal 0 -1 1.22465e-16
    outer loop
      vertex -16.546 6.2 16.546
      vertex -60 6.2 30
      vertex -16.72 6.2 16.372
    endloop
  endfacet
  facet normal 0 -1 1.22465e-16
    outer loop
      vertex -16.556 6.2 16.556
      vertex -60 6.2 30
      vertex -16.546 6.2 16.546
    endloop
  endfacet
  facet normal 0 -1 1.22465e-16
    outer loop
      vertex -15.9116 6.2 17.2
      vertex -60 6.2 30
      vertex -16.556 6.2 16.556
    endloop
  endfacet
  facet normal 0 -1 1.22465e-16
    outer loop
      vertex 0.2 6.2 30
      vertex -60 6.2 30
      vertex -15.9116 6.2 17.2
    endloop
  endfacet
  facet normal 0 -1 1.22465e-16
    outer loop
      vertex -15 6.2 12.8
      vertex -15.49 6.2 12.855
      vertex 0.2 6.2 -3.2
    endloop
  endfacet
  facet normal 0 -1 1.22465e-16
    outer loop
      vertex -12.855 6.2 15.49
      vertex -12.8 6.2 15
      vertex 0.2 6.2 -3.2
    endloop
  endfacet
  facet normal 0 -1 1.22465e-16
    outer loop
      vertex -13.018 6.2 15.955
      vertex -12.855 6.2 15.49
      vertex 0.2 6.2 -3.2
    endloop
  endfacet
  facet normal 0 -1 1.22465e-16
    outer loop
      vertex 0.2 6.2 30
      vertex -14.0884 6.2 17.2
      vertex -13.444 6.2 16.556
    endloop
  endfacet
  facet normal 0 -1 1.22465e-16
    outer loop
      vertex 0.2 6.2 30
      vertex -13.28 6.2 16.372
      vertex 0.2 6.2 -3.2
    endloop
  endfacet
  facet normal 0 -1 1.22465e-16
    outer loop
      vertex 0.2 6.2 30
      vertex -13.444 6.2 16.556
      vertex -13.28 6.2 16.372
    endloop
  endfacet
  facet normal 0 -1 1.22465e-16
    outer loop
      vertex -13.28 6.2 16.372
      vertex -13.018 6.2 15.955
      vertex 0.2 6.2 -3.2
    endloop
  endfacet
  facet normal 0 -1 1.22465e-16
    outer loop
      vertex -12.8 6.2 15
      vertex -12.855 6.2 14.51
      vertex 0.2 6.2 -3.2
    endloop
  endfacet
  facet normal 0 -1 1.22465e-16
    outer loop
      vertex -12.855 6.2 14.51
      vertex -13.018 6.2 14.045
      vertex 0.2 6.2 -3.2
    endloop
  endfacet
  facet normal 0 -1 1.22465e-16
    outer loop
      vertex -13.018 6.2 14.045
      vertex -13.28 6.2 13.628
      vertex 0.2 6.2 -3.2
    endloop
  endfacet
  facet normal 0 -1 1.22465e-16
    outer loop
      vertex -13.28 6.2 13.628
      vertex -13.628 6.2 13.28
      vertex 0.2 6.2 -3.2
    endloop
  endfacet
  facet normal 0 -1 1.22465e-16
    outer loop
      vertex -13.628 6.2 13.28
      vertex -14.045 6.2 13.018
      vertex 0.2 6.2 -3.2
    endloop
  endfacet
  facet normal 0 -1 1.22465e-16
    outer loop
      vertex -14.045 6.2 13.018
      vertex -14.51 6.2 12.855
      vertex 0.2 6.2 -3.2
    endloop
  endfacet
  facet normal 0 -1 1.22465e-16
    outer loop
      vertex -14.51 6.2 12.855
      vertex -15 6.2 12.8
      vertex 0.2 6.2 -3.2
    endloop
  endfacet
  facet normal 0 -1 1.22465e-16
    outer loop
      vertex -15.49 6.2 12.855
      vertex -15.955 6.2 13.018
      vertex 0.2 6.2 -3.2
    endloop
  endfacet
  facet normal 0 -1 1.22465e-16
    outer loop
      vertex -43.018 6.2 15.955
      vertex -42.855 6.2 15.49
      vertex 0.2 6.2 -3.2
    endloop
  endfacet
  facet normal 0 -1 1.22465e-16
    outer loop
      vertex -16.72 6.2 13.628
      vertex -60 6.2 30
      vertex -16.372 6.2 13.28
    endloop
  endfacet
  facet normal 0 -1 1.22465e-16
    outer loop
      vertex -16.982 6.2 14.045
      vertex -60 6.2 30
      vertex -16.72 6.2 13.628
    endloop
  endfacet
  facet normal 0 -1 1.22465e-16
    outer loop
      vertex -17.145 6.2 14.51
      vertex -60 6.2 30
      vertex -16.982 6.2 14.045
    endloop
  endfacet
  facet normal 0 -1 1.22465e-16
    outer loop
      vertex -17.2 6.2 15
      vertex -60 6.2 30
      vertex -17.145 6.2 14.51
    endloop
  endfacet
  facet normal 0 -1 1.22465e-16
    outer loop
      vertex -47.145 6.2 14.51
      vertex -47.2 6.2 15
      vertex -56.8 6.2 -3.2
    endloop
  endfacet
  facet normal 0 -1 1.22465e-16
    outer loop
      vertex -47.145 6.2 15.49
      vertex -60 6.2 30
      vertex -47.2 6.2 15
    endloop
  endfacet
  facet normal 0 -1 1.22465e-16
    outer loop
      vertex -46.982 6.2 15.955
      vertex -60 6.2 30
      vertex -47.145 6.2 15.49
    endloop
  endfacet
  facet normal 0 -1 1.22465e-16
    outer loop
      vertex -46.72 6.2 16.372
      vertex -60 6.2 30
      vertex -46.982 6.2 15.955
    endloop
  endfacet
  facet normal 0 -1 1.22465e-16
    outer loop
      vertex -46.546 6.2 16.546
      vertex -60 6.2 30
      vertex -46.72 6.2 16.372
    endloop
  endfacet
  facet normal 0 -1 1.22465e-16
    outer loop
      vertex -42.855 6.2 14.51
      vertex -43.018 6.2 14.045
      vertex 0.2 6.2 -3.2
    endloop
  endfacet
  facet normal 0 -1 1.22465e-16
    outer loop
      vertex -46.556 6.2 16.556
      vertex -60 6.2 30
      vertex -46.546 6.2 16.546
    endloop
  endfacet
  facet normal 0 -1 1.22465e-16
    outer loop
      vertex -45.9116 6.2 17.2
      vertex -60 6.2 30
      vertex -46.556 6.2 16.556
    endloop
  endfacet
  facet normal 0 -1 1.22465e-16
    outer loop
      vertex -44.0884 6.2 17.2
      vertex -60 6.2 30
      vertex -45.9116 6.2 17.2
    endloop
  endfacet
  facet normal 0 -1 1.22465e-16
    outer loop
      vertex 0.2 6.2 -3.2
      vertex -60 6.2 30
      vertex -44.0884 6.2 17.2
    endloop
  endfacet
  facet normal 0 -1 1.22465e-16
    outer loop
      vertex 0.2 6.2 -3.2
      vertex -44.0884 6.2 17.2
      vertex -43.444 6.2 16.556
    endloop
  endfacet
  facet normal 0 -1 1.22465e-16
    outer loop
      vertex 0.2 6.2 -3.2
      vertex -43.444 6.2 16.556
      vertex -43.454 6.2 16.546
    endloop
  endfacet
  facet normal 0 -1 1.22465e-16
    outer loop
      vertex 0.2 6.2 -3.2
      vertex -43.454 6.2 16.546
      vertex -43.28 6.2 16.372
    endloop
  endfacet
  facet normal 0 -1 1.22465e-16
    outer loop
      vertex 0.2 6.2 -3.2
      vertex -43.28 6.2 16.372
      vertex -43.018 6.2 15.955
    endloop
  endfacet
  facet normal 0 -1 1.22465e-16
    outer loop
      vertex 0.2 6.2 -3.2
      vertex -42.855 6.2 15.49
      vertex -42.8 6.2 15
    endloop
  endfacet
  facet normal 0 -1 1.22465e-16
    outer loop
      vertex -43.018 6.2 14.045
      vertex -43.28 6.2 13.628
      vertex 0.2 6.2 -3.2
    endloop
  endfacet
  facet normal 0 -1 1.22465e-16
    outer loop
      vertex -43.28 6.2 13.628
      vertex -43.628 6.2 13.28
      vertex 0.2 6.2 -3.2
    endloop
  endfacet
  facet normal 0 -1 1.22465e-16
    outer loop
      vertex 0.2 6.2 -3.2
      vertex -43.628 6.2 13.28
      vertex -56.8 6.2 -3.2
    endloop
  endfacet
  facet normal 0 -1 1.22465e-16
    outer loop
      vertex -43.628 6.2 13.28
      vertex -44.045 6.2 13.018
      vertex -56.8 6.2 -3.2
    endloop
  endfacet
  facet normal 0 -1 1.22465e-16
    outer loop
      vertex -44.045 6.2 13.018
      vertex -44.51 6.2 12.855
      vertex -56.8 6.2 -3.2
    endloop
  endfacet
  facet normal 0 -1 1.22465e-16
    outer loop
      vertex -44.51 6.2 12.855
      vertex -45 6.2 12.8
      vertex -56.8 6.2 -3.2
    endloop
  endfacet
  facet normal 0 -1 1.22465e-16
    outer loop
      vertex -45 6.2 12.8
      vertex -45.49 6.2 12.855
      vertex -56.8 6.2 -3.2
    endloop
  endfacet
  facet normal 0 -1 1.22465e-16
    outer loop
      vertex -45.49 6.2 12.855
      vertex -45.955 6.2 13.018
      vertex -56.8 6.2 -3.2
    endloop
  endfacet
  facet normal 0 -1 1.22465e-16
    outer loop
      vertex -45.955 6.2 13.018
      vertex -46.372 6.2 13.28
      vertex -56.8 6.2 -3.2
    endloop
  endfacet
  facet normal 0 -1 1.22465e-16
    outer loop
      vertex -46.372 6.2 13.28
      vertex -46.72 6.2 13.628
      vertex -56.8 6.2 -3.2
    endloop
  endfacet
  facet normal 0 -1 1.22465e-16
    outer loop
      vertex -46.72 6.2 13.628
      vertex -46.982 6.2 14.045
      vertex -56.8 6.2 -3.2
    endloop
  endfacet
  facet normal 0 -1 1.22465e-16
    outer loop
      vertex -46.982 6.2 14.045
      vertex -47.145 6.2 14.51
      vertex -56.8 6.2 -3.2
    endloop
  endfacet
  facet normal 0 -1 1.22465e-16
    outer loop
      vertex -15.9116 6.2 17.2
      vertex -14.0884 6.2 17.2
      vertex 0.2 6.2 30
    endloop
  endfacet
  facet normal -0.996585 0.0825791 -1.0113e-17
    outer loop
      vertex -59.9591 6.69378 30
      vertex -59.9591 6.69378 -4.8
      vertex -60 6.2 30
    endloop
  endfacet
  facet normal -0.996585 0.0825791 -1.0113e-17
    outer loop
      vertex -60 6.2 30
      vertex -59.9591 6.69378 -4.8
      vertex -60 6.2 -4.8
    endloop
  endfacet
  facet normal -0.9694 0.245485 -3.00633e-17
    outer loop
      vertex -59.8375 7.1741 30
      vertex -59.8375 7.1741 -4.8
      vertex -59.9591 6.69378 30
    endloop
  endfacet
  facet normal -0.9694 0.245485 -3.00633e-17
    outer loop
      vertex -59.9591 6.69378 30
      vertex -59.8375 7.1741 -4.8
      vertex -59.9591 6.69378 -4.8
    endloop
  endfacet
  facet normal -0.915773 0.401696 -4.91936e-17
    outer loop
      vertex -59.6384 7.62784 30
      vertex -59.6384 7.62784 -4.8
      vertex -59.8375 7.1741 30
    endloop
  endfacet
  facet normal -0.915773 0.401696 -4.91936e-17
    outer loop
      vertex -59.8375 7.1741 30
      vertex -59.6384 7.62784 -4.8
      vertex -59.8375 7.1741 -4.8
    endloop
  endfacet
  facet normal -0.837167 0.546947 -6.69817e-17
    outer loop
      vertex -59.3674 8.04264 30
      vertex -59.3674 8.04264 -4.8
      vertex -59.6384 7.62784 30
    endloop
  endfacet
  facet normal -0.837167 0.546947 -6.69817e-17
    outer loop
      vertex -59.6384 7.62784 30
      vertex -59.3674 8.04264 -4.8
      vertex -59.6384 7.62784 -4.8
    endloop
  endfacet
  facet normal -0.735724 0.677281 -8.2943e-17
    outer loop
      vertex -59.0318 8.40717 30
      vertex -59.0318 8.40717 -4.8
      vertex -59.3674 8.04264 30
    endloop
  endfacet
  facet normal -0.735724 0.677281 -8.2943e-17
    outer loop
      vertex -59.3674 8.04264 30
      vertex -59.0318 8.40717 -4.8
      vertex -59.3674 8.04264 -4.8
    endloop
  endfacet
  facet normal -0.614211 0.789142 -9.6642e-17
    outer loop
      vertex -58.6408 8.7115 30
      vertex -58.6408 8.7115 -4.8
      vertex -59.0318 8.40717 30
    endloop
  endfacet
  facet normal -0.614211 0.789142 -9.6642e-17
    outer loop
      vertex -59.0318 8.40717 30
      vertex -58.6408 8.7115 -4.8
      vertex -59.0318 8.40717 -4.8
    endloop
  endfacet
  facet normal -0.475948 0.879473 -1.07704e-16
    outer loop
      vertex -58.2051 8.94732 30
      vertex -58.2051 8.94732 -4.8
      vertex -58.6408 8.7115 30
    endloop
  endfacet
  facet normal -0.475948 0.879473 -1.07704e-16
    outer loop
      vertex -58.6408 8.7115 30
      vertex -58.2051 8.94732 -4.8
      vertex -58.6408 8.7115 -4.8
    endloop
  endfacet
  facet normal -0.3247 0.945817 -1.15829e-16
    outer loop
      vertex -57.7365 9.1082 30
      vertex -57.7365 9.1082 -4.8
      vertex -58.2051 8.94732 30
    endloop
  endfacet
  facet normal -0.3247 0.945817 -1.15829e-16
    outer loop
      vertex -58.2051 8.94732 30
      vertex -57.7365 9.1082 -4.8
      vertex -58.2051 8.94732 -4.8
    endloop
  endfacet
  facet normal -0.164593 0.986362 -1.20794e-16
    outer loop
      vertex -57.2477 9.18975 30
      vertex -57.2477 9.18975 -4.8
      vertex -57.7365 9.1082 30
    endloop
  endfacet
  facet normal -0.164593 0.986362 -1.20794e-16
    outer loop
      vertex -57.7365 9.1082 30
      vertex -57.2477 9.18975 -4.8
      vertex -57.7365 9.1082 -4.8
    endloop
  endfacet
  facet normal 0 1 -1.22465e-16
    outer loop
      vertex -16.372 9.18975 13.28
      vertex 6.44774 9.18975 -4.8
      vertex -57.2477 9.18975 30
    endloop
  endfacet
  facet normal 0 1 -1.22465e-16
    outer loop
      vertex -45.49 9.18975 12.855
      vertex 6.44774 9.18975 -4.8
      vertex -57.2477 9.18975 -4.8
    endloop
  endfacet
  facet normal 0 1 -1.22465e-16
    outer loop
      vertex -13.018 9.18975 14.045
      vertex 6.44774 9.18975 30
      vertex -13.28 9.18975 13.628
    endloop
  endfacet
  facet normal 0 1 -1.22465e-16
    outer loop
      vertex -17.145 9.18975 15.49
      vertex -17.2 9.18975 15
      vertex -57.2477 9.18975 30
    endloop
  endfacet
  facet normal 0 1 -1.22465e-16
    outer loop
      vertex -14.51 9.18975 12.855
      vertex 6.44774 9.18975 -4.8
      vertex -15 9.18975 12.8
    endloop
  endfacet
  facet normal 0 1 -1.22465e-16
    outer loop
      vertex -17.2 9.18975 15
      vertex -17.145 9.18975 14.51
      vertex -57.2477 9.18975 30
    endloop
  endfacet
  facet normal 0 1 -1.22465e-16
    outer loop
      vertex -15 9.18975 12.8
      vertex 6.44774 9.18975 -4.8
      vertex -15.49 9.18975 12.855
    endloop
  endfacet
  facet normal 0 1 -1.22465e-16
    outer loop
      vertex -17.145 9.18975 14.51
      vertex -16.982 9.18975 14.045
      vertex -57.2477 9.18975 30
    endloop
  endfacet
  facet normal 0 1 -1.22465e-16
    outer loop
      vertex -16.982 9.18975 14.045
      vertex -16.72 9.18975 13.628
      vertex -57.2477 9.18975 30
    endloop
  endfacet
  facet normal 0 1 -1.22465e-16
    outer loop
      vertex -15.955 9.18975 13.018
      vertex 6.44774 9.18975 -4.8
      vertex -16.372 9.18975 13.28
    endloop
  endfacet
  facet normal 0 1 -1.22465e-16
    outer loop
      vertex -16.72 9.18975 13.628
      vertex -16.372 9.18975 13.28
      vertex -57.2477 9.18975 30
    endloop
  endfacet
  facet normal 0 1 -1.22465e-16
    outer loop
      vertex -14.045 9.18975 13.018
      vertex 6.44774 9.18975 -4.8
      vertex -14.51 9.18975 12.855
    endloop
  endfacet
  facet normal 0 1 -1.22465e-16
    outer loop
      vertex -13.628 9.18975 13.28
      vertex 6.44774 9.18975 -4.8
      vertex -14.045 9.18975 13.018
    endloop
  endfacet
  facet normal 0 1 -1.22465e-16
    outer loop
      vertex 6.44774 9.18975 30
      vertex 6.44774 9.18975 -4.8
      vertex -13.628 9.18975 13.28
    endloop
  endfacet
  facet normal 0 1 -1.22465e-16
    outer loop
      vertex 6.44774 9.18975 30
      vertex -13.628 9.18975 13.28
      vertex -13.28 9.18975 13.628
    endloop
  endfacet
  facet normal 0 1 -1.22465e-16
    outer loop
      vertex -12.855 9.18975 14.51
      vertex 6.44774 9.18975 30
      vertex -13.018 9.18975 14.045
    endloop
  endfacet
  facet normal 0 1 -1.22465e-16
    outer loop
      vertex -14.0884 9.18975 17.2
      vertex 6.44774 9.18975 30
      vertex -13.444 9.18975 16.556
    endloop
  endfacet
  facet normal 0 1 -1.22465e-16
    outer loop
      vertex 6.44774 9.18975 30
      vertex -12.855 9.18975 14.51
      vertex -12.8 9.18975 15
    endloop
  endfacet
  facet normal 0 1 -1.22465e-16
    outer loop
      vertex 6.44774 9.18975 30
      vertex -12.8 9.18975 15
      vertex -12.855 9.18975 15.49
    endloop
  endfacet
  facet normal 0 1 -1.22465e-16
    outer loop
      vertex 6.44774 9.18975 30
      vertex -12.855 9.18975 15.49
      vertex -13.018 9.18975 15.955
    endloop
  endfacet
  facet normal 0 1 -1.22465e-16
    outer loop
      vertex 6.44774 9.18975 30
      vertex -13.018 9.18975 15.955
      vertex -13.28 9.18975 16.372
    endloop
  endfacet
  facet normal 0 1 -1.22465e-16
    outer loop
      vertex 6.44774 9.18975 30
      vertex -13.28 9.18975 16.372
      vertex -13.454 9.18975 16.546
    endloop
  endfacet
  facet normal 0 1 -1.22465e-16
    outer loop
      vertex 6.44774 9.18975 30
      vertex -13.454 9.18975 16.546
      vertex -13.444 9.18975 16.556
    endloop
  endfacet
  facet normal 0 1 -1.22465e-16
    outer loop
      vertex -16.72 9.18975 16.372
      vertex -16.556 9.18975 16.556
      vertex -16.546 9.18975 16.546
    endloop
  endfacet
  facet normal 0 1 -1.22465e-16
    outer loop
      vertex 6.44774 9.18975 30
      vertex -14.0884 9.18975 17.2
      vertex -57.2477 9.18975 30
    endloop
  endfacet
  facet normal 0 1 -1.22465e-16
    outer loop
      vertex -14.0884 9.18975 17.2
      vertex -15.9116 9.18975 17.2
      vertex -57.2477 9.18975 30
    endloop
  endfacet
  facet normal 0 1 -1.22465e-16
    outer loop
      vertex -15.9116 9.18975 17.2
      vertex -16.556 9.18975 16.556
      vertex -57.2477 9.18975 30
    endloop
  endfacet
  facet normal 0 1 -1.22465e-16
    outer loop
      vertex -45 9.18975 12.8
      vertex 6.44774 9.18975 -4.8
      vertex -45.49 9.18975 12.855
    endloop
  endfacet
  facet normal 0 1 -1.22465e-16
    outer loop
      vertex -16.556 9.18975 16.556
      vertex -16.72 9.18975 16.372
      vertex -57.2477 9.18975 30
    endloop
  endfacet
  facet normal 0 1 -1.22465e-16
    outer loop
      vertex -16.72 9.18975 16.372
      vertex -16.982 9.18975 15.955
      vertex -57.2477 9.18975 30
    endloop
  endfacet
  facet normal 0 1 -1.22465e-16
    outer loop
      vertex -16.982 9.18975 15.955
      vertex -17.145 9.18975 15.49
      vertex -57.2477 9.18975 30
    endloop
  endfacet
  facet normal 0 1 -1.22465e-16
    outer loop
      vertex -45.9116 9.18975 17.2
      vertex -57.2477 9.18975 30
      vertex -44.0884 9.18975 17.2
    endloop
  endfacet
  facet normal 0 1 -1.22465e-16
    outer loop
      vertex -57.2477 9.18975 30
      vertex -47.2 9.18975 15
      vertex -57.2477 9.18975 -4.8
    endloop
  endfacet
  facet normal 0 1 -1.22465e-16
    outer loop
      vertex -43.28 9.18975 13.628
      vertex 6.44774 9.18975 -4.8
      vertex -43.628 9.18975 13.28
    endloop
  endfacet
  facet normal 0 1 -1.22465e-16
    outer loop
      vertex -47.2 9.18975 15
      vertex -47.145 9.18975 14.51
      vertex -57.2477 9.18975 -4.8
    endloop
  endfacet
  facet normal 0 1 -1.22465e-16
    outer loop
      vertex -43.628 9.18975 13.28
      vertex 6.44774 9.18975 -4.8
      vertex -44.045 9.18975 13.018
    endloop
  endfacet
  facet normal 0 1 -1.22465e-16
    outer loop
      vertex -47.145 9.18975 14.51
      vertex -46.982 9.18975 14.045
      vertex -57.2477 9.18975 -4.8
    endloop
  endfacet
  facet normal 0 1 -1.22465e-16
    outer loop
      vertex -46.982 9.18975 14.045
      vertex -46.72 9.18975 13.628
      vertex -57.2477 9.18975 -4.8
    endloop
  endfacet
  facet normal 0 1 -1.22465e-16
    outer loop
      vertex -44.045 9.18975 13.018
      vertex 6.44774 9.18975 -4.8
      vertex -44.51 9.18975 12.855
    endloop
  endfacet
  facet normal 0 1 -1.22465e-16
    outer loop
      vertex -46.72 9.18975 13.628
      vertex -46.372 9.18975 13.28
      vertex -57.2477 9.18975 -4.8
    endloop
  endfacet
  facet normal 0 1 -1.22465e-16
    outer loop
      vertex -44.51 9.18975 12.855
      vertex 6.44774 9.18975 -4.8
      vertex -45 9.18975 12.8
    endloop
  endfacet
  facet normal 0 1 -1.22465e-16
    outer loop
      vertex -46.372 9.18975 13.28
      vertex -45.955 9.18975 13.018
      vertex -57.2477 9.18975 -4.8
    endloop
  endfacet
  facet normal 0 1 -1.22465e-16
    outer loop
      vertex -45.955 9.18975 13.018
      vertex -45.49 9.18975 12.855
      vertex -57.2477 9.18975 -4.8
    endloop
  endfacet
  facet normal 0 1 -1.22465e-16
    outer loop
      vertex -43.018 9.18975 14.045
      vertex 6.44774 9.18975 -4.8
      vertex -43.28 9.18975 13.628
    endloop
  endfacet
  facet normal 0 1 -1.22465e-16
    outer loop
      vertex -42.855 9.18975 14.51
      vertex 6.44774 9.18975 -4.8
      vertex -43.018 9.18975 14.045
    endloop
  endfacet
  facet normal 0 1 -1.22465e-16
    outer loop
      vertex -42.8 9.18975 15
      vertex 6.44774 9.18975 -4.8
      vertex -42.855 9.18975 14.51
    endloop
  endfacet
  facet normal 0 1 -1.22465e-16
    outer loop
      vertex -42.855 9.18975 15.49
      vertex 6.44774 9.18975 -4.8
      vertex -42.8 9.18975 15
    endloop
  endfacet
  facet normal 0 1 -1.22465e-16
    outer loop
      vertex -43.018 9.18975 15.955
      vertex 6.44774 9.18975 -4.8
      vertex -42.855 9.18975 15.49
    endloop
  endfacet
  facet normal 0 1 -1.22465e-16
    outer loop
      vertex -43.28 9.18975 16.372
      vertex 6.44774 9.18975 -4.8
      vertex -43.018 9.18975 15.955
    endloop
  endfacet
  facet normal 0 1 -1.22465e-16
    outer loop
      vertex -43.454 9.18975 16.546
      vertex 6.44774 9.18975 -4.8
      vertex -43.28 9.18975 16.372
    endloop
  endfacet
  facet normal 0 1 -1.22465e-16
    outer loop
      vertex -43.444 9.18975 16.556
      vertex 6.44774 9.18975 -4.8
      vertex -43.454 9.18975 16.546
    endloop
  endfacet
  facet normal 0 1 -1.22465e-16
    outer loop
      vertex -44.0884 9.18975 17.2
      vertex 6.44774 9.18975 -4.8
      vertex -43.444 9.18975 16.556
    endloop
  endfacet
  facet normal 0 1 -1.22465e-16
    outer loop
      vertex -57.2477 9.18975 30
      vertex 6.44774 9.18975 -4.8
      vertex -44.0884 9.18975 17.2
    endloop
  endfacet
  facet normal 0 1 -1.22465e-16
    outer loop
      vertex -46.556 9.18975 16.556
      vertex -57.2477 9.18975 30
      vertex -45.9116 9.18975 17.2
    endloop
  endfacet
  facet normal 0 1 -1.22465e-16
    outer loop
      vertex -46.72 9.18975 16.372
      vertex -46.556 9.18975 16.556
      vertex -46.546 9.18975 16.546
    endloop
  endfacet
  facet normal 0 1 -1.22465e-16
    outer loop
      vertex -57.2477 9.18975 30
      vertex -46.556 9.18975 16.556
      vertex -46.72 9.18975 16.372
    endloop
  endfacet
  facet normal 0 1 -1.22465e-16
    outer loop
      vertex -57.2477 9.18975 30
      vertex -46.72 9.18975 16.372
      vertex -46.982 9.18975 15.955
    endloop
  endfacet
  facet normal 0 1 -1.22465e-16
    outer loop
      vertex -57.2477 9.18975 30
      vertex -46.982 9.18975 15.955
      vertex -47.145 9.18975 15.49
    endloop
  endfacet
  facet normal 0 1 -1.22465e-16
    outer loop
      vertex -57.2477 9.18975 30
      vertex -47.145 9.18975 15.49
      vertex -47.2 9.18975 15
    endloop
  endfacet
  facet normal 0 1 -1.22465e-16
    outer loop
      vertex -15.49 9.18975 12.855
      vertex 6.44774 9.18975 -4.8
      vertex -15.955 9.18975 13.018
    endloop
  endfacet
  facet normal 0.164593 0.986362 -1.20794e-16
    outer loop
      vertex 6.93646 9.1082 30
      vertex 6.93646 9.1082 -4.8
      vertex 6.44774 9.18975 30
    endloop
  endfacet
  facet normal 0.164593 0.986362 -1.20794e-16
    outer loop
      vertex 6.44774 9.18975 30
      vertex 6.93646 9.1082 -4.8
      vertex 6.44774 9.18975 -4.8
    endloop
  endfacet
  facet normal 0.3247 0.945817 -1.15829e-16
    outer loop
      vertex 7.40509 8.94732 30
      vertex 7.40509 8.94732 -4.8
      vertex 6.93646 9.1082 30
    endloop
  endfacet
  facet normal 0.3247 0.945817 -1.15829e-16
    outer loop
      vertex 6.93646 9.1082 30
      vertex 7.40509 8.94732 -4.8
      vertex 6.93646 9.1082 -4.8
    endloop
  endfacet
  facet normal 0.475948 0.879473 -1.07704e-16
    outer loop
      vertex 7.84084 8.7115 30
      vertex 7.84084 8.7115 -4.8
      vertex 7.40509 8.94732 30
    endloop
  endfacet
  facet normal 0.475948 0.879473 -1.07704e-16
    outer loop
      vertex 7.40509 8.94732 30
      vertex 7.84084 8.7115 -4.8
      vertex 7.40509 8.94732 -4.8
    endloop
  endfacet
  facet normal 0.614211 0.789142 -9.6642e-17
    outer loop
      vertex 8.23184 8.40717 30
      vertex 8.23184 8.40717 -4.8
      vertex 7.84084 8.7115 30
    endloop
  endfacet
  facet normal 0.614211 0.789142 -9.6642e-17
    outer loop
      vertex 7.84084 8.7115 30
      vertex 8.23184 8.40717 -4.8
      vertex 7.84084 8.7115 -4.8
    endloop
  endfacet
  facet normal 0.735724 0.677281 -8.2943e-17
    outer loop
      vertex 8.23184 8.40717 30
      vertex 8.56742 8.04264 30
      vertex 8.56742 8.04264 -4.8
    endloop
  endfacet
  facet normal 0.735724 0.677281 -8.2943e-17
    outer loop
      vertex 8.23184 8.40717 -4.8
      vertex 8.23184 8.40717 30
      vertex 8.56742 8.04264 -4.8
    endloop
  endfacet
  facet normal 0.837167 0.546947 -6.69817e-17
    outer loop
      vertex 8.56742 8.04264 30
      vertex 8.83842 7.62784 30
      vertex 8.83842 7.62784 -4.8
    endloop
  endfacet
  facet normal 0.837167 0.546947 -6.69817e-17
    outer loop
      vertex 8.56742 8.04264 -4.8
      vertex 8.56742 8.04264 30
      vertex 8.83842 7.62784 -4.8
    endloop
  endfacet
  facet normal 0.915773 0.401696 -4.91936e-17
    outer loop
      vertex 8.83842 7.62784 30
      vertex 9.03745 7.1741 30
      vertex 9.03745 7.1741 -4.8
    endloop
  endfacet
  facet normal 0.915773 0.401696 -4.91936e-17
    outer loop
      vertex 8.83842 7.62784 -4.8
      vertex 8.83842 7.62784 30
      vertex 9.03745 7.1741 -4.8
    endloop
  endfacet
  facet normal -1 0 0
    outer loop
      vertex 0.2 6.2 -3.2
      vertex 0.2 0.2 -3.2
      vertex 0.2 6.2 30
    endloop
  endfacet
  facet normal -1 0 0
    outer loop
      vertex 0.2 6.2 30
      vertex 0.2 0.2 -3.2
      vertex 0.2 0.2 30
    endloop
  endfacet
  facet normal -1 0 0
    outer loop
      vertex -56.8 6.2 -4.8
      vertex -56.8 0.2 -4.8
      vertex -56.8 6.2 -3.2
    endloop
  endfacet
  facet normal -1 0 0
    outer loop
      vertex -56.8 6.2 -3.2
      vertex -56.8 0.2 -4.8
      vertex -56.8 0.2 -3.2
    endloop
  endfacet
  facet normal 0.993712 0.111965 -1.37118e-17
    outer loop
      vertex 2.4 4.6 28.2
      vertex 2.45516 4.11045 28.2
      vertex 2.45516 4.11045 -4.8
    endloop
  endfacet
  facet normal 0.993712 0.111965 -1.37118e-17
    outer loop
      vertex 2.4 4.6 -4.8
      vertex 2.4 4.6 28.2
      vertex 2.45516 4.11045 -4.8
    endloop
  endfacet
  facet normal 0.993712 -0.111965 1.37118e-17
    outer loop
      vertex 2.4 4.6 28.2
      vertex 2.4 4.6 -4.8
      vertex 2.45516 5.08955 -4.8
    endloop
  endfacet
  facet normal 0.993712 -0.111965 1.37118e-17
    outer loop
      vertex 2.45516 5.08955 28.2
      vertex 2.4 4.6 28.2
      vertex 2.45516 5.08955 -4.8
    endloop
  endfacet
  facet normal 0.943884 -0.330278 4.04473e-17
    outer loop
      vertex 2.45516 5.08955 28.2
      vertex 2.45516 5.08955 -4.8
      vertex 2.61787 5.55454 -4.8
    endloop
  endfacet
  facet normal 0.943884 -0.330278 4.04473e-17
    outer loop
      vertex 2.61787 5.55454 28.2
      vertex 2.45516 5.08955 28.2
      vertex 2.61787 5.55454 -4.8
    endloop
  endfacet
  facet normal 0.846724 -0.532033 6.51552e-17
    outer loop
      vertex 2.61787 5.55454 28.2
      vertex 2.61787 5.55454 -4.8
      vertex 2.87997 5.97168 -4.8
    endloop
  endfacet
  facet normal 0.846724 -0.532033 6.51552e-17
    outer loop
      vertex 2.87997 5.97168 28.2
      vertex 2.61787 5.55454 28.2
      vertex 2.87997 5.97168 -4.8
    endloop
  endfacet
  facet normal 0.707107 -0.707107 8.65956e-17
    outer loop
      vertex 2.87997 5.97168 28.2
      vertex 2.87997 5.97168 -4.8
      vertex 3.22832 6.32003 -4.8
    endloop
  endfacet
  facet normal 0.707107 -0.707107 8.65956e-17
    outer loop
      vertex 3.22832 6.32003 28.2
      vertex 2.87997 5.97168 28.2
      vertex 3.22832 6.32003 -4.8
    endloop
  endfacet
  facet normal 0.532033 -0.846724 1.03694e-16
    outer loop
      vertex 3.22832 6.32003 28.2
      vertex 3.22832 6.32003 -4.8
      vertex 3.64546 6.58213 -4.8
    endloop
  endfacet
  facet normal 0.532033 -0.846724 1.03694e-16
    outer loop
      vertex 3.64546 6.58213 28.2
      vertex 3.22832 6.32003 28.2
      vertex 3.64546 6.58213 -4.8
    endloop
  endfacet
  facet normal 0.330278 -0.943884 1.15592e-16
    outer loop
      vertex 3.64546 6.58213 28.2
      vertex 3.64546 6.58213 -4.8
      vertex 4.11045 6.74484 -4.8
    endloop
  endfacet
  facet normal 0.330278 -0.943884 1.15592e-16
    outer loop
      vertex 4.11045 6.74484 28.2
      vertex 3.64546 6.58213 28.2
      vertex 4.11045 6.74484 -4.8
    endloop
  endfacet
  facet normal 0.111965 -0.993712 1.21695e-16
    outer loop
      vertex 4.11045 6.74484 28.2
      vertex 4.11045 6.74484 -4.8
      vertex 4.6 6.8 -4.8
    endloop
  endfacet
  facet normal 0.111965 -0.993712 1.21695e-16
    outer loop
      vertex 4.6 6.8 28.2
      vertex 4.11045 6.74484 28.2
      vertex 4.6 6.8 -4.8
    endloop
  endfacet
  facet normal -0.111965 -0.993712 1.21695e-16
    outer loop
      vertex 4.6 6.8 28.2
      vertex 4.6 6.8 -4.8
      vertex 5.08955 6.74484 -4.8
    endloop
  endfacet
  facet normal -0.111965 -0.993712 1.21695e-16
    outer loop
      vertex 5.08955 6.74484 28.2
      vertex 4.6 6.8 28.2
      vertex 5.08955 6.74484 -4.8
    endloop
  endfacet
  facet normal -0.330278 -0.943884 1.15592e-16
    outer loop
      vertex 5.08955 6.74484 28.2
      vertex 5.08955 6.74484 -4.8
      vertex 5.55454 6.58213 -4.8
    endloop
  endfacet
  facet normal -0.330278 -0.943884 1.15592e-16
    outer loop
      vertex 5.55454 6.58213 28.2
      vertex 5.08955 6.74484 28.2
      vertex 5.55454 6.58213 -4.8
    endloop
  endfacet
  facet normal -0.532033 -0.846724 1.03694e-16
    outer loop
      vertex 5.55454 6.58213 28.2
      vertex 5.55454 6.58213 -4.8
      vertex 5.97168 6.32003 -4.8
    endloop
  endfacet
  facet normal -0.532033 -0.846724 1.03694e-16
    outer loop
      vertex 5.97168 6.32003 28.2
      vertex 5.55454 6.58213 28.2
      vertex 5.97168 6.32003 -4.8
    endloop
  endfacet
  facet normal -0.707107 -0.707107 8.65956e-17
    outer loop
      vertex 5.97168 6.32003 -4.8
      vertex 6.32003 5.97168 -4.8
      vertex 5.97168 6.32003 28.2
    endloop
  endfacet
  facet normal -0.707107 -0.707107 8.65956e-17
    outer loop
      vertex 5.97168 6.32003 28.2
      vertex 6.32003 5.97168 -4.8
      vertex 6.32003 5.97168 28.2
    endloop
  endfacet
  facet normal -0.846724 -0.532033 6.51552e-17
    outer loop
      vertex 6.32003 5.97168 -4.8
      vertex 6.58213 5.55454 -4.8
      vertex 6.32003 5.97168 28.2
    endloop
  endfacet
  facet normal -0.846724 -0.532033 6.51552e-17
    outer loop
      vertex 6.32003 5.97168 28.2
      vertex 6.58213 5.55454 -4.8
      vertex 6.58213 5.55454 28.2
    endloop
  endfacet
  facet normal -0.943884 -0.330278 4.04473e-17
    outer loop
      vertex 6.58213 5.55454 -4.8
      vertex 6.74484 5.08955 -4.8
      vertex 6.58213 5.55454 28.2
    endloop
  endfacet
  facet normal -0.943884 -0.330278 4.04473e-17
    outer loop
      vertex 6.58213 5.55454 28.2
      vertex 6.74484 5.08955 -4.8
      vertex 6.74484 5.08955 28.2
    endloop
  endfacet
  facet normal -0.993712 -0.111965 1.37118e-17
    outer loop
      vertex 6.74484 5.08955 -4.8
      vertex 6.8 4.6 -4.8
      vertex 6.74484 5.08955 28.2
    endloop
  endfacet
  facet normal -0.993712 -0.111965 1.37118e-17
    outer loop
      vertex 6.74484 5.08955 28.2
      vertex 6.8 4.6 -4.8
      vertex 6.8 4.6 28.2
    endloop
  endfacet
  facet normal -0.993712 0.111965 -1.37118e-17
    outer loop
      vertex 6.8 4.6 28.2
      vertex 6.8 4.6 -4.8
      vertex 6.74484 4.11045 28.2
    endloop
  endfacet
  facet normal -0.993712 0.111965 -1.37118e-17
    outer loop
      vertex 6.74484 4.11045 28.2
      vertex 6.8 4.6 -4.8
      vertex 6.74484 4.11045 -4.8
    endloop
  endfacet
  facet normal -0.943884 0.330278 -4.04473e-17
    outer loop
      vertex 6.74484 4.11045 28.2
      vertex 6.74484 4.11045 -4.8
      vertex 6.58213 3.64546 28.2
    endloop
  endfacet
  facet normal -0.943884 0.330278 -4.04473e-17
    outer loop
      vertex 6.58213 3.64546 28.2
      vertex 6.74484 4.11045 -4.8
      vertex 6.58213 3.64546 -4.8
    endloop
  endfacet
  facet normal -0.846724 0.532033 -6.51552e-17
    outer loop
      vertex 6.58213 3.64546 28.2
      vertex 6.58213 3.64546 -4.8
      vertex 6.32003 3.22832 28.2
    endloop
  endfacet
  facet normal -0.846724 0.532033 -6.51552e-17
    outer loop
      vertex 6.32003 3.22832 28.2
      vertex 6.58213 3.64546 -4.8
      vertex 6.32003 3.22832 -4.8
    endloop
  endfacet
  facet normal -0.707107 0.707107 -8.65956e-17
    outer loop
      vertex 6.32003 3.22832 28.2
      vertex 6.32003 3.22832 -4.8
      vertex 5.97168 2.87997 28.2
    endloop
  endfacet
  facet normal -0.707107 0.707107 -8.65956e-17
    outer loop
      vertex 5.97168 2.87997 28.2
      vertex 6.32003 3.22832 -4.8
      vertex 5.97168 2.87997 -4.8
    endloop
  endfacet
  facet normal -0.532033 0.846724 -1.03694e-16
    outer loop
      vertex 5.97168 2.87997 28.2
      vertex 5.97168 2.87997 -4.8
      vertex 5.55454 2.61787 28.2
    endloop
  endfacet
  facet normal -0.532033 0.846724 -1.03694e-16
    outer loop
      vertex 5.55454 2.61787 28.2
      vertex 5.97168 2.87997 -4.8
      vertex 5.55454 2.61787 -4.8
    endloop
  endfacet
  facet normal -0.330278 0.943884 -1.15592e-16
    outer loop
      vertex 5.55454 2.61787 28.2
      vertex 5.55454 2.61787 -4.8
      vertex 5.08955 2.45516 28.2
    endloop
  endfacet
  facet normal -0.330278 0.943884 -1.15592e-16
    outer loop
      vertex 5.08955 2.45516 28.2
      vertex 5.55454 2.61787 -4.8
      vertex 5.08955 2.45516 -4.8
    endloop
  endfacet
  facet normal -0.111965 0.993712 -1.21695e-16
    outer loop
      vertex 5.08955 2.45516 28.2
      vertex 5.08955 2.45516 -4.8
      vertex 4.6 2.4 28.2
    endloop
  endfacet
  facet normal -0.111965 0.993712 -1.21695e-16
    outer loop
      vertex 4.6 2.4 28.2
      vertex 5.08955 2.45516 -4.8
      vertex 4.6 2.4 -4.8
    endloop
  endfacet
  facet normal 0.111965 0.993712 -1.21695e-16
    outer loop
      vertex 4.6 2.4 28.2
      vertex 4.6 2.4 -4.8
      vertex 4.11045 2.45516 28.2
    endloop
  endfacet
  facet normal 0.111965 0.993712 -1.21695e-16
    outer loop
      vertex 4.11045 2.45516 28.2
      vertex 4.6 2.4 -4.8
      vertex 4.11045 2.45516 -4.8
    endloop
  endfacet
  facet normal 0.330278 0.943884 -1.15592e-16
    outer loop
      vertex 4.11045 2.45516 28.2
      vertex 4.11045 2.45516 -4.8
      vertex 3.64546 2.61787 28.2
    endloop
  endfacet
  facet normal 0.330278 0.943884 -1.15592e-16
    outer loop
      vertex 3.64546 2.61787 28.2
      vertex 4.11045 2.45516 -4.8
      vertex 3.64546 2.61787 -4.8
    endloop
  endfacet
  facet normal 0.532033 0.846724 -1.03694e-16
    outer loop
      vertex 3.64546 2.61787 28.2
      vertex 3.64546 2.61787 -4.8
      vertex 3.22832 2.87997 28.2
    endloop
  endfacet
  facet normal 0.532033 0.846724 -1.03694e-16
    outer loop
      vertex 3.22832 2.87997 28.2
      vertex 3.64546 2.61787 -4.8
      vertex 3.22832 2.87997 -4.8
    endloop
  endfacet
  facet normal 0.707107 0.707107 -8.65956e-17
    outer loop
      vertex 2.87997 3.22832 28.2
      vertex 3.22832 2.87997 28.2
      vertex 3.22832 2.87997 -4.8
    endloop
  endfacet
  facet normal 0.707107 0.707107 -8.65956e-17
    outer loop
      vertex 2.87997 3.22832 -4.8
      vertex 2.87997 3.22832 28.2
      vertex 3.22832 2.87997 -4.8
    endloop
  endfacet
  facet normal 0.846724 0.532033 -6.51552e-17
    outer loop
      vertex 2.61787 3.64546 28.2
      vertex 2.87997 3.22832 28.2
      vertex 2.87997 3.22832 -4.8
    endloop
  endfacet
  facet normal 0.846724 0.532033 -6.51552e-17
    outer loop
      vertex 2.61787 3.64546 -4.8
      vertex 2.61787 3.64546 28.2
      vertex 2.87997 3.22832 -4.8
    endloop
  endfacet
  facet normal 0.943884 0.330278 -4.04473e-17
    outer loop
      vertex 2.45516 4.11045 28.2
      vertex 2.61787 3.64546 28.2
      vertex 2.61787 3.64546 -4.8
    endloop
  endfacet
  facet normal 0.943884 0.330278 -4.04473e-17
    outer loop
      vertex 2.45516 4.11045 -4.8
      vertex 2.45516 4.11045 28.2
      vertex 2.61787 3.64546 -4.8
    endloop
  endfacet
  facet normal 0 1.22465e-16 1
    outer loop
      vertex -56.8 6.2 -3.2
      vertex -56.8 0.2 -3.2
      vertex 0.2 0.2 -3.2
    endloop
  endfacet
  facet normal 0 1.22465e-16 1
    outer loop
      vertex 0.2 6.2 -3.2
      vertex -56.8 6.2 -3.2
      vertex 0.2 0.2 -3.2
    endloop
  endfacet
  facet normal 0.993759 -1.11076e-17 0.111544
    outer loop
      vertex -17.2 9.18975 15
      vertex -17.2 6.2 15
      vertex -17.145 6.2 14.51
    endloop
  endfacet
  facet normal 0.993759 -1.11076e-17 0.111544
    outer loop
      vertex -17.145 9.18975 14.51
      vertex -17.2 9.18975 15
      vertex -17.145 6.2 14.51
    endloop
  endfacet
  facet normal 0.993759 1.11076e-17 -0.111544
    outer loop
      vertex -17.2 9.18975 15
      vertex -17.145 9.18975 15.49
      vertex -17.145 6.2 15.49
    endloop
  endfacet
  facet normal 0.993759 1.11076e-17 -0.111544
    outer loop
      vertex -17.2 6.2 15
      vertex -17.2 9.18975 15
      vertex -17.145 6.2 15.49
    endloop
  endfacet
  facet normal 0.9437 -3.29413e-17 0.330802
    outer loop
      vertex -17.145 9.18975 14.51
      vertex -17.145 6.2 14.51
      vertex -16.982 6.2 14.045
    endloop
  endfacet
  facet normal 0.9437 -3.29413e-17 0.330802
    outer loop
      vertex -16.982 9.18975 14.045
      vertex -17.145 9.18975 14.51
      vertex -16.982 6.2 14.045
    endloop
  endfacet
  facet normal 0.846741 -5.2977e-17 0.532005
    outer loop
      vertex -16.982 9.18975 14.045
      vertex -16.982 6.2 14.045
      vertex -16.72 6.2 13.628
    endloop
  endfacet
  facet normal 0.846741 -5.2977e-17 0.532005
    outer loop
      vertex -16.72 9.18975 13.628
      vertex -16.982 9.18975 14.045
      vertex -16.72 6.2 13.628
    endloop
  endfacet
  facet normal 0.707107 -7.04136e-17 0.707107
    outer loop
      vertex -16.72 9.18975 13.628
      vertex -16.72 6.2 13.628
      vertex -16.372 6.2 13.28
    endloop
  endfacet
  facet normal 0.707107 -7.04136e-17 0.707107
    outer loop
      vertex -16.372 9.18975 13.28
      vertex -16.72 9.18975 13.628
      vertex -16.372 6.2 13.28
    endloop
  endfacet
  facet normal 0.532005 -8.43184e-17 0.846741
    outer loop
      vertex -16.372 9.18975 13.28
      vertex -16.372 6.2 13.28
      vertex -15.955 6.2 13.018
    endloop
  endfacet
  facet normal 0.532005 -8.43184e-17 0.846741
    outer loop
      vertex -15.955 9.18975 13.018
      vertex -16.372 9.18975 13.28
      vertex -15.955 6.2 13.018
    endloop
  endfacet
  facet normal 0.330802 -9.39736e-17 0.9437
    outer loop
      vertex -15.955 9.18975 13.018
      vertex -15.955 6.2 13.018
      vertex -15.49 6.2 12.855
    endloop
  endfacet
  facet normal 0.330802 -9.39736e-17 0.9437
    outer loop
      vertex -15.49 9.18975 12.855
      vertex -15.955 9.18975 13.018
      vertex -15.49 6.2 12.855
    endloop
  endfacet
  facet normal 0.111544 -9.89585e-17 0.993759
    outer loop
      vertex -15.49 9.18975 12.855
      vertex -15.49 6.2 12.855
      vertex -15 6.2 12.8
    endloop
  endfacet
  facet normal 0.111544 -9.89585e-17 0.993759
    outer loop
      vertex -15 9.18975 12.8
      vertex -15.49 9.18975 12.855
      vertex -15 6.2 12.8
    endloop
  endfacet
  facet normal -0.111544 -9.89585e-17 0.993759
    outer loop
      vertex -15 9.18975 12.8
      vertex -15 6.2 12.8
      vertex -14.51 6.2 12.855
    endloop
  endfacet
  facet normal -0.111544 -9.89585e-17 0.993759
    outer loop
      vertex -14.51 9.18975 12.855
      vertex -15 9.18975 12.8
      vertex -14.51 6.2 12.855
    endloop
  endfacet
  facet normal -0.330802 -9.39736e-17 0.9437
    outer loop
      vertex -14.51 9.18975 12.855
      vertex -14.51 6.2 12.855
      vertex -14.045 6.2 13.018
    endloop
  endfacet
  facet normal -0.330802 -9.39736e-17 0.9437
    outer loop
      vertex -14.045 9.18975 13.018
      vertex -14.51 9.18975 12.855
      vertex -14.045 6.2 13.018
    endloop
  endfacet
  facet normal -0.532005 -8.43184e-17 0.846741
    outer loop
      vertex -14.045 9.18975 13.018
      vertex -14.045 6.2 13.018
      vertex -13.628 6.2 13.28
    endloop
  endfacet
  facet normal -0.532005 -8.43184e-17 0.846741
    outer loop
      vertex -13.628 9.18975 13.28
      vertex -14.045 9.18975 13.018
      vertex -13.628 6.2 13.28
    endloop
  endfacet
  facet normal -0.707107 -7.04136e-17 0.707107
    outer loop
      vertex -13.628 6.2 13.28
      vertex -13.28 6.2 13.628
      vertex -13.628 9.18975 13.28
    endloop
  endfacet
  facet normal -0.707107 -7.04136e-17 0.707107
    outer loop
      vertex -13.628 9.18975 13.28
      vertex -13.28 6.2 13.628
      vertex -13.28 9.18975 13.628
    endloop
  endfacet
  facet normal -0.846741 -5.2977e-17 0.532005
    outer loop
      vertex -13.28 6.2 13.628
      vertex -13.018 6.2 14.045
      vertex -13.28 9.18975 13.628
    endloop
  endfacet
  facet normal -0.846741 -5.2977e-17 0.532005
    outer loop
      vertex -13.28 9.18975 13.628
      vertex -13.018 6.2 14.045
      vertex -13.018 9.18975 14.045
    endloop
  endfacet
  facet normal -0.9437 -3.29413e-17 0.330802
    outer loop
      vertex -13.018 6.2 14.045
      vertex -12.855 6.2 14.51
      vertex -13.018 9.18975 14.045
    endloop
  endfacet
  facet normal -0.9437 -3.29413e-17 0.330802
    outer loop
      vertex -13.018 9.18975 14.045
      vertex -12.855 6.2 14.51
      vertex -12.855 9.18975 14.51
    endloop
  endfacet
  facet normal -0.993759 -1.11076e-17 0.111544
    outer loop
      vertex -12.855 6.2 14.51
      vertex -12.8 6.2 15
      vertex -12.855 9.18975 14.51
    endloop
  endfacet
  facet normal -0.993759 -1.11076e-17 0.111544
    outer loop
      vertex -12.855 9.18975 14.51
      vertex -12.8 6.2 15
      vertex -12.8 9.18975 15
    endloop
  endfacet
  facet normal -0.993759 1.11076e-17 -0.111544
    outer loop
      vertex -12.8 9.18975 15
      vertex -12.8 6.2 15
      vertex -12.855 9.18975 15.49
    endloop
  endfacet
  facet normal -0.993759 1.11076e-17 -0.111544
    outer loop
      vertex -12.855 9.18975 15.49
      vertex -12.8 6.2 15
      vertex -12.855 6.2 15.49
    endloop
  endfacet
  facet normal -0.9437 3.29413e-17 -0.330802
    outer loop
      vertex -12.855 9.18975 15.49
      vertex -12.855 6.2 15.49
      vertex -13.018 9.18975 15.955
    endloop
  endfacet
  facet normal -0.9437 3.29413e-17 -0.330802
    outer loop
      vertex -13.018 9.18975 15.955
      vertex -12.855 6.2 15.49
      vertex -13.018 6.2 15.955
    endloop
  endfacet
  facet normal -0.846741 5.2977e-17 -0.532005
    outer loop
      vertex -13.018 9.18975 15.955
      vertex -13.018 6.2 15.955
      vertex -13.28 9.18975 16.372
    endloop
  endfacet
  facet normal -0.846741 5.2977e-17 -0.532005
    outer loop
      vertex -13.28 9.18975 16.372
      vertex -13.018 6.2 15.955
      vertex -13.28 6.2 16.372
    endloop
  endfacet
  facet normal -0.707107 7.04136e-17 -0.707107
    outer loop
      vertex -13.28 9.18975 16.372
      vertex -13.28 6.2 16.372
      vertex -13.454 9.18975 16.546
    endloop
  endfacet
  facet normal -0.707107 7.04136e-17 -0.707107
    outer loop
      vertex -13.454 9.18975 16.546
      vertex -13.28 6.2 16.372
      vertex -13.454 6.2 16.546
    endloop
  endfacet
  facet normal -0.707107 -7.04136e-17 0.707107
    outer loop
      vertex -13.454 6.2 16.546
      vertex -13.444 6.2 16.556
      vertex -13.454 9.18975 16.546
    endloop
  endfacet
  facet normal -0.707107 -7.04136e-17 0.707107
    outer loop
      vertex -13.454 9.18975 16.546
      vertex -13.444 6.2 16.556
      vertex -13.444 9.18975 16.556
    endloop
  endfacet
  facet normal -0.706879 7.04363e-17 -0.707334
    outer loop
      vertex -13.444 9.18975 16.556
      vertex -13.444 6.2 16.556
      vertex -14.0884 9.18975 17.2
    endloop
  endfacet
  facet normal -0.706879 7.04363e-17 -0.707334
    outer loop
      vertex -14.0884 9.18975 17.2
      vertex -13.444 6.2 16.556
      vertex -14.0884 6.2 17.2
    endloop
  endfacet
  facet normal 1.22465e-16 9.95799e-17 -1
    outer loop
      vertex -14.0884 9.18975 17.2
      vertex -14.0884 6.2 17.2
      vertex -15.9116 9.18975 17.2
    endloop
  endfacet
  facet normal 1.22465e-16 9.95799e-17 -1
    outer loop
      vertex -15.9116 9.18975 17.2
      vertex -14.0884 6.2 17.2
      vertex -15.9116 6.2 17.2
    endloop
  endfacet
  facet normal 0.706879 7.04363e-17 -0.707334
    outer loop
      vertex -15.9116 9.18975 17.2
      vertex -15.9116 6.2 17.2
      vertex -16.556 9.18975 16.556
    endloop
  endfacet
  facet normal 0.706879 7.04363e-17 -0.707334
    outer loop
      vertex -16.556 9.18975 16.556
      vertex -15.9116 6.2 17.2
      vertex -16.556 6.2 16.556
    endloop
  endfacet
  facet normal 0.707107 -7.04136e-17 0.707107
    outer loop
      vertex -16.556 9.18975 16.556
      vertex -16.556 6.2 16.556
      vertex -16.546 6.2 16.546
    endloop
  endfacet
  facet normal 0.707107 -7.04136e-17 0.707107
    outer loop
      vertex -16.546 9.18975 16.546
      vertex -16.556 9.18975 16.556
      vertex -16.546 6.2 16.546
    endloop
  endfacet
  facet normal 0.707107 7.04136e-17 -0.707107
    outer loop
      vertex -16.72 9.18975 16.372
      vertex -16.546 9.18975 16.546
      vertex -16.546 6.2 16.546
    endloop
  endfacet
  facet normal 0.707107 7.04136e-17 -0.707107
    outer loop
      vertex -16.72 6.2 16.372
      vertex -16.72 9.18975 16.372
      vertex -16.546 6.2 16.546
    endloop
  endfacet
  facet normal 0.846741 5.2977e-17 -0.532005
    outer loop
      vertex -16.982 9.18975 15.955
      vertex -16.72 9.18975 16.372
      vertex -16.72 6.2 16.372
    endloop
  endfacet
  facet normal 0.846741 5.2977e-17 -0.532005
    outer loop
      vertex -16.982 6.2 15.955
      vertex -16.982 9.18975 15.955
      vertex -16.72 6.2 16.372
    endloop
  endfacet
  facet normal 0.9437 3.29413e-17 -0.330802
    outer loop
      vertex -17.145 9.18975 15.49
      vertex -16.982 9.18975 15.955
      vertex -16.982 6.2 15.955
    endloop
  endfacet
  facet normal 0.9437 3.29413e-17 -0.330802
    outer loop
      vertex -17.145 6.2 15.49
      vertex -17.145 9.18975 15.49
      vertex -16.982 6.2 15.955
    endloop
  endfacet
  facet normal 0.993759 -1.11076e-17 0.111544
    outer loop
      vertex -47.2 9.18975 15
      vertex -47.2 6.2 15
      vertex -47.145 6.2 14.51
    endloop
  endfacet
  facet normal 0.993759 -1.11076e-17 0.111544
    outer loop
      vertex -47.145 9.18975 14.51
      vertex -47.2 9.18975 15
      vertex -47.145 6.2 14.51
    endloop
  endfacet
  facet normal 0.993759 1.11076e-17 -0.111544
    outer loop
      vertex -47.2 9.18975 15
      vertex -47.145 9.18975 15.49
      vertex -47.145 6.2 15.49
    endloop
  endfacet
  facet normal 0.993759 1.11076e-17 -0.111544
    outer loop
      vertex -47.2 6.2 15
      vertex -47.2 9.18975 15
      vertex -47.145 6.2 15.49
    endloop
  endfacet
  facet normal 0.9437 -3.29413e-17 0.330802
    outer loop
      vertex -47.145 9.18975 14.51
      vertex -47.145 6.2 14.51
      vertex -46.982 6.2 14.045
    endloop
  endfacet
  facet normal 0.9437 -3.29413e-17 0.330802
    outer loop
      vertex -46.982 9.18975 14.045
      vertex -47.145 9.18975 14.51
      vertex -46.982 6.2 14.045
    endloop
  endfacet
  facet normal 0.846741 -5.2977e-17 0.532005
    outer loop
      vertex -46.982 9.18975 14.045
      vertex -46.982 6.2 14.045
      vertex -46.72 6.2 13.628
    endloop
  endfacet
  facet normal 0.846741 -5.2977e-17 0.532005
    outer loop
      vertex -46.72 9.18975 13.628
      vertex -46.982 9.18975 14.045
      vertex -46.72 6.2 13.628
    endloop
  endfacet
  facet normal 0.707107 -7.04136e-17 0.707107
    outer loop
      vertex -46.72 9.18975 13.628
      vertex -46.72 6.2 13.628
      vertex -46.372 6.2 13.28
    endloop
  endfacet
  facet normal 0.707107 -7.04136e-17 0.707107
    outer loop
      vertex -46.372 9.18975 13.28
      vertex -46.72 9.18975 13.628
      vertex -46.372 6.2 13.28
    endloop
  endfacet
  facet normal 0.532005 -8.43184e-17 0.846741
    outer loop
      vertex -46.372 9.18975 13.28
      vertex -46.372 6.2 13.28
      vertex -45.955 6.2 13.018
    endloop
  endfacet
  facet normal 0.532005 -8.43184e-17 0.846741
    outer loop
      vertex -45.955 9.18975 13.018
      vertex -46.372 9.18975 13.28
      vertex -45.955 6.2 13.018
    endloop
  endfacet
  facet normal 0.330802 -9.39736e-17 0.9437
    outer loop
      vertex -45.955 9.18975 13.018
      vertex -45.955 6.2 13.018
      vertex -45.49 6.2 12.855
    endloop
  endfacet
  facet normal 0.330802 -9.39736e-17 0.9437
    outer loop
      vertex -45.49 9.18975 12.855
      vertex -45.955 9.18975 13.018
      vertex -45.49 6.2 12.855
    endloop
  endfacet
  facet normal 0.111544 -9.89585e-17 0.993759
    outer loop
      vertex -45.49 9.18975 12.855
      vertex -45.49 6.2 12.855
      vertex -45 6.2 12.8
    endloop
  endfacet
  facet normal 0.111544 -9.89585e-17 0.993759
    outer loop
      vertex -45 9.18975 12.8
      vertex -45.49 9.18975 12.855
      vertex -45 6.2 12.8
    endloop
  endfacet
  facet normal -0.111544 -9.89585e-17 0.993759
    outer loop
      vertex -45 9.18975 12.8
      vertex -45 6.2 12.8
      vertex -44.51 6.2 12.855
    endloop
  endfacet
  facet normal -0.111544 -9.89585e-17 0.993759
    outer loop
      vertex -44.51 9.18975 12.855
      vertex -45 9.18975 12.8
      vertex -44.51 6.2 12.855
    endloop
  endfacet
  facet normal -0.330802 -9.39736e-17 0.9437
    outer loop
      vertex -44.51 9.18975 12.855
      vertex -44.51 6.2 12.855
      vertex -44.045 6.2 13.018
    endloop
  endfacet
  facet normal -0.330802 -9.39736e-17 0.9437
    outer loop
      vertex -44.045 9.18975 13.018
      vertex -44.51 9.18975 12.855
      vertex -44.045 6.2 13.018
    endloop
  endfacet
  facet normal -0.532005 -8.43184e-17 0.846741
    outer loop
      vertex -44.045 9.18975 13.018
      vertex -44.045 6.2 13.018
      vertex -43.628 6.2 13.28
    endloop
  endfacet
  facet normal -0.532005 -8.43184e-17 0.846741
    outer loop
      vertex -43.628 9.18975 13.28
      vertex -44.045 9.18975 13.018
      vertex -43.628 6.2 13.28
    endloop
  endfacet
  facet normal -0.707107 -7.04136e-17 0.707107
    outer loop
      vertex -43.628 6.2 13.28
      vertex -43.28 6.2 13.628
      vertex -43.628 9.18975 13.28
    endloop
  endfacet
  facet normal -0.707107 -7.04136e-17 0.707107
    outer loop
      vertex -43.628 9.18975 13.28
      vertex -43.28 6.2 13.628
      vertex -43.28 9.18975 13.628
    endloop
  endfacet
  facet normal -0.846741 -5.2977e-17 0.532005
    outer loop
      vertex -43.28 6.2 13.628
      vertex -43.018 6.2 14.045
      vertex -43.28 9.18975 13.628
    endloop
  endfacet
  facet normal -0.846741 -5.2977e-17 0.532005
    outer loop
      vertex -43.28 9.18975 13.628
      vertex -43.018 6.2 14.045
      vertex -43.018 9.18975 14.045
    endloop
  endfacet
  facet normal -0.9437 -3.29413e-17 0.330802
    outer loop
      vertex -43.018 6.2 14.045
      vertex -42.855 6.2 14.51
      vertex -43.018 9.18975 14.045
    endloop
  endfacet
  facet normal -0.9437 -3.29413e-17 0.330802
    outer loop
      vertex -43.018 9.18975 14.045
      vertex -42.855 6.2 14.51
      vertex -42.855 9.18975 14.51
    endloop
  endfacet
  facet normal -0.993759 -1.11076e-17 0.111544
    outer loop
      vertex -42.855 6.2 14.51
      vertex -42.8 6.2 15
      vertex -42.855 9.18975 14.51
    endloop
  endfacet
  facet normal -0.993759 -1.11076e-17 0.111544
    outer loop
      vertex -42.855 9.18975 14.51
      vertex -42.8 6.2 15
      vertex -42.8 9.18975 15
    endloop
  endfacet
  facet normal -0.993759 1.11076e-17 -0.111544
    outer loop
      vertex -42.8 9.18975 15
      vertex -42.8 6.2 15
      vertex -42.855 9.18975 15.49
    endloop
  endfacet
  facet normal -0.993759 1.11076e-17 -0.111544
    outer loop
      vertex -42.855 9.18975 15.49
      vertex -42.8 6.2 15
      vertex -42.855 6.2 15.49
    endloop
  endfacet
  facet normal -0.9437 3.29413e-17 -0.330802
    outer loop
      vertex -42.855 9.18975 15.49
      vertex -42.855 6.2 15.49
      vertex -43.018 9.18975 15.955
    endloop
  endfacet
  facet normal -0.9437 3.29413e-17 -0.330802
    outer loop
      vertex -43.018 9.18975 15.955
      vertex -42.855 6.2 15.49
      vertex -43.018 6.2 15.955
    endloop
  endfacet
  facet normal -0.846741 5.2977e-17 -0.532005
    outer loop
      vertex -43.018 9.18975 15.955
      vertex -43.018 6.2 15.955
      vertex -43.28 9.18975 16.372
    endloop
  endfacet
  facet normal -0.846741 5.2977e-17 -0.532005
    outer loop
      vertex -43.28 9.18975 16.372
      vertex -43.018 6.2 15.955
      vertex -43.28 6.2 16.372
    endloop
  endfacet
  facet normal -0.707107 7.04136e-17 -0.707107
    outer loop
      vertex -43.28 9.18975 16.372
      vertex -43.28 6.2 16.372
      vertex -43.454 9.18975 16.546
    endloop
  endfacet
  facet normal -0.707107 7.04136e-17 -0.707107
    outer loop
      vertex -43.454 9.18975 16.546
      vertex -43.28 6.2 16.372
      vertex -43.454 6.2 16.546
    endloop
  endfacet
  facet normal -0.707107 -7.04136e-17 0.707107
    outer loop
      vertex -43.454 6.2 16.546
      vertex -43.444 6.2 16.556
      vertex -43.454 9.18975 16.546
    endloop
  endfacet
  facet normal -0.707107 -7.04136e-17 0.707107
    outer loop
      vertex -43.454 9.18975 16.546
      vertex -43.444 6.2 16.556
      vertex -43.444 9.18975 16.556
    endloop
  endfacet
  facet normal -0.706879 7.04363e-17 -0.707334
    outer loop
      vertex -43.444 9.18975 16.556
      vertex -43.444 6.2 16.556
      vertex -44.0884 9.18975 17.2
    endloop
  endfacet
  facet normal -0.706879 7.04363e-17 -0.707334
    outer loop
      vertex -44.0884 9.18975 17.2
      vertex -43.444 6.2 16.556
      vertex -44.0884 6.2 17.2
    endloop
  endfacet
  facet normal 1.22465e-16 9.95799e-17 -1
    outer loop
      vertex -44.0884 9.18975 17.2
      vertex -44.0884 6.2 17.2
      vertex -45.9116 9.18975 17.2
    endloop
  endfacet
  facet normal 1.22465e-16 9.95799e-17 -1
    outer loop
      vertex -45.9116 9.18975 17.2
      vertex -44.0884 6.2 17.2
      vertex -45.9116 6.2 17.2
    endloop
  endfacet
  facet normal 0.706879 7.04363e-17 -0.707334
    outer loop
      vertex -45.9116 9.18975 17.2
      vertex -45.9116 6.2 17.2
      vertex -46.556 9.18975 16.556
    endloop
  endfacet
  facet normal 0.706879 7.04363e-17 -0.707334
    outer loop
      vertex -46.556 9.18975 16.556
      vertex -45.9116 6.2 17.2
      vertex -46.556 6.2 16.556
    endloop
  endfacet
  facet normal 0.707107 -7.04136e-17 0.707107
    outer loop
      vertex -46.556 9.18975 16.556
      vertex -46.556 6.2 16.556
      vertex -46.546 6.2 16.546
    endloop
  endfacet
  facet normal 0.707107 -7.04136e-17 0.707107
    outer loop
      vertex -46.546 9.18975 16.546
      vertex -46.556 9.18975 16.556
      vertex -46.546 6.2 16.546
    endloop
  endfacet
  facet normal 0.707107 7.04136e-17 -0.707107
    outer loop
      vertex -46.72 9.18975 16.372
      vertex -46.546 9.18975 16.546
      vertex -46.546 6.2 16.546
    endloop
  endfacet
  facet normal 0.707107 7.04136e-17 -0.707107
    outer loop
      vertex -46.72 6.2 16.372
      vertex -46.72 9.18975 16.372
      vertex -46.546 6.2 16.546
    endloop
  endfacet
  facet normal 0.846741 5.2977e-17 -0.532005
    outer loop
      vertex -46.982 9.18975 15.955
      vertex -46.72 9.18975 16.372
      vertex -46.72 6.2 16.372
    endloop
  endfacet
  facet normal 0.846741 5.2977e-17 -0.532005
    outer loop
      vertex -46.982 6.2 15.955
      vertex -46.982 9.18975 15.955
      vertex -46.72 6.2 16.372
    endloop
  endfacet
  facet normal 0.9437 3.29413e-17 -0.330802
    outer loop
      vertex -47.145 9.18975 15.49
      vertex -46.982 9.18975 15.955
      vertex -46.982 6.2 15.955
    endloop
  endfacet
  facet normal 0.9437 3.29413e-17 -0.330802
    outer loop
      vertex -47.145 6.2 15.49
      vertex -47.145 9.18975 15.49
      vertex -46.982 6.2 15.955
    endloop
  endfacet
  facet normal 0 -1.22465e-16 -1
    outer loop
      vertex 2.45516 5.08955 28.2
      vertex 2.61787 5.55454 28.2
      vertex 2.4 4.6 28.2
    endloop
  endfacet
  facet normal 0 -1.22465e-16 -1
    outer loop
      vertex 2.4 4.6 28.2
      vertex 2.61787 5.55454 28.2
      vertex 2.87997 5.97168 28.2
    endloop
  endfacet
  facet normal 0 -1.22465e-16 -1
    outer loop
      vertex 2.4 4.6 28.2
      vertex 2.87997 5.97168 28.2
      vertex 3.22832 6.32003 28.2
    endloop
  endfacet
  facet normal 0 -1.22465e-16 -1
    outer loop
      vertex 2.4 4.6 28.2
      vertex 3.22832 6.32003 28.2
      vertex 3.64546 6.58213 28.2
    endloop
  endfacet
  facet normal 0 -1.22465e-16 -1
    outer loop
      vertex 2.4 4.6 28.2
      vertex 3.64546 6.58213 28.2
      vertex 4.11045 6.74484 28.2
    endloop
  endfacet
  facet normal 0 -1.22465e-16 -1
    outer loop
      vertex 2.4 4.6 28.2
      vertex 4.11045 6.74484 28.2
      vertex 4.6 6.8 28.2
    endloop
  endfacet
  facet normal 0 -1.22465e-16 -1
    outer loop
      vertex 2.4 4.6 28.2
      vertex 4.6 6.8 28.2
      vertex 5.08955 6.74484 28.2
    endloop
  endfacet
  facet normal 0 -1.22465e-16 -1
    outer loop
      vertex 2.4 4.6 28.2
      vertex 5.08955 6.74484 28.2
      vertex 5.55454 6.58213 28.2
    endloop
  endfacet
  facet normal 0 -1.22465e-16 -1
    outer loop
      vertex 2.4 4.6 28.2
      vertex 5.55454 6.58213 28.2
      vertex 5.97168 6.32003 28.2
    endloop
  endfacet
  facet normal 0 -1.22465e-16 -1
    outer loop
      vertex 2.4 4.6 28.2
      vertex 5.97168 6.32003 28.2
      vertex 6.32003 5.97168 28.2
    endloop
  endfacet
  facet normal 0 -1.22465e-16 -1
    outer loop
      vertex 2.4 4.6 28.2
      vertex 6.32003 5.97168 28.2
      vertex 6.58213 5.55454 28.2
    endloop
  endfacet
  facet normal 0 -1.22465e-16 -1
    outer loop
      vertex 2.4 4.6 28.2
      vertex 6.58213 5.55454 28.2
      vertex 6.74484 5.08955 28.2
    endloop
  endfacet
  facet normal 0 -1.22465e-16 -1
    outer loop
      vertex 2.4 4.6 28.2
      vertex 6.74484 5.08955 28.2
      vertex 6.8 4.6 28.2
    endloop
  endfacet
  facet normal 0 -1.22465e-16 -1
    outer loop
      vertex 2.4 4.6 28.2
      vertex 6.8 4.6 28.2
      vertex 6.74484 4.11045 28.2
    endloop
  endfacet
  facet normal 0 -1.22465e-16 -1
    outer loop
      vertex 2.4 4.6 28.2
      vertex 6.74484 4.11045 28.2
      vertex 6.58213 3.64546 28.2
    endloop
  endfacet
  facet normal 0 -1.22465e-16 -1
    outer loop
      vertex 2.4 4.6 28.2
      vertex 6.58213 3.64546 28.2
      vertex 6.32003 3.22832 28.2
    endloop
  endfacet
  facet normal 0 -1.22465e-16 -1
    outer loop
      vertex 2.4 4.6 28.2
      vertex 6.32003 3.22832 28.2
      vertex 5.97168 2.87997 28.2
    endloop
  endfacet
  facet normal 0 -1.22465e-16 -1
    outer loop
      vertex 2.4 4.6 28.2
      vertex 5.97168 2.87997 28.2
      vertex 5.55454 2.61787 28.2
    endloop
  endfacet
  facet normal 0 -1.22465e-16 -1
    outer loop
      vertex 2.4 4.6 28.2
      vertex 5.55454 2.61787 28.2
      vertex 5.08955 2.45516 28.2
    endloop
  endfacet
  facet normal 0 -1.22465e-16 -1
    outer loop
      vertex 2.4 4.6 28.2
      vertex 5.08955 2.45516 28.2
      vertex 4.6 2.4 28.2
    endloop
  endfacet
  facet normal 0 -1.22465e-16 -1
    outer loop
      vertex 2.4 4.6 28.2
      vertex 4.6 2.4 28.2
      vertex 4.11045 2.45516 28.2
    endloop
  endfacet
  facet normal 0 -1.22465e-16 -1
    outer loop
      vertex 2.4 4.6 28.2
      vertex 4.11045 2.45516 28.2
      vertex 3.64546 2.61787 28.2
    endloop
  endfacet
  facet normal 0 -1.22465e-16 -1
    outer loop
      vertex 2.4 4.6 28.2
      vertex 3.64546 2.61787 28.2
      vertex 3.22832 2.87997 28.2
    endloop
  endfacet
  facet normal 0 -1.22465e-16 -1
    outer loop
      vertex 2.4 4.6 28.2
      vertex 3.22832 2.87997 28.2
      vertex 2.87997 3.22832 28.2
    endloop
  endfacet
  facet normal 0 -1.22465e-16 -1
    outer loop
      vertex 2.4 4.6 28.2
      vertex 2.87997 3.22832 28.2
      vertex 2.61787 3.64546 28.2
    endloop
  endfacet
  facet normal 0 -1.22465e-16 -1
    outer loop
      vertex 2.4 4.6 28.2
      vertex 2.61787 3.64546 28.2
      vertex 2.45516 4.11045 28.2
    endloop
  endfacet
endsolid OpenSCAD_Model
