solid OpenSCAD_Model
  facet normal 0 0 -1
    outer loop
      vertex -4.9 0 0
      vertex -4.87486 0.495725 0
      vertex -4.87486 -0.495725 0
    endloop
  endfacet
  facet normal 0 0 -1
    outer loop
      vertex -4.87486 -0.495725 0
      vertex -4.87486 0.495725 0
      vertex -4.7997 0.986363 0
    endloop
  endfacet
  facet normal 0 0 -1
    outer loop
      vertex -4.87486 -0.495725 0
      vertex -4.7997 0.986363 0
      vertex -4.67528 1.46688 0
    endloop
  endfacet
  facet normal 0 0 -1
    outer loop
      vertex -4.87486 -0.495725 0
      vertex -4.67528 1.46688 0
      vertex -4.50289 1.93234 0
    endloop
  endfacet
  facet normal 0 0 -1
    outer loop
      vertex -4.87486 -0.495725 0
      vertex -4.50289 1.93234 0
      vertex -4.2843 2.37798 0
    endloop
  endfacet
  facet normal 0 0 -1
    outer loop
      vertex -4.87486 -0.495725 0
      vertex -4.2843 2.37798 0
      vertex -4.02174 2.79921 0
    endloop
  endfacet
  facet normal 0 0 -1
    outer loop
      vertex -4.87486 -0.495725 0
      vertex -4.02174 2.79921 0
      vertex -3.71791 3.19172 0
    endloop
  endfacet
  facet normal 0 0 -1
    outer loop
      vertex -4.87486 -0.495725 0
      vertex -3.71791 3.19172 0
      vertex -3.37594 3.55149 0
    endloop
  endfacet
  facet normal 0 0 -1
    outer loop
      vertex -4.87486 -0.495725 0
      vertex -3.37594 3.55149 0
      vertex -2.99932 3.8748 0
    endloop
  endfacet
  facet normal 0 0 -1
    outer loop
      vertex -4.87486 -0.495725 0
      vertex -2.99932 3.8748 0
      vertex -2.59192 4.15836 0
    endloop
  endfacet
  facet normal 0 0 -1
    outer loop
      vertex -4.87486 -0.495725 0
      vertex -2.59192 4.15836 0
      vertex -2.15793 4.39924 0
    endloop
  endfacet
  facet normal 0 0 -1
    outer loop
      vertex -4.87486 -0.495725 0
      vertex -2.15793 4.39924 0
      vertex -1.7018 4.59498 0
    endloop
  endfacet
  facet normal 0 0 -1
    outer loop
      vertex -4.87486 -0.495725 0
      vertex -1.7018 4.59498 0
      vertex -1.2282 4.74358 0
    endloop
  endfacet
  facet normal 0 0 -1
    outer loop
      vertex -4.87486 -0.495725 0
      vertex -1.2282 4.74358 0
      vertex -0.741996 4.84349 0
    endloop
  endfacet
  facet normal 0 0 -1
    outer loop
      vertex -4.87486 -0.495725 0
      vertex -0.741996 4.84349 0
      vertex -0.248181 4.89371 0
    endloop
  endfacet
  facet normal 0 0 -1
    outer loop
      vertex -4.87486 -0.495725 0
      vertex -0.248181 4.89371 0
      vertex 0.248181 4.89371 0
    endloop
  endfacet
  facet normal 0 0 -1
    outer loop
      vertex -4.87486 -0.495725 0
      vertex 0.248181 4.89371 0
      vertex 0.741996 4.84349 0
    endloop
  endfacet
  facet normal 0 0 -1
    outer loop
      vertex -4.87486 -0.495725 0
      vertex 0.741996 4.84349 0
      vertex 1.2282 4.74358 0
    endloop
  endfacet
  facet normal 0 0 -1
    outer loop
      vertex -4.87486 -0.495725 0
      vertex 1.2282 4.74358 0
      vertex 1.7018 4.59498 0
    endloop
  endfacet
  facet normal 0 0 -1
    outer loop
      vertex -4.87486 -0.495725 0
      vertex 1.7018 4.59498 0
      vertex 2.15793 4.39924 0
    endloop
  endfacet
  facet normal 0 0 -1
    outer loop
      vertex -0.954544 1.98213 0
      vertex 2.15793 4.39924 0
      vertex 2.59192 4.15836 0
    endloop
  endfacet
  facet normal 0 0 -1
    outer loop
      vertex -0.489546 2.14484 0
      vertex 2.59192 4.15836 0
      vertex 2.99932 3.8748 0
    endloop
  endfacet
  facet normal 0 0 -1
    outer loop
      vertex 0.489546 2.14484 0
      vertex 2.99932 3.8748 0
      vertex 3.37594 3.55149 0
    endloop
  endfacet
  facet normal 0 0 -1
    outer loop
      vertex 0.954544 1.98213 0
      vertex 3.71791 3.19172 0
      vertex 4.02174 2.79921 0
    endloop
  endfacet
  facet normal 0 0 -1
    outer loop
      vertex 1.37168 1.72003 0
      vertex 4.02174 2.79921 0
      vertex 4.2843 2.37798 0
    endloop
  endfacet
  facet normal 0 0 -1
    outer loop
      vertex 1.72003 1.37168 0
      vertex 4.2843 2.37798 0
      vertex 4.50289 1.93234 0
    endloop
  endfacet
  facet normal 0 0 -1
    outer loop
      vertex 1.98213 0.954544 0
      vertex 4.50289 1.93234 0
      vertex 4.67528 1.46688 0
    endloop
  endfacet
  facet normal 0 0 -1
    outer loop
      vertex 2.14484 0.489546 0
      vertex 4.7997 0.986363 0
      vertex 4.87486 0.495725 0
    endloop
  endfacet
  facet normal 0 0 -1
    outer loop
      vertex 2.2 0 0
      vertex 4.87486 0.495725 0
      vertex 4.9 0 0
    endloop
  endfacet
  facet normal 0 0 -1
    outer loop
      vertex 2.14484 -0.489546 0
      vertex 4.9 0 0
      vertex 4.87486 -0.495725 0
    endloop
  endfacet
  facet normal 0 0 -1
    outer loop
      vertex 1.98213 -0.954544 0
      vertex 4.7997 -0.986363 0
      vertex 4.67528 -1.46688 0
    endloop
  endfacet
  facet normal 0 0 -1
    outer loop
      vertex 1.72003 -1.37168 0
      vertex 4.67528 -1.46688 0
      vertex 4.50289 -1.93234 0
    endloop
  endfacet
  facet normal 0 0 -1
    outer loop
      vertex 0.954544 -1.98213 0
      vertex 4.2843 -2.37798 0
      vertex 4.02174 -2.79921 0
    endloop
  endfacet
  facet normal 0 0 -1
    outer loop
      vertex 1.72003 -1.37168 0
      vertex 4.2843 -2.37798 0
      vertex 1.37168 -1.72003 0
    endloop
  endfacet
  facet normal 0 0 -1
    outer loop
      vertex 0 -2.2 0
      vertex 3.71791 -3.19172 0
      vertex 3.37594 -3.55149 0
    endloop
  endfacet
  facet normal 0 0 -1
    outer loop
      vertex -0.954544 -1.98213 0
      vertex 3.37594 -3.55149 0
      vertex 2.99932 -3.8748 0
    endloop
  endfacet
  facet normal 0 0 -1
    outer loop
      vertex -4.87486 -0.495725 0
      vertex 2.99932 -3.8748 0
      vertex 2.59192 -4.15836 0
    endloop
  endfacet
  facet normal 0 0 -1
    outer loop
      vertex -4.87486 -0.495725 0
      vertex 2.59192 -4.15836 0
      vertex 2.15793 -4.39924 0
    endloop
  endfacet
  facet normal 0 0 -1
    outer loop
      vertex -4.87486 -0.495725 0
      vertex 2.15793 -4.39924 0
      vertex 1.7018 -4.59498 0
    endloop
  endfacet
  facet normal 0 0 -1
    outer loop
      vertex -4.87486 -0.495725 0
      vertex 1.7018 -4.59498 0
      vertex 1.2282 -4.74358 0
    endloop
  endfacet
  facet normal 0 0 -1
    outer loop
      vertex -4.87486 -0.495725 0
      vertex 1.2282 -4.74358 0
      vertex 0.741996 -4.84349 0
    endloop
  endfacet
  facet normal 0 0 -1
    outer loop
      vertex -4.87486 -0.495725 0
      vertex 0.741996 -4.84349 0
      vertex 0.248181 -4.89371 0
    endloop
  endfacet
  facet normal 0 0 -1
    outer loop
      vertex -4.87486 -0.495725 0
      vertex 0.248181 -4.89371 0
      vertex -0.248181 -4.89371 0
    endloop
  endfacet
  facet normal 0 0 -1
    outer loop
      vertex -4.87486 -0.495725 0
      vertex -0.248181 -4.89371 0
      vertex -0.741996 -4.84349 0
    endloop
  endfacet
  facet normal 0 0 -1
    outer loop
      vertex -4.87486 -0.495725 0
      vertex -0.741996 -4.84349 0
      vertex -1.2282 -4.74358 0
    endloop
  endfacet
  facet normal 0 0 -1
    outer loop
      vertex -4.87486 -0.495725 0
      vertex -1.2282 -4.74358 0
      vertex -1.7018 -4.59498 0
    endloop
  endfacet
  facet normal 0 0 -1
    outer loop
      vertex -4.87486 -0.495725 0
      vertex -1.7018 -4.59498 0
      vertex -2.15793 -4.39924 0
    endloop
  endfacet
  facet normal 0 0 -1
    outer loop
      vertex -4.87486 -0.495725 0
      vertex -2.15793 -4.39924 0
      vertex -2.59192 -4.15836 0
    endloop
  endfacet
  facet normal 0 0 -1
    outer loop
      vertex -4.87486 -0.495725 0
      vertex -2.59192 -4.15836 0
      vertex -2.99932 -3.8748 0
    endloop
  endfacet
  facet normal 0 0 -1
    outer loop
      vertex -4.87486 -0.495725 0
      vertex -2.99932 -3.8748 0
      vertex -3.37594 -3.55149 0
    endloop
  endfacet
  facet normal 0 0 -1
    outer loop
      vertex -4.87486 -0.495725 0
      vertex -3.37594 -3.55149 0
      vertex -3.71791 -3.19172 0
    endloop
  endfacet
  facet normal 0 0 -1
    outer loop
      vertex -4.87486 -0.495725 0
      vertex -3.71791 -3.19172 0
      vertex -4.02174 -2.79921 0
    endloop
  endfacet
  facet normal 0 0 -1
    outer loop
      vertex -4.87486 -0.495725 0
      vertex -4.02174 -2.79921 0
      vertex -4.2843 -2.37798 0
    endloop
  endfacet
  facet normal 0 0 -1
    outer loop
      vertex -4.87486 -0.495725 0
      vertex -4.2843 -2.37798 0
      vertex -4.50289 -1.93234 0
    endloop
  endfacet
  facet normal 0 0 -1
    outer loop
      vertex -4.87486 -0.495725 0
      vertex -4.50289 -1.93234 0
      vertex -4.67528 -1.46688 0
    endloop
  endfacet
  facet normal 0 0 -1
    outer loop
      vertex -4.87486 -0.495725 0
      vertex -4.67528 -1.46688 0
      vertex -4.7997 -0.986363 0
    endloop
  endfacet
  facet normal 0 0 -1
    outer loop
      vertex -2.14484 -0.489546 0
      vertex -4.87486 -0.495725 0
      vertex -2.2 0 0
    endloop
  endfacet
  facet normal 0 0 -1
    outer loop
      vertex 1.98213 -0.954544 0
      vertex 4.67528 -1.46688 0
      vertex 1.72003 -1.37168 0
    endloop
  endfacet
  facet normal 0 0 -1
    outer loop
      vertex -1.98213 -0.954544 0
      vertex -4.87486 -0.495725 0
      vertex -2.14484 -0.489546 0
    endloop
  endfacet
  facet normal 0 0 -1
    outer loop
      vertex -1.72003 -1.37168 0
      vertex -4.87486 -0.495725 0
      vertex -1.98213 -0.954544 0
    endloop
  endfacet
  facet normal 0 0 -1
    outer loop
      vertex -1.37168 -1.72003 0
      vertex -4.87486 -0.495725 0
      vertex -1.72003 -1.37168 0
    endloop
  endfacet
  facet normal 0 0 -1
    outer loop
      vertex -0.954544 -1.98213 0
      vertex -4.87486 -0.495725 0
      vertex -1.37168 -1.72003 0
    endloop
  endfacet
  facet normal 0 0 -1
    outer loop
      vertex -0.489546 -2.14484 0
      vertex 3.37594 -3.55149 0
      vertex -0.954544 -1.98213 0
    endloop
  endfacet
  facet normal 0 0 -1
    outer loop
      vertex -4.87486 -0.495725 0
      vertex -0.954544 -1.98213 0
      vertex 2.99932 -3.8748 0
    endloop
  endfacet
  facet normal 0 0 -1
    outer loop
      vertex 0 -2.2 0
      vertex 3.37594 -3.55149 0
      vertex -0.489546 -2.14484 0
    endloop
  endfacet
  facet normal 0 0 -1
    outer loop
      vertex 0.954544 -1.98213 0
      vertex 3.71791 -3.19172 0
      vertex 0.489546 -2.14484 0
    endloop
  endfacet
  facet normal 0 0 -1
    outer loop
      vertex 0.489546 -2.14484 0
      vertex 3.71791 -3.19172 0
      vertex 0 -2.2 0
    endloop
  endfacet
  facet normal 0 0 -1
    outer loop
      vertex 0.954544 -1.98213 0
      vertex 4.02174 -2.79921 0
      vertex 3.71791 -3.19172 0
    endloop
  endfacet
  facet normal 0 0 -1
    outer loop
      vertex 1.37168 -1.72003 0
      vertex 4.2843 -2.37798 0
      vertex 0.954544 -1.98213 0
    endloop
  endfacet
  facet normal 0 0 -1
    outer loop
      vertex 1.72003 -1.37168 0
      vertex 4.50289 -1.93234 0
      vertex 4.2843 -2.37798 0
    endloop
  endfacet
  facet normal 0 0 -1
    outer loop
      vertex 2.2 0 0
      vertex 4.9 0 0
      vertex 2.14484 -0.489546 0
    endloop
  endfacet
  facet normal 0 0 -1
    outer loop
      vertex 2.14484 -0.489546 0
      vertex 4.7997 -0.986363 0
      vertex 1.98213 -0.954544 0
    endloop
  endfacet
  facet normal 0 0 -1
    outer loop
      vertex 2.14484 -0.489546 0
      vertex 4.87486 -0.495725 0
      vertex 4.7997 -0.986363 0
    endloop
  endfacet
  facet normal 0 0 -1
    outer loop
      vertex 1.98213 0.954544 0
      vertex 4.67528 1.46688 0
      vertex 4.7997 0.986363 0
    endloop
  endfacet
  facet normal 0 0 -1
    outer loop
      vertex 2.14484 0.489546 0
      vertex 4.87486 0.495725 0
      vertex 2.2 0 0
    endloop
  endfacet
  facet normal 0 0 -1
    outer loop
      vertex 1.98213 0.954544 0
      vertex 4.7997 0.986363 0
      vertex 2.14484 0.489546 0
    endloop
  endfacet
  facet normal 0 0 -1
    outer loop
      vertex 0.489546 2.14484 0
      vertex 3.37594 3.55149 0
      vertex 3.71791 3.19172 0
    endloop
  endfacet
  facet normal 0 0 -1
    outer loop
      vertex 0 2.2 0
      vertex 2.99932 3.8748 0
      vertex 0.489546 2.14484 0
    endloop
  endfacet
  facet normal 0 0 -1
    outer loop
      vertex -0.489546 2.14484 0
      vertex 2.99932 3.8748 0
      vertex 0 2.2 0
    endloop
  endfacet
  facet normal 0 0 -1
    outer loop
      vertex -0.954544 1.98213 0
      vertex 2.59192 4.15836 0
      vertex -0.489546 2.14484 0
    endloop
  endfacet
  facet normal 0 0 -1
    outer loop
      vertex -1.37168 1.72003 0
      vertex 2.15793 4.39924 0
      vertex -0.954544 1.98213 0
    endloop
  endfacet
  facet normal 0 0 -1
    outer loop
      vertex -1.72003 1.37168 0
      vertex -4.87486 -0.495725 0
      vertex -1.37168 1.72003 0
    endloop
  endfacet
  facet normal 0 0 -1
    outer loop
      vertex -4.87486 -0.495725 0
      vertex 2.15793 4.39924 0
      vertex -1.37168 1.72003 0
    endloop
  endfacet
  facet normal 0 0 -1
    outer loop
      vertex -1.98213 0.954544 0
      vertex -4.87486 -0.495725 0
      vertex -1.72003 1.37168 0
    endloop
  endfacet
  facet normal 0 0 -1
    outer loop
      vertex -2.14484 0.489546 0
      vertex -4.87486 -0.495725 0
      vertex -1.98213 0.954544 0
    endloop
  endfacet
  facet normal 0 0 -1
    outer loop
      vertex 0.489546 2.14484 0
      vertex 3.71791 3.19172 0
      vertex 0.954544 1.98213 0
    endloop
  endfacet
  facet normal 0 0 -1
    outer loop
      vertex -2.2 0 0
      vertex -4.87486 -0.495725 0
      vertex -2.14484 0.489546 0
    endloop
  endfacet
  facet normal 0 0 -1
    outer loop
      vertex 0.954544 1.98213 0
      vertex 4.02174 2.79921 0
      vertex 1.37168 1.72003 0
    endloop
  endfacet
  facet normal 0 0 -1
    outer loop
      vertex 1.37168 1.72003 0
      vertex 4.2843 2.37798 0
      vertex 1.72003 1.37168 0
    endloop
  endfacet
  facet normal 0 0 -1
    outer loop
      vertex 1.72003 1.37168 0
      vertex 4.50289 1.93234 0
      vertex 1.98213 0.954544 0
    endloop
  endfacet
  facet normal -0.998717 0.0506485 0
    outer loop
      vertex -4.9 0 0
      vertex -4.9 0 2.5
      vertex -4.87486 0.495725 0
    endloop
  endfacet
  facet normal -0.998717 0.0506485 0
    outer loop
      vertex -4.87486 0.495725 0
      vertex -4.9 0 2.5
      vertex -4.87486 0.495725 2.5
    endloop
  endfacet
  facet normal -0.998717 -0.0506485 0
    outer loop
      vertex -4.9 0 0
      vertex -4.87486 -0.495725 0
      vertex -4.9 0 2.5
    endloop
  endfacet
  facet normal -0.998717 -0.0506485 0
    outer loop
      vertex -4.9 0 2.5
      vertex -4.87486 -0.495725 0
      vertex -4.87486 -0.495725 2.5
    endloop
  endfacet
  facet normal -0.988468 -0.151428 0
    outer loop
      vertex -4.87486 -0.495725 0
      vertex -4.7997 -0.986363 0
      vertex -4.87486 -0.495725 2.5
    endloop
  endfacet
  facet normal -0.988468 -0.151428 0
    outer loop
      vertex -4.87486 -0.495725 2.5
      vertex -4.7997 -0.986363 0
      vertex -4.7997 -0.986363 2.5
    endloop
  endfacet
  facet normal -0.968077 -0.250654 0
    outer loop
      vertex -4.7997 -0.986363 0
      vertex -4.67528 -1.46688 0
      vertex -4.7997 -0.986363 2.5
    endloop
  endfacet
  facet normal -0.968077 -0.250654 0
    outer loop
      vertex -4.7997 -0.986363 2.5
      vertex -4.67528 -1.46688 0
      vertex -4.67528 -1.46688 2.5
    endloop
  endfacet
  facet normal -0.937752 -0.347305 0
    outer loop
      vertex -4.67528 -1.46688 0
      vertex -4.50289 -1.93234 0
      vertex -4.67528 -1.46688 2.5
    endloop
  endfacet
  facet normal -0.937752 -0.347305 0
    outer loop
      vertex -4.67528 -1.46688 2.5
      vertex -4.50289 -1.93234 0
      vertex -4.50289 -1.93234 2.5
    endloop
  endfacet
  facet normal -0.897804 -0.440394 0
    outer loop
      vertex -4.50289 -1.93234 0
      vertex -4.2843 -2.37798 0
      vertex -4.50289 -1.93234 2.5
    endloop
  endfacet
  facet normal -0.897804 -0.440394 0
    outer loop
      vertex -4.50289 -1.93234 2.5
      vertex -4.2843 -2.37798 0
      vertex -4.2843 -2.37798 2.5
    endloop
  endfacet
  facet normal -0.848644 -0.528964 0
    outer loop
      vertex -4.2843 -2.37798 0
      vertex -4.02174 -2.79921 0
      vertex -4.2843 -2.37798 2.5
    endloop
  endfacet
  facet normal -0.848644 -0.528964 0
    outer loop
      vertex -4.2843 -2.37798 2.5
      vertex -4.02174 -2.79921 0
      vertex -4.02174 -2.79921 2.5
    endloop
  endfacet
  facet normal -0.790776 -0.612106 0
    outer loop
      vertex -4.02174 -2.79921 0
      vertex -3.71791 -3.19172 0
      vertex -4.02174 -2.79921 2.5
    endloop
  endfacet
  facet normal -0.790776 -0.612106 0
    outer loop
      vertex -4.02174 -2.79921 2.5
      vertex -3.71791 -3.19172 0
      vertex -3.71791 -3.19172 2.5
    endloop
  endfacet
  facet normal -0.724793 -0.688967 0
    outer loop
      vertex -3.71791 -3.19172 0
      vertex -3.37594 -3.55149 0
      vertex -3.71791 -3.19172 2.5
    endloop
  endfacet
  facet normal -0.724793 -0.688967 0
    outer loop
      vertex -3.71791 -3.19172 2.5
      vertex -3.37594 -3.55149 0
      vertex -3.37594 -3.55149 2.5
    endloop
  endfacet
  facet normal -0.651372 -0.758759 0
    outer loop
      vertex -3.37594 -3.55149 2.5
      vertex -3.37594 -3.55149 0
      vertex -2.99932 -3.8748 0
    endloop
  endfacet
  facet normal -0.651372 -0.758759 0
    outer loop
      vertex -2.99932 -3.8748 2.5
      vertex -3.37594 -3.55149 2.5
      vertex -2.99932 -3.8748 0
    endloop
  endfacet
  facet normal -0.571269 -0.820763 0
    outer loop
      vertex -2.99932 -3.8748 2.5
      vertex -2.99932 -3.8748 0
      vertex -2.59192 -4.15836 0
    endloop
  endfacet
  facet normal -0.571269 -0.820763 0
    outer loop
      vertex -2.59192 -4.15836 2.5
      vertex -2.99932 -3.8748 2.5
      vertex -2.59192 -4.15836 0
    endloop
  endfacet
  facet normal -0.485301 -0.874347 0
    outer loop
      vertex -2.59192 -4.15836 2.5
      vertex -2.59192 -4.15836 0
      vertex -2.15793 -4.39924 0
    endloop
  endfacet
  facet normal -0.485301 -0.874347 0
    outer loop
      vertex -2.15793 -4.39924 2.5
      vertex -2.59192 -4.15836 2.5
      vertex -2.15793 -4.39924 0
    endloop
  endfacet
  facet normal -0.394356 -0.918958 0
    outer loop
      vertex -2.15793 -4.39924 2.5
      vertex -2.15793 -4.39924 0
      vertex -1.7018 -4.59498 0
    endloop
  endfacet
  facet normal -0.394356 -0.918958 0
    outer loop
      vertex -1.7018 -4.59498 2.5
      vertex -2.15793 -4.39924 2.5
      vertex -1.7018 -4.59498 0
    endloop
  endfacet
  facet normal -0.299364 -0.954139 0
    outer loop
      vertex -1.7018 -4.59498 2.5
      vertex -1.7018 -4.59498 0
      vertex -1.2282 -4.74358 0
    endloop
  endfacet
  facet normal -0.299364 -0.954139 0
    outer loop
      vertex -1.2282 -4.74358 2.5
      vertex -1.7018 -4.59498 2.5
      vertex -1.2282 -4.74358 0
    endloop
  endfacet
  facet normal -0.201299 -0.97953 0
    outer loop
      vertex -1.2282 -4.74358 2.5
      vertex -1.2282 -4.74358 0
      vertex -0.741996 -4.84349 0
    endloop
  endfacet
  facet normal -0.201299 -0.97953 0
    outer loop
      vertex -0.741996 -4.84349 2.5
      vertex -1.2282 -4.74358 2.5
      vertex -0.741996 -4.84349 0
    endloop
  endfacet
  facet normal -0.101168 -0.994869 0
    outer loop
      vertex -0.741996 -4.84349 2.5
      vertex -0.741996 -4.84349 0
      vertex -0.248181 -4.89371 0
    endloop
  endfacet
  facet normal -0.101168 -0.994869 0
    outer loop
      vertex -0.248181 -4.89371 2.5
      vertex -0.741996 -4.84349 2.5
      vertex -0.248181 -4.89371 0
    endloop
  endfacet
  facet normal 0 -1 0
    outer loop
      vertex -0.248181 -4.89371 2.5
      vertex -0.248181 -4.89371 0
      vertex 0.248181 -4.89371 0
    endloop
  endfacet
  facet normal 0 -1 0
    outer loop
      vertex 0.248181 -4.89371 2.5
      vertex -0.248181 -4.89371 2.5
      vertex 0.248181 -4.89371 0
    endloop
  endfacet
  facet normal 0.101168 -0.994869 0
    outer loop
      vertex 0.248181 -4.89371 2.5
      vertex 0.248181 -4.89371 0
      vertex 0.741996 -4.84349 0
    endloop
  endfacet
  facet normal 0.101168 -0.994869 0
    outer loop
      vertex 0.741996 -4.84349 2.5
      vertex 0.248181 -4.89371 2.5
      vertex 0.741996 -4.84349 0
    endloop
  endfacet
  facet normal 0.201299 -0.97953 0
    outer loop
      vertex 0.741996 -4.84349 2.5
      vertex 0.741996 -4.84349 0
      vertex 1.2282 -4.74358 0
    endloop
  endfacet
  facet normal 0.201299 -0.97953 0
    outer loop
      vertex 1.2282 -4.74358 2.5
      vertex 0.741996 -4.84349 2.5
      vertex 1.2282 -4.74358 0
    endloop
  endfacet
  facet normal 0.299364 -0.954139 0
    outer loop
      vertex 1.2282 -4.74358 2.5
      vertex 1.2282 -4.74358 0
      vertex 1.7018 -4.59498 0
    endloop
  endfacet
  facet normal 0.299364 -0.954139 0
    outer loop
      vertex 1.7018 -4.59498 2.5
      vertex 1.2282 -4.74358 2.5
      vertex 1.7018 -4.59498 0
    endloop
  endfacet
  facet normal 0.394356 -0.918958 0
    outer loop
      vertex 1.7018 -4.59498 2.5
      vertex 1.7018 -4.59498 0
      vertex 2.15793 -4.39924 0
    endloop
  endfacet
  facet normal 0.394356 -0.918958 0
    outer loop
      vertex 2.15793 -4.39924 2.5
      vertex 1.7018 -4.59498 2.5
      vertex 2.15793 -4.39924 0
    endloop
  endfacet
  facet normal 0.485301 -0.874347 0
    outer loop
      vertex 2.15793 -4.39924 2.5
      vertex 2.15793 -4.39924 0
      vertex 2.59192 -4.15836 0
    endloop
  endfacet
  facet normal 0.485301 -0.874347 0
    outer loop
      vertex 2.59192 -4.15836 2.5
      vertex 2.15793 -4.39924 2.5
      vertex 2.59192 -4.15836 0
    endloop
  endfacet
  facet normal 0.571269 -0.820763 0
    outer loop
      vertex 2.59192 -4.15836 2.5
      vertex 2.59192 -4.15836 0
      vertex 2.99932 -3.8748 0
    endloop
  endfacet
  facet normal 0.571269 -0.820763 0
    outer loop
      vertex 2.99932 -3.8748 2.5
      vertex 2.59192 -4.15836 2.5
      vertex 2.99932 -3.8748 0
    endloop
  endfacet
  facet normal 0.651372 -0.758759 0
    outer loop
      vertex 2.99932 -3.8748 2.5
      vertex 2.99932 -3.8748 0
      vertex 3.37594 -3.55149 0
    endloop
  endfacet
  facet normal 0.651372 -0.758759 0
    outer loop
      vertex 3.37594 -3.55149 2.5
      vertex 2.99932 -3.8748 2.5
      vertex 3.37594 -3.55149 0
    endloop
  endfacet
  facet normal 0.724793 -0.688967 0
    outer loop
      vertex 3.37594 -3.55149 2.5
      vertex 3.37594 -3.55149 0
      vertex 3.71791 -3.19172 0
    endloop
  endfacet
  facet normal 0.724793 -0.688967 0
    outer loop
      vertex 3.71791 -3.19172 2.5
      vertex 3.37594 -3.55149 2.5
      vertex 3.71791 -3.19172 0
    endloop
  endfacet
  facet normal 0.790776 -0.612106 0
    outer loop
      vertex 3.71791 -3.19172 2.5
      vertex 3.71791 -3.19172 0
      vertex 4.02174 -2.79921 0
    endloop
  endfacet
  facet normal 0.790776 -0.612106 0
    outer loop
      vertex 4.02174 -2.79921 2.5
      vertex 3.71791 -3.19172 2.5
      vertex 4.02174 -2.79921 0
    endloop
  endfacet
  facet normal 0.848644 -0.528964 0
    outer loop
      vertex 4.02174 -2.79921 2.5
      vertex 4.02174 -2.79921 0
      vertex 4.2843 -2.37798 0
    endloop
  endfacet
  facet normal 0.848644 -0.528964 0
    outer loop
      vertex 4.2843 -2.37798 2.5
      vertex 4.02174 -2.79921 2.5
      vertex 4.2843 -2.37798 0
    endloop
  endfacet
  facet normal 0.897804 -0.440394 0
    outer loop
      vertex 4.2843 -2.37798 2.5
      vertex 4.2843 -2.37798 0
      vertex 4.50289 -1.93234 0
    endloop
  endfacet
  facet normal 0.897804 -0.440394 0
    outer loop
      vertex 4.50289 -1.93234 2.5
      vertex 4.2843 -2.37798 2.5
      vertex 4.50289 -1.93234 0
    endloop
  endfacet
  facet normal 0.937752 -0.347305 0
    outer loop
      vertex 4.50289 -1.93234 2.5
      vertex 4.50289 -1.93234 0
      vertex 4.67528 -1.46688 0
    endloop
  endfacet
  facet normal 0.937752 -0.347305 0
    outer loop
      vertex 4.67528 -1.46688 2.5
      vertex 4.50289 -1.93234 2.5
      vertex 4.67528 -1.46688 0
    endloop
  endfacet
  facet normal 0.968077 -0.250654 0
    outer loop
      vertex 4.67528 -1.46688 2.5
      vertex 4.67528 -1.46688 0
      vertex 4.7997 -0.986363 0
    endloop
  endfacet
  facet normal 0.968077 -0.250654 0
    outer loop
      vertex 4.7997 -0.986363 2.5
      vertex 4.67528 -1.46688 2.5
      vertex 4.7997 -0.986363 0
    endloop
  endfacet
  facet normal 0.988468 -0.151428 0
    outer loop
      vertex 4.7997 -0.986363 2.5
      vertex 4.7997 -0.986363 0
      vertex 4.87486 -0.495725 0
    endloop
  endfacet
  facet normal 0.988468 -0.151428 0
    outer loop
      vertex 4.87486 -0.495725 2.5
      vertex 4.7997 -0.986363 2.5
      vertex 4.87486 -0.495725 0
    endloop
  endfacet
  facet normal 0.998717 -0.0506485 0
    outer loop
      vertex 4.87486 -0.495725 2.5
      vertex 4.87486 -0.495725 0
      vertex 4.9 0 0
    endloop
  endfacet
  facet normal 0.998717 -0.0506485 0
    outer loop
      vertex 4.9 0 2.5
      vertex 4.87486 -0.495725 2.5
      vertex 4.9 0 0
    endloop
  endfacet
  facet normal 0.998717 0.0506485 0
    outer loop
      vertex 4.9 0 0
      vertex 4.87486 0.495725 0
      vertex 4.87486 0.495725 2.5
    endloop
  endfacet
  facet normal 0.998717 0.0506485 0
    outer loop
      vertex 4.9 0 2.5
      vertex 4.9 0 0
      vertex 4.87486 0.495725 2.5
    endloop
  endfacet
  facet normal 0.988468 0.151428 0
    outer loop
      vertex 4.87486 0.495725 0
      vertex 4.7997 0.986363 0
      vertex 4.7997 0.986363 2.5
    endloop
  endfacet
  facet normal 0.988468 0.151428 0
    outer loop
      vertex 4.87486 0.495725 2.5
      vertex 4.87486 0.495725 0
      vertex 4.7997 0.986363 2.5
    endloop
  endfacet
  facet normal 0.968077 0.250654 0
    outer loop
      vertex 4.7997 0.986363 0
      vertex 4.67528 1.46688 0
      vertex 4.67528 1.46688 2.5
    endloop
  endfacet
  facet normal 0.968077 0.250654 0
    outer loop
      vertex 4.7997 0.986363 2.5
      vertex 4.7997 0.986363 0
      vertex 4.67528 1.46688 2.5
    endloop
  endfacet
  facet normal 0.937752 0.347305 0
    outer loop
      vertex 4.67528 1.46688 0
      vertex 4.50289 1.93234 0
      vertex 4.50289 1.93234 2.5
    endloop
  endfacet
  facet normal 0.937752 0.347305 0
    outer loop
      vertex 4.67528 1.46688 2.5
      vertex 4.67528 1.46688 0
      vertex 4.50289 1.93234 2.5
    endloop
  endfacet
  facet normal 0.897804 0.440394 0
    outer loop
      vertex 4.50289 1.93234 0
      vertex 4.2843 2.37798 0
      vertex 4.2843 2.37798 2.5
    endloop
  endfacet
  facet normal 0.897804 0.440394 0
    outer loop
      vertex 4.50289 1.93234 2.5
      vertex 4.50289 1.93234 0
      vertex 4.2843 2.37798 2.5
    endloop
  endfacet
  facet normal 0.848644 0.528964 0
    outer loop
      vertex 4.2843 2.37798 0
      vertex 4.02174 2.79921 0
      vertex 4.02174 2.79921 2.5
    endloop
  endfacet
  facet normal 0.848644 0.528964 0
    outer loop
      vertex 4.2843 2.37798 2.5
      vertex 4.2843 2.37798 0
      vertex 4.02174 2.79921 2.5
    endloop
  endfacet
  facet normal 0.790776 0.612106 0
    outer loop
      vertex 4.02174 2.79921 0
      vertex 3.71791 3.19172 0
      vertex 3.71791 3.19172 2.5
    endloop
  endfacet
  facet normal 0.790776 0.612106 0
    outer loop
      vertex 4.02174 2.79921 2.5
      vertex 4.02174 2.79921 0
      vertex 3.71791 3.19172 2.5
    endloop
  endfacet
  facet normal 0.724793 0.688967 0
    outer loop
      vertex 3.71791 3.19172 0
      vertex 3.37594 3.55149 0
      vertex 3.37594 3.55149 2.5
    endloop
  endfacet
  facet normal 0.724793 0.688967 0
    outer loop
      vertex 3.71791 3.19172 2.5
      vertex 3.71791 3.19172 0
      vertex 3.37594 3.55149 2.5
    endloop
  endfacet
  facet normal 0.651372 0.758759 0
    outer loop
      vertex 2.99932 3.8748 0
      vertex 2.99932 3.8748 2.5
      vertex 3.37594 3.55149 0
    endloop
  endfacet
  facet normal 0.651372 0.758759 0
    outer loop
      vertex 3.37594 3.55149 0
      vertex 2.99932 3.8748 2.5
      vertex 3.37594 3.55149 2.5
    endloop
  endfacet
  facet normal 0.571269 0.820763 0
    outer loop
      vertex 2.59192 4.15836 0
      vertex 2.59192 4.15836 2.5
      vertex 2.99932 3.8748 0
    endloop
  endfacet
  facet normal 0.571269 0.820763 0
    outer loop
      vertex 2.99932 3.8748 0
      vertex 2.59192 4.15836 2.5
      vertex 2.99932 3.8748 2.5
    endloop
  endfacet
  facet normal 0.485301 0.874347 0
    outer loop
      vertex 2.15793 4.39924 0
      vertex 2.15793 4.39924 2.5
      vertex 2.59192 4.15836 0
    endloop
  endfacet
  facet normal 0.485301 0.874347 0
    outer loop
      vertex 2.59192 4.15836 0
      vertex 2.15793 4.39924 2.5
      vertex 2.59192 4.15836 2.5
    endloop
  endfacet
  facet normal 0.394356 0.918958 0
    outer loop
      vertex 1.7018 4.59498 0
      vertex 1.7018 4.59498 2.5
      vertex 2.15793 4.39924 0
    endloop
  endfacet
  facet normal 0.394356 0.918958 0
    outer loop
      vertex 2.15793 4.39924 0
      vertex 1.7018 4.59498 2.5
      vertex 2.15793 4.39924 2.5
    endloop
  endfacet
  facet normal 0.299364 0.954139 0
    outer loop
      vertex 1.2282 4.74358 0
      vertex 1.2282 4.74358 2.5
      vertex 1.7018 4.59498 0
    endloop
  endfacet
  facet normal 0.299364 0.954139 0
    outer loop
      vertex 1.7018 4.59498 0
      vertex 1.2282 4.74358 2.5
      vertex 1.7018 4.59498 2.5
    endloop
  endfacet
  facet normal 0.201299 0.97953 0
    outer loop
      vertex 0.741996 4.84349 0
      vertex 0.741996 4.84349 2.5
      vertex 1.2282 4.74358 0
    endloop
  endfacet
  facet normal 0.201299 0.97953 0
    outer loop
      vertex 1.2282 4.74358 0
      vertex 0.741996 4.84349 2.5
      vertex 1.2282 4.74358 2.5
    endloop
  endfacet
  facet normal 0.101168 0.994869 0
    outer loop
      vertex 0.248181 4.89371 0
      vertex 0.248181 4.89371 2.5
      vertex 0.741996 4.84349 0
    endloop
  endfacet
  facet normal 0.101168 0.994869 0
    outer loop
      vertex 0.741996 4.84349 0
      vertex 0.248181 4.89371 2.5
      vertex 0.741996 4.84349 2.5
    endloop
  endfacet
  facet normal 0 1 0
    outer loop
      vertex -0.248181 4.89371 0
      vertex -0.248181 4.89371 2.5
      vertex 0.248181 4.89371 0
    endloop
  endfacet
  facet normal 0 1 0
    outer loop
      vertex 0.248181 4.89371 0
      vertex -0.248181 4.89371 2.5
      vertex 0.248181 4.89371 2.5
    endloop
  endfacet
  facet normal -0.101168 0.994869 0
    outer loop
      vertex -0.741996 4.84349 0
      vertex -0.741996 4.84349 2.5
      vertex -0.248181 4.89371 0
    endloop
  endfacet
  facet normal -0.101168 0.994869 0
    outer loop
      vertex -0.248181 4.89371 0
      vertex -0.741996 4.84349 2.5
      vertex -0.248181 4.89371 2.5
    endloop
  endfacet
  facet normal -0.201299 0.97953 0
    outer loop
      vertex -1.2282 4.74358 0
      vertex -1.2282 4.74358 2.5
      vertex -0.741996 4.84349 0
    endloop
  endfacet
  facet normal -0.201299 0.97953 0
    outer loop
      vertex -0.741996 4.84349 0
      vertex -1.2282 4.74358 2.5
      vertex -0.741996 4.84349 2.5
    endloop
  endfacet
  facet normal -0.299364 0.954139 0
    outer loop
      vertex -1.7018 4.59498 0
      vertex -1.7018 4.59498 2.5
      vertex -1.2282 4.74358 0
    endloop
  endfacet
  facet normal -0.299364 0.954139 0
    outer loop
      vertex -1.2282 4.74358 0
      vertex -1.7018 4.59498 2.5
      vertex -1.2282 4.74358 2.5
    endloop
  endfacet
  facet normal -0.394356 0.918958 0
    outer loop
      vertex -2.15793 4.39924 0
      vertex -2.15793 4.39924 2.5
      vertex -1.7018 4.59498 0
    endloop
  endfacet
  facet normal -0.394356 0.918958 0
    outer loop
      vertex -1.7018 4.59498 0
      vertex -2.15793 4.39924 2.5
      vertex -1.7018 4.59498 2.5
    endloop
  endfacet
  facet normal -0.485301 0.874347 0
    outer loop
      vertex -2.59192 4.15836 0
      vertex -2.59192 4.15836 2.5
      vertex -2.15793 4.39924 0
    endloop
  endfacet
  facet normal -0.485301 0.874347 0
    outer loop
      vertex -2.15793 4.39924 0
      vertex -2.59192 4.15836 2.5
      vertex -2.15793 4.39924 2.5
    endloop
  endfacet
  facet normal -0.571269 0.820763 0
    outer loop
      vertex -2.99932 3.8748 0
      vertex -2.99932 3.8748 2.5
      vertex -2.59192 4.15836 0
    endloop
  endfacet
  facet normal -0.571269 0.820763 0
    outer loop
      vertex -2.59192 4.15836 0
      vertex -2.99932 3.8748 2.5
      vertex -2.59192 4.15836 2.5
    endloop
  endfacet
  facet normal -0.651372 0.758759 0
    outer loop
      vertex -3.37594 3.55149 0
      vertex -3.37594 3.55149 2.5
      vertex -2.99932 3.8748 0
    endloop
  endfacet
  facet normal -0.651372 0.758759 0
    outer loop
      vertex -2.99932 3.8748 0
      vertex -3.37594 3.55149 2.5
      vertex -2.99932 3.8748 2.5
    endloop
  endfacet
  facet normal -0.724793 0.688967 0
    outer loop
      vertex -3.71791 3.19172 0
      vertex -3.71791 3.19172 2.5
      vertex -3.37594 3.55149 0
    endloop
  endfacet
  facet normal -0.724793 0.688967 0
    outer loop
      vertex -3.37594 3.55149 0
      vertex -3.71791 3.19172 2.5
      vertex -3.37594 3.55149 2.5
    endloop
  endfacet
  facet normal -0.790776 0.612106 0
    outer loop
      vertex -4.02174 2.79921 0
      vertex -4.02174 2.79921 2.5
      vertex -3.71791 3.19172 0
    endloop
  endfacet
  facet normal -0.790776 0.612106 0
    outer loop
      vertex -3.71791 3.19172 0
      vertex -4.02174 2.79921 2.5
      vertex -3.71791 3.19172 2.5
    endloop
  endfacet
  facet normal -0.848644 0.528964 0
    outer loop
      vertex -4.2843 2.37798 0
      vertex -4.2843 2.37798 2.5
      vertex -4.02174 2.79921 0
    endloop
  endfacet
  facet normal -0.848644 0.528964 0
    outer loop
      vertex -4.02174 2.79921 0
      vertex -4.2843 2.37798 2.5
      vertex -4.02174 2.79921 2.5
    endloop
  endfacet
  facet normal -0.897804 0.440394 0
    outer loop
      vertex -4.50289 1.93234 0
      vertex -4.50289 1.93234 2.5
      vertex -4.2843 2.37798 0
    endloop
  endfacet
  facet normal -0.897804 0.440394 0
    outer loop
      vertex -4.2843 2.37798 0
      vertex -4.50289 1.93234 2.5
      vertex -4.2843 2.37798 2.5
    endloop
  endfacet
  facet normal -0.937752 0.347305 0
    outer loop
      vertex -4.67528 1.46688 0
      vertex -4.67528 1.46688 2.5
      vertex -4.50289 1.93234 0
    endloop
  endfacet
  facet normal -0.937752 0.347305 0
    outer loop
      vertex -4.50289 1.93234 0
      vertex -4.67528 1.46688 2.5
      vertex -4.50289 1.93234 2.5
    endloop
  endfacet
  facet normal -0.968077 0.250654 0
    outer loop
      vertex -4.7997 0.986363 0
      vertex -4.7997 0.986363 2.5
      vertex -4.67528 1.46688 0
    endloop
  endfacet
  facet normal -0.968077 0.250654 0
    outer loop
      vertex -4.67528 1.46688 0
      vertex -4.7997 0.986363 2.5
      vertex -4.67528 1.46688 2.5
    endloop
  endfacet
  facet normal -0.988468 0.151428 0
    outer loop
      vertex -4.87486 0.495725 0
      vertex -4.87486 0.495725 2.5
      vertex -4.7997 0.986363 0
    endloop
  endfacet
  facet normal -0.988468 0.151428 0
    outer loop
      vertex -4.7997 0.986363 0
      vertex -4.87486 0.495725 2.5
      vertex -4.7997 0.986363 2.5
    endloop
  endfacet
  facet normal 0.993712 -0.111965 0
    outer loop
      vertex -2.14484 0.489546 0
      vertex -2.14484 0.489546 5.9
      vertex -2.2 0 5.9
    endloop
  endfacet
  facet normal 0.993712 -0.111965 0
    outer loop
      vertex -2.2 0 0
      vertex -2.14484 0.489546 0
      vertex -2.2 0 5.9
    endloop
  endfacet
  facet normal 0.993712 0.111965 0
    outer loop
      vertex -2.2 0 5.9
      vertex -2.14484 -0.489546 5.9
      vertex -2.14484 -0.489546 0
    endloop
  endfacet
  facet normal 0.993712 0.111965 0
    outer loop
      vertex -2.2 0 0
      vertex -2.2 0 5.9
      vertex -2.14484 -0.489546 0
    endloop
  endfacet
  facet normal 0.943884 -0.330278 0
    outer loop
      vertex -1.98213 0.954544 0
      vertex -1.98213 0.954544 5.9
      vertex -2.14484 0.489546 5.9
    endloop
  endfacet
  facet normal 0.943884 -0.330278 0
    outer loop
      vertex -2.14484 0.489546 0
      vertex -1.98213 0.954544 0
      vertex -2.14484 0.489546 5.9
    endloop
  endfacet
  facet normal 0.846724 -0.532033 0
    outer loop
      vertex -1.72003 1.37168 0
      vertex -1.72003 1.37168 5.9
      vertex -1.98213 0.954544 5.9
    endloop
  endfacet
  facet normal 0.846724 -0.532033 0
    outer loop
      vertex -1.98213 0.954544 0
      vertex -1.72003 1.37168 0
      vertex -1.98213 0.954544 5.9
    endloop
  endfacet
  facet normal 0.707107 -0.707107 0
    outer loop
      vertex -1.37168 1.72003 0
      vertex -1.37168 1.72003 5.9
      vertex -1.72003 1.37168 5.9
    endloop
  endfacet
  facet normal 0.707107 -0.707107 0
    outer loop
      vertex -1.72003 1.37168 0
      vertex -1.37168 1.72003 0
      vertex -1.72003 1.37168 5.9
    endloop
  endfacet
  facet normal 0.532033 -0.846724 0
    outer loop
      vertex -0.954544 1.98213 0
      vertex -0.954544 1.98213 5.9
      vertex -1.37168 1.72003 5.9
    endloop
  endfacet
  facet normal 0.532033 -0.846724 0
    outer loop
      vertex -1.37168 1.72003 0
      vertex -0.954544 1.98213 0
      vertex -1.37168 1.72003 5.9
    endloop
  endfacet
  facet normal 0.330278 -0.943884 0
    outer loop
      vertex -0.489546 2.14484 0
      vertex -0.489546 2.14484 5.9
      vertex -0.954544 1.98213 5.9
    endloop
  endfacet
  facet normal 0.330278 -0.943884 0
    outer loop
      vertex -0.954544 1.98213 0
      vertex -0.489546 2.14484 0
      vertex -0.954544 1.98213 5.9
    endloop
  endfacet
  facet normal 0.111965 -0.993712 0
    outer loop
      vertex 0 2.2 0
      vertex 0 2.2 5.9
      vertex -0.489546 2.14484 5.9
    endloop
  endfacet
  facet normal 0.111965 -0.993712 0
    outer loop
      vertex -0.489546 2.14484 0
      vertex 0 2.2 0
      vertex -0.489546 2.14484 5.9
    endloop
  endfacet
  facet normal -0.111965 -0.993712 0
    outer loop
      vertex 0.489546 2.14484 0
      vertex 0.489546 2.14484 5.9
      vertex 0 2.2 5.9
    endloop
  endfacet
  facet normal -0.111965 -0.993712 0
    outer loop
      vertex 0 2.2 0
      vertex 0.489546 2.14484 0
      vertex 0 2.2 5.9
    endloop
  endfacet
  facet normal -0.330278 -0.943884 0
    outer loop
      vertex 0.954544 1.98213 0
      vertex 0.954544 1.98213 5.9
      vertex 0.489546 2.14484 5.9
    endloop
  endfacet
  facet normal -0.330278 -0.943884 0
    outer loop
      vertex 0.489546 2.14484 0
      vertex 0.954544 1.98213 0
      vertex 0.489546 2.14484 5.9
    endloop
  endfacet
  facet normal -0.532033 -0.846724 0
    outer loop
      vertex 1.37168 1.72003 0
      vertex 1.37168 1.72003 5.9
      vertex 0.954544 1.98213 5.9
    endloop
  endfacet
  facet normal -0.532033 -0.846724 0
    outer loop
      vertex 0.954544 1.98213 0
      vertex 1.37168 1.72003 0
      vertex 0.954544 1.98213 5.9
    endloop
  endfacet
  facet normal -0.707107 -0.707107 0
    outer loop
      vertex 1.72003 1.37168 0
      vertex 1.72003 1.37168 5.9
      vertex 1.37168 1.72003 5.9
    endloop
  endfacet
  facet normal -0.707107 -0.707107 0
    outer loop
      vertex 1.37168 1.72003 0
      vertex 1.72003 1.37168 0
      vertex 1.37168 1.72003 5.9
    endloop
  endfacet
  facet normal -0.846724 -0.532033 0
    outer loop
      vertex 1.98213 0.954544 5.9
      vertex 1.72003 1.37168 5.9
      vertex 1.98213 0.954544 0
    endloop
  endfacet
  facet normal -0.846724 -0.532033 0
    outer loop
      vertex 1.98213 0.954544 0
      vertex 1.72003 1.37168 5.9
      vertex 1.72003 1.37168 0
    endloop
  endfacet
  facet normal -0.943884 -0.330278 0
    outer loop
      vertex 2.14484 0.489546 5.9
      vertex 1.98213 0.954544 5.9
      vertex 2.14484 0.489546 0
    endloop
  endfacet
  facet normal -0.943884 -0.330278 0
    outer loop
      vertex 2.14484 0.489546 0
      vertex 1.98213 0.954544 5.9
      vertex 1.98213 0.954544 0
    endloop
  endfacet
  facet normal -0.993712 -0.111965 0
    outer loop
      vertex 2.2 0 5.9
      vertex 2.14484 0.489546 5.9
      vertex 2.2 0 0
    endloop
  endfacet
  facet normal -0.993712 -0.111965 0
    outer loop
      vertex 2.2 0 0
      vertex 2.14484 0.489546 5.9
      vertex 2.14484 0.489546 0
    endloop
  endfacet
  facet normal -0.993712 0.111965 0
    outer loop
      vertex 2.2 0 5.9
      vertex 2.2 0 0
      vertex 2.14484 -0.489546 5.9
    endloop
  endfacet
  facet normal -0.993712 0.111965 0
    outer loop
      vertex 2.14484 -0.489546 5.9
      vertex 2.2 0 0
      vertex 2.14484 -0.489546 0
    endloop
  endfacet
  facet normal -0.943884 0.330278 0
    outer loop
      vertex 2.14484 -0.489546 5.9
      vertex 2.14484 -0.489546 0
      vertex 1.98213 -0.954544 5.9
    endloop
  endfacet
  facet normal -0.943884 0.330278 0
    outer loop
      vertex 1.98213 -0.954544 5.9
      vertex 2.14484 -0.489546 0
      vertex 1.98213 -0.954544 0
    endloop
  endfacet
  facet normal -0.846724 0.532033 0
    outer loop
      vertex 1.98213 -0.954544 5.9
      vertex 1.98213 -0.954544 0
      vertex 1.72003 -1.37168 5.9
    endloop
  endfacet
  facet normal -0.846724 0.532033 0
    outer loop
      vertex 1.72003 -1.37168 5.9
      vertex 1.98213 -0.954544 0
      vertex 1.72003 -1.37168 0
    endloop
  endfacet
  facet normal -0.707107 0.707107 0
    outer loop
      vertex 1.72003 -1.37168 5.9
      vertex 1.72003 -1.37168 0
      vertex 1.37168 -1.72003 5.9
    endloop
  endfacet
  facet normal -0.707107 0.707107 0
    outer loop
      vertex 1.37168 -1.72003 5.9
      vertex 1.72003 -1.37168 0
      vertex 1.37168 -1.72003 0
    endloop
  endfacet
  facet normal -0.532033 0.846724 0
    outer loop
      vertex 1.37168 -1.72003 5.9
      vertex 1.37168 -1.72003 0
      vertex 0.954544 -1.98213 5.9
    endloop
  endfacet
  facet normal -0.532033 0.846724 0
    outer loop
      vertex 0.954544 -1.98213 5.9
      vertex 1.37168 -1.72003 0
      vertex 0.954544 -1.98213 0
    endloop
  endfacet
  facet normal -0.330278 0.943884 0
    outer loop
      vertex 0.954544 -1.98213 5.9
      vertex 0.954544 -1.98213 0
      vertex 0.489546 -2.14484 5.9
    endloop
  endfacet
  facet normal -0.330278 0.943884 0
    outer loop
      vertex 0.489546 -2.14484 5.9
      vertex 0.954544 -1.98213 0
      vertex 0.489546 -2.14484 0
    endloop
  endfacet
  facet normal -0.111965 0.993712 0
    outer loop
      vertex 0.489546 -2.14484 5.9
      vertex 0.489546 -2.14484 0
      vertex 0 -2.2 5.9
    endloop
  endfacet
  facet normal -0.111965 0.993712 0
    outer loop
      vertex 0 -2.2 5.9
      vertex 0.489546 -2.14484 0
      vertex 0 -2.2 0
    endloop
  endfacet
  facet normal 0.111965 0.993712 0
    outer loop
      vertex 0 -2.2 5.9
      vertex 0 -2.2 0
      vertex -0.489546 -2.14484 5.9
    endloop
  endfacet
  facet normal 0.111965 0.993712 0
    outer loop
      vertex -0.489546 -2.14484 5.9
      vertex 0 -2.2 0
      vertex -0.489546 -2.14484 0
    endloop
  endfacet
  facet normal 0.330278 0.943884 0
    outer loop
      vertex -0.489546 -2.14484 5.9
      vertex -0.489546 -2.14484 0
      vertex -0.954544 -1.98213 5.9
    endloop
  endfacet
  facet normal 0.330278 0.943884 0
    outer loop
      vertex -0.954544 -1.98213 5.9
      vertex -0.489546 -2.14484 0
      vertex -0.954544 -1.98213 0
    endloop
  endfacet
  facet normal 0.532033 0.846724 0
    outer loop
      vertex -0.954544 -1.98213 5.9
      vertex -0.954544 -1.98213 0
      vertex -1.37168 -1.72003 5.9
    endloop
  endfacet
  facet normal 0.532033 0.846724 0
    outer loop
      vertex -1.37168 -1.72003 5.9
      vertex -0.954544 -1.98213 0
      vertex -1.37168 -1.72003 0
    endloop
  endfacet
  facet normal 0.707107 0.707107 0
    outer loop
      vertex -1.37168 -1.72003 5.9
      vertex -1.37168 -1.72003 0
      vertex -1.72003 -1.37168 5.9
    endloop
  endfacet
  facet normal 0.707107 0.707107 0
    outer loop
      vertex -1.72003 -1.37168 5.9
      vertex -1.37168 -1.72003 0
      vertex -1.72003 -1.37168 0
    endloop
  endfacet
  facet normal 0.846724 0.532033 0
    outer loop
      vertex -1.98213 -0.954544 5.9
      vertex -1.72003 -1.37168 5.9
      vertex -1.72003 -1.37168 0
    endloop
  endfacet
  facet normal 0.846724 0.532033 0
    outer loop
      vertex -1.98213 -0.954544 0
      vertex -1.98213 -0.954544 5.9
      vertex -1.72003 -1.37168 0
    endloop
  endfacet
  facet normal 0.943884 0.330278 0
    outer loop
      vertex -2.14484 -0.489546 5.9
      vertex -1.98213 -0.954544 5.9
      vertex -1.98213 -0.954544 0
    endloop
  endfacet
  facet normal 0.943884 0.330278 0
    outer loop
      vertex -2.14484 -0.489546 0
      vertex -2.14484 -0.489546 5.9
      vertex -1.98213 -0.954544 0
    endloop
  endfacet
  facet normal 0 0 1
    outer loop
      vertex -4.87486 0.495725 2.5
      vertex -4.9 0 2.5
      vertex -4.87486 -0.495725 2.5
    endloop
  endfacet
  facet normal 0 0 1
    outer loop
      vertex -4.67528 -1.46688 2.5
      vertex -4.87486 0.495725 2.5
      vertex -4.7997 -0.986363 2.5
    endloop
  endfacet
  facet normal 0 0 1
    outer loop
      vertex -4.7997 -0.986363 2.5
      vertex -4.87486 0.495725 2.5
      vertex -4.87486 -0.495725 2.5
    endloop
  endfacet
  facet normal 0 0 1
    outer loop
      vertex -4.50289 -1.93234 2.5
      vertex -4.87486 0.495725 2.5
      vertex -4.67528 -1.46688 2.5
    endloop
  endfacet
  facet normal 0 0 1
    outer loop
      vertex -4.2843 -2.37798 2.5
      vertex -4.87486 0.495725 2.5
      vertex -4.50289 -1.93234 2.5
    endloop
  endfacet
  facet normal 0 0 1
    outer loop
      vertex -4.02174 -2.79921 2.5
      vertex -4.87486 0.495725 2.5
      vertex -4.2843 -2.37798 2.5
    endloop
  endfacet
  facet normal 0 0 1
    outer loop
      vertex -3.71791 -3.19172 2.5
      vertex -4.87486 0.495725 2.5
      vertex -4.02174 -2.79921 2.5
    endloop
  endfacet
  facet normal 0 0 1
    outer loop
      vertex -3.37594 -3.55149 2.5
      vertex -4.87486 0.495725 2.5
      vertex -3.71791 -3.19172 2.5
    endloop
  endfacet
  facet normal 0 0 1
    outer loop
      vertex -2.99932 -3.8748 2.5
      vertex -4.87486 0.495725 2.5
      vertex -3.37594 -3.55149 2.5
    endloop
  endfacet
  facet normal 0 0 1
    outer loop
      vertex -2.59192 -4.15836 2.5
      vertex -4.87486 0.495725 2.5
      vertex -2.99932 -3.8748 2.5
    endloop
  endfacet
  facet normal 0 0 1
    outer loop
      vertex -2.15793 -4.39924 2.5
      vertex -4.87486 0.495725 2.5
      vertex -2.59192 -4.15836 2.5
    endloop
  endfacet
  facet normal 0 0 1
    outer loop
      vertex -3.4176 -1.87884 2.5
      vertex -4.87486 0.495725 2.5
      vertex -2.15793 -4.39924 2.5
    endloop
  endfacet
  facet normal 0 0 1
    outer loop
      vertex -2.84298 -2.66973 2.5
      vertex -3.15517 -2.29236 2.5
      vertex -1.7018 -4.59498 2.5
    endloop
  endfacet
  facet normal 0 0 1
    outer loop
      vertex -3.86925 0.4888 2.5
      vertex -3.77747 0.969891 2.5
      vertex -4.87486 0.495725 2.5
    endloop
  endfacet
  facet normal 0 0 1
    outer loop
      vertex 2.48595 -3.005 2.5
      vertex 2.08973 -3.29288 2.5
      vertex 3.37594 -3.55149 2.5
    endloop
  endfacet
  facet normal 0 0 1
    outer loop
      vertex 1.66054 3.52883 2.5
      vertex 2.08973 3.29288 2.5
      vertex 2.99932 3.8748 2.5
    endloop
  endfacet
  facet normal 0 0 1
    outer loop
      vertex -0.244883 3.8923 2.5
      vertex 0.244883 3.8923 2.5
      vertex 1.2282 4.74358 2.5
    endloop
  endfacet
  facet normal 0 0 1
    outer loop
      vertex -3.15517 2.29236 2.5
      vertex -2.84298 2.66973 2.5
      vertex -4.87486 0.495725 2.5
    endloop
  endfacet
  facet normal 0 0 1
    outer loop
      vertex -1.20517 3.70912 2.5
      vertex -0.730787 3.83092 2.5
      vertex 0.248181 4.89371 2.5
    endloop
  endfacet
  facet normal 0 0 1
    outer loop
      vertex -2.84298 2.66973 2.5
      vertex -2.48595 3.005 2.5
      vertex -0.741996 4.84349 2.5
    endloop
  endfacet
  facet normal 0 0 1
    outer loop
      vertex -1.7018 4.59498 2.5
      vertex -4.87486 0.495725 2.5
      vertex -1.2282 4.74358 2.5
    endloop
  endfacet
  facet normal 0 0 1
    outer loop
      vertex -2.15793 4.39924 2.5
      vertex -4.87486 0.495725 2.5
      vertex -1.7018 4.59498 2.5
    endloop
  endfacet
  facet normal 0 0 1
    outer loop
      vertex -2.59192 4.15836 2.5
      vertex -4.87486 0.495725 2.5
      vertex -2.15793 4.39924 2.5
    endloop
  endfacet
  facet normal 0 0 1
    outer loop
      vertex -2.99932 3.8748 2.5
      vertex -4.87486 0.495725 2.5
      vertex -2.59192 4.15836 2.5
    endloop
  endfacet
  facet normal 0 0 1
    outer loop
      vertex -3.37594 3.55149 2.5
      vertex -4.87486 0.495725 2.5
      vertex -2.99932 3.8748 2.5
    endloop
  endfacet
  facet normal 0 0 1
    outer loop
      vertex -3.71791 3.19172 2.5
      vertex -4.87486 0.495725 2.5
      vertex -3.37594 3.55149 2.5
    endloop
  endfacet
  facet normal 0 0 1
    outer loop
      vertex -4.02174 2.79921 2.5
      vertex -4.87486 0.495725 2.5
      vertex -3.71791 3.19172 2.5
    endloop
  endfacet
  facet normal 0 0 1
    outer loop
      vertex -4.2843 2.37798 2.5
      vertex -4.87486 0.495725 2.5
      vertex -4.02174 2.79921 2.5
    endloop
  endfacet
  facet normal 0 0 1
    outer loop
      vertex -4.50289 1.93234 2.5
      vertex -4.87486 0.495725 2.5
      vertex -4.2843 2.37798 2.5
    endloop
  endfacet
  facet normal 0 0 1
    outer loop
      vertex -4.67528 1.46688 2.5
      vertex -4.87486 0.495725 2.5
      vertex -4.50289 1.93234 2.5
    endloop
  endfacet
  facet normal 0 0 1
    outer loop
      vertex -4.7997 0.986363 2.5
      vertex -4.87486 0.495725 2.5
      vertex -4.67528 1.46688 2.5
    endloop
  endfacet
  facet normal 0 0 1
    outer loop
      vertex -1.20517 -3.70912 2.5
      vertex -1.66054 -3.52883 2.5
      vertex -0.248181 -4.89371 2.5
    endloop
  endfacet
  facet normal 0 0 1
    outer loop
      vertex 2.84298 -2.66973 2.5
      vertex 2.48595 -3.005 2.5
      vertex 3.71791 -3.19172 2.5
    endloop
  endfacet
  facet normal 0 0 1
    outer loop
      vertex 1.66054 -3.52883 2.5
      vertex 1.20517 -3.70912 2.5
      vertex 2.59192 -4.15836 2.5
    endloop
  endfacet
  facet normal 0 0 1
    outer loop
      vertex 3.9 0 2.5
      vertex 3.86925 -0.4888 2.5
      vertex 4.87486 -0.495725 2.5
    endloop
  endfacet
  facet normal 0 0 1
    outer loop
      vertex 2.08973 3.29288 2.5
      vertex 2.48595 3.005 2.5
      vertex 3.37594 3.55149 2.5
    endloop
  endfacet
  facet normal 0 0 1
    outer loop
      vertex 0.244883 3.8923 2.5
      vertex 0.730787 3.83092 2.5
      vertex 1.7018 4.59498 2.5
    endloop
  endfacet
  facet normal 0 0 1
    outer loop
      vertex -0.730787 3.83092 2.5
      vertex -0.244883 3.8923 2.5
      vertex 0.741996 4.84349 2.5
    endloop
  endfacet
  facet normal 0 0 1
    outer loop
      vertex -2.08973 3.29288 2.5
      vertex -1.66054 3.52883 2.5
      vertex -0.248181 4.89371 2.5
    endloop
  endfacet
  facet normal 0 0 1
    outer loop
      vertex -1.2282 4.74358 2.5
      vertex -2.84298 2.66973 2.5
      vertex -0.741996 4.84349 2.5
    endloop
  endfacet
  facet normal 0 0 1
    outer loop
      vertex -1.2282 4.74358 2.5
      vertex -4.87486 0.495725 2.5
      vertex -2.84298 2.66973 2.5
    endloop
  endfacet
  facet normal 0 0 1
    outer loop
      vertex -2.48595 3.005 2.5
      vertex -2.08973 3.29288 2.5
      vertex -0.741996 4.84349 2.5
    endloop
  endfacet
  facet normal 0 0 1
    outer loop
      vertex -0.741996 4.84349 2.5
      vertex -2.08973 3.29288 2.5
      vertex -0.248181 4.89371 2.5
    endloop
  endfacet
  facet normal 0 0 1
    outer loop
      vertex -0.248181 4.89371 2.5
      vertex -1.66054 3.52883 2.5
      vertex 0.248181 4.89371 2.5
    endloop
  endfacet
  facet normal 0 0 1
    outer loop
      vertex -1.66054 3.52883 2.5
      vertex -1.20517 3.70912 2.5
      vertex 0.248181 4.89371 2.5
    endloop
  endfacet
  facet normal 0 0 1
    outer loop
      vertex 0.248181 4.89371 2.5
      vertex -0.730787 3.83092 2.5
      vertex 0.741996 4.84349 2.5
    endloop
  endfacet
  facet normal 0 0 1
    outer loop
      vertex -3.4176 1.87884 2.5
      vertex -3.15517 2.29236 2.5
      vertex -4.87486 0.495725 2.5
    endloop
  endfacet
  facet normal 0 0 1
    outer loop
      vertex 0.741996 4.84349 2.5
      vertex -0.244883 3.8923 2.5
      vertex 1.2282 4.74358 2.5
    endloop
  endfacet
  facet normal 0 0 1
    outer loop
      vertex 1.2282 4.74358 2.5
      vertex 0.244883 3.8923 2.5
      vertex 1.7018 4.59498 2.5
    endloop
  endfacet
  facet normal 0 0 1
    outer loop
      vertex 1.20517 3.70912 2.5
      vertex 1.66054 3.52883 2.5
      vertex 2.59192 4.15836 2.5
    endloop
  endfacet
  facet normal 0 0 1
    outer loop
      vertex 1.7018 4.59498 2.5
      vertex 0.730787 3.83092 2.5
      vertex 2.15793 4.39924 2.5
    endloop
  endfacet
  facet normal 0 0 1
    outer loop
      vertex -3.62613 1.43569 2.5
      vertex -3.4176 1.87884 2.5
      vertex -4.87486 0.495725 2.5
    endloop
  endfacet
  facet normal 0 0 1
    outer loop
      vertex 2.15793 4.39924 2.5
      vertex 1.20517 3.70912 2.5
      vertex 2.59192 4.15836 2.5
    endloop
  endfacet
  facet normal 0 0 1
    outer loop
      vertex 2.59192 4.15836 2.5
      vertex 1.66054 3.52883 2.5
      vertex 2.99932 3.8748 2.5
    endloop
  endfacet
  facet normal 0 0 1
    outer loop
      vertex 2.99932 3.8748 2.5
      vertex 2.08973 3.29288 2.5
      vertex 3.37594 3.55149 2.5
    endloop
  endfacet
  facet normal 0 0 1
    outer loop
      vertex 0.730787 3.83092 2.5
      vertex 1.20517 3.70912 2.5
      vertex 2.15793 4.39924 2.5
    endloop
  endfacet
  facet normal 0 0 1
    outer loop
      vertex 3.37594 3.55149 2.5
      vertex 2.48595 3.005 2.5
      vertex 3.71791 3.19172 2.5
    endloop
  endfacet
  facet normal 0 0 1
    outer loop
      vertex 3.71791 3.19172 2.5
      vertex 2.84298 2.66973 2.5
      vertex 4.02174 2.79921 2.5
    endloop
  endfacet
  facet normal 0 0 1
    outer loop
      vertex 3.77747 0.969891 2.5
      vertex 3.86925 0.4888 2.5
      vertex 4.87486 0.495725 2.5
    endloop
  endfacet
  facet normal 0 0 1
    outer loop
      vertex 4.02174 2.79921 2.5
      vertex 3.15517 2.29236 2.5
      vertex 4.2843 2.37798 2.5
    endloop
  endfacet
  facet normal 0 0 1
    outer loop
      vertex -3.77747 0.969891 2.5
      vertex -3.62613 1.43569 2.5
      vertex -4.87486 0.495725 2.5
    endloop
  endfacet
  facet normal 0 0 1
    outer loop
      vertex 4.2843 2.37798 2.5
      vertex 3.4176 1.87884 2.5
      vertex 4.50289 1.93234 2.5
    endloop
  endfacet
  facet normal 0 0 1
    outer loop
      vertex 4.50289 1.93234 2.5
      vertex 3.62613 1.43569 2.5
      vertex 4.67528 1.46688 2.5
    endloop
  endfacet
  facet normal 0 0 1
    outer loop
      vertex 4.67528 1.46688 2.5
      vertex 3.77747 0.969891 2.5
      vertex 4.7997 0.986363 2.5
    endloop
  endfacet
  facet normal 0 0 1
    outer loop
      vertex 4.87486 0.495725 2.5
      vertex 3.86925 0.4888 2.5
      vertex 4.9 0 2.5
    endloop
  endfacet
  facet normal 0 0 1
    outer loop
      vertex 4.9 0 2.5
      vertex 3.9 0 2.5
      vertex 4.87486 -0.495725 2.5
    endloop
  endfacet
  facet normal 0 0 1
    outer loop
      vertex 2.48595 3.005 2.5
      vertex 2.84298 2.66973 2.5
      vertex 3.71791 3.19172 2.5
    endloop
  endfacet
  facet normal 0 0 1
    outer loop
      vertex 4.87486 -0.495725 2.5
      vertex 3.86925 -0.4888 2.5
      vertex 4.7997 -0.986363 2.5
    endloop
  endfacet
  facet normal 0 0 1
    outer loop
      vertex 2.84298 2.66973 2.5
      vertex 3.15517 2.29236 2.5
      vertex 4.02174 2.79921 2.5
    endloop
  endfacet
  facet normal 0 0 1
    outer loop
      vertex 4.7997 -0.986363 2.5
      vertex 3.77747 -0.969891 2.5
      vertex 4.67528 -1.46688 2.5
    endloop
  endfacet
  facet normal 0 0 1
    outer loop
      vertex 3.15517 2.29236 2.5
      vertex 3.4176 1.87884 2.5
      vertex 4.2843 2.37798 2.5
    endloop
  endfacet
  facet normal 0 0 1
    outer loop
      vertex 4.67528 -1.46688 2.5
      vertex 3.62613 -1.43569 2.5
      vertex 4.50289 -1.93234 2.5
    endloop
  endfacet
  facet normal 0 0 1
    outer loop
      vertex 3.4176 1.87884 2.5
      vertex 3.62613 1.43569 2.5
      vertex 4.50289 1.93234 2.5
    endloop
  endfacet
  facet normal 0 0 1
    outer loop
      vertex 4.50289 -1.93234 2.5
      vertex 3.4176 -1.87884 2.5
      vertex 4.2843 -2.37798 2.5
    endloop
  endfacet
  facet normal 0 0 1
    outer loop
      vertex 3.62613 1.43569 2.5
      vertex 3.77747 0.969891 2.5
      vertex 4.67528 1.46688 2.5
    endloop
  endfacet
  facet normal 0 0 1
    outer loop
      vertex 4.2843 -2.37798 2.5
      vertex 3.15517 -2.29236 2.5
      vertex 4.02174 -2.79921 2.5
    endloop
  endfacet
  facet normal 0 0 1
    outer loop
      vertex 4.02174 -2.79921 2.5
      vertex 2.84298 -2.66973 2.5
      vertex 3.71791 -3.19172 2.5
    endloop
  endfacet
  facet normal 0 0 1
    outer loop
      vertex 3.77747 0.969891 2.5
      vertex 4.87486 0.495725 2.5
      vertex 4.7997 0.986363 2.5
    endloop
  endfacet
  facet normal 0 0 1
    outer loop
      vertex 3.71791 -3.19172 2.5
      vertex 2.48595 -3.005 2.5
      vertex 3.37594 -3.55149 2.5
    endloop
  endfacet
  facet normal 0 0 1
    outer loop
      vertex 3.86925 0.4888 2.5
      vertex 3.9 0 2.5
      vertex 4.9 0 2.5
    endloop
  endfacet
  facet normal 0 0 1
    outer loop
      vertex 3.37594 -3.55149 2.5
      vertex 2.08973 -3.29288 2.5
      vertex 2.99932 -3.8748 2.5
    endloop
  endfacet
  facet normal 0 0 1
    outer loop
      vertex 2.99932 -3.8748 2.5
      vertex 1.66054 -3.52883 2.5
      vertex 2.59192 -4.15836 2.5
    endloop
  endfacet
  facet normal 0 0 1
    outer loop
      vertex 3.86925 -0.4888 2.5
      vertex 3.77747 -0.969891 2.5
      vertex 4.7997 -0.986363 2.5
    endloop
  endfacet
  facet normal 0 0 1
    outer loop
      vertex 2.59192 -4.15836 2.5
      vertex 1.20517 -3.70912 2.5
      vertex 2.15793 -4.39924 2.5
    endloop
  endfacet
  facet normal 0 0 1
    outer loop
      vertex 3.77747 -0.969891 2.5
      vertex 3.62613 -1.43569 2.5
      vertex 4.67528 -1.46688 2.5
    endloop
  endfacet
  facet normal 0 0 1
    outer loop
      vertex 2.15793 -4.39924 2.5
      vertex 0.730787 -3.83092 2.5
      vertex 1.7018 -4.59498 2.5
    endloop
  endfacet
  facet normal 0 0 1
    outer loop
      vertex 3.62613 -1.43569 2.5
      vertex 3.4176 -1.87884 2.5
      vertex 4.50289 -1.93234 2.5
    endloop
  endfacet
  facet normal 0 0 1
    outer loop
      vertex 1.7018 -4.59498 2.5
      vertex 0.244883 -3.8923 2.5
      vertex 1.2282 -4.74358 2.5
    endloop
  endfacet
  facet normal 0 0 1
    outer loop
      vertex 3.4176 -1.87884 2.5
      vertex 3.15517 -2.29236 2.5
      vertex 4.2843 -2.37798 2.5
    endloop
  endfacet
  facet normal 0 0 1
    outer loop
      vertex 1.2282 -4.74358 2.5
      vertex -0.244883 -3.8923 2.5
      vertex 0.741996 -4.84349 2.5
    endloop
  endfacet
  facet normal 0 0 1
    outer loop
      vertex 3.15517 -2.29236 2.5
      vertex 2.84298 -2.66973 2.5
      vertex 4.02174 -2.79921 2.5
    endloop
  endfacet
  facet normal 0 0 1
    outer loop
      vertex 0.741996 -4.84349 2.5
      vertex -0.730787 -3.83092 2.5
      vertex 0.248181 -4.89371 2.5
    endloop
  endfacet
  facet normal 0 0 1
    outer loop
      vertex 0.248181 -4.89371 2.5
      vertex -1.20517 -3.70912 2.5
      vertex -0.248181 -4.89371 2.5
    endloop
  endfacet
  facet normal 0 0 1
    outer loop
      vertex -0.244883 -3.8923 2.5
      vertex -0.730787 -3.83092 2.5
      vertex 0.741996 -4.84349 2.5
    endloop
  endfacet
  facet normal 0 0 1
    outer loop
      vertex -0.248181 -4.89371 2.5
      vertex -1.66054 -3.52883 2.5
      vertex -0.741996 -4.84349 2.5
    endloop
  endfacet
  facet normal 0 0 1
    outer loop
      vertex 1.20517 -3.70912 2.5
      vertex 0.730787 -3.83092 2.5
      vertex 2.15793 -4.39924 2.5
    endloop
  endfacet
  facet normal 0 0 1
    outer loop
      vertex -0.741996 -4.84349 2.5
      vertex -2.08973 -3.29288 2.5
      vertex -1.2282 -4.74358 2.5
    endloop
  endfacet
  facet normal 0 0 1
    outer loop
      vertex -1.2282 -4.74358 2.5
      vertex -2.48595 -3.005 2.5
      vertex -1.7018 -4.59498 2.5
    endloop
  endfacet
  facet normal 0 0 1
    outer loop
      vertex -2.48595 -3.005 2.5
      vertex -2.84298 -2.66973 2.5
      vertex -1.7018 -4.59498 2.5
    endloop
  endfacet
  facet normal 0 0 1
    outer loop
      vertex -1.7018 -4.59498 2.5
      vertex -3.15517 -2.29236 2.5
      vertex -2.15793 -4.39924 2.5
    endloop
  endfacet
  facet normal 0 0 1
    outer loop
      vertex -3.15517 -2.29236 2.5
      vertex -3.4176 -1.87884 2.5
      vertex -2.15793 -4.39924 2.5
    endloop
  endfacet
  facet normal 0 0 1
    outer loop
      vertex -3.62613 -1.43569 2.5
      vertex -3.77747 -0.969891 2.5
      vertex -4.87486 0.495725 2.5
    endloop
  endfacet
  facet normal 0 0 1
    outer loop
      vertex 0.730787 -3.83092 2.5
      vertex 0.244883 -3.8923 2.5
      vertex 1.7018 -4.59498 2.5
    endloop
  endfacet
  facet normal 0 0 1
    outer loop
      vertex -3.4176 -1.87884 2.5
      vertex -3.62613 -1.43569 2.5
      vertex -4.87486 0.495725 2.5
    endloop
  endfacet
  facet normal 0 0 1
    outer loop
      vertex -2.08973 -3.29288 2.5
      vertex -2.48595 -3.005 2.5
      vertex -1.2282 -4.74358 2.5
    endloop
  endfacet
  facet normal 0 0 1
    outer loop
      vertex -3.77747 -0.969891 2.5
      vertex -3.86925 -0.4888 2.5
      vertex -4.87486 0.495725 2.5
    endloop
  endfacet
  facet normal 0 0 1
    outer loop
      vertex 0.244883 -3.8923 2.5
      vertex -0.244883 -3.8923 2.5
      vertex 1.2282 -4.74358 2.5
    endloop
  endfacet
  facet normal 0 0 1
    outer loop
      vertex -0.730787 -3.83092 2.5
      vertex -1.20517 -3.70912 2.5
      vertex 0.248181 -4.89371 2.5
    endloop
  endfacet
  facet normal 0 0 1
    outer loop
      vertex -3.86925 -0.4888 2.5
      vertex -3.9 0 2.5
      vertex -4.87486 0.495725 2.5
    endloop
  endfacet
  facet normal 0 0 1
    outer loop
      vertex -1.66054 -3.52883 2.5
      vertex -2.08973 -3.29288 2.5
      vertex -0.741996 -4.84349 2.5
    endloop
  endfacet
  facet normal 0 0 1
    outer loop
      vertex 2.08973 -3.29288 2.5
      vertex 1.66054 -3.52883 2.5
      vertex 2.99932 -3.8748 2.5
    endloop
  endfacet
  facet normal 0 0 1
    outer loop
      vertex -3.9 0 2.5
      vertex -3.86925 0.4888 2.5
      vertex -4.87486 0.495725 2.5
    endloop
  endfacet
  facet normal 0 0 1
    outer loop
      vertex -3.86925 0.4888 5.9
      vertex -3.9 0 5.9
      vertex -3.86925 -0.4888 5.9
    endloop
  endfacet
  facet normal 0 0 1
    outer loop
      vertex -3.62613 -1.43569 5.9
      vertex -3.86925 0.4888 5.9
      vertex -3.77747 -0.969891 5.9
    endloop
  endfacet
  facet normal 0 0 1
    outer loop
      vertex -3.77747 -0.969891 5.9
      vertex -3.86925 0.4888 5.9
      vertex -3.86925 -0.4888 5.9
    endloop
  endfacet
  facet normal 0 0 1
    outer loop
      vertex -3.4176 -1.87884 5.9
      vertex -3.86925 0.4888 5.9
      vertex -3.62613 -1.43569 5.9
    endloop
  endfacet
  facet normal 0 0 1
    outer loop
      vertex -3.15517 -2.29236 5.9
      vertex -3.86925 0.4888 5.9
      vertex -3.4176 -1.87884 5.9
    endloop
  endfacet
  facet normal 0 0 1
    outer loop
      vertex -2.84298 -2.66973 5.9
      vertex -3.86925 0.4888 5.9
      vertex -3.15517 -2.29236 5.9
    endloop
  endfacet
  facet normal 0 0 1
    outer loop
      vertex -2.48595 -3.005 5.9
      vertex -3.86925 0.4888 5.9
      vertex -2.84298 -2.66973 5.9
    endloop
  endfacet
  facet normal 0 0 1
    outer loop
      vertex -2.08973 -3.29288 5.9
      vertex -3.86925 0.4888 5.9
      vertex -2.48595 -3.005 5.9
    endloop
  endfacet
  facet normal 0 0 1
    outer loop
      vertex -1.66054 -3.52883 5.9
      vertex -3.86925 0.4888 5.9
      vertex -2.08973 -3.29288 5.9
    endloop
  endfacet
  facet normal 0 0 1
    outer loop
      vertex -1.20517 -3.70912 5.9
      vertex -3.86925 0.4888 5.9
      vertex -1.66054 -3.52883 5.9
    endloop
  endfacet
  facet normal 0 0 1
    outer loop
      vertex -0.730787 -3.83092 5.9
      vertex -3.86925 0.4888 5.9
      vertex -1.20517 -3.70912 5.9
    endloop
  endfacet
  facet normal 0 0 1
    outer loop
      vertex -0.244883 -3.8923 5.9
      vertex -3.86925 0.4888 5.9
      vertex -0.730787 -3.83092 5.9
    endloop
  endfacet
  facet normal 0 0 1
    outer loop
      vertex 0.244883 -3.8923 5.9
      vertex -3.86925 0.4888 5.9
      vertex -0.244883 -3.8923 5.9
    endloop
  endfacet
  facet normal 0 0 1
    outer loop
      vertex 0.730787 -3.83092 5.9
      vertex -3.86925 0.4888 5.9
      vertex 0.244883 -3.8923 5.9
    endloop
  endfacet
  facet normal 0 0 1
    outer loop
      vertex -1.37168 -1.72003 5.9
      vertex -3.86925 0.4888 5.9
      vertex 0.730787 -3.83092 5.9
    endloop
  endfacet
  facet normal 0 0 1
    outer loop
      vertex 0.954544 -1.98213 5.9
      vertex 0.489546 -2.14484 5.9
      vertex 2.48595 -3.005 5.9
    endloop
  endfacet
  facet normal 0 0 1
    outer loop
      vertex 1.98213 -0.954544 5.9
      vertex 3.4176 -1.87884 5.9
      vertex 3.62613 -1.43569 5.9
    endloop
  endfacet
  facet normal 0 0 1
    outer loop
      vertex 2.14484 -0.489546 5.9
      vertex 1.98213 -0.954544 5.9
      vertex 3.77747 -0.969891 5.9
    endloop
  endfacet
  facet normal 0 0 1
    outer loop
      vertex 2.2 0 5.9
      vertex 2.14484 -0.489546 5.9
      vertex 3.86925 -0.4888 5.9
    endloop
  endfacet
  facet normal 0 0 1
    outer loop
      vertex -2.14484 0.489546 5.9
      vertex -1.98213 0.954544 5.9
      vertex -3.86925 0.4888 5.9
    endloop
  endfacet
  facet normal 0 0 1
    outer loop
      vertex 2.14484 0.489546 5.9
      vertex 3.9 0 5.9
      vertex 3.86925 0.4888 5.9
    endloop
  endfacet
  facet normal 0 0 1
    outer loop
      vertex 1.98213 0.954544 5.9
      vertex 2.14484 0.489546 5.9
      vertex 3.77747 0.969891 5.9
    endloop
  endfacet
  facet normal 0 0 1
    outer loop
      vertex 1.37168 1.72003 5.9
      vertex 1.72003 1.37168 5.9
      vertex 3.4176 1.87884 5.9
    endloop
  endfacet
  facet normal 0 0 1
    outer loop
      vertex -0.489546 2.14484 5.9
      vertex 0 2.2 5.9
      vertex 2.08973 3.29288 5.9
    endloop
  endfacet
  facet normal 0 0 1
    outer loop
      vertex 0 2.2 5.9
      vertex 0.489546 2.14484 5.9
      vertex 2.48595 3.005 5.9
    endloop
  endfacet
  facet normal 0 0 1
    outer loop
      vertex 1.20517 3.70912 5.9
      vertex -3.86925 0.4888 5.9
      vertex 1.66054 3.52883 5.9
    endloop
  endfacet
  facet normal 0 0 1
    outer loop
      vertex 0.730787 3.83092 5.9
      vertex -3.86925 0.4888 5.9
      vertex 1.20517 3.70912 5.9
    endloop
  endfacet
  facet normal 0 0 1
    outer loop
      vertex 0.244883 3.8923 5.9
      vertex -3.86925 0.4888 5.9
      vertex 0.730787 3.83092 5.9
    endloop
  endfacet
  facet normal 0 0 1
    outer loop
      vertex -0.244883 3.8923 5.9
      vertex -3.86925 0.4888 5.9
      vertex 0.244883 3.8923 5.9
    endloop
  endfacet
  facet normal 0 0 1
    outer loop
      vertex -0.730787 3.83092 5.9
      vertex -3.86925 0.4888 5.9
      vertex -0.244883 3.8923 5.9
    endloop
  endfacet
  facet normal 0 0 1
    outer loop
      vertex -1.20517 3.70912 5.9
      vertex -3.86925 0.4888 5.9
      vertex -0.730787 3.83092 5.9
    endloop
  endfacet
  facet normal 0 0 1
    outer loop
      vertex -1.66054 3.52883 5.9
      vertex -3.86925 0.4888 5.9
      vertex -1.20517 3.70912 5.9
    endloop
  endfacet
  facet normal 0 0 1
    outer loop
      vertex -2.08973 3.29288 5.9
      vertex -3.86925 0.4888 5.9
      vertex -1.66054 3.52883 5.9
    endloop
  endfacet
  facet normal 0 0 1
    outer loop
      vertex -2.48595 3.005 5.9
      vertex -3.86925 0.4888 5.9
      vertex -2.08973 3.29288 5.9
    endloop
  endfacet
  facet normal 0 0 1
    outer loop
      vertex -2.84298 2.66973 5.9
      vertex -3.86925 0.4888 5.9
      vertex -2.48595 3.005 5.9
    endloop
  endfacet
  facet normal 0 0 1
    outer loop
      vertex -3.15517 2.29236 5.9
      vertex -3.86925 0.4888 5.9
      vertex -2.84298 2.66973 5.9
    endloop
  endfacet
  facet normal 0 0 1
    outer loop
      vertex -3.4176 1.87884 5.9
      vertex -3.86925 0.4888 5.9
      vertex -3.15517 2.29236 5.9
    endloop
  endfacet
  facet normal 0 0 1
    outer loop
      vertex -3.62613 1.43569 5.9
      vertex -3.86925 0.4888 5.9
      vertex -3.4176 1.87884 5.9
    endloop
  endfacet
  facet normal 0 0 1
    outer loop
      vertex -3.77747 0.969891 5.9
      vertex -3.86925 0.4888 5.9
      vertex -3.62613 1.43569 5.9
    endloop
  endfacet
  facet normal 0 0 1
    outer loop
      vertex 1.72003 -1.37168 5.9
      vertex 1.37168 -1.72003 5.9
      vertex 3.15517 -2.29236 5.9
    endloop
  endfacet
  facet normal 0 0 1
    outer loop
      vertex 1.98213 -0.954544 5.9
      vertex 1.72003 -1.37168 5.9
      vertex 3.4176 -1.87884 5.9
    endloop
  endfacet
  facet normal 0 0 1
    outer loop
      vertex -1.98213 0.954544 5.9
      vertex -1.72003 1.37168 5.9
      vertex -3.86925 0.4888 5.9
    endloop
  endfacet
  facet normal 0 0 1
    outer loop
      vertex 1.72003 1.37168 5.9
      vertex 1.98213 0.954544 5.9
      vertex 3.62613 1.43569 5.9
    endloop
  endfacet
  facet normal 0 0 1
    outer loop
      vertex 0.489546 2.14484 5.9
      vertex 0.954544 1.98213 5.9
      vertex 2.84298 2.66973 5.9
    endloop
  endfacet
  facet normal 0 0 1
    outer loop
      vertex -0.954544 1.98213 5.9
      vertex -0.489546 2.14484 5.9
      vertex 1.66054 3.52883 5.9
    endloop
  endfacet
  facet normal 0 0 1
    outer loop
      vertex 0.954544 1.98213 5.9
      vertex 1.37168 1.72003 5.9
      vertex 3.15517 2.29236 5.9
    endloop
  endfacet
  facet normal 0 0 1
    outer loop
      vertex -0.954544 1.98213 5.9
      vertex -3.86925 0.4888 5.9
      vertex -1.37168 1.72003 5.9
    endloop
  endfacet
  facet normal 0 0 1
    outer loop
      vertex 1.66054 3.52883 5.9
      vertex -3.86925 0.4888 5.9
      vertex -0.954544 1.98213 5.9
    endloop
  endfacet
  facet normal 0 0 1
    outer loop
      vertex 1.66054 3.52883 5.9
      vertex -0.489546 2.14484 5.9
      vertex 2.08973 3.29288 5.9
    endloop
  endfacet
  facet normal 0 0 1
    outer loop
      vertex 2.08973 3.29288 5.9
      vertex 0 2.2 5.9
      vertex 2.48595 3.005 5.9
    endloop
  endfacet
  facet normal 0 0 1
    outer loop
      vertex 2.48595 3.005 5.9
      vertex 0.489546 2.14484 5.9
      vertex 2.84298 2.66973 5.9
    endloop
  endfacet
  facet normal 0 0 1
    outer loop
      vertex -1.72003 1.37168 5.9
      vertex -1.37168 1.72003 5.9
      vertex -3.86925 0.4888 5.9
    endloop
  endfacet
  facet normal 0 0 1
    outer loop
      vertex 2.84298 2.66973 5.9
      vertex 0.954544 1.98213 5.9
      vertex 3.15517 2.29236 5.9
    endloop
  endfacet
  facet normal 0 0 1
    outer loop
      vertex 3.15517 2.29236 5.9
      vertex 1.37168 1.72003 5.9
      vertex 3.4176 1.87884 5.9
    endloop
  endfacet
  facet normal 0 0 1
    outer loop
      vertex 3.4176 1.87884 5.9
      vertex 1.72003 1.37168 5.9
      vertex 3.62613 1.43569 5.9
    endloop
  endfacet
  facet normal 0 0 1
    outer loop
      vertex 3.62613 1.43569 5.9
      vertex 1.98213 0.954544 5.9
      vertex 3.77747 0.969891 5.9
    endloop
  endfacet
  facet normal 0 0 1
    outer loop
      vertex 2.14484 0.489546 5.9
      vertex 2.2 0 5.9
      vertex 3.9 0 5.9
    endloop
  endfacet
  facet normal 0 0 1
    outer loop
      vertex 3.77747 0.969891 5.9
      vertex 2.14484 0.489546 5.9
      vertex 3.86925 0.4888 5.9
    endloop
  endfacet
  facet normal 0 0 1
    outer loop
      vertex 3.9 0 5.9
      vertex 2.2 0 5.9
      vertex 3.86925 -0.4888 5.9
    endloop
  endfacet
  facet normal 0 0 1
    outer loop
      vertex 3.86925 -0.4888 5.9
      vertex 2.14484 -0.489546 5.9
      vertex 3.77747 -0.969891 5.9
    endloop
  endfacet
  facet normal 0 0 1
    outer loop
      vertex 3.77747 -0.969891 5.9
      vertex 1.98213 -0.954544 5.9
      vertex 3.62613 -1.43569 5.9
    endloop
  endfacet
  facet normal 0 0 1
    outer loop
      vertex 3.4176 -1.87884 5.9
      vertex 1.72003 -1.37168 5.9
      vertex 3.15517 -2.29236 5.9
    endloop
  endfacet
  facet normal 0 0 1
    outer loop
      vertex 3.15517 -2.29236 5.9
      vertex 1.37168 -1.72003 5.9
      vertex 2.84298 -2.66973 5.9
    endloop
  endfacet
  facet normal 0 0 1
    outer loop
      vertex 2.84298 -2.66973 5.9
      vertex 0.954544 -1.98213 5.9
      vertex 2.48595 -3.005 5.9
    endloop
  endfacet
  facet normal 0 0 1
    outer loop
      vertex 2.48595 -3.005 5.9
      vertex 0.489546 -2.14484 5.9
      vertex 2.08973 -3.29288 5.9
    endloop
  endfacet
  facet normal 0 0 1
    outer loop
      vertex 2.08973 -3.29288 5.9
      vertex 0 -2.2 5.9
      vertex 1.66054 -3.52883 5.9
    endloop
  endfacet
  facet normal 0 0 1
    outer loop
      vertex 1.37168 -1.72003 5.9
      vertex 0.954544 -1.98213 5.9
      vertex 2.84298 -2.66973 5.9
    endloop
  endfacet
  facet normal 0 0 1
    outer loop
      vertex 1.66054 -3.52883 5.9
      vertex -0.489546 -2.14484 5.9
      vertex 1.20517 -3.70912 5.9
    endloop
  endfacet
  facet normal 0 0 1
    outer loop
      vertex 1.20517 -3.70912 5.9
      vertex -0.954544 -1.98213 5.9
      vertex 0.730787 -3.83092 5.9
    endloop
  endfacet
  facet normal 0 0 1
    outer loop
      vertex -0.954544 -1.98213 5.9
      vertex -1.37168 -1.72003 5.9
      vertex 0.730787 -3.83092 5.9
    endloop
  endfacet
  facet normal 0 0 1
    outer loop
      vertex -1.72003 -1.37168 5.9
      vertex -3.86925 0.4888 5.9
      vertex -1.37168 -1.72003 5.9
    endloop
  endfacet
  facet normal 0 0 1
    outer loop
      vertex -1.72003 -1.37168 5.9
      vertex -1.98213 -0.954544 5.9
      vertex -3.86925 0.4888 5.9
    endloop
  endfacet
  facet normal 0 0 1
    outer loop
      vertex -0.489546 -2.14484 5.9
      vertex -0.954544 -1.98213 5.9
      vertex 1.20517 -3.70912 5.9
    endloop
  endfacet
  facet normal 0 0 1
    outer loop
      vertex -1.98213 -0.954544 5.9
      vertex -2.14484 -0.489546 5.9
      vertex -3.86925 0.4888 5.9
    endloop
  endfacet
  facet normal 0 0 1
    outer loop
      vertex 0 -2.2 5.9
      vertex -0.489546 -2.14484 5.9
      vertex 1.66054 -3.52883 5.9
    endloop
  endfacet
  facet normal 0 0 1
    outer loop
      vertex 0.489546 -2.14484 5.9
      vertex 0 -2.2 5.9
      vertex 2.08973 -3.29288 5.9
    endloop
  endfacet
  facet normal 0 0 1
    outer loop
      vertex -2.14484 -0.489546 5.9
      vertex -2.2 0 5.9
      vertex -3.86925 0.4888 5.9
    endloop
  endfacet
  facet normal 0 0 1
    outer loop
      vertex -2.2 0 5.9
      vertex -2.14484 0.489546 5.9
      vertex -3.86925 0.4888 5.9
    endloop
  endfacet
  facet normal -0.982287 -0.187381 0
    outer loop
      vertex -3.86925 -0.4888 2.5
      vertex -3.77747 -0.969891 2.5
      vertex -3.86925 -0.4888 5.9
    endloop
  endfacet
  facet normal -0.982287 -0.187381 0
    outer loop
      vertex -3.86925 -0.4888 5.9
      vertex -3.77747 -0.969891 2.5
      vertex -3.77747 -0.969891 5.9
    endloop
  endfacet
  facet normal -0.998027 -0.0627912 0
    outer loop
      vertex -3.9 0 2.5
      vertex -3.86925 -0.4888 2.5
      vertex -3.9 0 5.9
    endloop
  endfacet
  facet normal -0.998027 -0.0627912 0
    outer loop
      vertex -3.9 0 5.9
      vertex -3.86925 -0.4888 2.5
      vertex -3.86925 -0.4888 5.9
    endloop
  endfacet
  facet normal -0.951056 -0.309017 0
    outer loop
      vertex -3.77747 -0.969891 2.5
      vertex -3.62613 -1.43569 2.5
      vertex -3.77747 -0.969891 5.9
    endloop
  endfacet
  facet normal -0.951056 -0.309017 0
    outer loop
      vertex -3.77747 -0.969891 5.9
      vertex -3.62613 -1.43569 2.5
      vertex -3.62613 -1.43569 5.9
    endloop
  endfacet
  facet normal -0.904827 -0.425779 0
    outer loop
      vertex -3.62613 -1.43569 2.5
      vertex -3.4176 -1.87884 2.5
      vertex -3.62613 -1.43569 5.9
    endloop
  endfacet
  facet normal -0.904827 -0.425779 0
    outer loop
      vertex -3.62613 -1.43569 5.9
      vertex -3.4176 -1.87884 2.5
      vertex -3.4176 -1.87884 5.9
    endloop
  endfacet
  facet normal -0.844328 -0.535827 0
    outer loop
      vertex -3.4176 -1.87884 2.5
      vertex -3.15517 -2.29236 2.5
      vertex -3.4176 -1.87884 5.9
    endloop
  endfacet
  facet normal -0.844328 -0.535827 0
    outer loop
      vertex -3.4176 -1.87884 5.9
      vertex -3.15517 -2.29236 2.5
      vertex -3.15517 -2.29236 5.9
    endloop
  endfacet
  facet normal -0.770515 -0.637422 0
    outer loop
      vertex -3.15517 -2.29236 2.5
      vertex -2.84298 -2.66973 2.5
      vertex -3.15517 -2.29236 5.9
    endloop
  endfacet
  facet normal -0.770515 -0.637422 0
    outer loop
      vertex -3.15517 -2.29236 5.9
      vertex -2.84298 -2.66973 2.5
      vertex -2.84298 -2.66973 5.9
    endloop
  endfacet
  facet normal -0.684547 -0.728968 0
    outer loop
      vertex -2.84298 -2.66973 5.9
      vertex -2.84298 -2.66973 2.5
      vertex -2.48595 -3.005 2.5
    endloop
  endfacet
  facet normal -0.684547 -0.728968 0
    outer loop
      vertex -2.48595 -3.005 5.9
      vertex -2.84298 -2.66973 5.9
      vertex -2.48595 -3.005 2.5
    endloop
  endfacet
  facet normal -0.587785 -0.809017 0
    outer loop
      vertex -2.48595 -3.005 5.9
      vertex -2.48595 -3.005 2.5
      vertex -2.08973 -3.29288 2.5
    endloop
  endfacet
  facet normal -0.587785 -0.809017 0
    outer loop
      vertex -2.08973 -3.29288 5.9
      vertex -2.48595 -3.005 5.9
      vertex -2.08973 -3.29288 2.5
    endloop
  endfacet
  facet normal -0.481754 -0.876307 0
    outer loop
      vertex -2.08973 -3.29288 5.9
      vertex -2.08973 -3.29288 2.5
      vertex -1.66054 -3.52883 2.5
    endloop
  endfacet
  facet normal -0.481754 -0.876307 0
    outer loop
      vertex -1.66054 -3.52883 5.9
      vertex -2.08973 -3.29288 5.9
      vertex -1.66054 -3.52883 2.5
    endloop
  endfacet
  facet normal -0.368123 -0.929777 0
    outer loop
      vertex -1.66054 -3.52883 5.9
      vertex -1.66054 -3.52883 2.5
      vertex -1.20517 -3.70912 2.5
    endloop
  endfacet
  facet normal -0.368123 -0.929777 0
    outer loop
      vertex -1.20517 -3.70912 5.9
      vertex -1.66054 -3.52883 5.9
      vertex -1.20517 -3.70912 2.5
    endloop
  endfacet
  facet normal -0.24869 -0.968583 0
    outer loop
      vertex -1.20517 -3.70912 5.9
      vertex -1.20517 -3.70912 2.5
      vertex -0.730787 -3.83092 2.5
    endloop
  endfacet
  facet normal -0.24869 -0.968583 0
    outer loop
      vertex -0.730787 -3.83092 5.9
      vertex -1.20517 -3.70912 5.9
      vertex -0.730787 -3.83092 2.5
    endloop
  endfacet
  facet normal -0.125333 -0.992115 0
    outer loop
      vertex -0.730787 -3.83092 5.9
      vertex -0.730787 -3.83092 2.5
      vertex -0.244883 -3.8923 2.5
    endloop
  endfacet
  facet normal -0.125333 -0.992115 0
    outer loop
      vertex -0.244883 -3.8923 5.9
      vertex -0.730787 -3.83092 5.9
      vertex -0.244883 -3.8923 2.5
    endloop
  endfacet
  facet normal 0 -1 0
    outer loop
      vertex -0.244883 -3.8923 5.9
      vertex -0.244883 -3.8923 2.5
      vertex 0.244883 -3.8923 2.5
    endloop
  endfacet
  facet normal 0 -1 0
    outer loop
      vertex 0.244883 -3.8923 5.9
      vertex -0.244883 -3.8923 5.9
      vertex 0.244883 -3.8923 2.5
    endloop
  endfacet
  facet normal 0.125333 -0.992115 0
    outer loop
      vertex 0.244883 -3.8923 5.9
      vertex 0.244883 -3.8923 2.5
      vertex 0.730787 -3.83092 2.5
    endloop
  endfacet
  facet normal 0.125333 -0.992115 0
    outer loop
      vertex 0.730787 -3.83092 5.9
      vertex 0.244883 -3.8923 5.9
      vertex 0.730787 -3.83092 2.5
    endloop
  endfacet
  facet normal 0.24869 -0.968583 0
    outer loop
      vertex 0.730787 -3.83092 5.9
      vertex 0.730787 -3.83092 2.5
      vertex 1.20517 -3.70912 2.5
    endloop
  endfacet
  facet normal 0.24869 -0.968583 0
    outer loop
      vertex 1.20517 -3.70912 5.9
      vertex 0.730787 -3.83092 5.9
      vertex 1.20517 -3.70912 2.5
    endloop
  endfacet
  facet normal 0.368123 -0.929777 0
    outer loop
      vertex 1.20517 -3.70912 5.9
      vertex 1.20517 -3.70912 2.5
      vertex 1.66054 -3.52883 2.5
    endloop
  endfacet
  facet normal 0.368123 -0.929777 0
    outer loop
      vertex 1.66054 -3.52883 5.9
      vertex 1.20517 -3.70912 5.9
      vertex 1.66054 -3.52883 2.5
    endloop
  endfacet
  facet normal 0.481754 -0.876307 0
    outer loop
      vertex 1.66054 -3.52883 5.9
      vertex 1.66054 -3.52883 2.5
      vertex 2.08973 -3.29288 2.5
    endloop
  endfacet
  facet normal 0.481754 -0.876307 0
    outer loop
      vertex 2.08973 -3.29288 5.9
      vertex 1.66054 -3.52883 5.9
      vertex 2.08973 -3.29288 2.5
    endloop
  endfacet
  facet normal 0.587785 -0.809017 0
    outer loop
      vertex 2.08973 -3.29288 5.9
      vertex 2.08973 -3.29288 2.5
      vertex 2.48595 -3.005 2.5
    endloop
  endfacet
  facet normal 0.587785 -0.809017 0
    outer loop
      vertex 2.48595 -3.005 5.9
      vertex 2.08973 -3.29288 5.9
      vertex 2.48595 -3.005 2.5
    endloop
  endfacet
  facet normal 0.684547 -0.728968 0
    outer loop
      vertex 2.48595 -3.005 5.9
      vertex 2.48595 -3.005 2.5
      vertex 2.84298 -2.66973 2.5
    endloop
  endfacet
  facet normal 0.684547 -0.728968 0
    outer loop
      vertex 2.84298 -2.66973 5.9
      vertex 2.48595 -3.005 5.9
      vertex 2.84298 -2.66973 2.5
    endloop
  endfacet
  facet normal 0.770515 -0.637422 0
    outer loop
      vertex 2.84298 -2.66973 5.9
      vertex 2.84298 -2.66973 2.5
      vertex 3.15517 -2.29236 2.5
    endloop
  endfacet
  facet normal 0.770515 -0.637422 0
    outer loop
      vertex 3.15517 -2.29236 5.9
      vertex 2.84298 -2.66973 5.9
      vertex 3.15517 -2.29236 2.5
    endloop
  endfacet
  facet normal 0.844328 -0.535827 0
    outer loop
      vertex 3.15517 -2.29236 5.9
      vertex 3.15517 -2.29236 2.5
      vertex 3.4176 -1.87884 2.5
    endloop
  endfacet
  facet normal 0.844328 -0.535827 0
    outer loop
      vertex 3.4176 -1.87884 5.9
      vertex 3.15517 -2.29236 5.9
      vertex 3.4176 -1.87884 2.5
    endloop
  endfacet
  facet normal 0.904827 -0.425779 0
    outer loop
      vertex 3.4176 -1.87884 5.9
      vertex 3.4176 -1.87884 2.5
      vertex 3.62613 -1.43569 2.5
    endloop
  endfacet
  facet normal 0.904827 -0.425779 0
    outer loop
      vertex 3.62613 -1.43569 5.9
      vertex 3.4176 -1.87884 5.9
      vertex 3.62613 -1.43569 2.5
    endloop
  endfacet
  facet normal 0.951056 -0.309017 0
    outer loop
      vertex 3.62613 -1.43569 5.9
      vertex 3.62613 -1.43569 2.5
      vertex 3.77747 -0.969891 2.5
    endloop
  endfacet
  facet normal 0.951056 -0.309017 0
    outer loop
      vertex 3.77747 -0.969891 5.9
      vertex 3.62613 -1.43569 5.9
      vertex 3.77747 -0.969891 2.5
    endloop
  endfacet
  facet normal 0.982287 -0.187381 0
    outer loop
      vertex 3.77747 -0.969891 5.9
      vertex 3.77747 -0.969891 2.5
      vertex 3.86925 -0.4888 2.5
    endloop
  endfacet
  facet normal 0.982287 -0.187381 0
    outer loop
      vertex 3.86925 -0.4888 5.9
      vertex 3.77747 -0.969891 5.9
      vertex 3.86925 -0.4888 2.5
    endloop
  endfacet
  facet normal 0.998027 -0.0627912 0
    outer loop
      vertex 3.86925 -0.4888 5.9
      vertex 3.86925 -0.4888 2.5
      vertex 3.9 0 2.5
    endloop
  endfacet
  facet normal 0.998027 -0.0627912 0
    outer loop
      vertex 3.9 0 5.9
      vertex 3.86925 -0.4888 5.9
      vertex 3.9 0 2.5
    endloop
  endfacet
  facet normal 0.998027 0.0627912 0
    outer loop
      vertex 3.9 0 2.5
      vertex 3.86925 0.4888 2.5
      vertex 3.86925 0.4888 5.9
    endloop
  endfacet
  facet normal 0.998027 0.0627912 0
    outer loop
      vertex 3.9 0 5.9
      vertex 3.9 0 2.5
      vertex 3.86925 0.4888 5.9
    endloop
  endfacet
  facet normal 0.982287 0.187381 0
    outer loop
      vertex 3.86925 0.4888 2.5
      vertex 3.77747 0.969891 2.5
      vertex 3.77747 0.969891 5.9
    endloop
  endfacet
  facet normal 0.982287 0.187381 0
    outer loop
      vertex 3.86925 0.4888 5.9
      vertex 3.86925 0.4888 2.5
      vertex 3.77747 0.969891 5.9
    endloop
  endfacet
  facet normal 0.951056 0.309017 0
    outer loop
      vertex 3.77747 0.969891 2.5
      vertex 3.62613 1.43569 2.5
      vertex 3.62613 1.43569 5.9
    endloop
  endfacet
  facet normal 0.951056 0.309017 0
    outer loop
      vertex 3.77747 0.969891 5.9
      vertex 3.77747 0.969891 2.5
      vertex 3.62613 1.43569 5.9
    endloop
  endfacet
  facet normal 0.904827 0.425779 0
    outer loop
      vertex 3.62613 1.43569 2.5
      vertex 3.4176 1.87884 2.5
      vertex 3.4176 1.87884 5.9
    endloop
  endfacet
  facet normal 0.904827 0.425779 0
    outer loop
      vertex 3.62613 1.43569 5.9
      vertex 3.62613 1.43569 2.5
      vertex 3.4176 1.87884 5.9
    endloop
  endfacet
  facet normal 0.844328 0.535827 0
    outer loop
      vertex 3.4176 1.87884 2.5
      vertex 3.15517 2.29236 2.5
      vertex 3.15517 2.29236 5.9
    endloop
  endfacet
  facet normal 0.844328 0.535827 0
    outer loop
      vertex 3.4176 1.87884 5.9
      vertex 3.4176 1.87884 2.5
      vertex 3.15517 2.29236 5.9
    endloop
  endfacet
  facet normal 0.770515 0.637422 0
    outer loop
      vertex 3.15517 2.29236 2.5
      vertex 2.84298 2.66973 2.5
      vertex 2.84298 2.66973 5.9
    endloop
  endfacet
  facet normal 0.770515 0.637422 0
    outer loop
      vertex 3.15517 2.29236 5.9
      vertex 3.15517 2.29236 2.5
      vertex 2.84298 2.66973 5.9
    endloop
  endfacet
  facet normal 0.684547 0.728968 0
    outer loop
      vertex 2.48595 3.005 2.5
      vertex 2.48595 3.005 5.9
      vertex 2.84298 2.66973 2.5
    endloop
  endfacet
  facet normal 0.684547 0.728968 0
    outer loop
      vertex 2.84298 2.66973 2.5
      vertex 2.48595 3.005 5.9
      vertex 2.84298 2.66973 5.9
    endloop
  endfacet
  facet normal 0.587785 0.809017 0
    outer loop
      vertex 2.08973 3.29288 2.5
      vertex 2.08973 3.29288 5.9
      vertex 2.48595 3.005 2.5
    endloop
  endfacet
  facet normal 0.587785 0.809017 0
    outer loop
      vertex 2.48595 3.005 2.5
      vertex 2.08973 3.29288 5.9
      vertex 2.48595 3.005 5.9
    endloop
  endfacet
  facet normal 0.481754 0.876307 0
    outer loop
      vertex 1.66054 3.52883 2.5
      vertex 1.66054 3.52883 5.9
      vertex 2.08973 3.29288 2.5
    endloop
  endfacet
  facet normal 0.481754 0.876307 0
    outer loop
      vertex 2.08973 3.29288 2.5
      vertex 1.66054 3.52883 5.9
      vertex 2.08973 3.29288 5.9
    endloop
  endfacet
  facet normal 0.368123 0.929777 0
    outer loop
      vertex 1.20517 3.70912 2.5
      vertex 1.20517 3.70912 5.9
      vertex 1.66054 3.52883 2.5
    endloop
  endfacet
  facet normal 0.368123 0.929777 0
    outer loop
      vertex 1.66054 3.52883 2.5
      vertex 1.20517 3.70912 5.9
      vertex 1.66054 3.52883 5.9
    endloop
  endfacet
  facet normal 0.24869 0.968583 0
    outer loop
      vertex 0.730787 3.83092 2.5
      vertex 0.730787 3.83092 5.9
      vertex 1.20517 3.70912 2.5
    endloop
  endfacet
  facet normal 0.24869 0.968583 0
    outer loop
      vertex 1.20517 3.70912 2.5
      vertex 0.730787 3.83092 5.9
      vertex 1.20517 3.70912 5.9
    endloop
  endfacet
  facet normal 0.125333 0.992115 0
    outer loop
      vertex 0.244883 3.8923 2.5
      vertex 0.244883 3.8923 5.9
      vertex 0.730787 3.83092 2.5
    endloop
  endfacet
  facet normal 0.125333 0.992115 0
    outer loop
      vertex 0.730787 3.83092 2.5
      vertex 0.244883 3.8923 5.9
      vertex 0.730787 3.83092 5.9
    endloop
  endfacet
  facet normal 0 1 0
    outer loop
      vertex -0.244883 3.8923 2.5
      vertex -0.244883 3.8923 5.9
      vertex 0.244883 3.8923 2.5
    endloop
  endfacet
  facet normal 0 1 0
    outer loop
      vertex 0.244883 3.8923 2.5
      vertex -0.244883 3.8923 5.9
      vertex 0.244883 3.8923 5.9
    endloop
  endfacet
  facet normal -0.125333 0.992115 0
    outer loop
      vertex -0.730787 3.83092 2.5
      vertex -0.730787 3.83092 5.9
      vertex -0.244883 3.8923 2.5
    endloop
  endfacet
  facet normal -0.125333 0.992115 0
    outer loop
      vertex -0.244883 3.8923 2.5
      vertex -0.730787 3.83092 5.9
      vertex -0.244883 3.8923 5.9
    endloop
  endfacet
  facet normal -0.24869 0.968583 0
    outer loop
      vertex -1.20517 3.70912 2.5
      vertex -1.20517 3.70912 5.9
      vertex -0.730787 3.83092 2.5
    endloop
  endfacet
  facet normal -0.24869 0.968583 0
    outer loop
      vertex -0.730787 3.83092 2.5
      vertex -1.20517 3.70912 5.9
      vertex -0.730787 3.83092 5.9
    endloop
  endfacet
  facet normal -0.368123 0.929777 0
    outer loop
      vertex -1.66054 3.52883 2.5
      vertex -1.66054 3.52883 5.9
      vertex -1.20517 3.70912 2.5
    endloop
  endfacet
  facet normal -0.368123 0.929777 0
    outer loop
      vertex -1.20517 3.70912 2.5
      vertex -1.66054 3.52883 5.9
      vertex -1.20517 3.70912 5.9
    endloop
  endfacet
  facet normal -0.481754 0.876307 0
    outer loop
      vertex -2.08973 3.29288 2.5
      vertex -2.08973 3.29288 5.9
      vertex -1.66054 3.52883 2.5
    endloop
  endfacet
  facet normal -0.481754 0.876307 0
    outer loop
      vertex -1.66054 3.52883 2.5
      vertex -2.08973 3.29288 5.9
      vertex -1.66054 3.52883 5.9
    endloop
  endfacet
  facet normal -0.587785 0.809017 0
    outer loop
      vertex -2.48595 3.005 2.5
      vertex -2.48595 3.005 5.9
      vertex -2.08973 3.29288 2.5
    endloop
  endfacet
  facet normal -0.587785 0.809017 0
    outer loop
      vertex -2.08973 3.29288 2.5
      vertex -2.48595 3.005 5.9
      vertex -2.08973 3.29288 5.9
    endloop
  endfacet
  facet normal -0.684547 0.728968 0
    outer loop
      vertex -2.84298 2.66973 2.5
      vertex -2.84298 2.66973 5.9
      vertex -2.48595 3.005 2.5
    endloop
  endfacet
  facet normal -0.684547 0.728968 0
    outer loop
      vertex -2.48595 3.005 2.5
      vertex -2.84298 2.66973 5.9
      vertex -2.48595 3.005 5.9
    endloop
  endfacet
  facet normal -0.770515 0.637422 0
    outer loop
      vertex -3.15517 2.29236 2.5
      vertex -3.15517 2.29236 5.9
      vertex -2.84298 2.66973 2.5
    endloop
  endfacet
  facet normal -0.770515 0.637422 0
    outer loop
      vertex -2.84298 2.66973 2.5
      vertex -3.15517 2.29236 5.9
      vertex -2.84298 2.66973 5.9
    endloop
  endfacet
  facet normal -0.844328 0.535827 0
    outer loop
      vertex -3.4176 1.87884 2.5
      vertex -3.4176 1.87884 5.9
      vertex -3.15517 2.29236 2.5
    endloop
  endfacet
  facet normal -0.844328 0.535827 0
    outer loop
      vertex -3.15517 2.29236 2.5
      vertex -3.4176 1.87884 5.9
      vertex -3.15517 2.29236 5.9
    endloop
  endfacet
  facet normal -0.904827 0.425779 0
    outer loop
      vertex -3.62613 1.43569 2.5
      vertex -3.62613 1.43569 5.9
      vertex -3.4176 1.87884 2.5
    endloop
  endfacet
  facet normal -0.904827 0.425779 0
    outer loop
      vertex -3.4176 1.87884 2.5
      vertex -3.62613 1.43569 5.9
      vertex -3.4176 1.87884 5.9
    endloop
  endfacet
  facet normal -0.951056 0.309017 0
    outer loop
      vertex -3.77747 0.969891 2.5
      vertex -3.77747 0.969891 5.9
      vertex -3.62613 1.43569 2.5
    endloop
  endfacet
  facet normal -0.951056 0.309017 0
    outer loop
      vertex -3.62613 1.43569 2.5
      vertex -3.77747 0.969891 5.9
      vertex -3.62613 1.43569 5.9
    endloop
  endfacet
  facet normal -0.982287 0.187381 0
    outer loop
      vertex -3.86925 0.4888 2.5
      vertex -3.86925 0.4888 5.9
      vertex -3.77747 0.969891 2.5
    endloop
  endfacet
  facet normal -0.982287 0.187381 0
    outer loop
      vertex -3.77747 0.969891 2.5
      vertex -3.86925 0.4888 5.9
      vertex -3.77747 0.969891 5.9
    endloop
  endfacet
  facet normal -0.998027 0.0627912 0
    outer loop
      vertex -3.9 0 2.5
      vertex -3.9 0 5.9
      vertex -3.86925 0.4888 2.5
    endloop
  endfacet
  facet normal -0.998027 0.0627912 0
    outer loop
      vertex -3.86925 0.4888 2.5
      vertex -3.9 0 5.9
      vertex -3.86925 0.4888 5.9
    endloop
  endfacet
endsolid OpenSCAD_Model
