solid OpenSCAD_Model
  facet normal 0 0 -1
    outer loop
      vertex -4.79364 -0.247098 0
      vertex -4.79364 0.247098 0
      vertex -4.74282 -0.738675 0
    endloop
  endfacet
  facet normal 0 0 -1
    outer loop
      vertex -4.74282 -0.738675 0
      vertex -4.79364 0.247098 0
      vertex -4.74282 0.738675 0
    endloop
  endfacet
  facet normal 0 0 -1
    outer loop
      vertex -4.74282 -0.738675 0
      vertex -4.74282 0.738675 0
      vertex -4.64173 1.22242 0
    endloop
  endfacet
  facet normal 0 0 -1
    outer loop
      vertex -4.74282 -0.738675 0
      vertex -4.64173 1.22242 0
      vertex -4.49144 1.69321 0
    endloop
  endfacet
  facet normal 0 0 -1
    outer loop
      vertex -4.74282 -0.738675 0
      vertex -4.49144 1.69321 0
      vertex -4.29354 2.14605 0
    endloop
  endfacet
  facet normal 0 0 -1
    outer loop
      vertex -4.74282 -0.738675 0
      vertex -4.29354 2.14605 0
      vertex -4.05012 2.57614 0
    endloop
  endfacet
  facet normal 0 0 -1
    outer loop
      vertex -4.74282 -0.738675 0
      vertex -4.05012 2.57614 0
      vertex -3.76377 2.97893 0
    endloop
  endfacet
  facet normal 0 0 -1
    outer loop
      vertex -4.74282 -0.738675 0
      vertex -3.76377 2.97893 0
      vertex -3.43753 3.35013 0
    endloop
  endfacet
  facet normal 0 0 -1
    outer loop
      vertex -4.74282 -0.738675 0
      vertex -3.43753 3.35013 0
      vertex -3.07485 3.68583 0
    endloop
  endfacet
  facet normal 0 0 -1
    outer loop
      vertex -4.74282 -0.738675 0
      vertex -3.07485 3.68583 0
      vertex -2.67957 3.98245 0
    endloop
  endfacet
  facet normal 0 0 -1
    outer loop
      vertex -4.74282 -0.738675 0
      vertex -2.67957 3.98245 0
      vertex -2.25589 4.23686 0
    endloop
  endfacet
  facet normal 0 0 -1
    outer loop
      vertex -4.74282 -0.738675 0
      vertex -2.25589 4.23686 0
      vertex -1.80829 4.44635 0
    endloop
  endfacet
  facet normal 0 0 -1
    outer loop
      vertex -4.74282 -0.738675 0
      vertex -1.80829 4.44635 0
      vertex -1.34153 4.60872 0
    endloop
  endfacet
  facet normal 0 0 -1
    outer loop
      vertex -4.74282 -0.738675 0
      vertex -1.34153 4.60872 0
      vertex -0.860548 4.72223 0
    endloop
  endfacet
  facet normal 0 0 -1
    outer loop
      vertex -4.74282 -0.738675 0
      vertex -0.860548 4.72223 0
      vertex -0.370442 4.78568 0
    endloop
  endfacet
  facet normal 0 0 -1
    outer loop
      vertex -4.74282 -0.738675 0
      vertex -0.370442 4.78568 0
      vertex 0.12359 4.79841 0
    endloop
  endfacet
  facet normal 0 0 -1
    outer loop
      vertex -4.74282 -0.738675 0
      vertex 0.12359 4.79841 0
      vertex 0.616312 4.76027 0
    endloop
  endfacet
  facet normal 0 0 -1
    outer loop
      vertex -4.74282 -0.738675 0
      vertex 0.616312 4.76027 0
      vertex 1.1025 4.67167 0
    endloop
  endfacet
  facet normal 0 0 -1
    outer loop
      vertex -4.74282 -0.738675 0
      vertex 1.1025 4.67167 0
      vertex 1.577 4.53355 0
    endloop
  endfacet
  facet normal 0 0 -1
    outer loop
      vertex -4.74282 -0.738675 0
      vertex 1.577 4.53355 0
      vertex 2.03479 4.34737 0
    endloop
  endfacet
  facet normal 0 0 -1
    outer loop
      vertex -0.489546 2.14484 0
      vertex 2.03479 4.34737 0
      vertex 2.471 4.11511 0
    endloop
  endfacet
  facet normal 0 0 -1
    outer loop
      vertex 0 2.2 0
      vertex 2.471 4.11511 0
      vertex 2.88103 3.83923 0
    endloop
  endfacet
  facet normal 0 0 -1
    outer loop
      vertex 0.489546 2.14484 0
      vertex 2.88103 3.83923 0
      vertex 3.26051 3.52265 0
    endloop
  endfacet
  facet normal 0 0 -1
    outer loop
      vertex 0.954544 1.98213 0
      vertex 3.26051 3.52265 0
      vertex 3.60543 3.16873 0
    endloop
  endfacet
  facet normal 0 0 -1
    outer loop
      vertex 2.14484 -0.489546 0
      vertex 4.77456 -0.493541 0
      vertex 4.69851 -0.98185 0
    endloop
  endfacet
  facet normal 0 0 -1
    outer loop
      vertex 1.37168 1.72003 0
      vertex 3.91214 2.78122 0
      vertex 4.17737 2.36423 0
    endloop
  endfacet
  facet normal 0 0 -1
    outer loop
      vertex 1.72003 1.37168 0
      vertex 4.17737 2.36423 0
      vertex 4.39832 1.92218 0
    endloop
  endfacet
  facet normal 0 0 -1
    outer loop
      vertex 1.98213 0.954544 0
      vertex 4.39832 1.92218 0
      vertex 4.57265 1.45975 0
    endloop
  endfacet
  facet normal 0 0 -1
    outer loop
      vertex 2.14484 0.489546 0
      vertex 4.69851 0.98185 0
      vertex 4.77456 0.493541 0
    endloop
  endfacet
  facet normal 0 0 -1
    outer loop
      vertex 2.2 0 0
      vertex 4.77456 0.493541 0
      vertex 4.8 0 0
    endloop
  endfacet
  facet normal 0 0 -1
    outer loop
      vertex 2.14484 -0.489546 0
      vertex 4.8 0 0
      vertex 4.77456 -0.493541 0
    endloop
  endfacet
  facet normal 0 0 -1
    outer loop
      vertex 1.98213 -0.954544 0
      vertex 4.69851 -0.98185 0
      vertex 4.57265 -1.45975 0
    endloop
  endfacet
  facet normal 0 0 -1
    outer loop
      vertex 1.72003 -1.37168 0
      vertex 4.57265 -1.45975 0
      vertex 4.39832 -1.92218 0
    endloop
  endfacet
  facet normal 0 0 -1
    outer loop
      vertex 1.37168 -1.72003 0
      vertex 4.39832 -1.92218 0
      vertex 4.17737 -2.36423 0
    endloop
  endfacet
  facet normal 0 0 -1
    outer loop
      vertex 0.954544 -1.98213 0
      vertex 4.17737 -2.36423 0
      vertex 3.91214 -2.78122 0
    endloop
  endfacet
  facet normal 0 0 -1
    outer loop
      vertex 0.489546 -2.14484 0
      vertex 3.91214 -2.78122 0
      vertex 3.60543 -3.16873 0
    endloop
  endfacet
  facet normal 0 0 -1
    outer loop
      vertex 0 -2.2 0
      vertex 3.60543 -3.16873 0
      vertex 3.26051 -3.52265 0
    endloop
  endfacet
  facet normal 0 0 -1
    outer loop
      vertex -4.74282 -0.738675 0
      vertex 3.26051 -3.52265 0
      vertex 2.88103 -3.83923 0
    endloop
  endfacet
  facet normal 0 0 -1
    outer loop
      vertex -4.74282 -0.738675 0
      vertex 2.88103 -3.83923 0
      vertex 2.471 -4.11511 0
    endloop
  endfacet
  facet normal 0 0 -1
    outer loop
      vertex -4.74282 -0.738675 0
      vertex 2.471 -4.11511 0
      vertex 2.03479 -4.34737 0
    endloop
  endfacet
  facet normal 0 0 -1
    outer loop
      vertex -4.74282 -0.738675 0
      vertex 2.03479 -4.34737 0
      vertex 1.577 -4.53355 0
    endloop
  endfacet
  facet normal 0 0 -1
    outer loop
      vertex -4.74282 -0.738675 0
      vertex 1.577 -4.53355 0
      vertex 1.1025 -4.67167 0
    endloop
  endfacet
  facet normal 0 0 -1
    outer loop
      vertex -4.74282 -0.738675 0
      vertex 1.1025 -4.67167 0
      vertex 0.616312 -4.76027 0
    endloop
  endfacet
  facet normal 0 0 -1
    outer loop
      vertex -4.74282 -0.738675 0
      vertex 0.616312 -4.76027 0
      vertex 0.12359 -4.79841 0
    endloop
  endfacet
  facet normal 0 0 -1
    outer loop
      vertex -4.74282 -0.738675 0
      vertex 0.12359 -4.79841 0
      vertex -0.370442 -4.78568 0
    endloop
  endfacet
  facet normal 0 0 -1
    outer loop
      vertex -4.74282 -0.738675 0
      vertex -0.370442 -4.78568 0
      vertex -0.860548 -4.72223 0
    endloop
  endfacet
  facet normal 0 0 -1
    outer loop
      vertex -4.74282 -0.738675 0
      vertex -0.860548 -4.72223 0
      vertex -1.34153 -4.60872 0
    endloop
  endfacet
  facet normal 0 0 -1
    outer loop
      vertex -4.74282 -0.738675 0
      vertex -1.34153 -4.60872 0
      vertex -1.80829 -4.44635 0
    endloop
  endfacet
  facet normal 0 0 -1
    outer loop
      vertex -4.74282 -0.738675 0
      vertex -1.80829 -4.44635 0
      vertex -2.25589 -4.23686 0
    endloop
  endfacet
  facet normal 0 0 -1
    outer loop
      vertex -4.74282 -0.738675 0
      vertex -2.25589 -4.23686 0
      vertex -2.67957 -3.98245 0
    endloop
  endfacet
  facet normal 0 0 -1
    outer loop
      vertex -4.74282 -0.738675 0
      vertex -2.67957 -3.98245 0
      vertex -3.07485 -3.68583 0
    endloop
  endfacet
  facet normal 0 0 -1
    outer loop
      vertex -4.74282 -0.738675 0
      vertex -3.07485 -3.68583 0
      vertex -3.43753 -3.35013 0
    endloop
  endfacet
  facet normal 0 0 -1
    outer loop
      vertex -4.74282 -0.738675 0
      vertex -3.43753 -3.35013 0
      vertex -3.76377 -2.97893 0
    endloop
  endfacet
  facet normal 0 0 -1
    outer loop
      vertex -4.74282 -0.738675 0
      vertex -3.76377 -2.97893 0
      vertex -4.05012 -2.57614 0
    endloop
  endfacet
  facet normal 0 0 -1
    outer loop
      vertex -4.74282 -0.738675 0
      vertex -4.05012 -2.57614 0
      vertex -4.29354 -2.14605 0
    endloop
  endfacet
  facet normal 0 0 -1
    outer loop
      vertex -4.74282 -0.738675 0
      vertex -4.29354 -2.14605 0
      vertex -4.49144 -1.69321 0
    endloop
  endfacet
  facet normal 0 0 -1
    outer loop
      vertex -4.74282 -0.738675 0
      vertex -4.49144 -1.69321 0
      vertex -4.64173 -1.22242 0
    endloop
  endfacet
  facet normal 0 0 -1
    outer loop
      vertex -2.14484 -0.489546 0
      vertex -4.74282 -0.738675 0
      vertex -2.2 0 0
    endloop
  endfacet
  facet normal 0 0 -1
    outer loop
      vertex -1.98213 -0.954544 0
      vertex -4.74282 -0.738675 0
      vertex -2.14484 -0.489546 0
    endloop
  endfacet
  facet normal 0 0 -1
    outer loop
      vertex -1.72003 -1.37168 0
      vertex -4.74282 -0.738675 0
      vertex -1.98213 -0.954544 0
    endloop
  endfacet
  facet normal 0 0 -1
    outer loop
      vertex -1.37168 -1.72003 0
      vertex -4.74282 -0.738675 0
      vertex -1.72003 -1.37168 0
    endloop
  endfacet
  facet normal 0 0 -1
    outer loop
      vertex 0 -2.2 0
      vertex 3.26051 -3.52265 0
      vertex -0.489546 -2.14484 0
    endloop
  endfacet
  facet normal 0 0 -1
    outer loop
      vertex -4.74282 -0.738675 0
      vertex -1.37168 -1.72003 0
      vertex -0.954544 -1.98213 0
    endloop
  endfacet
  facet normal 0 0 -1
    outer loop
      vertex -4.74282 -0.738675 0
      vertex -0.954544 -1.98213 0
      vertex 3.26051 -3.52265 0
    endloop
  endfacet
  facet normal 0 0 -1
    outer loop
      vertex -0.954544 -1.98213 0
      vertex -0.489546 -2.14484 0
      vertex 3.26051 -3.52265 0
    endloop
  endfacet
  facet normal 0 0 -1
    outer loop
      vertex 0.489546 -2.14484 0
      vertex 3.60543 -3.16873 0
      vertex 0 -2.2 0
    endloop
  endfacet
  facet normal 0 0 -1
    outer loop
      vertex 1.37168 -1.72003 0
      vertex 4.17737 -2.36423 0
      vertex 0.954544 -1.98213 0
    endloop
  endfacet
  facet normal 0 0 -1
    outer loop
      vertex 0.954544 -1.98213 0
      vertex 3.91214 -2.78122 0
      vertex 0.489546 -2.14484 0
    endloop
  endfacet
  facet normal 0 0 -1
    outer loop
      vertex 1.98213 -0.954544 0
      vertex 4.57265 -1.45975 0
      vertex 1.72003 -1.37168 0
    endloop
  endfacet
  facet normal 0 0 -1
    outer loop
      vertex 1.72003 -1.37168 0
      vertex 4.39832 -1.92218 0
      vertex 1.37168 -1.72003 0
    endloop
  endfacet
  facet normal 0 0 -1
    outer loop
      vertex 2.14484 0.489546 0
      vertex 4.77456 0.493541 0
      vertex 2.2 0 0
    endloop
  endfacet
  facet normal 0 0 -1
    outer loop
      vertex 2.2 0 0
      vertex 4.8 0 0
      vertex 2.14484 -0.489546 0
    endloop
  endfacet
  facet normal 0 0 -1
    outer loop
      vertex 1.72003 1.37168 0
      vertex 4.39832 1.92218 0
      vertex 1.98213 0.954544 0
    endloop
  endfacet
  facet normal 0 0 -1
    outer loop
      vertex 1.98213 0.954544 0
      vertex 4.69851 0.98185 0
      vertex 2.14484 0.489546 0
    endloop
  endfacet
  facet normal 0 0 -1
    outer loop
      vertex 1.98213 0.954544 0
      vertex 4.57265 1.45975 0
      vertex 4.69851 0.98185 0
    endloop
  endfacet
  facet normal 0 0 -1
    outer loop
      vertex 0.489546 2.14484 0
      vertex 3.26051 3.52265 0
      vertex 0.954544 1.98213 0
    endloop
  endfacet
  facet normal 0 0 -1
    outer loop
      vertex 0 2.2 0
      vertex 2.88103 3.83923 0
      vertex 0.489546 2.14484 0
    endloop
  endfacet
  facet normal 0 0 -1
    outer loop
      vertex -0.489546 2.14484 0
      vertex 2.471 4.11511 0
      vertex 0 2.2 0
    endloop
  endfacet
  facet normal 0 0 -1
    outer loop
      vertex -0.954544 1.98213 0
      vertex 2.03479 4.34737 0
      vertex -0.489546 2.14484 0
    endloop
  endfacet
  facet normal 0 0 -1
    outer loop
      vertex -1.72003 1.37168 0
      vertex -4.74282 -0.738675 0
      vertex -1.37168 1.72003 0
    endloop
  endfacet
  facet normal 0 0 -1
    outer loop
      vertex -1.37168 1.72003 0
      vertex 2.03479 4.34737 0
      vertex -0.954544 1.98213 0
    endloop
  endfacet
  facet normal 0 0 -1
    outer loop
      vertex -4.74282 -0.738675 0
      vertex 2.03479 4.34737 0
      vertex -1.37168 1.72003 0
    endloop
  endfacet
  facet normal 0 0 -1
    outer loop
      vertex -1.98213 0.954544 0
      vertex -4.74282 -0.738675 0
      vertex -1.72003 1.37168 0
    endloop
  endfacet
  facet normal 0 0 -1
    outer loop
      vertex -2.14484 0.489546 0
      vertex -4.74282 -0.738675 0
      vertex -1.98213 0.954544 0
    endloop
  endfacet
  facet normal 0 0 -1
    outer loop
      vertex 2.14484 -0.489546 0
      vertex 4.69851 -0.98185 0
      vertex 1.98213 -0.954544 0
    endloop
  endfacet
  facet normal 0 0 -1
    outer loop
      vertex -2.2 0 0
      vertex -4.74282 -0.738675 0
      vertex -2.14484 0.489546 0
    endloop
  endfacet
  facet normal 0 0 -1
    outer loop
      vertex 0.954544 1.98213 0
      vertex 3.60543 3.16873 0
      vertex 3.91214 2.78122 0
    endloop
  endfacet
  facet normal 0 0 -1
    outer loop
      vertex 0.954544 1.98213 0
      vertex 3.91214 2.78122 0
      vertex 1.37168 1.72003 0
    endloop
  endfacet
  facet normal 0 0 -1
    outer loop
      vertex 1.37168 1.72003 0
      vertex 4.17737 2.36423 0
      vertex 1.72003 1.37168 0
    endloop
  endfacet
  facet normal -1 0 0
    outer loop
      vertex -4.79364 -0.247098 0
      vertex -4.79364 -0.247098 2.5
      vertex -4.79364 0.247098 0
    endloop
  endfacet
  facet normal -1 0 0
    outer loop
      vertex -4.79364 0.247098 0
      vertex -4.79364 -0.247098 2.5
      vertex -4.79364 0.247098 2.5
    endloop
  endfacet
  facet normal -0.9947 -0.102821 0
    outer loop
      vertex -4.79364 -0.247098 0
      vertex -4.74282 -0.738675 0
      vertex -4.79364 -0.247098 2.5
    endloop
  endfacet
  facet normal -0.9947 -0.102821 0
    outer loop
      vertex -4.79364 -0.247098 2.5
      vertex -4.74282 -0.738675 0
      vertex -4.74282 -0.738675 2.5
    endloop
  endfacet
  facet normal -0.978856 -0.204553 0
    outer loop
      vertex -4.74282 -0.738675 0
      vertex -4.64173 -1.22242 0
      vertex -4.74282 -0.738675 2.5
    endloop
  endfacet
  facet normal -0.978856 -0.204553 0
    outer loop
      vertex -4.74282 -0.738675 2.5
      vertex -4.64173 -1.22242 0
      vertex -4.64173 -1.22242 2.5
    endloop
  endfacet
  facet normal -0.952636 -0.304114 0
    outer loop
      vertex -4.64173 -1.22242 0
      vertex -4.49144 -1.69321 0
      vertex -4.64173 -1.22242 2.5
    endloop
  endfacet
  facet normal -0.952636 -0.304114 0
    outer loop
      vertex -4.64173 -1.22242 2.5
      vertex -4.49144 -1.69321 0
      vertex -4.49144 -1.69321 2.5
    endloop
  endfacet
  facet normal -0.916317 -0.400454 0
    outer loop
      vertex -4.49144 -1.69321 0
      vertex -4.29354 -2.14605 0
      vertex -4.49144 -1.69321 2.5
    endloop
  endfacet
  facet normal -0.916317 -0.400454 0
    outer loop
      vertex -4.49144 -1.69321 2.5
      vertex -4.29354 -2.14605 0
      vertex -4.29354 -2.14605 2.5
    endloop
  endfacet
  facet normal -0.870286 -0.492547 0
    outer loop
      vertex -4.29354 -2.14605 0
      vertex -4.05012 -2.57614 0
      vertex -4.29354 -2.14605 2.5
    endloop
  endfacet
  facet normal -0.870286 -0.492547 0
    outer loop
      vertex -4.29354 -2.14605 2.5
      vertex -4.05012 -2.57614 0
      vertex -4.05012 -2.57614 2.5
    endloop
  endfacet
  facet normal -0.815028 -0.579421 0
    outer loop
      vertex -4.05012 -2.57614 0
      vertex -3.76377 -2.97893 0
      vertex -4.05012 -2.57614 2.5
    endloop
  endfacet
  facet normal -0.815028 -0.579421 0
    outer loop
      vertex -4.05012 -2.57614 2.5
      vertex -3.76377 -2.97893 0
      vertex -3.76377 -2.97893 2.5
    endloop
  endfacet
  facet normal -0.751132 -0.660152 0
    outer loop
      vertex -3.76377 -2.97893 0
      vertex -3.43753 -3.35013 0
      vertex -3.76377 -2.97893 2.5
    endloop
  endfacet
  facet normal -0.751132 -0.660152 0
    outer loop
      vertex -3.76377 -2.97893 2.5
      vertex -3.43753 -3.35013 0
      vertex -3.43753 -3.35013 2.5
    endloop
  endfacet
  facet normal -0.679272 -0.733886 0
    outer loop
      vertex -3.43753 -3.35013 2.5
      vertex -3.43753 -3.35013 0
      vertex -3.07485 -3.68583 0
    endloop
  endfacet
  facet normal -0.679272 -0.733886 0
    outer loop
      vertex -3.07485 -3.68583 2.5
      vertex -3.43753 -3.35013 2.5
      vertex -3.07485 -3.68583 0
    endloop
  endfacet
  facet normal -0.600215 -0.799838 0
    outer loop
      vertex -3.07485 -3.68583 2.5
      vertex -3.07485 -3.68583 0
      vertex -2.67957 -3.98245 0
    endloop
  endfacet
  facet normal -0.600215 -0.799838 0
    outer loop
      vertex -2.67957 -3.98245 2.5
      vertex -3.07485 -3.68583 2.5
      vertex -2.67957 -3.98245 0
    endloop
  endfacet
  facet normal -0.514792 -0.857315 0
    outer loop
      vertex -2.67957 -3.98245 2.5
      vertex -2.67957 -3.98245 0
      vertex -2.25589 -4.23686 0
    endloop
  endfacet
  facet normal -0.514792 -0.857315 0
    outer loop
      vertex -2.25589 -4.23686 2.5
      vertex -2.67957 -3.98245 2.5
      vertex -2.25589 -4.23686 0
    endloop
  endfacet
  facet normal -0.423915 -0.905702 0
    outer loop
      vertex -2.25589 -4.23686 2.5
      vertex -2.25589 -4.23686 0
      vertex -1.80829 -4.44635 0
    endloop
  endfacet
  facet normal -0.423915 -0.905702 0
    outer loop
      vertex -1.80829 -4.44635 2.5
      vertex -2.25589 -4.23686 2.5
      vertex -1.80829 -4.44635 0
    endloop
  endfacet
  facet normal -0.328542 -0.944489 0
    outer loop
      vertex -1.80829 -4.44635 2.5
      vertex -1.80829 -4.44635 0
      vertex -1.34153 -4.60872 0
    endloop
  endfacet
  facet normal -0.328542 -0.944489 0
    outer loop
      vertex -1.34153 -4.60872 2.5
      vertex -1.80829 -4.44635 2.5
      vertex -1.34153 -4.60872 0
    endloop
  endfacet
  facet normal -0.229688 -0.973264 0
    outer loop
      vertex -1.34153 -4.60872 2.5
      vertex -1.34153 -4.60872 0
      vertex -0.860548 -4.72223 0
    endloop
  endfacet
  facet normal -0.229688 -0.973264 0
    outer loop
      vertex -0.860548 -4.72223 2.5
      vertex -1.34153 -4.60872 2.5
      vertex -0.860548 -4.72223 0
    endloop
  endfacet
  facet normal -0.128398 -0.991723 0
    outer loop
      vertex -0.860548 -4.72223 2.5
      vertex -0.860548 -4.72223 0
      vertex -0.370442 -4.78568 0
    endloop
  endfacet
  facet normal -0.128398 -0.991723 0
    outer loop
      vertex -0.370442 -4.78568 2.5
      vertex -0.860548 -4.72223 2.5
      vertex -0.370442 -4.78568 0
    endloop
  endfacet
  facet normal -0.0257489 -0.999668 0
    outer loop
      vertex -0.370442 -4.78568 2.5
      vertex -0.370442 -4.78568 0
      vertex 0.12359 -4.79841 0
    endloop
  endfacet
  facet normal -0.0257489 -0.999668 0
    outer loop
      vertex 0.12359 -4.79841 2.5
      vertex -0.370442 -4.78568 2.5
      vertex 0.12359 -4.79841 0
    endloop
  endfacet
  facet normal 0.0771759 -0.997017 0
    outer loop
      vertex 0.12359 -4.79841 2.5
      vertex 0.12359 -4.79841 0
      vertex 0.616312 -4.76027 0
    endloop
  endfacet
  facet normal 0.0771759 -0.997017 0
    outer loop
      vertex 0.616312 -4.76027 2.5
      vertex 0.12359 -4.79841 2.5
      vertex 0.616312 -4.76027 0
    endloop
  endfacet
  facet normal 0.179281 -0.983798 0
    outer loop
      vertex 0.616312 -4.76027 2.5
      vertex 0.616312 -4.76027 0
      vertex 1.1025 -4.67167 0
    endloop
  endfacet
  facet normal 0.179281 -0.983798 0
    outer loop
      vertex 1.1025 -4.67167 2.5
      vertex 0.616312 -4.76027 2.5
      vertex 1.1025 -4.67167 0
    endloop
  endfacet
  facet normal 0.279486 -0.96015 0
    outer loop
      vertex 1.1025 -4.67167 2.5
      vertex 1.1025 -4.67167 0
      vertex 1.577 -4.53355 0
    endloop
  endfacet
  facet normal 0.279486 -0.96015 0
    outer loop
      vertex 1.577 -4.53355 2.5
      vertex 1.1025 -4.67167 2.5
      vertex 1.577 -4.53355 0
    endloop
  endfacet
  facet normal 0.376727 -0.926324 0
    outer loop
      vertex 1.577 -4.53355 2.5
      vertex 1.577 -4.53355 0
      vertex 2.03479 -4.34737 0
    endloop
  endfacet
  facet normal 0.376727 -0.926324 0
    outer loop
      vertex 2.03479 -4.34737 2.5
      vertex 1.577 -4.53355 2.5
      vertex 2.03479 -4.34737 0
    endloop
  endfacet
  facet normal 0.469978 -0.882678 0
    outer loop
      vertex 2.03479 -4.34737 2.5
      vertex 2.03479 -4.34737 0
      vertex 2.471 -4.11511 0
    endloop
  endfacet
  facet normal 0.469978 -0.882678 0
    outer loop
      vertex 2.471 -4.11511 2.5
      vertex 2.03479 -4.34737 2.5
      vertex 2.471 -4.11511 0
    endloop
  endfacet
  facet normal 0.558243 -0.829677 0
    outer loop
      vertex 2.471 -4.11511 2.5
      vertex 2.471 -4.11511 0
      vertex 2.88103 -3.83923 0
    endloop
  endfacet
  facet normal 0.558243 -0.829677 0
    outer loop
      vertex 2.88103 -3.83923 2.5
      vertex 2.471 -4.11511 2.5
      vertex 2.88103 -3.83923 0
    endloop
  endfacet
  facet normal 0.640593 -0.767881 0
    outer loop
      vertex 2.88103 -3.83923 2.5
      vertex 2.88103 -3.83923 0
      vertex 3.26051 -3.52265 0
    endloop
  endfacet
  facet normal 0.640593 -0.767881 0
    outer loop
      vertex 3.26051 -3.52265 2.5
      vertex 2.88103 -3.83923 2.5
      vertex 3.26051 -3.52265 0
    endloop
  endfacet
  facet normal 0.716153 -0.697943 0
    outer loop
      vertex 3.26051 -3.52265 2.5
      vertex 3.26051 -3.52265 0
      vertex 3.60543 -3.16873 0
    endloop
  endfacet
  facet normal 0.716153 -0.697943 0
    outer loop
      vertex 3.60543 -3.16873 2.5
      vertex 3.26051 -3.52265 2.5
      vertex 3.60543 -3.16873 0
    endloop
  endfacet
  facet normal 0.78412 -0.62061 0
    outer loop
      vertex 3.60543 -3.16873 2.5
      vertex 3.60543 -3.16873 0
      vertex 3.91214 -2.78122 0
    endloop
  endfacet
  facet normal 0.78412 -0.62061 0
    outer loop
      vertex 3.91214 -2.78122 2.5
      vertex 3.60543 -3.16873 2.5
      vertex 3.91214 -2.78122 0
    endloop
  endfacet
  facet normal 0.843775 -0.536696 0
    outer loop
      vertex 3.91214 -2.78122 2.5
      vertex 3.91214 -2.78122 0
      vertex 4.17737 -2.36423 0
    endloop
  endfacet
  facet normal 0.843775 -0.536696 0
    outer loop
      vertex 4.17737 -2.36423 2.5
      vertex 3.91214 -2.78122 2.5
      vertex 4.17737 -2.36423 0
    endloop
  endfacet
  facet normal 0.894487 -0.447094 0
    outer loop
      vertex 4.17737 -2.36423 2.5
      vertex 4.17737 -2.36423 0
      vertex 4.39832 -1.92218 0
    endloop
  endfacet
  facet normal 0.894487 -0.447094 0
    outer loop
      vertex 4.39832 -1.92218 2.5
      vertex 4.17737 -2.36423 2.5
      vertex 4.39832 -1.92218 0
    endloop
  endfacet
  facet normal 0.935717 -0.352752 0
    outer loop
      vertex 4.39832 -1.92218 2.5
      vertex 4.39832 -1.92218 0
      vertex 4.57265 -1.45975 0
    endloop
  endfacet
  facet normal 0.935717 -0.352752 0
    outer loop
      vertex 4.57265 -1.45975 2.5
      vertex 4.39832 -1.92218 2.5
      vertex 4.57265 -1.45975 0
    endloop
  endfacet
  facet normal 0.967028 -0.25467 0
    outer loop
      vertex 4.57265 -1.45975 2.5
      vertex 4.57265 -1.45975 0
      vertex 4.69851 -0.98185 0
    endloop
  endfacet
  facet normal 0.967028 -0.25467 0
    outer loop
      vertex 4.69851 -0.98185 2.5
      vertex 4.57265 -1.45975 2.5
      vertex 4.69851 -0.98185 0
    endloop
  endfacet
  facet normal 0.988088 -0.15389 0
    outer loop
      vertex 4.69851 -0.98185 2.5
      vertex 4.69851 -0.98185 0
      vertex 4.77456 -0.493541 0
    endloop
  endfacet
  facet normal 0.988088 -0.15389 0
    outer loop
      vertex 4.77456 -0.493541 2.5
      vertex 4.69851 -0.98185 2.5
      vertex 4.77456 -0.493541 0
    endloop
  endfacet
  facet normal 0.998674 -0.0514795 0
    outer loop
      vertex 4.77456 -0.493541 2.5
      vertex 4.77456 -0.493541 0
      vertex 4.8 0 0
    endloop
  endfacet
  facet normal 0.998674 -0.0514795 0
    outer loop
      vertex 4.8 0 2.5
      vertex 4.77456 -0.493541 2.5
      vertex 4.8 0 0
    endloop
  endfacet
  facet normal 0.998674 0.0514795 0
    outer loop
      vertex 4.8 0 0
      vertex 4.77456 0.493541 0
      vertex 4.77456 0.493541 2.5
    endloop
  endfacet
  facet normal 0.998674 0.0514795 0
    outer loop
      vertex 4.8 0 2.5
      vertex 4.8 0 0
      vertex 4.77456 0.493541 2.5
    endloop
  endfacet
  facet normal 0.988088 0.15389 0
    outer loop
      vertex 4.77456 0.493541 0
      vertex 4.69851 0.98185 0
      vertex 4.69851 0.98185 2.5
    endloop
  endfacet
  facet normal 0.988088 0.15389 0
    outer loop
      vertex 4.77456 0.493541 2.5
      vertex 4.77456 0.493541 0
      vertex 4.69851 0.98185 2.5
    endloop
  endfacet
  facet normal 0.967028 0.25467 0
    outer loop
      vertex 4.69851 0.98185 0
      vertex 4.57265 1.45975 0
      vertex 4.57265 1.45975 2.5
    endloop
  endfacet
  facet normal 0.967028 0.25467 0
    outer loop
      vertex 4.69851 0.98185 2.5
      vertex 4.69851 0.98185 0
      vertex 4.57265 1.45975 2.5
    endloop
  endfacet
  facet normal 0.935717 0.352752 0
    outer loop
      vertex 4.57265 1.45975 0
      vertex 4.39832 1.92218 0
      vertex 4.39832 1.92218 2.5
    endloop
  endfacet
  facet normal 0.935717 0.352752 0
    outer loop
      vertex 4.57265 1.45975 2.5
      vertex 4.57265 1.45975 0
      vertex 4.39832 1.92218 2.5
    endloop
  endfacet
  facet normal 0.894487 0.447094 0
    outer loop
      vertex 4.39832 1.92218 0
      vertex 4.17737 2.36423 0
      vertex 4.17737 2.36423 2.5
    endloop
  endfacet
  facet normal 0.894487 0.447094 0
    outer loop
      vertex 4.39832 1.92218 2.5
      vertex 4.39832 1.92218 0
      vertex 4.17737 2.36423 2.5
    endloop
  endfacet
  facet normal 0.843775 0.536696 0
    outer loop
      vertex 4.17737 2.36423 0
      vertex 3.91214 2.78122 0
      vertex 3.91214 2.78122 2.5
    endloop
  endfacet
  facet normal 0.843775 0.536696 0
    outer loop
      vertex 4.17737 2.36423 2.5
      vertex 4.17737 2.36423 0
      vertex 3.91214 2.78122 2.5
    endloop
  endfacet
  facet normal 0.78412 0.62061 0
    outer loop
      vertex 3.91214 2.78122 0
      vertex 3.60543 3.16873 0
      vertex 3.60543 3.16873 2.5
    endloop
  endfacet
  facet normal 0.78412 0.62061 0
    outer loop
      vertex 3.91214 2.78122 2.5
      vertex 3.91214 2.78122 0
      vertex 3.60543 3.16873 2.5
    endloop
  endfacet
  facet normal 0.716153 0.697943 0
    outer loop
      vertex 3.60543 3.16873 0
      vertex 3.26051 3.52265 0
      vertex 3.26051 3.52265 2.5
    endloop
  endfacet
  facet normal 0.716153 0.697943 0
    outer loop
      vertex 3.60543 3.16873 2.5
      vertex 3.60543 3.16873 0
      vertex 3.26051 3.52265 2.5
    endloop
  endfacet
  facet normal 0.640593 0.767881 0
    outer loop
      vertex 2.88103 3.83923 0
      vertex 2.88103 3.83923 2.5
      vertex 3.26051 3.52265 0
    endloop
  endfacet
  facet normal 0.640593 0.767881 0
    outer loop
      vertex 3.26051 3.52265 0
      vertex 2.88103 3.83923 2.5
      vertex 3.26051 3.52265 2.5
    endloop
  endfacet
  facet normal 0.558243 0.829677 0
    outer loop
      vertex 2.471 4.11511 0
      vertex 2.471 4.11511 2.5
      vertex 2.88103 3.83923 0
    endloop
  endfacet
  facet normal 0.558243 0.829677 0
    outer loop
      vertex 2.88103 3.83923 0
      vertex 2.471 4.11511 2.5
      vertex 2.88103 3.83923 2.5
    endloop
  endfacet
  facet normal 0.469978 0.882678 0
    outer loop
      vertex 2.03479 4.34737 0
      vertex 2.03479 4.34737 2.5
      vertex 2.471 4.11511 0
    endloop
  endfacet
  facet normal 0.469978 0.882678 0
    outer loop
      vertex 2.471 4.11511 0
      vertex 2.03479 4.34737 2.5
      vertex 2.471 4.11511 2.5
    endloop
  endfacet
  facet normal 0.376727 0.926324 0
    outer loop
      vertex 1.577 4.53355 0
      vertex 1.577 4.53355 2.5
      vertex 2.03479 4.34737 0
    endloop
  endfacet
  facet normal 0.376727 0.926324 0
    outer loop
      vertex 2.03479 4.34737 0
      vertex 1.577 4.53355 2.5
      vertex 2.03479 4.34737 2.5
    endloop
  endfacet
  facet normal 0.279486 0.96015 0
    outer loop
      vertex 1.1025 4.67167 0
      vertex 1.1025 4.67167 2.5
      vertex 1.577 4.53355 0
    endloop
  endfacet
  facet normal 0.279486 0.96015 0
    outer loop
      vertex 1.577 4.53355 0
      vertex 1.1025 4.67167 2.5
      vertex 1.577 4.53355 2.5
    endloop
  endfacet
  facet normal 0.179281 0.983798 0
    outer loop
      vertex 0.616312 4.76027 0
      vertex 0.616312 4.76027 2.5
      vertex 1.1025 4.67167 0
    endloop
  endfacet
  facet normal 0.179281 0.983798 0
    outer loop
      vertex 1.1025 4.67167 0
      vertex 0.616312 4.76027 2.5
      vertex 1.1025 4.67167 2.5
    endloop
  endfacet
  facet normal 0.0771759 0.997017 0
    outer loop
      vertex 0.12359 4.79841 0
      vertex 0.12359 4.79841 2.5
      vertex 0.616312 4.76027 0
    endloop
  endfacet
  facet normal 0.0771759 0.997017 0
    outer loop
      vertex 0.616312 4.76027 0
      vertex 0.12359 4.79841 2.5
      vertex 0.616312 4.76027 2.5
    endloop
  endfacet
  facet normal -0.0257489 0.999668 0
    outer loop
      vertex -0.370442 4.78568 0
      vertex -0.370442 4.78568 2.5
      vertex 0.12359 4.79841 0
    endloop
  endfacet
  facet normal -0.0257489 0.999668 0
    outer loop
      vertex 0.12359 4.79841 0
      vertex -0.370442 4.78568 2.5
      vertex 0.12359 4.79841 2.5
    endloop
  endfacet
  facet normal -0.128398 0.991723 0
    outer loop
      vertex -0.860548 4.72223 0
      vertex -0.860548 4.72223 2.5
      vertex -0.370442 4.78568 0
    endloop
  endfacet
  facet normal -0.128398 0.991723 0
    outer loop
      vertex -0.370442 4.78568 0
      vertex -0.860548 4.72223 2.5
      vertex -0.370442 4.78568 2.5
    endloop
  endfacet
  facet normal -0.229688 0.973264 0
    outer loop
      vertex -1.34153 4.60872 0
      vertex -1.34153 4.60872 2.5
      vertex -0.860548 4.72223 0
    endloop
  endfacet
  facet normal -0.229688 0.973264 0
    outer loop
      vertex -0.860548 4.72223 0
      vertex -1.34153 4.60872 2.5
      vertex -0.860548 4.72223 2.5
    endloop
  endfacet
  facet normal -0.328542 0.944489 0
    outer loop
      vertex -1.80829 4.44635 0
      vertex -1.80829 4.44635 2.5
      vertex -1.34153 4.60872 0
    endloop
  endfacet
  facet normal -0.328542 0.944489 0
    outer loop
      vertex -1.34153 4.60872 0
      vertex -1.80829 4.44635 2.5
      vertex -1.34153 4.60872 2.5
    endloop
  endfacet
  facet normal -0.423915 0.905702 0
    outer loop
      vertex -2.25589 4.23686 0
      vertex -2.25589 4.23686 2.5
      vertex -1.80829 4.44635 0
    endloop
  endfacet
  facet normal -0.423915 0.905702 0
    outer loop
      vertex -1.80829 4.44635 0
      vertex -2.25589 4.23686 2.5
      vertex -1.80829 4.44635 2.5
    endloop
  endfacet
  facet normal -0.514792 0.857315 0
    outer loop
      vertex -2.67957 3.98245 0
      vertex -2.67957 3.98245 2.5
      vertex -2.25589 4.23686 0
    endloop
  endfacet
  facet normal -0.514792 0.857315 0
    outer loop
      vertex -2.25589 4.23686 0
      vertex -2.67957 3.98245 2.5
      vertex -2.25589 4.23686 2.5
    endloop
  endfacet
  facet normal -0.600215 0.799838 0
    outer loop
      vertex -3.07485 3.68583 0
      vertex -3.07485 3.68583 2.5
      vertex -2.67957 3.98245 0
    endloop
  endfacet
  facet normal -0.600215 0.799838 0
    outer loop
      vertex -2.67957 3.98245 0
      vertex -3.07485 3.68583 2.5
      vertex -2.67957 3.98245 2.5
    endloop
  endfacet
  facet normal -0.679272 0.733886 0
    outer loop
      vertex -3.43753 3.35013 0
      vertex -3.43753 3.35013 2.5
      vertex -3.07485 3.68583 0
    endloop
  endfacet
  facet normal -0.679272 0.733886 0
    outer loop
      vertex -3.07485 3.68583 0
      vertex -3.43753 3.35013 2.5
      vertex -3.07485 3.68583 2.5
    endloop
  endfacet
  facet normal -0.751132 0.660152 0
    outer loop
      vertex -3.76377 2.97893 0
      vertex -3.76377 2.97893 2.5
      vertex -3.43753 3.35013 0
    endloop
  endfacet
  facet normal -0.751132 0.660152 0
    outer loop
      vertex -3.43753 3.35013 0
      vertex -3.76377 2.97893 2.5
      vertex -3.43753 3.35013 2.5
    endloop
  endfacet
  facet normal -0.815028 0.579421 0
    outer loop
      vertex -4.05012 2.57614 0
      vertex -4.05012 2.57614 2.5
      vertex -3.76377 2.97893 0
    endloop
  endfacet
  facet normal -0.815028 0.579421 0
    outer loop
      vertex -3.76377 2.97893 0
      vertex -4.05012 2.57614 2.5
      vertex -3.76377 2.97893 2.5
    endloop
  endfacet
  facet normal -0.870286 0.492547 0
    outer loop
      vertex -4.29354 2.14605 0
      vertex -4.29354 2.14605 2.5
      vertex -4.05012 2.57614 0
    endloop
  endfacet
  facet normal -0.870286 0.492547 0
    outer loop
      vertex -4.05012 2.57614 0
      vertex -4.29354 2.14605 2.5
      vertex -4.05012 2.57614 2.5
    endloop
  endfacet
  facet normal -0.916317 0.400454 0
    outer loop
      vertex -4.49144 1.69321 0
      vertex -4.49144 1.69321 2.5
      vertex -4.29354 2.14605 0
    endloop
  endfacet
  facet normal -0.916317 0.400454 0
    outer loop
      vertex -4.29354 2.14605 0
      vertex -4.49144 1.69321 2.5
      vertex -4.29354 2.14605 2.5
    endloop
  endfacet
  facet normal -0.952636 0.304114 0
    outer loop
      vertex -4.64173 1.22242 0
      vertex -4.64173 1.22242 2.5
      vertex -4.49144 1.69321 0
    endloop
  endfacet
  facet normal -0.952636 0.304114 0
    outer loop
      vertex -4.49144 1.69321 0
      vertex -4.64173 1.22242 2.5
      vertex -4.49144 1.69321 2.5
    endloop
  endfacet
  facet normal -0.978856 0.204553 0
    outer loop
      vertex -4.74282 0.738675 0
      vertex -4.74282 0.738675 2.5
      vertex -4.64173 1.22242 0
    endloop
  endfacet
  facet normal -0.978856 0.204553 0
    outer loop
      vertex -4.64173 1.22242 0
      vertex -4.74282 0.738675 2.5
      vertex -4.64173 1.22242 2.5
    endloop
  endfacet
  facet normal -0.9947 0.102821 0
    outer loop
      vertex -4.79364 0.247098 0
      vertex -4.79364 0.247098 2.5
      vertex -4.74282 0.738675 0
    endloop
  endfacet
  facet normal -0.9947 0.102821 0
    outer loop
      vertex -4.74282 0.738675 0
      vertex -4.79364 0.247098 2.5
      vertex -4.74282 0.738675 2.5
    endloop
  endfacet
  facet normal 0.993712 -0.111965 0
    outer loop
      vertex -2.14484 0.489546 0
      vertex -2.14484 0.489546 5.9
      vertex -2.2 0 5.9
    endloop
  endfacet
  facet normal 0.993712 -0.111965 0
    outer loop
      vertex -2.2 0 0
      vertex -2.14484 0.489546 0
      vertex -2.2 0 5.9
    endloop
  endfacet
  facet normal 0.993712 0.111965 0
    outer loop
      vertex -2.2 0 5.9
      vertex -2.14484 -0.489546 5.9
      vertex -2.14484 -0.489546 0
    endloop
  endfacet
  facet normal 0.993712 0.111965 0
    outer loop
      vertex -2.2 0 0
      vertex -2.2 0 5.9
      vertex -2.14484 -0.489546 0
    endloop
  endfacet
  facet normal 0.943884 -0.330278 0
    outer loop
      vertex -1.98213 0.954544 0
      vertex -1.98213 0.954544 5.9
      vertex -2.14484 0.489546 5.9
    endloop
  endfacet
  facet normal 0.943884 -0.330278 0
    outer loop
      vertex -2.14484 0.489546 0
      vertex -1.98213 0.954544 0
      vertex -2.14484 0.489546 5.9
    endloop
  endfacet
  facet normal 0.846724 -0.532033 0
    outer loop
      vertex -1.72003 1.37168 0
      vertex -1.72003 1.37168 5.9
      vertex -1.98213 0.954544 5.9
    endloop
  endfacet
  facet normal 0.846724 -0.532033 0
    outer loop
      vertex -1.98213 0.954544 0
      vertex -1.72003 1.37168 0
      vertex -1.98213 0.954544 5.9
    endloop
  endfacet
  facet normal 0.707107 -0.707107 0
    outer loop
      vertex -1.37168 1.72003 0
      vertex -1.37168 1.72003 5.9
      vertex -1.72003 1.37168 5.9
    endloop
  endfacet
  facet normal 0.707107 -0.707107 0
    outer loop
      vertex -1.72003 1.37168 0
      vertex -1.37168 1.72003 0
      vertex -1.72003 1.37168 5.9
    endloop
  endfacet
  facet normal 0.532033 -0.846724 0
    outer loop
      vertex -0.954544 1.98213 0
      vertex -0.954544 1.98213 5.9
      vertex -1.37168 1.72003 5.9
    endloop
  endfacet
  facet normal 0.532033 -0.846724 0
    outer loop
      vertex -1.37168 1.72003 0
      vertex -0.954544 1.98213 0
      vertex -1.37168 1.72003 5.9
    endloop
  endfacet
  facet normal 0.330278 -0.943884 0
    outer loop
      vertex -0.489546 2.14484 0
      vertex -0.489546 2.14484 5.9
      vertex -0.954544 1.98213 5.9
    endloop
  endfacet
  facet normal 0.330278 -0.943884 0
    outer loop
      vertex -0.954544 1.98213 0
      vertex -0.489546 2.14484 0
      vertex -0.954544 1.98213 5.9
    endloop
  endfacet
  facet normal 0.111965 -0.993712 0
    outer loop
      vertex 0 2.2 0
      vertex 0 2.2 5.9
      vertex -0.489546 2.14484 5.9
    endloop
  endfacet
  facet normal 0.111965 -0.993712 0
    outer loop
      vertex -0.489546 2.14484 0
      vertex 0 2.2 0
      vertex -0.489546 2.14484 5.9
    endloop
  endfacet
  facet normal -0.111965 -0.993712 0
    outer loop
      vertex 0.489546 2.14484 0
      vertex 0.489546 2.14484 5.9
      vertex 0 2.2 5.9
    endloop
  endfacet
  facet normal -0.111965 -0.993712 0
    outer loop
      vertex 0 2.2 0
      vertex 0.489546 2.14484 0
      vertex 0 2.2 5.9
    endloop
  endfacet
  facet normal -0.330278 -0.943884 0
    outer loop
      vertex 0.954544 1.98213 0
      vertex 0.954544 1.98213 5.9
      vertex 0.489546 2.14484 5.9
    endloop
  endfacet
  facet normal -0.330278 -0.943884 0
    outer loop
      vertex 0.489546 2.14484 0
      vertex 0.954544 1.98213 0
      vertex 0.489546 2.14484 5.9
    endloop
  endfacet
  facet normal -0.532033 -0.846724 0
    outer loop
      vertex 1.37168 1.72003 0
      vertex 1.37168 1.72003 5.9
      vertex 0.954544 1.98213 5.9
    endloop
  endfacet
  facet normal -0.532033 -0.846724 0
    outer loop
      vertex 0.954544 1.98213 0
      vertex 1.37168 1.72003 0
      vertex 0.954544 1.98213 5.9
    endloop
  endfacet
  facet normal -0.707107 -0.707107 0
    outer loop
      vertex 1.72003 1.37168 0
      vertex 1.72003 1.37168 5.9
      vertex 1.37168 1.72003 5.9
    endloop
  endfacet
  facet normal -0.707107 -0.707107 0
    outer loop
      vertex 1.37168 1.72003 0
      vertex 1.72003 1.37168 0
      vertex 1.37168 1.72003 5.9
    endloop
  endfacet
  facet normal -0.846724 -0.532033 0
    outer loop
      vertex 1.98213 0.954544 5.9
      vertex 1.72003 1.37168 5.9
      vertex 1.98213 0.954544 0
    endloop
  endfacet
  facet normal -0.846724 -0.532033 0
    outer loop
      vertex 1.98213 0.954544 0
      vertex 1.72003 1.37168 5.9
      vertex 1.72003 1.37168 0
    endloop
  endfacet
  facet normal -0.943884 -0.330278 0
    outer loop
      vertex 2.14484 0.489546 5.9
      vertex 1.98213 0.954544 5.9
      vertex 2.14484 0.489546 0
    endloop
  endfacet
  facet normal -0.943884 -0.330278 0
    outer loop
      vertex 2.14484 0.489546 0
      vertex 1.98213 0.954544 5.9
      vertex 1.98213 0.954544 0
    endloop
  endfacet
  facet normal -0.993712 -0.111965 0
    outer loop
      vertex 2.2 0 5.9
      vertex 2.14484 0.489546 5.9
      vertex 2.2 0 0
    endloop
  endfacet
  facet normal -0.993712 -0.111965 0
    outer loop
      vertex 2.2 0 0
      vertex 2.14484 0.489546 5.9
      vertex 2.14484 0.489546 0
    endloop
  endfacet
  facet normal -0.993712 0.111965 0
    outer loop
      vertex 2.2 0 5.9
      vertex 2.2 0 0
      vertex 2.14484 -0.489546 5.9
    endloop
  endfacet
  facet normal -0.993712 0.111965 0
    outer loop
      vertex 2.14484 -0.489546 5.9
      vertex 2.2 0 0
      vertex 2.14484 -0.489546 0
    endloop
  endfacet
  facet normal -0.943884 0.330278 0
    outer loop
      vertex 2.14484 -0.489546 5.9
      vertex 2.14484 -0.489546 0
      vertex 1.98213 -0.954544 5.9
    endloop
  endfacet
  facet normal -0.943884 0.330278 0
    outer loop
      vertex 1.98213 -0.954544 5.9
      vertex 2.14484 -0.489546 0
      vertex 1.98213 -0.954544 0
    endloop
  endfacet
  facet normal -0.846724 0.532033 0
    outer loop
      vertex 1.98213 -0.954544 5.9
      vertex 1.98213 -0.954544 0
      vertex 1.72003 -1.37168 5.9
    endloop
  endfacet
  facet normal -0.846724 0.532033 0
    outer loop
      vertex 1.72003 -1.37168 5.9
      vertex 1.98213 -0.954544 0
      vertex 1.72003 -1.37168 0
    endloop
  endfacet
  facet normal -0.707107 0.707107 0
    outer loop
      vertex 1.72003 -1.37168 5.9
      vertex 1.72003 -1.37168 0
      vertex 1.37168 -1.72003 5.9
    endloop
  endfacet
  facet normal -0.707107 0.707107 0
    outer loop
      vertex 1.37168 -1.72003 5.9
      vertex 1.72003 -1.37168 0
      vertex 1.37168 -1.72003 0
    endloop
  endfacet
  facet normal -0.532033 0.846724 0
    outer loop
      vertex 1.37168 -1.72003 5.9
      vertex 1.37168 -1.72003 0
      vertex 0.954544 -1.98213 5.9
    endloop
  endfacet
  facet normal -0.532033 0.846724 0
    outer loop
      vertex 0.954544 -1.98213 5.9
      vertex 1.37168 -1.72003 0
      vertex 0.954544 -1.98213 0
    endloop
  endfacet
  facet normal -0.330278 0.943884 0
    outer loop
      vertex 0.954544 -1.98213 5.9
      vertex 0.954544 -1.98213 0
      vertex 0.489546 -2.14484 5.9
    endloop
  endfacet
  facet normal -0.330278 0.943884 0
    outer loop
      vertex 0.489546 -2.14484 5.9
      vertex 0.954544 -1.98213 0
      vertex 0.489546 -2.14484 0
    endloop
  endfacet
  facet normal -0.111965 0.993712 0
    outer loop
      vertex 0.489546 -2.14484 5.9
      vertex 0.489546 -2.14484 0
      vertex 0 -2.2 5.9
    endloop
  endfacet
  facet normal -0.111965 0.993712 0
    outer loop
      vertex 0 -2.2 5.9
      vertex 0.489546 -2.14484 0
      vertex 0 -2.2 0
    endloop
  endfacet
  facet normal 0.111965 0.993712 0
    outer loop
      vertex 0 -2.2 5.9
      vertex 0 -2.2 0
      vertex -0.489546 -2.14484 5.9
    endloop
  endfacet
  facet normal 0.111965 0.993712 0
    outer loop
      vertex -0.489546 -2.14484 5.9
      vertex 0 -2.2 0
      vertex -0.489546 -2.14484 0
    endloop
  endfacet
  facet normal 0.330278 0.943884 0
    outer loop
      vertex -0.489546 -2.14484 5.9
      vertex -0.489546 -2.14484 0
      vertex -0.954544 -1.98213 5.9
    endloop
  endfacet
  facet normal 0.330278 0.943884 0
    outer loop
      vertex -0.954544 -1.98213 5.9
      vertex -0.489546 -2.14484 0
      vertex -0.954544 -1.98213 0
    endloop
  endfacet
  facet normal 0.532033 0.846724 0
    outer loop
      vertex -0.954544 -1.98213 5.9
      vertex -0.954544 -1.98213 0
      vertex -1.37168 -1.72003 5.9
    endloop
  endfacet
  facet normal 0.532033 0.846724 0
    outer loop
      vertex -1.37168 -1.72003 5.9
      vertex -0.954544 -1.98213 0
      vertex -1.37168 -1.72003 0
    endloop
  endfacet
  facet normal 0.707107 0.707107 0
    outer loop
      vertex -1.37168 -1.72003 5.9
      vertex -1.37168 -1.72003 0
      vertex -1.72003 -1.37168 5.9
    endloop
  endfacet
  facet normal 0.707107 0.707107 0
    outer loop
      vertex -1.72003 -1.37168 5.9
      vertex -1.37168 -1.72003 0
      vertex -1.72003 -1.37168 0
    endloop
  endfacet
  facet normal 0.846724 0.532033 0
    outer loop
      vertex -1.98213 -0.954544 5.9
      vertex -1.72003 -1.37168 5.9
      vertex -1.72003 -1.37168 0
    endloop
  endfacet
  facet normal 0.846724 0.532033 0
    outer loop
      vertex -1.98213 -0.954544 0
      vertex -1.98213 -0.954544 5.9
      vertex -1.72003 -1.37168 0
    endloop
  endfacet
  facet normal 0.943884 0.330278 0
    outer loop
      vertex -2.14484 -0.489546 5.9
      vertex -1.98213 -0.954544 5.9
      vertex -1.98213 -0.954544 0
    endloop
  endfacet
  facet normal 0.943884 0.330278 0
    outer loop
      vertex -2.14484 -0.489546 0
      vertex -2.14484 -0.489546 5.9
      vertex -1.98213 -0.954544 0
    endloop
  endfacet
  facet normal 0 0 1
    outer loop
      vertex -4.79364 0.247098 2.5
      vertex -4.79364 -0.247098 2.5
      vertex -4.74282 -0.738675 2.5
    endloop
  endfacet
  facet normal 0 0 1
    outer loop
      vertex -4.49144 -1.69321 2.5
      vertex -4.79364 0.247098 2.5
      vertex -4.64173 -1.22242 2.5
    endloop
  endfacet
  facet normal 0 0 1
    outer loop
      vertex -4.64173 -1.22242 2.5
      vertex -4.79364 0.247098 2.5
      vertex -4.74282 -0.738675 2.5
    endloop
  endfacet
  facet normal 0 0 1
    outer loop
      vertex -4.29354 -2.14605 2.5
      vertex -4.79364 0.247098 2.5
      vertex -4.49144 -1.69321 2.5
    endloop
  endfacet
  facet normal 0 0 1
    outer loop
      vertex -4.05012 -2.57614 2.5
      vertex -4.79364 0.247098 2.5
      vertex -4.29354 -2.14605 2.5
    endloop
  endfacet
  facet normal 0 0 1
    outer loop
      vertex -3.76377 -2.97893 2.5
      vertex -4.79364 0.247098 2.5
      vertex -4.05012 -2.57614 2.5
    endloop
  endfacet
  facet normal 0 0 1
    outer loop
      vertex -3.43753 -3.35013 2.5
      vertex -4.79364 0.247098 2.5
      vertex -3.76377 -2.97893 2.5
    endloop
  endfacet
  facet normal 0 0 1
    outer loop
      vertex -3.07485 -3.68583 2.5
      vertex -4.79364 0.247098 2.5
      vertex -3.43753 -3.35013 2.5
    endloop
  endfacet
  facet normal 0 0 1
    outer loop
      vertex -2.67957 -3.98245 2.5
      vertex -4.79364 0.247098 2.5
      vertex -3.07485 -3.68583 2.5
    endloop
  endfacet
  facet normal 0 0 1
    outer loop
      vertex -2.25589 -4.23686 2.5
      vertex -4.79364 0.247098 2.5
      vertex -2.67957 -3.98245 2.5
    endloop
  endfacet
  facet normal 0 0 1
    outer loop
      vertex -1.80829 -4.44635 2.5
      vertex -4.79364 0.247098 2.5
      vertex -2.25589 -4.23686 2.5
    endloop
  endfacet
  facet normal 0 0 1
    outer loop
      vertex -3.01474 -2.31329 2.5
      vertex -4.79364 0.247098 2.5
      vertex -1.80829 -4.44635 2.5
    endloop
  endfacet
  facet normal 0 0 1
    outer loop
      vertex -1.9 -3.2909 2.5
      vertex -2.31329 -3.01474 2.5
      vertex -0.860548 -4.72223 2.5
    endloop
  endfacet
  facet normal 0 0 1
    outer loop
      vertex 3.8 0 2.5
      vertex 3.76749 -0.496 2.5
      vertex 4.77456 -0.493541 2.5
    endloop
  endfacet
  facet normal 0 0 1
    outer loop
      vertex -3.76749 0.496 2.5
      vertex -3.67052 0.983512 2.5
      vertex -4.79364 0.247098 2.5
    endloop
  endfacet
  facet normal 0 0 1
    outer loop
      vertex 3.76749 0.496 2.5
      vertex 3.8 0 2.5
      vertex 4.8 0 2.5
    endloop
  endfacet
  facet normal 0 0 1
    outer loop
      vertex 0.496 3.76749 2.5
      vertex 0.983512 3.67052 2.5
      vertex 2.03479 4.34737 2.5
    endloop
  endfacet
  facet normal 0 0 1
    outer loop
      vertex -2.68701 2.68701 2.5
      vertex -2.31329 3.01474 2.5
      vertex -0.860548 4.72223 2.5
    endloop
  endfacet
  facet normal 0 0 1
    outer loop
      vertex -1.4542 3.51074 2.5
      vertex -0.983512 3.67052 2.5
      vertex 0.12359 4.79841 2.5
    endloop
  endfacet
  facet normal 0 0 1
    outer loop
      vertex -1.80829 4.44635 2.5
      vertex -4.79364 0.247098 2.5
      vertex -1.34153 4.60872 2.5
    endloop
  endfacet
  facet normal 0 0 1
    outer loop
      vertex -2.25589 4.23686 2.5
      vertex -4.79364 0.247098 2.5
      vertex -1.80829 4.44635 2.5
    endloop
  endfacet
  facet normal 0 0 1
    outer loop
      vertex -2.67957 3.98245 2.5
      vertex -4.79364 0.247098 2.5
      vertex -2.25589 4.23686 2.5
    endloop
  endfacet
  facet normal 0 0 1
    outer loop
      vertex -3.07485 3.68583 2.5
      vertex -4.79364 0.247098 2.5
      vertex -2.67957 3.98245 2.5
    endloop
  endfacet
  facet normal 0 0 1
    outer loop
      vertex -3.43753 3.35013 2.5
      vertex -4.79364 0.247098 2.5
      vertex -3.07485 3.68583 2.5
    endloop
  endfacet
  facet normal 0 0 1
    outer loop
      vertex -3.76377 2.97893 2.5
      vertex -4.79364 0.247098 2.5
      vertex -3.43753 3.35013 2.5
    endloop
  endfacet
  facet normal 0 0 1
    outer loop
      vertex -4.05012 2.57614 2.5
      vertex -4.79364 0.247098 2.5
      vertex -3.76377 2.97893 2.5
    endloop
  endfacet
  facet normal 0 0 1
    outer loop
      vertex -4.29354 2.14605 2.5
      vertex -4.79364 0.247098 2.5
      vertex -4.05012 2.57614 2.5
    endloop
  endfacet
  facet normal 0 0 1
    outer loop
      vertex -4.49144 1.69321 2.5
      vertex -4.79364 0.247098 2.5
      vertex -4.29354 2.14605 2.5
    endloop
  endfacet
  facet normal 0 0 1
    outer loop
      vertex -4.64173 1.22242 2.5
      vertex -4.79364 0.247098 2.5
      vertex -4.49144 1.69321 2.5
    endloop
  endfacet
  facet normal 0 0 1
    outer loop
      vertex -4.74282 0.738675 2.5
      vertex -4.79364 0.247098 2.5
      vertex -4.64173 1.22242 2.5
    endloop
  endfacet
  facet normal 0 0 1
    outer loop
      vertex 0.496 -3.76749 2.5
      vertex 0 -3.8 2.5
      vertex 1.1025 -4.67167 2.5
    endloop
  endfacet
  facet normal 0 0 1
    outer loop
      vertex 3.67052 -0.983512 2.5
      vertex 3.51074 -1.4542 2.5
      vertex 4.57265 -1.45975 2.5
    endloop
  endfacet
  facet normal 0 0 1
    outer loop
      vertex 3.01474 -2.31329 2.5
      vertex 2.68701 -2.68701 2.5
      vertex 3.91214 -2.78122 2.5
    endloop
  endfacet
  facet normal 0 0 1
    outer loop
      vertex 3.2909 1.9 2.5
      vertex 3.51074 1.4542 2.5
      vertex 4.39832 1.92218 2.5
    endloop
  endfacet
  facet normal 0 0 1
    outer loop
      vertex 0.983512 3.67052 2.5
      vertex 1.4542 3.51074 2.5
      vertex 2.471 4.11511 2.5
    endloop
  endfacet
  facet normal 0 0 1
    outer loop
      vertex -0.983512 3.67052 2.5
      vertex -0.496 3.76749 2.5
      vertex 0.616312 4.76027 2.5
    endloop
  endfacet
  facet normal 0 0 1
    outer loop
      vertex -3.2909 1.9 2.5
      vertex -3.01474 2.31329 2.5
      vertex -4.79364 0.247098 2.5
    endloop
  endfacet
  facet normal 0 0 1
    outer loop
      vertex 0 3.8 2.5
      vertex 0.496 3.76749 2.5
      vertex 1.577 4.53355 2.5
    endloop
  endfacet
  facet normal 0 0 1
    outer loop
      vertex -1.9 3.2909 2.5
      vertex -1.4542 3.51074 2.5
      vertex -0.370442 4.78568 2.5
    endloop
  endfacet
  facet normal 0 0 1
    outer loop
      vertex -1.34153 4.60872 2.5
      vertex -4.79364 0.247098 2.5
      vertex -3.01474 2.31329 2.5
    endloop
  endfacet
  facet normal 0 0 1
    outer loop
      vertex -1.34153 4.60872 2.5
      vertex -2.68701 2.68701 2.5
      vertex -0.860548 4.72223 2.5
    endloop
  endfacet
  facet normal 0 0 1
    outer loop
      vertex -1.34153 4.60872 2.5
      vertex -3.01474 2.31329 2.5
      vertex -2.68701 2.68701 2.5
    endloop
  endfacet
  facet normal 0 0 1
    outer loop
      vertex -0.860548 4.72223 2.5
      vertex -2.31329 3.01474 2.5
      vertex -0.370442 4.78568 2.5
    endloop
  endfacet
  facet normal 0 0 1
    outer loop
      vertex -2.31329 3.01474 2.5
      vertex -1.9 3.2909 2.5
      vertex -0.370442 4.78568 2.5
    endloop
  endfacet
  facet normal 0 0 1
    outer loop
      vertex -0.370442 4.78568 2.5
      vertex -1.4542 3.51074 2.5
      vertex 0.12359 4.79841 2.5
    endloop
  endfacet
  facet normal 0 0 1
    outer loop
      vertex 0.12359 4.79841 2.5
      vertex -0.983512 3.67052 2.5
      vertex 0.616312 4.76027 2.5
    endloop
  endfacet
  facet normal 0 0 1
    outer loop
      vertex -3.51074 1.4542 2.5
      vertex -3.2909 1.9 2.5
      vertex -4.79364 0.247098 2.5
    endloop
  endfacet
  facet normal 0 0 1
    outer loop
      vertex 0.616312 4.76027 2.5
      vertex -0.496 3.76749 2.5
      vertex 1.1025 4.67167 2.5
    endloop
  endfacet
  facet normal 0 0 1
    outer loop
      vertex -3.51074 -1.4542 2.5
      vertex -3.67052 -0.983512 2.5
      vertex -4.79364 0.247098 2.5
    endloop
  endfacet
  facet normal 0 0 1
    outer loop
      vertex 1.1025 4.67167 2.5
      vertex 0 3.8 2.5
      vertex 1.577 4.53355 2.5
    endloop
  endfacet
  facet normal 0 0 1
    outer loop
      vertex 1.577 4.53355 2.5
      vertex 0.496 3.76749 2.5
      vertex 2.03479 4.34737 2.5
    endloop
  endfacet
  facet normal 0 0 1
    outer loop
      vertex 2.03479 4.34737 2.5
      vertex 0.983512 3.67052 2.5
      vertex 2.471 4.11511 2.5
    endloop
  endfacet
  facet normal 0 0 1
    outer loop
      vertex -0.496 3.76749 2.5
      vertex 0 3.8 2.5
      vertex 1.1025 4.67167 2.5
    endloop
  endfacet
  facet normal 0 0 1
    outer loop
      vertex 2.471 4.11511 2.5
      vertex 1.4542 3.51074 2.5
      vertex 2.88103 3.83923 2.5
    endloop
  endfacet
  facet normal 0 0 1
    outer loop
      vertex 2.88103 3.83923 2.5
      vertex 1.9 3.2909 2.5
      vertex 3.26051 3.52265 2.5
    endloop
  endfacet
  facet normal 0 0 1
    outer loop
      vertex 2.68701 2.68701 2.5
      vertex 3.01474 2.31329 2.5
      vertex 3.91214 2.78122 2.5
    endloop
  endfacet
  facet normal 0 0 1
    outer loop
      vertex 3.26051 3.52265 2.5
      vertex 2.31329 3.01474 2.5
      vertex 3.60543 3.16873 2.5
    endloop
  endfacet
  facet normal 0 0 1
    outer loop
      vertex -3.67052 0.983512 2.5
      vertex -3.51074 1.4542 2.5
      vertex -4.79364 0.247098 2.5
    endloop
  endfacet
  facet normal 0 0 1
    outer loop
      vertex 3.60543 3.16873 2.5
      vertex 2.68701 2.68701 2.5
      vertex 3.91214 2.78122 2.5
    endloop
  endfacet
  facet normal 0 0 1
    outer loop
      vertex 3.91214 2.78122 2.5
      vertex 3.01474 2.31329 2.5
      vertex 4.17737 2.36423 2.5
    endloop
  endfacet
  facet normal 0 0 1
    outer loop
      vertex 4.17737 2.36423 2.5
      vertex 3.2909 1.9 2.5
      vertex 4.39832 1.92218 2.5
    endloop
  endfacet
  facet normal 0 0 1
    outer loop
      vertex 1.4542 3.51074 2.5
      vertex 1.9 3.2909 2.5
      vertex 2.88103 3.83923 2.5
    endloop
  endfacet
  facet normal 0 0 1
    outer loop
      vertex 4.39832 1.92218 2.5
      vertex 3.51074 1.4542 2.5
      vertex 4.57265 1.45975 2.5
    endloop
  endfacet
  facet normal 0 0 1
    outer loop
      vertex 1.9 3.2909 2.5
      vertex 2.31329 3.01474 2.5
      vertex 3.26051 3.52265 2.5
    endloop
  endfacet
  facet normal 0 0 1
    outer loop
      vertex 4.57265 1.45975 2.5
      vertex 3.67052 0.983512 2.5
      vertex 4.69851 0.98185 2.5
    endloop
  endfacet
  facet normal 0 0 1
    outer loop
      vertex 2.31329 3.01474 2.5
      vertex 2.68701 2.68701 2.5
      vertex 3.60543 3.16873 2.5
    endloop
  endfacet
  facet normal 0 0 1
    outer loop
      vertex 4.69851 0.98185 2.5
      vertex 3.76749 0.496 2.5
      vertex 4.77456 0.493541 2.5
    endloop
  endfacet
  facet normal 0 0 1
    outer loop
      vertex 4.8 0 2.5
      vertex 3.8 0 2.5
      vertex 4.77456 -0.493541 2.5
    endloop
  endfacet
  facet normal 0 0 1
    outer loop
      vertex 3.01474 2.31329 2.5
      vertex 3.2909 1.9 2.5
      vertex 4.17737 2.36423 2.5
    endloop
  endfacet
  facet normal 0 0 1
    outer loop
      vertex 4.77456 -0.493541 2.5
      vertex 3.76749 -0.496 2.5
      vertex 4.69851 -0.98185 2.5
    endloop
  endfacet
  facet normal 0 0 1
    outer loop
      vertex 4.69851 -0.98185 2.5
      vertex 3.67052 -0.983512 2.5
      vertex 4.57265 -1.45975 2.5
    endloop
  endfacet
  facet normal 0 0 1
    outer loop
      vertex 4.57265 -1.45975 2.5
      vertex 3.51074 -1.4542 2.5
      vertex 4.39832 -1.92218 2.5
    endloop
  endfacet
  facet normal 0 0 1
    outer loop
      vertex 4.39832 -1.92218 2.5
      vertex 3.2909 -1.9 2.5
      vertex 4.17737 -2.36423 2.5
    endloop
  endfacet
  facet normal 0 0 1
    outer loop
      vertex 4.17737 -2.36423 2.5
      vertex 3.01474 -2.31329 2.5
      vertex 3.91214 -2.78122 2.5
    endloop
  endfacet
  facet normal 0 0 1
    outer loop
      vertex 3.51074 1.4542 2.5
      vertex 3.67052 0.983512 2.5
      vertex 4.57265 1.45975 2.5
    endloop
  endfacet
  facet normal 0 0 1
    outer loop
      vertex 3.91214 -2.78122 2.5
      vertex 2.68701 -2.68701 2.5
      vertex 3.60543 -3.16873 2.5
    endloop
  endfacet
  facet normal 0 0 1
    outer loop
      vertex 3.67052 0.983512 2.5
      vertex 3.76749 0.496 2.5
      vertex 4.69851 0.98185 2.5
    endloop
  endfacet
  facet normal 0 0 1
    outer loop
      vertex 3.60543 -3.16873 2.5
      vertex 2.31329 -3.01474 2.5
      vertex 3.26051 -3.52265 2.5
    endloop
  endfacet
  facet normal 0 0 1
    outer loop
      vertex 3.76749 0.496 2.5
      vertex 4.8 0 2.5
      vertex 4.77456 0.493541 2.5
    endloop
  endfacet
  facet normal 0 0 1
    outer loop
      vertex 3.26051 -3.52265 2.5
      vertex 1.9 -3.2909 2.5
      vertex 2.88103 -3.83923 2.5
    endloop
  endfacet
  facet normal 0 0 1
    outer loop
      vertex 3.51074 -1.4542 2.5
      vertex 3.2909 -1.9 2.5
      vertex 4.39832 -1.92218 2.5
    endloop
  endfacet
  facet normal 0 0 1
    outer loop
      vertex 2.471 -4.11511 2.5
      vertex 1.4542 -3.51074 2.5
      vertex 2.03479 -4.34737 2.5
    endloop
  endfacet
  facet normal 0 0 1
    outer loop
      vertex 3.76749 -0.496 2.5
      vertex 3.67052 -0.983512 2.5
      vertex 4.69851 -0.98185 2.5
    endloop
  endfacet
  facet normal 0 0 1
    outer loop
      vertex 2.03479 -4.34737 2.5
      vertex 0.983512 -3.67052 2.5
      vertex 1.577 -4.53355 2.5
    endloop
  endfacet
  facet normal 0 0 1
    outer loop
      vertex 1.577 -4.53355 2.5
      vertex 0.496 -3.76749 2.5
      vertex 1.1025 -4.67167 2.5
    endloop
  endfacet
  facet normal 0 0 1
    outer loop
      vertex 2.68701 -2.68701 2.5
      vertex 2.31329 -3.01474 2.5
      vertex 3.60543 -3.16873 2.5
    endloop
  endfacet
  facet normal 0 0 1
    outer loop
      vertex 1.1025 -4.67167 2.5
      vertex 0 -3.8 2.5
      vertex 0.616312 -4.76027 2.5
    endloop
  endfacet
  facet normal 0 0 1
    outer loop
      vertex 2.31329 -3.01474 2.5
      vertex 1.9 -3.2909 2.5
      vertex 3.26051 -3.52265 2.5
    endloop
  endfacet
  facet normal 0 0 1
    outer loop
      vertex 0.616312 -4.76027 2.5
      vertex -0.496 -3.76749 2.5
      vertex 0.12359 -4.79841 2.5
    endloop
  endfacet
  facet normal 0 0 1
    outer loop
      vertex 1.9 -3.2909 2.5
      vertex 1.4542 -3.51074 2.5
      vertex 2.471 -4.11511 2.5
    endloop
  endfacet
  facet normal 0 0 1
    outer loop
      vertex 0.12359 -4.79841 2.5
      vertex -0.983512 -3.67052 2.5
      vertex -0.370442 -4.78568 2.5
    endloop
  endfacet
  facet normal 0 0 1
    outer loop
      vertex 1.9 -3.2909 2.5
      vertex 2.471 -4.11511 2.5
      vertex 2.88103 -3.83923 2.5
    endloop
  endfacet
  facet normal 0 0 1
    outer loop
      vertex -0.983512 -3.67052 2.5
      vertex -1.4542 -3.51074 2.5
      vertex -0.370442 -4.78568 2.5
    endloop
  endfacet
  facet normal 0 0 1
    outer loop
      vertex -0.370442 -4.78568 2.5
      vertex -1.9 -3.2909 2.5
      vertex -0.860548 -4.72223 2.5
    endloop
  endfacet
  facet normal 0 0 1
    outer loop
      vertex -0.860548 -4.72223 2.5
      vertex -2.31329 -3.01474 2.5
      vertex -1.34153 -4.60872 2.5
    endloop
  endfacet
  facet normal 0 0 1
    outer loop
      vertex -2.31329 -3.01474 2.5
      vertex -2.68701 -2.68701 2.5
      vertex -1.34153 -4.60872 2.5
    endloop
  endfacet
  facet normal 0 0 1
    outer loop
      vertex -1.34153 -4.60872 2.5
      vertex -3.01474 -2.31329 2.5
      vertex -1.80829 -4.44635 2.5
    endloop
  endfacet
  facet normal 0 0 1
    outer loop
      vertex -3.2909 -1.9 2.5
      vertex -4.79364 0.247098 2.5
      vertex -3.01474 -2.31329 2.5
    endloop
  endfacet
  facet normal 0 0 1
    outer loop
      vertex -3.2909 -1.9 2.5
      vertex -3.51074 -1.4542 2.5
      vertex -4.79364 0.247098 2.5
    endloop
  endfacet
  facet normal 0 0 1
    outer loop
      vertex 0 -3.8 2.5
      vertex -0.496 -3.76749 2.5
      vertex 0.616312 -4.76027 2.5
    endloop
  endfacet
  facet normal 0 0 1
    outer loop
      vertex -0.496 -3.76749 2.5
      vertex -0.983512 -3.67052 2.5
      vertex 0.12359 -4.79841 2.5
    endloop
  endfacet
  facet normal 0 0 1
    outer loop
      vertex -1.4542 -3.51074 2.5
      vertex -1.9 -3.2909 2.5
      vertex -0.370442 -4.78568 2.5
    endloop
  endfacet
  facet normal 0 0 1
    outer loop
      vertex -3.67052 -0.983512 2.5
      vertex -3.76749 -0.496 2.5
      vertex -4.79364 0.247098 2.5
    endloop
  endfacet
  facet normal 0 0 1
    outer loop
      vertex -2.68701 -2.68701 2.5
      vertex -3.01474 -2.31329 2.5
      vertex -1.34153 -4.60872 2.5
    endloop
  endfacet
  facet normal 0 0 1
    outer loop
      vertex 0.983512 -3.67052 2.5
      vertex 0.496 -3.76749 2.5
      vertex 1.577 -4.53355 2.5
    endloop
  endfacet
  facet normal 0 0 1
    outer loop
      vertex -3.76749 -0.496 2.5
      vertex -3.8 0 2.5
      vertex -4.79364 0.247098 2.5
    endloop
  endfacet
  facet normal 0 0 1
    outer loop
      vertex 1.4542 -3.51074 2.5
      vertex 0.983512 -3.67052 2.5
      vertex 2.03479 -4.34737 2.5
    endloop
  endfacet
  facet normal 0 0 1
    outer loop
      vertex 3.2909 -1.9 2.5
      vertex 3.01474 -2.31329 2.5
      vertex 4.17737 -2.36423 2.5
    endloop
  endfacet
  facet normal 0 0 1
    outer loop
      vertex -3.8 0 2.5
      vertex -3.76749 0.496 2.5
      vertex -4.79364 0.247098 2.5
    endloop
  endfacet
  facet normal 0 0 1
    outer loop
      vertex -3.76749 0.496 5.9
      vertex -3.8 0 5.9
      vertex -3.76749 -0.496 5.9
    endloop
  endfacet
  facet normal 0 0 1
    outer loop
      vertex -3.51074 -1.4542 5.9
      vertex -3.76749 0.496 5.9
      vertex -3.67052 -0.983512 5.9
    endloop
  endfacet
  facet normal 0 0 1
    outer loop
      vertex -3.67052 -0.983512 5.9
      vertex -3.76749 0.496 5.9
      vertex -3.76749 -0.496 5.9
    endloop
  endfacet
  facet normal 0 0 1
    outer loop
      vertex -3.2909 -1.9 5.9
      vertex -3.76749 0.496 5.9
      vertex -3.51074 -1.4542 5.9
    endloop
  endfacet
  facet normal 0 0 1
    outer loop
      vertex -3.01474 -2.31329 5.9
      vertex -3.76749 0.496 5.9
      vertex -3.2909 -1.9 5.9
    endloop
  endfacet
  facet normal 0 0 1
    outer loop
      vertex -2.68701 -2.68701 5.9
      vertex -3.76749 0.496 5.9
      vertex -3.01474 -2.31329 5.9
    endloop
  endfacet
  facet normal 0 0 1
    outer loop
      vertex -2.31329 -3.01474 5.9
      vertex -3.76749 0.496 5.9
      vertex -2.68701 -2.68701 5.9
    endloop
  endfacet
  facet normal 0 0 1
    outer loop
      vertex -1.9 -3.2909 5.9
      vertex -3.76749 0.496 5.9
      vertex -2.31329 -3.01474 5.9
    endloop
  endfacet
  facet normal 0 0 1
    outer loop
      vertex -1.4542 -3.51074 5.9
      vertex -3.76749 0.496 5.9
      vertex -1.9 -3.2909 5.9
    endloop
  endfacet
  facet normal 0 0 1
    outer loop
      vertex -0.983512 -3.67052 5.9
      vertex -3.76749 0.496 5.9
      vertex -1.4542 -3.51074 5.9
    endloop
  endfacet
  facet normal 0 0 1
    outer loop
      vertex -0.496 -3.76749 5.9
      vertex -3.76749 0.496 5.9
      vertex -0.983512 -3.67052 5.9
    endloop
  endfacet
  facet normal 0 0 1
    outer loop
      vertex 0 -3.8 5.9
      vertex -3.76749 0.496 5.9
      vertex -0.496 -3.76749 5.9
    endloop
  endfacet
  facet normal 0 0 1
    outer loop
      vertex 0.496 -3.76749 5.9
      vertex -3.76749 0.496 5.9
      vertex 0 -3.8 5.9
    endloop
  endfacet
  facet normal 0 0 1
    outer loop
      vertex -1.37168 -1.72003 5.9
      vertex -3.76749 0.496 5.9
      vertex 0.496 -3.76749 5.9
    endloop
  endfacet
  facet normal 0 0 1
    outer loop
      vertex -1.72003 -1.37168 5.9
      vertex -1.98213 -0.954544 5.9
      vertex -3.76749 0.496 5.9
    endloop
  endfacet
  facet normal 0 0 1
    outer loop
      vertex -2.14484 0.489546 5.9
      vertex -1.98213 0.954544 5.9
      vertex -3.76749 0.496 5.9
    endloop
  endfacet
  facet normal 0 0 1
    outer loop
      vertex 1.98213 -0.954544 5.9
      vertex 1.72003 -1.37168 5.9
      vertex 3.2909 -1.9 5.9
    endloop
  endfacet
  facet normal 0 0 1
    outer loop
      vertex -1.98213 0.954544 5.9
      vertex -1.72003 1.37168 5.9
      vertex -3.76749 0.496 5.9
    endloop
  endfacet
  facet normal 0 0 1
    outer loop
      vertex 1.37168 1.72003 5.9
      vertex 1.72003 1.37168 5.9
      vertex 3.2909 1.9 5.9
    endloop
  endfacet
  facet normal 0 0 1
    outer loop
      vertex -0.489546 2.14484 5.9
      vertex 0 2.2 5.9
      vertex 1.9 3.2909 5.9
    endloop
  endfacet
  facet normal 0 0 1
    outer loop
      vertex 0 2.2 5.9
      vertex 0.489546 2.14484 5.9
      vertex 2.31329 3.01474 5.9
    endloop
  endfacet
  facet normal 0 0 1
    outer loop
      vertex 0.983512 3.67052 5.9
      vertex -3.76749 0.496 5.9
      vertex 1.4542 3.51074 5.9
    endloop
  endfacet
  facet normal 0 0 1
    outer loop
      vertex 0.496 3.76749 5.9
      vertex -3.76749 0.496 5.9
      vertex 0.983512 3.67052 5.9
    endloop
  endfacet
  facet normal 0 0 1
    outer loop
      vertex 0 3.8 5.9
      vertex -3.76749 0.496 5.9
      vertex 0.496 3.76749 5.9
    endloop
  endfacet
  facet normal 0 0 1
    outer loop
      vertex -0.496 3.76749 5.9
      vertex -3.76749 0.496 5.9
      vertex 0 3.8 5.9
    endloop
  endfacet
  facet normal 0 0 1
    outer loop
      vertex -0.983512 3.67052 5.9
      vertex -3.76749 0.496 5.9
      vertex -0.496 3.76749 5.9
    endloop
  endfacet
  facet normal 0 0 1
    outer loop
      vertex -1.4542 3.51074 5.9
      vertex -3.76749 0.496 5.9
      vertex -0.983512 3.67052 5.9
    endloop
  endfacet
  facet normal 0 0 1
    outer loop
      vertex -1.9 3.2909 5.9
      vertex -3.76749 0.496 5.9
      vertex -1.4542 3.51074 5.9
    endloop
  endfacet
  facet normal 0 0 1
    outer loop
      vertex -2.31329 3.01474 5.9
      vertex -3.76749 0.496 5.9
      vertex -1.9 3.2909 5.9
    endloop
  endfacet
  facet normal 0 0 1
    outer loop
      vertex -2.68701 2.68701 5.9
      vertex -3.76749 0.496 5.9
      vertex -2.31329 3.01474 5.9
    endloop
  endfacet
  facet normal 0 0 1
    outer loop
      vertex -3.01474 2.31329 5.9
      vertex -3.76749 0.496 5.9
      vertex -2.68701 2.68701 5.9
    endloop
  endfacet
  facet normal 0 0 1
    outer loop
      vertex -3.2909 1.9 5.9
      vertex -3.76749 0.496 5.9
      vertex -3.01474 2.31329 5.9
    endloop
  endfacet
  facet normal 0 0 1
    outer loop
      vertex -3.51074 1.4542 5.9
      vertex -3.76749 0.496 5.9
      vertex -3.2909 1.9 5.9
    endloop
  endfacet
  facet normal 0 0 1
    outer loop
      vertex -3.67052 0.983512 5.9
      vertex -3.76749 0.496 5.9
      vertex -3.51074 1.4542 5.9
    endloop
  endfacet
  facet normal 0 0 1
    outer loop
      vertex 0 -2.2 5.9
      vertex -0.489546 -2.14484 5.9
      vertex 1.4542 -3.51074 5.9
    endloop
  endfacet
  facet normal 0 0 1
    outer loop
      vertex -2.2 0 5.9
      vertex -2.14484 0.489546 5.9
      vertex -3.76749 0.496 5.9
    endloop
  endfacet
  facet normal 0 0 1
    outer loop
      vertex 1.72003 -1.37168 5.9
      vertex 1.37168 -1.72003 5.9
      vertex 3.01474 -2.31329 5.9
    endloop
  endfacet
  facet normal 0 0 1
    outer loop
      vertex 2.2 0 5.9
      vertex 2.14484 -0.489546 5.9
      vertex 3.76749 -0.496 5.9
    endloop
  endfacet
  facet normal 0 0 1
    outer loop
      vertex 1.72003 1.37168 5.9
      vertex 1.98213 0.954544 5.9
      vertex 3.51074 1.4542 5.9
    endloop
  endfacet
  facet normal 0 0 1
    outer loop
      vertex 0.489546 2.14484 5.9
      vertex 0.954544 1.98213 5.9
      vertex 2.68701 2.68701 5.9
    endloop
  endfacet
  facet normal 0 0 1
    outer loop
      vertex 0.954544 1.98213 5.9
      vertex 1.37168 1.72003 5.9
      vertex 3.01474 2.31329 5.9
    endloop
  endfacet
  facet normal 0 0 1
    outer loop
      vertex 1.4542 3.51074 5.9
      vertex -3.76749 0.496 5.9
      vertex -1.37168 1.72003 5.9
    endloop
  endfacet
  facet normal 0 0 1
    outer loop
      vertex 1.4542 3.51074 5.9
      vertex -0.954544 1.98213 5.9
      vertex 1.9 3.2909 5.9
    endloop
  endfacet
  facet normal 0 0 1
    outer loop
      vertex 1.4542 3.51074 5.9
      vertex -1.37168 1.72003 5.9
      vertex -0.954544 1.98213 5.9
    endloop
  endfacet
  facet normal 0 0 1
    outer loop
      vertex -0.954544 1.98213 5.9
      vertex -0.489546 2.14484 5.9
      vertex 1.9 3.2909 5.9
    endloop
  endfacet
  facet normal 0 0 1
    outer loop
      vertex 1.9 3.2909 5.9
      vertex 0 2.2 5.9
      vertex 2.31329 3.01474 5.9
    endloop
  endfacet
  facet normal 0 0 1
    outer loop
      vertex 2.31329 3.01474 5.9
      vertex 0.489546 2.14484 5.9
      vertex 2.68701 2.68701 5.9
    endloop
  endfacet
  facet normal 0 0 1
    outer loop
      vertex -1.72003 1.37168 5.9
      vertex -1.37168 1.72003 5.9
      vertex -3.76749 0.496 5.9
    endloop
  endfacet
  facet normal 0 0 1
    outer loop
      vertex 2.68701 2.68701 5.9
      vertex 0.954544 1.98213 5.9
      vertex 3.01474 2.31329 5.9
    endloop
  endfacet
  facet normal 0 0 1
    outer loop
      vertex 3.01474 2.31329 5.9
      vertex 1.37168 1.72003 5.9
      vertex 3.2909 1.9 5.9
    endloop
  endfacet
  facet normal 0 0 1
    outer loop
      vertex 3.2909 1.9 5.9
      vertex 1.72003 1.37168 5.9
      vertex 3.51074 1.4542 5.9
    endloop
  endfacet
  facet normal 0 0 1
    outer loop
      vertex 3.51074 1.4542 5.9
      vertex 1.98213 0.954544 5.9
      vertex 3.67052 0.983512 5.9
    endloop
  endfacet
  facet normal 0 0 1
    outer loop
      vertex 1.98213 0.954544 5.9
      vertex 2.14484 0.489546 5.9
      vertex 3.76749 0.496 5.9
    endloop
  endfacet
  facet normal 0 0 1
    outer loop
      vertex 3.76749 0.496 5.9
      vertex 2.14484 0.489546 5.9
      vertex 3.8 0 5.9
    endloop
  endfacet
  facet normal 0 0 1
    outer loop
      vertex 3.8 0 5.9
      vertex 2.2 0 5.9
      vertex 3.76749 -0.496 5.9
    endloop
  endfacet
  facet normal 0 0 1
    outer loop
      vertex 3.76749 -0.496 5.9
      vertex 2.14484 -0.489546 5.9
      vertex 3.67052 -0.983512 5.9
    endloop
  endfacet
  facet normal 0 0 1
    outer loop
      vertex 1.98213 0.954544 5.9
      vertex 3.76749 0.496 5.9
      vertex 3.67052 0.983512 5.9
    endloop
  endfacet
  facet normal 0 0 1
    outer loop
      vertex 3.67052 -0.983512 5.9
      vertex 1.98213 -0.954544 5.9
      vertex 3.51074 -1.4542 5.9
    endloop
  endfacet
  facet normal 0 0 1
    outer loop
      vertex 2.14484 0.489546 5.9
      vertex 2.2 0 5.9
      vertex 3.8 0 5.9
    endloop
  endfacet
  facet normal 0 0 1
    outer loop
      vertex 3.2909 -1.9 5.9
      vertex 1.72003 -1.37168 5.9
      vertex 3.01474 -2.31329 5.9
    endloop
  endfacet
  facet normal 0 0 1
    outer loop
      vertex 2.14484 -0.489546 5.9
      vertex 1.98213 -0.954544 5.9
      vertex 3.67052 -0.983512 5.9
    endloop
  endfacet
  facet normal 0 0 1
    outer loop
      vertex 3.01474 -2.31329 5.9
      vertex 1.37168 -1.72003 5.9
      vertex 2.68701 -2.68701 5.9
    endloop
  endfacet
  facet normal 0 0 1
    outer loop
      vertex 1.98213 -0.954544 5.9
      vertex 3.2909 -1.9 5.9
      vertex 3.51074 -1.4542 5.9
    endloop
  endfacet
  facet normal 0 0 1
    outer loop
      vertex 2.68701 -2.68701 5.9
      vertex 0.954544 -1.98213 5.9
      vertex 2.31329 -3.01474 5.9
    endloop
  endfacet
  facet normal 0 0 1
    outer loop
      vertex 0.954544 -1.98213 5.9
      vertex 0.489546 -2.14484 5.9
      vertex 2.31329 -3.01474 5.9
    endloop
  endfacet
  facet normal 0 0 1
    outer loop
      vertex 2.31329 -3.01474 5.9
      vertex 0.489546 -2.14484 5.9
      vertex 1.9 -3.2909 5.9
    endloop
  endfacet
  facet normal 0 0 1
    outer loop
      vertex 1.9 -3.2909 5.9
      vertex 0 -2.2 5.9
      vertex 1.4542 -3.51074 5.9
    endloop
  endfacet
  facet normal 0 0 1
    outer loop
      vertex 1.37168 -1.72003 5.9
      vertex 0.954544 -1.98213 5.9
      vertex 2.68701 -2.68701 5.9
    endloop
  endfacet
  facet normal 0 0 1
    outer loop
      vertex 1.4542 -3.51074 5.9
      vertex -0.489546 -2.14484 5.9
      vertex 0.983512 -3.67052 5.9
    endloop
  endfacet
  facet normal 0 0 1
    outer loop
      vertex 0.983512 -3.67052 5.9
      vertex -0.954544 -1.98213 5.9
      vertex 0.496 -3.76749 5.9
    endloop
  endfacet
  facet normal 0 0 1
    outer loop
      vertex -0.954544 -1.98213 5.9
      vertex -1.37168 -1.72003 5.9
      vertex 0.496 -3.76749 5.9
    endloop
  endfacet
  facet normal 0 0 1
    outer loop
      vertex -1.72003 -1.37168 5.9
      vertex -3.76749 0.496 5.9
      vertex -1.37168 -1.72003 5.9
    endloop
  endfacet
  facet normal 0 0 1
    outer loop
      vertex -1.98213 -0.954544 5.9
      vertex -2.14484 -0.489546 5.9
      vertex -3.76749 0.496 5.9
    endloop
  endfacet
  facet normal 0 0 1
    outer loop
      vertex -0.489546 -2.14484 5.9
      vertex -0.954544 -1.98213 5.9
      vertex 0.983512 -3.67052 5.9
    endloop
  endfacet
  facet normal 0 0 1
    outer loop
      vertex 0.489546 -2.14484 5.9
      vertex 0 -2.2 5.9
      vertex 1.9 -3.2909 5.9
    endloop
  endfacet
  facet normal 0 0 1
    outer loop
      vertex -2.14484 -0.489546 5.9
      vertex -2.2 0 5.9
      vertex -3.76749 0.496 5.9
    endloop
  endfacet
  facet normal -0.997859 -0.065404 0
    outer loop
      vertex -3.8 0 2.5
      vertex -3.76749 -0.496 2.5
      vertex -3.8 0 5.9
    endloop
  endfacet
  facet normal -0.997859 -0.065404 0
    outer loop
      vertex -3.8 0 5.9
      vertex -3.76749 -0.496 2.5
      vertex -3.76749 -0.496 5.9
    endloop
  endfacet
  facet normal -0.980785 -0.19509 0
    outer loop
      vertex -3.76749 -0.496 2.5
      vertex -3.67052 -0.983512 2.5
      vertex -3.76749 -0.496 5.9
    endloop
  endfacet
  facet normal -0.980785 -0.19509 0
    outer loop
      vertex -3.76749 -0.496 5.9
      vertex -3.67052 -0.983512 2.5
      vertex -3.67052 -0.983512 5.9
    endloop
  endfacet
  facet normal -0.94693 -0.321439 0
    outer loop
      vertex -3.67052 -0.983512 2.5
      vertex -3.51074 -1.4542 2.5
      vertex -3.67052 -0.983512 5.9
    endloop
  endfacet
  facet normal -0.94693 -0.321439 0
    outer loop
      vertex -3.67052 -0.983512 5.9
      vertex -3.51074 -1.4542 2.5
      vertex -3.51074 -1.4542 5.9
    endloop
  endfacet
  facet normal -0.896873 -0.442288 0
    outer loop
      vertex -3.51074 -1.4542 2.5
      vertex -3.2909 -1.9 2.5
      vertex -3.51074 -1.4542 5.9
    endloop
  endfacet
  facet normal -0.896873 -0.442288 0
    outer loop
      vertex -3.51074 -1.4542 5.9
      vertex -3.2909 -1.9 2.5
      vertex -3.2909 -1.9 5.9
    endloop
  endfacet
  facet normal -0.831469 -0.555571 0
    outer loop
      vertex -3.2909 -1.9 2.5
      vertex -3.01474 -2.31329 2.5
      vertex -3.2909 -1.9 5.9
    endloop
  endfacet
  facet normal -0.831469 -0.555571 0
    outer loop
      vertex -3.2909 -1.9 5.9
      vertex -3.01474 -2.31329 2.5
      vertex -3.01474 -2.31329 5.9
    endloop
  endfacet
  facet normal -0.75184 -0.659345 0
    outer loop
      vertex -3.01474 -2.31329 2.5
      vertex -2.68701 -2.68701 2.5
      vertex -3.01474 -2.31329 5.9
    endloop
  endfacet
  facet normal -0.75184 -0.659345 0
    outer loop
      vertex -3.01474 -2.31329 5.9
      vertex -2.68701 -2.68701 2.5
      vertex -2.68701 -2.68701 5.9
    endloop
  endfacet
  facet normal -0.659345 -0.75184 0
    outer loop
      vertex -2.68701 -2.68701 5.9
      vertex -2.68701 -2.68701 2.5
      vertex -2.31329 -3.01474 2.5
    endloop
  endfacet
  facet normal -0.659345 -0.75184 0
    outer loop
      vertex -2.31329 -3.01474 5.9
      vertex -2.68701 -2.68701 5.9
      vertex -2.31329 -3.01474 2.5
    endloop
  endfacet
  facet normal -0.555571 -0.831469 0
    outer loop
      vertex -2.31329 -3.01474 5.9
      vertex -2.31329 -3.01474 2.5
      vertex -1.9 -3.2909 2.5
    endloop
  endfacet
  facet normal -0.555571 -0.831469 0
    outer loop
      vertex -1.9 -3.2909 5.9
      vertex -2.31329 -3.01474 5.9
      vertex -1.9 -3.2909 2.5
    endloop
  endfacet
  facet normal -0.442288 -0.896873 0
    outer loop
      vertex -1.9 -3.2909 5.9
      vertex -1.9 -3.2909 2.5
      vertex -1.4542 -3.51074 2.5
    endloop
  endfacet
  facet normal -0.442288 -0.896873 0
    outer loop
      vertex -1.4542 -3.51074 5.9
      vertex -1.9 -3.2909 5.9
      vertex -1.4542 -3.51074 2.5
    endloop
  endfacet
  facet normal -0.321439 -0.94693 0
    outer loop
      vertex -1.4542 -3.51074 5.9
      vertex -1.4542 -3.51074 2.5
      vertex -0.983512 -3.67052 2.5
    endloop
  endfacet
  facet normal -0.321439 -0.94693 0
    outer loop
      vertex -0.983512 -3.67052 5.9
      vertex -1.4542 -3.51074 5.9
      vertex -0.983512 -3.67052 2.5
    endloop
  endfacet
  facet normal -0.19509 -0.980785 0
    outer loop
      vertex -0.983512 -3.67052 5.9
      vertex -0.983512 -3.67052 2.5
      vertex -0.496 -3.76749 2.5
    endloop
  endfacet
  facet normal -0.19509 -0.980785 0
    outer loop
      vertex -0.496 -3.76749 5.9
      vertex -0.983512 -3.67052 5.9
      vertex -0.496 -3.76749 2.5
    endloop
  endfacet
  facet normal -0.065404 -0.997859 0
    outer loop
      vertex -0.496 -3.76749 5.9
      vertex -0.496 -3.76749 2.5
      vertex 0 -3.8 2.5
    endloop
  endfacet
  facet normal -0.065404 -0.997859 0
    outer loop
      vertex 0 -3.8 5.9
      vertex -0.496 -3.76749 5.9
      vertex 0 -3.8 2.5
    endloop
  endfacet
  facet normal 0.065404 -0.997859 0
    outer loop
      vertex 0 -3.8 5.9
      vertex 0 -3.8 2.5
      vertex 0.496 -3.76749 2.5
    endloop
  endfacet
  facet normal 0.065404 -0.997859 0
    outer loop
      vertex 0.496 -3.76749 5.9
      vertex 0 -3.8 5.9
      vertex 0.496 -3.76749 2.5
    endloop
  endfacet
  facet normal 0.19509 -0.980785 0
    outer loop
      vertex 0.496 -3.76749 5.9
      vertex 0.496 -3.76749 2.5
      vertex 0.983512 -3.67052 2.5
    endloop
  endfacet
  facet normal 0.19509 -0.980785 0
    outer loop
      vertex 0.983512 -3.67052 5.9
      vertex 0.496 -3.76749 5.9
      vertex 0.983512 -3.67052 2.5
    endloop
  endfacet
  facet normal 0.321439 -0.94693 0
    outer loop
      vertex 0.983512 -3.67052 5.9
      vertex 0.983512 -3.67052 2.5
      vertex 1.4542 -3.51074 2.5
    endloop
  endfacet
  facet normal 0.321439 -0.94693 0
    outer loop
      vertex 1.4542 -3.51074 5.9
      vertex 0.983512 -3.67052 5.9
      vertex 1.4542 -3.51074 2.5
    endloop
  endfacet
  facet normal 0.442288 -0.896873 0
    outer loop
      vertex 1.4542 -3.51074 5.9
      vertex 1.4542 -3.51074 2.5
      vertex 1.9 -3.2909 2.5
    endloop
  endfacet
  facet normal 0.442288 -0.896873 0
    outer loop
      vertex 1.9 -3.2909 5.9
      vertex 1.4542 -3.51074 5.9
      vertex 1.9 -3.2909 2.5
    endloop
  endfacet
  facet normal 0.555571 -0.831469 0
    outer loop
      vertex 1.9 -3.2909 5.9
      vertex 1.9 -3.2909 2.5
      vertex 2.31329 -3.01474 2.5
    endloop
  endfacet
  facet normal 0.555571 -0.831469 0
    outer loop
      vertex 2.31329 -3.01474 5.9
      vertex 1.9 -3.2909 5.9
      vertex 2.31329 -3.01474 2.5
    endloop
  endfacet
  facet normal 0.659345 -0.75184 0
    outer loop
      vertex 2.31329 -3.01474 5.9
      vertex 2.31329 -3.01474 2.5
      vertex 2.68701 -2.68701 2.5
    endloop
  endfacet
  facet normal 0.659345 -0.75184 0
    outer loop
      vertex 2.68701 -2.68701 5.9
      vertex 2.31329 -3.01474 5.9
      vertex 2.68701 -2.68701 2.5
    endloop
  endfacet
  facet normal 0.75184 -0.659345 0
    outer loop
      vertex 2.68701 -2.68701 5.9
      vertex 2.68701 -2.68701 2.5
      vertex 3.01474 -2.31329 2.5
    endloop
  endfacet
  facet normal 0.75184 -0.659345 0
    outer loop
      vertex 3.01474 -2.31329 5.9
      vertex 2.68701 -2.68701 5.9
      vertex 3.01474 -2.31329 2.5
    endloop
  endfacet
  facet normal 0.831469 -0.555571 0
    outer loop
      vertex 3.01474 -2.31329 5.9
      vertex 3.01474 -2.31329 2.5
      vertex 3.2909 -1.9 2.5
    endloop
  endfacet
  facet normal 0.831469 -0.555571 0
    outer loop
      vertex 3.2909 -1.9 5.9
      vertex 3.01474 -2.31329 5.9
      vertex 3.2909 -1.9 2.5
    endloop
  endfacet
  facet normal 0.896873 -0.442288 0
    outer loop
      vertex 3.2909 -1.9 5.9
      vertex 3.2909 -1.9 2.5
      vertex 3.51074 -1.4542 2.5
    endloop
  endfacet
  facet normal 0.896873 -0.442288 0
    outer loop
      vertex 3.51074 -1.4542 5.9
      vertex 3.2909 -1.9 5.9
      vertex 3.51074 -1.4542 2.5
    endloop
  endfacet
  facet normal 0.94693 -0.321439 0
    outer loop
      vertex 3.51074 -1.4542 5.9
      vertex 3.51074 -1.4542 2.5
      vertex 3.67052 -0.983512 2.5
    endloop
  endfacet
  facet normal 0.94693 -0.321439 0
    outer loop
      vertex 3.67052 -0.983512 5.9
      vertex 3.51074 -1.4542 5.9
      vertex 3.67052 -0.983512 2.5
    endloop
  endfacet
  facet normal 0.980785 -0.19509 0
    outer loop
      vertex 3.67052 -0.983512 5.9
      vertex 3.67052 -0.983512 2.5
      vertex 3.76749 -0.496 2.5
    endloop
  endfacet
  facet normal 0.980785 -0.19509 0
    outer loop
      vertex 3.76749 -0.496 5.9
      vertex 3.67052 -0.983512 5.9
      vertex 3.76749 -0.496 2.5
    endloop
  endfacet
  facet normal 0.997859 -0.065404 0
    outer loop
      vertex 3.76749 -0.496 5.9
      vertex 3.76749 -0.496 2.5
      vertex 3.8 0 2.5
    endloop
  endfacet
  facet normal 0.997859 -0.065404 0
    outer loop
      vertex 3.8 0 5.9
      vertex 3.76749 -0.496 5.9
      vertex 3.8 0 2.5
    endloop
  endfacet
  facet normal 0.997859 0.065404 0
    outer loop
      vertex 3.8 0 2.5
      vertex 3.76749 0.496 2.5
      vertex 3.76749 0.496 5.9
    endloop
  endfacet
  facet normal 0.997859 0.065404 0
    outer loop
      vertex 3.8 0 5.9
      vertex 3.8 0 2.5
      vertex 3.76749 0.496 5.9
    endloop
  endfacet
  facet normal 0.980785 0.19509 0
    outer loop
      vertex 3.76749 0.496 2.5
      vertex 3.67052 0.983512 2.5
      vertex 3.67052 0.983512 5.9
    endloop
  endfacet
  facet normal 0.980785 0.19509 0
    outer loop
      vertex 3.76749 0.496 5.9
      vertex 3.76749 0.496 2.5
      vertex 3.67052 0.983512 5.9
    endloop
  endfacet
  facet normal 0.94693 0.321439 0
    outer loop
      vertex 3.67052 0.983512 2.5
      vertex 3.51074 1.4542 2.5
      vertex 3.51074 1.4542 5.9
    endloop
  endfacet
  facet normal 0.94693 0.321439 0
    outer loop
      vertex 3.67052 0.983512 5.9
      vertex 3.67052 0.983512 2.5
      vertex 3.51074 1.4542 5.9
    endloop
  endfacet
  facet normal 0.896873 0.442288 0
    outer loop
      vertex 3.51074 1.4542 2.5
      vertex 3.2909 1.9 2.5
      vertex 3.2909 1.9 5.9
    endloop
  endfacet
  facet normal 0.896873 0.442288 0
    outer loop
      vertex 3.51074 1.4542 5.9
      vertex 3.51074 1.4542 2.5
      vertex 3.2909 1.9 5.9
    endloop
  endfacet
  facet normal 0.831469 0.555571 0
    outer loop
      vertex 3.2909 1.9 2.5
      vertex 3.01474 2.31329 2.5
      vertex 3.01474 2.31329 5.9
    endloop
  endfacet
  facet normal 0.831469 0.555571 0
    outer loop
      vertex 3.2909 1.9 5.9
      vertex 3.2909 1.9 2.5
      vertex 3.01474 2.31329 5.9
    endloop
  endfacet
  facet normal 0.75184 0.659345 0
    outer loop
      vertex 3.01474 2.31329 2.5
      vertex 2.68701 2.68701 2.5
      vertex 2.68701 2.68701 5.9
    endloop
  endfacet
  facet normal 0.75184 0.659345 0
    outer loop
      vertex 3.01474 2.31329 5.9
      vertex 3.01474 2.31329 2.5
      vertex 2.68701 2.68701 5.9
    endloop
  endfacet
  facet normal 0.659345 0.75184 0
    outer loop
      vertex 2.31329 3.01474 2.5
      vertex 2.31329 3.01474 5.9
      vertex 2.68701 2.68701 2.5
    endloop
  endfacet
  facet normal 0.659345 0.75184 0
    outer loop
      vertex 2.68701 2.68701 2.5
      vertex 2.31329 3.01474 5.9
      vertex 2.68701 2.68701 5.9
    endloop
  endfacet
  facet normal 0.555571 0.831469 0
    outer loop
      vertex 1.9 3.2909 2.5
      vertex 1.9 3.2909 5.9
      vertex 2.31329 3.01474 2.5
    endloop
  endfacet
  facet normal 0.555571 0.831469 0
    outer loop
      vertex 2.31329 3.01474 2.5
      vertex 1.9 3.2909 5.9
      vertex 2.31329 3.01474 5.9
    endloop
  endfacet
  facet normal 0.442288 0.896873 0
    outer loop
      vertex 1.4542 3.51074 2.5
      vertex 1.4542 3.51074 5.9
      vertex 1.9 3.2909 2.5
    endloop
  endfacet
  facet normal 0.442288 0.896873 0
    outer loop
      vertex 1.9 3.2909 2.5
      vertex 1.4542 3.51074 5.9
      vertex 1.9 3.2909 5.9
    endloop
  endfacet
  facet normal 0.321439 0.94693 0
    outer loop
      vertex 0.983512 3.67052 2.5
      vertex 0.983512 3.67052 5.9
      vertex 1.4542 3.51074 2.5
    endloop
  endfacet
  facet normal 0.321439 0.94693 0
    outer loop
      vertex 1.4542 3.51074 2.5
      vertex 0.983512 3.67052 5.9
      vertex 1.4542 3.51074 5.9
    endloop
  endfacet
  facet normal 0.19509 0.980785 0
    outer loop
      vertex 0.496 3.76749 2.5
      vertex 0.496 3.76749 5.9
      vertex 0.983512 3.67052 2.5
    endloop
  endfacet
  facet normal 0.19509 0.980785 0
    outer loop
      vertex 0.983512 3.67052 2.5
      vertex 0.496 3.76749 5.9
      vertex 0.983512 3.67052 5.9
    endloop
  endfacet
  facet normal 0.065404 0.997859 0
    outer loop
      vertex 0 3.8 2.5
      vertex 0 3.8 5.9
      vertex 0.496 3.76749 2.5
    endloop
  endfacet
  facet normal 0.065404 0.997859 0
    outer loop
      vertex 0.496 3.76749 2.5
      vertex 0 3.8 5.9
      vertex 0.496 3.76749 5.9
    endloop
  endfacet
  facet normal -0.065404 0.997859 0
    outer loop
      vertex -0.496 3.76749 2.5
      vertex -0.496 3.76749 5.9
      vertex 0 3.8 2.5
    endloop
  endfacet
  facet normal -0.065404 0.997859 0
    outer loop
      vertex 0 3.8 2.5
      vertex -0.496 3.76749 5.9
      vertex 0 3.8 5.9
    endloop
  endfacet
  facet normal -0.19509 0.980785 0
    outer loop
      vertex -0.983512 3.67052 2.5
      vertex -0.983512 3.67052 5.9
      vertex -0.496 3.76749 2.5
    endloop
  endfacet
  facet normal -0.19509 0.980785 0
    outer loop
      vertex -0.496 3.76749 2.5
      vertex -0.983512 3.67052 5.9
      vertex -0.496 3.76749 5.9
    endloop
  endfacet
  facet normal -0.321439 0.94693 0
    outer loop
      vertex -1.4542 3.51074 2.5
      vertex -1.4542 3.51074 5.9
      vertex -0.983512 3.67052 2.5
    endloop
  endfacet
  facet normal -0.321439 0.94693 0
    outer loop
      vertex -0.983512 3.67052 2.5
      vertex -1.4542 3.51074 5.9
      vertex -0.983512 3.67052 5.9
    endloop
  endfacet
  facet normal -0.442288 0.896873 0
    outer loop
      vertex -1.9 3.2909 2.5
      vertex -1.9 3.2909 5.9
      vertex -1.4542 3.51074 2.5
    endloop
  endfacet
  facet normal -0.442288 0.896873 0
    outer loop
      vertex -1.4542 3.51074 2.5
      vertex -1.9 3.2909 5.9
      vertex -1.4542 3.51074 5.9
    endloop
  endfacet
  facet normal -0.555571 0.831469 0
    outer loop
      vertex -2.31329 3.01474 2.5
      vertex -2.31329 3.01474 5.9
      vertex -1.9 3.2909 2.5
    endloop
  endfacet
  facet normal -0.555571 0.831469 0
    outer loop
      vertex -1.9 3.2909 2.5
      vertex -2.31329 3.01474 5.9
      vertex -1.9 3.2909 5.9
    endloop
  endfacet
  facet normal -0.659345 0.75184 0
    outer loop
      vertex -2.68701 2.68701 2.5
      vertex -2.68701 2.68701 5.9
      vertex -2.31329 3.01474 2.5
    endloop
  endfacet
  facet normal -0.659345 0.75184 0
    outer loop
      vertex -2.31329 3.01474 2.5
      vertex -2.68701 2.68701 5.9
      vertex -2.31329 3.01474 5.9
    endloop
  endfacet
  facet normal -0.75184 0.659345 0
    outer loop
      vertex -3.01474 2.31329 2.5
      vertex -3.01474 2.31329 5.9
      vertex -2.68701 2.68701 2.5
    endloop
  endfacet
  facet normal -0.75184 0.659345 0
    outer loop
      vertex -2.68701 2.68701 2.5
      vertex -3.01474 2.31329 5.9
      vertex -2.68701 2.68701 5.9
    endloop
  endfacet
  facet normal -0.831469 0.555571 0
    outer loop
      vertex -3.2909 1.9 2.5
      vertex -3.2909 1.9 5.9
      vertex -3.01474 2.31329 2.5
    endloop
  endfacet
  facet normal -0.831469 0.555571 0
    outer loop
      vertex -3.01474 2.31329 2.5
      vertex -3.2909 1.9 5.9
      vertex -3.01474 2.31329 5.9
    endloop
  endfacet
  facet normal -0.896873 0.442288 0
    outer loop
      vertex -3.51074 1.4542 2.5
      vertex -3.51074 1.4542 5.9
      vertex -3.2909 1.9 2.5
    endloop
  endfacet
  facet normal -0.896873 0.442288 0
    outer loop
      vertex -3.2909 1.9 2.5
      vertex -3.51074 1.4542 5.9
      vertex -3.2909 1.9 5.9
    endloop
  endfacet
  facet normal -0.94693 0.321439 0
    outer loop
      vertex -3.67052 0.983512 2.5
      vertex -3.67052 0.983512 5.9
      vertex -3.51074 1.4542 2.5
    endloop
  endfacet
  facet normal -0.94693 0.321439 0
    outer loop
      vertex -3.51074 1.4542 2.5
      vertex -3.67052 0.983512 5.9
      vertex -3.51074 1.4542 5.9
    endloop
  endfacet
  facet normal -0.980785 0.19509 0
    outer loop
      vertex -3.76749 0.496 2.5
      vertex -3.76749 0.496 5.9
      vertex -3.67052 0.983512 2.5
    endloop
  endfacet
  facet normal -0.980785 0.19509 0
    outer loop
      vertex -3.67052 0.983512 2.5
      vertex -3.76749 0.496 5.9
      vertex -3.67052 0.983512 5.9
    endloop
  endfacet
  facet normal -0.997859 0.065404 0
    outer loop
      vertex -3.8 0 2.5
      vertex -3.8 0 5.9
      vertex -3.76749 0.496 2.5
    endloop
  endfacet
  facet normal -0.997859 0.065404 0
    outer loop
      vertex -3.76749 0.496 2.5
      vertex -3.8 0 5.9
      vertex -3.76749 0.496 5.9
    endloop
  endfacet
endsolid OpenSCAD_Model
